<svg xmlns="http://www.w3.org/2000/svg" width="160" height="180" fill="none"><path fill="#0A0A0A" d="M70.864 137.215c.041-1.884.072-3.768.142-5.651.07-1.871.174-3.744.182-5.616.007-1.815-.105-3.622-.224-5.432a58.644 58.644 0 0 0-.614-5.564 44.513 44.513 0 0 0-1.168-5.159c-.454-1.579-1.016-3.121-1.534-4.679-1.005-3.028-2.118-6.126-4.498-8.367-.466-.439-.941-.858-1.361-1.343-.127-.146.023-.106.094.124-.022-.074-.115-.16-.16-.227-.103-.153-.195-.313-.295-.468a6.707 6.707 0 0 0-.96-1.188c-.66-.638-1.435-1.162-2.16-1.722-.742-.572-1.483-1.144-2.227-1.714-2.814-2.156-5.76-4.117-8.609-6.225-.148-.11-.295-.219-.441-.33-.078-.058-.68-.507-.278-.21-.367-.27-.721-.565-1.073-.855-.61-.504-1.18-1.051-1.824-1.515-.603-.435-1.38-.705-2.128-.648-1.103.084-1.964.67-2.742 1.419-.61.587-1.266 1.141-1.806 1.796-.608.737-1.023 1.513-1.402 2.381-.675 1.55-1.62 2.912-2.506 4.343-.853 1.379-1.998 3.007-1.33 4.681.256.641.566 1.252.89 1.86.27.51.517 1.027.844 1.503.917 1.339 2.1 2.44 3.13 3.685l.184.227c.166.204-.274-.378-.045-.055.118.168.238.334.353.504.245.359.478.726.718 1.089.48.728.98 1.447 1.63 2.035.257.231.522.454.768.696.112.11.209.236.32.345-.323-.317-.182-.26-.115-.139.07.127.209.425-.016-.115l2.737-2.104a5.225 5.225 0 0 1-.92-.541c-.063-.045-.124-.098-.189-.139.367.232.186.147.095.071-.186-.153-.372-.305-.555-.461-.543-.465-1.138-.909-1.609-1.448l-.076-.09c-.124-.154-.1-.119.075.103.003-.02-.135-.188-.135-.188-.111-.158-.216-.32-.318-.484-.205-.329-.397-.666-.6-.997-.418-.685-.918-1.313-1.388-1.964-1.069-1.478-2.11-2.986-3.325-4.35a12.19 12.19 0 0 0-2.056-1.822c-.16-.115-.323-.227-.483-.343l-.19-.14c-.326-.238.247.213.05.037a8.041 8.041 0 0 1-.894-.93c-.258-.316-.521-.626-.78-.94-.141-.171-.314-.342-.43-.53.028.043.243.324.045.057-.079-.107-.158-.213-.234-.321-.22-.316-.378-.657-.539-1.005a5.811 5.811 0 0 0-.9-1.38c-.522-.608-1.15-1.122-1.7-1.704a28.6 28.6 0 0 1-1.126-1.26 19.68 19.68 0 0 1-.233-.283l-.075-.094c-.123-.157-.098-.125.073.095 0-.098-.237-.326-.294-.41-.05-.071-.094-.147-.145-.218-.156-.22.11-.004.04.13-.013.026-.044-.484-.031-.061.011.348 0-.016-.008-.079-.042-.333-.078-.67-.17-.993-.148-.52-.39-1.015-.621-1.503l-.11-.231c-.016-.037-.139-.416-.065-.143.08.29-.04-.143-.047-.167a5.205 5.205 0 0 1-.156-.65c-.007-.034-.081-.462-.027-.14.054.319-.01-.104-.014-.141l-.028-.259c-.062-.58-.118-1.17-.25-1.74-.095-.41-.252-.803-.4-1.197a14.58 14.58 0 0 1-.207-.573c-.052-.159-.23-.552-.189-.722-.057.237.02.252.012.066-.008-.164-.02-.327-.025-.492-.006-.257-.004-.514-.01-.772a10.571 10.571 0 0 0-.238-1.871 16.27 16.27 0 0 1-.123-.672c-.022-.135-.046-.27-.06-.407l.027.204a24.872 24.872 0 0 1-.15-1.795 63.54 63.54 0 0 1-.05-3.081c0-1.157.035-2.411-.506-3.47l.186.685v-.137c0-.71-.626-1.392-1.359-1.359-.736.033-1.357.597-1.358 1.359v.137l.185-.685c-.503.966-.546 2.125-.59 3.19a52.514 52.514 0 0 0-.06 2.803c.011.923.06 1.845.174 2.762.07.564.142 1.135.264 1.69.027.124.122.267-.001-.056.037.096.02.248.024.352.01.257.006.515.004.772a8.696 8.696 0 0 0 .496 3.051c.142.397.287.793.38 1.204.025.11.042.22.065.33.069.336.003-.05-.008-.097.057.25.058.525.087.78.058.532.116 1.07.24 1.591.135.571.38 1.11.628 1.64.082.173.235.387.267.573-.006-.034-.147-.411-.046-.089.026.083.056.163.08.247.007.026.085.382.085.382-.006 0-.058-.483-.022-.155.037.337.065.688.182 1.01.347.945 1.064 1.749 1.71 2.505.513.603 1.052 1.19 1.623 1.74.288.278.587.546.86.839.077.082.149.168.224.25.181.2-.224-.374-.032-.019.107.197.213.391.306.595.41.894.987 1.634 1.608 2.395.54.663 1.058 1.396 1.71 1.954.376.321.776.614 1.179.9.16.115.32.231.482.345.232.164-.099-.07-.093-.076.012-.01.24.197.277.23.64.56 1.193 1.233 1.722 1.895.082.103.17.204.245.31a61.042 61.042 0 0 1 .348.468c.263.356.52.714.778 1.072.556.773 1.154 1.524 1.68 2.316.484.727.88 1.508 1.406 2.207.592.785 1.292 1.382 2.032 2.019.74.637 1.512 1.331 2.413 1.731.707.313 1.423.353 2.07-.146.53-.41.95-1.281.667-1.958-.23-.552-.444-.931-.827-1.391a6.906 6.906 0 0 0-.72-.715c-.24-.214-.486-.422-.712-.651-.046-.047-.09-.097-.137-.144-.145-.149-.19-.064.057.086-.155-.094-.29-.402-.395-.556-.46-.674-.881-1.373-1.369-2.027a24.38 24.38 0 0 0-1.641-1.949 57.422 57.422 0 0 1-1.466-1.67c.339.397.02.017-.06-.097a8.105 8.105 0 0 1-.316-.49c-.136-.23-.25-.468-.372-.704-.24-.464-.495-.92-.72-1.393l-.09-.195c-.069-.145-.018-.223.093.225-.024-.095-.071-.191-.102-.285-.01-.033-.013-.071-.025-.104-.072-.178.04.673.056.286-.002.051-.11.457-.007.177a1.7 1.7 0 0 1 .053-.162c.048-.13.023-.073-.076.173.207-.266.352-.644.525-.938.192-.326.38-.655.58-.977.443-.713.916-1.407 1.354-2.124.413-.678.774-1.377 1.091-2.104.153-.35.303-.701.478-1.04.077-.151.159-.3.247-.444.056-.091.121-.177.175-.268.112-.189-.244.27-.014.016.573-.63 1.195-1.206 1.812-1.792.068-.064.137-.126.204-.19.105-.102.244-.121-.087.055.126-.067.286-.164.4-.248.186-.136-.464.159-.157.075.178-.048.14.043-.261.021.044.003.109-.002.15-.005.133.008.1.002-.1-.02-.198-.031-.233-.033-.103-.005.4.152-.386-.23-.056-.029.108.066.213.132.318.204.116.079.169.203-.162-.126.044.043.1.081.147.121.13.11.257.222.384.335a40.362 40.362 0 0 0 2.15 1.749c2.664 2.046 5.509 3.842 8.199 5.853 1.46 1.092 2.905 2.204 4.354 3.31.131.1.295.19.408.31-.267-.283-.188-.148-.09-.068.073.062.149.121.222.184a6.257 6.257 0 0 1 .539.513c.039.043.077.087.114.131.086.104.053.059-.1-.135.054.154.218.335.306.473a7.6 7.6 0 0 0 .291.425c.258.35.527.694.832 1.005.464.472.981.888 1.442 1.363.232.238.454.487.663.745.223.276.019-.052-.032-.043.01-.002.146.199.138.188.113.158.222.319.328.482.39.605.728 1.242 1.032 1.894.074.16.146.321.216.482.031.072.06.144.093.216-.18-.396-.077-.185-.041-.094.145.365.29.731.428 1.099 1.114 2.979 2.229 5.966 2.978 9.062a54.1 54.1 0 0 1 .997 5.044l.039.276c-.04-.284-.006-.041.001.014.029.232.058.464.084.696.05.432.097.865.144 1.297.097.879.192 1.759.27 2.639.318 3.594.436 7.2.515 10.806l.058 2.677c.028 1.248 1.913 1.25 1.94 0Zm-47.968-31.432c-.044-.615-.27-1.183-.615-1.692a6.5 6.5 0 0 0-.22-.299 42.2 42.2 0 0 0-.136-.177l.024.031c.086.108.007.006-.012-.019a9.91 9.91 0 0 0-.112-.148c-.2-.259-.404-.514-.603-.772l.138.179c-.635-.826-1.035-1.795-1.5-2.721a10.015 10.015 0 0 0-.823-1.397c-.303-.418-.626-.82-.93-1.238-.353-.485-.68-.991-.915-1.545l.13.307c-.274-.658-.418-1.368-.64-2.044a7.023 7.023 0 0 0-.542-1.255 10.771 10.771 0 0 1-.504-1.016l.157.373c-.207-.49-.343-1.004-.465-1.52a43.553 43.553 0 0 0-.43-1.647c-.332-1.193-.448-2.43-.678-3.643-.13-.678-.318-1.338-.41-2.024l.056.421a15.3 15.3 0 0 1-.113-3.025c.029-.417.063-.833.076-1.251a9.168 9.168 0 0 0-.096-1.606 2.562 2.562 0 0 0-.333-.91c-.073-.125-.162-.237-.25-.351-.156-.202-.3-.385-.535-.51l.463.463c-.215-.293-.425-.51-.787-.614-.127-.036-.263-.046-.393-.056a1.067 1.067 0 0 0-.173 0c-.35.027-.628.143-.845.424-.224.29-.251.586-.193.939l.007.042-.04-.296c.038.3-.006.59.195.864l-.13-.308c.02.133.079.262.099.398l-.05-.369c.041.312.056.624.098.937l-.053-.392c.102.806-.007 1.628-.095 2.43a16.015 16.015 0 0 0-.051 2.838c.09 1.34.413 2.641.627 3.963.098.61.193 1.22.327 1.823.126.57.307 1.125.465 1.687.16.569.304 1.144.518 1.697.148.38.3.801.53 1.146.239.357.526.676.788 1.015l-.229-.296c.25.329.466.688.63 1.067l-.137-.324c.215.524.402 1.059.625 1.58.18.421.419.812.692 1.18.327.441.678.86 1.044 1.27.315.351.639.697.928 1.07l-.177-.23c.642.84 1.08 1.811 1.72 2.651.318.42.653.802 1.04 1.159.327.299.665.587.95.928.035.042.067.086.103.127-.163-.19-.014-.013.024.041.064.093.124.19.178.29.028.052.053.105.078.158.051.106-.027-.06-.028-.068.005.031.023.063.034.093.04.118.069.239.088.363.025.159.192.356.33.429a.737.737 0 0 0 .458.085c.33-.044.648-.347.623-.705Zm-7.626 4.282c.208-.59-.137-1.267-.406-1.782-.25-.481-.606-.907-.904-1.357a5.825 5.825 0 0 1-.498-.944l.097.231-.251-.596.1.236c-.228-.539-.436-1.086-.687-1.615-.22-.463-.463-.914-.717-1.358-.508-.888-1.056-1.753-1.55-2.649a16.595 16.595 0 0 1-.765-1.547l.123.29c-.209-.496-.419-.992-.61-1.494-.19-.495-.373-.997-.449-1.523l.047.35c-.06-.453-.032-.907-.025-1.362a7.758 7.758 0 0 0-.137-1.69c-.175-.843-.477-1.655-.595-2.51l.052.391c-.096-.735-.04-1.48-.064-2.22-.012-.376-.01-.756-.03-1.132-.006-.091-.019-.181-.03-.272-.022-.19-.03-.412-.076-.59-.064-.253-.21-.517-.323-.758-.166-.36-.62-.572-.997-.572s-.83.213-.997.572a34.06 34.06 0 0 1-.133.283c-.07.146-.162.296-.193.453-.013.065-.021.13-.03.196-.056.365-.1.727-.123 1.095-.033.514-.068 1.025-.053 1.54.018.617.059 1.229.166 1.837.08.456.216.897.36 1.336.173.53.368 1.057.443 1.61l-.05-.37c.045.354.05.71.07 1.067.022.44.068.885.156 1.316.129.632.418 1.248.673 1.835.478 1.099 1.002 2.183 1.65 3.193.685 1.07 1.449 2.088 2.106 3.176.326.541.606 1.102.88 1.67a6.978 6.978 0 0 0 1.042 1.588c.344.39.7.772 1.049 1.157.087.096.175.19.258.29l.047.058c.107.132-.089-.121-.02-.027.038.051.075.101.11.153.063.095.115.195.168.296.036.066-.067-.166-.03-.072a.63.63 0 0 0 .16.274c-.072-.097-.092-.121-.06-.07.008.018.02.037.03.055.062.106-.045-.119-.014-.038.082.214.266.403.515.392a.558.558 0 0 0 .515-.392Zm-.765 8.01a5.947 5.947 0 0 1-.684-.751l.117.152c-.306-.399-.55-.849-.786-1.292-.234-.441-.46-.884-.705-1.319-.255-.452-.461-.934-.733-1.376-.298-.483-.688-.877-1.118-1.241-.409-.346-.815-.684-1.145-1.109l.168.218c-.363-.476-.593-1.043-.842-1.583a9.225 9.225 0 0 0-.41-.808c-.153-.258-.336-.496-.493-.752a6.147 6.147 0 0 1-.404-.789l.111.264c-.137-.326-.25-.661-.365-.996-.132-.389-.275-.774-.401-1.164-.261-.804-.494-1.614-.797-2.404a7.005 7.005 0 0 0-.38-.847 3.078 3.078 0 0 0-.539-.7c-.274-.276-.768-.36-1.105-.142a1.087 1.087 0 0 0-.327.327c-.137.213-.133.466-.092.703.016.096.031.193.044.289l-.036-.266c.024.182.048.349.102.522.03.096.06.193.087.29.056.198.132.391.195.588.13.403.236.814.363 1.219.25.796.53 1.579.81 2.366.274.768.584 1.522 1.062 2.188.257.356.467.736.657 1.132.183.381.354.769.563 1.138.254.449.57.86.964 1.195.378.321.79.599 1.182.901l-.206-.16c.268.209.523.432.732.702l-.154-.2c.238.313.423.661.625.997.192.319.405.626.606.94.427.667.908 1.322 1.437 1.912.277.31.555.612.882.872.155.123.302.21.508.21a.73.73 0 0 0 .507-.21c.254-.276.297-.745 0-1.016Zm-10.924-.156c.042.057.074.117.11.177.06.101-.01-.001 0-.011v-.072a.448.448 0 0 0 .05.228c.095.226-.03-.103.028.056l.03.091c.03.095.056.191.079.288.075.318.122.641.189.961.066.321.16.657.273.963.135.366.244.74.394 1.101.358.861.916 1.614 1.452 2.372a65.81 65.81 0 0 0 1.563 2.115c.544.709 1.07 1.432 1.608 2.147.595.791 1.191 1.595 1.866 2.321.602.649 1.274 1.232 1.893 1.865.594.608 1.165 1.233 1.786 1.815a22.009 22.009 0 0 0 2.447 2.01c.75.523 1.56.956 2.287 1.514l-.327-.252c.267.208.503.443.753.671.343.312.723.594 1.119.837.57.349 1.179.629 1.712 1.039l-.33-.255c.704.555 1.403 1.115 2.115 1.66.614.471 1.255.906 1.869 1.378l-.33-.255c.671.524 1.253 1.142 1.829 1.766.573.622 1.167 1.218 1.686 1.887l-.255-.33c.65.845 1.214 1.759 1.635 2.741l-.165-.39c.25.595.452 1.213.544 1.853l-.059-.433c.11.833.037 1.67.04 2.506a7.89 7.89 0 0 0 .17 1.563c.126.608.53 1.151.908 1.626l.283.218c.16.102.334.158.52.166.298.04.63.002.89-.166.529-.34.803-.958.643-1.578a4.122 4.122 0 0 1-.09-.445l.054.396a3.936 3.936 0 0 1-.03-.366c-.008-.247-.051-.491-.087-.736l.058.427c-.143-1.078.025-2.169-.06-3.25-.104-1.337-.531-2.57-1.143-3.758-.543-1.053-1.246-2.027-2.018-2.923-.342-.397-.714-.767-1.07-1.152-.349-.377-.694-.758-1.06-1.118-1.009-.994-2.225-1.753-3.342-2.616l.33.255a90.589 90.589 0 0 1-1.007-.791c-.41-.326-.811-.67-1.25-.957-.617-.403-1.302-.691-1.892-1.135l.328.253c-.337-.261-.63-.571-.967-.833-.413-.32-.833-.62-1.277-.896-.708-.44-1.418-.861-2.08-1.37l.322.248a24.073 24.073 0 0 1-1.64-1.393c-.542-.504-1.049-1.04-1.57-1.565-1.066-1.071-2.207-2.059-3.22-3.182-.512-.567-1.008-1.148-1.51-1.722-.506-.578-1.042-1.127-1.56-1.693-.504-.552-1-1.112-1.485-1.681-.253-.297-.516-.587-.768-.885-.023-.028-.06-.062-.076-.093.005.01.158.219.059.073-.04-.059-.08-.117-.118-.177a6.164 6.164 0 0 1-.255-.447c-.089-.168-.172-.34-.256-.51-.039-.08-.076-.161-.119-.239-.037-.067-.163-.18-.174-.248.084.11.106.135.065.076a2.88 2.88 0 0 0-.048-.073c-.172-.254-.34-.5-.484-.771-.147-.277-.286-.56-.457-.823a3.369 3.369 0 0 0-.127-.181l-.089-.119c.054.06.03.027-.072-.098l-.12-.092c.097.081.034.024.014.006a2.49 2.49 0 0 0-.35-.253.499.499 0 0 0-.588.076c-.141.141-.202.417-.076.588Z"/><path fill="#0A0A0A" d="M30.812 150.697c.466-.447.757-.856 1.098-1.402.619-.992 1.423-1.728 2.242-2.542 1.612-1.601 3.348-2.915 5.194-4.236 1.72-1.231 3.691-2.224 5.637-3.022 1.814-.743 3.405-1.918 5.299-2.522 1.17-.372 2.374-.683 3.556-1.046 1.456-.447 3.03-1.276 4.557-1.302 2.5-.043 4.902-.908 7.397-.894 1.4.008 4.986-.742 5.287 1.206.143.926.332 1.801.328 2.747-.005 1.316-.313 2.539-.3 3.839.009.983-.001 1.968-.002 2.952 0 .538.043 1.089.007 1.625-.032.484-.232.805-.325 1.265-.15.741.015 1.658.015 2.422v3.038c0 .899-.078 1.839-.007 2.735.06.74.327 1.53.539 2.172.223.679.551 1.137.901 1.743.484.839 1.702 1.478 1.92 2.408.308 1.314-.533 2.299-1.469 3.074-.481.399-.664.54-1.3.587-.641.047-1.287.353-1.91.289-2.014-.206-4.05-1.613-5.222-3.161-.914-1.209-2.146-2.435-3.604-3.05-.625-.263-1.098-.509-1.804-.453-.998.08-2.367.63-3.19 1.191-1.139.775-1.893 2.218-2.851 3.189-.924.937-1.735 1.234-2.974 1.453-1.315.232-1.911.223-3.197-.296-1.304-.526-2.234-1.502-3.4-2.276-.965-.64-1.901-1.127-3.098-.774-.57.168-1.398.691-1.901.996-.498.301-.963.901-1.507 1.06-.973.284-2.503.109-3.204-.588-.859-.854-.897-1.594-.895-2.75.002-.546.038-1.105.012-1.65-.028-.591-.294-1.082-.326-1.668-.054-1 .012-2.025.012-3.027 0-.93-.024-1.864-.007-2.794.016-.954.509-1.833.916-2.659"/><path fill="#0A0A0A" d="M31.491 151.376c.42-.372.773-.798 1.104-1.251.073-.1.144-.202.215-.304l.09-.127a3.5 3.5 0 0 0 .019-.031c.129-.203.326-.392.49-.568.718-.772 1.53-1.478 2.333-2.16a29.476 29.476 0 0 1 .888-.726c.062-.049.123-.098.186-.146l-.137.107.123-.095c.172-.131.353-.252.518-.39.168-.141-.065.047-.083.061l.186-.143a45.5 45.5 0 0 1 .659-.491c.868-.636 1.748-1.266 2.661-1.837a26.842 26.842 0 0 1 3.268-1.723l-.358.152c.436-.183.866-.38 1.302-.564l-.362.153c.978-.412 1.955-.803 2.9-1.29.836-.431 1.662-.884 2.529-1.252l-.38.16c1.422-.595 2.955-.905 4.433-1.33 1.397-.402 2.727-1.077 4.177-1.277l-.45.061c.48-.06.964-.045 1.446-.081a26.473 26.473 0 0 0 1.904-.232c1.003-.151 1.999-.349 3.005-.485l-.462.062c1.038-.137 2.075-.121 3.117-.192.828-.057 1.667-.118 2.494-.011l-.473-.064c.293.041.582.104.857.216l-.427-.18c.15.064.292.142.422.242l-.362-.28c.084.068.16.142.227.226l-.28-.362c.066.087.12.18.163.28l-.18-.429c.095.238.115.495.155.746.059.374.121.747.172 1.121l-.064-.479c.107.823.1 1.634.013 2.458-.083.798-.208 1.592-.22 2.395-.01.827.005 1.656.004 2.484 0 .415-.001.829.01 1.244.012.4.032.806-.016 1.204l.063-.476c-.053.338-.191.648-.276.977a5.544 5.544 0 0 0-.157 1.441c.011.758.081 1.514.095 2.272.015.815.034 1.63.044 2.445.011.816-.036 1.633.025 2.448.04.548.106 1.127.28 1.652.101.305.243.603.369.896.084.195.156.418.277.593l-.153-.362a6.8 6.8 0 0 0 .668 1.398c.261.422.513.843.826 1.23.43.532 1.002.93 1.43 1.464l-.225-.291c.112.147.209.299.283.468l-.144-.341a2.1 2.1 0 0 1 .119.477l-.051-.379c.023.196.024.39 0 .587l.051-.377a2.61 2.61 0 0 1-.163.6l.142-.337c-.116.272-.27.52-.451.753l.218-.282c-.334.42-.736.786-1.158 1.118l.278-.215c-.12.091-.243.171-.382.232l.328-.138a1.926 1.926 0 0 1-.416.108l.362-.049c-.382.051-.765.084-1.14.174-.292.07-.58.152-.877.196l.356-.048c-.221.027-.434.02-.655-.007l.354.048c-.163-.022-.326-.045-.49-.065l.353.047a7.25 7.25 0 0 1-1.547-.447l.311.132a8.722 8.722 0 0 1-.902-.45 4.49 4.49 0 0 1-.425-.274c-.035-.026-.29-.219-.1-.073.19.146-.06-.05-.093-.077a8.87 8.87 0 0 1-1.356-1.397l.213.275c-.31-.407-.606-.822-.93-1.218l.219.282c-.72-.96-1.538-1.798-2.51-2.503a8.95 8.95 0 0 0-1.244-.73c-.31-.156-.63-.299-.955-.423-.354-.136-.722-.173-1.098-.217l.472.063c-.55-.141-1.112-.048-1.66.055a6.705 6.705 0 0 0-.849.222 10.49 10.49 0 0 0-1.992.873 6.835 6.835 0 0 0-1.609 1.306c-.407.447-.765.936-1.138 1.411-.408.518-.838 1.012-1.358 1.421l.375-.289c-.3.23-.623.421-.972.568l.442-.187c-.647.264-1.348.389-2.038.483l.492-.066a4.747 4.747 0 0 1-1.22.019l.492.066c-.504-.073-.984-.242-1.453-.434l.441.186c-.73-.311-1.37-.772-1.996-1.253l.374.288c-1.465-1.131-3.098-2.522-5.08-2.409-.684.038-1.23.197-1.849.465a8.626 8.626 0 0 0-.945.493c-.282.166-.57.33-.837.52-.397.283-.746.613-1.126.915l.367-.283c-.15.116-.305.219-.478.295l.431-.182c-.19.073-.39.112-.59.14l.48-.064c-.4.05-.796.04-1.195-.012l.477.064a3.922 3.922 0 0 1-.858-.232l.428.181a2.529 2.529 0 0 1-.52-.295l.363.28a3.024 3.024 0 0 1-.47-.486l.279.361a2.814 2.814 0 0 1-.354-.598l.18.426a3.044 3.044 0 0 1-.19-.74l.064.474c-.083-.692-.036-1.394-.03-2.088a6.848 6.848 0 0 0-.138-1.534c-.079-.359-.203-.705-.254-1.071l.063.47c-.114-1.05-.011-2.125-.014-3.178-.002-.522-.011-1.044-.017-1.566-.006-.53-.039-1.075.028-1.601l-.063.463c.119-.793.51-1.494.738-2.253l-.164.387.033-.065c.194-.394.283-.814.163-1.249-.104-.376-.394-.783-.745-.968-.376-.199-.831-.299-1.248-.164-.386.125-.783.369-.969.745-.135.273-.324.528-.477.794a6.37 6.37 0 0 0-.543 1.231c-.241.759-.247 1.553-.248 2.341 0 .719.012 1.437.003 2.156-.01.702-.043 1.404-.039 2.106.004.52.031 1.035.136 1.546.072.348.189.685.243 1.037l-.063-.471c.102.812-.019 1.647.009 2.463.029.883.192 1.785.685 2.537a4.7 4.7 0 0 0 1.051 1.166c.407.315.824.52 1.316.692.435.153.901.209 1.357.259.317.035.637.035.954.001.632-.069 1.222-.17 1.776-.508.458-.281.845-.664 1.267-.994l-.368.284c.268-.204.568-.368.858-.536.32-.186.643-.364.982-.509a81.17 81.17 0 0 0-.436.184c.249-.103.503-.173.77-.21l-.487.065c.234-.026.464-.025.697.004l-.488-.065c.27.04.526.116.778.218l-.44-.185c.748.317 1.416.807 2.056 1.3l-.373-.288c.78.603 1.543 1.259 2.425 1.712.971.5 2.032.86 3.13.906.525.022 1.058-.066 1.574-.144.406-.062.813-.134 1.21-.242a6.55 6.55 0 0 0 2.61-1.415c.798-.695 1.386-1.607 2.027-2.44l-.286.371c.383-.495.788-.976 1.283-1.363l-.368.285c.453-.343.964-.602 1.485-.823l-.432.183c.539-.223 1.099-.404 1.677-.486l-.477.064c.292-.037.587-.033.875-.11l-.472.064c.162-.011.32-.007.48.011a72.618 72.618 0 0 0-.46-.062c.242.033.487.088.715.175l-.399-.168c.376.158.762.28 1.14.435l-.386-.163a7.97 7.97 0 0 1 1.746 1.036l-.3-.231a9.8 9.8 0 0 1 1.504 1.453c.421.504.847.983 1.354 1.405 1.17.972 2.551 1.832 4.046 2.185.47.111.971.201 1.453.147.526-.06 1.03-.2 1.55-.28l-.361.048c.388-.051.796-.041 1.17-.17a3.34 3.34 0 0 0 .992-.554c.608-.47 1.134-.963 1.591-1.585.46-.625.724-1.417.733-2.193.004-.389-.046-.812-.19-1.176a4.188 4.188 0 0 0-.708-1.171c-.397-.486-.901-.871-1.286-1.367l.229.296c-.346-.463-.63-1.017-.862-1.545l.152.359a7.51 7.51 0 0 1-.183-.493l.054.402c-.013-.432-.146-.865-.223-1.29-.06-.339-.134-.677-.181-1.018l.06.444c-.087-.706-.042-1.425-.008-2.133.034-.711.044-1.422.057-2.134.012-.697.056-1.401.03-2.098-.026-.644-.115-1.288-.04-1.932l-.064.476c.06-.433.251-.826.334-1.252.12-.624.108-1.243.093-1.874-.026-1.033.005-2.069 0-3.103-.005-1.032.14-2.035.242-3.059.115-1.156.01-2.271-.183-3.415-.063-.379-.093-.79-.222-1.153-.17-.481-.418-.949-.805-1.294a3.936 3.936 0 0 0-2.069-.955 10.532 10.532 0 0 0-2.166-.094c-.528.031-1.055.09-1.584.12-.405.022-.811.016-1.217.047-.693.053-1.383.152-2.068.264-1.12.185-2.229.43-3.354.582l.454-.061c-.587.077-1.17.096-1.76.139a8.885 8.885 0 0 0-1.973.374c-1.07.332-2.094.799-3.164 1.134-1.154.361-2.334.662-3.469 1.08-1.124.414-2.171.977-3.215 1.559-.459.256-.919.51-1.39.744-.503.25-1.025.46-1.537.692-1.036.47-2.045.999-3.016 1.592-.973.594-1.884 1.271-2.786 1.966-.962.741-1.914 1.491-2.802 2.32a35.54 35.54 0 0 0-2.582 2.682 13.668 13.668 0 0 0-.428.521l-.216.28.078-.102c-.223.3-.437.597-.624.921-.151.26-.298.521-.467.77a5.88 5.88 0 0 1-.133.186c-.106.12-.207.243-.317.359-.344.367-.39 1.001 0 1.359.403.37.957.356 1.36 0Z"/><path fill="#0A0A0A" d="M82.335 162.597a3.304 3.304 0 0 0-.318-.147l-.102-.039c-.016-.005-.146-.061-.074-.026a5.48 5.48 0 0 0-.537-.229c-.324-.119-.657-.212-.977-.344l.194.082c-.137-.058-.272-.117-.413-.162a2.958 2.958 0 0 1-.258-.096l.213.09c-.196-.086-.382-.193-.575-.287a6.501 6.501 0 0 0-.814-.341 4.254 4.254 0 0 0-.852-.18c-.221-.024-.443-.032-.664-.061l.304.041a1.586 1.586 0 0 1-.372-.093l.286.12a1.49 1.49 0 0 1-.257-.148l.25.193c-.193-.161-.405-.305-.608-.453a3.943 3.943 0 0 0-.373-.237c-.263-.15-.536-.297-.777-.48l.272.21a1.72 1.72 0 0 1-.298-.289l.21.272c-.209-.272-.38-.587-.645-.809-.18-.15-.35-.278-.556-.38-.112-.055-.224-.109-.324-.185l.273.211a.929.929 0 0 1-.135-.132l.211.273c-.075-.1-.126-.211-.183-.321a2.63 2.63 0 0 0-.421-.567c-.187-.199-.409-.362-.578-.578l.206.266c-.337-.44-.564-.957-.78-1.465l.13.307c-.178-.435-.226-.903-.37-1.347-.066-.204-.16-.397-.221-.603a3.487 3.487 0 0 1-.106-.527l.045.336c-.037-.286-.042-.587-.132-.862-.061-.186-.142-.358-.17-.554l.045.334c-.022-.198-.008-.396.004-.594a3.567 3.567 0 0 0-.064-.885c-.063-.332-.172-.653-.22-.988l.045.332c-.025-.194-.02-.387-.028-.582a6.975 6.975 0 0 0-.101-.869c-.06-.358-.152-.71-.2-1.069l.043.327c-.049-.396.005-.81.026-1.207.014-.252.026-.504.026-.757a3.805 3.805 0 0 0-.119-.982c-.094-.359-.244-.735-.505-1.008l.156.203a1.41 1.41 0 0 0-.443-.435 1.207 1.207 0 0 0-.572-.178l.47.128-.011-.008c-.182-.135-.51-.152-.718-.094a.946.946 0 0 0-.557.428c-.114.216-.171.478-.094.718l.094.222c.083.14.194.251.334.334l.011.008-.428-.556c.043.129.1.214.15.328l-.099-.231c.046.115.085.231.137.345l-.1-.239c.014.069.035.135.045.206l-.037-.275c.029.225.01.454-.02.679l.04-.305a8.207 8.207 0 0 0-.06.629 9.936 9.936 0 0 1-.027.348c-.022.234-.05.468-.079.701-.044.367-.107.743-.069 1.112.05.48.16.947.224 1.424l-.044-.331c.024.19.035.38.034.572-.002.278.035.55.078.825.051.332.163.652.212.985l-.045-.334c.039.327-.033.653-.014.98.015.253.047.515.134.754.052.142.108.278.129.429l-.045-.336c.048.417.076.845.201 1.247.056.181.137.352.195.532.058.183.1.372.139.56.041.195.079.392.133.585.05.179.12.352.189.524.173.436.349.882.59 1.285.155.258.337.504.545.72.146.153.305.293.436.461l-.209-.27c.078.105.129.223.184.341.097.209.238.415.407.568.17.155.356.291.563.393.122.06.246.116.356.198l-.272-.211c.08.064.148.138.211.218l-.21-.272c.165.214.314.438.49.645.175.205.408.367.628.517.373.257.804.39 1.219.56l-.309-.13c.373.16.717.404 1.122.483.26.051.512.076.773.044.254-.031.502-.078.755-.119l-.287.038c.154-.012.303-.01.457.01l-.28-.038c.284.039.561.105.845.142l-.27-.036c.3.053.592.13.889.195.212.046.431.074.648.087.2.011.413-.037.61-.076.278-.055.55-.131.828-.184.065-.013.132-.028.198-.034-.12.011.001.001.02 0 .035-.004.07-.006.106-.009.078-.007-.032-.013.042.004.035.009.071.015.106.023.084.02.167.044.248.073.16.056.34-.051.4-.197.064-.15.011-.343-.138-.424Z"/><path fill="#9896FF" d="M32.346 157.986c.336-.349.641-.729.994-1.061.088-.083.179-.162.273-.238-.025.02-.106.077.013-.009l.142-.101c.2-.138.408-.265.613-.396.417-.265.801-.568 1.185-.877.055-.045.197-.204.272-.215l-.08.062a3.074 3.074 0 0 1 .226-.159c.21-.136.423-.265.637-.394.427-.258.855-.515 1.281-.774.405-.246.833-.443 1.257-.65.423-.207.85-.405 1.267-.626.45-.24.88-.516 1.312-.786.869-.542 1.732-1.092 2.597-1.639.428-.271.857-.54 1.287-.808.412-.256.845-.485 1.242-.763.184-.13.363-.267.553-.387a3.252 3.252 0 0 1 .429-.228c.042-.02.084-.039.127-.057l-.15.064c.42-.203.885-.344 1.32-.512.914-.353 1.853-.582 2.806-.796 1.086-.243 2.08-.75 3.15-1.039.516-.14 1.042-.228 1.57-.317.558-.093 1.108-.241 1.669-.321l-.33.044c.287-.036.574-.071.861-.097.288-.027.573.002.86-.015.634-.039 1.232-.284 1.86-.37l-.364.049c.35-.045.697-.058 1.048-.07.429-.013.854-.096 1.277-.154l-.366.049c.413-.053.827-.04 1.243-.038.447.002.89-.017 1.336-.042.433-.024.866-.046 1.3-.069.435-.024.881-.07 1.317-.032l-.329-.045c.185.025.35.093.528.142.395.108.81.11 1.188-.05.337-.142.604-.368.797-.682.123-.201.193-.433.28-.651l-.122.291c.019-.044.039-.087.062-.128.026-.048.173-.25.02-.05-.186.241.153-.098-.103.098-.19.146-.052.045.006.019l-.29.123a.972.972 0 0 1 .199-.047l-.322.043c.24-.024.485-.02.725.006l-.32-.043c.313.043.613.18.933.181.613.002 1.266-.399 1.363-1.047.048-.325.054-.61-.118-.905-.143-.244-.422-.476-.702-.54-.626-.142-1.264.188-1.444.82.537-.481.68-.666.428-.553l.284-.12-.034.006.317-.042a.304.304 0 0 1-.074-.005l.317.042c-.095-.022-.185-.063-.28-.091-.214-.066-.45-.09-.67-.117a3.674 3.674 0 0 0-.93.011c-.406.054-.791.217-1.073.527-.295.325-.433.655-.6 1.056l.123-.292c-.026.058-.065.114-.089.172a.788.788 0 0 1 .312-.305.394.394 0 0 1-.086.043l.293-.124-.057.016.326-.044a.764.764 0 0 1-.179.001l.327.044c-.233-.043-.444-.15-.678-.187-.37-.059-.722-.046-1.093-.058-.565-.018-1.13-.064-1.695-.095a29.77 29.77 0 0 0-1.69-.047c-.278.001-.557-.007-.835.022-.356.037-.71.098-1.065.149l.366-.049c-.264.035-.527.037-.794.052a11.45 11.45 0 0 0-1.153.132 3.4 3.4 0 0 0-.752.183c-.226.09-.444.184-.687.221l.352-.047c-.345.037-.685.057-1.029.118-.247.044-.491.105-.736.157-.53.114-1.03.314-1.552.45-.494.128-1.012.171-1.51.287-.505.117-.986.287-1.469.472-.502.192-1.007.379-1.524.526-.507.144-1.028.234-1.539.363-.996.253-1.947.627-2.903.997-.54.209-1.039.438-1.509.776-.422.303-.873.555-1.315.828-.919.569-1.812 1.183-2.712 1.78-.9.597-1.79 1.231-2.742 1.744-.445.24-.909.449-1.347.702a15.37 15.37 0 0 0-1.284.846c-.489.352-.987.69-1.466 1.055-.259.197-.502.4-.727.635-.183.191-.36.386-.554.566-.41.38-.872.702-1.254 1.113-.222.24-.422.504-.62.763-.185.24-.32.425-.471.611-.22.272-.286.685 0 .947.263.242.687.269.947 0Zm13.404 1.461c1.28-.697 2.571-1.374 3.85-2.074a17.635 17.635 0 0 1 1.142-.574l.082-.036c.143-.063-.128.051.016-.007.153-.062.307-.123.463-.177.32-.113.647-.199.963-.32.16-.06.317-.125.474-.19l.336-.141.13-.055c-.18.074-.027.011.005-.002a8.494 8.494 0 0 1 2.144-.597l-.203.027c.412-.055.826-.091 1.236-.161.379-.065.754-.149 1.129-.229.7-.151 1.35-.472 2.064-.571l-.238.032c.281-.036.563-.041.846-.031.354.011.7-.042 1.05-.089l-.252.034c.56-.075 1.126-.106 1.687-.176.28-.035.561-.084.844-.08.148.002.295.014.443.017.24.005.47-.03.708-.062l-.292.039c.767-.097 1.55-.039 2.32.006.19.012.382.02.573.004.366-.032.627-.091.957-.258.411-.209.662-.581.935-.935l-.19.245c.127-.162.266-.306.428-.433l-.246.189c.141-.107.29-.2.454-.269l-.291.122a1.2 1.2 0 0 1 .276-.075l-.324.043a.846.846 0 0 1 .167 0l-.325-.044a.684.684 0 0 1 .154.044l-.292-.123c.208.094.383.247.573.372.169.11.36.198.55.262.288.098.558.075.85.025.363-.063.782-.466.836-.836l.02-.138a.905.905 0 0 0 .021-.476.888.888 0 0 0-.142-.443c-.144-.248-.428-.484-.713-.549-.305-.069-.648-.054-.92.12-.249.161-.49.411-.548.714l-.026.136 1.154-.879a.397.397 0 0 1-.091.001l.318.043a.568.568 0 0 1-.12-.035l.286.121a1.897 1.897 0 0 1-.388-.251l.245.19c-.322-.251-.603-.498-.998-.625-.092-.031-.183-.037-.282-.05-.11-.015-.204-.031-.312-.021-.36.032-.582.1-.908.248-.306.139-.584.355-.83.582-.236.219-.414.493-.609.749l.189-.245c-.07.089-.143.173-.23.245l.243-.189a.938.938 0 0 1-.189.114l.288-.122c-.08.033-.16.053-.245.066l.319-.043c-.26.032-.52.015-.78.004-.276-.012-.55.007-.826.024-.308.019-.613.051-.919.092-.318.042-.628.122-.945.168l.29-.039c-.39.049-.777.045-1.165.114-.307.055-.612.13-.919.192-.299.061-.599.114-.9.162-.283.045-.56.121-.842.166l.247-.033c-.258.034-.517.026-.775.049a5.525 5.525 0 0 0-.94.154c-.507.136-.978.375-1.473.545-.516.176-1.058.315-1.591.428-.502.106-1.01.172-1.505.311a9.153 9.153 0 0 0-1.553.617c-.237.115-.473.235-.71.348l-.17.078c-.041.018-.215.102-.054.025-.125.06-.26.104-.39.15a10.94 10.94 0 0 0-1.5.658c-.47.25-.922.534-1.378.811-1.083.657-2.174 1.3-3.256 1.959-.216.132-.317.44-.174.663a.496.496 0 0 0 .664.175Z"/><path fill="#0A0A0A" d="M91.077 137.215c.08-3.634.124-7.278.354-10.906.11-1.742.298-3.481.489-5.216.047-.432.094-.865.144-1.297.024-.209.049-.418.075-.626.01-.075.052-.384.01-.084l.049-.345c.123-.848.269-1.694.437-2.535.336-1.68.749-3.35 1.241-4.992.46-1.531 1.027-3.019 1.568-4.522.252-.7.498-1.402.76-2.098.118-.313.239-.625.365-.935.046-.112.109-.377-.019.04.022-.072.064-.149.093-.216.078-.179.158-.357.241-.535.297-.633.628-1.253 1.008-1.841.105-.163.214-.324.327-.482.044-.061.101-.124.138-.188-.192.336-.148.186-.068.089.247-.304.505-.598.782-.876.45-.451.948-.853 1.392-1.312a9.41 9.41 0 0 0 .799-.971c.09-.122.176-.246.258-.373.057-.088.111-.178.167-.267.032-.05.285-.404.103-.168-.162.212 0 .008.045-.043a4.944 4.944 0 0 1 .533-.52 8.86 8.86 0 0 1 .222-.183c.057-.047.23-.225.045-.038-.21.213.063-.047.101-.077l.334-.254c.705-.538 1.409-1.078 2.115-1.616 1.405-1.07 2.812-2.136 4.257-3.152 1.371-.965 2.762-1.901 4.126-2.875 1.405-1.002 2.794-2.037 4.087-3.18.115-.1.23-.203.346-.302.06-.05.132-.097.185-.153-.008.008-.393.28-.162.126.094-.063.184-.129.283-.184.392-.222-.446.196.015 0 .193-.082-.538.012-.24.034.022.001.146.01.151.005-.01.008-.524-.09-.261-.02.276.07-.212-.097-.199-.096.104.004.37.29.442.268-.04.012-.341-.308-.087-.056.097.097.199.188.298.283.583.559 1.179 1.097 1.718 1.7.242.27-.037-.064-.051-.069.058.021.143.21.178.267.101.161.194.328.281.497.185.359.342.73.503 1.1.65 1.486 1.568 2.797 2.421 4.169.2.322.387.651.579.977.079.135.161.268.239.403.051.087.101.176.149.265.032.06.198.45.089.157-.111-.3.009.061.026.102.052.129.001.327-.008-.177.007.366.154-.548.039-.21-.022.065-.055.273-.11.313-.01.008.216-.482.094-.225l-.11.235c-.22.458-.468.902-.701 1.353-.122.236-.236.475-.372.703a7.817 7.817 0 0 1-.419.635c-.247.342.116-.135.006 0-.991 1.221-2.129 2.309-3.07 3.572-.502.672-.933 1.392-1.407 2.084-.112.162-.263.325-.357.499.178-.331.185-.221.09-.123-.046.047-.089.098-.135.145-.247.257-.522.486-.788.724-.668.597-1.16 1.239-1.506 2.069-.113.27-.076.715 0 .99.108.392.35.722.668.968.636.492 1.362.46 2.069.146.794-.352 1.482-.944 2.14-1.498.576-.485 1.206-.959 1.713-1.515.607-.666 1.076-1.429 1.534-2.198.418-.701.9-1.343 1.38-2.002.516-.709 1.02-1.426 1.542-2.131.131-.178.265-.354.397-.53.058-.077.197-.288-.049.062.063-.09.136-.174.204-.26.284-.356.576-.707.881-1.047.267-.297.539-.593.836-.86.075-.066.153-.129.229-.194.267-.227-.087.08-.094.072l.578-.416c.779-.554 1.459-1.119 2.064-1.857.643-.785 1.314-1.552 1.894-2.386.208-.3.361-.62.513-.95.084-.185.168-.369.268-.545l.063-.106c.09-.133.089-.138-.004-.016a6.234 6.234 0 0 1 .195-.215c.553-.591 1.165-1.123 1.716-1.717a25.649 25.649 0 0 0 1.777-2.132c.29-.389.54-.772.701-1.236.103-.297.129-.586.169-.903.009-.07.022-.144.026-.214-.029.559-.007.1.034-.055.027-.105.066-.207.096-.311.034-.119.033-.3-.046.09.037-.185.187-.405.267-.575.238-.509.476-1.027.613-1.574.136-.541.195-1.102.255-1.656l.071-.65c.021-.197-.068-.145-.013.1-.024-.106.048-.289.072-.4.188-.876.612-1.681.765-2.568.109-.633.128-1.251.123-1.89-.002-.282.008-.561.018-.843.012-.353-.019.012-.015.057-.013-.141.065-.335.091-.476a23.52 23.52 0 0 0 .357-3.421 42.17 42.17 0 0 0-.027-3.08c-.047-1.202-.037-2.517-.607-3.61l.185.685v-.137c-.001-.71-.624-1.392-1.358-1.359-.736.033-1.36.597-1.359 1.359v.137l.186-.685c-.496.97-.508 2.127-.506 3.19.001.887-.001 1.776-.025 2.663a30.87 30.87 0 0 1-.068 1.392c-.015.207-.033.414-.054.62-.011.115-.026.23-.037.344-.038.385.056-.346-.008.07-.154 1.012-.392 1.993-.405 3.024-.003.21-.002.421-.009.632a8.217 8.217 0 0 1-.018.35c-.029.392.015.008.007.005.064.018-.357 1.193-.396 1.295-.141.373-.29.746-.386 1.135-.14.567-.195 1.158-.257 1.737-.019.172.003.422-.065.582l.032-.235c-.01.065-.02.13-.032.194a5.937 5.937 0 0 1-.063.323c-.045.2-.118.39-.17.587-.07.272.186-.392.007-.004-.053.117-.108.233-.163.35-.222.468-.451.943-.602 1.44a4.012 4.012 0 0 0-.122.562 18.125 18.125 0 0 0-.057.43 1.588 1.588 0 0 1-.049.204c-.027-.04.234-.418.04-.13-.039.057-.076.116-.114.173-.104.154-.226.298-.325.454.236-.37.146-.186.073-.095-.077.094-.152.19-.23.283a25.042 25.042 0 0 1-2.056 2.205c-.682.646-1.321 1.317-1.723 2.178-.171.366-.332.727-.564 1.06-.101.144-.201.293-.315.427.315-.37.011-.02-.044.05a39.89 39.89 0 0 1-.26.317c-.522.633-1.021 1.278-1.627 1.832-.309.282.342-.243.004.002l-.191.14c-.16.115-.322.227-.483.342-.419.3-.841.607-1.222.955-1.327 1.214-2.385 2.754-3.431 4.205-.551.765-1.12 1.518-1.666 2.286-.497.698-.877 1.47-1.368 2.171-.043.062-.097.124-.135.188.251-.421.091-.12-.001-.013a5.38 5.38 0 0 1-.507.506c-.306.265-.617.523-.923.787-.15.13-.301.26-.454.387-.077.065-.155.128-.233.192l-.141.112c.205-.157.252-.194.142-.111-.341.242-.678.475-1.062.645l2.737 2.104c-.211.506-.109.283-.041.156.1-.188.204-.114-.09.098.106-.076.188-.213.282-.307.257-.258.536-.491.806-.734.651-.588 1.15-1.307 1.631-2.035.227-.344.448-.691.678-1.033.128-.189.262-.373.392-.56.182-.261-.051.086-.081.101.079-.039.16-.2.22-.273.484-.584 1.01-1.131 1.52-1.692.586-.646 1.154-1.318 1.643-2.041.32-.473.563-.987.831-1.49.322-.608.633-1.219.885-1.86.356-.908.161-1.815-.227-2.677-.66-1.468-1.672-2.78-2.507-4.149-.92-1.507-1.411-3.231-2.56-4.594-.547-.648-1.2-1.207-1.812-1.792-.776-.74-1.641-1.298-2.734-1.378-1.663-.12-2.853 1.301-4.019 2.255-.159.13-.319.26-.48.388-.146.115-.317.3-.487.38.298-.14.159-.12.051-.039-.091.07-.182.14-.274.208-.201.152-.404.303-.607.453-.703.518-1.415 1.023-2.13 1.524-1.428 1-2.867 1.984-4.265 3.024-1.497 1.114-2.969 2.26-4.447 3.4-.716.552-1.486 1.067-2.124 1.711-.33.334-.625.714-.88 1.108-.089.139-.171.283-.263.42-.045.07-.173.196-.191.275l.158-.203a5.89 5.89 0 0 1-.127.155c-.419.492-.92.905-1.385 1.35a12.31 12.31 0 0 0-1.651 1.98c-.889 1.3-1.508 2.775-2.051 4.247-.521 1.413-.977 2.852-1.466 4.276a49.824 49.824 0 0 0-1.455 5.089c-.818 3.572-1.09 7.233-1.272 10.884-.185 3.69.126 7.393.206 11.083l.062 2.826c.028 1.248 1.913 1.25 1.94 0Zm47.438-31.241c.016-.104.039-.207.07-.307.014-.044.03-.087.045-.13.03-.087-.068.15-.029.067l.041-.089a3.108 3.108 0 0 1 .282-.46c.075-.102-.014.002-.035.042.045-.09.144-.177.211-.252.074-.084.15-.164.23-.241.16-.154.326-.302.49-.452.329-.299.644-.606.92-.955.371-.47.689-.956.994-1.47.302-.512.607-1.023.968-1.495l-.177.229c.289-.372.613-.718.928-1.07a17.43 17.43 0 0 0 1.044-1.27 5.84 5.84 0 0 0 .692-1.18c.224-.52.41-1.055.625-1.579l-.137.324c.164-.379.38-.738.63-1.067l-.229.296c.238-.307.496-.597.72-.916.193-.275.32-.58.45-.888.228-.542.4-1.096.557-1.662.154-.556.332-1.107.475-1.665a20.4 20.4 0 0 0 .353-1.785c.099-.604.195-1.209.314-1.81a22.5 22.5 0 0 0 .35-2.176 14.78 14.78 0 0 0 .015-2.989c-.093-.895-.238-1.809-.125-2.708l-.053.392c.042-.313.057-.625.098-.937l-.05.369c.02-.136.079-.265.099-.398l-.13.308c.199-.272.157-.563.195-.864a29.97 29.97 0 0 1-.04.296l.007-.042c.058-.353.031-.65-.193-.939-.217-.281-.496-.397-.845-.425a1.074 1.074 0 0 0-.173 0c-.131.011-.266.02-.393.057-.362.103-.572.321-.787.615l.463-.464c-.318.17-.57.514-.755.811-.103.164-.168.347-.242.525-.039.093-.079.187-.099.287a7.623 7.623 0 0 0-.123 1.589c.016.79.127 1.576.109 2.367-.016.693-.05 1.386-.141 2.075l.057-.422c-.082.606-.235 1.189-.363 1.785-.131.608-.215 1.225-.313 1.839-.096.608-.2 1.215-.352 1.812-.142.56-.311 1.109-.442 1.671-.137.586-.279 1.171-.514 1.727l.157-.373a9.952 9.952 0 0 1-.492.995 6.97 6.97 0 0 0-.554 1.276c-.222.677-.366 1.386-.639 2.044l.129-.307c-.415.977-1.11 1.788-1.736 2.634-.644.87-1.1 1.861-1.569 2.832a8.156 8.156 0 0 1-.863 1.435l.138-.179c-.195.253-.395.502-.59.755l-.113.148c-.02.026-.038.06-.061.083l.074-.095-.088.114a8.07 8.07 0 0 0-.281.379c-.346.509-.571 1.077-.615 1.692-.025.356.293.661.623.705.319.043.733-.161.788-.514Zm7.245 4.091c.032-.085-.069.132-.024.056a.954.954 0 0 0 .029-.055c.024-.047.085-.101-.049.052.093-.106.113-.17.168-.297.003-.006-.074.163-.033.084.011-.023.021-.045.033-.067.028-.055.059-.108.092-.16.025-.039.052-.078.078-.116.037-.052.181-.224.013-.022.077-.094.154-.188.235-.278.32-.354.638-.708.962-1.059.397-.43.766-.897 1.043-1.415.295-.55.536-1.125.845-1.668.629-1.106 1.387-2.129 2.089-3.188.347-.524.677-1.059.969-1.616.27-.513.514-1.043.755-1.571.176-.385.344-.774.5-1.168.108-.274.218-.551.294-.836.123-.46.168-.945.2-1.42.026-.393.026-.786.076-1.177l-.05.37c.066-.492.23-.961.385-1.431.147-.446.292-.891.386-1.352.123-.599.17-1.21.192-1.82.009-.247.024-.498.011-.745a66.027 66.027 0 0 0-.045-.77 13.564 13.564 0 0 0-.119-1.191l-.029-.196c-.027-.176-.099-.327-.177-.492l-.167-.353c-.167-.359-.62-.572-.997-.572s-.831.213-.997.572c-.11.235-.272.513-.323.758-.041.192-.053.394-.076.59-.011.09-.025.181-.03.272-.02.376-.018.755-.03 1.133-.025.739.032 1.484-.064 2.22l.052-.392c-.118.855-.42 1.667-.595 2.51a7.73 7.73 0 0 0-.137 1.69c.007.455.034.909-.025 1.361l.047-.35c-.076.527-.259 1.03-.448 1.524-.192.502-.403.998-.611 1.495l.123-.291c-.802 1.892-2.05 3.547-2.952 5.388-.285.581-.515 1.185-.766 1.781l.099-.236-.251.596.097-.231c-.127.298-.27.59-.445.863-.134.208-.278.409-.42.612-.163.233-.333.467-.477.713a5.277 5.277 0 0 0-.405.889c-.045.129-.083.26-.104.394-.011.074-.031.152-.031.226 0 .074.019.153.033.227.01.054.023.107.041.159.076.215.271.403.515.392.252-.012.427-.163.515-.392Zm.75 9.025c.622-.495 1.129-1.135 1.604-1.767.441-.587.849-1.201 1.239-1.823.236-.377.437-.775.707-1.13l-.154.199c.209-.269.463-.493.732-.701l-.206.159c.352-.271.718-.524 1.064-.803.36-.29.664-.626.915-1.016.467-.722.732-1.553 1.199-2.276.218-.338.459-.653.646-1.011.2-.384.363-.789.512-1.195.282-.766.56-1.534.806-2.313.142-.451.266-.907.407-1.358.068-.221.148-.437.219-.657.036-.112.065-.227.1-.34l.05-.158c.042-.133.048-.273.067-.411l-.036.266a9.67 9.67 0 0 1 .044-.29c.036-.209.039-.393-.046-.594a.874.874 0 0 0-.373-.436c-.359-.189-.811-.153-1.106.143-.189.191-.367.39-.499.626a6.596 6.596 0 0 0-.362.776c-.156.392-.294.791-.428 1.19-.134.4-.249.805-.377 1.207-.126.396-.269.786-.404 1.18-.13.38-.255.761-.412 1.131l.112-.264c-.1.233-.211.461-.339.68-.151.26-.334.498-.492.753-.318.514-.539 1.078-.802 1.62a5.24 5.24 0 0 1-.516.88l.168-.218c-.295.38-.65.693-1.017 1.001-.434.364-.833.736-1.155 1.208-.295.433-.488.928-.748 1.382a37.44 37.44 0 0 0-.697 1.294c-.26.498-.528 1.006-.871 1.452l.118-.153a5.877 5.877 0 0 1-.684.752c-.279.254-.277.761 0 1.015a.721.721 0 0 0 .507.211l.191-.026a.718.718 0 0 0 .317-.185Zm9.245-1.835a1.857 1.857 0 0 0-.35.253c-.08.071 0 .006.014-.007-.088.077-.147.119-.212.213l-.054.078c-.03.038-.059.078-.086.118a6.294 6.294 0 0 0-.407.703c-.126.242-.251.489-.407.715-.069.1-.219.237-.247.355l.04-.05c.092-.114.056-.066-.109.145-.019.032-.034.072-.051.106l-.119.239c-.146.298-.291.597-.468.879a6.417 6.417 0 0 1-.134.202c-.049.072-.109.083.059-.073-.027.025-.053.065-.076.093-.127.15-.257.298-.386.446-.499.573-.993 1.15-1.501 1.715-.51.568-1.038 1.117-1.553 1.68-.517.565-1.008 1.154-1.515 1.728-.996 1.129-2.09 2.144-3.173 3.187-.602.58-1.167 1.196-1.773 1.772a24.004 24.004 0 0 1-1.853 1.593l.322-.248c-.661.509-1.371.93-2.079 1.37-.444.276-.864.575-1.277.896-.337.263-.63.572-.967.833l.328-.253c-.59.444-1.275.732-1.891 1.135-.43.28-.822.616-1.223.935-.344.273-.688.544-1.035.813l.33-.255c-.479.37-.963.735-1.455 1.088-.541.389-1.082.779-1.574 1.23a18.68 18.68 0 0 0-1.098 1.118c-.359.389-.729.768-1.087 1.159a15.517 15.517 0 0 0-2.078 2.846 13.629 13.629 0 0 0-.831 1.799 7.165 7.165 0 0 0-.409 1.5 12.906 12.906 0 0 0-.115 2.231c.016.614.035 1.236-.046 1.846l.058-.427c-.036.245-.08.489-.087.736a4.042 4.042 0 0 1-.03.366l.053-.396a4.22 4.22 0 0 1-.089.445c-.15.578.093 1.288.642 1.578.22.116.457.18.705.191.31.014.789-.159.989-.409.37-.467.771-1 .902-1.595a7.557 7.557 0 0 0 .175-1.594c.004-.836-.069-1.673.041-2.506l-.059.433c.092-.64.293-1.258.544-1.853l-.165.39c.421-.982.984-1.896 1.635-2.741l-.255.33c.519-.669 1.113-1.265 1.686-1.887.576-.624 1.158-1.242 1.829-1.766l-.33.255c.614-.472 1.255-.907 1.869-1.378.712-.545 1.411-1.105 2.115-1.66l-.33.255c.533-.41 1.142-.69 1.712-1.04a7.43 7.43 0 0 0 1.094-.814c.26-.233.502-.478.778-.693l-.327.252c.644-.495 1.353-.892 2.029-1.339.795-.525 1.541-1.137 2.252-1.771a28.329 28.329 0 0 0 1.817-1.785c.599-.639 1.236-1.239 1.86-1.853 1.339-1.315 2.412-2.892 3.529-4.394.534-.718 1.085-1.423 1.609-2.149.507-.703 1.034-1.41 1.472-2.158.253-.433.424-.915.585-1.388.129-.382.261-.764.363-1.154.093-.36.139-.73.219-1.093a3.54 3.54 0 0 1 .149-.523c-.026.065-.034.187.041-.083.015-.17.022-.21.021-.121a.119.119 0 0 1-.021.087 6.192 6.192 0 0 1 .13-.217c.125-.171.065-.447-.076-.588a.499.499 0 0 0-.588-.076Z"/><path fill="#0A0A0A" d="M129.188 150.697c-.466-.447-.757-.856-1.098-1.402-.619-.992-1.423-1.728-2.242-2.542-1.612-1.601-3.348-2.915-5.194-4.236-1.72-1.231-3.691-2.224-5.637-3.022-1.814-.743-3.405-1.918-5.299-2.522-1.169-.372-2.374-.683-3.556-1.046-1.456-.447-3.031-1.276-4.557-1.302-2.5-.043-4.902-.908-7.397-.894-1.4.008-4.986-.742-5.287 1.206-.143.926-.332 1.801-.328 2.747.005 1.316.313 2.539.3 3.839-.009.983.001 1.968.002 2.952 0 .538-.043 1.089-.007 1.625.032.484.232.805.325 1.265.15.741-.015 1.658-.015 2.422v3.038c0 .899.078 1.839.007 2.735-.06.74-.327 1.53-.539 2.172-.223.679-.551 1.137-.901 1.743-.484.839-1.702 1.478-1.92 2.408-.308 1.314.533 2.299 1.469 3.074.481.399.664.54 1.3.587.64.047 1.287.353 1.91.289 2.014-.206 4.05-1.613 5.222-3.161.914-1.209 2.145-2.435 3.604-3.05.625-.263 1.098-.509 1.804-.453.998.08 2.367.63 3.19 1.191 1.139.775 1.893 2.218 2.851 3.189.924.937 1.735 1.234 2.974 1.453 1.315.232 1.911.223 3.197-.296 1.304-.526 2.234-1.502 3.4-2.276.965-.64 1.901-1.127 3.098-.774.57.168 1.398.691 1.901.996.498.301.963.901 1.507 1.06.973.284 2.503.109 3.204-.588.859-.854.897-1.594.894-2.75-.001-.546-.037-1.105-.011-1.65.028-.591.294-1.082.326-1.668.054-1-.012-2.025-.012-3.027 0-.93.023-1.864.007-2.794-.016-.954-.509-1.833-.916-2.659"/><path fill="#0A0A0A" d="M129.867 150.017a6.552 6.552 0 0 1-.271-.305c-.039-.047-.157-.168.002.008-.045-.049-.083-.11-.122-.165a8.057 8.057 0 0 1-.411-.654 10.629 10.629 0 0 0-.398-.653c-.108-.16-.225-.312-.34-.467a10.508 10.508 0 0 0-.302-.384c-.693-.852-1.468-1.656-2.25-2.426a31.01 31.01 0 0 0-2.563-2.242c-.96-.758-1.927-1.52-2.95-2.191a25.121 25.121 0 0 0-2.972-1.682c-.994-.475-2.015-.883-2.985-1.408-.947-.513-1.872-1.071-2.859-1.505-1.178-.517-2.405-.868-3.634-1.238-.621-.186-1.242-.371-1.849-.597-.586-.219-1.164-.457-1.755-.661a9.915 9.915 0 0 0-2.159-.487c-.659-.074-1.323-.074-1.982-.16l.454.061c-2.113-.286-4.185-.859-6.328-.883-1.079-.012-2.145-.214-3.227-.137-.796.056-1.608.191-2.306.605a3.12 3.12 0 0 0-1.5 2.175c-.188 1.123-.409 2.253-.362 3.397.042 1.008.24 2.002.288 3.01.028.585.007 1.174.009 1.759.002.59.01 1.179.007 1.768-.004.563-.054 1.132.01 1.693.044.371.103.712.222 1.063.082.242.153.481.188.735l-.064-.475c.075.643-.015 1.288-.04 1.931-.026.697.017 1.402.03 2.099.013.711.023 1.422.057 2.133.033.709.079 1.427-.008 2.134l.06-.445c-.047.342-.12.68-.182 1.018-.076.425-.209.859-.223 1.291l.054-.403a7.304 7.304 0 0 1-.182.493l.151-.359c-.23.529-.516 1.083-.86 1.545l.228-.296c-.337.434-.764.784-1.133 1.19-.245.27-.49.561-.659.885-.24.464-.336.889-.382 1.406-.07.769.183 1.6.597 2.244.376.586.86 1.083 1.399 1.518.4.323.744.579 1.22.768.4.159.839.15 1.26.206l-.361-.049c.375.058.741.165 1.117.222.265.04.54.088.81.075.27-.014.54-.06.805-.109.744-.134 1.465-.425 2.135-.77 1.262-.649 2.464-1.556 3.36-2.661a10.367 10.367 0 0 1 1.68-1.666l-.3.231a7.933 7.933 0 0 1 1.746-1.036l-.386.162c.378-.154.764-.276 1.14-.435l-.399.169c.228-.087.473-.142.714-.176l-.46.062a2.76 2.76 0 0 1 .481-.011l-.472-.063c.287.076.583.072.875.11l-.477-.064c.578.082 1.138.263 1.677.485l-.432-.182c.521.22 1.032.48 1.485.822l-.369-.285c.496.387.901.869 1.284 1.363l-.287-.371c.575.747 1.105 1.544 1.778 2.207a6.505 6.505 0 0 0 2.571 1.563c.364.119.74.198 1.117.264.547.097 1.104.191 1.66.209 1.094.034 2.112-.315 3.097-.751 1.021-.451 1.879-1.192 2.754-1.869l-.374.289c.641-.493 1.309-.983 2.056-1.301l-.439.186a3.45 3.45 0 0 1 .778-.219l-.488.066c.233-.029.463-.03.697-.004l-.487-.066c.267.038.521.108.77.21l-.437-.184c.34.146.664.324.983.509.29.169.589.333.857.536l-.367-.284c.743.582 1.396 1.243 2.368 1.41.923.159 1.85.155 2.761-.097a4.423 4.423 0 0 0 1.208-.516c.457-.293.794-.635 1.12-1.057.603-.781.862-1.648.935-2.624.068-.907-.091-1.829.023-2.732l-.064.471c.047-.304.139-.595.211-.893.11-.457.153-.927.164-1.396.016-.702-.014-1.404-.029-2.106-.015-.717-.004-1.435-.003-2.153.002-.798.022-1.605-.175-2.386a5.716 5.716 0 0 0-.542-1.352c-.173-.312-.393-.606-.55-.924-.173-.35-.604-.645-.969-.745-.388-.107-.904-.059-1.249.163-.78.503-.983 1.402-.581 2.217l.032.066-.163-.387c.228.758.619 1.46.737 2.253a64.72 64.72 0 0 0-.062-.463c.065.512.034 1.042.028 1.558-.005.536-.015 1.072-.017 1.609-.003 1.053.1 2.128-.014 3.177l.063-.469c-.051.365-.175.712-.254 1.071a6.863 6.863 0 0 0-.138 1.533c.006.695.053 1.397-.03 2.088l.063-.473a3.004 3.004 0 0 1-.189.74l.18-.427a2.779 2.779 0 0 1-.354.599l.279-.362c-.14.176-.293.346-.47.486l.362-.28a2.472 2.472 0 0 1-.52.295l.428-.18a3.958 3.958 0 0 1-.858.232l.478-.064a4.686 4.686 0 0 1-1.195.011l.48.064a2.641 2.641 0 0 1-.59-.14l.431.182a2.327 2.327 0 0 1-.478-.294l.367.283c-.38-.302-.73-.633-1.126-.915-.267-.19-.556-.355-.838-.521a8.627 8.627 0 0 0-.944-.492c-.619-.268-1.165-.427-1.85-.466-1.981-.112-3.614 1.278-5.079 2.41l.374-.289c-.626.482-1.267.942-1.997 1.254l.442-.187c-.469.193-.95.362-1.453.435l.492-.066a4.791 4.791 0 0 1-1.22-.02l.492.066c-.69-.093-1.391-.219-2.039-.482l.443.187a4.405 4.405 0 0 1-.972-.569l.375.29c-.93-.734-1.553-1.741-2.317-2.629a7.213 7.213 0 0 0-1.579-1.383c-.608-.388-1.293-.676-1.969-.92a7.405 7.405 0 0 0-.953-.276c-.582-.123-1.203-.231-1.788-.08l.472-.064c-.361.043-.725.078-1.067.205-.328.122-.64.27-.954.422a8.387 8.387 0 0 0-1.276.743 11.796 11.796 0 0 0-2.51 2.503l.218-.281c-.324.396-.62.811-.929 1.217l.212-.275a8.785 8.785 0 0 1-1.355 1.397c-.055.045-.116.087-.168.135.292-.273.057-.044-.026.015a4.736 4.736 0 0 1-.424.275 8.899 8.899 0 0 1-.902.449l.311-.131a7.25 7.25 0 0 1-1.548.447l.354-.048c-.164.02-.327.043-.49.065l.354-.047a2.663 2.663 0 0 1-.656.007l.357.048c-.297-.045-.585-.126-.877-.196-.376-.09-.758-.124-1.14-.174l.362.048a1.923 1.923 0 0 1-.416-.107l.327.138a1.904 1.904 0 0 1-.381-.233l.278.215a6.918 6.918 0 0 1-1.159-1.118l.219.283a3.47 3.47 0 0 1-.452-.753l.142.336a2.602 2.602 0 0 1-.163-.599l.051.376a2.522 2.522 0 0 1 0-.587l-.05.379a2.1 2.1 0 0 1 .12-.477l-.145.342a2.21 2.21 0 0 1 .283-.468l-.225.291c.428-.535 1-.931 1.43-1.465.304-.379.55-.788.807-1.199.28-.449.517-.926.687-1.428l-.153.362c.094-.136.15-.304.217-.455.128-.293.254-.587.371-.885.185-.469.25-.984.308-1.482.095-.808.054-1.626.053-2.438a92.453 92.453 0 0 1 .13-4.745 6.47 6.47 0 0 0-.114-1.602c-.077-.38-.247-.733-.309-1.117l.064.476c-.049-.399-.028-.805-.017-1.205.012-.414.012-.829.01-1.244 0-.827.015-1.656.004-2.484-.011-.803-.136-1.597-.22-2.394a10.458 10.458 0 0 1 .014-2.459l-.065.48c.052-.375.114-.748.173-1.121.04-.251.06-.509.155-.746l-.18.428c.043-.1.097-.192.163-.28l-.28.363a1.47 1.47 0 0 1 .227-.226l-.362.28a1.9 1.9 0 0 1 .422-.242l-.427.18c.275-.112.564-.176.857-.216l-.473.063c.827-.107 1.665-.046 2.494.011 1.041.072 2.079.056 3.117.192l-.462-.062c1.006.136 2.002.334 3.005.485.619.093 1.24.18 1.864.229.494.039.993.023 1.485.084l-.449-.06c1.45.2 2.78.875 4.177 1.276 1.478.425 3.011.735 4.433 1.33l-.38-.16c.867.369 1.693.822 2.529 1.253.944.487 1.922.878 2.9 1.289l-.362-.153c.436.184.866.382 1.302.564l-.358-.151c.992.445 1.964.936 2.897 1.495.937.561 1.83 1.196 2.715 1.834.201.145.402.292.601.44l.312.234.187.142c.197.151-.229-.183-.022-.013.168.137.346.259.519.391.04.03.081.066.123.094-.307-.208-.078-.06-.013-.009.218.17.433.344.646.52.811.67 1.609 1.376 2.352 2.12a11.56 11.56 0 0 1 .704.774c.172.213-.08-.12.044.057l.244.345c.359.507.745.987 1.211 1.399.376.334.993.399 1.358 0a.979.979 0 0 0 0-1.358Z"/><path fill="#0A0A0A" d="M77.927 163.218a2.307 2.307 0 0 1 .337-.093l.053-.009c-.04.003-.038.004.006.001.035.004.07.006.106.009l.035.004a.256.256 0 0 0-.014-.003c.004.006.09.014.098.015l.099.018c.277.053.55.129.827.184.19.038.404.088.593.077a4.26 4.26 0 0 0 .666-.087c.297-.065.59-.142.888-.195l-.269.036c.284-.037.561-.103.844-.142l-.279.037c.154-.019.302-.021.457-.009l-.287-.039c.252.042.5.088.755.12.263.032.51.007.773-.045.405-.079.749-.322 1.122-.483l-.309.131c.415-.17.846-.304 1.219-.56.22-.151.453-.313.628-.518.176-.206.325-.431.49-.645l-.21.272c.063-.08.13-.154.211-.217l-.272.21c.106-.078.224-.133.342-.191.211-.102.404-.241.577-.4a1.81 1.81 0 0 0 .4-.553c.058-.123.11-.246.191-.355l-.209.27c.114-.146.248-.271.378-.402.196-.197.37-.419.522-.652.26-.393.436-.837.614-1.27.071-.174.145-.348.204-.526.061-.185.1-.376.141-.566.042-.194.08-.389.132-.581.051-.185.127-.359.192-.539.158-.442.191-.915.245-1.378l-.045.335c.02-.144.073-.276.123-.413.09-.245.124-.51.14-.77.019-.327-.053-.652-.014-.979l-.045.333c.049-.332.16-.652.212-.985a5.13 5.13 0 0 0 .078-.824c-.001-.192.01-.382.034-.573l-.044.331c.083-.616.273-1.229.227-1.856-.03-.429-.098-.856-.142-1.284a10.872 10.872 0 0 1-.043-.586c-.007-.163-.032-.324-.054-.487l.041.304a2.648 2.648 0 0 1-.02-.679l-.037.275c.01-.07.03-.136.046-.206l-.101.239c.052-.114.09-.23.137-.345l-.098.232c.047-.111.11-.212.149-.329l-.428.557.01-.008c.202-.149.36-.306.429-.557.061-.223.033-.52-.094-.718-.129-.199-.32-.374-.557-.428-.23-.052-.52-.052-.718.094l-.01.008.47-.127a1.2 1.2 0 0 0-.573.177 1.435 1.435 0 0 0-.443.435l.156-.202c-.24.252-.383.591-.48.92a3.51 3.51 0 0 0-.144.963c-.005.489.036.976.057 1.465.01.201.02.405-.005.605l.044-.327c-.049.359-.142.712-.2 1.069a7.136 7.136 0 0 0-.102.851c-.008.201-.002.401-.028.601l.044-.332c-.047.335-.156.656-.219.987a3.567 3.567 0 0 0-.064.885c.012.199.026.396.004.595l.044-.335c-.027.197-.108.368-.169.555-.09.275-.094.575-.132.861l.045-.335a3.487 3.487 0 0 1-.102.513c-.061.211-.158.408-.225.616-.144.445-.192.913-.37 1.348l.13-.307c-.216.508-.443 1.024-.78 1.465l.206-.266c-.17.216-.39.378-.578.577a2.615 2.615 0 0 0-.414.554c-.06.114-.112.231-.19.334l.21-.272a.929.929 0 0 1-.133.132l.272-.211c-.1.075-.212.13-.324.185a2.75 2.75 0 0 0-.556.38c-.168.141-.296.332-.425.506-.075.1-.144.204-.22.302l.21-.271c-.088.11-.187.202-.298.289l.272-.21c-.242.183-.514.329-.776.48a3.933 3.933 0 0 0-.374.236c-.203.149-.415.293-.608.454l.25-.193a1.49 1.49 0 0 1-.257.148l.286-.121c-.12.048-.244.076-.372.094l.304-.041c-.215.027-.431.037-.646.059-.3.03-.583.089-.87.182a6.422 6.422 0 0 0-.798.333c-.198.096-.39.206-.591.295l.213-.09a2.96 2.96 0 0 1-.258.096c-.141.045-.276.103-.413.161l.194-.082c-.32.132-.653.226-.977.345a5.47 5.47 0 0 0-.537.228c.071-.035-.058.021-.074.027a3.077 3.077 0 0 0-.42.186c-.149.08-.202.274-.139.424.062.146.24.253.401.197Z"/><path fill="#9896FF" d="M128.601 157.039c-.136-.169-.238-.307-.404-.524a18.015 18.015 0 0 0-.544-.687c-.326-.386-.721-.697-1.106-1.021-.372-.315-.685-.682-1.038-1.016-.411-.39-.894-.711-1.356-1.037-.436-.309-.862-.636-1.309-.928a13.643 13.643 0 0 0-1.324-.745c-.951-.483-1.835-1.054-2.724-1.641-.912-.601-1.819-1.208-2.732-1.806a32.643 32.643 0 0 0-1.358-.842c-.43-.251-.805-.586-1.252-.807-.508-.251-1.046-.429-1.572-.636a18.553 18.553 0 0 0-1.467-.526c-1.007-.305-2.047-.465-3.041-.815-.561-.198-1.107-.44-1.678-.608a13.397 13.397 0 0 0-1.638-.348c-.597-.096-1.151-.34-1.738-.48-.658-.156-1.31-.25-1.982-.322l.352.047c-.232-.036-.442-.123-.658-.21a3.54 3.54 0 0 0-.78-.194c-.37-.058-.743-.108-1.117-.13-.278-.017-.554-.018-.831-.054l.366.049c-.355-.051-.709-.112-1.065-.149-.278-.029-.557-.021-.835-.022a29.767 29.767 0 0 0-1.69.047c-.565.031-1.13.074-1.695.095-.371.014-.722-.005-1.093.058-.234.04-.445.144-.678.187l.327-.044a.764.764 0 0 1-.179-.001l.326.044-.056-.016.293.124a.394.394 0 0 1-.087-.043.787.787 0 0 1 .312.305c-.024-.058-.063-.114-.089-.172l.123.292c-.169-.405-.302-.727-.6-1.056-.28-.309-.668-.473-1.072-.527a3.674 3.674 0 0 0-.931-.011c-.22.027-.456.052-.67.117-.095.028-.185.069-.28.091l.317-.042a.3.3 0 0 1-.073.005l.316.042-.034-.006.284.12c-.252-.113-.109.072.428.553-.168-.59-.836-1.016-1.444-.82-.284.092-.558.268-.701.54-.158.298-.168.574-.119.905.097.648.752 1.049 1.363 1.047.32-.001.62-.138.934-.181l-.321.043c.24-.026.485-.03.725-.006l-.322-.043a.97.97 0 0 1 .2.047l-.29-.123c.03.014.066.043.098.053-.19-.158-.243-.196-.157-.115.052.059.04.041-.038-.055-.148-.192-.023-.024.005.025.029.05.053.1.076.153l-.123-.291c.085.211.156.433.27.63.187.324.466.559.808.703.372.157.767.156 1.158.058.189-.047.363-.123.558-.15l-.329.045c.423-.037.855.007 1.278.029l1.34.072c.432.024.862.044 1.296.042.43-.002.856-.016 1.282.038l-.366-.049c.424.058.848.141 1.277.154.352.012.698.025 1.048.07l-.365-.049c.63.086 1.227.33 1.862.37.286.018.571-.012.859.015.287.026.575.061.861.097l-.329-.044c.498.071.989.193 1.483.287.479.092.961.158 1.436.27.942.222 1.818.643 2.741.926.945.29 1.924.439 2.864.75.452.15.889.334 1.335.501.208.078.415.157.622.237.153.059-.273-.123-.053-.022l.126.058c.125.06.248.125.366.199.399.251.772.532 1.178.774.424.252.843.515 1.262.778.869.546 1.735 1.098 2.603 1.646.849.535 1.692 1.072 2.596 1.511.434.211.874.411 1.304.632.417.213.809.467 1.21.707.467.28.948.545 1.395.857.035.024.23.158.031.019.057.039.11.086.164.128l.269.218c.246.199.495.397.758.574.214.142.433.275.648.415a8.35 8.35 0 0 1 .429.296c-.117-.09.073.063.095.082.411.359.751.792 1.129 1.184.244.253.706.263.947 0 .267-.29.236-.655 0-.947Zm-13.861 1.569c-.962-.585-1.931-1.158-2.895-1.74-.943-.569-1.864-1.153-2.892-1.559-.243-.096-.49-.192-.737-.278.017.006.138.06.03.012l-.084-.038a18.67 18.67 0 0 1-.546-.261c-.507-.251-1.017-.501-1.555-.68a9.515 9.515 0 0 0-1.434-.338c-.546-.092-1.077-.239-1.61-.387-.568-.158-1.093-.422-1.654-.6a5.26 5.26 0 0 0-1.033-.203c-.294-.033-.591-.021-.885-.06l.247.033c-.275-.044-.544-.118-.819-.162a26.157 26.157 0 0 1-.923-.166c-.299-.061-.596-.131-.895-.188-.395-.075-.792-.068-1.188-.118l.288.039c-.266-.039-.527-.111-.795-.148-.355-.05-.71-.09-1.069-.112-.267-.017-.534-.036-.801-.025-.268.01-.537.03-.804-.003l.32.043a1.096 1.096 0 0 1-.246-.066l.288.121a.89.89 0 0 1-.19-.113l.244.189a1.528 1.528 0 0 1-.23-.245l.189.244c-.192-.25-.367-.52-.598-.737-.246-.232-.53-.455-.841-.593-.473-.211-.976-.34-1.491-.182-.397.122-.687.379-1.01.629l.246-.189a1.894 1.894 0 0 1-.388.251l.287-.121a.572.572 0 0 1-.121.035l.318-.043a.398.398 0 0 1-.091-.001l1.154.879a34.269 34.269 0 0 0-.026-.136c-.053-.281-.31-.574-.549-.714-.255-.15-.632-.213-.92-.12-.288.093-.567.272-.713.548l-.12.286a1.199 1.199 0 0 0 0 .634l.02.138c.054.369.473.773.836.836.291.05.562.074.85-.025.191-.066.38-.152.55-.263.19-.124.365-.278.573-.371l-.292.123c.05-.021.1-.035.154-.044l-.325.044a.847.847 0 0 1 .167 0l-.324-.043c.095.013.186.04.276.075l-.291-.123c.163.07.313.163.454.27l-.246-.19c.162.127.3.271.427.433l-.189-.244c.272.352.525.726.935.934.327.166.595.226.957.259.19.017.383.008.574-.004.769-.045 1.551-.103 2.319-.006l-.292-.04c.23.031.451.067.683.063.148-.002.296-.014.443-.017.292-.006.58.043.869.079.561.071 1.127.102 1.687.177l-.252-.034c.35.047.696.1 1.05.088.283-.009.565-.004.846.032l-.238-.032c.713.099 1.364.42 2.064.57.367.079.734.161 1.104.226.419.072.841.108 1.261.165l-.203-.027a7.887 7.887 0 0 1 1.887.491c.086.034.171.07.257.105a7.283 7.283 0 0 0 .092.039c.198.084.395.168.593.248.317.127.637.232.963.334a9.758 9.758 0 0 1 .681.248l.042.017-.026-.011c.032.022.089.038.124.054.304.135.602.285.896.441.638.34 1.27.689 1.907 1.03.73.391 1.461.78 2.189 1.176.223.122.539.063.664-.174a.496.496 0 0 0-.174-.664ZM72.164 77.433a211.316 211.316 0 0 0-12.07-9.483c-1.634-1.19-3.08-2.503-4.556-3.88-1.391-1.297-3.044-2.3-4.392-3.634-1.68-1.662-3.25-3.572-5.093-5.05-1.442-1.158-3.022-1.9-4.333-3.244-1.007-1.033-2.15-1.91-3.265-2.81-.931-.753-2.498-1.447-2.887-2.708-.324-1.047-.146-.732.606-1.575.76-.852 1.45-1.759 2.174-2.639 1.2-1.46 1.915-3.263 2.919-4.79.901-1.371 1.655-2.528 2.816-3.754.85-.896 1.515-1.937 2.311-2.896 2.04-2.453 3.593-5.28 5.502-7.772.877-1.145 2.099-1.165 3.524-1.398 1.374-.224 2.79-.494 4.17-.572 3.125-.178 6.127-1.119 9.261-1.543 2.536-.343 5.033-.665 7.539-1.16 2.618-.517 5.63-.106 8.305-.106 1.56 0 3.135.07 4.692.01 1.354-.051 2.482-.488 3.855-.478 2.663.018 5.333.044 7.996 0 1.569-.026 2.28-.062 3.232 1.396.987 1.51 2.807 2.185 4.225 3.277 1.386 1.066 2.406 2.426 3.646 3.653 1.256 1.244 2.544 2.471 3.767 3.747.936.977 1.334 2.215 2.062 3.357.425.667.832 1.283 1.312 1.913.562.738.847 1.662 1.47 2.328 1.133 1.211 2.488 1.884 1.359 3.643-.614.957-1.449 1.49-1.974 2.515-1.054 2.053-2.901 3.002-4.522 4.498-1.671 1.54-3.153 3.074-5.047 4.356-1.326.898-2.243 2.194-3.442 3.245-1.623 1.425-3.214 2.811-4.732 4.33-2.919 2.92-5.574 6.054-8.85 8.656-1.866 1.483-3.387 3.342-5.257 4.797-.902.703-1.882 1.308-2.775 2.026-.847.681-1.496 1.597-2.387 2.212-.761.526-1.635.882-2.403 1.407-.516.352-1.908 1.907-2.586 1.732-1.275-.329-11.06-8.924-12.516-8.764"/><path fill="#9896FF" d="M72.72 76.878a300.335 300.335 0 0 0-10.466-8.873c-.872-.707-1.771-1.365-2.621-2.1a54.864 54.864 0 0 1-2.42-2.242c-.768-.748-1.538-1.48-2.379-2.146-.844-.668-1.697-1.33-2.46-2.09-1.514-1.507-2.846-3.188-4.422-4.634-.818-.751-1.708-1.413-2.621-2.043a60.246 60.246 0 0 1-1.218-.857c-.387-.282.167.145-.057-.043-.096-.08-.195-.157-.29-.238a10.256 10.256 0 0 1-.672-.624 33.457 33.457 0 0 0-4.998-4.193l-.097-.07c-.162-.12-.13-.094.092.077.005-.013-.412-.353-.448-.388-.056-.054-.108-.112-.162-.167-.268-.27.145.287.044.072-.036-.079-.1-.166-.149-.238-.203-.302.096.372.016.04-.04-.17-.084-.35-.136-.517.113.363.047.817-.162 1.134 0 0-.37.375-.2.262.317-.214.594-.566.843-.849 1.477-1.683 2.884-3.424 3.963-5.392.486-.886.977-1.758 1.533-2.602a48.6 48.6 0 0 1 .772-1.142c.136-.194.278-.384.417-.577.285-.396-.264.32.047-.062.092-.114.183-.228.277-.34.748-.897 1.529-1.742 2.234-2.677l.465-.617c.068-.09.237-.383.028-.037.05-.083.132-.166.194-.243a54.91 54.91 0 0 0 1.276-1.62c1.284-1.71 2.401-3.536 3.624-5.289.294-.421.585-.854.91-1.254-.389.479.22-.212.226-.19.027.112-.352.224-.109.094.065-.041.131-.08.2-.116.184-.09.133-.073-.153.052.173-.011.381-.131.552-.174.175-.044.353-.078.53-.11.458-.08.92-.137 1.378-.213.555-.09 1.11-.188 1.666-.275l.419-.063c.104-.015.48-.084.07-.012.328-.058.672-.078 1.002-.104a40.359 40.359 0 0 0 3.617-.42c2.228-.376 4.42-.933 6.66-1.238 2.323-.315 4.649-.618 6.952-1.056.239-.046.477-.095.716-.136l.15-.024c.221-.033.201-.031-.06.006.055-.03.233-.026.307-.034a19.34 19.34 0 0 1 1.724-.084c1.092-.01 2.183.048 3.273.095 2.224.097 4.481.157 6.706.072a14.625 14.625 0 0 0 1.92-.227c.225-.038.449-.081.674-.122l.45-.078c.505-.091-.42.029.097-.015 1.165-.097 2.35-.029 3.52-.023a301.7 301.7 0 0 0 3.403.002c.979-.006 1.973-.078 2.951-.016.06.004.125.015.184.015-.577.003-.354-.07-.171-.015.096.03.526.172.162.032-.481-.184.404.3.012.02-.328-.236.17.245.232.271l-.158-.208c.05.068.099.136.146.206.051.073.098.148.149.22.194.277.401.547.625.8.394.448.875.816 1.352 1.17.711.524 1.487.95 2.223 1.436.112.074.403.364.54.377l-.165-.128a10.531 10.531 0 0 1 .468.393c.416.368.806.764 1.186 1.168 1.498 1.596 3.046 3.128 4.593 4.678.386.386.782.768 1.147 1.175.046.052.176.17.192.226l-.126-.159c.057.078.112.158.165.239.146.221.278.45.405.683.493.9.958 1.793 1.529 2.648.284.424.594.827.887 1.244.281.398.494.837.73 1.261.5.897 1.196 1.564 1.912 2.279.119.119.237.297.369.398-.323-.248-.19-.29-.095-.106.034.066.073.154.116.211-.183-.242-.156-.387-.098-.195.106.353-.035-.51-.026-.13.008.308-.001-.181.029-.2a2.17 2.17 0 0 1-.066.226c.108-.242.13-.295.063-.16-.067.105-.119.22-.186.325-.01.015-.283.412-.1.158.178-.248-.097.11-.114.13-.075.086-.152.17-.229.255-.403.44-.797.88-1.15 1.364-.281.385-.475.818-.735 1.216-.062.095-.131.185-.194.28-.159.236.303-.354.013-.021-.174.199-.348.395-.536.581-.623.62-1.325 1.15-2.011 1.697-1.599 1.276-2.988 2.789-4.56 4.096-.119.1-.24.195-.359.294-.063.051-.285.228.022-.014a15.09 15.09 0 0 1-.632.465c-.535.377-1.067.757-1.553 1.197-.709.64-1.329 1.37-2.01 2.04-1.576 1.551-3.324 2.925-4.904 4.477-3.086 3.03-5.878 6.336-9.255 9.061-1.67 1.347-3.07 2.987-4.712 4.364-.079.066-.16.13-.238.197-.383.32.206-.148-.043.037-.209.156-.418.31-.63.461-.446.318-.898.626-1.339.95-.932.686-1.706 1.452-2.529 2.256-.148.145-.334.392-.523.474.04-.017.346-.234.047-.04-.108.07-.214.142-.323.21-.462.285-.948.525-1.42.792-.743.422-1.356.97-1.994 1.529-.128.112-.286.212-.4.336.016-.017.385-.275.14-.11-.066.044-.13.091-.198.134-.064.04-.13.075-.193.114-.277.17.405-.146.197-.081-.191.06-.244-.024.274-.026.352-.001.513.086.35.043-.241-.063.55.268.32.136-.043-.025-.09-.046-.134-.07a5.705 5.705 0 0 1-.373-.228c-.739-.482-1.439-1.027-2.138-1.564-.126-.097-.535-.42-.006-.005l-.334-.258-.692-.54-1.523-1.19a221.793 221.793 0 0 0-1.825-1.406c-.489-.37-.977-.742-1.477-1.097-.825-.585-1.66-1.166-2.544-1.66a9.116 9.116 0 0 0-1.26-.59c-.26-.097-.456-.113-.755-.157.243.036.626.084.096.013-.106-.014-.225-.042-.337-.033-.893.073-1.761.738-1.717 1.718.039.868.759 1.795 1.718 1.718.265-.022-.303-.052-.324-.056.163.035.156.055-.307-.142.207.088.296.13.456.188.292.105-.458-.22-.221-.096.066.034.135.064.2.1.346.182.673.403.993.626.092.063.182.128.272.193.048.033.094.068.142.1.3.202-.605-.475-.009-.015.273.21.553.41.828.618l.323.245.165.127c-.485-.366-.213-.165-.107-.082.215.168.43.34.648.503.098.073.27.209-.168-.132l.554.427.178.137c-.48-.366-.196-.152-.092-.071l.361.281c.257.2.512.402.77.602.527.411 1.054.823 1.58 1.236 1.036.813 2.071 1.628 3.12 2.423.61.462 1.225.96 1.898 1.33.653.359 1.325.512 2.067.31.895-.245 1.637-.91 2.312-1.511.218-.194.448-.38.658-.581-.407.392-.335.243-.177.145.11-.068.217-.14.328-.207.266-.16.54-.305.813-.452 1.02-.551 1.93-1.198 2.744-2.029.33-.338.653-.686 1.01-.998a9.37 9.37 0 0 1 .34-.28c-.055.044-.298.221-.012.013.253-.183.506-.367.762-.546.981-.69 1.954-1.388 2.853-2.184.81-.719 1.57-1.492 2.348-2.245.787-.762 1.613-1.46 2.458-2.156 1.697-1.398 3.254-2.954 4.777-4.537 1.536-1.595 3.04-3.224 4.65-4.745 1.63-1.54 3.407-2.931 4.952-4.558.329-.346.656-.693 1.001-1.022.19-.181.388-.352.587-.524.09-.078.195-.24-.05.036.108-.122.301-.21.434-.302a28.604 28.604 0 0 0 2.802-2.246c.827-.744 1.621-1.523 2.442-2.273.693-.633 1.448-1.191 2.173-1.787a11.805 11.805 0 0 0 2.143-2.268c.276-.386.47-.816.729-1.21.036-.056.104-.182.161-.23-.353.299-.043.065.044-.034.178-.203.366-.399.548-.6.869-.959 1.658-2.07 1.689-3.415.027-1.15-.615-2.129-1.398-2.91-.284-.284-.585-.55-.863-.84-.025-.027-.329-.324-.112-.106.21.21-.061-.097-.087-.137-.149-.232-.279-.476-.41-.719-.493-.913-1.14-1.717-1.705-2.587-.566-.871-.988-1.815-1.526-2.7-.635-1.045-1.512-1.888-2.371-2.744-.824-.82-1.664-1.625-2.487-2.446-.753-.751-1.443-1.562-2.183-2.326a15.172 15.172 0 0 0-2.609-2.16c-.372-.24-.753-.468-1.128-.703a19.56 19.56 0 0 1-.556-.358c-.109-.074-.215-.151-.323-.226-.37-.254.315.278-.021-.015-.163-.142-.327-.282-.478-.436-.035-.036-.267-.24-.26-.288-.006.044.22.32.064.081-.298-.458-.623-.932-1.026-1.304-.798-.738-1.709-1.058-2.777-1.147-.949-.08-1.922.001-2.874.007a293.63 293.63 0 0 1-3.574 0c-1.188-.007-2.414-.103-3.596.03-.63.071-1.25.177-1.873.29-.125.024-.25.046-.376.068-.095.016-.576.143-.097.02-.276.071-.601.051-.885.06-2.305.069-4.632.007-6.936-.096-1.116-.05-2.234-.102-3.351-.07-1.231.035-2.434.224-3.642.448-2.333.434-4.687.721-7.036 1.055-2.288.324-4.528.918-6.812 1.269l-.324.048c-.544.082.412-.04-.135.016-.273.028-.544.06-.817.082-.61.05-1.218.085-1.826.16-1.255.157-2.497.39-3.748.577-.966.143-1.913.3-2.773.803-1.065.622-1.736 1.688-2.428 2.674-1.26 1.79-2.4 3.663-3.715 5.414-.042.056-.345.484-.078.105-.06.085-.13.166-.195.246-.163.203-.33.402-.494.606-.426.531-.831 1.08-1.243 1.622-.046.062-.33.486-.072.096-.055.083-.13.165-.192.24-.162.2-.33.394-.502.584-.374.409-.747.815-1.092 1.25-1.352 1.7-2.48 3.525-3.518 5.43-.25.457-.504.91-.785 1.35-.133.209-.282.407-.417.614-.165.252.288-.35-.017.024l-.306.381c-.695.869-1.352 1.812-2.154 2.586-.27.26-.53.489-.72.828-.352.628-.334 1.312-.154 1.987.28 1.044.887 1.925 1.73 2.593.424.337.86.646 1.311.946.159.105.318.21.475.317l.178.125a121.049 121.049 0 0 0 .105.08c.905.702 1.817 1.398 2.655 2.181.858.803 1.739 1.538 2.724 2.186.415.272.836.534 1.25.807.21.138.418.279.622.424l.246.178c.156.117.163.122.022.014l.24.194c1.696 1.388 3.13 3.054 4.704 4.571.836.805 1.767 1.5 2.697 2.19.083.061.164.124.248.184l.124.092c-.163-.134-.081-.072.245.186.206.153.417.3.619.458a17.136 17.136 0 0 1 .42.346c.245.207.484.422.725.633a59.783 59.783 0 0 0 5.54 4.292 238.238 238.238 0 0 1 5.705 4.022 146.62 146.62 0 0 1 5.37 4.138c.33.266.788.323 1.11 0 .288-.287.32-.828 0-1.111Z"/><path fill="#0A0A0A" d="M36.1 47.2c2.924-.233 5.864.197 8.793.107.74-.022 1.474-.124 2.212-.164.749-.04 1.495-.053 2.24-.15 1.464-.193 2.908-.257 4.38-.342 1.528-.087 3.061-.321 4.57-.564 1.466-.236 2.944-.386 4.424-.586 1.43-.193 2.708-.434 4.071-.559 1.461-.133 2.928-.069 4.39-.206.745-.07 1.486-.164 2.228-.258.732-.093 1.47-.114 2.203-.198.823-.093 1.228-.18 2.063-.254.697-.062 1.395-.066 2.093-.1.734-.036 1.466-.106 2.199-.148.716-.041 1.438-.002 2.152-.08.358-.04.88-.12 1.112-.15.156-.019.638-.054.92-.06.727-.014 1.453.026 2.18.031 1.532.011 3.06-.125 4.572-.366.166-.026.331-.058.497-.084-.163.026.266-.025.33-.029.352-.019.703-.012 1.054.001.703.027 1.409.086 2.112.03.794-.064 1.575-.232 2.352-.4.354-.077.707-.152 1.064-.212.253-.043.448-.067.84-.072.763-.01 1.466.057 2.228-.078.15-.027.298-.06.447-.09.075-.015.15-.03.225-.043.252-.042-.2.011.064-.004a11.76 11.76 0 0 0 1.269-.146c.343-.058.681-.137 1.021-.206.157-.032.314-.062.472-.088.178-.03.03-.006-.005-.002.105-.011.211-.02.317-.025.75-.037 1.477-.144 2.21-.305.147-.032.294-.065.442-.094.074-.015.151-.023.223-.042.242-.062-.202.01.048-.01.357-.03.714-.057 1.069-.103.441-.057.88-.122 1.318-.193l.498-.08c.072-.01.508-.07.346-.051 1.429-.17 2.876-.212 4.312-.275a8.97 8.97 0 0 0 1.292-.172c.079-.015.159-.03.239-.047-.005.001.258-.044.119-.024-.138.02.127-.01.123-.01a5.4 5.4 0 0 1 .337-.005c.794.014 1.533-.003 2.312-.191.006-.002.251-.053.098-.027-.152.026.095-.007.104-.007.183-.008.366-.01.549-.008.341.001.682.01 1.023.012v-3.028h-.167c-.791 0-1.55.696-1.513 1.514.036.82.665 1.513 1.513 1.514h.167c.792 0 1.55-.697 1.514-1.514-.037-.824-.665-1.51-1.514-1.514-.767-.004-1.521-.042-2.282.078a7.62 7.62 0 0 0-.445.09l-.222.048c-.037.008-.343.046-.174.034.16-.012-.117-.004-.119-.004-.084-.002-.168-.002-.253-.005-.197-.006-.394-.023-.591-.026-.439-.009-.876.055-1.306.131-.16.028-.319.062-.479.09-.079.015-.16.034-.24.042.167-.016-.024-.01-.085-.01-.719.006-1.438.052-2.155.1-1.536.104-3.033.312-4.556.53.177-.026-.212.024-.265.029-.188.018-.378.028-.567.049-.411.044-.819.108-1.224.195-.319.068-.636.147-.957.208l-.223.04c.034-.005.204-.014.025-.004l-.544.028c-.776.043-1.53.227-2.29.38a7.496 7.496 0 0 1-.471.086c.036-.005.182-.019.005-.004-.106.008-.212.013-.318.022a10.02 10.02 0 0 0-1.233.19c-.149.03-.3.07-.451.087.229-.026-.222-.011-.287-.012-.331-.007-.662-.04-.993-.033-.795.014-1.592.163-2.367.33-.354.076-.706.159-1.06.233-.164.034-.327.067-.491.096-.082.015-.164.03-.246.042.154-.022-.045.005-.092.008-.704.056-1.407.008-2.112-.014a11.242 11.242 0 0 0-2.328.175c-.748.133-1.177.191-1.942.257-1.457.124-2.905.038-4.363.077-.386.01-.765.047-1.148.098-.191.026-.383.052-.575.08-.066.01-.484.066-.31.046-.713.081-1.435.049-2.151.096-1.427.092-2.869.142-4.292.278-.38.037-.76.084-1.14.135-.276.037-.755.111-.923.134-.797.11-1.604.133-2.402.24-1.312.177-2.852.366-4.267.382-1.497.017-2.967.17-4.443.415-2.913.483-5.827.956-8.742 1.422-1.4.224-2.788.312-4.196.447-.788.075-1.57.207-2.35.34-.698.118-1.4.151-2.106.214-1.475.13-2.931.314-4.414.366-1.494.052-2.968.075-4.451.28-.715.098-1.42.203-2.14.261-.866.07-.874 1.428 0 1.358Zm15.509-24.512c-.138.124.068.008-.105.06.059-.018.117-.032.177-.047.204-.05-.168.002.042-.003.066-.001.13-.008.196-.01.35-.011.697-.071 1.044-.12a26.474 26.474 0 0 0 2.248-.397c.35-.08.703-.158 1.058-.218.037-.006.358-.046.09-.016.095-.01.19-.021.285-.029.192-.015.383-.018.575-.016.782.007 1.563.046 2.344.081.395.018.79.042 1.185.02.375-.022.748-.073 1.122-.109.734-.07 1.466-.012 2.202-.02.84-.008 1.662-.14 2.49-.267.765-.117 1.532-.214 2.297-.328 1.784-.266 3.558-.617 5.345-.863l-.402.054c1.307-.173 2.624-.25 3.931-.426l-.413.056c.928-.123 1.864-.126 2.798-.176 1.035-.055 2.052-.237 3.078-.378l-.418.056c.458-.06.909-.1 1.372-.086.226.006.453.017.68.009.459-.018.855-.093 1.273-.291l-.378.16c.143-.06.285-.102.438-.13l-.42.056c.476-.063.96.02 1.439.007.538-.015 1.035-.22 1.563-.292l-.423.057c.808-.078 1.638.002 2.448.012a9.024 9.024 0 0 0 1.522-.102c.371-.058.736-.146 1.108-.199l-.426.057c.79-.095 1.593.031 2.389-.028.826-.06 1.645-.196 2.475-.201 1.746-.01 3.492.003 5.238.004.843 0 1.65-.741 1.611-1.61-.039-.873-.708-1.612-1.611-1.612l-3.009.004c-.97.001-1.952-.041-2.92.03-.918.07-1.829.229-2.752.204-.442-.013-.884-.051-1.326-.007-.582.059-1.144.202-1.722.283l.426-.057c-.807.096-1.638.02-2.45.015-.508-.003-1.005.006-1.509.094-.326.057-.64.166-.966.22l.422-.058c-.374.048-.776-.006-1.153-.009-.616-.004-1.145.147-1.694.412l.377-.16-.098.015.42-.057c-.665.072-1.331-.012-1.998.069-.787.095-1.567.237-2.352.343l.417-.055c-.694.087-1.391.114-2.089.145-.805.037-1.595.119-2.394.228l.413-.055c-1.006.134-2.016.239-3.022.376-.906.124-1.797.319-2.695.491-1.81.349-3.622.67-5.436.995-.214.038-.428.078-.642.12-.097.019-.194.038-.292.055-.06.01-.135.012-.191.03.072-.023.271-.03.082-.012-.425.043-.851.065-1.278.086-.434.021-.872.029-1.305.077-.507.057-1.005.15-1.508.234l-.139.022c-.243.042.03-.014.055-.005-.06-.023-.218.025-.285.03-.232.02-.464.022-.696.027-.459.011-.918.02-1.377.034-.976.029-1.942.077-2.893.32-.954.244-1.881.582-2.831.842-.765.21-1.758.332-2.216 1.065-.192.31-.094.74.19.951.303.226.69.195.969-.057Z"/><path fill="#0A0A0A" d="M52.085 43.946c-.073.755.287 1.4.704 1.996.41.588.676 1.259 1.032 1.879.389.676.848 1.31 1.261 1.972.43.688.856 1.38 1.268 2.078.415.704.802 1.423 1.199 2.137.416.748.827 1.483 1.387 2.136.247.288.51.562.755.853.059.069.114.14.172.21.085.103-.107-.143-.027-.036l.082.11c.122.164.24.332.356.5.446.653.895 1.306 1.323 1.97.432.667.817 1.362 1.22 2.047a11.25 11.25 0 0 0 1.426 1.945c.238.259.48.513.709.78.06.07.12.142.178.215.16.2-.128-.177.023.031.106.147.206.299.296.456.34.59.576 1.233.924 1.818.405.683.99 1.202 1.552 1.75.13.126.258.255.382.388a6.866 6.866 0 0 1 .255.286c.002.053.118.17.149.219.047.072.09.146.134.222.095.166.182.337.27.507.379.737.875 1.38 1.384 2.032l.348.442.163.208.081.104c-.203-.257-.051-.066-.012-.015.225.295.444.596.647.906.199.305.359.63.556.935.232.36.51.691.788 1.016.11.13.223.259.331.39l.077.095c.053.067.062.141-.063-.08.05.088.122.167.178.252.235.358.492.695.775 1.017.107.122.204.26.318.375-.187-.188-.109-.148-.063-.08.03.044.06.086.088.13.046.07.088.143.135.213.213.323.46.627.72.914.21.234.432.459.648.688a12.092 12.092 0 0 1 .43.48l.066.082c.133.16-.166-.23-.047-.06.17.243.33.491.448.765L77 80.958c.034.082.064.165.091.25l.775-1.365-.14.037c-.56.15-.956.795-.773 1.36.192.595.755.908 1.36.774l.143-.032c.585-.13.926-.809.774-1.365-.208-.762-.65-1.39-1.17-1.973-.204-.227-.42-.445-.63-.666a14.559 14.559 0 0 1-.454-.496c-.034-.04-.232-.288-.097-.114.134.174-.029-.043-.053-.078a6.855 6.855 0 0 1-.13-.2 6.76 6.76 0 0 0-.464-.63c-.104-.126-.214-.248-.322-.37a10.94 10.94 0 0 1-.161-.187l-.079-.095c-.144-.173.148.22.025.028-.23-.357-.48-.7-.754-1.026-.109-.132-.222-.26-.333-.39a14.362 14.362 0 0 1-.252-.3c-.027-.033-.142-.18-.025-.03.11.141.022.028-.004-.009a4.565 4.565 0 0 1-.22-.337c-.097-.166-.186-.336-.287-.5a12.266 12.266 0 0 0-.626-.915 44.966 44.966 0 0 0-.84-1.085l-.349-.44c-.051-.066-.216-.304-.029-.037-.062-.089-.132-.173-.197-.26a7.739 7.739 0 0 1-.609-.923c-.173-.319-.327-.648-.52-.956-.445-.713-1.055-1.278-1.655-1.854-.126-.121-.25-.244-.371-.37a4.565 4.565 0 0 1-.166-.18c-.024-.028-.142-.177-.02-.02.118.152.01.01-.015-.026a7.397 7.397 0 0 1-.514-.887c-.157-.31-.306-.623-.473-.926a7.25 7.25 0 0 0-.698-1.015c-.445-.557-.977-1.035-1.443-1.573a9.17 9.17 0 0 1-.178-.214c-.064-.079-.012-.089.049.064-.012-.03-.057-.077-.074-.1-.117-.163-.222-.334-.328-.504-.209-.333-.41-.67-.614-1.005a32.189 32.189 0 0 0-1.334-2.02c-.493-.692-.956-1.4-1.488-2.063-.242-.302-.507-.582-.771-.864a13.06 13.06 0 0 1-.347-.382c-.046-.052-.146-.134-.167-.199.038.12.086.116.03.037-.04-.054-.08-.107-.117-.163-.458-.674-.891-1.366-1.326-2.056a67.937 67.937 0 0 0-2.777-4.067c-.225-.306-.464-.604-.678-.918-.204-.299-.393-.607-.602-.903-.23-.325-.465-.648-.726-.949-.208-.241-.48-.48-.638-.71-.172-.248-.292-.51-.308-.815-.028-.531-.765-.518-.815 0Z"/><path fill="#0A0A0A" d="M79.124 42.628c-.075.485-.139.96-.162 1.45l-.065 1.38c-.043.919-.046 1.84-.065 2.76-.018.912-.052 1.824-.06 2.736-.008.88.1 1.755.148 2.632.05.907-.001 1.817.015 2.725.017.914.056 1.827.082 2.74.052 1.822.035 3.643.03 5.464a398.744 398.744 0 0 0 0 3.055c.002.518.005 1.036.003 1.553-.002.504.019 1.02-.048 1.52l.039-.292c-.083.552-.233 1.094-.25 1.655-.015.49.043.98-.02 1.47l.04-.294c-.099.65-.235 1.286-.292 1.943-.052.593-.065 1.19-.062 1.785.006 1.19.102 2.378.124 3.568.01.563.487 1.104 1.077 1.077.59-.026 1.067-.473 1.077-1.077.031-2.004-.195-4.027.07-6.022l-.039.294c.077-.55.225-1.09.24-1.647.013-.492-.047-.982.015-1.472l-.04.291c.072-.507.2-1.004.237-1.517.033-.461.016-.93.015-1.393-.003-.949-.02-1.898-.023-2.847-.008-1.912.025-3.827-.027-5.738-.051-1.895-.296-3.78-.331-5.678-.018-.934-.149-1.852-.245-2.78-.098-.947-.086-1.899-.105-2.85l-.065-3.177c-.01-.534-.046-1.069-.072-1.602-.012-.273-.012-.549-.038-.82-.028-.298-.09-.597-.136-.892-.082-.528-.985-.529-1.067 0Z"/><path fill="#0A0A0A" d="M108.703 39.95a14.412 14.412 0 0 1-1.101 2.196 46.922 46.922 0 0 1-1.378 2.098c-.995 1.444-1.906 2.946-2.871 4.41-.487.738-1.016 1.453-1.485 2.202-.454.725-.803 1.508-1.252 2.237-.215.35-.435.696-.638 1.052-.203.356-.372.73-.572 1.088a6.745 6.745 0 0 1-.282.462c-.05.075-.104.148-.155.221-.083.117.14-.17.047-.06-.038.043-.073.088-.11.131-.27.31-.558.596-.81.92-.161.208-.32.416-.478.626-.114.151.025-.036.042-.054-.032.035-.06.077-.09.114a9.188 9.188 0 0 1-.238.28 9.94 9.94 0 0 0-.826 1.09c-.218.332-.42.675-.628 1.013a16.878 16.878 0 0 1-.46.707 8.481 8.481 0 0 1-.082.114c-.097.134-.043.05.026-.029-.277.317-.553.625-.855.92-.347.34-.666.684-.95 1.081-.23.32-.42.664-.632.995-.108.17-.223.337-.34.5-.059.08-.128.157-.18.24a1.89 1.89 0 0 1 .04-.05l-.116.146c-.258.32-.527.629-.798.938-.312.356-.554.737-.818 1.126-.011.016-.073.086-.079.112.03-.135.136-.158.046-.07-.063.061-.125.122-.193.179-.032.026-.073.052-.103.082l.124-.096-.228.176a3.825 3.825 0 0 0-.254.21c-.305.281-.586.594-.867.899a27.183 27.183 0 0 0-1.71 2.064c-.501.667-.937 1.376-1.41 2.061a24.416 24.416 0 0 1-.585.81c-.057.074-.2.185.005-.006-.133.124-.238.302-.354.443-.128.155-.259.31-.392.46-.533.608-1.116 1.152-1.704 1.704-.348.327-.682.673-.954 1.067-.11.158-.19.332-.288.497l-.077.122c-.1.166.026-.047.05-.063-.085.056-.16.178-.234.252-.592.597-1.145 1.229-1.742 1.82-.148.147-.297.291-.437.445-.202.221.212-.121-.02.048a1.713 1.713 0 0 1-.205.133l.324-.136c-.278.11-.482.223-.697.422l.272-.21-.03.02.318-.135a.158.158 0 0 1-.065.018l.348-.046-.036-.002.344.046a.276.276 0 0 1-.081-.027l.302.128c-.098-.059-.066-.031.095.083-.4-.333-.983-.495-1.458-.189a1.25 1.25 0 0 0-.553 1.36c.217.94 1.183 1.5 2.093 1.117.39-.165.639-.478.814-.847-.004.01.068-.13.064-.135.01.011-.175.215-.057.071.083-.1.168-.2.255-.296.304-.34.606-.682.895-1.036.186-.228.36-.466.545-.695-.014.017-.173.205-.048.064l.09-.104a6.17 6.17 0 0 1 .24-.249c.343-.343.6-.721.84-1.14.03-.051.064-.1.093-.153.072-.13-.146.173-.05.062.06-.071.12-.144.184-.213a9.13 9.13 0 0 1 .48-.484c.605-.57 1.203-1.133 1.748-1.761a24.055 24.055 0 0 0 1.63-2.118c.486-.707.933-1.437 1.45-2.123.022-.03.059-.093.09-.119-.185.153-.079.102-.017.022a23.338 23.338 0 0 1 .616-.753 26.214 26.214 0 0 1 1.306-1.425c.067-.067.132-.135.202-.198a2.62 2.62 0 0 1 .1-.086c.24-.198-.28.213.066-.054.178-.137.358-.27.506-.44.183-.21.34-.44.485-.677.047-.076.093-.153.143-.228.002-.004.077-.097.076-.112.002.072-.15.18-.049.066.15-.168.297-.339.444-.51a23.1 23.1 0 0 0 .974-1.21c.25-.334.475-.681.69-1.037.103-.168.204-.336.314-.5.051-.076.105-.15.159-.225.09-.128-.186.21-.026.036.039-.042.075-.087.114-.13.298-.32.626-.612.924-.932a9.02 9.02 0 0 0 .882-1.125c.236-.35.45-.714.668-1.073a19.419 19.419 0 0 1 .452-.708c.032-.045.206-.23.204-.283.003.06-.142.178-.046.06l.088-.11c.07-.082.142-.163.211-.247.184-.221.358-.452.53-.683l.192-.26.086-.114c.083-.112-.03-.033-.042.053.01-.069.138-.172.184-.226.08-.093.163-.184.249-.273.625-.654 1.033-1.4 1.438-2.197.39-.769.884-1.48 1.282-2.244.204-.39.397-.786.614-1.169.225-.395.476-.774.714-1.162.962-1.57 1.874-3.17 2.794-4.764a45.12 45.12 0 0 0 1.247-2.321c.196-.39.386-.785.567-1.182.19-.418.359-.829.529-1.204.189-.418.365-.842.528-1.27.119-.314-.132-.716-.448-.788-.368-.084-.656.112-.788.447ZM51.17 22.41c-.4.807-.557 1.643-.705 2.523a49.6 49.6 0 0 0-.41 2.942c-.208 1.926-.195 3.871-.193 5.806.001.978.002 1.955-.016 2.933-.018.983-.095 1.968.103 2.937.08.388.013.865.135 1.291.128.444.337.859.44 1.31.047.206.08.415.12.621.05.245.152.478.198.72.068.359-.033.872.058 1.289.105.478.412.936.9 1.081.386.115.812.002 1.134-.226.623-.44 1.053-1.117 1.453-1.753.479-.765.88-1.574 1.382-2.325.5-.75 1.034-1.478 1.517-2.24.502-.792.951-1.616 1.392-2.443.431-.809.871-1.591 1.371-2.36.243-.372.456-.763.682-1.146a10.201 10.201 0 0 1 .522-.81c0-.003.1-.135.041-.058-.052.067.069-.082.08-.095.578-.704 1.122-1.437 1.739-2.11.321-.35.652-.68.938-1.063.265-.354.445-.76.652-1.15.211-.4.442-.788.646-1.192.203-.404.393-.819.62-1.21a5.97 5.97 0 0 1 .333-.506l.09-.122c.003-.004.104-.136.04-.053l.04-.052.126-.16c.303-.386.573-.748.79-1.187.05-.098.099-.195.155-.288.025-.04.05-.079.077-.118-.014.021-.102.108-.02.035a3.18 3.18 0 0 0 .492-.594c.095-.141.156-.299.222-.454.024-.058.15-.49.21-.514.005-.002-.096.207-.04.096.015-.032.028-.066.044-.098.034-.072.074-.141.11-.212.008-.016.051-.064.05-.081 0-.004-.154.185-.085.11.148-.159-.171.1-.05.046l-.864.113c-.01-.004-.605-.283-.517-.474-.01.024.043.17.049.2.025.124.042.25.077.373.138.477.352.947.548 1.4.044.101.09.2.133.301.008.019.148.351.054.121.069.168.135.337.195.508.154.436.265.885.398 1.328.504 1.668 1.38 3.218 2.327 4.672.213.328.46.638.637.988.208.411.403.817.638 1.215.438.74.891 1.47 1.342 2.203.42.681.756 1.405 1.158 2.096a6.756 6.756 0 0 0 .428.65c-.138-.185.41.578.184.24.235.35.445.713.655 1.078.225.39.394.804.58 1.214.087.19.178.378.28.56.051.091.106.179.154.271.03.058.059.118.086.178a.929.929 0 0 0-.007-.017c.31.832.416 1.842 1.388 2.164.537.177 1.013-.135 1.32-.538.545-.715.63-1.647.852-2.49.24-.918.523-1.83.804-2.737.276-.895.645-1.755.92-2.65.138-.45.28-.9.45-1.338.038-.099.078-.196.117-.294-.065.161.033-.076.055-.125.093-.209.191-.415.292-.62.402-.824.847-1.625 1.266-2.439.205-.398.386-.81.598-1.204.195-.363.429-.702.595-1.08.216-.493.375-1.007.561-1.512a16.927 16.927 0 0 1 .183-.47c-.017.04-.083.18.005-.005.09-.186.181-.371.28-.552.402-.733.885-1.417 1.297-2.144.26-.46.487-.94.67-1.436.167-.457.292-.926.475-1.379l.058-.139c-.043.102-.044.103 0 .001l.144-.326c.1-.228.203-.456.302-.685.189-.436.38-.873.67-1.253l-1.612.422c-.016-.01-.327-.357-.196-.166.145.214-.097-.244 0-.004.095.233.178.427.324.628.097.133.202.26.302.39.187.245-.11-.211.04.059.11.201.21.402.306.611.37.805.923 1.47 1.445 2.178a65.338 65.338 0 0 0 3.532 4.398c.066.075.132.152.196.23-.181-.222.026.046.05.083.11.172.203.355.294.538.198.393.403.78.634 1.156.498.809 1.075 1.537 1.834 2.11.151.115.306.224.46.334.075.053.163.104.23.166a2.2 2.2 0 0 0 .045.044c.066.059.128.12.187.185.056.062.253.206.033.032.146.115.254.378.353.534.237.372.49.73.784 1.06.132.147.266.293.397.441a8.55 8.55 0 0 1 .314.37.922.922 0 0 0-.012-.014c.258.373.488.756.799 1.091.098.106.312.255.362.39l-.083-.106c.035.049.067.1.096.152.062.108.112.223.162.338.355.798.81 1.56 1.36 2.24.03.038.251.29.055.055.049.058.089.126.131.19.092.139.176.283.268.422.271.405.576.73.956 1.028.778.611 1.92 1.344 2.906.744.723-.441.888-1.366 1.041-2.133.191-.955.341-1.92.461-2.885.112-.904.236-1.813.302-2.722.062-.87.062-1.742.107-2.612.055-1.062.1-2.118.095-3.182-.004-1.063-.032-2.129 0-3.191.016-.521.067-1.035.122-1.553.027-.244.02-.476-.009-.72-.021-.163-.04-.332-.077-.494-.073-.323.018.3-.01-.036-.047-.587-.158-1.167-.708-1.5-.85-.513-1.891.247-1.837 1.183.033.566.476 1.114 1.087 1.087.561-.025 1.122-.48 1.087-1.087l-.382.676h-1.099a82.978 82.978 0 0 1-.278-.294c-.066-.18-.083-.213-.051-.1-.066-.322-.015-.116-.009-.03.013.187.028.37.062.556.014.076.032.152.045.23-.041-.24.002.082.003.113a3.21 3.21 0 0 1-.01.31c.017-.267-.032.237-.043.33-.105.855-.121 1.711-.124 2.57-.008 1.754-.034 3.495-.138 5.245-.049.833-.056 1.668-.123 2.499-.067.835-.19 1.669-.296 2.5a37.126 37.126 0 0 1-.065.466c-.03.203-.062.404-.097.605-.071.404-.148.808-.226 1.21-.064.333-.145.66-.23.988-.029.11-.185.462-.01.11-.059.12-.145.154.064-.05a.829.829 0 0 1 .554-.222l.188.026c-.11-.037-.093-.026.051.032-.08-.02-.175-.088-.246-.129a4.35 4.35 0 0 1-.444-.298c-.056-.042-.243-.156-.022-.016-.075-.047-.145-.117-.211-.175-.07-.06-.132-.128-.201-.188-.196-.172.09.159-.037-.042-.229-.36-.455-.714-.726-1.044l-.158-.19c.181.224-.016-.03-.042-.068a7.766 7.766 0 0 1-.307-.485c-.404-.685-.667-1.465-1.182-2.075-.115-.136-.241-.26-.361-.391-.048-.052-.263-.22-.041-.027-.053-.047-.089-.135-.126-.196a8.727 8.727 0 0 0-.804-1.08c-.127-.149-.259-.294-.39-.44-.067-.074-.131-.153-.202-.224-.2-.204.099.152-.003.003-.199-.289-.381-.59-.577-.88-.234-.345-.489-.686-.813-.952-.33-.27-.736-.488-1.046-.78.22.208-.007-.01-.047-.044a3.455 3.455 0 0 1-.204-.196 4.934 4.934 0 0 1-.2-.221s-.209-.254-.095-.111c.115.143-.088-.122-.087-.12a11.18 11.18 0 0 1-.5-.773c-.44-.745-.76-1.509-1.318-2.18-.587-.707-1.216-1.376-1.793-2.093a51.04 51.04 0 0 1-.48-.608c.132.17.014.02-.01-.013-.09-.117-.178-.234-.266-.352-.33-.442-.658-.885-.996-1.322-.138-.178-.276-.357-.416-.534l-.208-.267-.14-.178c.078.102.078.099 0-.007a10.937 10.937 0 0 1-.59-1.093 3.63 3.63 0 0 0-.434-.658 9.413 9.413 0 0 0-.176-.22c-.082-.102-.08-.096.01.018a1.214 1.214 0 0 1-.091-.136c-.074-.13-.116-.274-.188-.405a1.765 1.765 0 0 0-.654-.675c-.59-.348-1.236-.09-1.611.422-.491.672-.771 1.516-1.094 2.277a15.8 15.8 0 0 0-.547 1.413c-.061.19-.111.385-.176.575a7.29 7.29 0 0 1-.098.267c-.008.02-.073.164-.015.037.06-.13-.028.056-.038.079-.355.756-.825 1.45-1.252 2.165-.49.82-.86 1.68-1.168 2.582-.073.212-.143.424-.219.634-.017.048-.034.096-.053.144.008-.02.082-.158.017-.052-.057.094-.1.198-.155.294-.208.37-.41.734-.592 1.118-.392.827-.83 1.631-1.244 2.448-.442.87-.86 1.76-1.189 2.68-.314.876-.56 1.768-.91 2.632-.39.966-.656 1.99-.956 2.986a19.87 19.87 0 0 0-.382 1.457 8.64 8.64 0 0 1-.18.672c-.038.122.017-.048.025-.063-.03.053-.052.11-.082.163-.022.04-.053.078-.071.118-.061.137.165-.185-.017.024l1.138-.3.572.425c-.039-.076-.035-.064.011.037.09.198.011.002 0-.04a5.07 5.07 0 0 1-.066-.254 5.604 5.604 0 0 0-.232-.71c-.243-.641-.592-1.228-.86-1.858a12.42 12.42 0 0 0-.875-1.695 5.335 5.335 0 0 0-.215-.322c-.081-.11-.167-.218-.25-.326-.206-.265.085.135-.022-.03-.169-.261-.34-.515-.49-.787-.303-.548-.574-1.112-.904-1.645-.354-.572-.713-1.142-1.064-1.716a21.229 21.229 0 0 1-1.005-1.793c-.28-.574-.702-1.085-1.04-1.628-.352-.564-.7-1.132-1-1.726a17.374 17.374 0 0 1-.4-.858c-.023-.052-.116-.268-.027-.058a7.85 7.85 0 0 1-.264-.699c-.205-.628-.357-1.27-.604-1.884a24.357 24.357 0 0 0-.466-1.083c-.07-.149-.141-.296-.21-.445l-.089-.199c-.145-.323.074.205-.053-.128-.232-.605-.28-1.238-.908-1.605-.831-.485-1.645.092-1.988.857a9.761 9.761 0 0 0-.312.8c-.031.09-.07.18-.097.27-.04.13.116-.214.047-.114-.008.012-.166.26-.08.143.095-.128-.089.1-.087.1-.04.046-.08.092-.119.14a3.38 3.38 0 0 0-.345.492c-.144.26-.25.538-.42.783l-.121.162c-.192.26.069-.087-.05.065-.127.164-.255.328-.381.494a7.325 7.325 0 0 0-.54.792c-.32.56-.572 1.158-.875 1.727-.296.556-.565 1.157-.912 1.683-.026.04-.154.205-.033.056-.04.048-.08.096-.122.143-.093.106-.192.208-.29.31-.223.238-.441.48-.65.73-.851 1.014-1.72 2.052-2.381 3.201-.32.558-.658 1.098-1.004 1.64-.356.559-.643 1.162-.95 1.748a37.118 37.118 0 0 1-2.004 3.412c-.356.532-.7 1.07-1.011 1.63-.314.563-.574 1.153-.87 1.726-.142.276-.29.549-.45.815a7.316 7.316 0 0 1-.226.359c-.023.034-.05.066-.07.102-.027.045.114-.133-.01.011-.065.074-.127.148-.196.217-.057.056-.195.21-.068.071l-.049.033c-.067.035-.065.037.004.006l.053-.021c-.091.024-.063.022.085-.006.13.006.293.07.388.157.144.13.013-.035.053.069-.077-.2-.02-.533-.032-.801-.015-.377-.127-.688-.225-1.043-.085-.305-.126-.62-.206-.926-.09-.345-.239-.668-.364-1.002-.114-.303-.132-.466-.145-.781-.013-.338-.086-.658-.154-.987-.118-.569-.045-1.359-.043-1.996.005-1.393-.059-2.786-.1-4.178-.04-1.39-.066-2.782 0-4.171.066-1.374.251-2.74.348-4.112.04-.58.148-1.138.351-1.683.176-.472-.592-.796-.816-.344Zm77.198 1.537-.105-.004.216.029-.032-.009.197 1.51.087-.04-.21.09c.134-.057.269-.104.389-.186.074-.051.151-.097.229-.14.146-.078.283-.173.426-.257.319-.19.634-.386.943-.593.387-.26.75-.562 1.112-.858.301-.245.596-.498.887-.757a51.025 51.025 0 0 0 1.74-1.644c.581-.57 1.159-1.141 1.73-1.72a9.81 9.81 0 0 0 .665-.734c.194-.24.392-.484.636-.675l-.276.213c.13-.099.26-.2.388-.302l-.276.213a.929.929 0 0 1 .186-.113l-.321.136.057-.022c.332-.114.62-.306.801-.615.097-.154.15-.32.158-.498a1.02 1.02 0 0 0-.023-.534c-.105-.324-.306-.637-.616-.8l-.32-.135a1.347 1.347 0 0 0-.711 0c-.17.025-.331.114-.484.18a1.459 1.459 0 0 0-.32.206c-.172.133-.322.27-.461.438-.263.318-.49.66-.741.988l.207-.269c-.19.244-.405.471-.61.703a77.002 77.002 0 0 1-2.115 2.304c-.457.48-.924.95-1.408 1.402-.477.445-.976.865-1.468 1.294-.258.225-.528.435-.791.654a2.62 2.62 0 0 0-.457.527 1.54 1.54 0 0 0-.205.397c-.048.136-.054.292-.07.434-.032.28.179.579.409.713.26.153.572.143.833 0l.029-.015-.194.082.101-.03a.798.798 0 0 0 .569-.873c-.053-.399-.381-.675-.781-.69Zm3.747 10.303c.242.02.493-.024.728-.072a3.62 3.62 0 0 0 .51-.15c.414-.151.813-.34 1.219-.512l-.279.117c.642-.27 1.286-.528 1.911-.836a40.69 40.69 0 0 0 1.703-.901c.54-.3 1.073-.607 1.597-.936.514-.324 1.03-.646 1.575-.915.304-.15.611-.284.903-.456.295-.173.584-.353.873-.535.309-.194.6-.523.684-.89l.053-.395a1.12 1.12 0 0 0-.128-.573.751.751 0 0 0-.191-.328 1.13 1.13 0 0 0-.418-.384l-.355-.15a1.501 1.501 0 0 0-.792 0l-.037.008a1.123 1.123 0 0 0-.505.266 1.124 1.124 0 0 0-.382.416l-.15.355a1.115 1.115 0 0 0-.026.592c0 .134.034.259.101.375.06.184.162.343.307.477.285.262.652.447 1.05.435h.038l-.396-2.924c-.275.115-.547.215-.795.38-.142.094-.282.192-.424.286-.297.198-.612.355-.921.532-.613.35-1.183.767-1.758 1.174-1.202.85-2.413 1.706-3.705 2.417-.302.166-.612.316-.914.483-.294.162-.587.326-.896.457l.266-.112a2.38 2.38 0 0 1-.587.174l.288-.04c-.049.007-.098.01-.147.01a1.118 1.118 0 0 0-.762.316c-.187.187-.327.494-.315.762.012.279.104.567.315.761l.218.169c.168.097.35.146.544.147Zm1.405 10.597c.802-.04 1.603-.105 2.404-.15a51.608 51.608 0 0 1 2.395-.094c.224-.002.44-.01.663-.034.212-.023.455-.024.656-.078.19-.05.375-.162.554-.25.357-.178.572-.612.572-.998 0-.384-.215-.82-.572-.997-.166-.082-.345-.18-.519-.232-.195-.058-.409-.062-.613-.073a3.846 3.846 0 0 0-.585.004c-.388.038-.776.084-1.162.135-.877.116-1.75.25-2.625.38l.31-.042c-.491.064-.985.114-1.478.159a.853.853 0 0 0-.437.097.853.853 0 0 0-.366.235c-.197.197-.345.52-.332.803.013.293.109.598.332.803.216.197.501.347.803.332Zm-4.918 10.703c.235.018.469.045.702.076l-.289-.038c.593.08 1.186.182 1.783.225.242.018.488.029.73.005.15-.015.314-.023.461-.063.138-.036.266-.108.396-.165.11-.048.218-.1.329-.148l-.256.108a3.39 3.39 0 0 1 .167-.065c.247-.09.493-.235.621-.477.11-.21.155-.426.123-.663a.985.985 0 0 0-.286-.596 1.074 1.074 0 0 0-.734-.304c-.397.002-.789.068-1.18.121l.305-.041c-.956.111-1.916-.095-2.872-.109a1.097 1.097 0 0 0-.755.313c-.185.185-.324.489-.312.755.012.276.103.562.312.754.217.2.46.292.755.313ZM35.456 14.13a1.643 1.643 0 0 0-1.377-.706c-.482.012-.952.115-1.418.229-.453.11-.917.161-1.372.265-.548.125-1.09.32-1.613.523a17.93 17.93 0 0 0-.964.404l-.065.03c.203-.085.159-.066-.131.056-.064.03-.128.063-.191.095a19.423 19.423 0 0 0-1.859 1.046c-.97.615-1.892 1.306-2.825 1.975-1.022.733-2.04 1.485-2.968 2.337a45.077 45.077 0 0 0-2.422 2.365c-.833.89-1.627 1.864-2.16 2.966-.558 1.154-.892 2.362-1.108 3.62-.226 1.314-.46 2.644-.52 3.977-.031.716.021 1.418.128 2.126.102.675.345 1.268.61 1.894l-.14-.33c.382.915.681 1.87 1.15 2.744.497.924 1.258 1.733 2.193 2.223.833.436 1.72.604 2.634.77 1.018.187 2.047.27 3.08.186.511-.041 1.055-.076 1.548-.226a3.525 3.525 0 0 0 1.436-.864c.639-.626.997-1.428 1.404-2.207.5-.96 1.057-2.07.61-3.16-.406-.99-1.19-1.737-2.126-2.24a6.983 6.983 0 0 0-2.807-.817c-.962-.071-1.957.074-2.884.332a10.74 10.74 0 0 0-2.682 1.173c-.773.47-1.515 1.042-2.112 1.726C15.24 38.09 14.44 39.908 14 41.769c-.421 1.782-.576 3.67-.21 5.475.355 1.755 1.381 3.465 3.04 4.258a9.193 9.193 0 0 0 3.465.886c.49.026.992.045 1.452-.15.574-.242.886-.759 1.247-1.237.336-.445.617-.876.82-1.399.09-.235.034-.537-.06-.757-.104-.249-.257-.397-.475-.557-.646-.471-1.518-.318-2.083.194-.087.079-.449.544-.245.282.204-.265-.093.114-.165.216a2.398 2.398 0 0 0-.093.14c-.156.256-.269.535-.383.811a10.811 10.811 0 0 0-.658 2.374c-.183 1.11-.204 2.227-.203 3.35 0 .624.549 1.222 1.193 1.193.647-.029 1.194-.524 1.194-1.193 0-.964-.029-1.925.093-2.884l-.042.312c.09-.665.24-1.326.44-1.965.057-.182.121-.36.188-.538.09-.234-.115.254-.04.093l.047-.105c.037-.078.075-.155.117-.23.039-.07.082-.135.125-.202.119-.184-.195.219-.083.11.02-.021.039-.044.06-.064.182-.18-.278.165-.067.048.169-.093-.31.09-.167.067.03-.005.059-.016.09-.02l-.308.04a.524.524 0 0 1 .114.002l-.308-.041c.15.025.128.105-.136-.074.093.063.243.175-.09-.088l-.183-1.41a3 3 0 0 1-.32.553c-.04.056-.084.11-.122.166.025-.038.156-.198.057-.075l-.234.29a16.04 16.04 0 0 0-.347.44c-.057.077-.163.147.055-.067-.032.031-.057.07-.088.103-.015.015-.08.065-.083.081.003-.017.28-.191.129-.105-.11.062.325-.095.17-.07-.035.006-.07.017-.105.024l.318-.043c-.457.057-.956 0-1.409-.06l.318.043a7.935 7.935 0 0 1-1.635-.41 9.994 9.994 0 0 1-.246-.092c-.1-.039-.341-.186 0 .003-.253-.14-.503-.262-.743-.427-.166-.114.254.21.025.017a4.096 4.096 0 0 1-.428-.415c-.048-.054-.094-.11-.14-.164-.135-.162.17.233.057.071a5.042 5.042 0 0 1-.417-.691c-.032-.065-.062-.13-.093-.196-.086-.184.125.315.016.035a7.079 7.079 0 0 1-.405-1.602l.042.318c-.13-.981-.09-1.976.04-2.955l-.043.319a14.237 14.237 0 0 1 .758-3.035c.033-.088.067-.175.102-.262.032-.08.135-.287-.026.057.027-.056.05-.114.075-.17.167-.373.353-.737.562-1.088.103-.172.21-.34.324-.505.057-.081.116-.16.173-.24.11-.151-.078.098-.08.102.037-.056.085-.108.128-.16a6.937 6.937 0 0 1 1.02-1.004l.114-.09c-.276.226-.149.114-.079.063a10.07 10.07 0 0 1 1.612-.962c.115-.055.233-.103.347-.158-.367.179 0 .002.096-.035.229-.087.459-.17.692-.243.46-.144.931-.25 1.409-.316l-.314.042a6.523 6.523 0 0 1 1.684-.01l-.308-.041c.307.043.607.113.902.208.142.045.28.1.42.152.106.04-.148-.069-.14-.06.013.016.082.036.106.047a5.684 5.684 0 0 1 .67.363c.057.037.113.075.169.115.038.026.148.111.003-.001-.155-.12-.012-.009.023.02.116.098.228.203.33.317.012.013.067.063.074.085 0 0-.17-.24-.072-.093.046.07.093.138.135.21.022.04.138.29.055.09-.083-.2.018.063.03.105.063.245-.001-.217-.002-.036v.118a1.27 1.27 0 0 1-.006.09c-.009.088-.002.04.02-.148-.066.145-.08.33-.137.482-.01.03-.023.06-.035.09-.05.133.099-.218.037-.089-.041.087-.08.174-.124.26-.28.563-.56 1.136-.922 1.654l-.066.093c-.11.153.146-.18.059-.075-.054.065-.107.13-.164.193-.114.125-.24.23-.364.343.278-.256.068-.056-.034.004-.05.03-.315.152-.104.064.212-.088-.064.018-.123.034-.094.026-.19.043-.286.057l.32-.043c-.993.123-2.024.111-3.015-.018l.336.045c-.467-.065-.929-.17-1.389-.27a7.304 7.304 0 0 1-1.242-.367l.31.13a4.107 4.107 0 0 1-.885-.517l.265.205a4.222 4.222 0 0 1-.707-.702l.207.269a5.75 5.75 0 0 1-.684-1.228l.136.322c-.24-.57-.427-1.158-.64-1.738-.214-.587-.425-1.139-.51-1.763l.05.372c-.131-1.024-.059-2.068.077-3.088l-.051.38c.122-.897.276-1.794.45-2.682.182-.929.403-1.855.77-2.73l-.144.339a9.514 9.514 0 0 1 1.238-2.063l-.217.281c.826-1.059 1.798-1.99 2.712-2.971.942-1.01 1.992-1.899 3.067-2.763.535-.43 1.068-.862 1.604-1.29l.194-.153c.097-.077-.095.073-.09.07l.084-.065a23.306 23.306 0 0 1 1.249-.887 19.72 19.72 0 0 1 1.745-1.024c.304-.157.612-.303.925-.442.171-.076-.148.06.027-.012l.231-.093c.166-.065.333-.124.5-.184.063-.023.116-.041.18-.069.144-.06.15-.063.02-.007l.067-.024c.09-.03.178-.064.268-.095.15-.05.303-.094.452-.146.25-.09.493-.2.741-.296a5.463 5.463 0 0 1 .597-.195l.102-.023a1.08 1.08 0 0 1 .028-.008l-.048.007c.05 0 .1-.005.148-.015.295-.04-.068-.005.025-.012.062-.005.124.003.186-.001.075-.005-.069 0-.069-.01 0-.005.096.028.107.029.059.003-.04-.012-.053-.023.017.015.146.106.023.005.235.193.55.249.803.047.223-.177.333-.533.157-.788Z"/></svg>