<svg xmlns="http://www.w3.org/2000/svg" width="120" height="120" fill="none"><path fill="#FF8131" d="M39.838 91.642c-.033-1.095.28-2.13.308-3.22.062-2.421-1.157-3.618-2.466-5.47-1.33-1.882-2.411-3.945-3.71-5.85a23.911 23.911 0 0 0-1.48-1.933c-1.104-1.312-2.044-2.683-3.085-4.038-1.515-1.97-2.943-3.976-4.378-6.007-1.498-2.121-3.27-4.087-4.688-6.258-1.321-2.022-1.896-4.056-2.406-6.377-.529-2.405-.94-4.72-1.056-7.2-.134-2.881.135-5.777.716-8.601.507-2.467 1.152-4.691 2.237-6.977.775-1.634 1.633-3.232 2.434-4.853.98-1.984 2.31-3.47 3.711-5.14 1.565-1.863 3.376-3.452 5.237-5.023 2.362-1.993 4.628-4.311 7.328-5.87 1.252-.722 2.636-1.088 4-1.542 1.242-.413 2.49-1.028 3.765-1.298 2.677-.567 5.675-1.165 8.41-1.142 2.421.021 4.862-.101 7.281-.007 2.53.098 4.94.707 7.38 1.3 2.225.539 4.4 1.317 6.626 1.89 1.014.263 2.072.5 3.047.878.881.342 1.839.423 2.704.8 1.789.778 3.483 1.96 5.131 2.987 1.917 1.193 3.857 2.38 5.536 3.91 1.62 1.478 2.906 3.076 3.927 5.02.857 1.632 2.036 3.109 2.707 4.825.29.74.547 1.473.801 2.23.22.656.592 1.25.758 1.927.437 1.792.332 3.57.331 5.415-.001 1.722-.269 3.358-.27 5.077a32.291 32.291 0 0 1-.607 6.212c-.295 1.523-.355 3.08-.742 4.586-.52 2.015-.905 4.075-1.626 6.018-.603 1.626-1.227 3.394-2.156 4.867-1.026 1.626-2.282 3.067-3.596 4.469-1.387 1.48-2.706 2.846-4.306 4.103-1.003.788-1.958 1.625-2.94 2.436-.72.597-1.5 1.012-2.129 1.694-.645.702-1.457 1.175-2.108 1.892-.54.594-1.042 1.35-1.69 1.846-.473.36-.948.582-1.353 1.055-.467.545-.845 1.113-1.351 1.628-.63.642-.88 1.4-1.293 2.183-.276.524-.647 1.093-.816 1.657-.511 1.698 1.196 2.907 1.314 4.489.067.9-.632 1.06-1.4 1.28-.754.214-1.525.583-2.304.687-.549.073-1.14-.032-1.699.008-1.013.074-1.972.264-2.995.254-1.536-.014-3.071-.006-4.607-.006h-7.764c-.99 0-1.99-.043-2.98-.006-.905.034-1.706.281-2.623.276-1.323-.008-2.645 0-3.968 0h-2.378c-.254.001-.519.018-.773.006-.605-.028-.496-.08-.865-.546"/><path fill="#FF8131" d="M41.144 91.642a5.98 5.98 0 0 1 .128-.755c.081-.365.18-.725.265-1.088.172-.732.299-1.495.287-2.248a8.546 8.546 0 0 0-.113-1.125 8.568 8.568 0 0 0-.03-.19c-.036-.209.029.181.027.181.02.005-.145-.713-.185-.84a11.602 11.602 0 0 0-.725-1.757c-.254-.503-.542-.988-.82-1.478a31.891 31.891 0 0 1-.692-1.28c-.037-.073-.07-.15-.111-.221-.06-.121-.05-.098.025.07.105.245.084.194-.063-.153-.306-.724-.742-1.415-1.106-2.114-.331-.635-.66-1.27-1.004-1.898-.669-1.222-1.436-2.352-2.242-3.485-.82-1.152-1.554-2.356-2.373-3.508-1.67-2.347-3.227-4.766-4.87-7.13-1.77-2.543-3.978-4.832-5.197-7.72l.367.87c-1.055-2.572-1.539-5.431-1.915-8.172l.133.992a34.835 34.835 0 0 1-.003-9.229l-.136 1.007c.4-2.885 1.08-5.76 2.199-8.455l-.386.914c.675-1.597 1.502-3.127 2.295-4.667.75-1.456 1.488-2.857 2.493-4.159l-.605.783c1.737-2.221 3.643-4.27 5.773-6.118 1.048-.91 2.117-1.795 3.159-2.713 1.046-.922 2.092-1.845 3.195-2.699l-.797.616c1.066-.816 2.184-1.588 3.419-2.127l-.946.4c.905-.381 1.846-.658 2.779-.958.965-.31 1.894-.718 2.855-1.038.925-.31 1.892-.475 2.848-.659a54.825 54.825 0 0 1 3.05-.507l-1.069.144c2.088-.272 4.162-.23 6.262-.25 2.171-.02 4.359-.08 6.517.2l-1.086-.146c3.11.425 6.172 1.297 9.165 2.223 1.474.456 2.959.85 4.446 1.26.714.196 1.396.478 2.104.688.728.215 1.476.341 2.18.637l-1-.422c1.692.759 3.223 1.808 4.78 2.803 1.531.978 3.081 1.923 4.521 3.034l-.859-.664a20.454 20.454 0 0 1 3.504 3.466l-.668-.864c.851 1.1 1.474 2.304 2.174 3.499.726 1.24 1.552 2.421 2.126 3.745l-.435-1.03c.277.667.514 1.35.746 2.033.318.937.724 1.834 1.11 2.744l-.435-1.032c.24.593.358 1.209.444 1.84l-.155-1.15c.269 2.21.152 4.52-.033 6.731-.19 2.276-.142 4.556-.446 6.824l.156-1.165c-.255 1.83-.593 3.642-.838 5.475l.157-1.17c-.076.555-.15 1.109-.223 1.663l.157-1.169c-.253 1.842-.742 3.676-1.203 5.476-.442 1.725-1.05 3.415-1.738 5.058l.436-1.033c-.616 1.446-1.415 2.755-2.368 4.004l.67-.868c-1.365 1.767-2.904 3.43-4.499 4.99-.795.779-1.64 1.486-2.498 2.194-.91.75-1.778 1.555-2.702 2.29l.841-.65c-.756.584-1.556 1.113-2.276 1.743-.508.445-.956.942-1.477 1.375-.502.415-.962.843-1.373 1.35-.422.518-.824 1.05-1.346 1.474l.825-.637c-.635.48-1.317.896-1.907 1.436-.623.57-1.081 1.319-1.595 1.985l.633-.82c-.766.977-1.628 1.847-2.165 2.984-.21.446-.433.88-.663 1.316-.355.675-.72 1.405-.89 2.151-.385 1.705-.084 3.234.675 4.777.329.668.748 1.282 1.07 1.954l-.38-.903c.056.18.103.358.134.543l-.134-1.002c.019.155.024.3.006.455l.134-1a.888.888 0 0 1-.052.187l.378-.897a.796.796 0 0 1-.085.158l.586-.76c-.057.074-.113.13-.183.191l.758-.585c-.132.095-.27.166-.42.229l.892-.376c-.428.164-.87.285-1.299.448-.529.2-1.051.403-1.61.504l.972-.13c-.417.053-.817.018-1.236.004-.434-.015-.865.027-1.297.07-.896.088-1.772.148-2.673.13-1.825-.039-3.65-.056-5.475-.083-1.84-.026-3.681-.063-5.522-.096-.895-.016-1.789-.047-2.684-.068-1.179-.029-2.274.095-3.447.254l1.058-.142c-1.485.2-3.003.077-4.497.053-.74-.011-1.481-.032-2.222-.042-.693-.008-1.405.079-2.094-.002l1.086.145a.626.626 0 0 1-.128-.03l.976.411a.345.345 0 0 1-.093-.05l.827.638a.956.956 0 0 1-.118-.13l.638.826a17.384 17.384 0 0 0-.23-.305 3.082 3.082 0 0 0-1.05-1.144 3.07 3.07 0 0 0-1.387-.73c-.976-.269-2.275-.148-3.142.411-.87.561-1.637 1.397-1.873 2.437-.226.99-.24 2.296.41 3.142.566.735 1 1.428 1.826 1.918.825.49 1.69.626 2.637.66 1.051.036 2.11-.004 3.16-.023 1.064-.02 2.128-.045 3.192-.061 1.319-.02 2.593-.255 3.896-.43l-1.053.14c1.032-.12 2.082-.075 3.12-.086 1.03-.01 2.06-.035 3.09-.054 2.123-.038 4.246-.07 6.369-.103 1.08-.017 2.161-.022 3.242-.04 1.008-.016 1.992-.225 2.995-.297.465-.033.93.006 1.396-.002a8.462 8.462 0 0 0 2.289-.367c1.023-.308 2.158-.553 3.1-1.07 2.056-1.13 2.703-3.475 2.189-5.643-.254-1.067-.836-2.02-1.275-3.016l.39.926a4.047 4.047 0 0 1-.285-.96l.14 1.04a2.781 2.781 0 0 1-.006-.56l-.14 1.047a2.82 2.82 0 0 1 .16-.606l-.4.947c.262-.61.649-1.157.949-1.749.276-.543.522-1.094.89-1.584l-.631.817c.33-.408.707-.775 1.037-1.186.327-.407.637-.825 1.047-1.154l-.823.636c.737-.549 1.538-1.012 2.198-1.663.44-.434.803-.937 1.22-1.392.421-.462.92-.834 1.404-1.227.505-.411.936-.9 1.449-1.302l-.838.647c1.098-.83 2.21-1.63 3.272-2.51.846-.699 1.715-1.37 2.564-2.064 1.639-1.34 3.121-2.877 4.553-4.432 1.617-1.756 3.217-3.654 4.279-5.805a38.678 38.678 0 0 0 2.586-6.75c.334-1.215.609-2.446.925-3.665.405-1.561.552-3.168.763-4.764l-.157 1.168c.274-1.999.677-3.972.83-5.989.131-1.718.093-3.44.224-5.16.127-1.668.16-3.346.112-5.02a22.085 22.085 0 0 0-.376-3.43c-.207-1.101-.719-2.092-1.164-3.112l.436 1.032c-.574-1.379-.99-2.801-1.616-4.164-.461-1.004-1.073-1.927-1.656-2.861-.56-.896-1.028-1.845-1.601-2.732a24.484 24.484 0 0 0-2.423-3.147c-1.655-1.825-3.665-3.322-5.728-4.655-1.871-1.207-3.762-2.442-5.713-3.516-1.264-.697-2.592-1.293-4-1.624-1.078-.254-2.107-.663-3.181-.936-2.288-.58-4.535-1.292-6.815-1.897-2.557-.677-5.15-1.223-7.78-1.525-2.39-.275-4.819-.133-7.22-.094-1.154.02-2.31-.007-3.463.084a45.989 45.989 0 0 0-4.367.58 69.395 69.395 0 0 0-3.372.68c-1.094.25-2.117.708-3.164 1.102-1.041.392-2.12.679-3.155 1.09-1.311.52-2.517 1.106-3.672 1.912-2.014 1.405-3.827 3.053-5.656 4.682-1.688 1.503-3.444 2.923-5.016 4.551-.787.816-1.51 1.687-2.234 2.56-.845 1.018-1.682 2.054-2.415 3.156-.621.934-1.096 1.94-1.6 2.94-.534 1.06-1.077 2.118-1.591 3.19-1.093 2.278-1.966 4.628-2.537 7.091-.6 2.59-.99 5.255-1.1 7.912-.11 2.656.155 5.292.608 7.909.372 2.147.816 4.336 1.55 6.392.435 1.218.952 2.433 1.623 3.542.713 1.18 1.585 2.268 2.431 3.353.703.9 1.435 1.776 2.135 2.678l-.555-.718c.447.584.915 1.15 1.367 1.73l-.548-.71c1.138 1.474 2.25 2.968 3.392 4.438.99 1.272 2.016 2.513 3.013 3.778a3674 3674 0 0 1-.502-.65c1.383 1.812 3.053 3.373 4.447 5.172l-.441-.572c.908 1.184 1.736 2.424 2.6 3.639.859 1.206 1.838 2.284 2.84 3.37.185.2.367.402.542.61.096.113.327.498.032.025.064.102.145.198.213.298.067.1.123.211.195.306.095.176.087.137-.024-.118.066.19.142.377.229.56l-.064-.22a5.296 5.296 0 0 1 .206.612c.041.153.063.31.103.463.02.121.018.091-.007-.09.012.101.022.202.029.303.023.323.022.647.012.97-.023.753-.084 1.498.002 2.25.08.7.543 1.306 1.306 1.306.756 0 1.246-.6 1.306-1.306Z"/><path fill="#0A0A0A" d="M76.466 32.058c-1.269-.44-2.573-.742-3.857-1.13-1.276-.387-2.564-.727-3.852-1.07-.347-.093-.693-.187-1.04-.276-.178-.045-.356-.09-.534-.133a10.52 10.52 0 0 0-1.248-.218l.743.1c-1.862-.3-3.742-.526-5.628-.592a44.52 44.52 0 0 0-2.44.003c-.805.016-1.61.02-2.415.046-1.075.035-2.151.174-3.214.34-.797.125-1.577.321-2.344.571-.969.316-1.915.714-2.841 1.135a23.78 23.78 0 0 0-1.982 1.023c-.866.496-1.701 1.092-2.407 1.8-.447.448-.825.966-1.205 1.468-.2.265-.386.54-.558.823-.506.837-.895 1.733-1.26 2.64-.13.322-.24.654-.314.994-.1.464-.154.949-.202 1.415a3.087 3.087 0 0 0-.013.515c.067 1.06.254 1.781.73 2.729.262.523.677 1.008 1.047 1.44.187.218.395.416.617.597.468.382.95.767 1.468 1.085.784.483 1.652.831 2.503 1.173.582.235 1.178.436 1.78.61 1.802.518 3.686.787 5.55.944.765.064 1.532.096 2.298.098.824.002 1.647-.023 2.47.013.41.018.818.05 1.225.105l-.983-.133c1.422.196 2.838.486 4.274.558a69.92 69.92 0 0 1 3.453.246c.65.065 1.298.141 1.945.228l-.987-.133c.959.13 1.912.291 2.867.45.864.144 1.728.316 2.539.658l-.89-.375c.426.184.832.41 1.201.692l-.753-.583c.452.354.828.787 1.177 1.24l-.582-.755c.318.415.615.846.927 1.266.31.417.578.84.783 1.319l-.376-.891c.187.45.324.918.391 1.401l-.133-.992c.07.558.103 1.161.043 1.721l.133-.992c-.02.15-.058.293-.114.433l.376-.892a2.286 2.286 0 0 1-.27.459l.584-.756c-.324.417-.739.763-1.115 1.13-.44.431-.905.837-1.392 1.214l.757-.585c-.754.578-1.565 1.085-2.442 1.456l.895-.377c-.86.358-1.785.584-2.688.804-.95.233-1.91.424-2.88.556l.998-.134c-1.24.166-2.494.197-3.745.21-1.3.014-2.601.001-3.901-.047a22.466 22.466 0 0 1-2.145-.161l1.01.136c-.916-.124-1.832-.256-2.749-.378l1.015.137c-.466-.063-.93-.136-1.39-.235-.449-.097-.885-.239-1.33-.353-.88-.225-1.779-.395-2.622-.743l.922.39c-.372-.158-.717-.36-1.065-.563a8.015 8.015 0 0 0-.485-.265c-.367-.18-.751-.328-1.128-.484a4.059 4.059 0 0 0-.295-.111c-.51-.166-1.053-.194-1.553-.398l.929.392a1.55 1.55 0 0 1-.307-.169l.787.608a.84.84 0 0 1-.132-.127l.608.788a.605.605 0 0 1-.07-.123l.392.93a.612.612 0 0 1-.023-.082 2.932 2.932 0 0 0-.697-1.324 2.943 2.943 0 0 0-1.092-1.003 2.898 2.898 0 0 0-1.448-.462 2.95 2.95 0 0 0-1.553.07c-.31.13-.62.26-.93.392a3.913 3.913 0 0 0-1.398 1.397l-.392.93a3.921 3.921 0 0 0 0 2.07c.005.024.012.046.018.069.045.156.329.83.409.97.101.175.247.335.366.49.139.178.236.335.39.479.194.183.605.484.824.638l.067.047c.044.028.09.053.137.075.344.166.709.317 1.065.451.116.044.235.081.355.112.516.134 1.038.176 1.535.384l-.925-.39c.386.168.743.391 1.114.59.657.35 1.355.642 2.067.863.823.255 1.676.392 2.506.617 1.168.318 2.36.468 3.561.604.92.104 1.836.26 2.763.292 1.961.07 3.924.045 5.885-.015a31.061 31.061 0 0 0 6.433-.87c2.004-.49 3.983-1.146 5.678-2.354.952-.679 1.87-1.415 2.697-2.242.265-.265.55-.51.802-.787.69-.764 1.16-1.486 1.469-2.472.213-.682.239-1.46.206-2.176-.033-.72-.1-1.44-.246-2.149-.145-.703-.45-1.369-.739-2.02a5.424 5.424 0 0 0-.602-1.05c-.668-.895-1.3-1.822-2.03-2.669-.465-.538-1.01-.953-1.58-1.38a5.694 5.694 0 0 0-1.123-.654c-.67-.295-1.334-.584-2.043-.767-.407-.105-.82-.184-1.235-.255a91.66 91.66 0 0 0-2.706-.427c-2.231-.311-4.461-.542-6.711-.641a16.13 16.13 0 0 1-1.427-.134l.984.132c-1.543-.21-3.075-.508-4.637-.533-1.205-.02-2.408.03-3.613-.039a27.563 27.563 0 0 1-2.039-.193l.981.132c-1.784-.24-3.557-.66-5.22-1.358l.88.371c-.701-.296-1.382-.65-1.988-1.113l.745.575a4.919 4.919 0 0 1-.88-.866l.575.745a3.158 3.158 0 0 1-.395-.661l.37.878a2.437 2.437 0 0 1-.146-.565l.131.977a3.261 3.261 0 0 1 .012-.811l-.13.976c.073-.502.233-.984.428-1.45l-.37.877c.37-.873.832-1.723 1.409-2.478l-.574.743a7.01 7.01 0 0 1 1.247-1.259l-.742.573c.344-.262.714-.491 1.075-.73a25.25 25.25 0 0 1 1.114-.695 19.98 19.98 0 0 1 2.316-1.168l-.841.355a15.766 15.766 0 0 1 2.17-.75c.758-.195 1.53-.327 2.304-.433l-.895.12c.639-.073 1.273-.18 1.91-.267l-.88.119c1.117-.15 2.235-.291 3.352-.442l-.843.113a35.655 35.655 0 0 1 5.271-.287c.428.007.855.02 1.282.04.42.02.846-.003 1.267 0 .877.009 1.753.029 2.629.048.984.022 1.972.042 2.954.116l-.524-.07c.214.04.437.071.654.087l-.522-.07c1.082.146 2.157.33 3.221.575.464.107.96.064 1.377-.18.37-.217.724-.642.821-1.068.104-.458.082-.971-.18-1.377s-.61-.662-1.068-.821Z"/><path fill="#0A0A0A" d="M62.602 31.361c.034-.076.075-.149.119-.22l.034-.052c.07-.11.073-.162.148-.34a1.3 1.3 0 0 0 .179-.659c.021-.118.037-.237.047-.357l.022-.2-.095.707c.02-.14.045-.28.075-.418.03-.146.073-.29.097-.438.046-.292.103-.582.159-.873.172-.888.273-1.786.382-2.683.054-.442.103-.885.16-1.326l-.119.89c.033-.241.09-.479.124-.72.052-.36.108-.72.143-1.08a1.873 1.873 0 0 0 .004-.357c-.02-.159-.04-.317-.064-.476a1.744 1.744 0 0 0-.239-.884 1.751 1.751 0 0 0-.45-.774 1.22 1.22 0 0 0-.281-.36l-.028-.024a7.504 7.504 0 0 0-.358-.277 1.288 1.288 0 0 0-.364-.278 2.57 2.57 0 0 0-1.284-.41 2.616 2.616 0 0 0-1.377.062l-.825.348a3.47 3.47 0 0 0-1.239 1.239c-.151.27-.253.567-.362.858a1.027 1.027 0 0 1-.014.034l-.125.932c-.029.643.062.68.16 1.045.025.09.041.183.054.276l-.123-.92c.027.212.036.425.049.637.014.234.046.465.074.698l.197 1.629c.126 1.047.077 2.111.311 3.146a5.542 5.542 0 0 0 .205.702l.132.312c.062.22.174.413.335.576.11.141.132.204.23.286.19.16.391.31.59.457.056.042.115.081.176.116.263.168.548.259.853.273.306.068.61.054.916-.041l.549-.232c.345-.204.62-.479.823-.824ZM60.017 62.64c-.054.031-.11.061-.163.095a2.038 2.038 0 0 0-.728.727l-.082.14-.287.494c-.046.079-.092.157-.136.236a4.624 4.624 0 0 0-.326.809c-.062.19-.122.383-.177.576a10.55 10.55 0 0 0-.273 1.166 11.346 11.346 0 0 0-.181 1.687c-.006.402-.011.805-.063 1.204l.1-.738a3.114 3.114 0 0 1-.175.716l1.982-1.983-.027.008c-.37.088-.691.257-.965.507-.309.2-.552.466-.73.796-.208.326-.32.678-.337 1.055a2.15 2.15 0 0 0 .05 1.131l.286.678a2.85 2.85 0 0 0 1.018 1.018l.678.286a2.857 2.857 0 0 0 1.508 0l.028-.005A2.836 2.836 0 0 0 63 71.261c.036-.177.054-.358.078-.536.023-.174.052-.351.066-.527.01-.116.012-.233.01-.35a6.603 6.603 0 0 0-.06-.71c-.062-.47-.128-.936-.2-1.403-.035-.231-.09-.458-.121-.69l.092.683a9.911 9.911 0 0 1-.068-1.45c.004-.241.018-.483.026-.724.004-.121-.025-.247-.04-.368l-.044-.352-.05-.407c-.011-.094-.025-.187-.037-.28a.947.947 0 0 0-.13-.48 1.072 1.072 0 0 0-.101-.238l-.05-.069a30.965 30.965 0 0 0-.097-.129 1.246 1.246 0 0 0-.425-.463 1.241 1.241 0 0 0-.56-.295l-.44-.059a1.647 1.647 0 0 0-.832.225ZM38.216 90.831c0 3.481.04 6.965-.003 10.446-.01.759.248 1.041.484 1.708.28.791.353 1.753.856 2.467 1.06 1.501 2.893 2.473 4.498 3.216 1.477.683 3.066.845 4.63 1.286.768.217 1.755.272 1.984 1.137.258.974 0 2.061 1.05 2.668.555.32 1.312.425 1.911.668.695.282 1.489.275 2.232.468 1.715.446 3.562.272 5.334.27.807 0 1.463-.011 2.234-.204.67-.166 1.237-.414 1.888-.606.644-.189 1.442-.27 2.043-.596 1.062-.577 1.164-1.317 1.141-2.439-.019-.936-.1-1.403.522-2.094.29-.323.727-.906 1.094-1.124.496-.294.762-.132 1.292-.222.851-.144 1.61-.608 2.479-.76.582-.101 1.026-.146 1.583-.33.566-.187 1.398-.399 1.847-.806.526-.477 1.086-1.315 1.207-1.986.073-.407.037-.655.177-1.066.112-.33.304-.668.357-1.015.093-.611.056-1.483-.067-2.088-.081-.401-.342-.76-.433-1.15-.143-.614-.053-1.288-.054-1.915-.001-1.458-.018-2.918 0-4.377.008-.729-.06-1.64-.806-2.067-.848-.487-2.064.873-2.952 1.125a19.881 19.881 0 0 1-4.9.745 20.94 20.94 0 0 0-2.698.203c-1.235.176-2.478-.021-3.72.121-1.022.118-2.034.175-3.058.27-1.063.099-2.1.45-3.165.493-1.614.067-3.256-.004-4.873-.011-1.134-.006-2.184.295-3.3.276-1.03-.017-1.954.24-2.958.263-1.822.041-3.565.541-5.423.541"/><path fill="#0A0A0A" d="M36.537 90.368a852.385 852.385 0 0 0-.64 3.086l.243-.576c-.224.424-.338.81-.367 1.3-.004.067-.003.135-.009.203-.012.15-.028.3-.042.449a1360.834 1360.834 0 0 1-.248 2.653 316.997 316.997 0 0 1-.359 3.549l.11-.824c-.195 1.011-.183 2.076.199 3.045.197.5.333.999.448 1.523.17.782.418 1.577.84 2.262.4.648.94 1.276 1.515 1.786a15.248 15.248 0 0 0 3.296 2.214c1.292.648 2.614 1.177 4.023 1.498.686.156 1.376.291 2.056.47.478.125.98.208 1.44.391l-.77-.325c.131.056.256.122.372.207l-.652-.504c.073.058.139.121.199.193l-.504-.652c.06.079.107.161.147.251l-.325-.769c.085.216.12.449.151.678l-.115-.855c.148 1.123.186 2.293.852 3.268.221.323.454.668.751.931.253.224.535.438.813.629.086.059.177.111.271.157.584.286 1.175.501 1.795.676.368.103.722.252 1.09.353.415.115.845.159 1.27.225.434.068.855.19 1.288.263.693.118 1.397.21 2.1.247.884.047 1.77.013 2.654-.006.442-.009.884-.006 1.326-.017a14.431 14.431 0 0 0 2.01-.211c.85-.141 1.63-.501 2.454-.735.366-.104.741-.17 1.11-.265.184-.048.367-.101.546-.17.41-.159.838-.316 1.216-.546.765-.465 1.303-1.006 1.801-1.739.229-.336.365-.743.505-1.116.051-.137.084-.28.109-.424.103-.611.17-1.205.156-1.821-.008-.363-.038-.731.01-1.093l-.113.841c.022-.139.058-.273.11-.404l-.319.755a2.19 2.19 0 0 1 .275-.454l-.494.64c.331-.41.676-.857 1.09-1.186l-.638.494c.096-.072.197-.13.307-.179l-.754.318c.106-.042.21-.07.323-.086l-.838.113c.138-.014.276-.011.416-.014a7.827 7.827 0 0 0 1.276-.157c.354-.067.695-.19 1.032-.317.35-.133.7-.272 1.064-.366.355-.092.72-.132 1.08-.199a9.822 9.822 0 0 0 1.895-.571c.37-.151.751-.292 1.105-.48.35-.186.704-.475.986-.719.42-.361.761-.845 1.083-1.282.384-.522.629-1.094.866-1.698.232-.593.244-1.244.321-1.871l-.112.838c.036-.258.113-.497.214-.737l-.318.755c.174-.407.37-.807.51-1.227.125-.381.157-.867.199-1.231.037-.321.049-.643.038-.966a12.946 12.946 0 0 0-.198-1.74c-.098-.582-.4-1.109-.634-1.645l.322.762a2.52 2.52 0 0 1-.17-.599l.113.85c-.06-.47-.024-.938-.007-1.408.019-.489.011-.979.013-1.468.004-1 .007-2 .025-3a10.683 10.683 0 0 0-.148-1.847 4.222 4.222 0 0 0-.643-1.664c-.629-.941-1.454-1.623-2.542-1.972-.377-.12-.8-.18-1.198-.151-.341.025-.708.07-1.042.143a1.73 1.73 0 0 0-.224.067 8.896 8.896 0 0 0-1.711.83c-.307.192-.611.393-.945.535l.786-.331c-.401.161-.85.238-1.273.327-.49.103-.983.187-1.479.255l.884-.119c-.902.12-1.801.161-2.71.177-.446.007-.89.026-1.335.06-.457.035-.911.106-1.369.141-.962.075-1.926-.036-2.889.005-.481.02-.961.081-1.442.117-.482.036-.964.066-1.447.1-.805.055-1.606.145-2.403.28-.528.09-1.052.204-1.582.28.31-.043.62-.084.932-.126-1.143.153-2.324.08-3.473.05-1.148-.032-2.298-.106-3.442.025-.545.062-1.089.141-1.637.158-.565.016-1.117.01-1.68.077-.551.064-1.1.14-1.656.152-.549.011-1.094.054-1.639.118-1.262.147-2.51.355-3.784.36a2.794 2.794 0 0 0-1.43.319 2.78 2.78 0 0 0-1.194.767 2.782 2.782 0 0 0-.767 1.195 2.795 2.795 0 0 0-.32 1.43l.133.986a3.7 3.7 0 0 0 .954 1.637c.724.665 1.62 1.091 2.624 1.087.984-.003 1.977-.165 2.947-.303.668-.095 1.332-.212 2-.302l-.973.131c.56-.073 1.117-.104 1.68-.142.85-.057 1.694-.214 2.54-.329l-.965.13c.561-.074 1.118-.065 1.68-.105.843-.061 1.678-.21 2.515-.325l-.954.128c1.521-.203 3.078-.08 4.61-.1a21.565 21.565 0 0 0 3.125-.252c.742-.117 1.467-.32 2.21-.425l-.924.124c.623-.083 1.253-.126 1.878-.185.628-.059 1.255-.154 1.884-.196.607-.041 1.215-.022 1.822-.027.912-.008 1.801-.148 2.705-.273l-.9.121c.69-.092 1.385-.147 2.08-.173.847-.033 1.678-.11 2.517-.223.83-.112 1.654-.242 2.469-.436.815-.195 1.629-.432 2.356-.863.49-.29.938-.654 1.465-.877l-.78.33c.129-.052.26-.092.398-.113l-.868.117c.085-.01.168-.011.253-.002l-.868-.116c.07.011.135.029.2.055l-.778-.329c.095.044.181.101.265.165l-.66-.51c.084.07.157.145.226.23l-.51-.66c.085.113.153.233.21.362l-.329-.777c.08.198.13.403.16.614l-.116-.863c.077.588.038 1.191.042 1.783.004.743.013 1.486.022 2.23.009.698-.006 1.395-.007 2.093a7.3 7.3 0 0 0 .203 1.763c.139.555.436 1.059.659 1.583l-.322-.76c.096.239.14.485.174.74l-.113-.845a6.66 6.66 0 0 1 .022 1.616l.113-.842c-.05.369-.227.692-.346 1.041-.196.573-.2 1.195-.27 1.793l.112-.837a2.744 2.744 0 0 1-.195.702l.317-.751a4.46 4.46 0 0 1-.532.89l.49-.636a3.65 3.65 0 0 1-.575.61l.636-.491a2.91 2.91 0 0 1-.601.337l.75-.317c-.811.338-1.663.548-2.528.688a7.16 7.16 0 0 0-1.37.38c-.458.171-.915.349-1.4.422l.838-.113c-.145.018-.29.02-.436.021a6.634 6.634 0 0 0-1.146.128c-.796.146-1.437.597-2.04 1.103-.22.185-.411.4-.598.618-.341.398-.676.789-.986 1.216-.576.796-.796 1.828-.81 2.794-.007.538.046 1.075-.025 1.611l.113-.842c-.027.185-.07.363-.138.537l.319-.757c-.06.14-.133.27-.225.391l.496-.641a2.112 2.112 0 0 1-.354.348l.642-.496a2.993 2.993 0 0 1-.628.363l.758-.319c-.673.272-1.406.346-2.095.568-.748.241-1.472.526-2.254.638l.846-.114c-.952.125-1.928.073-2.886.091-.998.019-1.998.029-2.99-.099l.85.114c-.439-.06-.862-.171-1.295-.261-.436-.09-.88-.131-1.315-.221-.398-.082-.764-.245-1.151-.361-.382-.115-.77-.211-1.138-.365l.767.324a2.47 2.47 0 0 1-.488-.279l.65.503a1.832 1.832 0 0 1-.274-.272l.502.65a1.774 1.774 0 0 1-.206-.352l.324.768a3.034 3.034 0 0 1-.184-.744l.115.856c-.03-.229-.052-.46-.082-.689-.048-.37-.088-.772-.163-1.148-.053-.26-.149-.467-.255-.718-.097-.23-.166-.439-.308-.636-.206-.287-.412-.599-.684-.832-.65-.558-1.096-.788-1.903-1.088-.444-.165-.924-.251-1.382-.372-.643-.172-1.295-.304-1.943-.454-.73-.169-1.454-.363-2.148-.651l.774.327c-1.158-.493-2.304-1.101-3.306-1.866l.657.508a7.365 7.365 0 0 1-1.313-1.283l.51.658c-.233-.304-.46-.611-.699-.911l.508.658a3.314 3.314 0 0 1-.31-.573l.325.771c-.185-.45-.295-.924-.436-1.39-.204-.671-.523-1.298-.8-1.94l.316.752a2.587 2.587 0 0 1-.17-.59l.112.832a3.181 3.181 0 0 1-.026-.307 8.247 8.247 0 0 0-.126-1.106l.11.824c-.1-1.184-.21-2.367-.324-3.55l-.172-1.754-.09-.898-.04-.408c-.009-.083-.01-.163-.015-.245a2.974 2.974 0 0 0-.368-1.3c.08.193.162.385.243.577-.22-1.028-.44-2.056-.656-3.085l-.175-.416a1.316 1.316 0 0 0-.449-.489c-.293-.227-.673-.39-1.054-.374a2.066 2.066 0 0 0-.88.238c-.353.187-.716.646-.8 1.04Z"/><path fill="#FF8131" d="M38.148 101.096c.743.034 1.488.073 2.232.056.745-.017 1.481-.117 2.22-.204a33.275 33.275 0 0 1 2.23-.195c.756-.039 1.513-.058 2.27-.109 1.503-.101 3.004-.214 4.505-.352a51.02 51.02 0 0 1 4.541-.233c1.766-.005 3.509-.179 5.257-.414l-.32.043c.742-.1 1.486-.188 2.229-.29.656-.09 1.297-.255 1.952-.347l-.312.042c.633-.085 1.275-.11 1.904-.218.56-.096 1.092-.332 1.635-.49a16.72 16.72 0 0 1 1.776-.409c.034-.006.212-.024.062-.011.137-.012.274-.02.41-.03.29-.018.58-.03.869-.04.335-.012.657-.287.641-.642a.654.654 0 0 0-.641-.641c-.656-.022-1.31-.025-1.965-.05a16.08 16.08 0 0 0-1.964.042c-.662.055-1.324.08-1.988.106-.77.03-1.52.137-2.282.24l.322-.043c-.646.086-1.29.188-1.935.275l.321-.043c-.689.092-1.377.192-2.065.285l.319-.043a34.612 34.612 0 0 1-4.29.31 48.465 48.465 0 0 0-4.378.26 172.62 172.62 0 0 1-4.373.38 38.905 38.905 0 0 0-4.547.594c-.392.076-.783.158-1.174.237-.201.04-.402.081-.604.117a11.293 11.293 0 0 1-.327.053c.147-.023-.041.005-.072.009-.816.098-1.638.122-2.458.152-.419.015-.822.358-.802.802.02.45.353.781.802.801Zm36.299-3.84a.21.21 0 0 0 .206-.206.209.209 0 0 0-.206-.206.21.21 0 0 0-.207.206.21.21 0 0 0 .207.206Z"/><path fill="#FF8131" d="M74.447 97.508c1.15-.153 2.3-.315 3.447-.487l-.14.018c.144-.008.29-.001.433.018l-.159-.022c.3.043.593.12.896.146.292.026.58-.049.868-.088l-.222.03c.223-.028.445.004.669.018.28.018.563-.012.835-.08.258-.064.462-.245.602-.463.091-.157.137-.326.138-.508a.757.757 0 0 0-.087-.388.755.755 0 0 0-.208-.324.755.755 0 0 0-.324-.208.759.759 0 0 0-.388-.087.99.99 0 0 0-.509.138 2.092 2.092 0 0 1-.13.061l.237-.1c-.222.092-.456.106-.686.165a2.767 2.767 0 0 0-.582.223c-.128.066-.251.142-.383.2l.181-.077c-.267.11-.557.124-.839.175-.152.027-.293.076-.44.124-.142.047-.301.063-.449.09a207.906 207.906 0 0 1-2.882.526.456.456 0 0 0-.274.21.472.472 0 0 0-.054.293.435.435 0 0 0 .126.263c.082.076.207.15.324.134Zm-32.446 11.991c.838-.007 1.675-.059 2.513-.053.842.007 1.68.078 2.522.111.416.016.832.023 1.248.026.407.004.815-.039 1.22-.071a53.4 53.4 0 0 1 2.53-.134c3.35-.102 6.71.101 10.055-.134.882-.063 1.757-.223 2.64-.27.436-.024.875-.003 1.312-.028.525-.029 1.04-.115 1.56-.187l-.315.043c.422-.048.843-.007 1.265.01.512.02 1.004-.068 1.509-.139l-.326.043c.682-.09 1.362-.053 2.047-.075a15.307 15.307 0 0 0 2.423-.289c.35-.068.684-.179 1.027-.274.337-.093.676-.174 1.014-.262.34-.089.68-.184 1.01-.304.338-.122.663-.277 1-.4.316-.116.636-.171.964-.24a2.54 2.54 0 0 0 1.18-.625c.373-.34.371-1.02 0-1.36a.983.983 0 0 0-1.36 0c-.08.07-.064.06.049-.03a.992.992 0 0 1-.097.063c-.146.104.219-.065.007-.01-.103.026-.25-.001.034.005-.068-.002-.14.011-.208.015a6.792 6.792 0 0 0-1.064.128c-.314.067-.62.164-.932.242a9.695 9.695 0 0 1-1.043.189l.315-.042c-.688.091-1.377.16-2.06.282-.61.109-1.203.271-1.818.354l.34-.046c-.591.076-1.178.087-1.771.114-.655.03-1.287.161-1.932.257l.324-.043c-.456.056-.913.016-1.371.025-.539.009-1.057.142-1.588.216l.312-.042c-.507.065-1.015.062-1.526.069-.597.01-1.19.108-1.78.188l.309-.042c-1.96.262-3.947.27-5.92.275-1.998.006-3.998.032-5.993.154-.547.033-1.092.074-1.637.124-.634.058-1.28.097-1.91.195l.278-.038c-1.057.136-2.118.188-3.178.291-1.06.104-2.115.259-3.178.344-.357.029-.705.296-.687.687.016.37.302.691.687.688Z"/><path fill="#0A0A0A" d="M81.95 25.48a.85.85 0 0 0 .583-.242.838.838 0 0 0 .242-.583c-.01-.213-.08-.434-.242-.583a.857.857 0 0 0-.583-.241.85.85 0 0 0-.583.241.838.838 0 0 0-.242.583c.01.213.08.435.242.583.161.149.36.242.583.242Zm8.517-2.58c.237-.021.473-.04.709-.072a1.07 1.07 0 0 0 .536-.171l.032-.014.047-.022.102-.046.212-.096a1.243 1.243 0 0 0 .613-1.068 1.232 1.232 0 0 0-.613-1.068l-.204-.093-.11-.05-.047-.021-.032-.014a1.074 1.074 0 0 0-.537-.172c-.235-.031-.471-.05-.708-.071a1.122 1.122 0 0 0-.574.128 1.13 1.13 0 0 0-.48.308 1.116 1.116 0 0 0-.307.48 1.121 1.121 0 0 0-.128.573l.053.396c.07.252.198.47.383.657l.301.233c.233.134.483.202.752.203Zm-2.637 6.891a.965.965 0 0 0 .495-.11.96.96 0 0 0 .413-.266.96.96 0 0 0 .265-.413.965.965 0 0 0 .11-.494l-.045-.34a1.282 1.282 0 0 0-.33-.567l-.26-.2a1.277 1.277 0 0 0-.647-.176.965.965 0 0 0-.495.11.961.961 0 0 0-.412.266.962.962 0 0 0-.266.413.966.966 0 0 0-.11.494l.046.341c.06.218.17.406.33.566l.26.2c.2.117.415.175.647.176Zm7.707 2.208a1.3 1.3 0 0 0 .89-.37.945.945 0 0 0 .26-.405.95.95 0 0 0 .11-.485c-.015-.326-.122-.664-.37-.891a1.31 1.31 0 0 0-.89-.369 1.3 1.3 0 0 0-.891.369.944.944 0 0 0-.26.405.95.95 0 0 0-.11.486c.015.326.122.664.37.89.246.227.55.37.89.37ZM26.995 66.96a.756.756 0 0 0 .518-.215.745.745 0 0 0 .215-.519c-.018-.397-.322-.733-.733-.733a.756.756 0 0 0-.519.215.745.745 0 0 0-.214.518c.017.397.322.733.733.733Zm4.258-5.692a1 1 0 0 0 .512-.114.997.997 0 0 0 .428-.275.997.997 0 0 0 .275-.427 1 1 0 0 0 .114-.512c-.016-.344-.128-.7-.39-.94-.26-.238-.579-.389-.939-.389a1 1 0 0 0-.512.115.996.996 0 0 0-.427.274.995.995 0 0 0-.275.428 1 1 0 0 0-.114.512c.015.343.128.7.389.94.26.238.58.388.94.388Zm.811 7.539a.78.78 0 0 0 .535-.221.768.768 0 0 0 .221-.535c-.008-.195-.073-.398-.221-.534a.786.786 0 0 0-.535-.222.78.78 0 0 0-.534.222.768.768 0 0 0-.222.534c.01.196.073.399.222.535.148.136.33.221.534.221Zm4.867-3.686a1 1 0 0 0 .512-.114.996.996 0 0 0 .428-.275.996.996 0 0 0 .274-.427 1 1 0 0 0 .115-.512c-.015-.344-.128-.7-.39-.94-.26-.238-.579-.389-.939-.389a1 1 0 0 0-.512.115.997.997 0 0 0-.427.274.996.996 0 0 0-.275.428 1 1 0 0 0-.114.512c.015.343.128.7.389.94.26.238.58.388.94.388Zm-10.034-3.964-.023-.203a.672.672 0 0 0-.077-.344.67.67 0 0 0-.184-.288.67.67 0 0 0-.288-.184.672.672 0 0 0-.344-.077l-.238.032a.892.892 0 0 0-.394.23l-.14.18a.89.89 0 0 0-.122.451l-.023.203a.691.691 0 0 0 .08.353c.036.113.1.212.189.295a.7.7 0 0 0 .295.19.7.7 0 0 0 .353.078l.243-.033a.916.916 0 0 0 .405-.235l.143-.186a.911.911 0 0 0 .125-.462Zm4.356-5.405c.4.015.775-.069 1.121-.25a2.18 2.18 0 0 0 .936-.602 2.18 2.18 0 0 0 .602-.936c.182-.347.266-.72.25-1.121l-.103-.774a2.906 2.906 0 0 0-.749-1.284l-.588-.454a2.895 2.895 0 0 0-1.469-.398 2.2 2.2 0 0 0-1.12.25 2.198 2.198 0 0 0-.937.602 2.18 2.18 0 0 0-.601.937 2.19 2.19 0 0 0-.251 1.12l.104.774c.138.493.388.92.748 1.284l.589.455a2.9 2.9 0 0 0 1.468.397Z"/><path fill="#FF8131" d="M96.077 81.867c.364.02.73-.04 1.088-.095a7.59 7.59 0 0 0 .686-.143c.463-.115.922-.252 1.395-.317l-.464.063c.261-.034.524-.058.785-.092.416-.055.831-.11 1.246-.174.541-.083 1.08-.175 1.621-.26.305-.048.61-.094.916-.135l-.527.071c.723-.096 1.447-.187 2.17-.285.273-.036.546-.075.818-.116.258-.04.513-.1.771-.135l-.577.078c.257-.034.514-.056.765-.121.07-.018.14-.032.212-.043l-.566.076a1.7 1.7 0 0 1 .265-.014l.055.002c.287.01.554-.05.803-.18a.574.574 0 0 0 .257-.111c.143-.109.285-.219.426-.33l.323-.417.012-.02-2.237.91.058.009.033.004.013.002c.234.074.468.084.703.032.159 0 .308-.04.445-.12a.991.991 0 0 0 .235-.103l.039-.023a1.989 1.989 0 0 0 .982-1.71c-.02-.382-.076-.733-.283-1.063l-.009-.017-.326-.422c-.261-.284-.578-.418-.933-.541-.084-.03-.17-.05-.258-.064-.58-.092-1.009-.151-1.592-.004-.336.086-.665.202-1 .292-.727.193-1.459.366-2.188.553-.725.186-1.442.4-2.163.6-.365.102-.73.201-1.098.292-.334.082-.671.147-.998.254-.708.233-1.388.594-2.134.694l.423-.056a2.954 2.954 0 0 1-.192.017 1.19 1.19 0 0 0-.609.136 1.184 1.184 0 0 0-.508.327 1.185 1.185 0 0 0-.327.509 1.191 1.191 0 0 0-.136.609l.056.42c.075.268.21.5.407.698l.32.247c.246.143.512.215.797.216Zm-5.572 7.883a1.696 1.696 0 0 0-.01.127c0 .047.062.481.072.524.04.171.117.334.206.484.095.162.235.31.356.46.078.097.16.188.247.275.303.305.655.56.995.82.197.15.44.25.66.36.269.134.534.272.798.414.532.286 1.058.585 1.587.876.411.226.822.456 1.25.65.566.258 1.149.469 1.722.71l-.65-.275c.493.21.99.44 1.418.77l-.566-.437c.108.084.21.174.302.275.206.226.385.388.69.565.047.028.093.057.138.09l-.554-.428c.202.158.374.366.61.47l-.547-.422.01.008.545.422.645.272.717.096a2.03 2.03 0 0 0 1.039-.232c.229-.064.427-.18.596-.347a1.36 1.36 0 0 0 .484-.484c.167-.168.282-.367.346-.595.169-.322.247-.668.233-1.04l-.001-.011-.096.718c.156-.697.102-.796-.003-1.491l-.01-.066a1.364 1.364 0 0 0-.035-.14c-.167-.556-.48-1.085-.935-1.451-.383-.308-.747-.603-1.185-.818a14.023 14.023 0 0 0-2.154-.828c-.493-.147-.99-.274-1.48-.433-.8-.262-1.59-.552-2.39-.813-.41-.134-.826-.25-1.236-.384-.194-.063-.393-.097-.59-.148-.19-.05-.377-.11-.559-.185l.479.202a4.185 4.185 0 0 1-.216-.1l-.466-.197-.518-.07a4.085 4.085 0 0 0-.54.07l-.068.01.485-.064a1.823 1.823 0 0 1-.034.004 1.345 1.345 0 0 0-.689.154 1.339 1.339 0 0 0-.575.37l-.279.36c-.161.28-.243.58-.244.903Zm-2.559 13.809c.692.667 1.41 1.308 2.088 1.99.191.192.411.348.633.503l.034.024.024.015.388.164c.038.01.407.06.442.057l.042-.006.154-.018a1.04 1.04 0 0 0 .538-.12 1.04 1.04 0 0 0 .45-.289l.219-.283a1.39 1.39 0 0 0 .19-.705l.014-.122.006-.061c.008-.087-.003-.06-.027-.236a.806.806 0 0 0-.11-.41.555.555 0 0 0-.09-.206c-.032-.046-.067-.089-.101-.134l-.06-.077c-.1-.13-.19-.277-.314-.386-.18-.157-.362-.311-.546-.463-.37-.308-.747-.608-1.121-.91a60.011 60.011 0 0 1-.65-.53 1.168 1.168 0 0 0-.502-.322 1.17 1.17 0 0 0-.6-.134 1.17 1.17 0 0 0-.6.134c-.193.063-.36.17-.501.322l-.244.315a1.55 1.55 0 0 0-.212.787l.055.414c.074.264.208.493.4.687ZM25.273 79.71l-.08-.098c-.213-.256-.547-.417-.861-.501l-.332-.09-.152-.04c-.219-.06-.375-.072-.642-.104l-.356-.042a185.08 185.08 0 0 0-1.391-.16 64.68 64.68 0 0 0-1.39-.138 17.374 17.374 0 0 0-1.388-.063 31.65 31.65 0 0 0-2.772.112c-.226.018-.452.037-.677.058-.181.017-.363.044-.545.05-.266.01-.533-.004-.8.009-.078.004-.157.01-.236.02-.27.032-.546.064-.815.11a1.25 1.25 0 0 0-.103.021 3.2 3.2 0 0 0-1.934 1.452 3.21 3.21 0 0 0-.42 1.56c0 .268.038.539.108.796.028.104.213.508.145.347.02.046.09.249.153.354.129.22.297.418.466.607l.03.032c.085.081.179.154.28.218a2 2 0 0 0 .903.476c.459.126.958.126 1.417 0a2.672 2.672 0 0 0 1.584-1.221l.268-.635a2.676 2.676 0 0 0 0-1.413l-.01-.06.096.71a.438.438 0 0 1-.001-.1l-.097.719a.292.292 0 0 1 .014-.056l-.274.651a.294.294 0 0 1 .03-.053l-.43.555a.452.452 0 0 1 .074-.072l-.561.434c.108-.083.215-.164.325-.25.1-.076.2-.153.298-.23.155-.19.305-.385.45-.583l-.437.565a.54.54 0 0 1 .09-.097l-.563.436a.632.632 0 0 1 .12-.067l-.662.28c.255-.107.542-.138.814-.175l-.723.097c.392-.052.79-.084 1.177-.164.28-.057.556-.132.835-.194a36.641 36.641 0 0 1 1.794-.367c.342-.06.685-.111 1.029-.158l-.646.087c.285-.038.57-.072.856-.103.48-.053.957-.128 1.435-.192l-.608.082a72.572 72.572 0 0 1 1.596-.194c.262-.03.524-.058.785-.086l.4-.042.193-.02c.23-.026.464-.045.688-.104l.415-.108.097-.026.055-.014.421-.178.358-.276c.037-.042.072-.086.107-.13.155-.142.264-.312.327-.508a1.19 1.19 0 0 0 .136-.609l-.056-.42a1.58 1.58 0 0 0-.407-.698Zm2.284 10.35c-.975.456-1.93.956-2.857 1.504-.928.55-1.83 1.146-2.69 1.799-.384.291-.767.585-1.14.89-.241.198-.472.408-.719.6l.48-.371c-.4.306-.846.54-1.264.82-.327.219-.657.443-.916.741-.102.118-.188.249-.304.353l.523-.404c-.57.42-.532.367-.945.943-.01.014-.019.028-.03.041l.404-.522a.536.536 0 0 1-.08.081l.52-.401a.452.452 0 0 1-.087.052l.61-.257-.058.021c-.331.079-.62.23-.865.455a1.92 1.92 0 0 0-.655.714l-.256.607a1.927 1.927 0 0 0-.046 1.014c.001.23.06.443.174.642.103.315.278.588.526.818l.514.398c.397.23.825.345 1.284.347.499.03 1.044-.16 1.475-.392.413-.221.849-.632 1.066-1.05.173-.334.284-.69.427-1.034l-.253.598a.677.677 0 0 1 .088-.147l-.39.504c.127-.158.303-.288.459-.416.166-.137.336-.27.503-.407a6.08 6.08 0 0 0 .503-.46c.163-.168.315-.346.474-.516a25.783 25.783 0 0 1 2.037-1.95c.402-.346.814-.68 1.233-1.005l-.41.317a34.05 34.05 0 0 1 2.515-1.762c.213-.116.385-.273.514-.472a1.38 1.38 0 0 0 .328-.624c.076-.243.087-.487.033-.73a1.365 1.365 0 0 0-.218-.682l-.286-.37a1.831 1.831 0 0 0-.809-.472l-.487-.065c-.33 0-.64.084-.925.25Zm1.466 21.214c.264-.01.53-.048.789-.101a1.85 1.85 0 0 0 .284-.083c.332-.127.663-.26.953-.468.207-.148.41-.304.604-.468.077-.065.158-.131.228-.204.034-.036.063-.078.094-.117l.383-.496.191-.25-.295.381c.118-.152.252-.297.355-.459.137-.215.211-.448.223-.698a1.424 1.424 0 0 0-.034-.749l-.006-.031a3.22 3.22 0 0 1-.019-.122l.059.437a3.087 3.087 0 0 1-.024-.251l-.049-.36a1.012 1.012 0 0 0-.242-.459.676.676 0 0 0-.242-.243c-.13-.119-.284-.2-.46-.242a6.093 6.093 0 0 0-.815-.106.641.641 0 0 0-.262.032 1.4 1.4 0 0 0-.699.223 2.3 2.3 0 0 0-.479.391l-.202.203c-.067.067-.142.131-.203.203-.064.076-.124.155-.19.229a3.02 3.02 0 0 1-.416.401l.375-.29c-.134.103-.278.19-.434.257l.434-.183a1.906 1.906 0 0 1-.376.113 1.352 1.352 0 0 0-.608.32 1.351 1.351 0 0 0-.46.501l-.18.427a1.355 1.355 0 0 0-.032.713c0 .161.04.311.122.451.072.221.195.413.37.575l.36.279c.28.162.58.243.903.244Z"/></svg>