<svg xmlns="http://www.w3.org/2000/svg" width="160" height="180" fill="none"><path fill="#FFB400" d="M31.949 56.736c-.006-5.19-.455-10.294-.455-15.493 0-2.566.015-5.133 0-7.699-.005-.866-.01-1.472.33-2.263.267-.62.533-1.022.601-1.728.043-.436-.163-1.043-.054-1.465.235-.91 1.172-2.079 1.83-2.75 1.064-1.088 2.564-1.472 4.002-1.696 2.51-.393 4.925-.556 7.49-.556 1.637 0 3.274-.016 4.91-.002 1.286.012 2.378-.404 3.63-.464 2.366-.113 4.59.415 6.918.454 2.519.04 6.042.952 6.93 3.629 1.054 3.169.701 6.846.701 10.15 0 4.217-.48 8.313-.456 12.53.01 1.759-.407 3.355-.47 5.084-.054 1.464.213 2.995-.084 4.44-.498 2.413-.239 4.803-.344 7.277-.088 2.104-.518 5.428-2.615 6.512-.836.432-1.94.68-2.852.89-.282.065-.603-.1-.887-.05-.942.167-1.686.468-2.66.49-1.854.043-3.718-.01-5.573-.01-.788 0-2.434.352-3.076-.07-1.022-.674-.389-2.725-.614-3.68-.134-.566-.617-1.052-.754-1.617-.195-.805.029-1.58-.179-2.387-.234-.911-.456-1.947-.9-2.806-.593-1.147-1.614-2.292-2.637-3.104-1.035-.823-2.044-.746-3.206-1.218-1.839-.747-3.502-1.91-4.07.75-.529 2.484-.446 4.954-.456 7.534.018-1.214-2.315-10.531-4.545-9.773"/><path fill="#FFB400" d="M32.594 56.735c.03-2.648-.051-5.297-.077-7.945-.026-2.654-.037-5.306.054-7.959l.143-4.003c.045-1.297.053-2.596.112-3.892.005-.12.012-.24.024-.359.013-.138.088-.209-.015.087.015-.043.018-.108.026-.152a3.618 3.618 0 0 1 .149-.541c.112-.314.016.005-.005 0 .026.006.316-.657.344-.721.142-.319.288-.642.365-.984.074-.327.129-.672.11-1.008-.016-.282-.074-.561-.074-.845 0-.191.08-.11-.03.118.016-.034.023-.095.033-.13.016-.053.04-.105.054-.159.045-.172-.166.348-.047.111a6.693 6.693 0 0 1 .632-1.039c.04-.055.085-.107.122-.164l-.125.163a11.936 11.936 0 0 1 .648-.76 5.678 5.678 0 0 1 .426-.419c.093-.081.3-.169-.04.022.255-.144.483-.33.748-.465a5.953 5.953 0 0 1 .29-.136l-.2.083c.14-.07.303-.117.452-.167.28-.093.565-.17.853-.235.63-.143 1.272-.232 1.912-.319l-.387.052c1.89-.25 3.791-.38 5.697-.406 1.97-.027 3.941.016 5.912.004 1.11-.007 2.19-.303 3.284-.45l-.396.052c1.607-.202 3.244.022 4.843.2.806.09 1.614.173 2.426.202.55.02 1.095.04 1.642.111l-.402-.054c.553.075 1.101.186 1.638.34.276.08.549.172.816.277.062.024.297.122.033.011-.263-.11-.03-.01.03.017.138.063.274.131.408.203a6.2 6.2 0 0 1 .68.424c.017.012.093.077.103.076.005-.001-.275-.222-.183-.14.047.042.098.08.145.121.103.089.202.181.296.278.087.09.167.184.248.279.154.178-.228-.321-.067-.085.041.06.083.12.122.18.067.106.13.216.186.327.012.024.06.166.081.172.003 0-.13-.333-.09-.215.013.04.03.08.045.12.295.82.464 1.69.584 2.551l-.055-.404c.187 1.404.213 2.821.197 4.235-.016 1.424-.042 2.849-.062 4.273-.045 3.096-.321 6.183-.423 9.277-.028.879-.027 1.757-.038 2.635-.01.837-.116 1.669-.227 2.497l.054-.408c-.157 1.17-.326 2.335-.305 3.518.02 1.082.126 2.166-.004 3.245l.055-.41c-.132.981-.335 1.944-.401 2.935-.06.88-.059 1.763-.055 2.645.006 1.43.016 2.864-.172 4.285l.055-.411c-.124.906-.32 1.806-.672 2.653l.156-.37a6.303 6.303 0 0 1-.343.695 4.66 4.66 0 0 1-.203.32c-.035.05-.073.1-.109.15.294-.425.154-.197.068-.097a3.67 3.67 0 0 1-.253.264l-.136.121c-.218.197.259-.179.122-.092-.249.157-.49.297-.762.415l.37-.156a11.51 11.51 0 0 1-2.555.732l.41-.055a1.492 1.492 0 0 1-.242-.01l.41.054c-.322-.051-.652-.135-.978-.105a7.733 7.733 0 0 0-1.085.2c-.473.114-.941.238-1.423.305l.408-.055c-.817.102-1.661.065-2.484.064-.845-.001-1.69-.012-2.535-.017-.65-.005-1.29-.008-1.936.055-.564.056-1.139.123-1.704.053l.405.055a1.782 1.782 0 0 1-.424-.11l.364.153c-.018-.008-.176-.08-.171-.099-.002.006.362.294.15.097-.154-.143.208.329.111.141-.032-.064-.069-.124-.098-.19l.153.364a2.37 2.37 0 0 1-.143-.55l.054.403c-.093-.72.028-1.44.002-2.16a3.786 3.786 0 0 0-.432-1.652c-.113-.222-.25-.429-.368-.648-.026-.048-.05-.097-.075-.145-.1-.193.04.124.058.139-.072-.057-.086-.353-.1-.44l.055.402c-.061-.507-.008-1.015-.04-1.522-.04-.6-.188-1.167-.337-1.745-.263-1.022-.602-2.034-1.168-2.932a11.783 11.783 0 0 0-2.059-2.44c-.42-.378-.865-.762-1.367-1.028a6.708 6.708 0 0 0-1.436-.548c-.417-.109-.84-.197-1.248-.334a6.165 6.165 0 0 1-.328-.12c-.117-.048-.412-.182.068.03-.15-.067-.303-.132-.454-.198-.632-.278-1.279-.6-1.966-.715-.916-.153-1.887-.03-2.548.698-.352.388-.575.817-.74 1.312a3.359 3.359 0 0 0-.1.378l-.05.372.023-.215c.02.026-.068.322-.075.357-.027.145-.053.29-.076.436-.394 2.412-.33 4.837-.313 7.271.005.684.598 1.34 1.307 1.308.707-.032 1.31-.575 1.308-1.308-.002-.613-.167-1.255-.304-1.85a31.992 31.992 0 0 0-.722-2.622c-.613-1.903-1.248-3.92-2.523-5.497-.621-.768-1.631-1.357-2.642-1.03-.632.206-1.106.89-.888 1.565.204.63.886 1.107 1.564.887.076-.025.29-.055-.003-.015-.303.041-.061.03.01.02.05-.006-.376-.08-.242-.03.025.01.057.017.083.023.019.004.054.028.072.025-.047.008-.365-.18-.185-.072l.143.086c.168.1-.192-.159-.15-.12.025.026.055.047.082.07a3 3 0 0 1 .315.33c.024.027.046.057.07.085.034.038-.224-.304-.095-.121.054.076.108.151.16.23.103.155.2.315.291.477a13.11 13.11 0 0 1 .64 1.31c.081.19-.026-.027-.047-.11.03.114.095.23.14.341a30.895 30.895 0 0 1 .724 2.063 30.413 30.413 0 0 1 .866 3.613c.011.07.019.142.032.212-.004-.022-.053-.438-.03-.221l.008.08c.01.09.018.18.016.271h2.615c.025-1.834.001-3.675.202-5.501.01-.097.023-.194.034-.29a3.862 3.862 0 0 0 .017-.12c.033-.225.07-.45.113-.675.04-.218.117-.442.138-.661.032-.111.024-.107-.025.012-.094.203-.061.122.098-.242.137-.355-.111.21-.01.005.064-.127.131-.249.208-.369.119-.184-.262.277-.097.13.01-.01.134-.137.138-.133.021.029-.388.243-.154.128l.132-.068c.109-.058-.446.14-.181.082.054-.012.108-.026.163-.035l-.397.053c.148-.019.294-.015.442.003l-.397-.053c.27.038.532.117.788.212.144.053.657.278.122.042.147.065.295.128.442.194.426.188.851.384 1.29.54.41.144.834.237 1.253.345.19.049.377.101.562.165.05.017.099.037.148.054.176.06-.305-.141-.136-.06.112.055.223.107.331.17.094.054.195.153.295.19.007.003-.242-.195-.122-.095l.136.111c.197.164.388.335.572.513.36.346.657.744 1.002 1.1-.02-.02-.214-.287-.065-.084l.082.112c.071.098.14.198.208.3.14.21.27.425.388.647.055.103.104.21.156.315.11.227-.036-.096-.047-.114.042.071.069.175.097.252.088.242.164.488.235.735.15.531.314 1.08.401 1.625l-.053-.401c.11.858-.057 1.729.193 2.576.121.414.336.794.55 1.165.042.072.084.144.123.217.029.054.131.285.03.039-.106-.255.002.024.017.082.015.057.026.115.035.173l-.054-.403c.106.796-.078 1.604.009 2.405.08.745.27 1.402.768 1.983.431.503 1.036.745 1.675.83.938.127 1.844-.073 2.78-.076 1.368-.004 2.736.034 4.104.033.832 0 1.652 0 2.476-.123.68-.102 1.336-.309 2.011-.432l-.41.055c.084-.009.156-.009.24-.002l-.41-.055c.273.038.545.106.82.12.242.011.49-.035.727-.084.332-.07.664-.152.993-.238a10.735 10.735 0 0 0 2.078-.75c1.031-.51 1.843-1.472 2.325-2.504.986-2.11 1.15-4.477 1.156-6.775.004-1.669-.059-3.342.161-5.001l-.055.41c.144-1.027.356-2.022.346-3.065-.009-.921-.097-1.841-.057-2.763.039-.895.174-1.782.288-2.67.119-.926.172-1.84.173-2.775.007-3.824.408-7.635.445-11.459.017-1.757.077-3.517.053-5.274-.025-1.829-.166-3.7-.679-5.464a6.437 6.437 0 0 0-1.146-2.258c-.434-.552-1-1.005-1.591-1.378-1.139-.72-2.49-1.145-3.817-1.341a17.01 17.01 0 0 0-2.12-.185c-.925-.021-1.846-.118-2.765-.217-.92-.098-1.842-.199-2.767-.228a13.952 13.952 0 0 0-2.993.242c-.415.076-.828.16-1.245.219l.395-.053c-.864.115-1.74.068-2.61.07-.886.003-1.773.01-2.66.013-1.74.008-3.477.047-5.212.206-.949.087-1.894.206-2.837.345-.733.108-1.467.229-2.177.448-.751.232-1.504.553-2.14 1.022-.713.527-1.29 1.161-1.82 1.87-.463.62-.865 1.281-1.11 2.02-.16.48-.14.949-.074 1.44-.001-.008.073.544.034.244-.033-.245.002.033.006.09.006.087.004.171.002.257 0 .044-.022.21.004-.009.027-.221 0-.026-.01.023a3.782 3.782 0 0 1-.145.48c-.081.227.124-.275.024-.052l-.113.248c-.189.41-.376.84-.476 1.283-.189.837-.145 1.682-.122 2.532.095 3.579.188 7.167.42 10.74.229 3.54.566 7.069.664 10.617.012.44.021.88.028 1.321.012.83 1.28.832 1.29 0Zm75.75 14.551c-6.932-1.103-13.912-1.364-20.96-1.364-3.038 0-6.789-.548-9.596.572-2.048.818-3.526 1.694-3.57 4.211-.017.954.076 1.85-.08 2.801-.303 1.836-.158 3.657-.455 5.477-.405 2.485-.201 4.966-.707 7.423-.37 1.794-.101 3.835-.101 5.668 0 1.085.16 2.31.023 3.382-.246 1.936-.812 3.695-.44 5.726.329 1.783.417 3.373.417 5.222 0 1.515-.186 3.137-.024 4.638.172 1.583.609 4.174 1.911 5.275 1.285 1.085 4.165 1.499 5.808 1.797 4.017.727 8.44-.032 12.313-.706 1.602-.279 3.362-.104 5.002-.101 1.72.003 3.31-.398 5-.453 1.742-.057 3.494-.002 5.236-.002h2.962c.58 0 1.994.197 2.502-.079-.925-.639-2.07-.88-3.067-1.376-1.119-.555-1.757-1.421-2.721-2.183-1.886-1.49-4.174-1.771-6.035-3.174-1.215-.916-2.052-1.75-3.08-2.853-1.14-1.224-1.826-2.708-2.97-3.911-.966-1.017-1.756-2.157-2.717-3.171-.89-.938-2.051-1.437-2.851-2.453-.323-.409-.533-.895-.888-1.286-.505-.556-1.277-.797-1.761-1.317-.812-.873-.716-2.12-.1-3.106 1.335-2.136 3.95-2.854 6.145-3.756 1.913-.787 4.582-1.603 6.674-1.307 1.045.149 1.976.489 2.939.864.714.278 2.626 1.313 3.327 1.04.354-2.197.045-4.68.045-6.912V77.21c0-2.069.142-3.223-.91-5.013"/><path fill="#FFB400" d="M108.528 70.618a105.128 105.128 0 0 0-9.451-1.42c-.085-.01-.17-.02-.254-.028l-.102-.01c.186.021.118.012-.204-.03-.372-.032-.746-.059-1.118-.088a143.47 143.47 0 0 0-2.242-.16 178.344 178.344 0 0 0-4.392-.221c-1.427-.055-2.862-.05-4.288-.142-1.25-.08-2.504-.163-3.756-.193-1.37-.034-2.751.028-4.097.308-1.098.228-2.201.68-3.17 1.244-1.16.673-2.022 1.633-2.484 2.895-.533 1.455-.183 3.03-.368 4.53l.056-.416a32.41 32.41 0 0 0-.305 3.01c-.042.895-.072 1.792-.186 2.682l.056-.419c-.168 1.246-.327 2.475-.395 3.73-.062 1.137-.108 2.275-.254 3.404l.056-.422c-.132.976-.358 1.932-.414 2.919-.05.879-.011 1.76.025 2.638.035.842.033 1.686.072 2.528.04.865.099 1.732-.013 2.595l.056-.422c-.17 1.255-.45 2.492-.563 3.754a8.946 8.946 0 0 0-.003 1.706c.074.731.227 1.451.326 2.179l-.057-.422a30.36 30.36 0 0 1 .232 3.802c.007 1.308-.117 2.613-.083 3.921a17.99 17.99 0 0 0 .4 3.219c.214 1.012.537 2.043 1.066 2.937a5.064 5.064 0 0 0 2.304 2.064c.983.44 2 .735 3.052.955 2.292.478 4.602.803 6.949.728 1.538-.049 3.067-.227 4.59-.44 1.373-.192 2.732-.476 4.105-.663l-.419.056c1.411-.178 2.833-.07 4.25-.049 1.416.021 2.797-.215 4.201-.364 1.463-.156 2.944-.119 4.413-.104 1.485.014 2.969.017 4.453.013 1.255-.004 2.634.286 3.801-.301.482-.243.773-.825.773-1.348 0-.576-.308-1.035-.773-1.347-.926-.621-2.023-.914-3.042-1.341l.371.156a6.097 6.097 0 0 1-.716-.353 5.036 5.036 0 0 1-.327-.209l-.138-.099c-.131-.091.31.25.049.036-.4-.326-.766-.692-1.149-1.037a11.065 11.065 0 0 0-2.891-1.886c-.577-.26-1.164-.495-1.748-.737a11.608 11.608 0 0 1-.197-.082c.017.007.359.153.13.054a14.067 14.067 0 0 1-1.083-.51 9.141 9.141 0 0 1-.96-.587l-.142-.104-.15-.114.161.125c-.414-.341-.831-.675-1.225-1.039a25.15 25.15 0 0 1-1.125-1.114c-.18-.188-.36-.376-.534-.569a9.403 9.403 0 0 1-.27-.314c-.04-.047-.077-.095-.116-.142-.207-.257.209.281.013.016-.713-.968-1.34-1.994-2.11-2.921-.375-.453-.792-.87-1.17-1.32-.375-.445-.736-.901-1.109-1.348-.36-.431-.724-.868-1.14-1.245-.457-.413-.963-.77-1.459-1.134l-.167-.124c-.09-.068-.275-.262.042.034-.1-.094-.216-.173-.32-.264a5.461 5.461 0 0 1-.305-.285c-.09-.09-.18-.249-.284-.314.175.109.167.233.078.099-.048-.072-.098-.143-.145-.216-.078-.122-.152-.246-.23-.369-.212-.335-.446-.674-.73-.953-.461-.455-1.039-.76-1.573-1.118-.2-.134.114.093.12.096-.061-.027-.123-.105-.171-.153-.038-.038-.071-.078-.108-.117-.198-.204.166.277.043.048-.03-.057-.067-.111-.097-.169-.147-.286.072.224.032.078-.037-.135-.075-.263-.098-.403l.054.4a2.777 2.777 0 0 1-.002-.682l-.054.4c.03-.209.083-.406.148-.606.038-.117.117-.153-.063.138.027-.043.046-.1.068-.145.048-.096.101-.19.158-.282a4.68 4.68 0 0 1 .17-.254c.025-.036.057-.09.09-.122-.005.004-.25.303-.096.126.131-.15.26-.298.402-.438a7.03 7.03 0 0 1 .442-.393c.08-.066.215-.132-.13.098.042-.027.08-.059.12-.088.08-.058.161-.114.243-.169a9.89 9.89 0 0 1 1.07-.614 14.684 14.684 0 0 1 .79-.366c.044-.019.097-.035.139-.06-.07.041-.343.144-.114.05.373-.154.748-.3 1.124-.445.776-.3 1.541-.627 2.329-.897 1.01-.347 2.047-.624 3.106-.773l-.398.053c.716-.096 1.438-.13 2.157-.044l-.397-.053c.773.104 1.521.32 2.254.584.195.07.389.144.583.219l.215.084c.187.07-.402-.176-.2-.085l.601.27c.575.26 1.155.523 1.756.716.595.19 1.32.336 1.928.123.456-.16.961-.52 1.042-1.042.235-1.502.244-2.999.184-4.515a110.274 110.274 0 0 1-.089-4.342c-.002-2.895.048-5.795-.001-8.69-.011-.695-.067-1.405-.236-2.081-.184-.739-.516-1.44-.897-2.095-.384-.663-1.339-.953-2.002-.525-.668.43-.937 1.293-.525 2.002a7.551 7.551 0 0 1 .388.769c-.096-.23-.115-.275-.059-.134.034.095.071.189.102.284.118.36.197.73.247 1.104l-.053-.394c.121.977.064 1.972.063 2.954l-.001 3.76c-.002 2.433-.016 4.861.08 7.292.051 1.314.082 2.635-.091 3.942l.054-.396-.041.272 1.042-1.042a.872.872 0 0 1-.147.037l.396-.054a1.53 1.53 0 0 1-.368-.009l.397.054a4.869 4.869 0 0 1-.987-.282 11.261 11.261 0 0 1-.25-.098c-.34-.138.307.135.017.008a51.665 51.665 0 0 1-.498-.222c-.855-.388-1.723-.75-2.622-1.021-1.056-.32-2.17-.488-3.272-.42a15.357 15.357 0 0 0-3.238.576c-.901.257-1.771.59-2.64.937-.889.355-1.785.687-2.662 1.07-.78.34-1.533.734-2.212 1.25-.835.633-1.638 1.404-2.092 2.367-.572 1.215-.675 2.52-.07 3.747.292.59.78 1.035 1.31 1.409.182.129.375.243.565.361.09.056.18.113.268.174.051.034.2.148.01-.001-.205-.161-.011-.007.033.032.062.056.157.207.229.235-.124-.049-.179-.252-.075-.098.04.061.082.12.122.18.134.207.255.421.394.624.329.481.71.916 1.157 1.289.439.366.906.696 1.363 1.038.044.032.088.07.134.1-.327-.215-.185-.144-.107-.082.098.08.196.159.29.242.19.164.365.34.534.524.746.81 1.4 1.697 2.124 2.525.18.206.368.405.554.606.173.189.32.412.5.593-.295-.298-.041-.048.036.057.08.11.158.221.236.332.147.21.29.423.434.635 1.184 1.748 2.59 3.326 4.233 4.657.865.701 1.743 1.288 2.759 1.745.536.242 1.079.467 1.623.691-.446-.183-.08-.033.028.013l.353.157c.223.101.444.207.661.319.219.114.436.234.646.364.21.129.409.318.627.427-.272-.137-.197-.155-.099-.074l.137.114c.099.084.197.17.293.258.178.16.351.326.525.49.421.396.857.771 1.328 1.107.496.353 1.048.588 1.609.818.467.191.943.356 1.409.551l-.372-.157c.381.163.749.346 1.092.58v-2.695a.62.62 0 0 1-.079.036l.373-.157a1.67 1.67 0 0 1-.356.081l.415-.055c-.56.063-1.127.004-1.687-.03-.72-.044-1.447-.018-2.169-.018-1.743-.001-3.487-.038-5.23-.023a24.08 24.08 0 0 0-2.505.125c-.827.092-1.65.223-2.48.294-1.638.142-3.281-.065-4.922.019-1.002.051-1.986.245-2.973.412-.912.154-1.825.299-2.742.423l.42-.056c-2.497.332-5.035.51-7.541.178l.42.056a43.433 43.433 0 0 1-2.727-.481c-.915-.187-1.831-.41-2.694-.773l.377.159a5.753 5.753 0 0 1-.702-.354c-.104-.063-.2-.134-.3-.202.473.321.124.095.003-.027-.115-.117-.347-.476-.04-.017-.074-.11-.153-.214-.222-.327a5.902 5.902 0 0 1-.374-.74l.16.378c-.413-.987-.628-2.045-.773-3.101l.056.42c-.239-1.783-.046-3.554-.048-5.344-.001-.94-.027-1.88-.107-2.817-.089-1.049-.286-2.079-.426-3.12.02.14.038.281.057.421-.1-.82-.062-1.639.043-2.456l-.056.422c.144-1.071.366-2.128.503-3.2.12-.942.042-1.886.005-2.831-.037-.94-.047-1.88-.082-2.82-.036-.984-.051-1.971.077-2.95l-.057.423c.104-.73.255-1.448.345-2.181.08-.64.125-1.284.16-1.928.072-1.293.108-2.588.278-3.873l-.056.42c.146-1.054.274-2.093.32-3.156.042-.95.07-1.9.196-2.844l-.056.417c.113-.796.202-1.565.19-2.37-.01-.61-.043-1.225.037-1.833l-.055.415c.05-.348.135-.686.27-1.011l-.157.372a3.527 3.527 0 0 1 .341-.617c.157-.223-.051.092-.105.133.114-.085.206-.235.31-.335.056-.053.113-.104.172-.154.25-.212-.22.157-.11.08a9.214 9.214 0 0 1 1.691-.917l-.37.157c.923-.39 1.87-.652 2.862-.79l-.4.055c1.628-.216 3.277-.171 4.915-.135 1.773.039 3.544-.026 5.317-.047 3.802-.045 7.612.015 11.409.21 2.147.112 4.29.287 6.425.538.337.04.644-.294.681-.6.038-.32-.154-.693-.497-.762Z"/><path fill="#0A0A0A" d="M108.798 60.373c-1.764 0-3.542.078-5.241-.227-.844-.152-1.693-.353-2.603-.251-1.073.12-1.957.49-3.07.477-3.726-.044-7.457.001-11.184.001-1.791 0-3.583-.006-5.374 0-1.932.007-3.58-.195-3.451-2.502.137-2.454 2.012-3.897 3.43-5.687.64-.808 1.462-1.513 2.041-2.362.922-1.35 1.51-2.94 2.533-4.249 1.643-2.104 3.87-3.79 5.209-6.14 1.23-2.162 3.386-3.59 4.768-5.68 1.595-2.41 3.686-4.575 5.652-6.685.758-.814 1.598-1.493 2.4-2.265 1.172-1.128 2.143-2.743 3.551-3.581 3.853-2.294 8.487.37 10.333 4.014 2.064 4.074 4.078 8.103 6.456 12.049 1.182 1.961 1.848 4.167 3.194 6.036 1.136 1.576 1.772 3.5 2.729 5.206.599 1.069.903 2.257 1.364 3.394.355.876.909 1.667 1.263 2.542.334.827.731 1.875.92 2.74.226 1.036-.078 1.953.5 2.93-.757-1.09-1.694-2.202-2.683-3.068-.909-.796-1.723-1.84-2.73-2.511-2.231-1.488-4.615.362-5.455 2.499-.577-1.435-1.276-1.838-2.463-2.822-1.268-1.051-1.743-1.71-3.302-.372 1.144-1.513-.673-4.142-1.502-5.433-.966-1.505-3.017-3.032-4.91-1.98-.664.37-1.463 1.587-1.93 2.204-.596.786-1.082 1.657-1.302 2.61-.475 2.066-.934 3.808-.961 5.93"/><path fill="#0A0A0A" d="M108.799 59.699c-.625-.07-1.254-.172-1.838-.198a20.988 20.988 0 0 1-1.771-.162c-.177-.023.126.019-.048-.008a14.578 14.578 0 0 1-.623-.104 14.31 14.31 0 0 1-.868-.195c-.638-.162-1.287-.343-1.946-.383-.642-.04-1.279.049-1.91.163-.25.045-.499.096-.749.142-.125.023-.25.042-.375.064-.184.034.246-.024.06-.007-.081.007-.161.017-.242.024-.608.046-1.226-.01-1.834-.03-.615-.02-1.23-.043-1.846-.058-2.477-.061-4.96-.022-7.438-.038-1.269-.008-2.537-.021-3.806-.032-1.044-.008-2.099.029-3.141-.043a8.249 8.249 0 0 1-.263-.022c-.357-.036.325.055.088.014a4.604 4.604 0 0 1-.527-.115c-.073-.022-.143-.05-.215-.073-.213-.068.395.198.117.042-.062-.035-.122-.071-.183-.107-.267-.155.252.243.084.063-.049-.053-.23-.267-.04-.018.194.254.019.017-.016-.044-.019-.032-.033-.067-.053-.098-.09-.143.138.372.085.208-.028-.088-.06-.174-.081-.264-.01-.042-.017-.085-.027-.128-.055-.23.04.214.025.203-.035-.027-.018-.255-.02-.297-.001-.11.001-.218.007-.327.003-.059.01-.117.013-.176.015-.318-.07.374-.012.066a6.16 6.16 0 0 1 .151-.645c.032-.103.069-.205.105-.306.036-.101.125-.225-.064.143.03-.06.054-.122.082-.182.188-.396.422-.77.679-1.124l.095-.129c.144-.198-.088.11-.092.118.037-.088.142-.18.202-.253.156-.189.315-.374.476-.558.298-.34.603-.676.898-1.02.321-.375.622-.766.954-1.131.375-.411.768-.806 1.124-1.233.753-.904 1.303-1.913 1.854-2.946.26-.486.524-.971.822-1.436.14-.219.303-.422.445-.639-.016.024-.225.281-.065.087l.116-.143c.087-.107.177-.213.267-.318.675-.788 1.409-1.521 2.124-2.272.774-.81 1.514-1.65 2.17-2.56.307-.426.561-.88.84-1.325.128-.203.267-.4.408-.594.058-.08.18-.185-.075.093.04-.043.075-.096.112-.141.084-.105.17-.21.258-.312.657-.77 1.389-1.472 2.084-2.207.775-.82 1.439-1.704 2.08-2.63.156-.224.315-.447.478-.666.081-.11.164-.22.247-.33a2.35 2.35 0 0 0-.05.064c.057-.086.128-.164.192-.244.364-.46.74-.91 1.125-1.353a91.307 91.307 0 0 1 2.296-2.53 40.385 40.385 0 0 1 2.44-2.425 22.997 22.997 0 0 0 2.136-2.232c.315-.372.633-.743.977-1.09a7.95 7.95 0 0 1 .509-.474l.133-.11c.146-.122-.26.189-.104.081.106-.072.208-.147.317-.214.191-.119.389-.226.592-.322.046-.022.106-.042.15-.069-.299.182-.249.101-.136.058a5.817 5.817 0 0 1 .99-.294c.08-.016.238-.012.307-.054-.01.006-.413.045-.173.024l.193-.017c.426-.033.84 0 1.264.033-.506-.04-.156-.02-.023.005a6.988 6.988 0 0 1 1.263.359c.019.007.143.06.145.057-.004.005-.37-.164-.146-.061.203.093.404.187.6.293.385.208.747.449 1.101.705.199.144-.11-.09-.116-.09.03.007.095.075.124.1a9.446 9.446 0 0 1 1.202 1.17c.069.08.136.163.204.245.063.077.147.222-.089-.118.037.054.08.106.119.16.609.832 1.035 1.776 1.499 2.693 1.085 2.14 2.175 4.277 3.321 6.384a113.74 113.74 0 0 0 1.788 3.175c.572.977 1.142 1.941 1.627 2.966.48 1.013.929 2.042 1.487 3.016.539.94 1.201 1.79 1.697 2.758.502.98.927 1.995 1.429 2.973.121.235.25.464.374.696.064.12.125.24.183.363.028.062.057.123.084.185.089.2.026.115-.012-.033.065.255.2.51.289.758.104.288.204.576.307.864.222.616.462 1.228.762 1.811.255.497.542.977.78 1.483.007.015.087.153.084.184.012-.117-.105-.255-.039-.09l.138.347c.108.276.219.55.322.828.185.495.364 1.002.493 1.515.032.125.053.25.076.377.035.192-.028-.292-.015-.098.004.062.012.123.018.185.02.242.035.485.063.726.084.72.256 1.33.618 1.964l2.244-1.312c-.726-1-1.514-1.963-2.416-2.812-.4-.376-.823-.725-1.22-1.105-.394-.377-.758-.784-1.158-1.157-.924-.862-1.939-1.508-3.224-1.613-1.01-.082-2.088.298-2.893.897-1.063.792-1.804 1.806-2.306 3.027h2.453c-.33-.824-.736-1.563-1.37-2.196-.527-.525-1.141-.964-1.707-1.445-.628-.534-1.266-1.101-2.113-1.215-1.065-.143-1.933.432-2.713 1.09l2.025 1.561c1.066-1.462.38-3.435-.365-4.866-.712-1.367-1.583-2.757-2.812-3.707-.826-.638-1.767-1.051-2.815-1.132-1.027-.08-2.063.313-2.823.992-.634.567-1.115 1.306-1.615 1.987-.592.804-1.097 1.615-1.428 2.567-.181.52-.282 1.069-.407 1.605a48.718 48.718 0 0 0-.352 1.602c-.237 1.196-.4 2.413-.421 3.633-.011.69.615 1.35 1.32 1.32.724-.033 1.307-.58 1.319-1.32a16.255 16.255 0 0 1 .11-1.684c.008-.067.013-.137.025-.203-.001.007-.036.251-.012.098.033-.216.065-.433.103-.649.157-.896.366-1.782.571-2.668.1-.432.21-.847.356-1.266.051-.146-.034.092-.038.088-.005-.004.056-.123.06-.133a7.918 7.918 0 0 1 .475-.857c.198-.31.422-.602.639-.9l.271-.372.172-.23c.129-.174-.158.196.027-.035.215-.271.444-.524.697-.761.023-.023.06-.043.08-.069.001-.002-.238.158-.133.105.071-.036.142-.086.212-.126.213-.121-.206.061.019-.014a3.57 3.57 0 0 1 .291-.087l.125-.027c.131-.03.114.045-.097.011.075.012.17-.011.248-.011.083 0 .165.006.247.011.219.013-.274-.053.02.01.164.035.353.142.517.156 0 0-.244-.113-.117-.05.038.019.077.035.115.054.101.05.201.103.299.161.136.08.283.23.428.285-.001-.001-.2-.164-.092-.072.032.028.066.054.099.082a6.116 6.116 0 0 1 .61.595c.055.062.108.127.162.19.058.069.097.18-.051-.069.026.046.064.087.094.13.334.474.642.973.936 1.472.186.317.363.64.52.972.025.053.16.364.076.16-.083-.2.028.075.048.127a5.654 5.654 0 0 1 .227.77c.012.059.057.343.022.104-.035-.236-.002.038 0 .099.003.087-.003.175-.004.263 0 .197.072-.317.008-.057l-.056.214c-.027.105-.107.122.061-.131-.023.034-.037.078-.057.114a1.917 1.917 0 0 1-.14.218c-.377.52-.132 1.304.332 1.663.533.412 1.196.32 1.692-.1.055-.048.11-.094.166-.14l-.103.08c.064-.061.148-.109.223-.157a2.801 2.801 0 0 1 .338-.19l-.182.076c.052-.003.127-.038.18-.056.214-.072-.322.001-.117.013.042.003.121.015.162.004-.198.054-.322-.042-.134-.004.216.043-.029.007-.103-.051.043.033.105.053.153.081.11.064.207.147.314.214-.317-.199-.117-.09-.039-.027l.175.146c.139.117.276.234.416.35.476.395.981.763 1.424 1.197a4.88 4.88 0 0 1 .33.353c-.145-.177.016.03.044.07a4.731 4.731 0 0 1 .347.603c.033.066.166.375.034.058.211.505.621.96 1.226.933.604-.027 1.011-.387 1.226-.933.085-.216-.026.077-.036.08.01-.003.07-.152.068-.147a5.608 5.608 0 0 1 .45-.777c-.004.006.088-.135.096-.134-.012-.002-.17.205-.046.06.061-.072.122-.146.186-.217.145-.16.3-.312.464-.453.215-.182-.149.098.03-.027a3.992 3.992 0 0 1 .5-.312l.104-.052c.232-.123-.193.067-.05.016.181-.064.36-.125.549-.163.048-.01.102-.014.149-.027.003 0-.274.023-.139.023.115 0 .229-.013.344-.008.039.001.078.006.116.007.165.002-.257-.05-.094-.016.091.02.183.035.273.059.076.02.239.108.314.103-.01 0-.214-.104-.097-.04.064.036.132.065.197.1.161.09.424.212.54.358-.127-.16-.09-.072-.024-.016.048.042.097.081.145.122.097.083.192.168.286.254.718.661 1.394 1.373 2.093 2.055.417.406.807.84 1.176 1.289.098.12.201.239.292.364-.009-.011-.128-.17-.043-.053l.154.205c.18.244.354.493.523.745.379.563 1.163.863 1.778.466.6-.387.822-1.143.466-1.778.121.214.032.105.005.033a2.41 2.41 0 0 1-.109-.366l-.019-.09c-.019-.121-.02-.122-.002-.003l.013.088a5.38 5.38 0 0 1-.016-.72 8.556 8.556 0 0 0-.15-1.869c-.236-1.171-.706-2.379-1.24-3.443-.259-.514-.555-1.009-.804-1.528l-.085-.184c-.089-.184.105.27.033.079-.055-.143-.112-.285-.166-.43-.1-.27-.195-.542-.291-.815a21.937 21.937 0 0 0-.762-1.918c-.238-.51-.528-.995-.776-1.5-.491-1.002-.923-2.032-1.458-3.012-.535-.98-1.229-1.857-1.752-2.847-.524-.992-.962-2.026-1.457-3.032-.525-1.064-1.161-2.065-1.751-3.093-1.233-2.146-2.389-4.335-3.517-6.537-.569-1.109-1.13-2.22-1.693-3.333-.48-.949-1.018-1.815-1.715-2.625-1.288-1.498-3.065-2.682-4.981-3.194-2.051-.548-4.34-.291-6.132.887-.924.608-1.66 1.409-2.369 2.246a23.524 23.524 0 0 1-2.223 2.3c-1.73 1.561-3.314 3.314-4.828 5.084a35.912 35.912 0 0 0-2.323 2.992c-.147.213-.286.43-.437.64-.035.05-.072.098-.107.147-.185.258.176-.219.044-.055-.086.107-.171.213-.259.318a22.4 22.4 0 0 1-1.04 1.142c-.723.748-1.471 1.475-2.121 2.29-.714.893-1.248 1.891-1.928 2.807-.117.158.193-.242.069-.089-.04.048-.077.097-.116.145a23.029 23.029 0 0 1-.787.913c-.355.39-.72.77-1.086 1.15-.74.766-1.484 1.531-2.147 2.367-.755.95-1.326 1.981-1.898 3.047-.259.483-.523.964-.824 1.422-.07.108-.145.212-.219.318-.147.211.038-.056.063-.079-.044.042-.084.103-.123.15a15.83 15.83 0 0 1-.588.658c-.695.744-1.333 1.533-2.009 2.294-.675.76-1.364 1.532-1.897 2.402a6.877 6.877 0 0 0-1.02 3.28c-.048 1.033.239 2.16 1.018 2.887 1.506 1.404 3.874 1.08 5.757 1.066 2.537-.02 5.073-.038 7.61-.069 1.267-.015 2.535-.03 3.803-.038.652-.005 1.305-.029 1.957-.042.616-.012 1.242.013 1.855-.05.628-.066 1.235-.199 1.847-.35.265-.065.531-.128.8-.177.056-.01.144-.038.196-.033-.037-.003-.274.022-.014.006.161-.01.32-.02.481-.018 1.202.019 2.386.24 3.592.234.573-.002 1.144-.044 1.717-.068.584-.025 1.212-.143 1.838-.215.864-.1.867-1.25 0-1.348ZM34.693 92.694c1.274-2.608 2.143-5.413 2.774-8.24.661-2.964 1.186-5.95 1.37-8.985.188-3.12.12-6.243.214-9.364.024-.763.066-1.525.143-2.284a12.9 12.9 0 0 1 .107-.857c.071-.452.158-.9.213-1.354.022-.178.04-.357.058-.535.007-.067.017-.133.021-.2.016-.223-.036.18.004-.04.029-.151.053-.303.093-.452.023-.086.05-.17.079-.254-.048.135-.008.012.028-.052.046-.083.095-.161.146-.242-.028.044-.174.186-.005.009l.112-.115c.035-.036.212-.16.059-.06-.178.116.169-.11.198-.102-.028-.008-.254.072-.058.032l.09-.025c.122-.025.123-.028.004-.011-.05.055-.132.002.004.002.06 0 .128.002.188-.002.23-.014-.11.015-.082-.019a.64.64 0 0 1 .14.03c.059.018.124.046.185.054.156.02-.108-.048-.102-.048.119.001.296.173.393.225.161.084-.156-.162-.034-.022.034.04.08.073.116.11.034.034.293.34.168.18.2.253.386.515.58.77.436.58.878 1.159 1.406 1.66.482.458 1.035.806 1.563 1.203-.236-.177-.032.04.06.08.142.06-.103-.187-.023-.043.025.046.057.091.084.136.127.21.013.04-.002-.013.024.086.055.168.066.258-.03-.239-.023.195-.023.283.002.838.295 1.547.655 2.289.14.29.276.586.424.872.102.194-.06-.18.014.027.022.061.047.121.068.183.066.186.12.376.16.57.014.065.075.485.047.244.019.162.03.326.04.49.02.38.02.762.01 1.143-.072 3.099-.107 6.202-.044 9.302.065 3.176.141 6.35.141 9.527 0 1.522-.012 3.043-.05 4.565-.036 1.45-.039 2.906.206 4.34.218 1.275.739 2.465 1.29 3.627.49 1.034 1.093 2.057 1.916 2.864 2.106 2.065 5.221 1.863 7.782.842.707-.282 1.394-.609 2.096-.901.144-.06.035-.011.007 0a6.54 6.54 0 0 1 .278-.099c.186-.061.376-.114.565-.165.357-.097.718-.183 1.075-.283.574-.16 1.128-.378 1.694-.563.256-.083.515-.162.777-.23.13-.034.26-.065.391-.092.073-.015.147-.025.22-.042.2-.045-.37.021-.03.004.113-.005.228-.007.342-.011.063-.003.28.018.02-.008-.253-.024-.061-.008-.005.012.053.018.17.035.221.072-.033-.024-.293-.157-.045-.005.139.084.278.165.412.257.068.047.134.096.2.145.025.017.191.144.04.028-.162-.123.045.037.084.067l.302.234c.274.211.556.406.842.601.258.176.006-.011-.028-.023.047.017.154.134.182.159.103.095.202.195.298.297.095.103.184.211.276.317.06.069.21.187-.03-.044.07.068.121.168.178.247.321.445.63.898.937 1.351.267.392.528.787.77 1.194a13.426 13.426 0 0 1 .543 1.007c.03.063.055.128.087.19.094.183-.147-.39-.026-.06.08.222.161.442.221.671.028.108.038.228.074.333.069.2-.019-.366-.018-.157 0 .077.015.156.018.232.003.105-.017.216-.006.319.02.202.092-.364.025-.174-.014.04-.017.089-.028.131-.014.058-.034.113-.049.17-.044.176-.109.016.068-.148a1.159 1.159 0 0 0-.186.315c.007-.048.273-.29.077-.114a2.203 2.203 0 0 0-.106.106c-.26.278.194-.124-.056.042-.244.163.026-.03.084-.018-.03-.006-.175.059-.22.072-.126.036-.35.029-.46.097.16-.099.284-.033.086-.012l-.242.028c-.195.022-.39.047-.584.074a7.024 7.024 0 0 0-1.157.249c-1.363.418-2.751.753-4.09 1.25-1.164.431-2.216.971-3.123 1.834-1.029.979-1.797 2.215-2.5 3.438-.746 1.298-1.555 2.559-2.334 3.838-.385.634-.77 1.273-1.2 1.877-.031.043-.211.27-.072.1.128-.157-.013.012-.034.036-.11.127-.22.254-.337.376a8.444 8.444 0 0 1-.706.658c-.049.042-.393.313-.198.164.18-.137-.145.106-.208.152-.257.186-.518.367-.779.548-.236.165-.473.33-.706.5a36.815 36.815 0 0 0-.802.611c-.268.209-.084.028.075-.057-.337.179-.643.408-.99.576-.105.05-.21.098-.316.145-.04.019-.083.035-.123.054-.189.088.342-.135.145-.061-.225.084-.445.178-.67.261-2.045.76-4.154 1.356-6.146 2.253-.951.429-1.74 1.016-2.518 1.711-.526.469-1.034.96-1.535 1.455-.513.508-1.103 1.015-1.45 1.656a4.754 4.754 0 0 0-.158.334c-.064.144-.117.303-.187.439.01-.021.103-.209.02-.062-.163.288-.31.574-.491.853-.018.028-.149.203-.023.039-.04.052-.081.101-.122.151-.097.117-.197.232-.297.345-.235.262-.469.534-.72.78-.466.455-.49 1.306 0 1.756.5.46 1.26.486 1.757 0 .485-.473 1.03-.877 1.481-1.387.487-.55.804-1.143 1.173-1.765.036-.061.075-.119.114-.178-.04.06-.193.199-.002.026.112-.102.222-.208.334-.31.27-.244.542-.487.816-.728a48.867 48.867 0 0 1 1.678-1.407l.216-.171c.016-.013.196-.149.056-.045-.132.099.111-.077.14-.096.163-.109.335-.207.509-.298.184-.096.372-.181.56-.266.243-.111-.361.143-.008.004.13-.051.259-.102.389-.151.995-.373 2.015-.674 3.03-.985 1.006-.307 2.01-.617 2.983-1.018.502-.207 1.007-.416 1.483-.68.161-.09.32-.185.471-.291.163-.114.319-.239.475-.361.052-.04.103-.085.157-.123-.299.21-.038.031.025-.016 1.078-.8 2.243-1.499 3.212-2.437 1.117-1.083 1.896-2.477 2.696-3.796.784-1.292 1.576-2.577 2.348-3.877.183-.309.372-.614.573-.912.095-.141.199-.276.294-.417.144-.212-.159.191-.01.011.065-.079.128-.16.194-.239a8.47 8.47 0 0 1 .53-.575c.096-.095.196-.187.299-.275.039-.034.126-.087.15-.126-.03.047-.299.215-.11.088a5.77 5.77 0 0 1 .935-.547l.132-.062c.322-.155-.374.144-.03.012.576-.222 1.16-.423 1.75-.604.745-.228 1.497-.425 2.243-.648.337-.101.67-.225 1.015-.297.08-.017.16-.029.24-.044.14-.028.219.038-.083.009.15.014.334-.04.483-.058.89-.114 1.704-.288 2.433-.851a3.94 3.94 0 0 0 1.33-1.844c.453-1.286.085-2.657-.428-3.859-.403-.946-.96-1.81-1.541-2.655-.8-1.161-1.578-2.288-2.721-3.14-.482-.359-1.006-.671-1.501-1.015-.68-.473-1.417-.817-2.25-.886-1.171-.097-2.384.422-3.447.849-.654.263-1.324.461-1.996.674-.782.247-1.523.585-2.27.919-.146.066-.292.13-.438.194-.082.036-.165.073-.248.107.206-.086-.005.001-.04.014-.328.127-.655.254-.99.359-.31.097-.626.179-.945.239-.064.013-.129.022-.193.035.24-.048.029-.002-.023.003-.2.018-.399.031-.6.033a5.9 5.9 0 0 1-.759-.037c.065.007.219.041-.065-.013a5 5 0 0 1-.402-.089c-.066-.019-.131-.041-.197-.062-.162-.05-.157-.07-.004.006-.229-.114-.432-.251-.65-.382-.127-.076.066.051.076.06-.05-.045-.104-.087-.154-.131a5.17 5.17 0 0 1-.329-.322c-.082-.088-.16-.18-.24-.271-.16-.184-.01-.007.019.03a9.369 9.369 0 0 1-.585-.885 15.936 15.936 0 0 1-.725-1.421c-.113-.248-.22-.498-.33-.747-.01-.02-.074-.174-.018-.037.068.164-.037-.097-.051-.134a8.156 8.156 0 0 1-.194-.574 9.613 9.613 0 0 1-.222-.92c-.035-.178-.064-.357-.096-.536-.005-.03-.038-.258-.01-.054a11.396 11.396 0 0 1-.032-.273c-.154-1.412-.12-2.834-.142-4.251-.05-3.248-.004-6.495.062-9.743.067-3.261.082-6.518.08-9.78-.002-1.555.161-3.112-.063-4.66-.107-.743-.363-1.415-.686-2.092-.139-.29-.289-.576-.426-.868-.016-.033-.126-.275-.06-.125.064.149-.036-.095-.049-.129l-.061-.179c-.109-.313-.039.062-.024-.092.072-.775-.09-1.65-.538-2.295-.411-.593-.978-.964-1.56-1.372-.034-.024-.22-.164-.083-.057.138.109-.044-.04-.058-.052-.136-.12-.27-.238-.4-.365a9.138 9.138 0 0 1-.679-.75 9.94 9.94 0 0 1-.154-.192c.035.044.15.198-.011-.014l-.265-.352c-.252-.337-.501-.68-.77-1.003-.875-1.05-2.387-1.589-3.714-1.19-1.658.498-2.429 2.042-2.615 3.654-.039.332-.059.666-.094.999.003-.029.027-.174.003-.016-.014.097-.032.195-.047.293a26.017 26.017 0 0 0-.31 3.15c-.064 1.584-.02 3.172.023 4.756.087 3.157.171 6.337-.17 9.482-.318 2.917-.632 5.853-1.339 8.706a22.255 22.255 0 0 1-1.441 4.062c-.348.744.747 1.401 1.114.65Zm-7.494 1.876c.469-1.147.955-2.289 1.338-3.468.191-.585.356-1.181.49-1.782a5.3 5.3 0 0 0 .129-1.04c.006-.292-.005-.584.029-.874l-.034.255c.055-.397.204-.77.282-1.163.099-.493.139-.998.16-1.5.037-.863.067-1.727.092-2.59.026-.9.07-1.801.076-2.7.003-.384 0-.767.019-1.15.02-.38.047-.76.037-1.14-.015-.524-.136-1.015-.247-1.52a20.046 20.046 0 0 1-.267-1.47l.047.352c-.032-.262-.035-.525-.044-.788a6.575 6.575 0 0 0-.12-1.058c-.098-.484-.273-.949-.346-1.438l.047.354c-.041-.317-.034-.636-.043-.955-.012-.423-.1-.833-.16-1.25l.048.355c-.046-.387-.045-.78-.14-1.16-.07-.273-.192-.527-.234-.807l.048.356c-.017-.163-.01-.323-.003-.486a3.489 3.489 0 0 0-.036-.611c-.043-.314-.146-.611-.196-.923l.048.357c-.049-.369.038-.735.003-1.104a3.05 3.05 0 0 0-.164-.79 2.542 2.542 0 0 1-.148-.507l.048.355a2.929 2.929 0 0 1-.005-.684l-.048.353a2.08 2.08 0 0 1 .121-.473l-.133.316c.064-.152.129-.303.188-.456l-.132.312c.043-.1.103-.19.15-.289.147-.306.224-.596.225-.94 0-.257-.047-.518-.09-.77-.058-.336-.27-.563-.48-.816-.304-.367-1.03-.366-1.334 0-.153.185-.286.348-.378.566-.106.252-.1.526-.133.794l.043-.32a1.721 1.721 0 0 1-.087.364l.125-.298a.768.768 0 0 1-.07.128l.198-.256c-.168.217-.376.4-.505.648-.214.411-.296.846-.335 1.304-.03.356.005.744.092 1.086.061.238.163.46.202.705l-.048-.359c.04.342-.037.683-.007 1.025a4.4 4.4 0 0 0 .118.73c.041.158.089.315.118.477l-.048-.357c.024.175.018.349.012.524-.01.274.014.541.066.811.061.325.217.62.268.948l-.048-.355c.025.19.031.381.054.571.034.29.097.57.137.858l-.048-.355c.032.263.034.526.04.79.008.355.042.707.106 1.056.096.526.296 1.025.374 1.555l-.047-.353c.04.314.037.63.056.945.024.402.099.798.17 1.193.051.295.103.59.168.881.06.271.146.536.186.811l-.047-.35c.07.552.021 1.11-.002 1.663-.026.615-.005 1.233.013 1.848l.058 1.993c.019.646.017 1.298.074 1.942.062.71.15 1.417.055 2.129l.036-.27c-.043.308-.1.617-.12.93-.014.252.016.5.048.75.032.252.067.505.067.76 0 .258-.035.518-.064.774-.003.02-.013.125-.002.014.012-.118-.003.015-.008.045l-.03.183a19.786 19.786 0 0 1-.248 1.183c-.128.532-.276 1.06-.432 1.584-.171.578-.353 1.153-.53 1.73-.091.294.107.654.41.723.34.077.597-.105.722-.41Zm-5.578-.393a1.746 1.746 0 0 0 .266-.301l.033-.045c.042-.058-.094.122.02-.024.11-.142.147-.363.176-.539.058-.359.076-.721.11-1.082.075-.79.197-1.566.07-2.359-.062-.384-.19-.755-.245-1.141l.03.225c-.06-.46-.105-.92-.183-1.379-.069-.406-.149-.81-.227-1.214-.152-.793-.35-1.576-.53-2.363-.104-.453-.257-.892-.32-1.355.015.105.03.21.043.316-.064-.512-.07-1.032-.184-1.537-.092-.406-.262-.79-.323-1.204l.045.335a4.142 4.142 0 0 1-.021-.546 5.022 5.022 0 0 0-.074-.864c-.06-.365-.211-.716-.325-1.068-.242-.751-.341-1.545-.485-2.32-.071-.386-.171-.77-.224-1.158l.048.356a5.743 5.743 0 0 1-.01-1.454l-.049.36a2.78 2.78 0 0 1 .188-.698l-.136.322c.1-.23.236-.44.389-.638l-.204.263c.19-.244.401-.47.617-.69a3.65 3.65 0 0 0 .47-.543l.113-.17c.089-.134.144-.26.205-.417l-.282.484a2.15 2.15 0 0 0 .307-.441c.215-.386.178-.938-.161-1.249a1.065 1.065 0 0 0-1.249-.16 3.022 3.022 0 0 0-.45.298l.485-.283c-.205.06-.398.176-.59.272-.213.107-.392.28-.58.428a8.488 8.488 0 0 0-.663.571c-.27.264-.523.565-.717.889-.26.434-.332.864-.394 1.354-.085.675-.02 1.379.106 2.044.066.347.155.689.224 1.035.075.37.144.743.22 1.114.084.41.178.814.316 1.21.132.38.315.761.37 1.163l-.046-.342c.055.454.04.911.16 1.357.091.342.247.662.35 1 .106.349.138.714.196 1.072.06.364.168.714.284 1.063.16.48.368.94.565 1.405l-.108-.256c.151.36.303.719.423 1.09.117.365.22.736.325 1.105.106.371.208.744.294 1.12.041.183.074.369.127.548.05.171.117.337.185.501.162.392.3.769.36 1.19l-.026-.189c.08.593.072 1.192.119 1.788.02.255.068.507.077.763.002.06.002.119 0 .178-.002.027.002.063-.006.09l.006-.053a.35.35 0 0 0-.009.184c.01.08.011.082.003.01l.001.036-.001.09c-.002.03-.003.06-.007.09.007-.057-.012.065-.012.063-.056.3.28.518.515.3Zm-9.584-13.241c-.105.205-.237.378-.318.596-.015.04-.067.138.01-.02-.019.038-.035.077-.053.114a4.681 4.681 0 0 1-.15.28c-.2.346-.395.701-.565 1.065-.242.516-.398.995-.457 1.563-.055.525.011 1.053.087 1.572.13.891.448 1.72.7 2.579.27.918.368 1.868.556 2.803.106.528.244 1.047.404 1.561.163.523.33 1.038.406 1.583l-.053-.395c.07.587.006 1.18.064 1.769.04.4.09.805.195 1.195.077.29.167.568.21.868l-.054-.4c.084.658.14 1.313.274 1.965.115.556.21 1.117.286 1.68l-.054-.407c.37 2.837.13 5.714.263 8.565.036.772.06 1.548-.036 2.317l.054-.406c-.045.328-.165.627-.229.95-.09.462-.041.911-.101 1.372l.054-.406c-.104.596-.155 1.201-.39 1.763l.153-.364c-.152.358-.314.707-.401 1.087-.064.274-.108.552-.16.828a13.012 13.012 0 0 1-.457 1.754c-.184.551-.39 1.095-.58 1.645a5.888 5.888 0 0 0-.233.816c-.056.284-.103.565-.208.836l.139-.329c-.293.67-.639 1.319-.944 1.984a5.54 5.54 0 0 1-.408.762c-.071.108-.223.223.06-.067-.048.049-.092.104-.14.154-.112.113-.242.133.082-.043-.135.074-.25.078.106-.024-.643.184-1.109.913-.894 1.576.212.655.885 1.092 1.575.894.805-.23 1.33-.805 1.733-1.517.313-.552.58-1.133.878-1.692.23-.43.468-.866.596-1.338.102-.374.169-.746.306-1.11.289-.769.633-1.516.916-2.286.315-.854.41-1.781.758-2.619l-.153.364c.137-.325.303-.649.39-.993.06-.244.083-.5.124-.748.058-.361.137-.719.166-1.084.02-.258-.008-.517.025-.773l-.054.405c.036-.199.108-.385.162-.58.085-.312.113-.644.15-.964.051-.462.058-.928.05-1.392-.018-.932-.08-1.861-.079-2.794.003-1.931.096-3.886-.12-5.809a28.788 28.788 0 0 0-.269-1.873c-.098-.547-.247-1.087-.328-1.637l.055.402c-.069-.512-.096-1.032-.206-1.538-.09-.415-.241-.805-.304-1.228l.054.398c-.075-.564-.031-1.13-.081-1.694a8.225 8.225 0 0 0-.382-1.833c-.165-.506-.365-1-.513-1.512-.16-.552-.285-1.112-.41-1.672-.223-.991-.576-1.918-.944-2.862l-.131-.311c.08.198.095.234.043.108l-.055-.136a10.743 10.743 0 0 1-.13-.341 7.1 7.1 0 0 1-.231-.769 5.6 5.6 0 0 1-.067-.324c-.015-.087-.01-.254.003.048-.002-.05-.012-.102-.017-.153a3.046 3.046 0 0 1-.012-.35c.002-.067.008-.134.01-.2.009-.211-.046.249-.005.024.091-.499.293-.963.403-1.455a5.63 5.63 0 0 0 .124-.862c.022-.34-.092-.638-.25-.935-.198-.372-.803-.382-.998 0Zm111.012 48.571-.418-.127.478.629c-.008-.667-.176-1.329-.401-1.952a13.338 13.338 0 0 0-.986-2.141 25.945 25.945 0 0 0-2.529-3.6c-.585-.699-1.211-1.362-1.781-2.073l-.105-.132c-.146-.183.121.161.028.037l-.181-.245c-.142-.196-.269-.402-.411-.598a6.355 6.355 0 0 0-.902-1.035c-.614-.549-1.314-.968-2.036-1.356a104.41 104.41 0 0 0-2.527-1.319c-1.906-.963-3.861-1.832-5.828-2.662l.344.145c-.605-.257-1.196-.543-1.72-.946l.296.229a5.796 5.796 0 0 1-.987-.999l.231.298c-.742-.976-1.485-1.953-2.215-2.938-.698-.943-1.32-1.936-2.01-2.882-.699-.957-1.452-1.873-2.301-2.7-.843-.821-1.772-1.551-2.683-2.295a58.45 58.45 0 0 1-1.555-1.306c-.472-.415-.937-.835-1.322-1.333l.232.3a5.155 5.155 0 0 1-.625-1.055l.15.356a3.723 3.723 0 0 1-.258-.93l.053.396a2.948 2.948 0 0 1-.004-.688l-.053.396c.029-.207.083-.406.161-.6l-.15.356c.108-.257.253-.492.422-.713l-.233.302c.267-.34.584-.633.924-.898l-.302.233a10.212 10.212 0 0 1 2.144-1.262l-.356.15a7.641 7.641 0 0 1 1.95-.508l-.394.053c1.087-.14 2.186-.118 3.279-.073.525.021 1.05.049 1.574.066.5.016 1.002 0 1.499.062l-.392-.053c.253.034.5.09.737.187l-.352-.148c.21.09.402.21.584.348l-.298-.23c.614.478 1.124 1.066 1.766 1.513.648.451 1.412.718 2.045 1.193l-.291-.225c.156.124.284.275.434.403.39.332.846.578 1.374.574l-.351-.047a2.24 2.24 0 0 0 1.008-.026l-1.425-.58.186.378c.216.442.854.685 1.315.536.485-.157.863-.596.856-1.124l-.006-.427c-.007-.532-.384-1.096-.926-1.217-.104-.023-.203-.063-.306-.084l.315.133c-.072-.041-.145-.072-.212-.12l.274.21a1.013 1.013 0 0 1-.154-.154l.215.28c-.117-.154-.225-.31-.348-.461l.219.282a2.485 2.485 0 0 0-.568-.72 4.86 4.86 0 0 0-.889-.606c-.475-.263-.968-.494-1.404-.82l.297.23c-.704-.544-1.26-1.29-2.063-1.706a4.237 4.237 0 0 0-1.444-.44c-.536-.073-1.068-.073-1.606-.091-2.201-.076-4.477-.332-6.626.303-.982.29-1.938.786-2.781 1.364-.463.317-.92.664-1.31 1.07-.37.382-.718.825-.935 1.314-.277.623-.45 1.275-.39 1.966.066.754.269 1.431.62 2.104.569 1.088 1.486 1.915 2.407 2.7 1.755 1.495 3.633 2.843 5.124 4.621.173.206.34.415.505.628l-.231-.3c.534.696 1.005 1.434 1.505 2.154a64.367 64.367 0 0 0 1.71 2.316c.287.376.575.753.861 1.131.326.433.635.883.998 1.286a6.363 6.363 0 0 0 1.958 1.435c.816.391 1.678.675 2.511 1.026l-.34-.143c1.443.614 2.876 1.255 4.321 1.864a112.89 112.89 0 0 1 2.394 1.053c.688.312 1.377.632 1.978 1.096l-.239-.185a4.904 4.904 0 0 1 .697.66c.04.046.077.093.116.139.149.175-.174-.23-.021-.029.359.473.74.924 1.147 1.355.707.748 1.464 1.448 2.144 2.221a25.746 25.746 0 0 1 1 1.209c.038.048.149.203-.018-.025.031.043.064.085.096.127l.195.259c.504.68.991 1.385 1.423 2.115a12.157 12.157 0 0 1 .468.877l.062.135a3.538 3.538 0 0 1 .024.051c.048.046.079.203.103.268a5.389 5.389 0 0 1 .164.557c.01.04.018.081.026.123.009.044.037.24.009.027.035.266.175.574.478.628l.433.078c.321.057.69-.087.77-.438a.64.64 0 0 0-.438-.77Z"/><path fill="#0A0A0A" d="M108.332 98.96c.013-.39.038-.591.102-.922.069-.36.16-.716.248-1.073.19-.769.349-1.536.389-2.33.083-1.65.093-3.307.123-4.96.027-1.515-.091-3.03-.034-4.544a17.949 17.949 0 0 1 .117-1.417c.027-.22.061-.439.093-.657.121-.838.248-1.675.346-2.516.186-1.591.159-3.19.171-4.79l.039-4.954c.012-1.646-.006-3.293.029-4.938.018-.828.05-1.657.02-2.485-.031-.842-.233-1.63-.439-2.44a8.26 8.26 0 0 1-.118-.514c-.015-.073-.026-.148-.039-.221-.037-.197.039.334.011.092a25.04 25.04 0 0 1-.088-.907 26.09 26.09 0 0 1-.073-1.977c.001-.648.023-1.297.091-1.94.012-.12.088-.54.002-.057.025-.138.042-.277.07-.415.077-.386.197-.761.309-1.138.194-.65.267-1.309.4-1.97.047-.236.123-.456.196-.683-.148.461-.014.045.055-.08.072-.132.152-.26.235-.387a5.31 5.31 0 0 1 .147-.215c.069-.098.234-.224-.03.032.1-.097.181-.218.28-.318.091-.094.189-.179.288-.264.189-.162-.286.198-.08.065.067-.043.132-.088.201-.129.12-.07.506-.207.038-.041.109-.039.215-.081.326-.114.112-.032.226-.059.341-.08.059-.012.118-.019.176-.03-.48.094-.181.024-.059.013.545-.05 1.096-.033 1.644-.018.138.004.276.008.415.02.063.005.126.014.189.019-.451-.032-.239-.034-.126-.014a3.215 3.215 0 0 1 .47.121c.287.096-.279-.146-.1-.044l.238.136c.18.1-.281-.249-.134-.107.031.03.065.058.096.088.031.03.059.065.089.095.146.144-.211-.313-.105-.137.054.09.107.18.159.272.105.186-.129-.357-.063-.15.015.046.034.092.049.139.027.082.05.165.07.25.025.108.044.218.063.328.042.241-.041-.375-.017-.126l.024.251c.061.805.086 1.595.203 2.397.11.747.277 1.484.44 2.222.073.33.145.66.21.991.037.185.072.37.104.556.016.094.03.189.047.283.022.15.018.119-.012-.092.007.06.014.12.019.18.073.763.04 1.531.006 2.296-.032.734-.068 1.47-.015 2.205.061.854.294 1.652.439 2.49.015.087.028.175.042.263.051.312-.033-.32-.001-.007.018.175.038.35.051.525.031.38.046.76.054 1.142.016.739-.005 1.478.017 2.217.025.816.205 1.613.393 2.404.04.168.079.336.114.505.015.07.141.483.097.529l-.023-.175a5.451 5.451 0 0 1 .035.455 9.45 9.45 0 0 1-.002.652c-.024.746-.097 1.488-.05 2.235.052.827.192 1.647.323 2.464.028.174.055.349.081.523l.013.088c.02.147.017.118-.011-.088.028.023.028.23.032.269.042.371.068.743.076 1.117.015.695.601 1.362 1.329 1.329.709-.032 1.344-.584 1.329-1.329-.017-.85-.136-1.692-.268-2.53-.059-.376-.107-.755-.174-1.13-.001-.005.036.289.018.136l-.016-.132-.029-.266a12.834 12.834 0 0 1-.044-.588c-.037-.78.057-1.554.069-2.333.013-.855-.142-1.695-.338-2.525-.081-.344-.164-.687-.224-1.035-.009-.052-.053-.34-.022-.123.032.219-.005-.078-.009-.13a7.726 7.726 0 0 1-.021-.61c-.005-.775.007-1.551-.02-2.327a16.035 16.035 0 0 0-.267-2.462c-.072-.372-.181-.736-.249-1.109a3.944 3.944 0 0 0-.029-.176c.003 0 .033.286.018.135-.009-.09-.02-.179-.028-.268a10.513 10.513 0 0 1-.031-.589c-.019-.77.036-1.539.065-2.307a13.483 13.483 0 0 0-.136-2.594c-.12-.764-.292-1.518-.456-2.273-.08-.368-.158-.736-.225-1.107a16.283 16.283 0 0 1-.09-.538l-.02-.135c-.028-.186.032.276.013.088-.011-.108-.025-.215-.035-.322-.118-1.23.011-2.564-.678-3.66-.717-1.142-1.964-1.541-3.251-1.598-1.283-.057-2.579-.048-3.767.497a4.197 4.197 0 0 0-1.476 1.18c-.497.62-.916 1.269-1.175 2.026-.191.558-.221 1.154-.331 1.73-.139.726-.424 1.415-.54 2.147-.219 1.374-.242 2.77-.17 4.157.037.71.104 1.416.206 2.118.105.725.364 1.413.498 2.131.008.044.013.088.022.131.03.146-.016-.13-.016-.131-.009.085.018.188.023.274.013.214.019.428.023.642.008.431.002.862-.005 1.294-.015.833-.02 1.665-.018 2.499.01 3.404.045 6.808.071 10.212.013 1.592-.152 3.15-.357 4.727-.1.766-.202 1.53-.216 2.305a30.38 30.38 0 0 0 .076 2.375c.098 1.625.131 3.246.158 4.874.014.845.03 1.687.082 2.53.023.378.021.754-.01 1.131-.007.086-.016.171-.025.257l-.015.127c0 .007-.019.146-.006.052a10.285 10.285 0 0 0-.027.18c-.021.111-.035.225-.052.337-.116.743-.224 1.488-.181 2.241.022.397.334.78.761.761a.775.775 0 0 0 .76-.76ZM123.39 56.4a1.306 1.306 0 0 0-.18.566c-.007.182.022.367.048.546.04.275.11.544.188.81.065.226.14.45.201.677.097.364.174.735.255 1.103.162.744.27 1.498.432 2.242.162.739.364 1.468.57 2.196.23.812.443 1.631.557 2.47l-.038-.285c.049.366.059.733.094 1.1.041.435.114.866.21 1.292.077.343.164.683.232 1.027.074.374.125.754.176 1.132l-.041-.302c.128.953.229 1.911.292 2.87.033.484.048.967.069 1.45a9.64 9.64 0 0 0 .232 1.621c.106.488.227.972.295 1.468l-.042-.314c.09.7.015 1.398.043 2.1.016.41.063.835.183 1.23.025.082.055.163.087.243.062.154.119.328.206.472.088.144.202.278.314.405.175.198.419.302.669.371.429.12.966-.075 1.181-.48.221-.42.167-.92-.164-1.267a.811.811 0 0 1-.051-.056l.154.2-.131-.183c-.182-.252-.416-.425-.74-.425-.285 0-.61.16-.74.425-.042.085-.081.171-.134.25l1.948.528a1.39 1.39 0 0 0-.088-.592c-.074-.192-.161-.378-.243-.568l.12.285a3.109 3.109 0 0 1-.201-.752l.043.317c-.104-.779.014-1.567-.077-2.347a13.255 13.255 0 0 0-.27-1.507c-.097-.416-.195-.832-.254-1.255l.041.31c-.069-.527-.067-1.063-.102-1.593a35.414 35.414 0 0 0-.139-1.594 34.65 34.65 0 0 0-.258-1.842 17.143 17.143 0 0 0-.307-1.54c-.14-.538-.298-1.07-.375-1.623l.039.289c-.056-.43-.085-.863-.151-1.293-.051-.34-.121-.676-.202-1.01-.166-.68-.378-1.35-.595-2.016-.215-.66-.452-1.313-.637-1.984-.185-.672-.336-1.352-.535-2.021-.195-.656-.475-1.272-.742-1.9l.078.185c-.132-.312-.261-.634-.311-.97l.025.188-.009-.083a.692.692 0 0 0-.096-.355c.048.126.065.162.052.107-.002-.028-.022-.134-.003.006.019.138.007.03.006-.003-.001-.268-.195-.55-.466-.612-.274-.063-.575.04-.718.292Zm9.351 4.649c.031.01.062.023.094.031.062.017-.155-.072-.098-.041l.039.018c.058.028.114.061.168.099l.035.025c.053.034-.15-.126-.078-.06l.067.06c.049.046.096.095.14.147l.03.036c.057.064-.069-.092-.067-.088.012.03.043.06.062.087.039.057.076.116.11.176.078.135.145.276.206.42l-.076-.181c.271.648.404 1.338.583 2.014.078.293.155.586.255.872.158.45.347.887.485 1.346.174.576.301 1.166.381 1.762l-.035-.264c.066.505.124 1.008.231 1.506.088.409.184.815.242 1.229l-.038-.284c.066.5.04 1.003.069 1.505.035.61.107 1.216.19 1.82.14 1.034.34 2.058.54 3.08.11.561.232 1.123.308 1.689l-.041-.306c.214 1.637.053 3.295-.03 4.935-.027.532-.094 1.097.051 1.616l2.205-.608-.091-.32c-.119-.428-.553-.792-1.012-.771-.464.02-.883.311-1.012.77l-.09.321c-.08.285-.034.626.115.881.139.237.411.463.684.525.292.067.621.053.88-.115.252-.162.443-.39.526-.683.12-.427.095-.883.108-1.324.011-.365.027-.73.042-1.096.031-.734.061-1.47.056-2.204a15.331 15.331 0 0 0-.202-2.411c-.128-.767-.311-1.526-.469-2.288a38.248 38.248 0 0 1-.473-2.645l.039.295a22.547 22.547 0 0 1-.157-1.798 8.721 8.721 0 0 0-.308-1.858 16.984 16.984 0 0 1-.375-1.557 11.288 11.288 0 0 0-.42-1.64c-.208-.612-.49-1.19-.742-1.784l.091.216c-.25-.599-.417-1.229-.657-1.832-.281-.707-.597-1.447-1.147-1.992-.288-.285-.662-.524-1.066-.594-.178-.03-.344-.028-.505.066a.668.668 0 0 0-.301.391c-.08.353.106.7.458.806Zm10.194 10.456c-.201 1.553.34 3.08.807 4.535.112.348.221.699.313 1.054a8 8 0 0 1 .121.526c.006.03.037.242.024.138.015.118.024.237.032.356.027.416.026.833.058 1.249.038.487.138.957.223 1.436.016.094.031.19.045.285-.024-.169-.003-.013.004.064.02.193.032.387.037.582.011.405-.004.81-.016 1.215-.023.86.094 1.714.21 2.564l.04.292c.017.126-.009-.073-.011-.079.013.052.015.113.022.166.027.21.052.42.073.63.04.405.063.812.058 1.219-.01.9-.046 1.8-.055 2.7-.017 1.683-.061 3.366.012 5.047.035.802.075 1.604.07 2.407a15.406 15.406 0 0 1-.072 1.44c-.01.095-.069.4.002.013-.033.18-.056.36-.092.538-.139.69-.337 1.367-.434 2.064-.128.92-.111 1.83-.113 2.756-.004 1.669-.064 3.35.077 5.015.143 1.677.536 3.268 1.127 4.84.594 1.581 1.306 3.128 2.184 4.573.197.324.404.642.619.955.241.35.537.572.963.629.378.051.853-.045 1.109-.362.311-.387.575-.8.659-1.299.059-.341.097-.636.004-.975-.064-.231-.169-.454-.269-.67-.184-.395-.706-.582-1.103-.528-.402.053-.843.366-.921.793-.041.225-.107.447-.161.669-.011.044-.026.086-.038.129-.063.218.11-.194.036-.092-.024.032-.084.107-.091.147l.118-.151a5.269 5.269 0 0 1-.1.111l2.072.267c-.901-1.3-1.626-2.703-2.259-4.15-.058-.131.049.118.049.118a1.166 1.166 0 0 0-.065-.156 23.1 23.1 0 0 1-.322-.822 24.466 24.466 0 0 1-.379-1.086 14.526 14.526 0 0 1-.554-2.306c-.05-.329.024.216-.004-.021a17.94 17.94 0 0 1-.088-.9 25.242 25.242 0 0 1-.055-1.167c-.021-.841-.016-1.683-.015-2.525.001-.873-.022-1.749-.002-2.622.004-.189.015-.378.033-.566.007-.075.018-.149.025-.223-.04.419-.01.09.008-.013.056-.327.132-.651.208-.974.191-.823.332-1.65.369-2.495.035-.783.003-1.568-.042-2.35-.045-.772-.106-1.544-.133-2.318-.03-.866-.024-1.733-.032-2.6-.017-1.796.037-3.615-.243-5.395-.121-.773-.297-1.537-.415-2.311a1.15 1.15 0 0 0 .003.023c-.011-.04-.011-.087-.016-.127l-.03-.3a10.271 10.271 0 0 1-.033-.656 14.03 14.03 0 0 0-.058-1.16c-.043-.424-.104-.85-.201-1.266-.095-.407-.213-.801-.278-1.215l.002.014-.021-.179a16.48 16.48 0 0 0-.035-.312c-.031-.254-.061-.507-.097-.76a6.436 6.436 0 0 0-.278-1.153c-.486-1.433-1.267-2.782-1.564-4.276a3.753 3.753 0 0 1-.043-.999c.021-.29-.263-.54-.539-.54-.323 0-.502.25-.539.54ZM39.528 131.463l-4.395-4.395c-1.128-1.127-2.302-1.88-3.654-2.743-2.069-1.322-4.668-1.53-6.806-2.639-.97-.503-2.014-.711-3.072-.996-.532-.144-.996-.09-1.533-.125-.768-.05-1.354-.456-2.079-.599-1.293-.254-2.838-.023-4.162-.023-1.179 0-2.264-.069-3.386.297-1.195.391-2.673 1-2.43 2.566.083.529.334.772.237 1.381-.124.788-.628 1.149-.977 1.804-1.212 2.28-1.527 4.902-2.303 7.314-.25.777-.49 1.593-.622 2.403-.092.569.148 1.202.032 1.766-.094.456-.282.793-.326 1.258-.22 2.309.316 4.53.604 6.752.279 2.148.947 4.187 2.148 6.01.52.789.973 1.494 1.659 2.102.205.182.454.555.727.633.451.13 1.252-.222 1.675-.37 1.772-.619 2.04-1.614 2.644-3.289.788-2.18 4.14-4.4 6.139-2.596.766.692 1.361 1.654 1.782 2.595.366.819.54 1.681 1.108 2.418 1.36 1.766 4.083 2.361 6.216 2.136.849-.089 1.64-.654 2.285-1.212.868-.75.8-1.769 1.207-2.742.267-.64 1.012-1.712 1.74-1.847.721-.135.743.218 1.046.688.407.63.957 1.218 1.465 1.778.614.676 1.287.802 2.119 1.087.945.323 1.726.714 2.685.133.245-.149 1.188-.886 1.174-1.227-.024-.57-1.266-1.337-1.605-1.837-1.138-1.677-1.75-4.037-1.275-6.045.26-1.099.307-2.509.99-3.467.346-.482.638-.967 1.057-1.391.48-.486.855-.744.939-1.449.137-1.154-.35-2.394-.85-3.417-.255-.525-.686-.949-1.006-1.439-.244-.372-.41-.866-.894-.97"/><path fill="#0A0A0A" d="M39.93 131.061c-.838-.936-1.68-1.867-2.492-2.825-.776-.914-1.52-1.873-2.373-2.716-.17-.168-.347-.325-.52-.489a3.556 3.556 0 0 0-.294-.249 32.775 32.775 0 0 0-.55-.422c-.425-.32-.862-.625-1.3-.928-.958-.662-1.983-1.142-3.075-1.545-1.109-.409-2.255-.708-3.346-1.166l.343.145c-.443-.189-.858-.427-1.293-.628a12.885 12.885 0 0 0-1.732-.651c-.494-.147-1-.316-1.505-.42a6.079 6.079 0 0 0-1.06-.124c-.266-.007-.533-.004-.799-.033l.41.055c-.53-.072-1.007-.308-1.51-.475-.629-.209-1.315-.27-1.974-.291-1.13-.035-2.26.093-3.391.081-1.221-.012-2.448.01-3.618.403-.913.308-1.918.712-2.566 1.461-.532.615-.847 1.32-.875 2.14a3.52 3.52 0 0 0 .153 1.117c.068.226.161.44.196.675l-.055-.414a1.83 1.83 0 0 1-.007.425l.056-.412a2.266 2.266 0 0 1-.144.512l.156-.369c-.147.331-.37.612-.571.911a7.181 7.181 0 0 0-.58 1.101c-.41.921-.74 1.865-1.007 2.837-.236.854-.435 1.717-.657 2.575-.23.889-.527 1.757-.77 2.643-.167.611-.325 1.25-.365 1.883-.031.496.118.983.07 1.48l.054-.402c-.044.322-.169.622-.256.933-.119.42-.153.864-.176 1.299-.038.697-.012 1.397.051 2.092.136 1.5.423 2.98.626 4.472l-.053-.401c.179 1.34.42 2.65.893 3.921.251.673.539 1.338.878 1.973.294.552.637 1.059 1.014 1.558.526.698 1.057 1.361 1.763 1.886l-.275-.213c.141.13.301.236.453.353l-.271-.209c.258.208.5.453.793.612.378.206.963.355 1.385.177l-.315.042c.584-.026 1.095-.242 1.624-.467.1-.042.417-.142.013-.011.154-.05.301-.12.449-.186.185-.084.365-.178.538-.285.664-.414 1.218-.993 1.546-1.708.038-.083.086-.174.112-.262-.074.251-.067.148-.028.066a14.043 14.043 0 0 0 .372-.893c.13-.348.255-.699.377-1.049-.103.295-.012.035.022-.033.035-.07.072-.14.11-.208.097-.169.206-.328.318-.487.102-.145-.113.136-.035.044l.079-.098a5.725 5.725 0 0 1 .797-.795c.039-.033.084-.062.12-.098-.179.172-.067.053-.014.014.153-.111.311-.215.474-.311a6.66 6.66 0 0 1 .497-.256c.056-.027.136-.034-.072.029.047-.014.093-.038.14-.055.092-.034.185-.066.28-.094.17-.051.345-.073.517-.116-.276.068-.039.007.05.002a2.901 2.901 0 0 1 .418.003c.03.002.186.023.023-.001-.164-.024-.008.001.021.006a2.44 2.44 0 0 1 .357.093c.044.015.087.037.13.049-.217-.059-.104-.045-.033-.01.086.043.17.091.25.143l.081.055c.15.097-.15-.132-.014-.012.173.151.339.309.494.479.09.098.173.199.257.301.024.028.104.12-.009-.014.043.051.08.108.12.161.144.201.267.408.378.629.06.119.118.239.174.361.018.04.035.081.054.121.094.206-.071-.181.011.026.091.231.177.463.252.7.153.483.288.967.485 1.435.221.524.505.986.897 1.402.317.335.688.627 1.07.881.726.482 1.57.818 2.415 1.025a9.98 9.98 0 0 0 2.622.29c.502-.013 1.022-.049 1.498-.217.627-.221 1.14-.538 1.651-.959.41-.337.8-.71 1.065-1.175.242-.423.365-.888.491-1.354.055-.201.105-.404.163-.604a5.71 5.71 0 0 1 .088-.276c.019-.056.04-.111.06-.166.073-.201-.099.211-.026.061a5.034 5.034 0 0 1 .412-.698c.046-.065.176-.193-.03.032.038-.042.07-.088.107-.131.133-.156.288-.281.43-.426-.2.203-.129.097-.047.043.028-.018.056-.036.085-.052.041-.024.087-.042.128-.067-.253.155-.171.067-.06.038.042-.01.085-.014.127-.024-.287.066-.166.029-.067.025.183-.008-.255-.049-.136-.02.098.024.141.08-.137-.066.194.101-.208-.2-.064-.045-.267-.288-.078-.095-.013.026.245.458.54.871.858 1.281.057.073.14.239.22.278l-.092-.12c.07.1.145.195.226.285l.093.106c.182.205.362.416.555.612.737.747 1.706 1.002 2.663 1.341.524.186 1.02.354 1.576.416.627.07 1.266-.091 1.813-.398.313-.176.597-.417.867-.652.287-.249.58-.542.757-.88.29-.554.238-1.2-.117-1.714-.251-.363-.552-.664-.879-.957-.244-.218-.506-.429-.709-.688l.185.24a5.55 5.55 0 0 1-.626-1.122l.121.287a8.849 8.849 0 0 1-.613-2.24l.046.346a8.16 8.16 0 0 1-.005-2.052l-.049.367c.082-.601.249-1.192.364-1.787.117-.607.25-1.208.49-1.78-.05.115-.098.231-.147.347.237-.546.62-1.041.978-1.514l-.228.295c.418-.54.967-.953 1.34-1.53.447-.689.525-1.591.425-2.387a7.713 7.713 0 0 0-.261-1.317c-.13-.426-.304-.837-.48-1.246-.129-.301-.26-.608-.43-.887-.231-.374-.52-.712-.788-1.058l.228.296c-.222-.289-.398-.597-.598-.9-.36-.544-.831-.984-1.481-1.147a1.51 1.51 0 0 0-1.113.146c-.3.175-.585.519-.664.863-.17.749.225 1.581 1.009 1.777a.9.9 0 0 1 .102.029l-.345-.145c.078.035.147.074.215.125l-.294-.226c.063.053.118.112.17.176l-.227-.294c.153.204.257.436.393.651.23.362.515.689.777 1.028l-.229-.296c.338.441.575.919.791 1.43l-.147-.349c.236.568.427 1.154.51 1.765l-.052-.388c.04.33.047.659.004.989l.052-.388c-.024.144-.06.282-.116.417l.147-.348a1.77 1.77 0 0 1-.197.328l.228-.295c-.136.174-.295.326-.453.48-.235.23-.445.474-.647.734a18.89 18.89 0 0 0-.618.856c-.147.213-.3.42-.416.652a6.35 6.35 0 0 0-.563 1.731c-.09.495-.147.995-.24 1.49-.113.607-.22 1.214-.226 1.833-.005.625.093 1.267.229 1.876.251 1.13.74 2.208 1.342 3.192.287.469.627.844 1.036 1.204.177.155.354.309.52.475.045.045.089.09.13.137.038.042.164.201.022.016-.14-.181-.027-.033.002.014.026.042.049.085.069.13l-.118-.281c.02.052.035.102.043.156l-.042-.312a.351.351 0 0 1 0 .076l.041-.312a.534.534 0 0 1-.022.076l.118-.28c-.01.021-.103.165-.1.171-.005-.009.224-.27.099-.129l-.07.079a4.396 4.396 0 0 1-.378.36c-.06.052-.122.102-.184.152-.133.109.255-.19.114-.088l-.068.051a2.348 2.348 0 0 1-.457.256l.278-.117a2.147 2.147 0 0 1-.43.119l.31-.042c-.18.024-.358.023-.538.004l.31.041c-.451-.061-.875-.228-1.302-.376-.396-.137-.8-.247-1.189-.405l.276.117a3.305 3.305 0 0 1-.533-.279c-.032-.022-.186-.138-.022-.01.167.13.009.004-.02-.021a3.467 3.467 0 0 1-.269-.269c-.348-.378-.704-.752-1.034-1.146-.045-.053-.088-.108-.132-.161-.124-.151.045.045.046.06-.002-.037-.1-.135-.123-.167a3.347 3.347 0 0 1-.092-.136c-.081-.125-.154-.256-.24-.378-.36-.504-.888-.82-1.526-.761-.627.059-1.12.293-1.595.703-.358.309-.655.708-.905 1.107-.24.383-.424.803-.556 1.235-.056.183-.102.368-.148.554l-.068.273c-.01.037-.05.125-.044.162.102-.225.089-.19-.039.105l-.029.078c-.03.081-.104.177.033-.071-.036.064-.061.134-.096.199-.052.1-.113.193-.174.287-.095.146.062-.077.064-.082-.028.062-.113.128-.16.174a2.15 2.15 0 0 1-.116.105c-.207.176.172-.124-.002.005-.44.325-.907.639-1.411.858l.276-.117c-.22.091-.444.159-.68.196l.306-.041a8.634 8.634 0 0 1-2.248-.02l.3.04a8.42 8.42 0 0 1-1.218-.258 8.015 8.015 0 0 1-.547-.184c-.05-.02-.1-.043-.152-.061.298.105.183.079.113.048a5.775 5.775 0 0 1-1.03-.577c-.043-.031-.085-.065-.129-.094.297.2.082.062.015.005a4.516 4.516 0 0 1-.382-.362c-.066-.07-.128-.144-.19-.217l-.017-.02c.151.195.127.163-.074-.096-.077-.082-.064-.061.039.063a5.54 5.54 0 0 1-.077-.108c-.536-.782-.797-1.719-1.28-2.533a13.77 13.77 0 0 0-.816-1.219c-.305-.407-.63-.812-1.03-1.132-.683-.55-1.524-.844-2.407-.79-.848.052-1.664.34-2.389.776a6.917 6.917 0 0 0-1.939 1.761c-.489.645-.735 1.38-1.022 2.128-.034.09-.069.179-.105.268l-.035.085c.114-.29.032-.076.003-.012-.036.079-.08.156-.113.236l-.02.038c.146-.183.13-.16-.05.069-.023.035-.044.071-.068.106-.023.034-.046.069-.07.102-.126.174.087-.103.038-.048-.058.066-.113.134-.174.197-.057.06-.117.116-.179.17l-.08.067c-.06.053.236-.172.053-.045a3.2 3.2 0 0 1-.474.271c-.078.036-.245.081.073-.029-.065.023-.128.051-.193.074a7.061 7.061 0 0 1-.32.101c-.409.121-.814.271-1.24.329l.312-.042a3.41 3.41 0 0 1-.247.02l.315.042c-.08-.032-.166-.039-.247-.071l.293.124a.847.847 0 0 1-.125-.077l.253.195a1.552 1.552 0 0 1-.19-.2l.201.26c-.192-.251-.359-.523-.576-.755a8.177 8.177 0 0 1-.512-.592l.218.283c-.418-.552-.738-1.162-1.107-1.746a13.185 13.185 0 0 1-.977-1.876l.151.359a15.255 15.255 0 0 1-1.028-3.868l.054.4c-.155-1.189-.359-2.37-.52-3.558l.054.401c-.164-1.232-.274-2.491-.135-3.731l-.054.402c.036-.245.11-.478.186-.713a4.46 4.46 0 0 0 .214-1.068c.037-.507-.116-1.005-.066-1.512l-.054.402c.173-1.222.635-2.381.957-3.567.307-1.128.557-2.27.885-3.393a17.57 17.57 0 0 1 .66-1.894l-.153.364c.171-.401.35-.81.592-1.173.205-.308.456-.586.632-.913.287-.534.5-1.195.45-1.809a3.917 3.917 0 0 0-.153-.855 3.772 3.772 0 0 1-.14-.545l.055.417a2.18 2.18 0 0 1-.003-.567l-.057.419a1.86 1.86 0 0 1 .12-.439l-.16.377c.06-.134.135-.257.224-.374l-.247.319c.121-.151.26-.282.412-.4l-.318.246a4.38 4.38 0 0 1 .938-.519l-.376.159a7.25 7.25 0 0 1 1.767-.504l-.417.056c1.027-.134 2.066-.048 3.097-.096 1.033-.047 2.074-.151 3.104-.02l-.411-.056c.622.086 1.167.351 1.764.527.409.12.84.171 1.265.184.345.01.69-.001 1.033.042l-.407-.055c.523.079 1.046.231 1.559.359.509.128 1.012.277 1.496.48l-.35-.148c.603.26 1.19.549 1.81.77.515.183 1.038.336 1.563.483 1.052.295 2.12.56 3.13.98l-.311-.131c.66.28 1.27.65 1.883 1.021a41.59 41.59 0 0 1 1.778 1.141c.143.097.285.196.425.298.07.052.139.109.211.157-.019-.012-.196-.154-.054-.041l.133.106c.31.251.61.513.915.771.636.539 1.281 1.069 1.908 1.619.711.625 1.414 1.263 2.12 1.895.229.204.578.225.804 0 .227-.227.205-.574 0-.804Zm108.127-15.665c-2.113-.129-4.261-.64-6.373-.614-1.729.022-3.357.141-5.072.31-3.673.364-7.124 1.419-10.314 3.334-.949.57-1.911.998-2.793 1.665-1.061.803-2.371 1.414-3.361 2.277-.745.65-1.369 1.472-1.922 2.282-.425.623-1.328 1.673-1.357 2.442-.042 1.093 1.653 1.587 2.392 2.086.975.659 1.707 1.464 2.125 2.548.353.911.868 1.823.921 2.812.061 1.148-.257 2.783-.618 3.871-.311.939-.728 1.782-1.141 2.671-.514 1.105-1.124 1.821-2.033 2.658-.724.666-1.551 1.323-1.929 2.259-.127.313-.16 1.109-.066 1.406.164.524.094.291.598.42 1.478.38 3.03.397 4.568.32.889-.044 1.378-.596 2.123-1 .925-.502 2.02-1.185 2.676-2.024.44-.561.666-1.274 1.101-1.844.346-.453.792-.8 1.187-1.207.994-1.025 1.761-.979 3.16-.91.734.036 1.453.44 1.89 1.044.604.834.311 1.706 1.196 2.295.974.649 1.679.611 2.872.607.875-.003 1.703.107 2.439-.463.542-.42.683-1.066 1.06-1.607.278-.397.641-.696.911-1.098.705-1.052 1.143-2.266 1.704-3.389.211-.422.522-.853.654-1.309.145-.502.064-1.008.348-1.479.573-.951 1.875-1.917 2.914-2.151.746-.168 1.815-.601 2.581-.28.444.186.636.761 1.045 1.003.402.238.774.165 1.239.162 1.285-.008 2.214-.171 2.874-1.431.237-.451.431-1.084.303-1.607-.143-.587-.683-.958-.947-1.509-.568-1.182-1.266-2.227-1.66-3.497-.307-.988-.229-2.343.01-3.334.201-.832.15-1.68.152-2.557.003-1.366-.194-2.031-1.214-3.054-.747-.75-1.782-.866-2.72-1.282-.841-.373-2.456.203-3.039-.523"/><path fill="#0A0A0A" d="M148.057 114.702a24.057 24.057 0 0 1-1.193-.115.71.71 0 0 0-.094-.017l-.262-.048-.561-.107c-.734-.143-1.468-.292-2.208-.408-.792-.124-1.6-.234-2.402-.241-.745-.007-1.487-.016-2.232 0-2.876.062-5.751.396-8.501 1.27a26.462 26.462 0 0 0-4.012 1.665c-.615.314-1.2.685-1.806 1.014-.622.338-1.25.67-1.826 1.082-1.168.835-2.444 1.505-3.57 2.4-1.096.87-1.854 2.048-2.678 3.16-.333.45-.674.905-.905 1.418-.195.433-.328.816-.353 1.296-.021.427.105.845.296 1.222.512 1.011 1.621 1.443 2.548 1.968.208.118.403.257.593.402l-.289-.223c.396.307.755.653 1.063 1.048l-.224-.29c.266.351.485.731.657 1.137l-.145-.343c.202.495.412.987.62 1.479l-.145-.342c.205.49.389.988.467 1.516l-.051-.381c.075.59.022 1.194-.055 1.781l.052-.381a13.398 13.398 0 0 1-.923 3.388l.144-.341c-.446 1.051-.901 2.144-1.601 3.055l.223-.289c-.662.846-1.518 1.485-2.254 2.258a5.81 5.81 0 0 0-1.199 1.825c-.117.286-.14.606-.172.909-.029.271.003.538.039.807.051.378.145.678.314 1.028.096.2.246.361.419.495.154.119.288.201.484.257.212.062.534.085.743 0h-.712c.21.04.415.047.624.069l-.354-.047c.297.04.59.108.887.15.423.058.845.108 1.272.13.741.038 1.495.036 2.23-.067l-.307.041c.278-.004.556-.033.833-.058.313-.029.633-.056.932-.159.553-.19.998-.501 1.457-.851-.265.202.018-.002.083-.045a5.76 5.76 0 0 1 .261-.165c.195-.115.393-.227.586-.346.46-.285.9-.597 1.321-.936a6.161 6.161 0 0 0 1.091-1.127c.288-.389.498-.813.725-1.239a6.84 6.84 0 0 1 .182-.323c.048-.08.108-.227.184-.28l-.065.083.065-.08a5.984 5.984 0 0 1 .394-.418c.341-.332.679-.673 1.036-.986.145-.126-.145.093-.039.029.037-.021.071-.05.107-.074.069-.045.139-.088.212-.126.042-.023.085-.043.128-.064.154-.076-.188.063-.074.032.088-.023.173-.059.262-.081.081-.021.165-.03.247-.05-.307.075-.064.009.034.002.188-.013.376-.014.564-.011.214.004.428.014.642.025l.123.007c.21.009-.216-.05-.011-.003.118.026.233.051.348.09.02.007.204.081.058.018-.147-.064.036.02.053.029.09.045.178.096.262.152l.05.034a.727.727 0 0 0-.042-.035c.02-.004.097.082.115.098.039.035.282.236.27.286-.002.011-.126-.205-.036-.038.029.054.063.105.092.16a.68.68 0 0 0 .051.107l-.049-.118.039.105c.064.187.108.38.153.572.12.51.306.977.65 1.38.32.376.79.662 1.242.855.497.213.964.319 1.504.376.511.053 1.027.047 1.539.071.578.027 1.172.035 1.733-.129.739-.216 1.318-.665 1.763-1.283.29-.403.463-.874.765-1.269l-.193.251c.197-.247.424-.468.628-.709.249-.295.47-.608.669-.938.326-.543.597-1.118.863-1.692.265-.572.523-1.146.841-1.69.199-.342.375-.687.514-1.059.14-.379.16-.796.213-1.193l-.046.346a2.45 2.45 0 0 1 .141-.573l-.132.312c.083-.183.197-.346.319-.505l-.205.265a5.46 5.46 0 0 1 .918-.899l-.267.206c.376-.288.78-.536 1.217-.722l-.319.134c.319-.13.65-.197.981-.285.373-.098.745-.199 1.128-.252l-.359.048c.221-.026.441-.035.663-.009l-.361-.049c.134.021.26.053.385.103l-.325-.137c.063.03.119.063.176.103l-.276-.213c.124.099.226.216.324.34a51.447 51.447 0 0 1-.214-.276c.294.391.57.76.99 1.027.445.284.99.393 1.512.386.685-.009 1.387-.021 2.058-.175a3.542 3.542 0 0 0 1.78-1.017c.55-.598.984-1.389 1.115-2.195.058-.361.087-.664.039-1.021a2.983 2.983 0 0 0-.281-.927c-.19-.406-.519-.739-.795-1.088l.209.27c-.358-.464-.589-1.032-.869-1.546-.297-.542-.592-1.086-.836-1.654l.131.311c-.196-.466-.356-.938-.428-1.44l.046.343a7.058 7.058 0 0 1 .009-1.831l-.046.341c.046-.337.128-.664.193-.997.093-.481.142-.973.155-1.463.019-.699.044-1.423-.037-2.119-.082-.707-.251-1.376-.644-1.982-.441-.679-1.03-1.325-1.732-1.738-.73-.431-1.569-.614-2.346-.936l.314.133c-.194-.083-.383-.18-.585-.239-.196-.058-.41-.077-.609-.102a4.998 4.998 0 0 0-.659-.031c-.449.003-.915.055-1.362-.005l.339.046a1.532 1.532 0 0 1-.327-.087l.298.126c-.074-.033-.139-.081-.212-.114l.248.191a.994.994 0 0 1-.083-.089c-.192-.227-.578-.358-.865-.358-.3 0-.658.133-.865.358-.479.522-.442 1.206 0 1.73.027.031.054.06.083.088a41.08 41.08 0 0 0-.191-.247c.456.728 1.322.927 2.117.999.492.044.986-.039 1.479.023l-.349-.047c.143.021.282.053.416.109l-.314-.133c.656.284 1.343.472 2.003.744l-.313-.132c.284.121.552.264.797.452l-.264-.204c.284.227.533.503.758.787a26.231 26.231 0 0 1-.203-.263c.17.221.318.455.431.711l-.131-.31c.111.262.179.534.219.815l-.046-.345c.059.451.051.905.056 1.358.006.55.012 1.099-.056 1.645l.046-.342c-.039.287-.112.567-.164.852a11.59 11.59 0 0 0-.151 1.131 8.278 8.278 0 0 0 .081 2.007c.106.669.384 1.307.659 1.921.248.554.539 1.087.819 1.626.153.293.29.596.444.888.186.349.459.649.701.959l-.21-.271c.128.168.246.338.332.531l-.135-.321c.045.111.075.222.095.34l-.048-.358c.02.173.016.341-.006.514l.048-.359a3.14 3.14 0 0 1-.196.692l.136-.322c-.115.27-.258.524-.436.758l.212-.274a2.52 2.52 0 0 1-.413.419l.274-.212c-.145.11-.3.2-.467.274l.324-.137a3.09 3.09 0 0 1-.758.198l.362-.049a6.816 6.816 0 0 1-.769.051c-.308.005-.622.032-.929-.002l.363.049a1.521 1.521 0 0 1-.297-.075l.326.138a1.405 1.405 0 0 1-.263-.145l.277.214c-.216-.172-.364-.405-.544-.611a2.406 2.406 0 0 0-1.182-.736c-.817-.22-1.674-.047-2.469.174-.668.187-1.317.358-1.931.695a6.807 6.807 0 0 0-1.737 1.361c-.281.308-.571.652-.753 1.031a2.906 2.906 0 0 0-.273.821c-.046.288-.072.578-.11.867l.046-.345c-.03.203-.08.396-.156.587l.13-.309c-.171.398-.41.761-.598 1.15-.188.391-.361.788-.537 1.185-.347.784-.697 1.602-1.213 2.293l.195-.252c-.295.378-.63.718-.916 1.106-.256.346-.442.756-.602 1.154l.124-.293c-.05.104-.102.208-.16.309a2.766 2.766 0 0 1-.157.242c.124-.157.156-.201.096-.13-.043.043-.081.088-.126.129-.182.169.141-.087.036-.022-.12.075-.234.146-.364.204l.28-.118c-.21.087-.427.141-.651.175l.305-.041c-.378.05-.759.046-1.14.056-.372.01-.744.033-1.116.029a6.43 6.43 0 0 1-.481-.027c-.17-.016.128.016.126.017-.02.005-.078-.013-.103-.018a2.876 2.876 0 0 1-.256-.06c-.087-.024-.171-.055-.257-.084-.079-.027-.102-.083.089.04-.03-.02-.075-.034-.106-.05a3.254 3.254 0 0 1-.219-.114c-.026-.014-.257-.179-.276-.171.042-.018.179.153.043.024-.034-.032-.064-.067-.097-.1-.074-.076.018-.064.058.075-.007-.025-.045-.069-.057-.088-.034-.057-.056-.125-.093-.18.127.187.063.164.031.069l-.05-.145c-.121-.369-.227-.736-.398-1.088-.398-.817-1.165-1.419-2.008-1.721-.403-.144-.833-.167-1.256-.187a7.819 7.819 0 0 0-.956-.003 3.713 3.713 0 0 0-2.11.819c-.299.236-.556.519-.834.778-.351.327-.679.659-.961 1.049-.238.328-.415.692-.605 1.049a6.924 6.924 0 0 1-.267.466c-.03.047-.061.093-.093.139-.111.157.021.013.008-.012.009.017-.191.211-.206.227a6.118 6.118 0 0 1-.468.428c-.033.026-.073.052-.101.081.168-.171.045-.035-.011.006-.088.064-.177.127-.267.189-.356.242-.728.46-1.107.665a28.79 28.79 0 0 0-1.053.599 7.64 7.64 0 0 1-.249.143l-.126.067c-.037.019-.234.106-.052.03.164-.068.038-.016-.003-.001a2.371 2.371 0 0 1-.487.12l.294-.039c-.494.053-1.011.014-1.505-.006a17.385 17.385 0 0 1-1.546-.13l.331.044a11.785 11.785 0 0 1-1.355-.263c-.186-.048-.37-.115-.558-.153-.194-.038-.391-.05-.586-.074l.355.048-.016-.003.8.615a1.942 1.942 0 0 0-.515-.508l.273.211a.115.115 0 0 1-.021-.023l.211.274a.231.231 0 0 1-.018-.035l.136.324a1.796 1.796 0 0 1-.096-.359l.05.366c-.043-.32.002-.654.043-.972l-.051.379a1.76 1.76 0 0 1 .111-.429l-.144.341c.118-.268.269-.513.445-.747l-.223.289c.595-.764 1.39-1.34 2.059-2.034a9.28 9.28 0 0 0 1.738-2.532c.491-1.05 1-2.104 1.326-3.22.297-1.021.488-2.095.548-3.156a5.928 5.928 0 0 0-.184-1.913c-.186-.678-.497-1.317-.77-1.962l.145.342c-.266-.633-.495-1.272-.901-1.832-.387-.532-.81-1.007-1.328-1.414a7.997 7.997 0 0 0-1.358-.886c-.391-.197-.785-.393-1.136-.656l.287.221a2.187 2.187 0 0 1-.374-.358l.221.286a1.344 1.344 0 0 1-.166-.274l.142.337a1.126 1.126 0 0 1-.074-.267l.05.375a1.197 1.197 0 0 1 .005-.299l-.051.375c.028-.164.08-.32.145-.473l-.142.336c.22-.498.543-.942.862-1.38.342-.47.662-.956 1.017-1.417l-.218.282c.467-.6.981-1.157 1.582-1.625l-.281.217c.531-.408 1.103-.756 1.671-1.109.578-.36 1.119-.761 1.68-1.144.575-.392 1.192-.715 1.799-1.054.611-.341 1.205-.71 1.82-1.044a23.65 23.65 0 0 1 2.086-1.004l-.314.133a25.384 25.384 0 0 1 6.434-1.728l-.323.043c.592-.079 1.199-.106 1.786-.216l-.316.042c1.358-.178 2.717-.288 4.08-.402 1.365-.115 2.74.015 4.101.116.783.058 1.566.138 2.35.182.363.02.709-.333.693-.693-.018-.398-.305-.666-.693-.694ZM40.85 30.325c.076-.141.155-.275.203-.43l-.628.627a.617.617 0 0 1 .073-.012l-.241.032c.318-.037.631.05.95.04.32-.01.619-.106.933-.152l-.298.04c.278-.036.57.007.848.02.319.017.637.031.957.038.386.008.769-.042 1.147-.116.283-.055.562-.126.848-.167l-.34.046c.66-.09 1.328-.12 1.988-.225.278-.044.555-.095.83-.158.272-.063.539-.134.816-.171l-.36.048c.459-.06.923-.064 1.385-.051.46.012.932.071 1.39.014.187.008.361-.031.523-.116.168-.055.314-.149.437-.281.235-.236.413-.622.397-.96-.015-.351-.13-.715-.397-.96l-.275-.213a1.352 1.352 0 0 0-.685-.185 17.695 17.695 0 0 1-.144-.019l.365.05A5.573 5.573 0 0 0 50.88 27l-.366-.006a29.211 29.211 0 0 0-.737-.007 9.58 9.58 0 0 0-1.74.161c-.239.046-.47.119-.707.177-.243.06-.487.11-.733.155-.475.087-.949.176-1.425.257-.515.088-1 .294-1.517.37l.327-.044c-.509.068-1.034.056-1.546.067a3.434 3.434 0 0 0-.64.064c-.135.028-.258.08-.385.134-.2.085-.385.194-.584.28l.251-.106c-.223.091-.46.116-.696.157a1.86 1.86 0 0 0-.35.092c-.224.086-.4.162-.552.36-.201.26-.217.542-.16.85l-.03-.234.016.18c.017.188.06.348.178.501a.79.79 0 0 0 .43.297c.351.08.755-.05.935-.38Zm-.413 5.698c.3.009.596.063.896.07.3.008.65-.02.91-.185.21-.132.376-.318.547-.494a3.676 3.676 0 0 1 .172-.165l.035-.03c.042-.039-.099.067-.052.04.018-.01.035-.023.052-.034.023-.013.094-.044-.003-.003-.098.041-.02.013.005.005.017-.006.079-.012-.017 0-.137.017.104-.015.114-.017.054-.01.143-.006-.036 0 .022 0 .044-.004.065-.005.02 0 .04.002.06.001.02 0 .077.01-.036-.006-.113-.015-.044-.007-.022 0 .013.004.034.015.047.015-.013 0-.149-.07-.075-.029.08.044-.081-.073-.056-.047.011.013.025.023.037.036.009.009.02.028.03.034-.022-.012-.094-.136-.046-.055.018.03.036.06.052.091.036.069.066.14.1.21.087.181.202.36.357.492.262.22.567.324.908.34.555.025 1.13-.19 1.618-.437.403-.203.725-.538 1.12-.756.01-.005.14-.063.14-.07 0 .004-.118.043-.077.034l.031-.012c.027-.009.053-.016.08-.023l.03-.006c.035-.012-.097.014-.098.013.01.008.06-.002.074-.002.024 0 .141.013.033-.002-.104-.015 0 .001.026.007.027.007.053.016.08.025l.033.012c-.002.005-.114-.055-.077-.031.046.029.095.05.14.081l.056.04c.028.02-.11-.09-.036-.027.042.037.084.072.125.11.191.17.385.351.615.47.29.15.591.207.913.237.263.024.53.019.791-.012.312-.037.603-.089.886-.234.233-.12.435-.297.64-.458l.03-.024c.01-.007-.104.078-.058.045l.073-.054c.044-.032.089-.064.135-.093.045-.029.092-.056.14-.08l.032-.016c.046-.026-.077.04-.073.03.006-.014.077-.028.09-.032a.876.876 0 0 1 .07-.017l.036-.007c.045-.012-.084.017-.084.011.002-.02.317.023.058-.013l-.396-.519c.042.381.127.798.432 1.063.294.255.644.298 1.016.239.284-.045.552-.169.814-.28l.165-.071.052-.022c.054-.023-.115.045-.045.02.056-.02.112-.042.17-.06.096-.029.194-.052.293-.07l.07-.012c.093-.015-.021.005-.033.005.058 0 .12-.013.177-.018.24-.017.482-.014.723-.008.27.007.541-.04.808-.079.182-.027.333-.25.325-.427-.008-.177-.13-.4-.325-.427-.226-.031-.454-.091-.681-.104a8.594 8.594 0 0 0-.599-.012c-.424.006-.864.053-1.26.214-.224.09-.445.192-.677.263a1.97 1.97 0 0 1-.157.042l-.066.013c-.094.019.155-.011.04-.006-.047.002-.093.001-.14 0-.062 0 .092.012.092.013-.001-.002-.026-.004-.032-.006-.01-.003-.07-.027-.077-.023.002-.001.116.055.091.038-.01-.008-.024-.013-.035-.02-.093-.05.104.1.029.025-.02-.02-.084-.098-.017-.012.068.088.003-.001-.01-.025-.008-.012-.013-.025-.02-.037-.042-.076.047.135.02.047-.01-.03-.021-.06-.03-.092a1.513 1.513 0 0 1-.03-.131c-.002-.012-.013-.05-.01-.058l.011.082a2.321 2.321 0 0 1-.006-.064.59.59 0 0 0-.116-.326c-.065-.084-.17-.177-.28-.194a1.568 1.568 0 0 0-.57.005 1.56 1.56 0 0 0-.401.152c-.233.119-.436.295-.64.456-.07.056.099-.075.027-.021l-.072.054c-.045.032-.09.063-.136.093a1.61 1.61 0 0 1-.14.08c-.047.023-.126.033.03-.01-.028.008-.054.02-.08.028a1.887 1.887 0 0 1-.24.054c-.043.008-.176.022.005.002a3.758 3.758 0 0 1-.79.02c-.035-.003-.07-.008-.104-.01-.056-.005.076.012.073.01-.008-.005-.033-.005-.042-.006a2.074 2.074 0 0 1-.185-.037c-.043-.011-.127-.022-.16-.05-.008-.007.119.054.067.028l-.036-.017a1.277 1.277 0 0 1-.08-.044c-.048-.028-.093-.06-.139-.091-.072-.051.098.08.03.023l-.075-.064c-.186-.162-.364-.34-.577-.468a1.423 1.423 0 0 0-.962-.18c-.24.038-.472.168-.673.3-.205.132-.397.283-.596.425a3.009 3.009 0 0 1-.493.29l-.088.036a2.999 2.999 0 0 1-.554.162c-.01.002-.084.009-.086.015 0 0 .126-.015.074-.01l-.043.005c-.065.006-.13.008-.195.007-.032-.001-.063-.005-.095-.006-.056-.004.089.006.08.01-.005.004-.032-.005-.038-.006-.025-.006-.05-.011-.075-.019-.013-.003-.025-.008-.037-.01-.088-.023.093.048.05.022-.04-.024-.079-.044-.117-.068-.029-.018.114.101.042.03-.016-.016-.032-.031-.047-.048-.035-.038-.063-.103.032.046l-.032-.045a1.3 1.3 0 0 1-.065-.11c-.07-.132-.12-.277-.204-.402-.146-.218-.351-.401-.617-.453-.327-.064-.684-.006-.951.2-.212.164-.355.394-.502.614a5.956 5.956 0 0 1-.088.129c-.012.017-.072.095-.024.034.047-.06-.014.016-.026.03-.032.037-.07.068-.103.103-.027.028.047-.036.047-.036-.008.001-.019.013-.025.016l-.025.015c-.012.006-.094.039-.039.019.05-.018-.043.013-.058.017a1.06 1.06 0 0 1-.096.021l-.049.009c.083-.015.025-.004.006-.002l-.119.008c-.154.008-.31.004-.464 0a5.81 5.81 0 0 0-.432-.002c-.186.009-.365.158-.356.356.009.198.156.35.356.357Zm.696 4.516c.382-.06.83-.102 1.262-.123.437-.023.875-.027 1.313-.025.885.006 1.77.044 2.654.038.888-.005 1.778-.058 2.65-.225.212-.04.422-.086.635-.117.023-.004.048-.01.07-.01a.306.306 0 0 0-.008 0 10.734 10.734 0 0 1 .483-.049c.432-.033.865-.04 1.298-.036.481.006.962.019 1.442.035.48.016.97.058 1.45.023.23-.016.455-.191.443-.442-.011-.255-.195-.425-.443-.443-.426-.031-.857-.023-1.284-.038-.438-.014-.875-.03-1.312-.036-.883-.01-1.78.04-2.646.221-.208.043-.413.094-.621.132a10.725 10.725 0 0 1-.453.073c-.081.012-.016.002 0 0l-.11.014c-.436.053-.875.083-1.314.1-.883.035-1.767.018-2.651.025-1.017.009-2.035.054-3.037.233-.174.03-.288.252-.235.414.061.19.227.265.414.236Zm-.393 4.266c1.303.033 2.604.077 3.906.132.65.027 1.302.067 1.953.08.651.014 1.302.023 1.953.035l1.077.019c.372.006.744-.025 1.116-.045.296-.016.582-.25.568-.568a.58.58 0 0 0-.569-.568c-.33-.018-.665-.052-.996-.047l-.956.017-1.953.034c-1.303.023-2.605.102-3.907.157-.73.03-1.461.042-2.192.06-.18.005-.355.157-.346.347a.354.354 0 0 0 .346.347Zm43.912 34.046c.021-.015.043-.026.065-.038.128-.07.204-.166.29-.278l-.108.139a.582.582 0 0 1 .087-.082l-.15.115a.593.593 0 0 1 .107-.058l-.189.08a.517.517 0 0 1 .046-.016l-.216.029c.085-.004.187-.014.268-.039l-1.03-1.03a.681.681 0 0 1-.026.073l.09-.213a.862.862 0 0 1-.018.038l.145-.187c-.037.029-.13.157-.157.198a.96.96 0 0 0-.128.476c0 .027.004.054.004.08.002.065-.001.13-.005.195-.009.13-.024.261-.033.392-.027.399.025.83.24 1.175.147.237.354.447.602.579.348.185.695.185 1.073.112.334-.065.674-.23.981-.366a1.53 1.53 0 0 0 .478-.329c.13-.132.192-.27.298-.407l-.178.23a1.47 1.47 0 0 1 .247-.237l-.234.18a1.34 1.34 0 0 1 .271-.153l-.28.117c.127-.05.257-.08.391-.098l-.313.042c.395-.049.793 0 1.188.03.488.038.98.032 1.47.042 1.09.025 2.18.055 3.27.082.542.013 1.08.1 1.62.104l1.62.013 1.624.013c.36.003.724.023 1.083-.003.268-.02.534-.055.802-.071.144-.009.289-.013.434-.005.063.003.129.017.192.016a3.21 3.21 0 0 0 .532-.062h-.722c.14.032.288.039.431.057l-.357-.048c.053.008.104.02.153.04l-.311-.131c.03.013.057.028.084.047l-.259-.2c.095.074.188.171.294.226l-.453-.452c.13.226.292.334.492.485l-.251-.193c.02.016.038.033.054.053l-.186-.24c.022.029.04.06.054.094l-.113-.268a.862.862 0 0 1 .032.1c.091.355.388.642.74.74.382.105.741-.02 1.03-.273.492-.432.658-1.195.327-1.772l.172.637c-.012-.411-.185-.745-.452-1.042a.811.811 0 0 0-.075-.073 4.121 4.121 0 0 0-.304-.234c-.018-.013-.035-.026-.055-.035l.274.212c-.448-.475-1.141-.547-1.757-.552a8.658 8.658 0 0 0-.815.041c-.459.04-.926.018-1.386.022l-1.867.015-.96.007a12.27 12.27 0 0 0-.92.052c-.32.026-.639.049-.96.057l-.96.024-1.873.046c-.572.015-1.148.046-1.72.026-.263-.009-.525-.026-.788-.02-.334.008-.686.037-1.004.146-.407.14-.773.35-1.045.688-.1.124-.217.258-.288.405-.021.045-.038.09-.067.13l.175-.227a.471.471 0 0 1-.075.074l.226-.175a3.41 3.41 0 0 1-.715.394l.255-.108a1.12 1.12 0 0 1-.241.074l.28-.038a.442.442 0 0 1-.091.004l.278.037a.294.294 0 0 1-.069-.019l.25.105a.694.694 0 0 1-.137-.077l.21.162a.629.629 0 0 1-.103-.102l.16.207a.731.731 0 0 1-.082-.14l.103.242a1.197 1.197 0 0 1-.075-.292l.036.265c-.02-.154-.023-.308-.028-.463a4.747 4.747 0 0 0-.07-.661c-.057-.33-.367-.56-.659-.66l-.008-.002.41.238a1.878 1.878 0 0 0-.272-.211.847.847 0 0 0-.645-.085.941.941 0 0 0-.5.385.876.876 0 0 0-.105.241l.081-.194c-.097.205-.173.411-.158.643.013.202.06.394.214.54a.973.973 0 0 0 .198.148c.15.082.368.106.515 0Zm-.258 7.389c.17.01.338-.007.508-.008a5.25 5.25 0 0 0 .445-.028c.102-.01.204-.017.305-.033l.111-.019.048-.008c.083-.013-.054.005 0 0 .167-.016.332-.024.5-.019.372.013.738.085 1.11.105.364.02.725.014 1.088-.022.445-.044.887-.117 1.33-.177l-.156.02c.243-.032.486-.06.73-.074.234-.014.464-.002.697.007.257.01.526-.009.775-.08.128-.037.257-.09.374-.153.078-.041.15-.09.23-.127l-.144.06a.791.791 0 0 1 .203-.055l-.156.02a3.8 3.8 0 0 0 .334-.04c.21-.034.367-.262.393-.456a.552.552 0 0 0-.262-.547c-.25-.15-.555-.156-.833-.086-.184.046-.354.138-.528.213l.15-.063c-.122.05-.249.078-.378.096l.164-.022c-.228.027-.457.01-.686.013-.293.004-.586.045-.876.085-.5.07-.994.177-1.494.245l.152-.02c-.731.096-1.467.025-2.199.116-.382.048-.752.13-1.1.299l-.192.093a5.803 5.803 0 0 1-.181.081c-.155.06-.297.078-.462.084-.323.01-.32.481 0 .5Zm1.213 3.547 1.213.06c.405.02.807.048 1.212.036.292-.01.573-.25.559-.559a.57.57 0 0 0-.559-.558c-.405-.013-.807.015-1.212.035l-1.213.061c-.241.012-.474.204-.462.462.012.261.203.45.462.463Zm.233 17.812a9.042 9.042 0 0 0-.81 1.561c-.223.565-.4 1.176-.353 1.791.027.36.113.694.276 1.017.137.272.35.478.595.654.227.163.496.274.76.361.288.095.585.141.887.163.575.041 1.16-.029 1.681-.288.546-.272.998-.774 1.264-1.318.296-.606.423-1.273.307-1.941-.092-.529-.512-1.039-1.095-.988-.558.049-.991.438-1.277.899-.057.093-.106.19-.149.291-.04.092-.086.191-.115.289-.077.259.016.509.205.693.17.165.362.269.582.348.17.062.375.1.555.088.186-.013.374-.048.554-.098a.597.597 0 0 0 .428-.655c-.038-.281-.289-.53-.587-.517a3.687 3.687 0 0 1-.585-.03l.171.023a1.192 1.192 0 0 1-.275-.073l.152.064a.892.892 0 0 1-.172-.099l.129.1a1.015 1.015 0 0 1-.108-.099l.162.615a2.19 2.19 0 0 1 .082-.231l-.064.15a2.01 2.01 0 0 1 .245-.428l-.097.125c.076-.097.16-.186.258-.262l-.125.097a.914.914 0 0 1 .199-.117l-.146.061a.676.676 0 0 1 .14-.039l-.162.022a.482.482 0 0 1 .12-.001l-.161-.022a.386.386 0 0 1 .1.028l-.145-.061c.023.011.045.031.069.04-.001-.001-.134-.119-.085-.063l.03.031c.056.053-.06-.077-.06-.08.001.008.022.033.027.04a.855.855 0 0 1 .047.095l-.06-.143c.032.081.05.163.063.248l-.022-.159c.027.2.022.403-.004.602l.022-.16c-.033.23-.096.453-.185.668l.062-.145c-.093.216-.21.419-.353.605l.096-.124c-.126.16-.268.305-.43.431l.126-.097a2.152 2.152 0 0 1-.448.262l.149-.063a2.01 2.01 0 0 1-.494.131l.167-.023a3.763 3.763 0 0 1-.984-.01l.17.023c-.118-.016-.234-.037-.352-.05l.169.023a3.06 3.06 0 0 1-.765-.198l.143.061a1.857 1.857 0 0 1-.172-.083c-.053-.029-.116-.092-.172-.109-.003-.001.125.102.065.05l-.033-.028a.989.989 0 0 1-.062-.059c-.02-.02-.038-.041-.056-.062-.03-.035-.029-.07.05.065-.01-.018-.025-.036-.036-.054a1.81 1.81 0 0 1-.115-.201c-.01-.021-.024-.043-.03-.065 0 .003.052.135.023.052-.015-.041-.03-.081-.043-.122a2.11 2.11 0 0 1-.056-.22c-.004-.02-.025-.16-.012-.057.012.089.003.021 0-.002a2.927 2.927 0 0 1-.002-.57c.005-.039.011-.079.014-.118 0 .008-.019.125-.005.041l.01-.06a4.336 4.336 0 0 1 .282-.969c.008-.017.014-.04.024-.056-.055.096-.017.04-.004.01l.055-.124a9.82 9.82 0 0 1 .499-.94c.116-.195.05-.484-.156-.593a.443.443 0 0 0-.593.156Z"/><path fill="#FFB400" d="M105.312 30.98a.91.91 0 0 0-.097.007l.323.133-.04-.038c-.194-.19-.522-.246-.758-.098a.99.99 0 0 0-.421.536c-.068.196-.05.391-.019.59.048.314.231.608.465.819.317.286.734.46 1.166.444.481-.018.889-.22 1.258-.515.365-.292.604-.692.774-1.12l.029-.217-.029-.217a.806.806 0 0 0-.293-.424.816.816 0 0 0-.907-.064c-.268.164-.54.343-.687.632-.22.432-.161.92.165 1.284.388.432 1.007.506 1.548.568.499.057.996.037 1.496.01.496-.027.991-.047 1.488-.055.547-.009 1.097-.037 1.642.032l-.244-.033c.339.046.65.149.975.251.374.12.768.174 1.157.222.304.037.611.051.917.055.336.003.673-.06 1.006-.103.195-.025.383-.063.524-.217a.763.763 0 0 0 .204-.426.71.71 0 0 0-.088-.472c-.097-.151-.257-.313-.443-.341-.338-.05-.678-.12-1.017-.152-.265-.025-.53-.039-.794-.074l.234.032a6.92 6.92 0 0 1-1.318-.323 4.695 4.695 0 0 0-.695-.196 6.88 6.88 0 0 0-.908-.104c-.481-.022-.964-.002-1.446 0-.485.001-.968.035-1.452.054-.538.02-1.086.039-1.621-.027l.24.032a1.423 1.423 0 0 1-.355-.09l.213.09a.715.715 0 0 1-.139-.078l.18.139a.516.516 0 0 1-.073-.07l.138.178a.276.276 0 0 1-.032-.053l.088.21a.294.294 0 0 1-.017-.058l.031.231a.342.342 0 0 1 .001-.064l-.031.23a.55.55 0 0 1 .02-.07l-.086.205a.589.589 0 0 1 .068-.116l-.132.17c.059-.074.127-.14.201-.198l-.165.128.032-.022-1.2-.923a2.93 2.93 0 0 1-.05.133l.082-.194a2.008 2.008 0 0 1-.235.402l.125-.162a1.842 1.842 0 0 1-.328.33l.16-.123a1.5 1.5 0 0 1-.289.17l.186-.079a1.168 1.168 0 0 1-.286.079l.205-.028a1.02 1.02 0 0 1-.242-.002l.203.027a1.028 1.028 0 0 1-.217-.06l.18.077a.922.922 0 0 1-.193-.111l.152.117a1.228 1.228 0 0 1-.198-.2l.116.15c-.066-.087-.135-.173-.204-.259l.114.147a.888.888 0 0 1-.109-.178l.07.166a.596.596 0 0 1-.037-.132l.024.178a.335.335 0 0 1 .001-.095l-.024.174a.416.416 0 0 1 .016-.06l-.064.153a.329.329 0 0 1 .04-.07l-.099.127c.133-.165.211-.324.185-.538l-.227.395c-.132.056-.045.02-.015.011a.445.445 0 0 0 .317-.486.44.44 0 0 0-.435-.384Zm-4.244 6.54 1.829.077c.61.026 1.219.04 1.829.044a26.27 26.27 0 0 1 1.793.053c.58.043 1.158.109 1.737.166.327.033.655.063.984.084.166.01.331.02.497.025.078.003.154.006.232-.002.147-.016.265-.071.393-.14.257-.14.257-.543 0-.682-.085-.046-.171-.102-.265-.126a1.264 1.264 0 0 0-.283-.028 17.372 17.372 0 0 1-.46-.015 24.853 24.853 0 0 1-.872-.058c-.578-.047-1.156-.107-1.735-.148a22.93 22.93 0 0 0-1.782-.048c-.611.004-1.219.01-1.829.036-.689.03-1.379.058-2.068.087-.176.008-.345.15-.337.337a.344.344 0 0 0 .337.337Zm-1.516 4.407c.325.014.649.034.974.041.368.009.732-.027 1.096-.085.584-.093 1.143-.309 1.73-.389l-.161.022a2.84 2.84 0 0 1 .704-.003l-.163-.022c.561.076 1.099.3 1.644.446.65.175 1.313.276 1.984.175a1.83 1.83 0 0 0 1.023-.486c.308-.302.187-.924-.268-1.014-.155-.03-.299-.059-.457-.013a.56.56 0 0 0-.368.33c-.065.152-.076.363.028.506.068.093.127.174.23.235.031.02.067.034.1.051v-1.047a1.9 1.9 0 0 1-.139.068l.149-.063c-.113.046-.224.1-.337.147l.152-.064a1.903 1.903 0 0 1-.453.118l.17-.023a3.25 3.25 0 0 1-.836-.016l.171.023c-.631-.088-1.239-.271-1.854-.432-.376-.098-.764-.172-1.155-.155a4.89 4.89 0 0 0-1.15.215c-.44.128-.875.26-1.33.322l.153-.02c-.543.07-1.091.095-1.637.131-.26.018-.513.218-.5.5.012.282.22.49.5.502Zm-2.728 9.753c.22 0 .45-.095.606-.25a.87.87 0 0 0 .25-.606c-.02-.465-.376-.857-.856-.857-.22 0-.45.095-.606.25a.87.87 0 0 0-.251.607c.02.464.376.857.857.857Z"/><path fill="#0A0A0A" d="M41.671 140.397c-.04.246-.113.484-.208.715.058-.141-.116.208-.045.083a15.066 15.066 0 0 1-.315.512c-.322.501-.636.991-.858 1.548-.45 1.128-.616 2.378-.718 3.582l.043-.322c-.252 1.818.815 3.416 2.05 4.637 1.182 1.17 2.565 2.177 4.09 2.849.491.216.978.416 1.51.504.32.053.643.094.967.114.236.015.474.011.71.038l-.36-.048c.382.054.746.178 1.122.26.49.107.999.163 1.499.112.903-.092 1.746-.377 2.63-.562.846-.178 1.664-.34 2.425-.781.522-.301 1.027-.641 1.53-.975.646-.429 1.317-.87 1.9-1.383l-.247.191a11.848 11.848 0 0 0 2.405-2.42c.6-.803 1.092-1.748 1.32-2.727.255-1.1.338-2.419-.51-3.29-.4-.412-.947-.703-1.443-.983a5 5 0 0 0-2.053-.66c-1.092-.099-2.314.017-3.227.68-1.085.788-1.657 2.066-2.034 3.32-.39 1.297-.53 2.646-.332 3.988.185 1.255.712 2.458 1.32 3.562 1.108 2.016 2.797 3.864 4.862 4.92a8.544 8.544 0 0 0 1.703.666c.556.146 1.13.199 1.688.336 1.192.294 2.345.74 3.588.771.72.018 1.425-.148 2.128-.281.638-.121 1.286-.226 1.904-.428 1.16-.378 2.13-1.096 3.202-1.654.614-.319 1.18-.68 1.692-1.15.456-.419.885-.867 1.344-1.285.983-.896 1.764-1.95 2.46-3.078.635-1.03 1.239-2.111 1.54-3.292a7.79 7.79 0 0 0 .224-1.919c0-.617.015-1.213-.28-1.773-.445-.848-.885-1.699-1.722-2.223a6.276 6.276 0 0 0-1.608-.691 5.757 5.757 0 0 0-1.098-.189c-.303-.025-.616-.088-.92-.059-.548.052-1.012.373-1.549.449-.175.025-.27.248-.228.403.051.188.227.253.402.228.271-.038.535-.082.804-.138.241-.051.461-.029.691.054.307.11.606.243.912.358.318.12.661.174.984.285.07.024.14.049.208.076-.002-.001.11.045.052.02a5.47 5.47 0 0 1 .406.196c.093.05.182.103.27.161.027.019.167.091.078.053-.067-.029-.025-.021 0 .001a2.334 2.334 0 0 1 .261.247c.035.037.066.075.098.113.05.059.008-.003 0-.001a4.917 4.917 0 0 1 .358.609c.113.222.22.446.335.667.022.042.04.089.065.129.041.066-.044-.085-.032-.08.006.003.018.048.02.055.014.046.028.091.039.138l.012.066c.02.076-.01-.152-.004-.012.013.323 0 .645-.003.968a6.748 6.748 0 0 1-.051.782c.01-.072.01-.065-.002.003a7.331 7.331 0 0 1-.206.88 7.592 7.592 0 0 1-.201.571c-.008.02-.058.144-.023.059.032-.079-.02.045-.026.058-.239.543-.53 1.061-.84 1.567a16.88 16.88 0 0 1-1.023 1.536c.082-.106-.055.068-.077.095a12.765 12.765 0 0 1-1.164 1.244c-.466.432-.944.848-1.41 1.28a8.319 8.319 0 0 1-.519.45c.123-.098-.035.025-.08.056-.268.187-.557.34-.85.486a26.62 26.62 0 0 0-1.63.891 10.25 10.25 0 0 1-.888.471l-.08.035c-.137.062.027-.015.046-.019-.13.028-.261.102-.389.144-.624.208-1.28.312-1.925.433-.342.063-.683.13-1.025.191-.019.003-.136.025-.024.004.118-.022-.027.002-.057.005a5.126 5.126 0 0 1-1.119-.02c-.1-.011.07.007.073.009-.017-.012-.074-.011-.095-.015a10.92 10.92 0 0 1-1.087-.251c-.573-.16-1.14-.345-1.721-.478-.564-.129-1.138-.185-1.694-.354a8.03 8.03 0 0 1-.541-.19c-.03-.012-.153-.065-.035-.013.117.053-.012-.005-.035-.015a8.343 8.343 0 0 1-.734-.37 9.353 9.353 0 0 1-.878-.568c-.033-.025-.203-.155-.109-.08.098.077-.057-.045-.081-.065a11.443 11.443 0 0 1-1.793-1.812l-.077-.098c-.076-.095.097.131.026.033-.163-.223-.326-.445-.478-.676a13.421 13.421 0 0 1-1.037-1.905l-.055-.125c-.008-.018-.054-.125-.008-.018.046.106 0 0-.007-.019a8.47 8.47 0 0 1-.345-1.009 8.387 8.387 0 0 1-.182-.875c-.017-.104.01.073.01.076.008-.023-.011-.103-.014-.133a6.67 6.67 0 0 1 .005-1.374l.015-.135c.014-.124.009.002-.007.051.042-.131.044-.286.07-.421a9.977 9.977 0 0 1 .515-1.789l.038-.094c.039-.099-.027.064-.028.067.025-.084.073-.166.11-.245a6.87 6.87 0 0 1 .425-.779c.035-.054.096-.116.12-.176.001-.001-.123.15-.057.074l.055-.067c.09-.106.19-.205.294-.297.02-.016.046-.033.063-.052.005-.006-.168.122-.086.066.051-.035.1-.072.153-.105.104-.066.212-.12.322-.175.142-.072-.22.077-.01.006l.148-.05c.118-.037.238-.066.36-.09.061-.012.124-.019.185-.031.012-.003-.226.025-.12.017l.082-.009c.138-.012.277-.019.416-.02.26-.002.52.018.779.044.029.003.135.017-.006-.002-.153-.02-.003.002.036.009a2.803 2.803 0 0 1 .415.11c.038.013.262.098.123.045-.146-.056.082.042.117.06.068.034.135.07.202.107.136.077.27.158.403.241.236.147.463.317.701.458.013.008-.178-.15-.107-.081.022.021.047.039.07.059.033.029.065.059.095.091.014.013.077.105.097.108-.007-.001-.126-.189-.097-.124.012.028.037.056.052.083.007.011.06.094.054.103-.01.016-.085-.234-.065-.149.006.025.017.05.025.076.011.04.02.08.03.121.045.195-.018-.257-.007-.048.012.243.001.481-.022.723-.017.179.039-.25.005-.031a5.432 5.432 0 0 1-.213.869 6.137 6.137 0 0 1-.052.147c-.014.039-.11.275-.033.093.077-.181-.014.029-.03.065a5.813 5.813 0 0 1-.237.459c-.03.052-.064.102-.092.156-.004.007-.033.065-.04.066.021-.003.242-.307.022-.022-.06.077-.116.156-.174.234-.052.072-.217.251.01-.009-.315.361-.622.714-.977 1.037-.187.17-.38.333-.578.49l-.064.05c-.097.078.151-.119.131-.101-.045.042-.1.077-.15.114-.102.076-.205.15-.308.223a27.425 27.425 0 0 1-2.495 1.551c-.425.237-.85.493-1.297.689l.325-.137c-.628.263-1.299.378-1.96.523-.7.153-1.378.4-2.09.505l.364-.048a3.973 3.973 0 0 1-1.005.011l.361.048c-.438-.064-.857-.216-1.295-.285-.548-.088-1.098-.07-1.647-.139l.359.049a4.986 4.986 0 0 1-1.262-.353l.322.136a14.053 14.053 0 0 1-3.01-1.784l.265.205c-.69-.536-1.362-1.126-1.905-1.815l.198.256a4.703 4.703 0 0 1-.603-1.007l.125.297a3.791 3.791 0 0 1-.25-.909l.044.326c-.033-.253-.044-.505-.084-.758l.043.322a15.818 15.818 0 0 1-.034-1.71 15.95 15.95 0 0 1 .057-.835l.027-.204c.005-.07.006-.141.012-.212l.02-.214c.022-.248-.042.207 0-.01.202-1.048.743-2.024.827-3.094.023-.301-.25-.559-.526-.596-.271-.037-.618.136-.666.435Z"/><path fill="#0A0A0A" d="M71.338 143.703c-.41.697-.911 1.335-1.318 2.034-.213.367-.39.751-.54 1.148-.163.431-.339.858-.485 1.295-.249.744-.314 1.501-.312 2.281.003.695.062 1.392.194 2.074.269 1.396.937 2.667 2.095 3.52.333.246.704.441 1.05.668.355.231.701.474 1.043.724.707.519 1.37 1.175 2.217 1.453.39.128.803.17 1.208.217l.3.036c.026.003.132.02.001 0l.124.018c.233.038.462.093.69.157.886.249 1.73.611 2.648.729.46.058.92.053 1.383.062.223.004.445.015.667.038.023.002.138.024.02.002l.142.025c.132.026.264.055.397.077a8.064 8.064 0 0 0 2.814-.051c.874-.166 1.67-.503 2.495-.821.901-.346 1.84-.607 2.712-1.026.775-.372 1.528-.812 2.276-1.235.41-.232.783-.527 1.151-.819.155-.122.308-.247.461-.371l.255-.204a.718.718 0 0 0-.027.02c.048-.041.102-.076.152-.114a9.578 9.578 0 0 0 1.951-1.925c.46-.601.848-1.252 1.299-1.861.897-1.211 1.931-2.378 2.291-3.884.098-.408.152-.837.142-1.256-.011-.508-.438-.996-.972-.972-.519.023-.98.427-.971.972.011.706.047 1.451.284 2.123a3.839 3.839 0 0 0 1.343 1.841c1.257.946 2.97 1.186 4.493.96a4.027 4.027 0 0 0 1.642-.643l.15-.116c-.118.098-.092.079.079-.056.071-.063.137-.133.2-.205l.063-.073c.036-.043.266-.288.119-.154.238-.218.238-.653 0-.871a.63.63 0 0 0-.872 0l-.035.032.272-.158c-.115.037-.214.092-.32.145l-.087.041c-.123.06.032-.009.035-.014-.013.019-.341.131-.262.108.084-.025.242-.113-.089.043-.129.06.043-.014.044-.017-.007.02-.111.044-.137.054-.303.11-.62.169-.935.231-.077.016-.185.015-.257.044.014-.005.21-.024.066-.01l-.105.011a5.431 5.431 0 0 1-.999.006c-.078-.006-.183-.035-.261-.026.014-.002.213.032.069.009l-.153-.025a5.435 5.435 0 0 1-.913-.242c-.072-.026-.292-.153-.06-.02-.052-.03-.111-.05-.165-.077a4.502 4.502 0 0 1-.479-.271c-.07-.046-.134-.105-.206-.145.012.007.16.133.059.043l-.071-.061c-.112-.1-.201-.219-.308-.321.178.17.048.063-.004-.016a2.193 2.193 0 0 1-.098-.159c-.034-.061-.06-.125-.093-.185.003.007.078.213.043.089-.011-.039-.026-.078-.038-.118-.038-.128-.113-.321-.099-.455 0-.002.028.251.015.108l-.012-.132a3.423 3.423 0 0 1-.013-.226 9.051 9.051 0 0 1 .038-1.092H98.89c.001.169-.028.339-.026.507-.003-.252.022-.155.007-.067a4.597 4.597 0 0 1-.09.403 6 6 0 0 1-.157.469c-.022.058-.077.164.035-.081l-.044.101a6.313 6.313 0 0 1-.133.275c-.323.631-.715 1.216-1.126 1.792a29.682 29.682 0 0 0-1.153 1.716c-.206.335-.425.659-.658.976-.031.043-.11.115.028-.036-.027.03-.05.065-.076.097a7.85 7.85 0 0 1-1.002 1.046c-.058.05-.176.114-.218.18.062-.098.1-.077.028-.023l-.151.114c-.37.285-.726.587-1.09.881-.066.055-.132.116-.204.164.166-.111.038-.03-.003.002a7.095 7.095 0 0 1-.634.42c-.361.203-.723.404-1.082.612-.37.215-.74.429-1.125.619a11.534 11.534 0 0 1-.395.189c-.043.019-.183.088-.014.008-.205.097-.426.169-.637.251-.455.178-.909.357-1.359.548-.198.084-.395.171-.59.262l-.277.124c-.121.055.175-.068-.028.011-.063.025-.125.051-.189.075a9.368 9.368 0 0 1-1.192.37 7.933 7.933 0 0 1-.592.116c-.04.006-.189.025-.032.006l-.133.015a6.273 6.273 0 0 1-1.228.018c-.055-.004-.11-.01-.165-.016-.159-.015.101.024-.07-.011a7.578 7.578 0 0 0-1.409-.153c-.441-.006-.88.003-1.32-.031-.14-.011-.042-.002-.012.002a6.03 6.03 0 0 1-.463-.088 10.65 10.65 0 0 1-.659-.181c-.405-.125-.807-.264-1.216-.377a8.39 8.39 0 0 0-1.307-.236c-.177-.019-.355-.036-.532-.057-.132-.016-.018-.003.007.001l-.142-.023a3.65 3.65 0 0 1-.31-.069c-.076-.02-.149-.047-.223-.07-.175-.054.066.039-.033-.011-.046-.023-.093-.044-.138-.068-.176-.094-.334-.214-.493-.334a35.402 35.402 0 0 0-2.074-1.477c-.328-.212-.672-.398-1-.609-.074-.047-.144-.097-.215-.147-.023-.017-.09-.077.008.006l-.079-.065a3.949 3.949 0 0 1-.59-.61c.014.017.076.104.01.01a5.024 5.024 0 0 1-.469-.788 10.454 10.454 0 0 1-.136-.295c.058.133-.002-.008-.014-.038a7.154 7.154 0 0 1-.289-.918 8.536 8.536 0 0 1-.157-.8c-.004-.027-.024-.177-.008-.052a11.9 11.9 0 0 1-.1-1.858c.023-.82.357-1.611.609-2.383.238-.73.63-1.378 1.032-2.027.207-.334.41-.671.593-1.019.226-.426-.402-.798-.648-.379ZM21.675 43.212c-.429-.355-.856-.723-1.219-1.147l.154.2c-.162-.215-.315-.437-.495-.637a23.072 23.072 0 0 1-1.152-1.384l.186.241c-.267-.347-.524-.701-.8-1.042-.21-.259-.426-.513-.63-.776l.202.261a6.113 6.113 0 0 1-.732-1.197 3.059 3.059 0 0 0-.275-.514c-.117-.164-.241-.344-.395-.482a2.119 2.119 0 0 0-.831-.459 1.365 1.365 0 0 0-.721 0 1.02 1.02 0 0 0-.461.243 1.025 1.025 0 0 0-.35.38c-.122.211-.184.44-.184.684l-.012.103a1.01 1.01 0 0 0 .116.517c.054.166.146.31.277.431l.271.21c.154.098.32.15.499.159a.676.676 0 0 0 .357 0 .998.998 0 0 0 .498-.16l.272-.209a1.34 1.34 0 0 0 .344-.592l.04-.099-1.991.81c.024.016.047.032.07.05l-.276-.214c.142.111.28.228.425.34l-.28-.217c.085.069.158.148.225.234l-.214-.277c.21.28.352.604.553.891.294.421.626.811.982 1.18.593.618 1.181 1.24 1.814 1.816.181.166.365.328.55.487.157.134.314.27.485.384.105.069.213.133.315.206l-.199-.153c.264.209.531.414.801.615l-.187-.145c.286.234.577.461.871.683.168.127.505.154.698.092a.937.937 0 0 0 .47-.325.862.862 0 0 0 .195-.548c-.01-.227-.083-.49-.266-.64Zm-5.565 6.172c-.641-.505-1.29-1-1.929-1.509-.607-.483-1.216-.973-1.766-1.522-.137-.137-.28-.266-.417-.402-.134-.131-.284-.242-.434-.355-.246-.185-.536-.225-.836-.248l-.328.044a.928.928 0 0 0-.419.22c-.203.158-.383.383-.442.64-.049.217-.049.44 0 .656.07.306.311.572.567.736a1.8 1.8 0 0 0 .487.217c.078.022.153.05.228.082l-.287-.12c.278.12.513.329.76.5.288.199.591.376.891.554.632.376 1.276.73 1.92 1.084.365.2.73.4 1.094.602.33.184.74.104.97-.193a.715.715 0 0 0 .16-.455c-.008-.185-.067-.41-.22-.531Zm-1.744 6.819-.286-.036.19.026c-.293-.04-.586-.087-.879-.133-.303-.047-.6-.132-.901-.19-.233-.043-.47-.093-.707-.101a6.965 6.965 0 0 0-1.647.125 3.573 3.573 0 0 0-.482.128c-.164.057-.323.127-.481.196-.254.11-.448.32-.592.553l2.184.92.084-.217a1.076 1.076 0 0 0-.275-1.04 1.082 1.082 0 0 0-1.04-.275c-.08.02-.159.042-.239.063-.275.072-.579.293-.714.549l-.12.285a.905.905 0 0 0-.021.477c.033.25.136.51.328.685.224.206.53.372.845.35.259-.018.51-.052.734-.199a3.415 3.415 0 0 1 .5-.264l-.284.12a5.328 5.328 0 0 1 1.35-.345l-.287.038c.208-.027.417-.046.623-.09.115-.024.23-.047.346-.068.234-.043.47-.08.705-.115l-.22.03c.428-.038.858-.057 1.286-.105.187-.02.346-.062.483-.2a.694.694 0 0 0 .2-.483.691.691 0 0 0-.2-.484c-.142-.13-.293-.178-.483-.2Zm.909 8.195c-.21-.004-.423.007-.633-.013a9.007 9.007 0 0 0-.58-.039c-.388-.013-.773.02-1.16.015l.979.98a1.047 1.047 0 0 0-.4-.847 15.895 15.895 0 0 0-.203-.154c-.158-.118-.471-.144-.653-.085a.902.902 0 0 0-.507.39c-.05.08-.088.152-.126.241-.055.13-.089.273-.085.416.006.197.072.352.15.532.086.2.379.403.585.45l.26.035a.975.975 0 0 0 .494-.134l.064-.028-.23.097a11.36 11.36 0 0 1 1.713-.512l-.182.025c.17-.015.343-.018.514-.021.353-.007.69-.305.674-.674a.687.687 0 0 0-.674-.674Z"/></svg>