<svg xmlns="http://www.w3.org/2000/svg" width="120" height="120" fill="none"><path fill="#FF8131" d="M35.953 21.45c-4.036 0-8.071.017-12.107 0-.95-.003-1.74-.017-2.65.277-.794.256-2.114.517-2.691 1.2-.741.875-.226 2.47-.418 3.537-.25 1.391-.294 2.624-.294 4.066v9.355c0 1.898.012 3.796.002 5.694-.012 1.939.398 3.566.67 5.474.267 1.864.472 3.697.462 5.58-.007 1.372-.133 2.818-.018 4.181.056.664.36 1.198.417 1.863.055.645-.017 1.337-.02 1.986-.005 1.362 0 2.725 0 4.087v27.895c0 4.586-.185 9.213-.014 13.795.05 1.347.8 1.546 2.011 2.101 1.042.476 2.11.935 3.196 1.314 2.81.979 5.463 1.041 8.427 1.041h9.797c2.146 0 4.317-.106 6.46-.02 1.243.051 2.434.379 3.682.419 1.852.059 3.584.031 5.428.273 3.662.481 7.585.059 11.284.093 2.288.022 4.518-.415 6.806-.396 1.778.015 3.555.009 5.332.009 2.51 0 5.49.419 7.958-.084 1.162-.237 2.29-.242 3.385-.579 1.015-.314 2.034-.324 3.048-.546 2.248-.491 3.758-2.162 3.79-4.474.03-2.113.36-4.635.013-6.719-.21-1.257-.704-2.503-.796-3.8-.056-.793.02-1.633.02-2.43v-6.245c0-2.135-.293-4.499.075-6.608.22-1.26.688-2.118.68-3.425-.007-.977-.019-1.956.002-2.932.04-1.843.702-3.599 1.133-5.39.579-2.408.379-4.914.379-7.396V42.958c0-1.343.009-2.685 0-4.028-.006-1.019.338-1.782.393-2.754.03-.524-.11-1.078-.034-1.597.098-.667.36-1.173.407-1.843.093-1.349-.009-2.745-.009-4.099 0-1.68.107-3.295-.371-4.923-.346-1.176-1.208-2-2.27-2.67-1.14-.721-2.614-.674-3.875-1.014-1.011-.272-2.017-.372-3.035-.554-2.173-.388-4.46-1.01-6.706-.588-.898.169-1.753.623-2.66.68-1.09.067-1.977-.348-3.047-.396-1.032-.046-1.933.12-2.93.303-.633.116-2.344-.297-1.967.84"/><path fill="#FF8131" d="m35.953 19.485-1.538-.204-.576-.076-.384-.05c.457.027.329.003-.385-.074-.962-.098-1.922-.23-2.882-.357l.726.098c-.669-.164-1.385-.17-2.071-.226a1767.805 1767.805 0 0 1-4.805-.41l.868.117c-2.516-.35-5.227.037-7.5 1.236-1.312.693-2.346 2.031-2.585 3.506-.108.672-.17 1.317-.151 1.993.012.44.021.871-.026 1.31l.123-.92a36.001 36.001 0 0 0-.433 5.58l.002 5.154c0 1.747 0 3.494.004 5.241.005 1.691-.074 3.404.027 5.092.125 2.09.595 4.148.875 6.22l-.124-.918c.249 1.877.399 3.755.346 5.649-.025.913-.072 1.827-.039 2.74.025.677.087 1.364.242 2.022.097.41.245.804.318 1.221l-.123-.916c.076.657.015 1.314.002 1.972-.012.678-.004 1.357-.003 2.036l.004 4.152.004 8.273.007 16.737c.001 2.749-.046 5.496-.071 8.245a169.45 169.45 0 0 0 .004 4.218c.024 1.616-.123 3.458.723 4.906.657 1.125 1.643 1.815 2.8 2.333 1.401.629 2.805 1.266 4.258 1.768 2.577.892 5.372 1.129 8.083 1.194 3.106.074 6.215.078 9.321.115 1.527.017 3.053.024 4.58.017 1.568-.008 3.159-.064 4.717.145l-.969-.13c1.628.233 3.221.448 4.866.487 1.373.033 2.741.081 4.105.252 2.633.331 5.28.245 7.926.171 1.305-.037 2.608-.025 3.913-.048 1.35-.023 2.693-.184 4.04-.287 1.372-.105 2.74-.08 4.115-.073 1.36.006 2.72-.017 4.079.019 1.376.036 2.75.151 4.128.166 1.727.019 3.384-.287 5.088-.519l-.998.134c1.13-.145 2.29-.216 3.386-.54.852-.253 1.715-.35 2.587-.504 1.755-.31 3.536-1.182 4.749-2.509 1.417-1.55 2.176-3.483 2.218-5.583.032-1.604.149-3.213.107-4.817a17.12 17.12 0 0 0-.436-3.509c-.225-.948-.535-1.872-.679-2.838l.125.929c-.153-1.229-.045-2.493-.064-3.73-.02-1.355-.004-2.712-.004-4.068 0-2.485-.307-5.031.022-7.503l-.123.915c.224-1.498.786-2.88.851-4.415.06-1.418-.087-2.84.094-4.253l-.123.914c.172-1.178.513-2.317.823-3.464a21.81 21.81 0 0 0 .71-4.338c.155-2.494.016-5.021.016-7.519V46.811c0-1.412-.002-2.825 0-4.237.001-1.423-.123-2.913.045-4.327l-.123.915c.108-.736.28-1.456.379-2.193.06-.452.109-.87.079-1.324-.023-.36-.059-.706-.022-1.066l-.123.915c.08-.465.244-.905.342-1.365.174-.822.227-1.668.236-2.505.011-1.145-.047-2.29-.035-3.435.027-2.502.065-5.366-1.472-7.486-.826-1.14-1.878-2.169-3.14-2.823-1.095-.568-2.186-.808-3.383-1.007-1.07-.177-2.116-.461-3.19-.63-1.14-.18-2.265-.431-3.4-.629-1.617-.28-3.238-.507-4.872-.287-.759.102-1.46.238-2.179.499-.588.213-1.18.434-1.802.524l.89-.12c-.695.071-1.38-.115-2.064-.058l.824.11c-1.202-.207-2.19-.145-3.393.052-.672.11-1.314.324-1.983.445l.746-.1c-.767.097-1.513-.003-2.277.215-1.817.518-2.783 2.35-2.265 4.149.394 1.374 1.948 2.369 3.364 1.91 1.398-.452 2.334-1.892 1.91-3.364a1.097 1.097 0 0 1-.047-.196l.098.727-.007-.085-.097.727c.008-.048.017-.096.03-.144-.183.617-.537 1.084-1.061 1.402-.704.412-.635.225-.297.172l-.736.099c.333-.036.665-.008.998.002.634.02 1.267-.114 1.89-.222l-.75.1c.75.039 1.486-.046 2.24.047l-.81-.108c.268.041.532.102.8.148l-.74-.312c1.185.587 2.637.996 3.966.986 1.26-.01 2.379-.527 3.603-.699l-.93.125a13.334 13.334 0 0 1 3.289.05l-.935-.126c1.709.241 3.414.579 5.115.874.77.133 1.52.348 2.292.469.746.117 1.49.222 2.197.499l-.833-.352c.42.182.795.43 1.16.701l-.704-.544c.379.293.721.614 1.02.99l-.544-.704c.198.267.362.542.499.845l-.35-.83c.233.575.351 1.188.434 1.8l-.124-.922c.149 1.265.086 2.536.102 3.807.016 1.325.127 2.662.003 3.985l.123-.916c-.105.724-.349 1.41-.447 2.138-.108.807.03 1.587-.058 2.39l.123-.915c-.17 1.246-.488 2.446-.483 3.717.005 1.15-.001 2.301-.002 3.452v20.443c0 2.51.187 5.065-.142 7.56.04-.305.082-.61.123-.914-.254 1.756-.909 3.418-1.215 5.164a19.585 19.585 0 0 0-.29 3.329c-.003.892.064 1.801-.029 2.69l.123-.915c-.111.826-.401 1.605-.576 2.417a17.708 17.708 0 0 0-.372 3.484c-.025 1.898.108 3.798.108 5.698 0 1.986.032 3.976-.056 5.961-.053 1.2.043 2.364.284 3.545.187.918.463 1.815.597 2.743l-.126-.941c.154 1.202.116 2.416.045 3.624-.068 1.152-.074 2.334-.211 3.479l.13-.966a5.061 5.061 0 0 1-.34 1.232l.369-.872c-.153.338-.34.65-.565.944l.573-.742a4.888 4.888 0 0 1-.783.769l.745-.576a5.325 5.325 0 0 1-1.095.626l.883-.373c-.564.225-1.142.345-1.742.43l.99-.133c-.96.125-1.934.199-2.88.406-.68.149-1.337.328-2.03.425l1-.135c-1.206.16-2.404.373-3.608.536l.997-.134c-2.272.277-4.554-.002-6.83-.025-1.25-.013-2.502.007-3.752.009-1.25.001-2.5-.024-3.749.067-1.224.089-2.442.241-3.668.309-1.213.067-2.43.033-3.645.067-2.439.07-4.884.214-7.322.058-1.352-.086-2.688-.289-4.043-.34-1.43-.054-2.868.001-4.289-.19l.97.131c-1.243-.177-2.48-.397-3.737-.431a56.032 56.032 0 0 0-3.04.01 402.15 402.15 0 0 1-6.114.111l-6.148.071c-1.87.022-3.751.061-5.61-.183l.91.122c-1.836-.256-3.556-.808-5.26-1.527l.817.345c-.894-.382-1.95-.722-2.733-1.313l.692.535a2.013 2.013 0 0 1-.26-.257l.535.693a1.842 1.842 0 0 1-.19-.324l.345.818a2.412 2.412 0 0 1-.135-.533l.122.91c-.157-1.6-.092-3.25-.09-4.857.004-1.63.029-3.261.052-4.892.046-3.296.04-6.592.042-9.888l.009-19.816c0-1.793-.002-3.586 0-5.38 0-.885.046-1.772.044-2.657a8.286 8.286 0 0 0-.245-2.007c-.098-.383-.229-.753-.297-1.144l.124.916c-.125-1.08-.058-2.177-.023-3.259.036-1.142.023-2.28-.063-3.42-.188-2.461-.657-4.879-.998-7.32l.123.918c-.227-1.714-.159-3.44-.16-5.165a3043.33 3043.33 0 0 1-.003-5.234l.002-5.25c.001-1.692-.037-3.389.184-5.07l-.124.92c.122-.86.306-1.708.259-2.581-.03-.565-.092-1.127-.027-1.692l-.122.907c.033-.209.083-.402.165-.596l-.343.812a2.08 2.08 0 0 1 .191-.308l-.53.687c.077-.089.155-.165.244-.242l-.686.53c.237-.182.489-.319.76-.44l-.805.339c.83-.35 1.76-.663 2.649-.804l-.883.118c.617-.08 1.239-.045 1.854-.112.702-.076 1.41-.114 2.114-.172l2.114-.176c.867-.073 1.806-.069 2.648-.277l-.726.097c.96-.129 1.92-.264 2.882-.363.714-.077.842-.101.385-.075l.384-.052.576-.077 1.538-.205c1.015-.135 2.017-.807 1.965-1.965-.052-1.182-.868-1.82-1.965-1.966Z"/><path fill="#0A0A0A" d="M77.442 28.639c-2.588 0-5.177.014-7.764-.006-2.362-.018-4.68.509-7.053.51-1.877.002-3.754 0-5.631 0-.924 0-1.848-.006-2.771.003-.736.007-1.358-.218-2.078-.268-.51-.035-.993.061-1.5-.043-.529-.108-.909-.2-1.463-.195-.726.007-1.542.1-2.245-.057-1.996-.446-4.258-.196-6.323-.196-.678 0-1.703.206-2.327-.026-1.18-.436-1.089-1.589-1.25-2.535-.212-1.233-.745-2.444-1.02-3.676-.273-1.221-.236-2.532-.195-3.796.016-.517.148-1.072.43-1.525.373-.6.888-.662 1.544-.87a17.902 17.902 0 0 1 3.346-.7c.798-.094 1.721.213 2.495.043 1.05-.23 2.122-1.883 2.352-2.818.231-.937.283-1.625.74-2.509.593-1.148 1.539-2.314 2.648-2.976 2.17-1.295 4.458-1.948 6.874-2.573 2.361-.61 4.496.149 6.753.694 2.118.512 4.54 1.115 6.184 2.641.42.39.736.78 1.234 1.071.61.356 1.016.615 1.476 1.143.376.433.681.855 1.004 1.33.288.424.853.86 1 1.33.202.651-.145 1.199.242 1.829.24.39.617.73.882 1.115.547.792 1.64 1.244 2.54 1.458.884.21 1.723.252 2.644.252.88 0 2.075-.25 2.669.536.401.533.326 1.031.357 1.632.034.662.295 1.18.455 1.803.252.984.369 1.972.54 2.966.18 1.06.048 2.328.025 3.409-.02.885-.524.69-1.28.744-.547.04-.885.368-1.384.493-.502.126-1.167.024-1.69.02-.635-.005-1.104.182-1.716.264-1.001.135-2.13-.013-3.14-.013h-12.99"/><path fill="#0A0A0A" d="M77.442 27.1c-1.215-.027-2.432-.025-3.643-.13a525.685 525.685 0 0 1-3.546-.315 26.281 26.281 0 0 0-3.542-.109c-1.159.049-2.318.12-3.478.085-1.349-.04-2.698-.164-4.044-.252l.735.099c-1.127-.162-2.271-.161-3.408-.206-.446-.017-.892-.036-1.338-.052-.466-.017-.94-.01-1.402-.07l.79.106c-.483-.072-.954-.21-1.438-.283-.473-.072-.948-.146-1.427-.153-.264-.003-.526 0-.79-.029l.82.11c-.305-.043-.603-.131-.907-.183-.555-.095-1.12-.185-1.684-.18-.653.006-1.305.07-1.956-.017l.826.11c-.986-.155-1.963-.348-2.964-.401a28.738 28.738 0 0 0-2.274-.011c-.74.019-1.48.032-2.22.044-.631.01-1.26.128-1.89.057l.832.111a1.935 1.935 0 0 1-.442-.113l.748.315a1.941 1.941 0 0 1-.393-.224l.634.49a1.708 1.708 0 0 1-.246-.242l.49.634a1.841 1.841 0 0 1-.223-.38l.315.749a3.572 3.572 0 0 1-.212-.876l.112.833c-.076-.571-.129-1.146-.231-1.713-.089-.49-.225-.97-.37-1.446-.29-.942-.618-1.87-.752-2.85l.113.835a13.692 13.692 0 0 1-.097-1.723c0-.556-.008-1.127.054-1.68l-.112.837c.04-.295.11-.578.223-.854l-.317.752a2.65 2.65 0 0 1 .266-.477l-.493.637c.082-.104.17-.194.273-.277l-.638.492a1.9 1.9 0 0 1 .368-.207l-.753.318c.548-.22 1.144-.37 1.715-.516a18.671 18.671 0 0 1 2.086-.398l-.839.113a5.127 5.127 0 0 1 1.048-.05c.344.025.686.076 1.03.095.16.009.32.012.48 0 .404-.031.83-.066 1.222-.176a5.949 5.949 0 0 0 1.009-.416 2.37 2.37 0 0 0 .325-.195c.416-.297.84-.61 1.187-.989a10.9 10.9 0 0 0 .994-1.28c.15-.226.287-.462.404-.706.209-.436.417-.884.558-1.347.212-.699.311-1.421.592-2.1l-.324.77c.248-.574.59-1.105.969-1.6l-.51.66a8.272 8.272 0 0 1 1.429-1.445l-.666.514c.787-.596 1.719-1.026 2.625-1.41l-.788.333c.885-.37 1.794-.677 2.714-.947.94-.276 1.905-.582 2.878-.718l-.879.118a8.71 8.71 0 0 1 2.206.02l-.88-.118c1.361.185 2.683.587 4.014.913 1.169.287 2.336.596 3.448 1.062l-.794-.334c.704.3 1.376.663 1.984 1.128l-.672-.52c.45.351.82.784 1.256 1.15.425.36.85.675 1.321.959.23.138.454.283.667.447l-.674-.52c.38.302.69.668.987 1.05l-.52-.674c.24.314.458.644.692.964.367.503.777.935 1.162 1.416l-.521-.675c.1.132.189.265.253.419l-.336-.797c.035.099.057.197.074.3l-.12-.886c.029.253.003.503-.004.756-.006.253.035.487.07.741.036.272.05.53.144.785.13.355.268.74.478 1.06.216.33.47.638.719.942.178.218.369.426.542.648l-.522-.676c.34.457.652.951 1.092 1.32.437.366.894.735 1.405.994.796.404 1.65.736 2.53.901 1.006.189 2.026.288 3.048.292.564.003 1.13-.073 1.692-.008l-.891-.12a2.2 2.2 0 0 1 .537.139l-.8-.338c.111.05.213.11.31.184l-.679-.524c.082.069.153.142.219.226l-.525-.68c.079.11.145.222.2.345l-.338-.801c.053.134.089.27.112.412l-.12-.892c.027.202.03.405.035.608a9.99 9.99 0 0 0 .171 1.534c.082.463.265.898.388 1.35.284 1.043.425 2.138.58 3.207l-.12-.894c.077.582.076 1.17.056 1.755-.019.558-.011 1.134-.074 1.688l.12-.895a1.051 1.051 0 0 1-.064.24l.34-.804a.707.707 0 0 1-.062.102l.527-.683a.574.574 0 0 1-.078.075l.682-.527a.652.652 0 0 1-.094.052l.806-.34a.93.93 0 0 1-.19.048l.897-.12a3.69 3.69 0 0 1-.38.017 7.502 7.502 0 0 0-.928.081c-.233.031-.481.048-.71.117-.218.066-.435.172-.641.259-.312.132-.615.28-.925.412l.806-.34c-.167.066-.33.11-.507.135l.897-.12c-.59.063-1.181-.038-1.77.034-.557.067-1.095.14-1.634.283-.296.08-.591.15-.895.194l.864-.116c-.958.125-1.925.055-2.888.098-1.043.047-2.084.106-3.127.169l-3.126.188c-1.058.063-2.115.09-3.175.118-1.186.032-2.375.094-3.56.094-.652 0-1.337.284-1.798.745-.441.441-.773 1.165-.745 1.798.03.658.245 1.34.745 1.798.497.457 1.109.745 1.798.745 1.153 0 2.31.06 3.463.09 1.157.031 2.31.064 3.464.134l3.464.208c1.124.068 2.253.092 3.374.195.588.054 1.176.122 1.767.127.85.007 1.684-.177 2.524-.291l-.881.118c.61-.074 1.205.055 1.815.042.408-.008.817-.08 1.218-.142.152-.023.294-.058.439-.11.509-.183.969-.43 1.461-.639l-.806.34c.142-.055.283-.095.434-.119l-.897.12c.25-.025.5-.011.751-.03.371-.027.762-.062 1.123-.155.018-.005.036-.012.053-.018.107-.032.721-.29.823-.346.169-.092.237-.163.434-.316.17-.13.288-.207.42-.338.068-.069.49-.62.538-.698l.031-.049c.142-.247.3-.631.382-.905.018-.06.03-.118.04-.179.112-.636.135-1.248.162-1.887.033-.761.074-1.53-.013-2.289a45.226 45.226 0 0 0-.497-3.213 11.26 11.26 0 0 0-.316-1.325c-.125-.395-.266-.783-.33-1.194l.12.892c-.04-.317-.024-.636-.05-.954-.076-.914-.218-1.563-.64-2.382-.375-.726-.998-1.3-1.673-1.74a3.93 3.93 0 0 0-1.427-.57c-.527-.092-1.063-.171-1.6-.162-.259.004-.517.023-.775.033a12.51 12.51 0 0 1-2.1-.098l.89.12a7.445 7.445 0 0 1-1.792-.469l.799.337a4.647 4.647 0 0 1-.951-.533l.677.522a3.03 3.03 0 0 1-.504-.486l.522.676c-.423-.555-.864-1.088-1.299-1.633l.523.676a2.479 2.479 0 0 1-.272-.424l.336.798a1.57 1.57 0 0 1-.102-.379l.12.887c-.023-.249.006-.496.008-.745.008-.849-.206-1.565-.56-2.323-.324-.694-.935-1.21-1.407-1.802l.521.675c-.604-.798-1.135-1.668-1.853-2.374a8.92 8.92 0 0 0-1.345-1.058c-.299-.197-.62-.359-.906-.577l.674.52c-.377-.303-.694-.67-1.06-.986a12.256 12.256 0 0 0-1.72-1.265 10.39 10.39 0 0 0-1.234-.615c-.67-.285-1.337-.564-2.03-.786-.867-.276-1.751-.485-2.634-.7-1.023-.25-2.038-.544-3.077-.722-.777-.134-1.57-.252-2.36-.274-.802-.022-1.609.086-2.396.224-1.03.182-2.059.511-3.057.822a29.515 29.515 0 0 0-3.559 1.377c-1.155.532-2.229 1.179-3.173 2.043-.586.535-1.072 1.195-1.523 1.842-.386.555-.68 1.142-.943 1.764a8.91 8.91 0 0 0-.57 1.834c-.086.452-.152.912-.329 1.34l.319-.755c-.184.418-.419.81-.694 1.175l.495-.64a4.488 4.488 0 0 1-.73.76l.64-.495a2.46 2.46 0 0 1-.5.305l.755-.318a1.81 1.81 0 0 1-.405.11l.84-.113c-.57.071-1.137-.041-1.706-.077-.83-.051-1.672.128-2.486.265-1.344.228-2.732.579-3.967 1.167a2.118 2.118 0 0 0-.262.148c-.282.19-.587.408-.827.653a4.422 4.422 0 0 0-.873 1.232c-.204.446-.424.918-.518 1.407a10.37 10.37 0 0 0-.181 1.66c-.044 1.49-.002 2.988.34 4.448.304 1.3.867 2.533 1.048 3.863l-.112-.833c.07.534.12 1.072.218 1.602.094.51.306 1.008.539 1.467.356.703.939 1.22 1.573 1.66.23.16.482.252.742.362.285.12.518.225.817.27.632.093 1.198.153 1.828.106.347-.026.692-.06 1.04-.062.856-.006 1.71-.048 2.565-.068.973-.022 1.947-.014 2.913.114l-.827-.11c.87.122 1.728.337 2.612.333.63-.003 1.257-.077 1.884.005l-.824-.11c.544.079 1.075.182 1.623.254l-.822-.11c.66.095 1.189.153 1.834.11a5.6 5.6 0 0 1 1.098.041l-.8-.108c.735.102 1.477.266 2.222.244.573-.018 1.145-.049 1.718-.07 1.34-.047 2.702-.035 4.029-.225l-.735.098c1.408-.09 2.827-.14 4.23-.294 1.553-.17 3.082-.475 4.623-.723l-.591.08c.622-.076 1.237-.198 1.858-.281l-.561.075c1.435-.187 2.89-.26 4.332-.386.72-.063 1.435-.132 2.157-.149l2.205-.052c.804-.018 1.576-.695 1.538-1.538-.038-.85-.675-1.52-1.538-1.539ZM38.483 94.354c2.988-.702 5.909-1.682 8.747-2.848a72.505 72.505 0 0 0 8.757-4.305c1.75-1.011 3.495-2.08 5.091-3.32l-.61.471a94.235 94.235 0 0 0 6.222-4.933c.852-.733 1.698-1.463 2.398-2.348.628-.796 1.242-1.585 1.663-2.511.25-.552.483-1.114.694-1.683.098-.265.193-.531.303-.792l-.36.853c.201-.473.477-.895.751-1.329.234-.37.465-.74.673-1.126.332-.617.576-1.275.847-1.92l-.367.869c.272-.64.584-1.268.81-1.926.22-.635.357-1.34.368-2.005a2.719 2.719 0 0 0-.311-1.392 2.706 2.706 0 0 0-.747-1.162l-.73-.564a3.595 3.595 0 0 0-1.824-.493l-.051-.007a3.58 3.58 0 0 0-1.816.49c-.54.32-.97.75-1.29 1.291-.196.262-.302.597-.386.914a3.295 3.295 0 0 0-.005 1.73c.173.63.223.525.348.816l-.337-.798a.39.39 0 0 1 .013.053l-.125-.928a2.71 2.71 0 0 0 .31 1.415c.146.446.394.832.744 1.157.255.203.512.402.773.596l-1.66-4.078c-.052.366-.175.71-.317 1.05l.368-.87a89.486 89.486 0 0 0-.689 1.662c-.11.276-.204.558-.318.832l.365-.867c-.217.511-.486.998-.765 1.478-.205.352-.427.697-.605 1.065-.339.702-.6 1.422-.846 2.159-.094.282-.194.563-.31.838l.357-.845a9.158 9.158 0 0 1-1.197 2.007l.547-.708c-.606.781-1.278 1.507-1.958 2.224a94.602 94.602 0 0 1-2.21 2.256 94.72 94.72 0 0 1-4.576 4.22 63.195 63.195 0 0 1-2.694 2.198l.531-.41a72.251 72.251 0 0 1-4.911 3.485c-1.665 1.076-3.378 2.094-5.153 2.978a53.708 53.708 0 0 1-2.656 1.234c-.867.365-1.744.707-2.629 1.025-.361.13-.67.328-.868.668-.182.311-.26.77-.147 1.12.25.772.994 1.2 1.788 1.014Z"/><path fill="#0A0A0A" d="M58.274 67.988c.491-.026.985-.076 1.477-.052.48.023.961.04 1.442.041.48.002.96-.01 1.438-.044.233-.017.466-.039.698-.066.329-.04.66-.064.983-.142.125-.03.25-.062.375-.096.255-.07.506-.15.763-.208.244-.055.491-.096.74-.13l-.757.102c.566-.076 1.141-.109 1.699-.233.551-.122 1.093-.354 1.603-.583l-.736.31c.396-.16.787-.294 1.203-.388.458-.103.918-.197 1.374-.31.22-.053.44-.111.657-.177.433-.13.838-.31 1.254-.493.231-.102.462-.217.676-.35.281-.175.566-.347.871-.477l-.835.353c.135-.057.274-.105.42-.125l-.93.126a.768.768 0 0 1 .171-.003l-.931-.125a.504.504 0 0 1 .12.031l-.837-.353c.03.013.057.03.084.049l-.71-.548a.712.712 0 0 1 .116.118l-.549-.71c.07.094.122.198.168.305l-.353-.839c.066.158.12.32.18.48.17.44.343.867.57 1.276.213.385.435.766.676 1.135.391.599.84 1.161 1.289 1.717.262.326.526.654.807.963.322.352.639.709.931 1.086l-.55-.713c.448.584.813 1.228 1.19 1.858.39.648.825 1.27 1.121 1.969l-.328-.78c.05.12.096.242.136.366.12.373.288.727.44 1.088l-.318-.755c.128.31.229.63.316.953l.058.221c.085.302.234.584.362.87.117.258.321.46.498.681.298.373.75.61 1.2.743L77.05 74.98l.018.03c.462.748 1.25 1.227 2.14 1.227a2.467 2.467 0 0 0 1.251-.339 2.49 2.49 0 0 0 .89-.889l.019-.029-1.494 1.149c.216-.057.384-.108.617-.259.063-.04.476-.355.523-.408l.066-.076.028-.032c.051-.06.392-.483.43-.556.022-.04.042-.083.062-.125a5.828 5.828 0 0 0 .548-1.647c.016-.085.03-.17.043-.256.052-.353.114-.71.14-1.066.007-.09-.006-.182-.016-.272-.044-.365-.086-.733-.153-1.096a6.126 6.126 0 0 0-.114-.5 9.784 9.784 0 0 0-.344-1.015c-.17-.43-.337-.865-.546-1.277-.081-.16-.164-.32-.248-.478-.162-.308-.322-.617-.484-.924-.449-.846-1.068-1.6-1.658-2.347-.47-.596-.999-1.142-1.464-1.741l.555.718a12.84 12.84 0 0 1-.706-1.023c-.199-.317-.418-.639-.564-.984l.355.84c-.051-.121-.097-.246-.147-.369-.136-.333-.27-.67-.423-.997a1.73 1.73 0 0 0-.09-.17 6.677 6.677 0 0 0-.637-.834.843.843 0 0 0-.058-.06l-.027-.023-.71-.548a1.235 1.235 0 0 0-.076-.049c-.122-.068-.792-.335-.432-.183.232.097-.296-.136-.433-.183-.177-.06-.41-.067-.57-.089-.14-.019-.383-.073-.565-.066-.352.013-.701.076-1.047.138a1.48 1.48 0 0 0-.275.081c-.49.191-.979.387-1.43.658-.113.069-.226.14-.337.212-.354.23-.676.506-1.01.765l.7-.542a4.36 4.36 0 0 1-.627.418c-.404.213-.822.397-1.243.575l.782-.33c-.523.22-1.046.438-1.567.66a6.017 6.017 0 0 0-.735.367c-.454.27-.872.605-1.362.812l.7-.296c-.596.243-1.2.464-1.782.739-.392.185-.754.42-1.134.628-.389.211-.755.462-1.142.678-.378.213-.764.41-1.156.598a32.93 32.93 0 0 1-1.344.6l.402-.17c-.209.088-.428.142-.646.203l-.654.18c-.197.047-.37.138-.516.272a1.147 1.147 0 0 0-.39.425l-.153.363a1.15 1.15 0 0 0-.027.605c0 .137.035.264.103.383.061.188.166.35.314.488.288.264.67.466 1.073.444ZM34.305 49.833c.253.205.499.418.739.638.12.11.236.223.354.334.154.146.338.27.508.396a19.118 19.118 0 0 1 .314.239l-.44-.34c.98.757 1.9 1.587 2.822 2.412a165.727 165.727 0 0 0 .588.523c.231.204.465.384.717.574l-.527-.408a53.43 53.43 0 0 0 2.338 1.771 85.21 85.21 0 0 0 1.986 1.353c.662.441 1.326.88 1.981 1.333.325.224.648.452.968.684.297.216.586.443.891.646.32.213.65.41.974.618.159.102.316.208.47.317.159.112.323.214.478.332l-.616-.476c.079.061.156.125.23.191.228.202.405.4.706.558l.725.306c.27.082.541.118.815.108l.06-.001-2.96-2.962a.427.427 0 0 1 .002.093l.102-.762a.358.358 0 0 1-.022.084l.28-.662a.403.403 0 0 1-.037.065l.421-.545a.553.553 0 0 1-.056.061 1.954 1.954 0 0 0-.539.84c-.163.31-.238.645-.224 1.004l.093.693c.123.441.347.825.67 1.15.02.025.042.046.066.068.45.405.485.409.945.602.117.05.269.133.41.165.2.044.571.122.85.106a2.23 2.23 0 0 0 1.14-.255 2.22 2.22 0 0 0 .954-.613l.463-.599a2.95 2.95 0 0 0 .404-1.495l.004-.07-.109-.807-.306-.725c.02.038-.311-.446-.491-.632-.049-.05-.1-.099-.151-.147a5.074 5.074 0 0 0-.317-.265c-.248-.194-.502-.396-.76-.583a2.37 2.37 0 0 0-.18-.121 10.804 10.804 0 0 0-.37-.21c-.49-.265-.999-.502-1.474-.798a76.551 76.551 0 0 0-3.406-1.979c-1.138-.632-2.279-1.263-3.377-1.964-.261-.167-.52-.337-.778-.51-.257-.17-.528-.325-.792-.486-.528-.324-1.056-.65-1.587-.968a37.096 37.096 0 0 0-1.612-.917c-.425-.227-.854-.446-1.313-.597a17.41 17.41 0 0 0-1.277-.367l-.478-.064a1.353 1.353 0 0 0-.691.154.897.897 0 0 0-.396.231c-.196.127-.35.294-.462.504l-.181.428-.065.478c-.009.247.043.477.155.691.072.223.196.415.371.578Z"/><path fill="#0A0A0A" d="M37.673 62.583c1.085-.647 2.117-1.378 3.122-2.14.437-.333.87-.669 1.303-1.007l-.48.37c.364-.263.712-.554 1.063-.835l.613-.494c.405-.326.81-.653 1.218-.976.232-.183.464-.365.697-.545l-.545.421.898-.694-.553.427c.602-.445 1.158-.946 1.715-1.443.395-.353.786-.71 1.172-1.07a49.54 49.54 0 0 0 2.245-2.23 38.164 38.164 0 0 0 1.086-1.205c.084-.097.402-.5.474-.611.217-.341.334-.71.352-1.104.04-.138.058-.277.053-.416a2.938 2.938 0 0 0-.404-1.49 2.231 2.231 0 0 0-.76-.829 2.223 2.223 0 0 0-1.004-.528 2.973 2.973 0 0 0-1.57 0c-.26.047-.504.148-.731.303l-.601.465c-.18.165-.34.438-.506.656l-.109.14.464-.599a42.167 42.167 0 0 1-2.166 2.566 65.525 65.525 0 0 1-2.334 2.428c-.199.197-.398.393-.598.588-.194.189-.374.395-.558.594-.372.404-.74.813-1.106 1.223-.726.814-1.446 1.633-2.183 2.437a35.104 35.104 0 0 1-2.292 2.306l-.305.271c-.188.174-.32.38-.398.62-.12.228-.175.475-.166.74l.07.511c.059.25.173.469.343.654.086.145.2.26.345.345.186.17.404.285.654.344l.512.07c.347-.002.67-.09.97-.263ZM66.86 88.962c.252.205.498.418.738.638.12.11.236.223.354.334.154.146.338.27.508.396a19.118 19.118 0 0 1 .315.239l-.441-.341c.98.758 1.9 1.588 2.823 2.413a148.44 148.44 0 0 0 .587.523c.231.204.465.384.718.574l-.528-.408a53.57 53.57 0 0 0 2.339 1.771 83.56 83.56 0 0 0 1.985 1.353c.663.441 1.326.88 1.982 1.333.325.224.648.452.967.684.297.216.586.442.892.646.32.213.65.41.973.618.16.102.316.208.47.317.16.112.324.213.478.332l-.616-.476c.08.061.156.125.231.191.227.202.404.399.706.558l.724.306c.27.082.542.118.816.108l.06-.001-2.962-2.962a.415.415 0 0 1 .003.093l.102-.762a.358.358 0 0 1-.021.084l.279-.662a.403.403 0 0 1-.037.064l.421-.544a.553.553 0 0 1-.056.061 1.954 1.954 0 0 0-.539.84c-.163.31-.238.645-.224 1.004l.093.692c.124.442.347.826.67 1.151.02.025.043.046.067.068.45.405.485.409.944.602.118.05.27.133.41.165.2.044.572.122.85.106.408.015.788-.07 1.141-.255.367-.12.685-.324.953-.613l.463-.6c.268-.461.403-.96.404-1.494l.004-.07-.109-.807-.305-.725c.02.038-.312-.446-.492-.632-.049-.05-.1-.1-.151-.147a5.011 5.011 0 0 0-.317-.265c-.248-.194-.501-.396-.76-.583a2.4 2.4 0 0 0-.18-.122 10.804 10.804 0 0 0-.369-.208c-.491-.266-1-.503-1.474-.8a76.438 76.438 0 0 0-3.406-1.978c-1.14-.632-2.28-1.263-3.378-1.964-.26-.167-.52-.337-.778-.51-.257-.171-.527-.325-.791-.486-.53-.324-1.056-.65-1.588-.968a37.007 37.007 0 0 0-1.612-.918c-.425-.226-.854-.445-1.313-.596a17.476 17.476 0 0 0-1.277-.367l-.477-.064a1.35 1.35 0 0 0-.692.154.896.896 0 0 0-.396.231c-.195.126-.35.294-.462.504l-.181.428-.064.477c-.01.248.042.478.154.692.073.223.196.415.371.578Z"/><path fill="#0A0A0A" d="M70.228 101.712c1.084-.647 2.116-1.378 3.121-2.141.437-.332.87-.668 1.303-1.006l-.48.37c.364-.263.712-.554 1.063-.835l.613-.494a144.571 144.571 0 0 1 1.915-1.521l-.545.421c.3-.231.6-.462.898-.694l-.552.427c.6-.445 1.157-.946 1.715-1.444.394-.352.785-.708 1.171-1.07.77-.72 1.523-1.46 2.246-2.229a38.164 38.164 0 0 0 1.085-1.205c.084-.097.402-.5.474-.611.217-.341.334-.71.352-1.104a1.32 1.32 0 0 0 .053-.417 2.938 2.938 0 0 0-.403-1.49 2.231 2.231 0 0 0-.76-.828 2.223 2.223 0 0 0-1.005-.528 2.973 2.973 0 0 0-1.57 0c-.26.047-.503.148-.731.303l-.601.465c-.18.165-.34.438-.506.655l-.109.142.464-.6a42.167 42.167 0 0 1-2.165 2.566 65.525 65.525 0 0 1-2.335 2.428c-.198.197-.398.392-.598.587-.194.19-.374.395-.558.595-.372.404-.74.813-1.106 1.224-.726.813-1.446 1.632-2.183 2.436a35.104 35.104 0 0 1-2.292 2.305c-.1.092-.203.182-.305.272-.188.174-.32.38-.398.619-.12.23-.175.476-.165.741l.068.511c.06.251.175.469.345.654.085.145.2.26.345.345.185.17.403.285.654.344l.51.069c.348-.001.671-.088.972-.262Zm13.327-62.605c-.49-.155-.976-.318-1.466-.472l.35.148c-.278-.172-.478-.181-.794-.218l.392.052c-.352-.082-.698-.193-1.05-.276-.338-.079-.68-.147-1.024-.197-.508-.073-1.018-.145-1.532-.152a6.907 6.907 0 0 0-1.556.156 7.205 7.205 0 0 0-.936.27c-.47.17-.935.367-1.382.593-.554.28-1.073.625-1.57.997-.43.322-.858.649-1.271.991a5.6 5.6 0 0 0-.65.62c-.234.27-.47.546-.65.856-.18.312-.305.657-.442.988a3.303 3.303 0 0 0-.218.813c-.054.388-.121.779-.133 1.171-.007.197-.008.393-.011.59-.006.41-.01.821-.018 1.232-.004.178-.015.356-.008.534.003.07.009.139.017.208.037.32.073.642.132.958.028.15.068.298.117.443.126.371.284.733.453 1.087.24.499.591.919.93 1.354.195.25.424.476.666.68.3.252.61.492.93.717.129.09.262.175.398.252.48.272 1 .462 1.512.658.167.064.332.131.497.2l-.681-.287c1.273.538 2.504 1.178 3.809 1.643a7.95 7.95 0 0 0 1.525.396c.732.106 1.448.2 2.187.174.254-.008.507-.027.759-.057.492-.057.99-.117 1.476-.216.242-.05.483-.11.719-.182.452-.14.886-.333 1.319-.521a3.91 3.91 0 0 0 .573-.3c.282-.182.544-.402.808-.609.084-.066.168-.133.244-.208.159-.157.305-.326.442-.502.284-.364.573-.722.816-1.114.365-.591.636-1.24.888-1.884.158-.405.284-.824.362-1.252.059-.323.094-.652.137-.977l-.094.7c.032-.239.083-.506.098-.747l-.094.7a24.68 24.68 0 0 0 .31-2.05c.022-.226.032-.455.01-.681-.031-.327-.061-.66-.141-.979a1.433 1.433 0 0 0-.041-.136l-.03-.077c-.091-.221-.18-.446-.282-.663a1.898 1.898 0 0 0-.082-.157 2.425 2.425 0 0 0-.44-.57 10.648 10.648 0 0 0-.555-.426 5.769 5.769 0 0 0-.132-.087l-.072-.046-.286-.12a1.192 1.192 0 0 0-.604-.164 1.206 1.206 0 0 0-.636 0c-.11.006-.219.02-.325.045l2.678 1.09a1.727 1.727 0 0 0-.198-.26 1.793 1.793 0 0 0-.665-.611c-.013-.007-.024-.015-.037-.021-.033-.019-.068-.035-.101-.052-.228-.12-.428-.256-.694-.317l-.57-.077a1.27 1.27 0 0 0-.573.078l-.007.002c-.082.027-.368.155-.247.104-.245.105-.323.138-.234.099l-.004.002-.018.008a.653.653 0 0 0-.219.168 1.622 1.622 0 0 0-.552.602l-.217.513c-.034.197-.06.394-.078.592.025-.191.05-.383.077-.574a1.183 1.183 0 0 0-.049.325 3.362 3.362 0 0 0-.048.455l-.001.09v.03l.084.629c.047.214.137.422.255.609v-2.394c-.225.3-.333.868-.332 1.227 0 .231.062.463.093.695l-.086-.645c.01.075.018.149.026.224l.09.673a.83.83 0 0 0 .133.327c.053.127.093.232.15.346l.06.129-.258-.609c.052.125.087.253.106.387l-.091-.681c.034.26.019.52-.016.78l.093-.688c-.068.489-.2.966-.31 1.446a6.877 6.877 0 0 1-.362 1.135l.27-.64a7.677 7.677 0 0 1-.977 1.682l.433-.56a6.03 6.03 0 0 1-1.07 1.074l.57-.441a3.834 3.834 0 0 1-.85.484l.674-.284c-.595.25-1.229.4-1.867.487l.752-.102a8.69 8.69 0 0 1-2.277.012l.754.102c-.797-.109-1.56-.373-2.3-.684l.68.287c-.566-.239-1.12-.505-1.676-.763a28.792 28.792 0 0 0-.834-.373c-.357-.152-.713-.306-1.074-.449-.127-.05-.257-.096-.384-.15l.682.289a4.78 4.78 0 0 1-1.05-.618l.58.447a5.533 5.533 0 0 1-.973-.98l.447.58a4.165 4.165 0 0 1-.54-.915l.285.677a3.248 3.248 0 0 1-.224-.812l.101.75c-.03-.244-.025-.49-.03-.736-.005-.28-.013-.559-.02-.838-.014-.496-.052-1 .011-1.494l-.098.734c.036-.269.104-.53.208-.781l-.277.655c.03-.07.062-.14.096-.207.143-.279.256-.511.374-.837l-.276.653c.135-.272.305-.524.49-.764l-.414.534c.323-.415.674-.814 1.036-1.195a9.75 9.75 0 0 1 1.107-1.014l-.473.365a7.499 7.499 0 0 1 1.65-.967l-.513.216c.223-.093.45-.183.668-.285.059-.028.119-.054.179-.08l-.5.21c.653-.274 1.347-.43 2.048-.525l-.462.062a16.154 16.154 0 0 1 1.27-.118c.251-.015.548.003.78-.074l-.388.052c.514-.035 1.028-.059 1.542-.092a.884.884 0 0 0 .453-.101.882.882 0 0 0 .378-.243l.184-.238a.875.875 0 0 0 .14-.437.591.591 0 0 0 0-.313.875.875 0 0 0-.14-.437 1.27 1.27 0 0 0-.703-.54Z"/><path fill="#FF8131" d="M61.057 13.457a2.763 2.763 0 0 0-.71-.294 4.238 4.238 0 0 0-.595-.084 1.027 1.027 0 0 0-.158-.002 4.518 4.518 0 0 0-.616.083 1.063 1.063 0 0 0-.159.045c-.407.152-.796.311-1.08.66-.167.208-.36.431-.486.675a5.05 5.05 0 0 0-.33.79c-.035.113-.062.23-.08.347-.044.287-.1.593-.1.89 0 .29.054.588.099.872.019.124.05.246.095.364.083.218.165.444.284.647.119.202.274.388.426.563.137.159.397.332.52.42a.858.858 0 0 0 .121.072c.173.083.407.198.617.25.229.057.468.076.7.1.12.011.24.01.358.008.296-.003.594.005.889-.018.25-.02.5-.057.746-.096.061-.01.122-.023.182-.04.227-.066.453-.174.66-.27.056-.026.109-.056.16-.09.198-.135.392-.28.567-.444.176-.163.309-.374.449-.565.13-.177.208-.35.272-.583a2.098 2.098 0 0 0-.239-1.639 1.852 1.852 0 0 0-.665-.668c-.36-.21-.546-.2-.953-.254l.5.067-.033-.005-.015-.003a2.25 2.25 0 0 0-.272-.037 1.016 1.016 0 0 0-.537 0 .868.868 0 0 0-.284.041l-.485.205-.41.317-.014.016c-.02.021-.04.043-.062.064a2.52 2.52 0 0 1-.23.207l.416-.32c-.078.06-.162.11-.252.149.163-.07.327-.138.49-.207-.118.05-.243.08-.37.096l.546-.073c-.248.031-.5.025-.75.022-.23-.002-.463.012-.692-.018l.55.074a.929.929 0 0 1-.221-.057l.494.209a.67.67 0 0 1-.145-.085l.42.324a.764.764 0 0 1-.12-.12l.325.418a1.847 1.847 0 0 1-.215-.396l.208.493a2.005 2.005 0 0 1-.134-.503l.072.54a2.396 2.396 0 0 1 .001-.629l-.071.532c.024-.175.068-.346.135-.51l-.198.471c.052-.123.116-.239.197-.345l-.305.394.162-.209c.172-.188.288-.408.348-.661l.014-.038-.194.46a1.13 1.13 0 0 1 .145-.252l-.284.368c.052-.067.111-.127.178-.18l-.348.27c.072-.056.15-.102.233-.138l-.387.163c.083-.035.17-.061.258-.08l.362-.153.307-.237.237-.307c.111-.175.171-.363.18-.564a.762.762 0 0 0 0-.404.755.755 0 0 0-.103-.383.758.758 0 0 0-.195-.334 1.147 1.147 0 0 0-.426-.391Z"/><path fill="#0A0A0A" d="m19.49 91.245-.059.045-.027.022c-.01.008-.023.015-.03.024a.913.913 0 0 0-.252.392.916.916 0 0 0-.105.469l.044.323c.057.206.162.385.312.537.008.01.02.016.03.023l.028.023.059.046.272.21.322.136c.178.056.358.064.536.024a.67.67 0 0 0 .34-.092.673.673 0 0 0 .297-.173.676.676 0 0 0 .242-.242.671.671 0 0 0 .173-.296 1.02 1.02 0 0 0 .116-.52l-.048-.357-.136-.322-.21-.272-.273-.21-.322-.136a1.02 1.02 0 0 0-.537-.024.671.671 0 0 0-.34.091 1.009 1.009 0 0 0-.432.279Zm4.735-3.105.22.002.105.001h.058c.05.002.1-.005.148-.018a.78.78 0 0 0 .39-.124c.074-.052.145-.107.214-.166a.78.78 0 0 0 .215-.334.784.784 0 0 0 .09-.4.713.713 0 0 0-.038-.284l-.106-.25-.169-.219-.035-.046-.07-.09-.146-.188a1.24 1.24 0 0 0-1.753 0 .929.929 0 0 0-.256.398.933.933 0 0 0-.107.478 1.234 1.234 0 0 0 .614 1.07c.194.112.402.169.626.17Zm3.63 5.952-.083-.23-.133-.316a1.001 1.001 0 0 0-.342-.372.66.66 0 0 0-.292-.17.997.997 0 0 0-.51-.115l-.353.048-.316.133a1.001 1.001 0 0 0-.372.342.997.997 0 0 0-.237.45l-.082.23a1.408 1.408 0 0 0 .363 1.372l.285.22c.22.128.457.192.712.193.194.007.375-.033.543-.122.175-.056.326-.154.454-.291a1.408 1.408 0 0 0 .363-1.372Zm1.162-4.61c.274 0 .561-.12.755-.313a.801.801 0 0 0 .221-.344.805.805 0 0 0 .092-.411c-.012-.277-.103-.563-.313-.756a1.11 1.11 0 0 0-.755-.313c-.274 0-.562.12-.756.313a.801.801 0 0 0-.22.344.805.805 0 0 0-.093.412c.013.276.104.563.313.755.21.192.466.313.756.313Zm-2.212 15.971-.003-.015.05.363a.66.66 0 0 1-.002-.168l-.048.356a.581.581 0 0 1 .038-.141l-.133.315a.651.651 0 0 1 .08-.137l-.203.263a.872.872 0 0 1 .06-.071.958.958 0 0 0 .266-.412.967.967 0 0 0 .11-.494l-.046-.341a.966.966 0 0 0-.23-.436.647.647 0 0 0-.23-.23.961.961 0 0 0-.435-.229 39.778 39.778 0 0 0-.341-.046 1.279 1.279 0 0 0-.715.217c-.055.038-.108.082-.159.121-.05.04-.109.081-.16.125a.779.779 0 0 0-.073.077 9.924 9.924 0 0 0-.226.293.609.609 0 0 0-.036.059l-.017.034a8.523 8.523 0 0 0-.146.347.675.675 0 0 0-.039.15 1.36 1.36 0 0 0 .352 1.33l.277.214c.213.124.443.186.69.187.188.007.364-.032.527-.118.17-.055.316-.149.44-.283a1.359 1.359 0 0 0 .352-1.33Zm63.728-72.127.101.047c.12.056.252.127.373.16.175.048.274.046.425.033l.134-.012a.854.854 0 0 0 .436-.097.849.849 0 0 0 .365-.234.849.849 0 0 0 .234-.365.853.853 0 0 0 .097-.436l-.04-.301a1.131 1.131 0 0 0-.291-.5l-.23-.177a1.128 1.128 0 0 0-.571-.155l-.129-.01-.069-.006a.972.972 0 0 0-.36.038c-.12.032-.25.102-.37.158l-.105.049a1.052 1.052 0 0 0-.519.904 1.042 1.042 0 0 0 .519.904Zm5.697-3.055c.042.017.085.03.13.038l.014.002c.116.017.25.036.368.05l.03.002.064-.001c.065-.005.135-.017.196-.026.06-.008.13-.014.194-.026a.5.5 0 0 0 .092-.028c.102-.04.206-.084.306-.129a1.144 1.144 0 0 0 .623-1.01c0-.4-.217-.775-.56-.978a.695.695 0 0 1-.068-.045l.238.184a.535.535 0 0 1-.095-.096l.197.255a.52.52 0 0 1-.061-.106l.134.318a.61.61 0 0 1-.04-.15l.051.378-.001-.012-.051-.38-.145-.343-.224-.29-.29-.224-.341-.144-.38-.051-.382.051c-.186.044-.348.13-.486.256a.718.718 0 0 0-.257.257.714.714 0 0 0-.184.316.712.712 0 0 0-.098.361.72.72 0 0 0 0 .381c0 .13.033.25.098.361a.714.714 0 0 0 .184.316.72.72 0 0 0 .257.257c.138.127.3.212.487.256Zm.632 6.25a.998.998 0 0 0 .51-.114.994.994 0 0 0 .427-.274c.13-.12.22-.262.274-.426a.997.997 0 0 0 .114-.51c-.015-.343-.128-.699-.388-.938-.259-.237-.578-.388-.937-.388a.997.997 0 0 0-.51.114.993.993 0 0 0-.426.274.994.994 0 0 0-.274.427.999.999 0 0 0-.115.51c.016.343.128.698.389.937.259.238.577.388.936.388Z"/><path fill="#FF8131" d="M39.317 20.857c.732-.461 1.527-.807 2.284-1.224a9.007 9.007 0 0 0 1.164-.76 12.73 12.73 0 0 0 1.112-.977l.271-.268c.15-.15.308-.298.396-.493.106-.23.213-.46.325-.686l.084-.2a.632.632 0 0 0 .015-.332.792.792 0 0 0-.23-.478.992.992 0 0 0-.367-.215c-.214-.069-.45-.012-.642.084-.239.12-.477.242-.71.373-.204.115-.334.28-.482.45a16.86 16.86 0 0 1-.28.32c-.358.403-.731.798-1.159 1.13l.207-.16c-.713.548-1.517.957-2.28 1.429a11.13 11.13 0 0 0-.636.42.695.695 0 0 0-.258.237.692.692 0 0 0-.164.312c-.06.22-.033.513.093.708.126.196.315.37.549.422.237.054.497.04.708-.092Zm3.063 3.665c.34.085.644.065.985.005.27-.047.522-.16.773-.268.363-.154.702-.356 1.044-.553.173-.1.348-.193.519-.297.23-.14.457-.283.683-.428.465-.298.923-.605 1.379-.918.323-.222.654-.44.952-.696l.685-.594a.753.753 0 0 0 .207-.323.756.756 0 0 0 .087-.387l-.036-.267a.757.757 0 0 0-.18-.341.505.505 0 0 0-.18-.18.757.757 0 0 0-.342-.18 1.06 1.06 0 0 0-.773.101l-.622.35c-.091.052-.185.101-.276.155-.107.063-.207.141-.31.212-.39.27-.782.539-1.178.8-.385.256-.774.506-1.17.747-.158.097-.316.192-.466.302l-.375.28c-.312.23-.635.457-.993.609l.239-.101a1.71 1.71 0 0 1-.399.116l.26-.035a.994.994 0 0 1-.257.002.724.724 0 0 0-.37.083.721.721 0 0 0-.31.198l-.15.195a.717.717 0 0 0-.114.358.484.484 0 0 0 0 .255.717.717 0 0 0 .114.358c.134.208.329.38.575.442Zm7.066 2.62c.263 0 .54-.114.725-.3.178-.178.312-.47.3-.726-.011-.265-.098-.54-.3-.725-.2-.184-.447-.3-.725-.3-.263 0-.54.114-.725.3-.178.178-.312.47-.3.726.011.265.098.54.3.725.2.184.447.3.725.3Zm23.456-7.951a.661.661 0 0 0 .453-.188.652.652 0 0 0 .188-.453c-.016-.347-.282-.64-.641-.64a.662.662 0 0 0-.453.187.652.652 0 0 0-.188.453c.016.348.282.641.641.641Zm3.651 5.784.037-.03-.25.194c.053-.041.108-.08.162-.119.202-.146.437-.3.547-.536a2.61 2.61 0 0 0 .145-.346.493.493 0 0 0 .016-.07c.025-.158.06-.315.04-.474l-.039-.284-.108-.255-.167-.216a.801.801 0 0 0-.344-.221.532.532 0 0 0-.27-.073.537.537 0 0 0-.283 0 .532.532 0 0 0-.27.073.8.8 0 0 0-.344.22.707.707 0 0 1-.091.088l.227-.176a.471.471 0 0 1-.102.06l.282-.12a.446.446 0 0 1-.063.022l-.011.003a9.613 9.613 0 0 0-.296.125c-.03.02-.06.039-.092.057-.076.043-.154.085-.228.132-.186.11-.335.258-.445.444l-.125.296c-.059.22-.059.44 0 .66a.933.933 0 0 0 .222.42.937.937 0 0 0 .348.32c.142.09.296.14.46.147a.94.94 0 0 0 .495-.022c.21-.06.392-.165.547-.319Z"/></svg>