<svg xmlns="http://www.w3.org/2000/svg" width="160" height="180" fill="none"><path fill="#FF3200" d="M21.188 94.707c-.993-.45-2.12-.056-3.123.187-1.21.292-2.339.6-3.507 1.031-.924.342-1.852.727-2.715 1.209-1.155.644-2.045 1.494-2.977 2.427a11.463 11.463 0 0 0-2.044 2.75c-.632 1.179-1.487 2.229-2.115 3.416-.186.351-.395.718-.472 1.112-.061.312-.018.613-.073.927-.067.371-.238.728-.3 1.098-.195 1.16.006 2.372-.183 3.538-.16.987-.386 1.913-.56 2.892-.177 1.004-.198 2.405.184 3.352.206.512.567.88.713 1.396.173.612.356 1.115.607 1.695a13.052 13.052 0 0 0 2.193 3.415 56.699 56.699 0 0 0 2.273 2.372c.5.496 1.226.785 1.82 1.152.377.232.707.529 1.103.729.31.157.598.156.92.256.337.105.658.313.974.472.492.247.994.383 1.494.602 1.15.504 2.46 1.057 3.733 1.134.5.031.99-.062 1.484.032.526.1.971.148 1.504.146.9-.004 1.676.186 2.568.186h2.65c.58 0 1.16-.006 1.74 0 .585.005.912-.177 1.444-.373.858-.317 1.776-.676 2.646-.929 1.274-.37 2.255-1.094 3.328-1.872.857-.621 1.578-1.375 2.431-2.007.947-.702 1.41-2.026 1.91-3.07.48-1.006.71-2.073 1.12-3.101.197-.496.484-.975.523-1.52.055-.779.146-1.523.172-2.302.019-.573.197-1.093.19-1.674-.003-.341-.054-.729-.008-1.065.074-.553.198-.98.196-1.554-.002-.528.076-1.119-.041-1.63-.182-.785-.437-1.604-.519-2.427-.114-1.144-.557-1.984-1.079-2.996-.417-.81-1-1.527-1.534-2.272-.323-.451-.589-.874-.935-1.308-.22-.274-.328-.479-.6-.709-.303-.255-.6-.464-.888-.743-.516-.501-1.165-.674-1.695-1.12-.412-.347-.846-.594-1.307-.892-.995-.642-2.127-1.07-3.122-1.712-.243-.156-.37-.423-.597-.583-.31-.218-.49-.117-.843-.184-.266-.05-.45-.22-.697-.321-.39-.16-.81-.19-1.218-.275-.636-.13-1.28-.426-1.914-.522-.228-.035-.472.053-.701.018-.345-.052-.626-.168-.98-.196-.527-.043-.955-.19-1.493-.186-.545.004-1.09 0-1.634 0-1.143 0-2.343-.118-3.417.321-.47.193-.849.336-1.348.466-.252.066-.46.222-.7.296-.322.098-.56.084-.888.224-.26.11-.367.156-.642.227-.433.112-.553.295-.892.528-.265.182-.304.088-.57.172-.202.064-.378.251-.55.379"/><path fill="#FF3200" d="M21.454 94.251a3.237 3.237 0 0 0-1.323-.374c.097.008-.187-.021-.155-.02-.092-.005-.184-.003-.276-.009a6.305 6.305 0 0 0-.588-.01c-.084.003-.194-.008-.275.012-.13.032.298.053-.051.006-.072-.01-.396-.03-.393.025l-.034.008a1.95 1.95 0 0 1 .07-.007l-.1.013-.338.04a14.93 14.93 0 0 0-1.38.198c-.79.163-1.574.354-2.346.587-.86.26-1.688.571-2.5.956-1.467.694-2.685 1.719-3.83 2.854a14.026 14.026 0 0 0-1.62 1.931c-.438.627-.776 1.313-1.186 1.959-.47.74-.988 1.45-1.43 2.208-.275.47-.524.952-.723 1.459-.203.519-.164 1.065-.229 1.606l.051-.379c-.06.378-.224.726-.302 1.1a8.52 8.52 0 0 0-.157 1.459c-.025.794.022 1.59-.082 2.38l.052-.384c-.218 1.496-.68 2.959-.749 4.476a7.938 7.938 0 0 0 .193 2.187c.095.398.252.789.447 1.146.156.285.344.549.479.845l-.146-.345c.181.432.282.899.45 1.337.205.538.43 1.071.69 1.585.471.928 1.06 1.783 1.712 2.592.626.777 1.336 1.494 2.036 2.205.4.405.788.799 1.248 1.138.337.247.708.439 1.074.638.437.238.823.535 1.239.804.307.198.649.361 1.005.448.258.063.513.102.761.203l-.345-.146c.38.167.73.389 1.11.552.474.202.96.367 1.435.564l-.346-.145c.928.399 1.855.821 2.833 1.083.53.142 1.08.233 1.627.273.47.034.939-.036 1.407.014l-.384-.052c.428.059.85.143 1.281.186.329.032.655.027.984.037.657.02 1.307.138 1.963.173.694.037 1.396.011 2.09.011.708 0 1.415-.003 2.123-.003.444 0 .863-.005 1.304-.074a3.62 3.62 0 0 0 .767-.229 60.39 60.39 0 0 1 1.84-.683c.604-.214 1.23-.373 1.823-.619a10.7 10.7 0 0 0 1.85-.983 23.83 23.83 0 0 0 1.924-1.419c.585-.481 1.133-1.004 1.73-1.471l-.29.224c.314-.243.64-.468.907-.765.256-.285.49-.599.692-.926.296-.478.523-.994.754-1.506.304-.677.614-1.348.85-2.052.23-.681.421-1.375.698-2.038l-.143.338c.172-.4.371-.794.505-1.209.138-.428.154-.883.191-1.328.03-.369.066-.737.093-1.107.028-.378.028-.76.073-1.137l-.05.375c.069-.509.186-1.016.205-1.531.016-.406-.055-.81-.009-1.216l-.05.374c.074-.536.192-1.065.233-1.606.034-.458.045-.936.03-1.395-.031-1.067-.46-2.079-.61-3.13l.05.371c-.1-.764-.196-1.485-.488-2.203a16.432 16.432 0 0 0-.964-2.005c-.343-.596-.762-1.142-1.168-1.694-.474-.644-.915-1.307-1.41-1.936l.218.282c-.246-.322-.467-.67-.776-.937-.283-.244-.587-.46-.86-.716a5.369 5.369 0 0 0-1.038-.76c-.293-.165-.591-.318-.862-.519l.28.217c-.782-.616-1.59-1.188-2.465-1.666-.79-.431-1.642-.786-2.379-1.308l.29.223c-.126-.102-.223-.227-.33-.348a2.313 2.313 0 0 0-.586-.481c-.336-.191-.622-.253-.999-.29-.14-.013-.281-.014-.421-.032l.383.051a1.25 1.25 0 0 1-.25-.07l.345.145c-.424-.195-.814-.437-1.276-.545-.394-.093-.794-.138-1.183-.252-.38-.112-.75-.253-1.133-.353a4.031 4.031 0 0 0-.883-.145c-.2-.006-.396.044-.597.022l.392.052c-.21-.036-.413-.096-.62-.144-.32-.073-.648-.094-.972-.138l.395.053c-.482-.071-.956-.18-1.444-.216-.383-.028-.774-.01-1.158-.015-.729-.007-1.459-.039-2.187-.03-.812.011-1.645.101-2.404.4-.312.123-.624.241-.945.337-.175.051-.352.09-.522.155-.265.1-.513.229-.772.342l.37-.157c-.21.084-.428.118-.647.169-.328.076-.63.234-.938.366l.365-.154c-.338.14-.684.222-1.017.38-.299.142-.558.372-.806.588l.304-.235c-.095.072-.19.144-.297.198l.358-.151a.648.648 0 0 1-.149.04l.397-.054c-.413.048-.727.088-1.1.29-.264.145-.482.362-.715.55l.299-.23-.048.036c-.319.244-.567.478-.679.883-.097.353-.053.824.15 1.138.203.316.506.593.882.679.36.082.831.086 1.139-.149.132-.1.264-.201.394-.306l-.3.232c.152-.113.3-.23.449-.347l-.3.232a1.42 1.42 0 0 1 .258-.16l-.355.15c.069-.024.137-.04.209-.052l-.397.054c.454-.047.87-.113 1.25-.387.191-.137.37-.287.587-.382-.121.05-.242.102-.362.153.184-.072.38-.105.566-.169.195-.067.38-.158.582-.206.196-.046.398-.062.593-.115.325-.089.617-.26.922-.399l-.37.156c.411-.17.853-.267 1.267-.434.442-.179.87-.323 1.343-.391l-.405.054c.715-.094 1.436-.064 2.155-.064.383 0 .766-.003 1.148-.005.391-.002.782-.023 1.17.026l-.396-.053c.51.07 1.018.146 1.529.21l-.395-.052c.27.042.53.122.798.167.244.04.467.079.709.055.143-.014.278-.034.421-.02l-.39-.053c.535.084 1.04.281 1.562.423.52.142 1.07.158 1.575.35l-.345-.145c.323.139.603.333.948.437.314.095.642.082.964.112l-.382-.051c.068.01.13.026.195.05l-.343-.145c.076.035.144.076.212.126l-.29-.224c.159.136.276.312.432.45.258.23.547.408.846.576.434.245.882.46 1.328.682.889.44 1.784.931 2.572 1.538l-.282-.218c.34.27.67.527 1.05.739.285.159.573.312.834.511a53.103 53.103 0 0 1-.281-.217c.259.208.495.442.755.649.245.196.481.385.674.634l-.217-.281c.19.251.38.5.573.749l-.218-.282c.295.387.56.794.842 1.19.273.383.56.757.83 1.142.528.747.96 1.561 1.32 2.401l-.14-.333c.205.488.358.991.434 1.516l-.05-.371c.079.596.15 1.186.287 1.773.112.478.267.954.339 1.441l-.05-.373c.04.334.026.668.013 1.003-.013.328-.008.654-.048.98l.05-.373c-.07.525-.208 1.047-.23 1.578-.018.461.048.913-.012 1.374l.05-.374c-.054.389-.127.774-.175 1.164-.039.314-.041.631-.063.946-.043.617-.081 1.245-.16 1.858l.05-.376c-.04.245-.12.476-.214.706l.143-.339c-.279.653-.56 1.297-.78 1.972-.199.604-.384 1.212-.63 1.8l.143-.34c-.207.484-.434.963-.66 1.439-.218.46-.456.913-.764 1.321l.224-.289a3.486 3.486 0 0 1-.601.616l.29-.224c-.876.661-1.669 1.415-2.535 2.086l.29-.225c-.888.68-1.824 1.352-2.858 1.792l.344-.145c-.367.151-.746.256-1.123.376-.402.128-.798.27-1.194.415-.378.14-.757.279-1.134.423-.333.126-.656.265-1.01.316l.383-.051c-.346.04-.7.017-1.048.017-.368.001-.737.003-1.106.003h-2.104c-.674 0-1.33-.051-2-.123-.677-.072-1.359-.04-2.035-.127l.384.052c-.518-.071-1.028-.187-1.555-.176-.419.009-.826.022-1.243-.033l.384.052c-.945-.136-1.844-.47-2.72-.838l.345.145c-.39-.165-.777-.342-1.172-.498-.304-.12-.615-.225-.918-.349l.345.145c-.382-.161-.731-.385-1.11-.551a4.178 4.178 0 0 0-.815-.287c-.2-.042-.395-.08-.585-.158l.345.146c-.496-.235-.907-.616-1.383-.887-.445-.253-.91-.473-1.322-.78l.293.226c-.3-.232-.558-.517-.824-.786-.267-.27-.532-.542-.794-.818-.528-.554-1.056-1.113-1.525-1.719l.226.292a13.218 13.218 0 0 1-1.666-2.847l.146.345a17.35 17.35 0 0 1-.559-1.589c-.188-.604-.566-1.079-.822-1.646l.145.345a4.202 4.202 0 0 1-.272-1.046l.052.384a7.95 7.95 0 0 1 .018-2.085l-.052.384c.155-1.092.455-2.159.615-3.25a12.69 12.69 0 0 0 .123-1.967c-.004-.579-.01-1.157.064-1.733l-.051.381c.053-.372.19-.713.28-1.075.117-.469.087-.935.145-1.407l-.05.378c.031-.189.088-.368.161-.546l-.143.339c.455-1.047 1.133-1.981 1.747-2.936.598-.927 1.07-1.92 1.746-2.797l-.217.282c.428-.549.908-1.047 1.404-1.534.486-.477.988-.943 1.526-1.36l-.275.212c.804-.614 1.707-1.095 2.637-1.49l-.312.133c.536-.223 1.055-.489 1.591-.715l-.291.123a26.91 26.91 0 0 1 1.534-.588 23.186 23.186 0 0 1 .916-.303l.256-.108c-.13.05-.157.06-.083.031l.106-.04c.13-.052.26-.102.39-.151l.355-.139c.195-.077.402-.122.57-.252.114-.094.121-.095.022-.003l.062-.028c.062-.02.126-.056.186-.083-.13.057.025-.009.07-.027a6.493 6.493 0 0 1 .33-.117c-.001 0 .2-.056.094-.035l.173-.023c-.058-.003-.047-.006.034-.01.056-.007.114-.008.17-.01.27-.007.438.018.694.102.569.187.93-.678.407-.964Z"/><path fill="#0A0A0A" d="M21.374 93.298c-.111-.006-.23-.003-.34-.02-.07-.011-.142-.041-.21-.06.017.004.108.05-.04-.013-.083-.035-.167-.04-.256-.047a6.003 6.003 0 0 0-.823.004c-.546.033-1.103.028-1.646.101-1.047.141-2.037.598-3.024.95-.545.193-1.087.39-1.614.627-.472.212-.905.494-1.378.704-1.013.45-1.974 1.013-2.942 1.551-.525.293-1.072.564-1.579.886-.275.175-.547.38-.763.626a4.12 4.12 0 0 1-.574.566l.22-.17c-.572.438-1.127.893-1.565 1.47a6.501 6.501 0 0 0-.46.683c-.136.235-.235.49-.354.734-.274.558-.573 1.103-.85 1.659a95.528 95.528 0 0 0-.816 1.672c-.185.388-.385.774-.54 1.175-.117.299-.137.623-.256.92l.12-.283c-.153.355-.358.676-.496 1.039-.117.307-.194.628-.295.94-.098.299-.237.584-.338.882a3.098 3.098 0 0 0-.132.674c-.017.152-.008.304-.026.456l.042-.313c-.023.152-.066.297-.105.445a3.441 3.441 0 0 0-.112.786c-.01.373-.003.746.023 1.118.053.784.086 1.569.115 2.355.015.418.048.849.182 1.247.05.152.065.306.105.46.054.208.147.411.24.604.034.071.069.142.108.211.083.145-.042-.184-.003-.019.007.031.017.062.025.093.02.078.033.158.054.236-.01-.038.069.19.106.244.037.074.03.055-.017-.057l.035.098c.028.052.001.117.013-.053-.004.065.024.194.04.276.013.078.035.152.062.226.085.229.16.461.259.686.038.088.085.17.132.254l.046.082a.497.497 0 0 0-.017-.043l.012.044c.021.203.067.417.17.596.124.215.293.365.5.498.028.019.057.039.087.057.04.027.026.016-.04-.033a.71.71 0 0 1 .062.059c.01.009.051.047.057.064a18.803 18.803 0 0 0 .104.136 55.886 55.886 0 0 1-.146-.251c.07.183.097.394.208.557.128.188.325.315.508.445l-.198-.198a.59.59 0 0 1 .04.063c-.03-.081-.036-.093-.017-.038.008.033.019.067.027.101.036.134.084.259.14.386.095.213.218.411.326.617a.516.516 0 0 0 .7.183c.254-.164.3-.437.183-.7-.043-.097-.09-.193-.135-.289-.022-.046-.042-.093-.065-.139-.026-.055 0 0 .004.01a2.795 2.795 0 0 1-.043-.117c-.063-.186-.062-.421-.178-.586-.05-.071.074.189-.015-.021a.956.956 0 0 0-.051-.107c-.02-.037-.045-.072-.066-.108-.023-.04-.042-.08-.063-.121-.04-.08-.121-.139-.16-.215 0 0 .07.098.032.04l-.039-.054c-.016-.023-.032-.05-.05-.072-.009-.01-.06-.062-.015-.009.035.041.007.015-.004-.012l-.024-.06c-.036-.088-.07-.177-.117-.26a1.876 1.876 0 0 0-.24-.318c-.022-.025-.047-.066-.074-.085.004.003.076.119.05.061-.012-.026-.031-.05-.046-.073-.015-.026-.057-.12-.02-.021.036.093.01.022.006.003-.023-.123.008.158 0 .035a2.415 2.415 0 0 0-.052-.442c-.035-.141-.103-.276-.167-.405-.011-.025-.08-.166-.032-.063.044.097.006.013 0-.008-.011-.044-.026-.087-.038-.13-.029-.105-.053-.212-.085-.316-.018-.06-.036-.119-.052-.18-.006-.02-.02-.113-.002-.003.007.057.009.065.005.023-.001-.042-.006-.034-.014.026l-.012.05.028-.204c.005-.043.01-.086.013-.129a1.35 1.35 0 0 0 .002-.178c-.014-.242-.105-.454-.209-.668a2.479 2.479 0 0 0-.032-.064c-.015-.031-.092-.144-.017-.035.056.08.022.045.014.004-.006-.031-.017-.062-.025-.092a3.556 3.556 0 0 1-.08-.374l.032.232c-.026-.199.004-.395-.012-.594a2.863 2.863 0 0 1-.003-.583c.053-.463.05-.934.065-1.4.013-.46.055-.92.079-1.379.024-.456-.023-.923.032-1.376l-.041.311c.031-.205.102-.399.145-.601.065-.305.054-.6.094-.903l-.042.312c.062-.375.246-.718.38-1.071.142-.379.223-.781.38-1.154l-.119.282c.156-.345.357-.658.491-1.015.107-.285.121-.593.23-.877l-.118.282c.434-1.01.916-2.004 1.4-2.991.236-.48.492-.951.71-1.439.2-.446.424-.862.715-1.256l-.177.23c.079-.102.16-.203.235-.307l-.177.229c.25-.317.537-.629.84-.896.133-.119.271-.232.397-.359.189-.191.337-.416.497-.63l-.165.215a2.62 2.62 0 0 1 .448-.445l-.21.162c.369-.281.776-.516 1.164-.768.419-.272.838-.544 1.261-.809.416-.26.835-.517 1.258-.766.407-.24.842-.43 1.243-.68.388-.24.764-.475 1.178-.67a18.9 18.9 0 0 1 .62-.275l-.047.02.073-.03c.096-.04.192-.08.287-.122l.336-.142c.208-.09.415-.182.622-.273l.287-.126c.056-.024.114-.045.168-.072l-.059.025.097-.04a9.676 9.676 0 0 1 1.31-.442c.503-.127 1.013-.218 1.519-.328.132-.03.264-.057.398-.08.026-.004.183-.028.098-.017.075-.01.15-.016.224-.023.043-.003.082-.005.125-.01.047 0 .09-.013.131-.036.065-.032.082-.038.052-.02-.043.013.043-.007.041-.007l.105-.03c.126-.032.262-.029.392-.037.206-.012.382-.166.382-.381 0-.217-.175-.37-.382-.382Zm21.104 11.836c.333.479.59.985.687 1.564.05.301.065.652.188.961.05.124.106.246.14.376.041.158.07.319.114.476.043.151.087.302.125.455.018.076.035.152.049.229a1.13 1.13 0 0 0 .025.178c.034.327.047.657.072.985.052.669.11 1.332.109 2.003-.001.77-.05 1.54-.15 2.304l.038-.282c-.044.329-.083.659-.127.989l.04-.292c-.06.425-.132.847-.179 1.274-.037.347-.065.696-.111 1.043l.042-.312c-.033.238-.086.468-.133.703-.063.315-.055.629-.095.944l.043-.324a1.342 1.342 0 0 1-.063.236c-.06.167-.07.288-.093.486-.02.18-.003.36-.022.54l.045-.334a3.455 3.455 0 0 1-.227.762l.126-.3c-.144.335-.339.64-.518.956a5.67 5.67 0 0 0-.341.732c-.072.184-.114.377-.187.559l.127-.301c-.146.323-.318.62-.441.956-.08.218-.143.442-.232.657l.128-.302c-.113.262-.282.497-.43.74a8.393 8.393 0 0 1-.485.735l.198-.256c-.146.187-.314.35-.47.528a8.478 8.478 0 0 0-.563.731c-.252.365-.465.758-.736 1.109l.198-.256c-.268.338-.594.62-.919.903-.159.138-.318.277-.469.425-.226.22-.413.461-.605.711l.198-.256a2.728 2.728 0 0 1-.498.48l.257-.198c-.249.189-.5.377-.744.571l.257-.198c-.32.24-.702.366-1.044.568-.179.106-.346.219-.537.304-.201.09-.402.183-.604.272l.304-.128c-.28.114-.57.204-.83.36-.173.104-.34.216-.522.304-.183.088-.37.169-.547.27-.178.1-.346.204-.534.285l.304-.128c-.35.147-.696.303-1.042.459l.303-.128c-.184.076-.376.121-.566.178-.277.083-.537.211-.801.327l.293-.124c-.209.087-.422.158-.63.254l.292-.123a3.926 3.926 0 0 0-.362.151l.29-.122a.422.422 0 0 1-.1.027l.318-.043a3.64 3.64 0 0 0-.709.141 2.75 2.75 0 0 1-.484.106c-.332.048-.657.11-.984.182-.326.071-.651.145-.976.222-.34.081-.683.174-1.03.223l.261-.035a8.242 8.242 0 0 1-1.226.069l.238.032c-.822-.121-1.668-.053-2.497-.029-.178.005-.355.015-.533-.003-.173-.017-.345-.048-.52-.057-.39-.021-.792.012-1.183.021-.412.009-.807.355-.788.787.02.435.346.777.788.787.424.01.863-.01 1.284.045l-.217-.029c.287.042.572.106.862.121.253.014.508.01.761.016l.767.022c.26.007.523-.001.782.031l-.236-.032c.154.022.301.06.453.092.221.047.448.069.673.09.398.037.786-.004 1.18-.068.664-.108 1.327-.216 1.993-.312l-.283.038c.233-.026.464-.036.698-.044.311-.011.613-.056.919-.115l-.302.041a.98.98 0 0 1 .153.006 33.214 33.214 0 0 1-.31-.041c.194.042.387.091.587.087.215-.005.338-.052.52-.104.195-.056.381-.137.576-.193.19-.055.388-.082.579-.134.302-.084.58-.236.869-.358l-.305.128c.27-.112.546-.214.808-.344.19-.094.364-.215.555-.31.181-.089.37-.167.546-.269.183-.107.354-.234.55-.319l-.304.129c.581-.232 1.167-.467 1.699-.796.206-.128.429-.222.644-.33.312-.156.572-.37.847-.584l-.257.198c.238-.183.484-.358.715-.55.238-.197.412-.43.6-.675l-.199.256c.423-.536.99-.926 1.465-1.41.58-.591.937-1.337 1.437-1.988l-.198.256c.193-.245.42-.458.613-.703a9.72 9.72 0 0 0 .671-.969c.147-.244.319-.481.435-.741.16-.357.268-.727.41-1.09l-.127.301c.104-.244.239-.471.342-.716.105-.248.166-.508.268-.756l-.127.301c.197-.45.493-.847.692-1.297.13-.296.262-.598.334-.914.047-.207.082-.426.077-.639-.004-.144-.027-.286-.018-.431l-.045.328c.011-.077.037-.15.055-.226.045-.179.067-.366.075-.551.008-.192-.015-.383.004-.575l-.043.318c.08-.545.134-1.08.148-1.631.012-.467.047-.929.078-1.394.064-.985-.045-1.975-.184-2.949-.129-.907-.346-1.793-.532-2.689a7.247 7.247 0 0 0-.414-1.391l-.136-.309a10.43 10.43 0 0 0-.064-.142l-.031-.071c-.039-.079.03.073-.005-.01a4 4 0 0 0-.329-.606c-.125-.2-.161-.363-.24-.605a6.095 6.095 0 0 0-.28-.68 5.651 5.651 0 0 0-.751-1.196c-.225-.277-.703.089-.497.383Zm-9.995-4.124c.06 0 .123-.026.166-.069a.24.24 0 0 0 .069-.167.24.24 0 0 0-.235-.235.242.242 0 0 0-.167.069.24.24 0 0 0-.069.166.24.24 0 0 0 .236.236Zm2.436-.397c.08.015.162.024.243.034l-.092-.012c.036.005.072.01.108.017l.054.013.023.005a.367.367 0 0 0 .202 0l.015-.002-.1.014c.027-.004.054-.006.082-.004l-.306-.176.034.067.052.067a.24.24 0 0 0 .108.069.165.165 0 0 0 .084.023.25.25 0 0 0 .132-.006.4.4 0 0 0 .147-.086.25.25 0 0 0 .069-.107.25.25 0 0 0 .029-.128l.005-.078a.352.352 0 0 0-.175-.305.417.417 0 0 0-.051-.03.498.498 0 0 0-.226-.066c-.07.001-.14.015-.209.028-.076.016-.151.038-.228.052l-.076.032a.238.238 0 0 0-.089.082.155.155 0 0 0-.04.07.234.234 0 0 0-.027.121.37.37 0 0 0 .043.16.24.24 0 0 0 .081.089.24.24 0 0 0 .108.057Zm-.476 3.291a.434.434 0 0 0 .299-.124.311.311 0 0 0 .087-.136.315.315 0 0 0 .036-.162.428.428 0 0 0-.123-.299.437.437 0 0 0-.299-.123.438.438 0 0 0-.298.123.318.318 0 0 0-.088.136.318.318 0 0 0-.036.163.426.426 0 0 0 .422.422Zm3.742-.801.084-.012.043-.007.02-.003.01-.001a.35.35 0 0 0 .16-.094.264.264 0 0 0 .074-.114.27.27 0 0 0 .03-.137l-.012-.094a.36.36 0 0 0-.091-.157.223.223 0 0 0-.074-.058l-.086-.036-.01-.001-.021-.003-.042-.006-.085-.013a.388.388 0 0 0-.371.098l-.06.077a.382.382 0 0 0-.052.193.286.286 0 0 0 .033.147.291.291 0 0 0 .079.123.382.382 0 0 0 .371.098ZM9.239 126.291a.417.417 0 0 0 .287-.119.3.3 0 0 0 .084-.13.31.31 0 0 0 .035-.157.412.412 0 0 0-.12-.287.421.421 0 0 0-.286-.119.422.422 0 0 0-.287.119.309.309 0 0 0-.084.131.303.303 0 0 0-.035.156.41.41 0 0 0 .119.287c.08.073.177.119.287.119Zm1.774-1.741c.06.002.116-.01.168-.038a.33.33 0 0 0 .142-.091.32.32 0 0 0 .09-.141.329.329 0 0 0 .038-.169l-.016-.116a.434.434 0 0 0-.113-.193 68.56 68.56 0 0 0-.088-.069.43.43 0 0 0-.221-.06.327.327 0 0 0-.17.038.33.33 0 0 0-.14.091.321.321 0 0 0-.091.141.327.327 0 0 0-.038.168l.016.117c.02.074.058.139.113.193l.088.069c.069.04.143.06.222.06Zm.887 3.622a.26.26 0 0 0 .032-.032 2.13 2.13 0 0 0 .094-.126.112.112 0 0 0 .01-.019l.048-.113.004-.013a.172.172 0 0 0 .009-.062.347.347 0 0 0-.008-.182.615.615 0 0 0-.047-.111l-.01-.016-.006-.009a2.002 2.002 0 0 0-.07-.091.296.296 0 0 0-.14-.096.297.297 0 0 0-.15-.033l-.104.014a.387.387 0 0 0-.172.1l-.015.014.083-.065c-.01.009-.022.014-.034.02l-.002.001a.653.653 0 0 0-.093.072l-.071.092a.046.046 0 0 1-.002.003l-.007.013a.337.337 0 0 1-.016.024l.072-.093a.232.232 0 0 1-.043.042l.093-.072a.777.777 0 0 1-.016.012.461.461 0 0 0-.166.166l-.047.11a.467.467 0 0 0 0 .246.35.35 0 0 0 .083.157.346.346 0 0 0 .13.12c.053.033.11.052.172.055a.351.351 0 0 0 .185-.009.457.457 0 0 0 .204-.119Zm-4.528-3.671a.4.4 0 0 0 .276-.114.398.398 0 0 0 .114-.276.393.393 0 0 0-.114-.275.405.405 0 0 0-.276-.114.4.4 0 0 0-.275.114.394.394 0 0 0-.115.275.394.394 0 0 0 .115.276c.076.07.17.114.275.114Zm5.278 1.178-.073.035a.42.42 0 0 0-.205.358.416.416 0 0 0 .278.392.451.451 0 0 0 .46 0 .448.448 0 0 0 .224-.392.455.455 0 0 0-.684-.393Z"/><path fill="#FF3200" d="M76.045 94.31c-.993-.45-2.119-.056-3.123.186-1.209.292-2.339.6-3.507 1.032-.924.341-1.852.727-2.715 1.208-1.155.644-2.045 1.494-2.977 2.427a11.449 11.449 0 0 0-2.044 2.751c-.632 1.178-1.486 2.228-2.115 3.415-.186.351-.395.719-.472 1.112-.061.313-.017.614-.073.927-.066.372-.238.728-.3 1.098-.195 1.16.006 2.373-.183 3.539-.16.986-.386 1.912-.56 2.892-.177 1.003-.197 2.405.184 3.351.206.512.567.88.713 1.396a13.058 13.058 0 0 0 2.8 5.111 56.713 56.713 0 0 0 2.274 2.372c.5.495 1.225.785 1.82 1.151.376.232.707.529 1.102.729.31.157.598.157.92.257.337.105.658.313.975.472.491.247.993.383 1.493.602 1.15.503 2.46 1.056 3.733 1.134.5.03.99-.062 1.484.032.527.1.971.147 1.504.145.9-.004 1.676.186 2.568.187h2.65c.58 0 1.16-.006 1.74-.001.585.005.912-.176 1.444-.373.858-.316 1.776-.675 2.646-.928 1.274-.37 2.255-1.094 3.328-1.872.857-.622 1.578-1.376 2.431-2.008.947-.701 1.41-2.025 1.91-3.07.48-1.005.71-2.072 1.12-3.1.198-.497.484-.975.523-1.521.055-.778.146-1.523.172-2.302.02-.573.197-1.092.191-1.673-.004-.341-.054-.729-.009-1.066.075-.553.198-.979.196-1.554-.002-.528.077-1.119-.041-1.629-.182-.786-.436-1.605-.519-2.427-.114-1.144-.557-1.984-1.078-2.997-.418-.81-1.001-1.526-1.535-2.271-.323-.452-.589-.874-.935-1.308-.22-.275-.328-.48-.6-.71-.303-.254-.6-.463-.888-.742-.516-.501-1.165-.675-1.695-1.12-.412-.347-.846-.595-1.307-.892-.995-.643-2.127-1.071-3.122-1.712-.243-.157-.37-.424-.597-.583-.31-.219-.49-.117-.843-.185-.265-.05-.449-.22-.697-.32-.39-.16-.81-.191-1.218-.275-.636-.131-1.28-.426-1.913-.523-.229-.035-.473.054-.702.019-.345-.053-.626-.168-.98-.197-.527-.042-.955-.19-1.493-.186-.545.005-1.09 0-1.634 0-1.143 0-2.343-.117-3.416.322-.471.192-.85.336-1.349.466-.252.066-.46.222-.7.295-.322.099-.56.084-.888.224-.26.11-.367.157-.642.228-.433.112-.553.295-.892.527-.265.182-.304.088-.57.173-.201.064-.378.25-.55.378"/><path fill="#FF3200" d="M76.311 93.853a3.238 3.238 0 0 0-1.323-.373c.097.008-.187-.022-.155-.02-.091-.005-.184-.003-.276-.01a6.338 6.338 0 0 0-.588-.009c-.084.003-.194-.009-.275.011-.13.032.298.054-.05.007-.073-.01-.397-.03-.394.024l-.034.009c.116-.013.14-.016.071-.007l-.1.012-.339.04c-.464.052-.922.104-1.38.199a26.98 26.98 0 0 0-2.346.586c-.859.26-1.688.572-2.5.956-1.466.695-2.685 1.72-3.83 2.855a14.057 14.057 0 0 0-1.62 1.93c-.438.628-.776 1.313-1.185 1.959-.47.741-.989 1.451-1.432 2.208-.274.47-.523.952-.721 1.459-.204.52-.165 1.065-.23 1.607l.052-.379c-.06.377-.225.726-.303 1.099a8.513 8.513 0 0 0-.157 1.46c-.025.794.023 1.59-.082 2.379l.052-.383c-.218 1.496-.68 2.958-.748 4.476a7.937 7.937 0 0 0 .192 2.187c.096.397.252.788.448 1.146.155.285.344.549.478.845l-.146-.345c.181.431.282.898.45 1.337.205.537.43 1.071.691 1.584.47.929 1.059 1.783 1.711 2.592.626.778 1.336 1.494 2.036 2.205.4.406.788.8 1.248 1.138.337.248.708.439 1.074.639.437.238.823.534 1.239.803.307.199.65.361 1.005.448.258.064.513.103.761.204l-.345-.146c.38.166.73.389 1.11.551.474.202.96.367 1.435.565l-.345-.146c.928.4 1.854.821 2.833 1.084.53.142 1.08.233 1.627.273.468.034.938-.036 1.406.013l-.384-.051c.428.059.85.143 1.282.185.328.032.654.028.983.038.658.019 1.307.137 1.963.172.695.038 1.396.011 2.09.011.708 0 1.415-.003 2.123-.003.444 0 .863-.004 1.304-.073a3.68 3.68 0 0 0 .767-.23 66.345 66.345 0 0 1 1.84-.683c.604-.214 1.23-.372 1.823-.619a10.695 10.695 0 0 0 1.851-.982c.66-.442 1.31-.914 1.923-1.419.585-.481 1.133-1.005 1.73-1.472l-.29.224c.314-.243.64-.467.907-.764.256-.286.49-.6.692-.927.296-.478.524-.994.754-1.506.304-.676.614-1.347.851-2.052.229-.68.42-1.374.698-2.038l-.143.339c.171-.401.37-.794.504-1.209.139-.428.155-.883.192-1.328.03-.369.065-.738.092-1.107.028-.379.028-.761.073-1.137l-.05.374c.069-.509.186-1.016.206-1.53.015-.406-.055-.81-.01-1.216l-.05.374c.074-.536.192-1.066.233-1.606.034-.459.045-.936.031-1.396-.032-1.067-.46-2.078-.61-3.13l.05.372c-.1-.765-.197-1.486-.489-2.203a16.516 16.516 0 0 0-.964-2.006c-.343-.595-.762-1.141-1.168-1.694-.473-.644-.914-1.306-1.41-1.935l.218.281c-.246-.321-.467-.67-.776-.936-.283-.244-.587-.46-.86-.716a5.37 5.37 0 0 0-1.038-.76c-.293-.166-.591-.318-.862-.52l.28.218c-.781-.616-1.59-1.188-2.465-1.666-.79-.432-1.642-.786-2.379-1.309l.29.224c-.126-.103-.223-.227-.33-.349a2.316 2.316 0 0 0-.586-.48c-.336-.192-.622-.254-.999-.29-.14-.014-.281-.014-.421-.033l.383.052a1.256 1.256 0 0 1-.25-.07l.345.145c-.424-.195-.814-.437-1.276-.546-.394-.092-.794-.137-1.183-.252-.38-.111-.75-.252-1.133-.353a4.03 4.03 0 0 0-.882-.144c-.201-.007-.397.043-.598.021l.393.053c-.21-.037-.414-.096-.621-.144-.32-.073-.648-.095-.972-.138l.395.053c-.482-.072-.956-.181-1.444-.217-.383-.028-.773-.01-1.158-.014-.728-.008-1.458-.04-2.187-.03-.812.01-1.645.1-2.404.4-.311.123-.624.24-.945.336-.174.052-.352.09-.522.155-.265.1-.513.23-.772.342l.37-.156c-.21.084-.428.117-.646.168-.329.077-.63.235-.94.367l.366-.154c-.338.14-.683.222-1.017.38-.299.142-.557.372-.806.588l.304-.235c-.095.072-.19.144-.297.197l.358-.15a.65.65 0 0 1-.149.04l.398-.054c-.414.048-.728.088-1.1.29-.265.144-.483.362-.716.55l.299-.231-.047.036c-.32.245-.568.479-.68.883-.097.354-.053.825.15 1.139.203.315.506.593.882.678.36.082.832.087 1.139-.148.132-.101.264-.202.394-.306l-.3.231c.152-.112.3-.23.449-.346l-.3.232c.082-.062.165-.117.259-.16l-.356.15c.069-.025.137-.041.21-.052l-.398.053c.454-.047.87-.113 1.251-.386.19-.138.369-.288.586-.383l-.362.153c.184-.071.38-.104.566-.168.195-.067.38-.159.582-.206.196-.047.398-.062.593-.116.326-.088.617-.26.922-.398l-.37.156c.411-.17.853-.268 1.268-.435.441-.178.87-.323 1.343-.39l-.406.054c.715-.095 1.436-.065 2.155-.064.383 0 .766-.003 1.148-.006.391-.002.782-.022 1.171.026l-.396-.053c.51.071 1.017.147 1.528.211l-.394-.053c.268.042.529.122.797.167.244.041.467.08.71.055.142-.014.277-.034.42-.02l-.39-.052c.535.083 1.04.281 1.562.423.52.141 1.07.158 1.576.35l-.346-.146c.324.14.603.334.948.438.314.094.642.081.964.112l-.382-.052c.068.01.13.026.196.05l-.343-.144c.076.035.144.076.21.126l-.29-.224c.16.136.277.312.433.45.258.229.547.408.846.576.434.244.883.46 1.328.681.889.441 1.784.931 2.572 1.538l-.282-.217c.34.27.671.527 1.05.738.285.16.573.313.834.512l-.281-.217c.259.207.495.441.755.648.245.196.482.385.675.635l-.218-.281c.19.251.38.5.573.748l-.218-.281c.295.386.56.794.842 1.19.274.383.56.756.831 1.141.527.747.96 1.561 1.32 2.401l-.141-.333c.205.489.358.991.434 1.516l-.05-.371c.079.597.15 1.187.287 1.773.112.478.267.955.34 1.441a23.692 23.692 0 0 1-.05-.372c.04.334.025.667.012 1.002-.013.328-.008.655-.048.981l.05-.373c-.07.525-.208 1.047-.229 1.577-.019.462.047.913-.013 1.375l.05-.375c-.054.389-.126.775-.175 1.165-.039.313-.041.63-.063.946-.043.617-.08 1.244-.16 1.858l.05-.376a3.17 3.17 0 0 1-.214.705l.143-.338c-.279.652-.56 1.296-.78 1.971-.199.604-.384 1.213-.63 1.8l.143-.34c-.207.484-.434.963-.66 1.439-.218.461-.456.913-.763 1.322l.223-.29a3.53 3.53 0 0 1-.6.617l.289-.224c-.876.661-1.669 1.415-2.534 2.085l.29-.224c-.89.679-1.825 1.352-2.86 1.792l.345-.146c-.367.152-.746.257-1.123.377-.401.128-.798.27-1.194.415-.378.139-.757.279-1.134.422-.332.127-.656.265-1.01.317l.383-.052c-.346.04-.7.017-1.047.018l-1.107.002h-2.104c-.674 0-1.33-.051-2-.122-.677-.073-1.359-.04-2.034-.127l.384.052c-.52-.072-1.03-.187-1.556-.176-.419.009-.826.022-1.243-.033l.384.051c-.945-.136-1.844-.469-2.72-.838l.345.146c-.39-.166-.777-.342-1.172-.498-.304-.121-.615-.225-.918-.35l.345.146c-.382-.162-.731-.385-1.11-.551a4.112 4.112 0 0 0-.815-.287c-.2-.043-.395-.08-.585-.158l.346.145c-.497-.235-.908-.615-1.384-.887-.445-.253-.91-.473-1.321-.78l.292.226c-.3-.232-.558-.516-.824-.785a61.27 61.27 0 0 1-.794-.818c-.528-.555-1.056-1.113-1.525-1.72l.226.293a13.214 13.214 0 0 1-1.666-2.847l.146.345a17.57 17.57 0 0 1-.558-1.589c-.189-.605-.567-1.079-.823-1.646l.146.345a4.211 4.211 0 0 1-.273-1.046l.052.384a7.96 7.96 0 0 1 .018-2.086l-.052.384c.155-1.091.455-2.158.615-3.249.097-.658.128-1.304.124-1.967-.005-.579-.011-1.158.063-1.733l-.051.38c.053-.371.19-.712.28-1.074.117-.469.087-.935.146-1.407l-.051.378a2.51 2.51 0 0 1 .161-.546l-.143.339c.455-1.047 1.133-1.981 1.748-2.936.597-.927 1.07-1.92 1.745-2.797l-.217.282c.428-.549.908-1.047 1.404-1.534.486-.478.988-.943 1.526-1.36l-.275.212c.804-.614 1.707-1.095 2.637-1.49l-.312.132c.536-.222 1.056-.488 1.592-.715l-.292.123a27.033 27.033 0 0 1 1.534-.588 23.186 23.186 0 0 1 .917-.302l.255-.108a3.042 3.042 0 0 1 .023-.01l.39-.15.355-.14c.195-.077.402-.122.57-.252.114-.093.121-.094.023-.002l.061-.029c.062-.02.126-.056.186-.082-.13.056.026-.01.07-.027a6.496 6.496 0 0 1 .33-.118s.2-.056.094-.034l.173-.023c-.058-.003-.047-.007.034-.01.056-.008.114-.008.17-.01.27-.008.439.018.694.102.569.187.93-.679.407-.965Z"/><path fill="#0A0A0A" d="M76.231 92.9c-.11-.006-.23-.002-.34-.02-.07-.01-.142-.04-.21-.06.017.004.109.05-.04-.012-.083-.036-.167-.04-.256-.047a5.987 5.987 0 0 0-.822.003c-.547.033-1.104.029-1.646.102-1.047.14-2.038.598-3.025.949-.544.193-1.087.39-1.614.627-.472.212-.905.495-1.378.705-1.013.45-1.974 1.012-2.942 1.55-.525.293-1.071.564-1.579.886-.275.175-.546.38-.763.627a4.124 4.124 0 0 1-.574.565l.22-.17c-.572.438-1.127.894-1.564 1.47a6.717 6.717 0 0 0-.46.683c-.136.236-.235.491-.355.735-.273.557-.572 1.103-.85 1.658a95.62 95.62 0 0 0-.816 1.673c-.185.388-.385.774-.54 1.175-.117.298-.137.622-.255.92l.119-.283c-.152.354-.357.675-.496 1.039-.116.306-.194.628-.295.939-.098.3-.236.584-.338.882-.076.222-.106.44-.132.675-.017.151-.007.304-.026.455l.042-.312c-.023.151-.066.297-.105.445a3.44 3.44 0 0 0-.112.785c-.01.373-.002.746.023 1.118.053.785.086 1.569.115 2.355.015.419.049.85.182 1.248.05.151.065.306.105.459.055.209.147.411.24.605.034.07.069.142.108.21.084.146-.042-.183-.003-.018.007.031.017.061.025.092.02.078.033.159.054.236-.01-.037.069.191.107.244.036.074.03.055-.018-.056l.035.097c.029.053.002.118.013-.053-.004.066.025.194.04.276.013.078.035.152.062.226.085.23.16.462.259.686.038.089.085.171.133.255l.045.081a.558.558 0 0 0-.017-.042l.012.044c.021.203.068.417.17.595.124.215.294.366.5.499.028.018.057.039.087.056.04.027.026.016-.04-.033.022.019.042.039.062.059.01.01.051.048.057.065a9.745 9.745 0 0 0 .104.136l-.146-.251c.07.182.097.393.208.556.128.188.325.316.508.445l-.198-.198a.88.88 0 0 1 .04.063c-.03-.08-.036-.093-.017-.038.008.034.019.068.028.101.035.134.084.26.14.387.094.213.217.41.325.616a.516.516 0 0 0 .7.184c.254-.164.3-.438.183-.7-.043-.097-.09-.193-.135-.289l-.064-.139c-.027-.055-.001-.001.003.009a2.02 2.02 0 0 1-.043-.117c-.063-.186-.061-.42-.178-.585-.05-.071.074.189-.015-.021a.977.977 0 0 0-.05-.108c-.022-.036-.046-.071-.067-.108-.023-.039-.042-.079-.062-.12-.04-.08-.122-.139-.161-.215 0 0 .07.098.032.039l-.038-.053c-.017-.023-.033-.051-.051-.073-.008-.01-.06-.061-.015-.008.035.04.007.014-.004-.013a3.755 3.755 0 0 0-.024-.06c-.035-.087-.07-.177-.116-.259a1.878 1.878 0 0 0-.24-.318c-.023-.026-.048-.066-.075-.085.004.003.076.119.05.06-.012-.025-.031-.049-.045-.073-.015-.025-.057-.119-.02-.021.036.093.009.023.005.004-.023-.123.008.158.001.034-.009-.146-.018-.3-.053-.442-.035-.14-.103-.275-.166-.405-.012-.024-.08-.165-.033-.062.044.096.006.013 0-.008-.01-.044-.026-.087-.038-.131-.029-.105-.053-.211-.085-.315-.018-.061-.036-.12-.052-.181-.005-.02-.02-.112-.002-.002.007.057.009.065.005.023 0-.043-.005-.034-.014.025l-.012.051.028-.204c.005-.043.01-.086.013-.129.004-.06.006-.119.002-.178-.014-.242-.105-.455-.209-.669l-.031-.064c-.015-.03-.093-.144-.017-.035.055.081.021.046.013.005-.006-.031-.017-.062-.025-.093a3.585 3.585 0 0 1-.08-.373l.032.232c-.026-.2.005-.395-.012-.594a2.861 2.861 0 0 1-.003-.583c.053-.463.051-.935.065-1.401.013-.459.055-.919.079-1.379.024-.456-.023-.923.033-1.376l-.042.312c.032-.205.102-.399.145-.602.065-.304.054-.6.094-.903l-.042.313c.062-.376.246-.718.38-1.071.142-.379.223-.781.38-1.155l-.118.282c.156-.345.356-.657.49-1.014.107-.285.121-.593.23-.878l-.118.283a66.51 66.51 0 0 1 1.4-2.991c.236-.48.492-.952.71-1.44.2-.446.424-.861.715-1.255l-.177.23c.079-.102.16-.203.236-.308l-.178.23c.251-.317.538-.629.84-.897.133-.118.272-.232.397-.359.189-.19.337-.415.498-.629l-.166.214c.132-.167.281-.313.448-.445l-.21.162c.369-.28.776-.516 1.164-.768.42-.272.838-.543 1.261-.808.417-.26.835-.517 1.258-.767.407-.24.842-.43 1.244-.679.387-.24.763-.476 1.177-.67.205-.096.413-.186.62-.275.129-.055-.03.014-.047.02l.073-.03.288-.122.335-.143c.208-.09.415-.181.623-.273l.287-.126c.055-.024.113-.045.168-.072l-.06.025.097-.04a9.657 9.657 0 0 1 1.311-.442c.502-.126 1.012-.217 1.518-.328.132-.029.264-.056.398-.08.026-.004.183-.028.099-.017.074-.01.148-.016.223-.022.043-.004.082-.005.125-.011a.257.257 0 0 0 .132-.036c.064-.031.08-.038.05-.019-.042.012.044-.008.042-.007.035-.009.07-.022.105-.03.126-.032.262-.03.392-.037.206-.013.382-.167.382-.382 0-.216-.175-.37-.382-.381Zm21.104 11.837c.333.478.59.984.687 1.563.05.302.065.653.189.961.05.125.105.247.14.376.04.159.068.319.113.477.043.151.088.301.125.454.018.076.035.153.049.23.008.044.016.088.02.132a1.083 1.083 0 0 0 .004.046c.035.327.048.656.074.984.051.669.109 1.332.108 2.004-.001.77-.05 1.54-.15 2.303l.038-.282c-.044.33-.083.66-.127.989l.04-.292c-.06.425-.132.848-.178 1.274-.038.348-.066.697-.112 1.043l.042-.311c-.033.237-.086.468-.133.702-.063.315-.055.629-.095.945l.043-.324a1.355 1.355 0 0 1-.063.235c-.06.167-.07.289-.093.487-.02.179-.003.36-.022.539l.045-.333a3.472 3.472 0 0 1-.227.762l.127-.301c-.145.336-.34.64-.52.957a5.62 5.62 0 0 0-.34.732c-.072.183-.113.376-.187.559l.127-.301c-.145.323-.318.62-.44.956-.08.218-.144.441-.232.656l.127-.301c-.113.261-.282.496-.43.74a8.4 8.4 0 0 1-.484.734l.197-.256c-.145.187-.314.35-.47.529a8.345 8.345 0 0 0-.563.731c-.252.364-.465.758-.736 1.109l.198-.256c-.268.338-.594.62-.918.902-.16.139-.319.278-.47.425a6.59 6.59 0 0 0-.605.712l.198-.257a2.733 2.733 0 0 1-.498.481l.257-.199c-.249.19-.499.377-.744.572l.257-.199c-.32.241-.702.367-1.044.569-.179.105-.346.218-.537.304-.201.09-.402.183-.604.272l.304-.128c-.28.113-.57.204-.83.36-.173.104-.339.215-.522.303-.183.089-.37.17-.547.27-.178.101-.346.204-.534.286l.304-.129c-.35.148-.695.303-1.042.459l.303-.127c-.184.076-.376.121-.566.178-.277.083-.537.211-.801.326l.294-.124c-.21.087-.423.159-.63.254l.29-.123a3.934 3.934 0 0 0-.36.152l.289-.122a.377.377 0 0 1-.1.026l.318-.042a3.65 3.65 0 0 0-.709.141 2.75 2.75 0 0 1-.484.106c-.331.047-.657.11-.984.181-.326.072-.65.146-.975.223-.341.08-.684.173-1.032.223l.262-.035a8.379 8.379 0 0 1-1.226.069l.238.031c-.822-.12-1.668-.052-2.497-.028-.178.005-.355.014-.533-.003-.173-.018-.345-.049-.52-.058-.39-.021-.791.012-1.183.021-.412.009-.807.356-.788.787.02.435.346.778.788.788.424.01.863-.01 1.284.045l-.217-.03c.287.043.572.106.862.122.253.013.508.009.762.016l.766.021c.26.007.524 0 .782.031l-.236-.031c.154.021.301.059.454.092.22.047.448.069.672.09.398.037.786-.004 1.18-.068.664-.108 1.327-.216 1.993-.313l-.282.038a9.55 9.55 0 0 1 .697-.044c.311-.01.613-.055.919-.114l-.302.041a.873.873 0 0 1 .153.006l-.31-.042c.194.043.387.091.588.087.214-.004.337-.052.52-.104.195-.055.38-.136.575-.192.19-.055.388-.082.579-.135.303-.083.581-.236.869-.358l-.304.129c.27-.112.545-.214.807-.344.19-.094.364-.216.555-.31.182-.09.37-.168.546-.27.184-.107.354-.234.55-.318l-.304.128c.581-.231 1.167-.467 1.7-.796.205-.127.428-.221.643-.33.313-.156.573-.369.847-.584l-.257.199c.239-.184.484-.359.716-.551.237-.197.41-.429.599-.675l-.198.257c.422-.537.988-.926 1.464-1.411.58-.59.937-1.336 1.437-1.987l-.198.256c.193-.246.42-.459.613-.704.245-.312.466-.63.671-.969.147-.243.319-.48.435-.74.161-.358.268-.727.41-1.091l-.127.302c.104-.244.239-.472.342-.716.105-.248.166-.508.268-.756l-.127.301c.197-.451.494-.848.692-1.298.131-.295.262-.597.334-.914.047-.206.082-.425.077-.638-.004-.144-.027-.287-.018-.431l-.044.328c.011-.078.036-.15.055-.226.044-.179.066-.367.074-.551.008-.192-.015-.383.004-.575l-.043.318c.081-.546.135-1.081.148-1.631.012-.467.048-.929.078-1.395.064-.985-.045-1.974-.184-2.949-.129-.907-.346-1.792-.532-2.688-.1-.481-.22-.938-.414-1.391-.044-.104-.09-.207-.136-.31l-.064-.142-.031-.07c-.039-.08.03.072-.005-.01a4.059 4.059 0 0 0-.329-.607c-.124-.2-.161-.363-.24-.605a6.095 6.095 0 0 0-.28-.68 5.698 5.698 0 0 0-.751-1.196c-.225-.277-.703.089-.497.384Zm-9.995-4.125a.236.236 0 0 0 .235-.235.239.239 0 0 0-.235-.235.236.236 0 0 0-.235.235.239.239 0 0 0 .235.235Zm2.436-.397c.08.016.162.024.243.035l-.092-.012a2.003 2.003 0 0 1 .185.035.387.387 0 0 0 .203 0l.014-.002-.1.013a.564.564 0 0 1 .082-.004l-.306-.175.035.066.052.068a.26.26 0 0 0 .107.069.165.165 0 0 0 .084.022.25.25 0 0 0 .132-.006.385.385 0 0 0 .147-.085.25.25 0 0 0 .07-.107.26.26 0 0 0 .028-.129l.005-.077a.353.353 0 0 0-.175-.306.44.44 0 0 0-.051-.029.496.496 0 0 0-.226-.066c-.07 0-.14.014-.208.028-.077.016-.152.038-.229.052l-.076.032a.239.239 0 0 0-.088.081.158.158 0 0 0-.041.07.24.24 0 0 0-.027.122c.002.056.017.11.043.16.02.037.047.066.081.089a.23.23 0 0 0 .108.056Zm-.476 3.291a.438.438 0 0 0 .299-.123.325.325 0 0 0 .087-.136.319.319 0 0 0 .036-.163.426.426 0 0 0-.422-.422.434.434 0 0 0-.298.124.313.313 0 0 0-.087.136.315.315 0 0 0-.037.162c.005.109.04.223.124.299a.437.437 0 0 0 .298.123Zm3.742-.801.085-.012.042-.006.02-.003.01-.002a.342.342 0 0 0 .16-.094.264.264 0 0 0 .074-.114.267.267 0 0 0 .03-.136l-.012-.095a.35.35 0 0 0-.091-.156.2.2 0 0 0-.074-.058l-.085-.036-.011-.002-.021-.003-.042-.006-.085-.012a.388.388 0 0 0-.37.098l-.06.077a.382.382 0 0 0-.053.193.29.29 0 0 0 .033.147.373.373 0 0 0 .247.22.368.368 0 0 0 .203 0Zm-28.946 23.189a.417.417 0 0 0 .287-.119.304.304 0 0 0 .084-.131.302.302 0 0 0 .035-.156.41.41 0 0 0-.119-.287.422.422 0 0 0-.287-.119.417.417 0 0 0-.287.119.303.303 0 0 0-.084.131.303.303 0 0 0-.035.156.41.41 0 0 0 .12.287.416.416 0 0 0 .286.119Zm1.774-1.742a.33.33 0 0 0 .169-.037.33.33 0 0 0 .14-.091.332.332 0 0 0 .091-.141.331.331 0 0 0 .038-.169l-.016-.117a.44.44 0 0 0-.112-.193l-.089-.069a.44.44 0 0 0-.221-.059.327.327 0 0 0-.17.037.33.33 0 0 0-.14.091.332.332 0 0 0-.09.141.33.33 0 0 0-.039.169l.016.117a.44.44 0 0 0 .113.193l.088.069a.44.44 0 0 0 .222.059Zm.887 3.623a.248.248 0 0 0 .023-.022l.009-.01.08-.103.014-.023.007-.013.003-.006a2.738 2.738 0 0 0 .052-.126.172.172 0 0 0 .01-.063.342.342 0 0 0-.009-.181.58.58 0 0 0-.063-.137c-.022-.03-.045-.062-.07-.091a.294.294 0 0 0-.14-.095.288.288 0 0 0-.15-.034l-.103.014a.396.396 0 0 0-.188.114l.083-.064a.214.214 0 0 1-.034.02l-.002.001a.733.733 0 0 0-.093.071l-.07.092-.003.004a.243.243 0 0 1-.023.036l.072-.092a.315.315 0 0 1-.043.042l.094-.073-.017.012a.468.468 0 0 0-.166.166l-.046.111a.465.465 0 0 0 0 .246.35.35 0 0 0 .082.157c.033.05.076.09.13.119.053.034.11.052.172.055a.351.351 0 0 0 .185-.008.466.466 0 0 0 .204-.119Zm-4.527-3.671a.394.394 0 0 0 .39-.39.396.396 0 0 0-.115-.276.405.405 0 0 0-.276-.114c-.1 0-.205.044-.275.114a.392.392 0 0 0 .276.666Zm5.277 1.178-.073.035a.418.418 0 0 0-.204.357.41.41 0 0 0 .204.358l.073.035a.451.451 0 0 0 .46 0 .455.455 0 0 0-.459-.785Z"/><g clip-path="url(#a)"><path fill="#FF3200" d="M134.877 93.912c-.993-.45-2.119-.056-3.123.187-1.209.292-2.338.6-3.507 1.031-.924.342-1.851.727-2.714 1.209-1.156.644-2.045 1.494-2.978 2.427a11.474 11.474 0 0 0-2.044 2.75c-.632 1.179-1.486 2.229-2.114 3.416-.186.351-.396.719-.473 1.112-.061.313-.017.613-.073.927-.066.371-.237.728-.3 1.098-.195 1.16.007 2.373-.183 3.539-.16.986-.385 1.912-.559 2.891-.178 1.004-.198 2.406.183 3.352.206.512.567.88.713 1.396a13.056 13.056 0 0 0 2.801 5.11 56.77 56.77 0 0 0 2.273 2.372c.5.496 1.225.785 1.819 1.152.377.232.708.529 1.103.729.311.157.598.156.92.256.338.105.658.313.975.472.491.247.993.383 1.493.602 1.151.504 2.46 1.057 3.734 1.135.499.03.989-.062 1.484.031.526.1.97.148 1.504.146.9-.004 1.676.186 2.567.186h2.65c.58 0 1.161-.006 1.741 0 .584.005.912-.177 1.444-.373.857-.317 1.776-.676 2.645-.929 1.274-.37 2.256-1.094 3.328-1.872.857-.621 1.579-1.375 2.432-2.007.946-.702 1.409-2.026 1.909-3.07.481-1.006.71-2.073 1.12-3.101.198-.496.484-.975.523-1.52.056-.779.146-1.523.172-2.302.019-.573.198-1.093.191-1.674-.004-.341-.054-.729-.009-1.065.075-.553.199-.98.197-1.554-.002-.528.076-1.119-.042-1.629-.181-.786-.436-1.605-.518-2.428-.115-1.144-.557-1.984-1.079-2.996-.417-.81-1.001-1.527-1.535-2.272-.323-.451-.588-.874-.935-1.307-.22-.275-.328-.48-.6-.71-.302-.255-.6-.464-.887-.743-.517-.5-1.166-.674-1.695-1.12-.413-.347-.847-.594-1.308-.892-.995-.642-2.126-1.07-3.122-1.712-.243-.156-.369-.423-.596-.583-.311-.218-.491-.116-.844-.184-.265-.05-.449-.22-.697-.321-.39-.16-.81-.19-1.218-.275-.635-.13-1.28-.426-1.913-.522-.229-.035-.472.053-.702.018-.344-.052-.626-.168-.979-.196-.527-.043-.956-.19-1.494-.186-.544.005-1.089 0-1.634 0-1.143 0-2.343-.118-3.416.321a9.919 9.919 0 0 1-1.349.467c-.252.065-.46.221-.7.295-.321.098-.559.084-.888.224-.26.11-.367.156-.642.227-.433.112-.553.296-.892.528-.265.182-.304.088-.57.172-.201.064-.377.251-.55.379"/><path fill="#FF3200" d="M135.143 93.456a3.236 3.236 0 0 0-1.322-.374c.097.008-.188-.021-.155-.02-.092-.005-.185-.003-.277-.009a6.303 6.303 0 0 0-.588-.009c-.083.002-.194-.01-.275.01-.13.033.299.054-.051.007-.071-.01-.396-.03-.393.025l-.034.008a1.95 1.95 0 0 1 .071-.007l-.1.013-.339.04a14.93 14.93 0 0 0-1.38.198c-.789.163-1.573.354-2.345.587-.86.26-1.689.571-2.501.956-1.466.694-2.685 1.72-3.829 2.854a14.011 14.011 0 0 0-1.62 1.93c-.438.628-.777 1.314-1.186 1.96-.47.741-.988 1.45-1.431 2.208-.275.47-.524.952-.722 1.459-.203.519-.165 1.065-.229 1.606l.051-.379c-.06.378-.225.726-.303 1.1a8.614 8.614 0 0 0-.157 1.46c-.025.793.023 1.589-.081 2.379l.051-.384c-.218 1.496-.68 2.959-.748 4.476a7.919 7.919 0 0 0 .193 2.187c.095.398.252.789.447 1.147.155.284.344.548.478.845l-.145-.346c.18.432.281.899.449 1.337.205.538.431 1.071.691 1.585.471.928 1.059 1.783 1.711 2.592.627.777 1.336 1.494 2.036 2.205.4.405.788.799 1.249 1.138.336.248.707.439 1.073.638.437.238.823.535 1.239.804.307.198.65.361 1.005.448.258.063.513.102.761.203l-.345-.146c.38.167.73.389 1.111.552.473.202.96.367 1.434.564l-.345-.145c.928.399 1.854.821 2.833 1.083.53.142 1.08.233 1.627.273.469.034.938-.036 1.406.014l-.384-.052c.428.059.851.143 1.282.186.328.032.655.027.983.037.658.02 1.307.138 1.964.173.694.037 1.395.011 2.09.011l2.122-.003c.444 0 .863-.005 1.304-.074.267-.041.517-.131.768-.229a60.554 60.554 0 0 1 1.839-.683c.605-.214 1.231-.373 1.823-.619.653-.272 1.263-.59 1.851-.983.661-.441 1.31-.914 1.924-1.419.584-.481 1.132-1.004 1.729-1.471l-.29.224c.314-.243.641-.468.907-.765a6.45 6.45 0 0 0 .692-.926c.296-.478.524-.994.754-1.506.304-.677.614-1.348.851-2.052.229-.68.421-1.375.698-2.038l-.143.339c.172-.401.37-.795.505-1.21.138-.428.154-.883.191-1.328.03-.369.065-.737.093-1.107.028-.378.027-.76.073-1.137l-.051.375c.069-.509.187-1.016.206-1.531.015-.406-.055-.81-.009-1.215l-.05.373c.074-.536.192-1.065.232-1.606.034-.458.045-.936.031-1.395-.032-1.067-.46-2.079-.61-3.13l.05.371c-.1-.764-.196-1.485-.488-2.203a16.494 16.494 0 0 0-.965-2.005c-.342-.596-.762-1.141-1.168-1.694-.473-.644-.914-1.307-1.409-1.935l.217.281c-.246-.321-.467-.67-.775-.937-.283-.244-.588-.46-.861-.716a5.368 5.368 0 0 0-1.038-.76c-.293-.165-.591-.318-.862-.519l.281.217c-.782-.616-1.59-1.188-2.466-1.666-.79-.431-1.642-.786-2.378-1.308l.289.223c-.126-.102-.223-.227-.329-.348a2.325 2.325 0 0 0-.587-.481c-.336-.191-.622-.253-.999-.29-.14-.013-.281-.014-.421-.032l.383.051a1.242 1.242 0 0 1-.249-.07l.344.145c-.424-.194-.813-.436-1.276-.545-.393-.093-.793-.138-1.182-.252-.38-.112-.751-.253-1.134-.353a4.023 4.023 0 0 0-.882-.145c-.201-.006-.396.044-.598.022l.393.053c-.21-.037-.414-.097-.621-.144-.319-.074-.648-.095-.972-.139l.395.053c-.481-.071-.956-.18-1.443-.216-.384-.028-.774-.01-1.159-.015-.728-.007-1.458-.039-2.186-.03-.813.011-1.646.101-2.405.4a11.29 11.29 0 0 1-.945.337c-.174.052-.352.09-.522.155-.265.1-.513.229-.772.342l.371-.157c-.21.084-.428.118-.647.169-.328.076-.63.234-.939.367l.365-.155c-.337.14-.683.222-1.016.38-.3.142-.558.372-.806.588l.304-.235c-.096.072-.19.144-.297.198l.357-.151a.646.646 0 0 1-.148.04l.397-.053c-.414.047-.727.088-1.1.29-.265.144-.483.362-.716.55l.299-.231-.047.036c-.319.244-.568.478-.679.883-.097.353-.054.824.149 1.138.203.316.506.593.883.68.359.08.831.086 1.138-.15.132-.1.265-.201.394-.305l-.299.23c.152-.112.299-.23.448-.346l-.3.232c.083-.062.165-.116.259-.16l-.356.15c.069-.024.137-.04.209-.052l-.396.054c.453-.047.87-.113 1.25-.387.191-.137.369-.287.586-.382-.121.05-.241.102-.362.153.184-.072.38-.105.566-.169.195-.067.381-.158.582-.206.197-.046.399-.062.594-.115.325-.089.616-.26.921-.399l-.369.156c.411-.17.852-.267 1.267-.434.442-.179.869-.323 1.343-.391l-.406.054c.716-.094 1.436-.064 2.156-.064.382 0 .765-.003 1.148-.005.391-.002.782-.023 1.17.026l-.396-.053c.509.07 1.018.146 1.528.21l-.394-.052c.269.042.529.122.797.167.244.041.467.079.709.055.143-.014.278-.034.422-.02l-.391-.053c.535.084 1.041.282 1.562.423.52.142 1.07.158 1.576.35l-.346-.145c.324.139.604.333.948.437.315.095.642.082.964.112l-.382-.051a.94.94 0 0 1 .196.05l-.343-.145c.076.035.144.076.211.127l-.29-.225c.159.136.276.312.433.45.258.23.547.408.846.576.433.245.882.46 1.328.682.888.44 1.783.931 2.571 1.538l-.281-.218c.34.27.67.527 1.049.739.286.159.573.312.834.512l-.281-.218c.259.208.495.442.755.649.246.196.482.385.675.634l-.217-.281c.189.251.379.5.572.749l-.217-.282c.295.387.559.795.841 1.19.274.383.56.757.831 1.142.527.747.96 1.561 1.32 2.401l-.141-.333c.205.488.358.991.434 1.516l-.05-.371c.079.596.15 1.186.287 1.773.112.478.268.954.339 1.441l-.05-.373c.04.334.026.668.013 1.003-.012.328-.007.654-.048.98l.051-.373c-.071.525-.209 1.047-.23 1.578-.018.461.047.913-.012 1.374l.05-.374c-.055.389-.127.774-.175 1.164-.039.314-.042.631-.064.946-.043.617-.081 1.245-.16 1.858l.051-.376c-.041.246-.12.477-.215.706l.143-.339c-.278.653-.559 1.297-.78 1.972-.198.604-.384 1.213-.63 1.8l.144-.34c-.208.484-.435.963-.66 1.439-.218.461-.457.913-.764 1.321l.223-.289a3.47 3.47 0 0 1-.601.616l.29-.223c-.875.66-1.668 1.414-2.534 2.085l.29-.225c-.889.68-1.825 1.352-2.859 1.792l.344-.145c-.366.151-.745.256-1.123.376-.401.128-.798.27-1.193.415-.379.14-.758.279-1.135.423-.332.126-.656.265-1.01.316l.384-.051c-.346.04-.7.017-1.048.017l-1.107.003h-2.104c-.674 0-1.33-.051-1.999-.123-.678-.072-1.36-.04-2.035-.126l.384.051c-.519-.071-1.029-.187-1.556-.176-.418.009-.826.022-1.243-.033l.384.052c-.945-.136-1.844-.47-2.72-.838l.345.145c-.39-.165-.777-.342-1.171-.498-.305-.12-.615-.225-.919-.349l.346.146c-.382-.162-.732-.386-1.111-.552a4.177 4.177 0 0 0-.815-.287c-.199-.042-.395-.08-.584-.158l.345.146c-.497-.235-.908-.616-1.384-.887-.445-.253-.909-.473-1.321-.78l.292.226c-.299-.232-.558-.517-.824-.786-.267-.27-.532-.542-.794-.818-.528-.554-1.056-1.113-1.525-1.719l.226.292a13.252 13.252 0 0 1-1.666-2.847l.146.345c-.219-.52-.39-1.05-.558-1.589-.189-.604-.566-1.079-.823-1.646l.146.346a4.205 4.205 0 0 1-.272-1.047l.051.385a8.004 8.004 0 0 1 .018-2.086l-.051.384c.154-1.092.454-2.158.615-3.25.096-.658.128-1.303.123-1.967-.004-.579-.011-1.157.063-1.733l-.051.381c.053-.371.19-.713.28-1.075.117-.469.087-.935.146-1.407l-.051.378c.032-.189.089-.368.162-.546l-.143.339c.454-1.046 1.132-1.981 1.747-2.935.597-.928 1.07-1.921 1.746-2.798l-.218.282c.428-.549.909-1.046 1.405-1.534a17.27 17.27 0 0 1 1.526-1.36l-.276.213c.804-.615 1.707-1.096 2.637-1.49l-.312.132c.537-.223 1.056-.489 1.592-.715l-.292.123a26.92 26.92 0 0 1 1.534-.588c.257-.09.514-.18.774-.26.047-.017.094-.031.143-.043l.256-.108a3.29 3.29 0 0 1 .022-.01l.39-.15.355-.139c.195-.077.402-.122.571-.252.113-.094.121-.095.022-.003l.062-.028c.062-.02.125-.056.186-.083-.13.057.025-.009.07-.027a5.53 5.53 0 0 1 .329-.117c-.001 0 .201-.056.095-.035l.172-.023c-.058-.003-.046-.006.034-.01.056-.007.114-.008.171-.01.27-.007.438.018.694.102.568.187.93-.678.406-.964Z"/><path fill="#0A0A0A" d="M135.064 92.503c-.112-.006-.231-.003-.341-.02-.069-.011-.141-.041-.209-.06.016.004.108.05-.04-.013-.084-.035-.168-.04-.257-.047a5.997 5.997 0 0 0-.822.004c-.547.033-1.103.028-1.646.102-1.047.14-2.037.597-3.025.948-.544.194-1.086.391-1.614.628-.472.212-.905.494-1.378.704-1.013.45-1.974 1.013-2.942 1.551-.525.293-1.071.564-1.578.886a3.54 3.54 0 0 0-.764.626 4.128 4.128 0 0 1-.573.566l.219-.17c-.572.438-1.127.893-1.564 1.47a6.465 6.465 0 0 0-.46.683c-.136.236-.235.49-.355.734-.273.558-.572 1.103-.85 1.659-.278.555-.548 1.113-.816 1.672-.185.388-.384.774-.54 1.175-.117.299-.137.623-.255.92l.119-.283c-.152.355-.357.676-.495 1.039-.117.307-.194.628-.296.94-.097.3-.236.584-.338.882a3.118 3.118 0 0 0-.132.674c-.017.152-.007.304-.026.456l.042-.312c-.023.151-.066.296-.105.444a3.483 3.483 0 0 0-.112.786c-.009.373-.002.746.023 1.118.053.785.087 1.569.115 2.355.015.418.049.849.182 1.247.051.152.066.306.106.46.054.208.146.411.239.604.034.071.069.142.108.211.084.145-.042-.184-.003-.019.007.031.017.062.025.093.021.078.033.158.055.236-.011-.038.068.19.106.244.036.074.03.055-.018-.057.013.032.025.065.036.098.028.053.001.117.013-.053-.005.065.024.194.039.276.014.078.035.152.063.226.085.229.16.461.258.686.039.088.085.17.133.254l.045.082a.472.472 0 0 0-.017-.043l.012.044c.022.204.068.417.171.596.123.215.293.365.499.498.029.019.057.039.087.057.04.027.027.016-.04-.033a.699.699 0 0 1 .063.059c.009.009.051.047.056.064a.393.393 0 0 0-.012-.014l.117.15a32.354 32.354 0 0 1-.146-.25c.069.182.097.393.207.556.128.188.325.315.509.445l-.198-.198c.014.02.027.041.039.063a.527.527 0 0 0-.016-.038l.027.101c.035.134.084.259.14.386.094.213.217.411.325.617a.516.516 0 0 0 .7.183c.254-.164.3-.437.183-.7a10.797 10.797 0 0 0-.135-.289l-.064-.139c-.027-.055-.001 0 .003.01-.015-.039-.03-.078-.043-.117-.063-.186-.061-.421-.177-.586-.05-.07.073.19-.015-.021a.883.883 0 0 0-.052-.107c-.02-.037-.044-.072-.066-.108-.022-.04-.042-.08-.062-.12-.04-.081-.122-.14-.161-.216 0 0 .071.099.032.04l-.038-.054c-.016-.023-.032-.05-.051-.072-.008-.01-.06-.062-.014-.009.035.041.006.015-.004-.012l-.024-.06c-.036-.088-.071-.177-.117-.26a1.908 1.908 0 0 0-.24-.318c-.023-.025-.047-.066-.075-.085.005.003.076.119.05.061-.011-.026-.031-.049-.045-.073-.015-.025-.057-.12-.02-.021.036.093.009.022.005.003-.023-.123.009.158.001.035-.009-.146-.017-.301-.053-.442-.035-.141-.103-.276-.166-.405-.012-.025-.08-.166-.033-.063.044.097.007.014.001-.008-.012-.044-.027-.087-.039-.13-.029-.105-.053-.212-.084-.316a3.714 3.714 0 0 1-.053-.18c-.005-.02-.02-.112-.002-.003.007.058.009.065.005.023-.001-.042-.005-.034-.014.026l-.011.05.027-.204c.005-.043.01-.086.013-.129.005-.059.006-.119.002-.178-.014-.242-.104-.454-.208-.668l-.032-.064c-.015-.031-.093-.144-.017-.035.056.08.022.045.014.004-.007-.031-.017-.061-.025-.092a3.39 3.39 0 0 1-.08-.373l.031.231c-.026-.199.005-.395-.012-.594a2.912 2.912 0 0 1-.003-.583c.053-.463.051-.934.065-1.4.013-.46.055-.92.079-1.379.024-.456-.023-.923.033-1.376l-.042.312c.032-.205.103-.4.146-.602.065-.305.053-.6.094-.903l-.042.312c.061-.375.246-.718.379-1.071.142-.379.224-.781.381-1.154l-.119.282c.156-.345.356-.658.491-1.015.107-.285.121-.593.23-.877l-.119.282a67.17 67.17 0 0 1 1.4-2.991c.236-.48.492-.951.711-1.439.199-.446.423-.862.715-1.256l-.178.23c.079-.102.16-.203.236-.307l-.177.229c.25-.317.537-.628.839-.896.134-.118.272-.232.397-.36.189-.19.337-.415.498-.628l-.165.214a2.55 2.55 0 0 1 .448-.445l-.21.162c.368-.281.775-.516 1.163-.768a88.03 88.03 0 0 1 1.262-.809c.416-.26.834-.517 1.257-.766.407-.24.843-.43 1.244-.68.387-.24.763-.475 1.177-.67.205-.096.413-.186.621-.275l-.048.02c.025-.009.049-.02.073-.03.096-.04.192-.08.288-.122l.336-.142c.208-.09.415-.182.622-.273l.287-.126c.055-.024.114-.045.168-.072-.001 0-.138.057-.059.025l.097-.04a9.647 9.647 0 0 1 1.31-.442c.502-.126 1.012-.218 1.518-.328.132-.03.265-.057.398-.08.026-.004.183-.028.099-.017.074-.01.149-.016.223-.023.043-.003.082-.005.126-.01a.26.26 0 0 0 .131-.036c.064-.032.081-.038.051-.02-.043.013.043-.007.041-.007.036-.008.07-.021.105-.03.127-.032.262-.029.393-.037.205-.012.381-.166.381-.381 0-.217-.175-.37-.381-.382Zm21.103 11.836c.334.479.591.985.687 1.564.051.302.065.652.189.961.05.124.106.246.139.376.041.158.07.319.114.476.043.151.088.302.125.455.019.076.035.152.049.23.008.043.017.087.021.132a1.744 1.744 0 0 0 .004.045c.035.328.048.657.073.985.051.669.109 1.332.108 2.003-.001.771-.049 1.54-.149 2.304l.037-.282c-.044.329-.082.659-.126.989l.039-.292c-.059.425-.132.847-.178 1.274-.038.347-.066.696-.112 1.043l.042-.312c-.033.238-.086.468-.133.703-.063.315-.055.629-.095.945l.044-.325a1.369 1.369 0 0 1-.063.236c-.06.167-.071.288-.093.486-.02.18-.003.36-.022.54l.044-.333a3.473 3.473 0 0 1-.227.761l.127-.3c-.144.335-.339.64-.519.957-.133.234-.243.48-.341.731-.071.184-.113.377-.187.559l.128-.301c-.146.323-.318.62-.442.956-.08.218-.143.442-.231.657l.127-.302c-.113.262-.282.497-.429.74a8.327 8.327 0 0 1-.485.735l.197-.256c-.145.187-.314.35-.469.528a8.328 8.328 0 0 0-.564.732c-.252.364-.465.757-.735 1.108l.197-.256c-.268.338-.593.62-.918.903-.159.138-.318.277-.47.425-.225.22-.413.461-.605.711l.198-.256a2.696 2.696 0 0 1-.498.48l.257-.198c-.248.189-.499.377-.744.571l.257-.198c-.32.24-.701.366-1.043.568-.179.106-.346.219-.537.304-.202.09-.403.183-.605.273l.304-.129c-.279.114-.57.204-.83.36-.173.105-.339.216-.521.304-.183.089-.371.17-.548.27-.178.1-.346.204-.534.285l.305-.128c-.351.147-.696.303-1.042.459l.302-.128c-.183.076-.376.121-.565.178-.277.083-.538.212-.802.327l.294-.124c-.209.087-.423.158-.63.254l.291-.123a3.929 3.929 0 0 0-.361.151l.289-.122a.427.427 0 0 1-.099.027l.317-.043a3.64 3.64 0 0 0-.708.141c-.16.053-.318.082-.484.106-.332.048-.657.11-.985.182a54.89 54.89 0 0 0-.975.222c-.341.081-.684.174-1.031.223l.262-.035a8.249 8.249 0 0 1-1.226.069l.237.032c-.822-.121-1.668-.053-2.496-.029-.179.005-.356.015-.534-.003-.173-.017-.345-.048-.519-.057-.391-.021-.792.012-1.184.021-.412.009-.807.355-.787.787a.801.801 0 0 0 .787.787c.424.01.863-.01 1.284.045l-.217-.029c.287.042.572.106.863.121.253.014.508.01.761.017l.767.021c.259.007.523 0 .781.031l-.236-.032c.155.022.302.06.454.092.221.047.448.069.673.09.397.037.785-.003 1.179-.067a121.5 121.5 0 0 1 1.994-.313l-.283.038a9.55 9.55 0 0 1 .697-.044c.312-.011.614-.056.919-.115l-.302.041a.974.974 0 0 1 .153.006l-.309-.041c.194.042.386.091.587.087.214-.005.338-.052.52-.104.195-.056.381-.137.575-.193.191-.055.388-.082.579-.134.303-.083.581-.236.869-.358a39.35 39.35 0 0 1-.304.128c.27-.112.545-.214.807-.344.19-.094.365-.215.555-.309.182-.09.371-.168.546-.27.184-.107.354-.234.55-.318a39.15 39.15 0 0 0-.303.128c.581-.232 1.166-.467 1.698-.796.206-.128.429-.222.645-.33.312-.156.572-.369.847-.584l-.257.198c.238-.183.483-.358.715-.55.237-.197.411-.43.599-.675l-.198.256c.422-.536.989-.926 1.464-1.41.581-.591.937-1.337 1.437-1.987l-.198.255c.193-.245.421-.458.613-.703a9.72 9.72 0 0 0 .671-.969c.148-.243.319-.481.436-.74.16-.358.267-.728.409-1.091l-.127.301c.104-.244.239-.471.342-.716.105-.248.166-.508.269-.755l-.127.301c.196-.451.493-.848.691-1.298.131-.296.262-.598.334-.914.047-.207.082-.426.077-.639-.004-.144-.027-.286-.018-.431l-.044.328c.011-.077.036-.15.055-.226.044-.179.066-.366.074-.551.008-.192-.015-.383.004-.575l-.042.318c.08-.545.134-1.08.148-1.631.012-.466.047-.929.077-1.394.064-.985-.045-1.974-.183-2.949-.129-.907-.347-1.793-.533-2.689a7.247 7.247 0 0 0-.414-1.391c-.044-.103-.09-.206-.136-.309a19.836 19.836 0 0 0-.063-.142l-.032-.071c-.038-.079.03.073-.005-.01a3.94 3.94 0 0 0-.329-.606c-.124-.2-.161-.363-.239-.605a6.005 6.005 0 0 0-.281-.68 5.647 5.647 0 0 0-.751-1.196c-.224-.277-.702.089-.497.383Zm-9.995-4.124c.06 0 .124-.026.167-.069a.24.24 0 0 0 .068-.166.239.239 0 0 0-.235-.236.237.237 0 0 0-.235.236.239.239 0 0 0 .235.235Zm2.436-.397c.081.015.162.024.243.035l-.092-.013a1.788 1.788 0 0 1 .162.03l.023.005a.386.386 0 0 0 .203 0l.014-.002-.1.014a.48.48 0 0 1 .082-.004l-.305-.176.034.067.052.067c.03.033.066.056.107.07a.166.166 0 0 0 .084.022c.044.01.088.008.133-.006a.399.399 0 0 0 .147-.086.248.248 0 0 0 .068-.107.246.246 0 0 0 .029-.128l.005-.078a.35.35 0 0 0-.175-.305.385.385 0 0 0-.051-.03.495.495 0 0 0-.226-.066c-.069.001-.14.015-.208.029-.077.015-.152.037-.229.051l-.075.032a.237.237 0 0 0-.089.082.16.16 0 0 0-.041.07.233.233 0 0 0-.027.122c.002.056.017.11.043.16.02.036.047.066.082.088.03.028.066.047.107.057Zm-.475 3.291a.432.432 0 0 0 .298-.124.312.312 0 0 0 .087-.136.312.312 0 0 0 .037-.162.428.428 0 0 0-.124-.299.437.437 0 0 0-.298-.123.438.438 0 0 0-.299.123.324.324 0 0 0-.087.136.316.316 0 0 0-.037.163.426.426 0 0 0 .423.422Zm3.742-.801.084-.012.042-.007.02-.002.01-.002a.342.342 0 0 0 .161-.094.269.269 0 0 0 .074-.114.27.27 0 0 0 .03-.137l-.013-.094a.352.352 0 0 0-.091-.157.201.201 0 0 0-.074-.057l-.085-.036-.011-.002-.021-.003-.042-.006-.084-.013a.388.388 0 0 0-.372.098l-.059.078a.37.37 0 0 0-.052.192.294.294 0 0 0 .032.147.3.3 0 0 0 .079.123.385.385 0 0 0 .372.098Zm-28.947 23.188a.416.416 0 0 0 .287-.119.293.293 0 0 0 .084-.13.304.304 0 0 0 .035-.157.407.407 0 0 0-.119-.287.424.424 0 0 0-.287-.118.421.421 0 0 0-.287.118.32.32 0 0 0-.084.131.31.31 0 0 0-.035.156c.005.105.04.214.119.287.08.073.177.119.287.119Zm1.774-1.741c.06.002.117-.01.169-.038a.341.341 0 0 0 .141-.09.33.33 0 0 0 .091-.142.324.324 0 0 0 .037-.168l-.015-.117a.44.44 0 0 0-.113-.193l-.089-.069a.43.43 0 0 0-.221-.06.328.328 0 0 0-.169.038.334.334 0 0 0-.141.091.322.322 0 0 0-.091.141.325.325 0 0 0-.037.169l.015.116a.448.448 0 0 0 .113.194l.089.068a.43.43 0 0 0 .221.06Zm.887 3.622a.48.48 0 0 0 .023-.021l.009-.011a2.003 2.003 0 0 0 .095-.126.163.163 0 0 0 .006-.013l.003-.006.048-.113.004-.012a.172.172 0 0 0 .009-.063.342.342 0 0 0-.008-.182.592.592 0 0 0-.046-.111l-.01-.016-.006-.009c-.023-.03-.046-.062-.071-.091l-.014-.015a.292.292 0 0 0-.126-.081.295.295 0 0 0-.15-.033l-.103.014a.384.384 0 0 0-.172.1l-.016.014.083-.065c-.01.009-.022.014-.034.02l-.002.001a.702.702 0 0 0-.093.072l-.071.092-.001.003-.007.013-.016.024.071-.093a.238.238 0 0 1-.042.042l.093-.072a.471.471 0 0 0-.183.178l-.046.11a.467.467 0 0 0 0 .246.35.35 0 0 0 .083.158c.032.05.076.09.129.119a.35.35 0 0 0 .173.055.35.35 0 0 0 .184-.009.46.46 0 0 0 .204-.119Zm-4.527-3.671a.401.401 0 0 0 .275-.114.393.393 0 0 0 0-.551.404.404 0 0 0-.275-.114c-.1 0-.205.043-.276.114a.393.393 0 0 0-.114.275.394.394 0 0 0 .114.276c.076.07.17.114.276.114Zm5.278 1.178-.073.035a.412.412 0 0 0-.149.567.414.414 0 0 0 .222.183.45.45 0 0 0 .459 0 .455.455 0 0 0-.459-.785Z"/></g><path fill="#FF3200" d="M101.088 47.602c-.993-.45-2.118-.056-3.122.186-1.21.292-2.34.6-3.507 1.032-.925.341-1.852.727-2.715 1.208-1.156.644-2.045 1.494-2.977 2.427a11.454 11.454 0 0 0-2.045 2.75c-.631 1.18-1.486 2.23-2.114 3.416-.186.351-.396.719-.473 1.112-.06.313-.017.614-.073.927-.066.372-.237.728-.3 1.098-.195 1.16.007 2.373-.182 3.539-.16.986-.386 1.912-.56 2.892-.178 1.003-.198 2.405.183 3.351.206.512.567.88.713 1.396a13.052 13.052 0 0 0 2.8 5.11 56.84 56.84 0 0 0 2.274 2.373c.5.495 1.225.785 1.82 1.151.376.232.707.53 1.102.73.311.156.598.156.92.255.338.105.658.314.975.473.492.247.993.382 1.494.601 1.15.504 2.46 1.057 3.733 1.135.5.03.989-.062 1.484.032.526.1.971.147 1.504.145.9-.004 1.676.186 2.568.187h2.65c.58 0 1.16-.006 1.74 0 .584.004.912-.177 1.444-.374.858-.316 1.776-.675 2.645-.928 1.274-.37 2.256-1.094 3.328-1.872.857-.622 1.579-1.376 2.432-2.008.946-.701 1.409-2.025 1.909-3.07.481-1.005.71-2.072 1.12-3.1.198-.497.485-.975.523-1.52.056-.78.146-1.524.172-2.302.02-.574.198-1.093.191-1.674-.003-.341-.054-.73-.009-1.066.075-.553.199-.98.197-1.554-.002-.528.076-1.119-.042-1.629-.181-.786-.436-1.605-.518-2.427-.115-1.144-.557-1.984-1.079-2.997-.417-.81-1.001-1.526-1.534-2.271-.323-.452-.589-.874-.936-1.308-.219-.275-.328-.48-.6-.71-.302-.254-.6-.463-.887-.742-.516-.501-1.166-.675-1.695-1.12-.412-.347-.847-.595-1.308-.892-.994-.643-2.126-1.071-3.122-1.712-.243-.157-.369-.424-.596-.583-.311-.219-.491-.117-.844-.185-.265-.05-.449-.22-.696-.32-.391-.16-.811-.191-1.219-.275-.635-.131-1.28-.426-1.913-.523-.229-.035-.472.054-.702.019-.344-.053-.626-.168-.979-.197-.527-.042-.956-.19-1.493-.186-.545.005-1.09 0-1.635 0-1.142 0-2.343-.117-3.416.322-.47.193-.85.336-1.348.466-.252.066-.46.221-.701.295-.321.099-.559.084-.888.224-.26.11-.367.157-.641.228-.434.111-.554.295-.892.527-.266.182-.305.088-.57.173-.202.063-.378.25-.551.378"/><path fill="#FF3200" d="M101.354 47.145a3.231 3.231 0 0 0-1.322-.373c.097.008-.188-.022-.155-.02-.092-.005-.184-.003-.277-.01a6.304 6.304 0 0 0-.588-.009c-.083.003-.194-.009-.275.011-.13.032.299.054-.05.007-.072-.01-.397-.03-.394.024l-.034.009c.116-.013.14-.016.071-.007l-.1.012-.338.04c-.465.052-.923.104-1.38.199a27.06 27.06 0 0 0-2.346.586c-.86.26-1.688.572-2.5.956-1.467.695-2.685 1.72-3.83 2.855a14.04 14.04 0 0 0-1.62 1.93c-.438.628-.777 1.313-1.186 1.96-.47.74-.988 1.45-1.431 2.208-.275.47-.524.951-.722 1.458-.203.52-.165 1.065-.229 1.606l.051-.378c-.06.377-.225.726-.302 1.1a8.54 8.54 0 0 0-.157 1.459c-.025.794.022 1.59-.082 2.38l.051-.385c-.217 1.497-.68 2.96-.748 4.477a7.942 7.942 0 0 0 .193 2.187c.095.397.252.788.447 1.146.155.285.344.549.478.845l-.145-.345c.18.431.282.898.45 1.337.204.537.43 1.07.69 1.584.47.929 1.06 1.783 1.712 2.592.626.778 1.336 1.494 2.035 2.205.4.406.788.8 1.249 1.138.336.248.708.44 1.074.639.436.238.822.534 1.238.803.307.199.65.361 1.005.448.258.064.514.103.762.203l-.346-.145c.38.166.73.389 1.111.551.474.202.96.367 1.434.565l-.345-.146c.928.4 1.854.821 2.833 1.084a8.77 8.77 0 0 0 1.627.273c.469.034.938-.036 1.407.013l-.385-.051c.429.059.851.142 1.282.185.328.032.655.028.984.038.657.02 1.306.137 1.963.172.694.038 1.395.011 2.09.011.708 0 1.415-.002 2.122-.003.444 0 .863-.004 1.305-.073a3.7 3.7 0 0 0 .767-.23 62.774 62.774 0 0 1 1.839-.683c.605-.214 1.231-.372 1.823-.619.653-.272 1.264-.59 1.852-.982.66-.442 1.309-.914 1.923-1.42.584-.48 1.133-1.004 1.729-1.47l-.29.223c.315-.243.641-.467.907-.764.256-.286.491-.6.693-.927.295-.478.523-.994.753-1.506.304-.676.614-1.347.851-2.052.229-.68.421-1.374.698-2.038l-.143.339c.172-.4.371-.794.505-1.21.138-.427.154-.882.191-1.327.03-.37.065-.738.093-1.107.028-.379.027-.76.073-1.137l-.05.374c.068-.509.186-1.016.205-1.53.015-.406-.055-.81-.009-1.216l-.05.374c.074-.536.192-1.066.232-1.606.034-.459.045-.936.032-1.396-.032-1.067-.461-2.078-.611-3.13l.05.371c-.1-.764-.196-1.485-.488-2.202a16.537 16.537 0 0 0-.965-2.006c-.342-.595-.762-1.141-1.168-1.694-.473-.644-.914-1.306-1.409-1.935l.217.282c-.246-.322-.467-.67-.775-.937-.283-.244-.588-.46-.861-.716a5.338 5.338 0 0 0-1.038-.76c-.292-.166-.591-.319-.862-.52l.281.218c-.782-.616-1.59-1.188-2.466-1.666-.79-.432-1.641-.786-2.378-1.308l.289.223c-.126-.103-.222-.227-.329-.348a2.308 2.308 0 0 0-.587-.482c-.335-.19-.622-.252-.998-.29-.141-.013-.282-.013-.422-.032l.383.052a1.248 1.248 0 0 1-.249-.07l.344.145c-.424-.195-.813-.437-1.275-.546-.394-.092-.794-.137-1.183-.252-.38-.111-.751-.252-1.134-.353a4.023 4.023 0 0 0-.882-.144c-.201-.007-.396.043-.598.021l.393.053c-.21-.037-.414-.096-.621-.144-.319-.073-.647-.095-.972-.138l.396.053c-.482-.072-.957-.181-1.444-.217-.384-.028-.774-.01-1.159-.014-.728-.008-1.458-.04-2.186-.03-.812.01-1.645.1-2.405.4-.311.123-.624.24-.945.336-.174.052-.351.09-.522.155-.265.1-.513.23-.772.342l.37-.156c-.209.084-.427.117-.646.168-.328.077-.63.235-.939.367l.365-.154c-.337.14-.683.222-1.016.38-.3.142-.558.372-.806.588l.304-.235c-.096.072-.19.144-.297.197l.358-.15a.644.644 0 0 1-.15.04l.398-.054c-.414.048-.727.088-1.1.29-.265.144-.482.362-.716.55l.3-.231-.048.036c-.32.245-.568.479-.679.883-.097.354-.053.825.149 1.139.203.315.506.593.883.678.36.082.831.087 1.138-.148.132-.101.265-.202.394-.306l-.299.231c.152-.112.3-.23.448-.346l-.3.232c.083-.062.165-.117.26-.16l-.356.15c.069-.025.136-.041.209-.052l-.397.053c.453-.047.87-.113 1.25-.386.191-.138.37-.288.586-.383l-.362.153c.184-.071.38-.104.567-.168.195-.067.38-.159.582-.206.196-.047.398-.062.593-.116.325-.088.617-.26.921-.398l-.37.155c.412-.169.853-.267 1.268-.434.442-.178.87-.323 1.343-.39l-.406.054c.716-.094 1.436-.065 2.156-.064.382 0 .765-.003 1.148-.006.391-.002.782-.022 1.171.026l-.397-.053c.51.071 1.018.147 1.528.211a395.16 395.16 0 0 0-.394-.053c.269.042.529.122.797.167.244.041.468.08.71.055.142-.014.278-.034.421-.02l-.391-.053c.536.084 1.041.282 1.562.424.52.141 1.07.158 1.576.35l-.346-.146c.324.14.604.334.948.438.315.094.642.081.965.112l-.382-.052c.068.01.13.026.195.05l-.343-.144c.076.035.144.076.211.126l-.29-.224c.16.136.276.312.433.45.258.229.547.408.846.576.433.244.882.46 1.328.681.888.441 1.783.931 2.571 1.538a68.755 68.755 0 0 0-.281-.217c.34.27.67.527 1.049.738.286.16.574.313.835.512a68.751 68.751 0 0 1-.281-.217c.258.207.494.441.754.648.246.196.482.385.675.635l-.217-.282c.189.252.379.5.572.749l-.217-.282c.295.387.559.795.842 1.19.273.384.559.757.831 1.142.526.747.959 1.561 1.319 2.401l-.141-.333c.205.489.358.991.434 1.516l-.049-.37c.078.596.149 1.186.286 1.772.112.478.268.955.34 1.441l-.05-.372c.04.334.026.667.013 1.002-.013.328-.008.655-.048.98l.05-.372c-.071.525-.208 1.047-.23 1.577-.018.462.047.913-.012 1.375l.05-.375c-.055.39-.127.774-.175 1.165-.039.313-.042.63-.064.946-.043.617-.08 1.244-.16 1.858l.051-.376a3.17 3.17 0 0 1-.214.705l.142-.338c-.278.652-.559 1.296-.78 1.971-.198.604-.384 1.213-.63 1.8l.144-.34c-.208.484-.435.963-.66 1.44-.218.46-.457.912-.764 1.32l.223-.289a3.515 3.515 0 0 1-.6.617l.289-.224c-.875.66-1.668 1.415-2.534 2.085l.291-.224c-.89.68-1.826 1.352-2.86 1.791l.345-.145c-.367.152-.746.257-1.124.377-.401.128-.798.27-1.193.415-.379.14-.758.279-1.135.422-.332.126-.656.265-1.01.317l.384-.052c-.346.04-.7.017-1.048.018l-1.106.002h-2.105c-.674 0-1.33-.05-1.999-.122-.678-.073-1.359-.04-2.035-.127l.384.052c-.519-.072-1.029-.187-1.555-.176-.42.008-.827.022-1.244-.033l.384.051c-.945-.136-1.844-.47-2.72-.838l.345.146c-.39-.166-.776-.342-1.171-.498-.305-.12-.615-.225-.918-.35l.345.146c-.382-.162-.732-.385-1.111-.552a4.157 4.157 0 0 0-.814-.286c-.2-.043-.396-.08-.585-.159.115.05.23.098.345.146-.497-.235-.907-.615-1.384-.886-.445-.254-.909-.474-1.321-.78l.293.225c-.3-.232-.559-.516-.824-.785-.268-.27-.533-.543-.795-.818-.528-.555-1.056-1.113-1.525-1.72l.226.293a13.225 13.225 0 0 1-1.665-2.847l.145.345a17.3 17.3 0 0 1-.558-1.59c-.188-.604-.566-1.078-.823-1.645l.146.345a4.216 4.216 0 0 1-.272-1.046l.051.384a7.955 7.955 0 0 1 .019-2.086l-.052.384c.154-1.091.455-2.158.615-3.25.096-.657.128-1.303.123-1.966-.004-.58-.01-1.158.064-1.733l-.052.38c.053-.371.19-.712.28-1.074.117-.47.088-.935.146-1.407l-.05.378c.031-.19.088-.369.16-.546l-.142.339c.454-1.047 1.132-1.981 1.747-2.936.597-.928 1.07-1.92 1.746-2.797l-.218.282c.428-.55.909-1.047 1.405-1.534.486-.478.987-.943 1.526-1.36l-.276.212c.804-.614 1.707-1.095 2.638-1.49l-.313.132c.537-.222 1.056-.488 1.592-.715l-.292.123a27.091 27.091 0 0 1 1.534-.588 23.186 23.186 0 0 1 .917-.302l.256-.108c-.13.05-.157.06-.083.03l.105-.04.39-.15.355-.14c.195-.077.402-.122.57-.252.115-.093.122-.094.023-.003l.062-.028c.062-.02.126-.056.186-.082-.13.056.025-.01.07-.027a5.885 5.885 0 0 1 .329-.118s.201-.056.095-.034l.172-.023c-.057-.003-.046-.007.034-.01.057-.008.115-.008.171-.01.27-.008.438.018.694.102.568.187.93-.679.406-.965Z"/><path fill="#0A0A0A" d="M101.275 46.193c-.111-.007-.231-.003-.341-.02-.069-.012-.141-.042-.209-.061.016.004.108.05-.04-.012-.084-.035-.167-.04-.257-.047a5.98 5.98 0 0 0-.822.003c-.546.033-1.103.029-1.646.102-1.047.14-2.037.598-3.025.949a21.56 21.56 0 0 0-1.614.627c-.472.212-.904.495-1.377.705-1.014.45-1.975 1.012-2.942 1.55-.525.293-1.072.564-1.58.886-.275.175-.546.38-.763.627a4.123 4.123 0 0 1-.573.565l.22-.17c-.572.438-1.128.894-1.565 1.47a6.616 6.616 0 0 0-.46.683c-.136.236-.235.49-.355.735-.273.557-.572 1.103-.85 1.658a99.643 99.643 0 0 0-.816 1.673c-.185.388-.384.774-.54 1.175-.117.298-.136.622-.255.92l.12-.283c-.153.354-.358.675-.496 1.039-.117.306-.194.627-.296.94-.097.299-.236.583-.338.881a3.1 3.1 0 0 0-.132.675c-.017.151-.007.304-.025.455l.042-.312c-.024.151-.067.297-.106.445a3.445 3.445 0 0 0-.112.785c-.009.373-.002.746.023 1.118.054.785.087 1.57.115 2.355.015.419.049.85.182 1.248.051.151.066.306.106.46.054.208.146.41.24.604.034.07.069.142.108.21.083.146-.042-.183-.004-.019l.026.093c.02.078.033.159.054.236-.01-.037.068.19.106.244.037.074.03.055-.018-.056.013.032.025.064.036.097.028.053.001.118.013-.053-.005.066.024.194.039.276.014.079.035.152.063.226.085.23.16.462.258.686.039.089.085.17.133.254l.046.082a.558.558 0 0 0-.018-.042l.012.044c.022.203.068.417.17.595.124.215.294.366.5.499.029.018.058.039.087.056.04.027.027.016-.04-.033a.893.893 0 0 1 .063.06c.009.009.05.047.057.064a12.064 12.064 0 0 0 .104.136l-.146-.251c.07.182.097.393.207.556.128.188.325.316.509.445l-.198-.198c.014.02.028.042.04.063-.03-.08-.037-.093-.017-.038.008.034.018.068.027.101.035.134.084.26.14.387.094.213.218.41.326.616a.515.515 0 0 0 .7.184c.253-.164.3-.438.183-.7-.043-.097-.09-.193-.135-.29l-.065-.138c-.026-.055 0 0 .004.01a2.453 2.453 0 0 1-.044-.118c-.062-.186-.06-.42-.177-.585-.05-.071.073.189-.015-.021a.975.975 0 0 0-.051-.108c-.021-.036-.045-.071-.066-.108-.023-.04-.043-.08-.063-.12-.04-.08-.122-.14-.16-.215 0 0 .07.098.031.04-.012-.019-.025-.036-.038-.054-.016-.023-.032-.05-.05-.073-.009-.01-.061-.061-.015-.008.035.04.006.014-.004-.013l-.024-.06c-.036-.087-.07-.177-.117-.26a1.9 1.9 0 0 0-.24-.317c-.022-.026-.047-.066-.074-.085.004.003.075.119.05.06-.012-.025-.032-.049-.046-.073-.015-.025-.057-.12-.02-.02.036.092.009.022.005.003-.023-.123.009.158.001.034a2.425 2.425 0 0 0-.052-.442c-.035-.14-.104-.275-.167-.405-.012-.024-.08-.165-.033-.062.044.096.007.013.001-.009-.011-.043-.026-.086-.038-.13-.03-.105-.054-.211-.085-.315-.018-.06-.037-.12-.053-.18-.005-.02-.02-.113-.002-.003.008.057.01.065.005.023 0-.043-.005-.034-.013.025l-.012.05c.01-.067.018-.135.027-.203a1.354 1.354 0 0 0 .015-.307c-.014-.242-.104-.455-.208-.669a4.78 4.78 0 0 0-.032-.064c-.015-.03-.093-.144-.017-.035.056.08.022.046.014.005-.006-.031-.017-.062-.025-.092a3.637 3.637 0 0 1-.08-.374l.031.231c-.026-.199.005-.394-.011-.593a2.861 2.861 0 0 1-.004-.583c.054-.463.052-.935.065-1.4.014-.46.055-.92.08-1.38.023-.456-.023-.922.032-1.376l-.042.312c.032-.205.103-.4.146-.602.065-.304.053-.6.094-.903l-.042.313c.061-.375.246-.718.379-1.071.142-.38.224-.781.381-1.155l-.119.282c.156-.345.356-.657.49-1.014.108-.285.122-.593.231-.878l-.119.282a66.66 66.66 0 0 1 1.4-2.99c.236-.48.493-.952.71-1.44.2-.446.425-.861.716-1.255l-.178.23c.08-.102.16-.203.236-.308l-.177.23c.25-.317.537-.629.84-.897.133-.118.271-.232.397-.359.188-.19.336-.415.497-.629l-.165.214a2.62 2.62 0 0 1 .448-.445l-.21.162c.368-.28.775-.516 1.164-.768a89.94 89.94 0 0 1 1.261-.808c.416-.26.835-.517 1.258-.767.407-.24.842-.43 1.243-.679.387-.24.764-.476 1.177-.67.205-.096.413-.186.621-.275.129-.055-.031.014-.048.02l.073-.03.288-.122.336-.143c.208-.09.415-.181.622-.273l.287-.126c.056-.024.114-.045.168-.072l-.06.025.098-.04a9.666 9.666 0 0 1 1.31-.441c.502-.127 1.012-.218 1.519-.329.132-.029.264-.056.397-.08.026-.004.183-.028.099-.017.074-.01.149-.016.223-.022.043-.004.082-.005.126-.011a.256.256 0 0 0 .131-.036c.064-.031.081-.038.051-.019-.043.012.043-.008.042-.007.035-.009.069-.022.104-.03.127-.032.262-.03.393-.037.206-.013.381-.167.381-.382 0-.216-.175-.37-.381-.381Zm21.103 11.836c.334.478.591.984.688 1.563.05.302.064.653.188.962.05.124.106.246.14.375.041.158.069.32.113.477.043.15.088.301.125.454.019.076.036.153.049.23.008.044.017.088.021.132a1.647 1.647 0 0 0 .004.045c.035.328.048.657.073.985.051.67.109 1.332.108 2.004a17.92 17.92 0 0 1-.149 2.303l.038-.282c-.045.33-.083.66-.127.99l.039-.293c-.059.425-.132.848-.178 1.274-.038.348-.065.697-.111 1.043l.041-.311c-.033.237-.086.468-.133.702-.063.315-.055.63-.095.945l.044-.324a1.37 1.37 0 0 1-.063.235c-.06.168-.071.288-.093.487-.02.18-.003.36-.022.54l.045-.334a3.442 3.442 0 0 1-.228.762l.127-.3c-.144.335-.339.64-.519.956-.133.235-.242.48-.341.732-.071.183-.113.376-.186.559l.127-.302c-.146.324-.318.62-.441.957-.08.218-.144.441-.232.656l.127-.301c-.112.261-.282.496-.429.74-.152.25-.307.5-.485.734l.198-.256c-.146.187-.315.35-.47.528a8.136 8.136 0 0 0-.563.732c-.253.364-.466.758-.736 1.109l.198-.257c-.269.339-.594.62-.919.903-.159.139-.318.278-.469.425a6.403 6.403 0 0 0-.407.455 2.762 2.762 0 0 1-.498.48l.256-.198c-.248.19-.499.377-.744.572l.257-.199c-.319.24-.701.367-1.043.569-.179.105-.346.218-.537.304-.202.09-.402.183-.604.272l.303-.128c-.279.113-.57.204-.83.36-.173.104-.339.215-.521.303-.183.089-.37.17-.548.27-.177.1-.345.204-.534.285l.305-.128c-.351.147-.696.303-1.042.46l.302-.128c-.183.076-.375.12-.565.178-.277.083-.537.211-.802.326l.294-.124c-.209.087-.423.159-.63.254l.291-.123a3.797 3.797 0 0 0-.361.152l.289-.122a.412.412 0 0 1-.099.026l.317-.042a3.64 3.64 0 0 0-.708.14 2.68 2.68 0 0 1-.484.106c-.332.048-.657.11-.985.182-.325.072-.65.146-.975.223-.341.08-.684.173-1.031.223l.262-.035a8.249 8.249 0 0 1-1.226.069l.237.031c-.822-.12-1.668-.052-2.496-.028-.179.005-.355.014-.533-.004-.174-.017-.346-.048-.52-.057-.391-.02-.792.012-1.184.021-.411.01-.807.356-.787.788a.802.802 0 0 0 .787.787c.425.01.863-.01 1.285.045l-.217-.03c.287.043.571.106.862.122.253.013.508.01.761.016l.767.021c.259.007.523 0 .781.031l-.236-.031c.155.021.302.06.454.092.221.047.448.069.673.09.397.037.786-.004 1.179-.068.664-.108 1.328-.216 1.994-.313l-.283.038a9.44 9.44 0 0 1 .697-.044c.312-.01.614-.055.919-.114l-.302.04a.992.992 0 0 1 .154.007l-.31-.042c.194.043.386.091.587.087.214-.004.338-.052.52-.104.195-.056.381-.136.576-.192.19-.055.387-.082.578-.135.303-.083.582-.236.869-.358l-.304.129c.27-.113.545-.214.807-.344.191-.094.365-.216.555-.31.182-.09.371-.168.546-.27.184-.107.354-.234.551-.318l-.304.128c.581-.231 1.166-.466 1.699-.796.205-.127.428-.221.644-.33.312-.156.572-.369.847-.584l-.257.199c.238-.184.483-.359.715-.55.238-.198.411-.43.599-.676l-.198.257c.422-.537.989-.927 1.465-1.41.58-.591.936-1.337 1.436-1.988l-.197.256c.192-.246.42-.459.613-.704.244-.312.466-.63.671-.969.147-.243.318-.48.435-.74.16-.358.267-.727.41-1.09l-.127.3c.103-.243.238-.47.342-.715.104-.248.165-.508.268-.756l-.127.301c.196-.45.493-.848.692-1.298.13-.295.262-.597.333-.914.047-.206.082-.425.077-.638-.003-.144-.027-.287-.018-.431l-.044.328c.011-.078.036-.15.055-.226.045-.18.067-.367.074-.551.009-.192-.015-.383.004-.575l-.042.318c.08-.546.134-1.08.148-1.631.012-.467.047-.93.077-1.395.064-.985-.045-1.974-.183-2.949-.129-.907-.347-1.792-.533-2.688a7.101 7.101 0 0 0-.414-1.391c-.044-.104-.09-.207-.136-.31a99.18 99.18 0 0 0-.063-.142l-.032-.07c-.038-.08.03.072-.004-.01a4.169 4.169 0 0 0-.329-.607c-.125-.2-.162-.363-.24-.605a6.182 6.182 0 0 0-.28-.68 5.707 5.707 0 0 0-.751-1.196c-.225-.277-.703.09-.498.384Zm-9.995-4.125a.243.243 0 0 0 .167-.069.242.242 0 0 0 .069-.166.24.24 0 0 0-.236-.235.237.237 0 0 0-.235.235.24.24 0 0 0 .235.235Zm2.437-.397c.08.016.161.024.242.035l-.092-.012a1.743 1.743 0 0 1 .163.03l.022.005a.384.384 0 0 0 .203 0l.014-.002-.1.013a.507.507 0 0 1 .082-.004 82.783 82.783 0 0 0-.305-.175l.034.066.052.068a.25.25 0 0 0 .107.069.165.165 0 0 0 .084.022.25.25 0 0 0 .133-.006.4.4 0 0 0 .147-.085.26.26 0 0 0 .069-.107.26.26 0 0 0 .028-.129l.006-.077a.362.362 0 0 0-.176-.306.397.397 0 0 0-.051-.029.495.495 0 0 0-.225-.067c-.07.002-.141.015-.209.029-.076.016-.152.038-.228.052l-.076.032a.235.235 0 0 0-.089.081.16.16 0 0 0-.041.07.243.243 0 0 0-.027.122.39.39 0 0 0 .043.16c.02.037.047.066.082.089.03.028.066.047.108.056Zm-.476 3.291a.434.434 0 0 0 .298-.123.329.329 0 0 0 .088-.136.325.325 0 0 0 .036-.163.427.427 0 0 0-.124-.298.437.437 0 0 0-.298-.124.438.438 0 0 0-.299.124.318.318 0 0 0-.087.136.314.314 0 0 0-.036.162c.005.11.04.223.123.299a.44.44 0 0 0 .299.123Zm3.742-.8.084-.013.042-.006.02-.003.01-.002a.347.347 0 0 0 .161-.094.27.27 0 0 0 .074-.114.267.267 0 0 0 .03-.136l-.012-.095a.357.357 0 0 0-.092-.156.2.2 0 0 0-.074-.058l-.085-.036-.011-.002-.021-.003-.042-.006-.084-.012a.384.384 0 0 0-.371.098l-.06.077a.373.373 0 0 0-.019.34.375.375 0 0 0 .45.22ZM89.14 79.186a.419.419 0 0 0 .287-.12.304.304 0 0 0 .083-.13.305.305 0 0 0 .035-.156.41.41 0 0 0-.118-.287.422.422 0 0 0-.288-.119.419.419 0 0 0-.286.119.305.305 0 0 0-.084.13.306.306 0 0 0-.035.157.41.41 0 0 0 .119.287.42.42 0 0 0 .287.119Zm1.773-1.742a.33.33 0 0 0 .17-.037.33.33 0 0 0 .14-.091.33.33 0 0 0 .09-.141.33.33 0 0 0 .039-.169l-.016-.117a.438.438 0 0 0-.113-.193l-.088-.069a.437.437 0 0 0-.222-.06.332.332 0 0 0-.169.038.33.33 0 0 0-.14.091.329.329 0 0 0-.091.141.33.33 0 0 0-.038.169l.016.117c.02.074.058.138.112.193l.089.069a.43.43 0 0 0 .221.06Zm.887 3.623a.311.311 0 0 0 .032-.032 2.46 2.46 0 0 0 .095-.126.221.221 0 0 0 .01-.02l.047-.113.005-.012a.175.175 0 0 0 .009-.063.345.345 0 0 0-.008-.181.596.596 0 0 0-.063-.136c-.023-.03-.046-.063-.07-.092a.292.292 0 0 0-.14-.096.294.294 0 0 0-.15-.033l-.104.014a.39.39 0 0 0-.172.1.207.207 0 0 1-.016.014l.083-.064a.182.182 0 0 1-.035.02.711.711 0 0 0-.093.072l-.072.092-.001.004a.252.252 0 0 1-.023.036l.071-.092a.246.246 0 0 1-.042.042c.03-.025.062-.048.093-.073a.465.465 0 0 0-.182.178l-.047.11a.467.467 0 0 0 0 .247c.014.06.042.112.083.157a.35.35 0 0 0 .13.12c.053.033.11.051.172.054a.35.35 0 0 0 .184-.008.46.46 0 0 0 .204-.12Zm-4.527-3.672c.1 0 .205-.043.275-.114a.396.396 0 0 0 .114-.275.394.394 0 0 0-.114-.276.405.405 0 0 0-.275-.114c-.1 0-.205.044-.276.114a.396.396 0 0 0-.114.276c.005.1.038.205.114.275.076.07.17.114.276.114Zm5.277 1.179-.072.035a.416.416 0 0 0-.148.566.416.416 0 0 0 .148.149l.073.035a.453.453 0 0 0 .684-.393.453.453 0 0 0-.684-.392Z"/><g clip-path="url(#b)"><path fill="#FF3200" d="M45.834 47.204c-.993-.45-2.12-.056-3.123.187-1.21.292-2.339.6-3.507 1.032-.924.34-1.852.726-2.715 1.208-1.155.644-2.045 1.494-2.977 2.427a11.454 11.454 0 0 0-2.044 2.75c-.632 1.179-1.487 2.229-2.115 3.416-.186.35-.395.719-.472 1.112-.061.313-.018.613-.073.927-.067.371-.238.728-.3 1.098-.195 1.16.006 2.373-.183 3.539-.16.986-.386 1.912-.56 2.891-.177 1.004-.198 2.406.183 3.352.207.512.568.88.714 1.396.173.612.356 1.115.607 1.695a13.051 13.051 0 0 0 2.193 3.415 56.718 56.718 0 0 0 2.274 2.372c.5.496 1.225.785 1.819 1.152.377.232.707.529 1.103.729.31.157.598.156.92.256.337.105.658.313.974.472.492.247.994.383 1.494.602 1.15.504 2.46 1.057 3.733 1.135.5.03.99-.063 1.484.031.526.1.971.148 1.504.146.9-.004 1.676.186 2.568.186h2.65c.58 0 1.16-.006 1.74 0 .585.005.912-.177 1.444-.373.858-.317 1.776-.676 2.646-.929 1.274-.37 2.255-1.094 3.328-1.872.857-.621 1.578-1.375 2.431-2.007.947-.702 1.41-2.026 1.91-3.07.48-1.006.71-2.073 1.12-3.1.197-.497.484-.976.523-1.521.055-.779.146-1.523.172-2.302.019-.573.197-1.093.19-1.674-.003-.34-.053-.729-.008-1.065.074-.553.198-.98.196-1.554-.002-.528.076-1.12-.041-1.63-.182-.785-.437-1.604-.519-2.427-.115-1.144-.557-1.984-1.079-2.996-.417-.81-1-1.527-1.534-2.272-.323-.451-.589-.874-.936-1.308-.219-.274-.327-.48-.6-.709-.302-.255-.6-.464-.887-.742-.516-.502-1.165-.675-1.695-1.12-.412-.348-.847-.595-1.307-.893-.995-.642-2.127-1.07-3.122-1.712-.243-.156-.37-.423-.597-.583-.31-.218-.49-.117-.843-.184-.266-.05-.45-.22-.697-.321-.39-.16-.81-.19-1.218-.275-.636-.13-1.28-.426-1.914-.522-.228-.035-.472.053-.701.018-.345-.052-.626-.168-.98-.196-.527-.043-.955-.19-1.493-.186-.545.005-1.09 0-1.635 0-1.142 0-2.342-.118-3.416.321-.47.193-.849.336-1.348.466-.252.066-.46.222-.7.296-.322.098-.56.084-.888.224-.26.11-.367.156-.642.227-.433.112-.553.296-.892.528-.265.182-.304.088-.57.172-.202.064-.378.251-.55.379"/><path fill="#FF3200" d="M46.1 46.748a3.237 3.237 0 0 0-1.323-.374c.097.008-.187-.021-.155-.02-.092-.005-.184-.003-.276-.009a6.268 6.268 0 0 0-.588-.009c-.084.002-.194-.01-.275.01-.13.033.298.054-.051.007-.072-.01-.397-.03-.393.025l-.034.008a1.95 1.95 0 0 1 .07-.007l-.1.013-.338.04a14.93 14.93 0 0 0-1.38.198c-.79.163-1.574.354-2.346.587-.86.26-1.688.571-2.5.956-1.467.694-2.685 1.72-3.83 2.854a14.05 14.05 0 0 0-1.62 1.93c-.438.628-.776 1.314-1.186 1.96-.47.74-.988 1.45-1.43 2.208-.275.47-.524.952-.723 1.459-.203.52-.164 1.065-.229 1.606l.051-.379c-.06.378-.224.726-.302 1.1a8.53 8.53 0 0 0-.157 1.46c-.025.793.023 1.59-.082 2.379l.052-.384c-.218 1.496-.68 2.959-.748 4.476a7.938 7.938 0 0 0 .192 2.187c.095.398.252.789.447 1.147.156.284.345.548.479.844l-.146-.345c.181.432.282.899.45 1.337.205.538.43 1.071.69 1.585.471.928 1.06 1.783 1.712 2.592.626.777 1.336 1.494 2.036 2.205.4.405.788.8 1.248 1.138.337.248.708.439 1.074.638.436.238.823.535 1.239.804.306.198.649.36 1.005.448.258.063.513.102.761.203l-.345-.146c.38.167.73.39 1.11.552.474.202.96.367 1.435.564l-.346-.145c.928.4 1.855.82 2.833 1.083.53.142 1.08.233 1.627.273.47.034.939-.036 1.407.014l-.384-.052c.428.06.85.143 1.282.186.328.032.654.027.983.037.657.02 1.307.138 1.963.173.694.037 1.396.011 2.09.01l2.123-.002c.444 0 .863-.004 1.304-.073.267-.042.516-.132.767-.23a62.884 62.884 0 0 1 1.84-.683c.604-.214 1.23-.373 1.823-.62a10.69 10.69 0 0 0 1.85-.982 23.83 23.83 0 0 0 1.924-1.419c.585-.48 1.133-1.004 1.73-1.471l-.29.224c.314-.243.64-.468.907-.765.256-.285.49-.6.692-.926.296-.478.524-.994.754-1.506.304-.677.614-1.348.85-2.052.23-.68.421-1.375.698-2.038l-.143.338c.172-.4.371-.794.505-1.209.138-.428.154-.883.191-1.328.03-.369.066-.737.093-1.107.028-.378.028-.76.073-1.137l-.05.375c.069-.51.186-1.016.205-1.53.016-.407-.054-.811-.008-1.216l-.05.373c.073-.536.191-1.065.231-1.606.035-.458.046-.936.032-1.395-.032-1.067-.46-2.079-.61-3.13l.05.371c-.1-.764-.197-1.485-.489-2.203a16.484 16.484 0 0 0-.964-2.005c-.343-.596-.762-1.141-1.168-1.694-.474-.644-.915-1.307-1.41-1.935l.218.281c-.246-.322-.467-.67-.776-.937-.283-.244-.587-.46-.86-.716a5.373 5.373 0 0 0-1.038-.76c-.293-.165-.591-.318-.862-.519l.28.217c-.782-.616-1.59-1.188-2.465-1.666-.79-.431-1.642-.786-2.379-1.308l.29.223c-.126-.102-.223-.227-.33-.348a2.316 2.316 0 0 0-.587-.481c-.335-.191-.621-.253-.998-.29-.14-.013-.281-.014-.421-.032l.383.051a1.256 1.256 0 0 1-.25-.07l.345.145c-.424-.195-.814-.437-1.276-.545-.394-.093-.794-.138-1.183-.252-.38-.112-.75-.253-1.133-.353a4.031 4.031 0 0 0-.883-.145c-.2-.006-.396.044-.597.022l.392.053c-.21-.037-.413-.097-.62-.144-.32-.074-.648-.095-.972-.139l.395.053c-.482-.071-.956-.18-1.444-.216-.383-.028-.774-.01-1.158-.015-.729-.007-1.459-.039-2.187-.03-.812.011-1.645.101-2.404.4a11.42 11.42 0 0 1-.945.337c-.175.052-.352.09-.522.155-.265.1-.514.229-.772.342l.37-.157c-.21.084-.428.118-.647.169-.328.076-.63.234-.938.366l.365-.154c-.338.14-.684.222-1.017.38-.299.142-.558.372-.806.588l.304-.235c-.095.072-.19.144-.297.198l.358-.151a.648.648 0 0 1-.149.04l.398-.053c-.414.047-.728.088-1.1.29-.265.144-.483.361-.716.55l.299-.232-.048.037c-.319.244-.567.478-.679.883-.097.353-.053.824.15 1.138.203.316.506.593.882.679.36.082.831.087 1.139-.149.132-.1.264-.201.393-.305l-.299.23c.152-.112.3-.23.449-.346l-.3.232c.082-.062.165-.116.259-.16l-.356.15c.069-.024.137-.04.209-.052l-.397.054c.454-.047.87-.113 1.25-.387.191-.137.37-.287.587-.382-.121.05-.242.102-.362.153.184-.072.38-.105.566-.169.195-.067.38-.158.582-.206.196-.046.398-.062.593-.115.325-.089.617-.26.922-.399l-.37.156c.411-.17.853-.267 1.267-.434.442-.179.87-.323 1.344-.391l-.406.054c.715-.094 1.436-.064 2.155-.064.383 0 .766-.003 1.148-.005.391-.002.782-.023 1.17.026l-.396-.053c.51.07 1.018.147 1.529.21l-.395-.052c.27.042.53.122.798.167.244.041.467.079.709.055.142-.014.278-.034.421-.02l-.39-.053c.535.084 1.04.282 1.562.423.52.142 1.07.158 1.575.35l-.345-.145c.323.139.603.333.948.437.314.095.642.082.964.112l-.382-.051c.068.01.13.026.195.05l-.343-.145c.076.035.144.076.212.127l-.29-.225c.159.136.276.312.432.45.258.23.547.408.846.576.434.245.882.46 1.328.682.889.44 1.784.931 2.572 1.538l-.282-.218c.34.27.67.527 1.05.739.285.16.573.312.834.512l-.281-.218c.259.208.495.442.755.649.245.196.481.385.674.634l-.217-.28c.19.25.38.5.573.748l-.218-.282c.295.387.56.794.842 1.19.273.383.56.757.83 1.142.527.747.96 1.56 1.32 2.4l-.14-.332c.205.488.358.99.434 1.516l-.05-.371c.079.596.15 1.186.287 1.773.112.478.267.954.339 1.44l-.05-.371c.04.333.026.667.013 1.002-.013.328-.008.654-.048.98l.05-.373c-.07.525-.208 1.047-.23 1.578-.018.461.048.913-.012 1.374l.05-.374c-.055.389-.126.774-.175 1.164-.039.314-.041.63-.063.946-.043.617-.081 1.245-.16 1.858l.05-.376c-.04.246-.12.477-.214.706l.143-.339c-.279.653-.56 1.297-.78 1.972-.199.604-.384 1.213-.63 1.8l.143-.34c-.207.484-.435.963-.66 1.439-.218.46-.457.913-.764 1.321l.224-.29a3.508 3.508 0 0 1-.601.617l.29-.224c-.876.661-1.669 1.415-2.535 2.086l.29-.225c-.888.68-1.824 1.352-2.858 1.792l.344-.145c-.367.151-.746.256-1.123.376-.402.128-.798.27-1.194.415-.378.14-.757.28-1.134.423-.333.126-.656.265-1.01.316l.383-.051c-.346.04-.7.017-1.048.017-.368 0-.737.003-1.106.003h-2.104c-.674 0-1.33-.051-2-.123-.677-.072-1.359-.04-2.035-.127l.385.052c-.52-.071-1.03-.187-1.556-.176-.419.01-.826.022-1.243-.033l.384.052c-.945-.136-1.844-.47-2.72-.838l.345.145c-.39-.165-.777-.342-1.172-.498-.304-.12-.615-.225-.918-.35l.345.147c-.382-.162-.731-.386-1.11-.552a4.152 4.152 0 0 0-.815-.287c-.2-.042-.395-.08-.585-.158l.345.146c-.496-.235-.907-.616-1.384-.887-.445-.253-.909-.473-1.32-.78l.292.226c-.3-.232-.558-.517-.824-.785a60.09 60.09 0 0 1-.794-.819c-.528-.554-1.056-1.113-1.525-1.719l.226.292a13.225 13.225 0 0 1-1.666-2.847l.146.345c-.22-.52-.39-1.05-.559-1.589-.188-.604-.566-1.079-.822-1.646l.145.346a4.214 4.214 0 0 1-.272-1.047l.052.385a7.96 7.96 0 0 1 .018-2.086l-.052.384c.155-1.092.455-2.159.615-3.25.097-.657.128-1.303.123-1.967-.004-.579-.01-1.157.064-1.733l-.051.38c.053-.37.19-.712.28-1.074.117-.469.087-.935.145-1.407l-.05.378c.031-.19.088-.368.161-.546l-.143.34c.455-1.047 1.133-1.982 1.747-2.937.597-.927 1.07-1.92 1.746-2.797l-.218.282c.429-.549.91-1.047 1.405-1.534.486-.477.988-.943 1.526-1.36l-.275.213c.804-.615 1.707-1.096 2.637-1.49l-.312.132c.536-.223 1.055-.489 1.591-.715l-.291.123a26.882 26.882 0 0 1 1.533-.588 22.959 22.959 0 0 1 .917-.303l.256-.108a2.816 2.816 0 0 1 .023-.01l.39-.15.355-.139c.195-.077.402-.122.57-.252.114-.094.121-.095.022-.003l.062-.028c.062-.02.126-.056.186-.082-.13.056.025-.01.07-.028a6.496 6.496 0 0 1 .33-.117c-.001 0 .2-.056.094-.035l.173-.023c-.058-.003-.047-.006.034-.01.056-.007.114-.008.17-.01.27-.007.438.018.694.102.569.187.93-.678.407-.964Z"/><path fill="#0A0A0A" d="M46.02 45.795c-.111-.006-.23-.003-.34-.02-.07-.011-.142-.041-.21-.06.017.004.108.05-.04-.013-.083-.035-.167-.04-.256-.047a6.003 6.003 0 0 0-.823.004c-.546.033-1.103.029-1.646.102-1.047.14-2.037.597-3.024.948-.545.194-1.087.391-1.614.628-.472.212-.905.494-1.378.704-1.013.45-1.974 1.013-2.942 1.551-.525.293-1.072.564-1.579.886-.275.175-.547.38-.764.626a4.119 4.119 0 0 1-.573.566l.22-.17c-.572.438-1.127.893-1.565 1.47a6.606 6.606 0 0 0-.46.683c-.136.236-.235.49-.354.734-.274.558-.573 1.103-.85 1.659a99.629 99.629 0 0 0-.816 1.672c-.185.388-.385.774-.541 1.175-.116.299-.136.623-.255.92l.12-.283c-.153.355-.357.676-.496 1.04-.117.306-.194.627-.295.939-.098.3-.237.584-.338.882a3.07 3.07 0 0 0-.132.674c-.017.152-.008.304-.026.456l.042-.313c-.023.152-.066.297-.105.445a3.44 3.44 0 0 0-.112.786c-.01.373-.003.746.023 1.118.053.784.086 1.569.115 2.355.015.418.048.85.182 1.247.05.152.065.306.105.46.054.208.147.411.24.604.034.07.069.142.108.21.083.146-.042-.183-.003-.018.007.031.017.062.025.093.02.078.033.158.054.236-.01-.037.069.19.106.244.037.074.03.055-.017-.057l.035.098c.028.053.001.117.013-.053-.004.065.024.194.04.276.013.078.035.152.062.226.085.23.16.461.259.686.038.088.085.17.133.254l.045.082a.558.558 0 0 0-.017-.043l.012.044c.021.203.067.417.17.596.124.215.293.365.5.498.028.019.057.04.087.057.04.027.026.016-.04-.033a.915.915 0 0 1 .062.059c.01.01.051.047.057.064a12.056 12.056 0 0 0 .104.136l-.146-.25c.07.182.097.393.208.556.128.188.325.316.508.445l-.198-.198c.015.02.028.041.04.063-.03-.08-.036-.093-.017-.038l.027.1c.036.135.084.26.14.387.095.213.218.41.326.617a.515.515 0 0 0 .7.183c.254-.164.3-.437.183-.7-.043-.097-.09-.193-.135-.289l-.064-.139c-.027-.055-.001 0 .003.01a2.454 2.454 0 0 1-.043-.117c-.063-.186-.062-.42-.178-.586-.05-.07.074.19-.015-.02a.968.968 0 0 0-.051-.108c-.02-.037-.045-.072-.066-.108-.023-.04-.042-.08-.063-.12-.04-.08-.121-.14-.16-.216 0 0 .07.099.031.04l-.038-.053c-.016-.023-.032-.051-.05-.073-.009-.01-.06-.061-.015-.008.035.04.007.014-.004-.013l-.024-.06c-.036-.088-.07-.177-.117-.26a1.903 1.903 0 0 0-.24-.318c-.022-.025-.047-.066-.074-.085.004.003.076.12.05.06-.012-.025-.031-.048-.046-.072-.015-.025-.057-.12-.02-.021.036.093.01.023.006.004-.023-.124.008.157 0 .034a2.425 2.425 0 0 0-.052-.442c-.035-.14-.103-.276-.167-.405-.012-.025-.08-.166-.032-.063.044.097.006.014 0-.008-.011-.044-.026-.087-.038-.13-.029-.105-.053-.212-.085-.316a6.09 6.09 0 0 1-.052-.18c-.006-.02-.02-.112-.002-.003.007.058.009.065.005.023-.001-.042-.006-.034-.014.026l-.012.05.028-.204a2.67 2.67 0 0 0 .013-.129c.004-.06.006-.118.002-.178-.014-.242-.105-.454-.209-.668a9.547 9.547 0 0 0-.032-.064c-.015-.03-.092-.144-.017-.035.056.08.022.045.014.004-.006-.03-.017-.061-.025-.092a3.61 3.61 0 0 1-.08-.373l.032.231c-.026-.2.004-.395-.012-.594a2.87 2.87 0 0 1-.003-.583c.053-.463.05-.934.065-1.4.013-.46.055-.92.079-1.38.024-.455-.023-.922.032-1.375l-.041.312c.031-.206.102-.4.145-.602.065-.305.054-.6.094-.903l-.042.312c.062-.375.246-.718.38-1.07.142-.38.223-.782.38-1.155l-.119.282c.156-.345.357-.657.491-1.015.107-.285.121-.593.23-.877l-.118.282a66.61 66.61 0 0 1 1.4-2.99c.236-.48.492-.952.71-1.44.2-.446.424-.861.715-1.256l-.178.23c.08-.102.16-.203.236-.307l-.177.23c.25-.318.537-.63.84-.897.133-.118.271-.232.397-.36.189-.19.337-.414.497-.628l-.165.214a2.63 2.63 0 0 1 .448-.445l-.21.162c.368-.281.776-.516 1.164-.768a90.52 90.52 0 0 1 1.261-.809c.416-.26.835-.517 1.258-.766.407-.24.842-.43 1.243-.68.388-.24.764-.475 1.177-.67.206-.096.413-.186.622-.275l-.048.02.072-.03c.097-.04.193-.08.288-.122l.336-.142c.208-.09.415-.182.622-.273l.288-.126c.055-.024.113-.045.167-.072 0 0-.138.057-.059.025l.097-.04a9.662 9.662 0 0 1 1.31-.442c.503-.127 1.013-.218 1.519-.328.132-.03.264-.057.398-.08.026-.004.183-.028.098-.017.075-.01.15-.016.224-.022.043-.004.082-.006.125-.012.047 0 .09-.012.131-.035.065-.032.082-.038.052-.02-.043.013.043-.007.041-.007.035-.008.07-.021.104-.03.127-.032.263-.029.393-.037.206-.012.382-.166.382-.381 0-.217-.175-.37-.382-.382Zm21.104 11.837c.333.478.59.984.687 1.563.05.301.065.652.188.961.05.124.106.246.14.376.041.158.07.319.114.476.043.151.087.302.125.455.018.076.035.152.049.23a1.098 1.098 0 0 0 .025.178c.034.326.047.656.072.984.052.669.11 1.332.109 2.003-.001.77-.05 1.54-.15 2.304l.038-.282c-.044.33-.083.66-.127.989l.04-.292c-.06.425-.132.847-.179 1.274-.037.347-.065.696-.111 1.043l.042-.312c-.033.238-.086.468-.133.703-.063.315-.055.629-.095.945l.043-.325a1.34 1.34 0 0 1-.063.236c-.06.167-.07.288-.093.486-.02.18-.003.36-.022.54l.045-.334a3.466 3.466 0 0 1-.227.762l.126-.3c-.144.335-.339.64-.518.957-.133.234-.243.48-.341.731-.072.184-.114.377-.187.56l.127-.302c-.146.323-.318.62-.441.956-.08.218-.143.442-.231.657l.127-.302c-.113.262-.282.497-.43.74-.152.251-.307.5-.485.735l.198-.256c-.146.187-.314.35-.47.528a8.365 8.365 0 0 0-.563.731c-.252.365-.465.758-.736 1.11l.198-.257c-.268.338-.594.62-.919.903-.159.138-.318.277-.469.425-.226.22-.413.461-.605.711l.198-.256a2.73 2.73 0 0 1-.498.48l.257-.198c-.249.19-.5.377-.744.571l.257-.198c-.32.24-.702.366-1.044.568-.179.106-.346.219-.537.304-.201.09-.402.183-.604.273l.304-.129c-.28.114-.57.204-.83.36-.173.105-.34.216-.522.304-.183.088-.37.17-.547.27-.178.1-.346.204-.534.285l.304-.128c-.35.147-.696.303-1.042.459l.303-.128c-.184.076-.376.121-.566.178-.277.083-.537.212-.802.327l.294-.124c-.209.087-.422.158-.63.254l.292-.123a3.796 3.796 0 0 0-.362.151l.29-.122a.412.412 0 0 1-.1.027l.318-.043a3.65 3.65 0 0 0-.709.141 2.75 2.75 0 0 1-.484.106c-.331.048-.657.11-.984.182a62.66 62.66 0 0 0-.975.222c-.342.08-.684.174-1.032.223l.262-.035a8.256 8.256 0 0 1-1.226.07l.238.031c-.822-.12-1.668-.053-2.497-.029-.178.005-.355.015-.533-.003-.173-.017-.345-.048-.52-.057-.39-.021-.792.012-1.184.02-.411.01-.806.356-.787.788.02.435.346.777.788.787.424.01.863-.01 1.284.045l-.217-.029c.287.042.572.106.862.121.253.014.508.01.761.017l.767.02c.26.008.523 0 .782.032l-.236-.032c.154.022.301.06.453.092.221.047.448.07.673.09.398.037.786-.004 1.18-.067.664-.109 1.327-.217 1.993-.313l-.283.038a9.44 9.44 0 0 1 .698-.044c.311-.01.613-.056.919-.115l-.302.041a.97.97 0 0 1 .153.006l-.31-.041c.194.042.386.09.587.087.215-.005.338-.052.52-.104.195-.056.381-.137.576-.193.19-.055.388-.082.579-.134.302-.084.58-.236.869-.358l-.305.128c.27-.112.546-.214.808-.344.19-.094.364-.215.555-.31.181-.09.37-.167.546-.27.183-.106.354-.233.55-.318l-.304.129c.581-.232 1.166-.467 1.699-.796.206-.128.429-.222.644-.33.312-.156.572-.37.847-.584l-.257.198c.239-.183.484-.358.715-.55.238-.197.412-.43.6-.675l-.199.256c.423-.536.99-.926 1.465-1.41.58-.59.937-1.337 1.437-1.988l-.198.256c.192-.245.42-.458.613-.703.245-.313.466-.63.671-.97.147-.243.319-.48.435-.74.16-.357.267-.727.41-1.09l-.127.301c.104-.244.239-.471.342-.716.105-.248.166-.508.268-.755l-.127.3c.197-.45.493-.847.692-1.297.13-.296.262-.598.334-.914a2.64 2.64 0 0 0 .076-.639c-.003-.144-.026-.286-.017-.43l-.045.327c.011-.077.037-.15.056-.226.044-.179.066-.366.074-.55.008-.193-.015-.384.004-.576l-.043.318c.08-.545.134-1.08.148-1.63.012-.468.047-.93.078-1.395.064-.985-.045-1.974-.184-2.949-.129-.907-.347-1.793-.532-2.689a7.216 7.216 0 0 0-.414-1.39l-.136-.31-.064-.142a.745.745 0 0 0-.032-.07c-.038-.08.03.072-.004-.01a4.046 4.046 0 0 0-.329-.607c-.125-.2-.161-.363-.24-.605a6.092 6.092 0 0 0-.28-.68 5.672 5.672 0 0 0-.751-1.196c-.225-.277-.703.089-.497.384Zm-9.995-4.125c.06 0 .123-.026.166-.069a.239.239 0 0 0 .069-.166.24.24 0 0 0-.235-.236.243.243 0 0 0-.167.07.239.239 0 0 0-.069.166.24.24 0 0 0 .236.235Zm2.436-.397c.08.015.162.024.243.035l-.092-.013a1.748 1.748 0 0 1 .185.035.383.383 0 0 0 .202 0l.015-.002-.1.014a.492.492 0 0 1 .082-.004l-.306-.176.034.067.052.067a.25.25 0 0 0 .108.07.166.166 0 0 0 .084.022c.044.01.088.008.132-.006a.394.394 0 0 0 .147-.086.248.248 0 0 0 .069-.107.25.25 0 0 0 .029-.128l.005-.078a.353.353 0 0 0-.175-.305.443.443 0 0 0-.051-.03.496.496 0 0 0-.226-.066c-.07.001-.14.015-.209.029-.076.015-.151.037-.228.051l-.076.032a.24.24 0 0 0-.089.082.16.16 0 0 0-.04.07.238.238 0 0 0-.027.122.36.36 0 0 0 .043.16.24.24 0 0 0 .081.088.24.24 0 0 0 .108.057Zm-.475 3.29a.435.435 0 0 0 .298-.123.316.316 0 0 0 .087-.136.318.318 0 0 0 .036-.162.427.427 0 0 0-.123-.299.439.439 0 0 0-.299-.123.436.436 0 0 0-.298.123.316.316 0 0 0-.088.136.317.317 0 0 0-.036.163c.005.109.04.222.124.298a.438.438 0 0 0 .298.124Zm3.741-.8.084-.012.043-.007.02-.003.01-.001a.346.346 0 0 0 .16-.094.265.265 0 0 0 .074-.114.268.268 0 0 0 .03-.137l-.012-.094a.354.354 0 0 0-.091-.157.209.209 0 0 0-.074-.058l-.086-.035-.01-.002-.021-.003-.042-.006-.085-.013a.384.384 0 0 0-.371.098l-.06.078a.38.38 0 0 0-.052.192.287.287 0 0 0 .033.147.286.286 0 0 0 .079.123.38.38 0 0 0 .371.098ZM33.885 78.788a.419.419 0 0 0 .287-.119.304.304 0 0 0 .084-.13.306.306 0 0 0 .035-.157.41.41 0 0 0-.12-.287.422.422 0 0 0-.286-.118.419.419 0 0 0-.287.118.303.303 0 0 0-.084.131.305.305 0 0 0-.035.156.41.41 0 0 0 .119.287c.08.073.177.12.287.12Zm1.774-1.741a.33.33 0 0 0 .169-.038.328.328 0 0 0 .14-.09.328.328 0 0 0 .091-.142.33.33 0 0 0 .038-.168l-.016-.117a.438.438 0 0 0-.113-.193l-.088-.069a.436.436 0 0 0-.221-.06.33.33 0 0 0-.17.038.328.328 0 0 0-.14.09.33.33 0 0 0-.091.142.33.33 0 0 0-.038.169l.016.116a.43.43 0 0 0 .113.194l.088.068c.069.04.143.06.222.06Zm.887 3.623a.276.276 0 0 0 .032-.033 2.6 2.6 0 0 0 .094-.126.31.31 0 0 0 .01-.019c.016-.036.033-.076.047-.113l.005-.013a.174.174 0 0 0 .009-.062.344.344 0 0 0-.008-.182.587.587 0 0 0-.056-.127l-.007-.009a2.002 2.002 0 0 0-.07-.091.292.292 0 0 0-.14-.096.292.292 0 0 0-.15-.033l-.104.014a.389.389 0 0 0-.172.1.227.227 0 0 1-.015.014l.083-.065a.179.179 0 0 1-.036.021.705.705 0 0 0-.093.072l-.071.092-.002.003a.215.215 0 0 1-.023.037l.072-.093a.25.25 0 0 1-.043.042l.093-.072a.465.465 0 0 0-.182.178l-.047.11a.465.465 0 0 0 0 .246.36.36 0 0 0 .083.158.35.35 0 0 0 .13.119c.053.033.11.052.172.055a.35.35 0 0 0 .185-.009.462.462 0 0 0 .204-.119Zm-4.528-3.672c.1 0 .205-.043.276-.114a.396.396 0 0 0 .114-.276.394.394 0 0 0-.114-.275.405.405 0 0 0-.276-.114c-.1 0-.205.043-.275.114a.396.396 0 0 0-.115.275.395.395 0 0 0 .115.276c.076.07.17.114.275.114Zm5.278 1.178-.073.035a.415.415 0 0 0 0 .715l.073.035a.452.452 0 0 0 .622-.163.452.452 0 0 0-.163-.622.452.452 0 0 0-.459 0Z"/></g><defs><clipPath id="a"><path fill="#fff" d="M113.689 89.708H160v46.311h-46.311z"/></clipPath><clipPath id="b"><path fill="#fff" d="M24.646 43h46.311v46.311H24.646z"/></clipPath></defs></svg>