<svg width="2430" height="438" viewBox="0 0 2430 438" fill="none" xmlns="http://www.w3.org/2000/svg">
<mask id="path-2-inside-1_13_38" fill="white">
<path d="M251.823 0C313.458 0 366.34 37.767 388.932 91.5918C409.253 75.8883 434.678 66.5567 462.264 66.5566C528.885 66.5567 582.893 120.989 582.893 188.134C582.893 188.786 582.885 189.436 582.875 190.086C648.144 193.552 700 247.572 700 313.704C700 382.074 644.575 437.5 576.204 437.5H123.796C55.4255 437.5 7.42386e-05 382.074 0 313.704C0 250.475 47.4025 198.32 108.608 190.833C104.967 177.844 103.019 164.138 103.019 149.975C103.019 67.1461 169.641 0.000357483 251.823 0Z"/>
</mask>
<path d="M251.823 0V-175H251.822L251.823 0ZM388.932 91.5918L227.569 159.319L315.714 369.33L495.936 230.066L388.932 91.5918ZM462.264 66.5566L462.264 -108.443H462.263L462.264 66.5566ZM582.893 188.134L757.893 188.134V188.134H582.893ZM582.875 190.086L407.896 187.352L405.263 355.902L573.596 364.84L582.875 190.086ZM700 313.704L875 313.704V313.704H700ZM0 313.704H-175V313.704L0 313.704ZM108.608 190.833L129.858 364.538L332.108 339.797L277.114 143.6L108.608 190.833ZM103.019 149.975L-71.9814 149.975V149.975H103.019ZM251.823 0V175C239.901 175 231.045 167.601 227.569 159.319L388.932 91.5918L550.295 23.8646C501.636 -92.0671 387.015 -175 251.823 -175V0ZM388.932 91.5918L495.936 230.066C486.783 237.139 474.857 241.557 462.264 241.557L462.264 66.5566L462.263 -108.443C394.499 -108.443 331.724 -85.3623 281.927 -46.8823L388.932 91.5918ZM462.264 66.5566L462.264 241.557C430.946 241.557 407.893 216.344 407.893 188.134H582.893H757.893C757.893 25.6332 626.824 -108.443 462.264 -108.443L462.264 66.5566ZM582.893 188.134L407.893 188.133C407.893 187.799 407.894 187.555 407.896 187.429C407.897 187.307 407.898 187.265 407.896 187.352L582.875 190.086L757.854 192.819C757.871 191.726 757.893 190.068 757.893 188.134L582.893 188.134ZM582.875 190.086L573.596 364.84C546.451 363.398 525 341.115 525 313.704H700H875C875 154.028 749.837 23.7047 592.154 15.3321L582.875 190.086ZM700 313.704L525 313.704C525 285.425 547.924 262.5 576.204 262.5V437.5V612.5C741.225 612.5 875 478.724 875 313.704L700 313.704ZM576.204 437.5V262.5H123.796V437.5V612.5H576.204V437.5ZM123.796 437.5V262.5C152.076 262.5 175 285.425 175 313.704L0 313.704L-175 313.704C-175 478.724 -41.2245 612.5 123.796 612.5V437.5ZM0 313.704H175C175 339.991 155.35 361.42 129.858 364.538L108.608 190.833L87.3591 17.1279C-60.5447 35.2209 -175 160.96 -175 313.704H0ZM108.608 190.833L277.114 143.6C277.741 145.838 278.019 148.019 278.019 149.975H103.019H-71.9814C-71.9814 180.258 -67.806 209.85 -59.897 238.066L108.608 190.833ZM103.019 149.975L278.019 149.975C278.019 162.502 267.58 175 251.824 175L251.823 0L251.822 -175C71.7018 -174.999 -71.9814 -28.2097 -71.9814 149.975L103.019 149.975Z" fill="black" mask="url(#path-2-inside-1_13_38)"/>
<path d="M2430 424.954H2353.35C2317.08 424.954 2288.64 416.094 2268.04 398.373C2247.43 380.652 2237.13 352.216 2237.13 313.065V55.2871H2329.86V302.556C2329.86 318.217 2333.15 328.726 2339.75 334.083C2346.75 339.028 2358.29 341.501 2374.36 341.501H2430V424.954ZM2430 191.903H2188.29V115.25H2430V191.903Z" fill="black"/>
<path d="M1933.18 431.136C1904.33 431.136 1880.22 425.779 1860.85 415.064C1841.89 403.937 1827.68 389.101 1818.2 370.555C1809.13 352.01 1804.6 331.198 1804.6 308.12V115.25H1897.32V277.211C1897.32 301.938 1903.3 320.071 1915.25 331.61C1927.2 342.738 1947.81 348.301 1977.07 348.301C2007.56 348.301 2028.79 342.325 2040.74 330.374C2053.1 318.011 2059.28 298.641 2059.28 272.266L2071.03 271.648L2077.83 330.374H2060.52C2058.05 347.683 2051.87 363.962 2041.98 379.21C2032.5 394.458 2018.69 407.028 2000.56 416.918C1982.84 426.397 1960.38 431.136 1933.18 431.136ZM2152.01 424.955H2065.47V329.138L2059.28 326.047V115.25H2152.01V424.955Z" fill="black"/>
<path d="M1744.32 424.954H1651.59V10.7783H1744.32V424.954Z" fill="black"/>
<path d="M1372.98 431.136C1344.13 431.136 1320.03 425.779 1300.66 415.064C1281.7 403.937 1267.48 389.101 1258 370.555C1248.94 352.01 1244.4 331.198 1244.4 308.12V115.25H1337.13V277.211C1337.13 301.938 1343.1 320.071 1355.06 331.61C1367.01 342.738 1387.61 348.301 1416.87 348.301C1447.37 348.301 1468.59 342.325 1480.54 330.374C1492.91 318.011 1499.09 298.641 1499.09 272.266L1510.84 271.648L1517.64 330.374H1500.33C1497.85 347.683 1491.67 363.962 1481.78 379.21C1472.3 394.458 1458.5 407.028 1440.36 416.918C1422.64 426.397 1400.18 431.136 1372.98 431.136ZM1591.82 424.955H1505.27V329.138L1499.09 326.047V115.25H1591.82V424.955Z" fill="black"/>
<path d="M1045.12 431.136C1009.27 431.136 981.04 423.512 960.434 408.263C940.241 392.603 927.259 369.525 921.49 339.028H904.181L910.981 272.265H922.726C922.726 289.986 926.023 304.41 932.617 315.537C939.623 326.252 949.719 334.083 962.907 339.028C976.507 343.973 993.198 346.446 1012.98 346.446C1033.17 346.446 1049.66 343.973 1062.43 339.028C1075.21 334.083 1084.69 326.046 1090.87 314.919C1097.05 303.792 1100.14 288.956 1100.14 270.411C1100.14 251.041 1097.05 235.999 1090.87 225.284C1084.69 214.157 1075.21 206.121 1062.43 201.176C1049.66 196.23 1033.38 193.757 1013.6 193.757C983.513 193.757 960.847 199.321 945.598 210.448C930.35 221.575 922.726 240.533 922.726 267.32H910.981V197.466H927.671C933.029 171.503 945.392 150.279 964.762 133.795C984.543 117.31 1012.77 109.068 1049.45 109.068C1080.36 109.068 1106.53 115.662 1127.96 128.849C1149.39 142.037 1165.67 160.788 1176.79 185.103C1188.33 209.006 1194.1 237.442 1194.1 270.411C1194.1 302.968 1188.33 331.404 1176.79 355.719C1165.67 379.621 1148.98 398.167 1126.72 411.354C1104.47 424.542 1077.27 431.136 1045.12 431.136ZM915.926 424.954H830V10.7783H922.726V325.428L915.926 333.464V424.954Z" fill="black"/>
</svg>
