<svg width="50" height="50" viewBox="0 0 50 50" xmlns="http://www.w3.org/2000/svg">
<path d="M17.6667 47H32.3333M39.6666 19.5001V23.1667C39.6666 31.2334 33.0666 37.8334 25 37.8334M25 37.8334C16.9333 37.8334 10.3334 31.2334 10.3334 23.1667V19.5001M25 37.8334V47M25 3.00009C24.0356 2.99523 23.0798 3.1816 22.1879 3.54841C21.296 3.91523 20.4857 4.45521 19.8037 5.13714C19.1218 5.81907 18.5818 6.62942 18.215 7.52133C17.8482 8.41325 17.6618 9.36903 17.6667 10.3334V23.0521C17.6667 27.0855 20.9896 30.5 25 30.5C29.0104 30.5 32.3333 27.1771 32.3333 23.0521V10.3334C32.3333 6.20842 29.125 3.00009 25 3.00009Z" stroke="black" stroke-width="3" stroke-linecap="round" stroke-linejoin="round"/>
</svg>
