<svg width="50" height="50" viewBox="0 0 50 50" fill="none" xmlns="http://www.w3.org/2000/svg">
<path d="M31.4571 10.4169C30.714 10.783 30.4083 11.6822 30.7744 12.4254C31.1405 13.1685 32.0397 13.4742 32.7829 13.1081L32.12 11.7625L31.4571 10.4169ZM44.3 28.2275C44.3 27.3991 43.6284 26.7275 42.8 26.7275C41.9716 26.7275 41.3 27.3991 41.3 28.2275H42.8H44.3ZM26.0607 0.911874C25.4749 0.326088 24.5251 0.326088 23.9393 0.911874C23.3536 1.49766 23.3536 2.44741 23.9393 3.03319L25 1.97253L26.0607 0.911874ZM33.9 10.8725L34.9607 11.9332C35.5464 11.3474 35.5464 10.3977 34.9607 9.81187L33.9 10.8725ZM23.9393 18.7119C23.3536 19.2977 23.3536 20.2474 23.9393 20.8332C24.5251 21.419 25.4749 21.419 26.0607 20.8332L25 19.7725L23.9393 18.7119ZM32.12 11.7625C32.7829 13.1081 32.7838 13.1077 32.7848 13.1072C32.7851 13.107 32.7861 13.1065 32.7868 13.1062C32.7882 13.1055 32.7896 13.1048 32.791 13.1041C32.794 13.1026 32.7971 13.101 32.8005 13.0993C32.8071 13.0959 32.8146 13.0921 32.8229 13.0878C32.8393 13.0792 32.859 13.0686 32.8813 13.0561C32.9252 13.0315 32.9828 12.9974 33.0478 12.9543C33.1597 12.8798 33.3709 12.728 33.5596 12.493C33.7406 12.2674 34.0582 11.7606 33.9356 11.0758C33.8134 10.3931 33.3372 10.002 33.0232 9.81189C32.4374 9.45724 31.5535 9.27046 30.4249 9.14527C29.2187 9.01147 27.4833 8.92753 25 8.92753V10.4275V11.9275C27.4317 11.9275 29.0439 12.0105 30.0942 12.127C31.2222 12.2521 31.5039 12.3991 31.4694 12.3782C31.4309 12.3549 31.0768 12.1307 30.9826 11.6044C30.888 11.0761 31.1396 10.7153 31.2201 10.6149C31.3083 10.5051 31.3846 10.4575 31.3868 10.4561C31.3968 10.4494 31.4058 10.444 31.4148 10.439C31.4196 10.4363 31.4253 10.4332 31.4321 10.4296C31.4355 10.4278 31.4393 10.4259 31.4434 10.4238C31.4455 10.4228 31.4477 10.4217 31.4499 10.4205C31.4511 10.4199 31.4523 10.4194 31.4535 10.4188C31.4541 10.4185 31.455 10.418 31.4553 10.4179C31.4562 10.4174 31.4571 10.4169 32.12 11.7625ZM25 10.4275V8.92753C21.1828 8.92753 17.4514 10.0595 14.2775 12.1802L15.1109 13.4274L15.9442 14.6746C18.6247 12.8835 21.7762 11.9275 25 11.9275V10.4275ZM15.1109 13.4274L14.2775 12.1802C11.1036 14.3009 8.6299 17.3151 7.16913 20.8417L8.55495 21.4158L9.94077 21.9898C11.1745 19.0114 13.2637 16.4656 15.9442 14.6746L15.1109 13.4274ZM8.55495 21.4158L7.16913 20.8417C5.70836 24.3684 5.32616 28.2489 6.07085 31.9928L7.54203 31.7001L9.01321 31.4075C8.38427 28.2456 8.70706 24.9682 9.94077 21.9898L8.55495 21.4158ZM7.54203 31.7001L6.07085 31.9928C6.81555 35.7366 8.65369 39.1755 11.3528 41.8747L12.4135 40.814L13.4742 39.7534C11.1946 37.4738 9.64215 34.5694 9.01321 31.4075L7.54203 31.7001ZM12.4135 40.814L11.3528 41.8747C14.052 44.5738 17.4909 46.412 21.2348 47.1567L21.5274 45.6855L21.82 44.2143C18.6581 43.5854 15.7538 42.033 13.4742 39.7534L12.4135 40.814ZM21.5274 45.6855L21.2348 47.1567C24.9786 47.9014 28.8592 47.5192 32.3858 46.0584L31.8118 44.6726L31.2377 43.2868C28.2593 44.5205 24.9819 44.8433 21.82 44.2143L21.5274 45.6855ZM31.8118 44.6726L32.3858 46.0584C35.9124 44.5976 38.9267 42.1239 41.0474 38.95L39.8002 38.1167L38.553 37.2833C36.7619 39.9638 34.2162 42.0531 31.2377 43.2868L31.8118 44.6726ZM39.8002 38.1167L41.0474 38.95C43.1681 35.7762 44.3 32.0447 44.3 28.2275H42.8H41.3C41.3 31.4514 40.344 34.6028 38.553 37.2833L39.8002 38.1167ZM25 1.97253L23.9393 3.03319L32.8393 11.9332L33.9 10.8725L34.9607 9.81187L26.0607 0.911874L25 1.97253ZM33.9 10.8725L32.8393 9.81187L23.9393 18.7119L25 19.7725L26.0607 20.8332L34.9607 11.9332L33.9 10.8725Z" fill="black"/>
</svg>
