<svg xmlns="http://www.w3.org/2000/svg" width="120" height="120" fill="none"><path fill="#FF8131" d="m30.299 43.55-.148-.031c-.164-.49.043-1.017.133-1.491.09-.48.015-1.031.015-1.523 0-.824.09-1.68-.11-2.482-.19-.76-.61-1.465-.928-2.18-.335-.752-.5-1.549-.792-2.317-.52-1.367-.875-2.66-1.173-4.089-.064-.307-.467-1.357-.164-1.62.193-.169 1.32-.017 1.535-.018.84-.003 1.649.007 2.482.126 1.416.202 2.666.715 3.992 1.223.546.209 1.299.584 1.887.634.958.081.613-1.218.61-1.837-.003-.653.013-1.279.089-1.927.127-1.082.048-2.145.08-3.232.027-.901.184-1.788.193-2.692.01-.863.044-1.645.153-2.499.054-.424.096-.858.24-1.265.1-.276.36-.968.587-1.135.367-.27.806.066 1.16.251.584.306 1.208.527 1.79.836.72.383 1.325.936 1.98 1.416 1.11.816 2.217 1.623 3.353 2.404 1.443.993 2.733 2.194 4.164 3.194.29.202 1.655 1.072 2.07.728.11-.091.084-.407.101-.481.121-.514.348-1.007.512-1.508.352-1.08.824-2.088 1.352-3.092a103.962 103.962 0 0 1 3.435-6c1.296-2.107 2.203-4.454 3.44-6.595.405-.702.874-1.375 1.305-2.062.144-.228.366-.438.503-.667.121-.2.189-.437.34-.619.295.127.309.793.394 1.074.177.584.48 1.114.676 1.692.65 1.911 1.51 3.771 2.331 5.615.472 1.06 1.016 2.107 1.388 3.208.41 1.208.926 2.249 1.477 3.396.994 2.066 1.88 4.207 3.005 6.206.275.487.517.998.717 1.522.104.27.156.636.382.845.641.593 1.831-.232 2.429-.536.615-.313 1.07-.82 1.685-1.14.659-.343 1.36-.53 2.032-.832.65-.291 1.224-.648 1.892-.909.268-.104.792-.559 1.079-.523.122.337.023.868.023 1.23 0 .767.004 1.534-.004 2.3-.009.879.215 1.68.326 2.546.124.963.036 1.972.036 2.94 0 .464-.125 1.096-.013 1.545.114.456.473.352.859.347.296-.004.992-.126 1.274.027.36.196.207.876.207 1.222 0 .799.102 1.666-.171 2.429-.182.507-.363.676-.9.63-.32-.028-.574-.158-.88-.24-.422-.115-.854-.092-1.28-.17-1.718-.313-3.343-.95-5.029-1.392-2.254-.59-4.47-.978-6.776-1.301-1.124-.158-2.253-.144-3.382-.266-.79-.085-1.523-.243-2.305-.366-.715-.113-1.43-.06-2.152-.176-.627-.1-1.362-.212-1.99-.223-.501-.008-.95-.147-1.447-.183-.533-.039-1.086.01-1.623.01-.767 0-1.617-.097-2.367.04-1.714.312-3.344 1.715-4.252 3.186-.58.94-1.166 1.881-1.78 2.813-.239.363-.452.75-.804 1.017-.44.333-1 .544-1.48.819-3.199 1.828-7.072.84-10.58 1.064-.674.043-1.286.19-1.977.188-.591-.002-1.183.008-1.774.001-.514-.006-.967.14-1.471.18-.51.038-.531.202-.53.715"/><path fill="#FF8131" d="M30.654 42.263a79.69 79.69 0 0 1-.145-.044l.942.942c.02.106-.007.22.019.06.051-.323-.071.201-.003.022.053-.14.082-.296.13-.44.021-.064.046-.127.065-.191.055-.192-.016.012-.053.084.167-.323.203-.66.233-1.014.053-.625.03-1.255.072-1.881.051-.75.047-1.483-.105-2.225-.152-.743-.499-1.444-.8-2.135.06.14.12.28.178.421-.107-.314-.26-.61-.39-.915l.178.424c-.277-.67-.436-1.377-.66-2.064-.222-.679-.464-1.347-.655-2.036a28.42 28.42 0 0 1-.474-2.008c-.09-.445-.231-.882-.3-1.331l.069.508a1.72 1.72 0 0 1-.013-.372l-.069.51a.768.768 0 0 1 .037-.145l-.193.458a.299.299 0 0 1 .045-.075l-.3.39.029-.03-.39.3a.188.188 0 0 1 .054-.03l-.46.194a.798.798 0 0 1 .122-.028l-.511.069c.44-.051.88.042 1.32.058.807.031 1.605.01 2.41.112l-.517-.07c1.452.2 2.827.73 4.182 1.268.568.225 1.121.497 1.73.596.52.085.937.12 1.455-.038a2.394 2.394 0 0 0 1.409-1.163c.318-.62.38-1.3.32-1.984a11.886 11.886 0 0 1-.013-1.649c.04-.767.138-1.522.142-2.291.003-.766-.023-1.531.035-2.295.063-.83.15-1.648.168-2.48.017-.863.087-1.72.201-2.576l-.07.516c.064-.444.181-.853.353-1.266l-.196.463c.088-.205.182-.41.312-.593l-.303.393a.807.807 0 0 1 .109-.114l-.393.303.08-.049-.464.196a.492.492 0 0 1 .164-.049l-.516.07a.604.604 0 0 1 .17.005l-.516-.07c.09.021.17.047.256.082l-.463-.196c.58.274 1.15.57 1.736.836a8.46 8.46 0 0 1 1.682 1.034l-.394-.304a98.514 98.514 0 0 0 2.898 2.17c.883.637 1.792 1.24 2.656 1.903l-.395-.305c1.3 1.004 2.526 2.164 3.934 3.017.55.333 1.165.653 1.799.774.65.123 1.322.097 1.899-.268.786-.498 1.018-1.265 1.068-2.141l-.07.521c.062-.458.296-.908.449-1.34.17-.48.333-.957.53-1.426a937.5 937.5 0 0 0-.199.47c.488-1.147 1.086-2.243 1.687-3.332a107.09 107.09 0 0 1 1.934-3.353c.632-1.051 1.272-2.09 1.83-3.183.547-1.074 1.052-2.168 1.604-3.24.317-.618.649-1.229 1.015-1.818.362-.582.72-1.186 1.128-1.736l-.31.401c.239-.301.51-.588.708-.918.123-.203.196-.427.34-.619l-2.718.713.044.024a1408.4 1408.4 0 0 0-.402-.31.34.34 0 0 1 .076.072l-.31-.402a.92.92 0 0 1 .085.156l-.2-.475c.099.266.112.55.187.822.158.577.444 1.12.68 1.667l-.2-.475c.29.692.512 1.414.788 2.112.332.837.686 1.666 1.047 2.49.608 1.39 1.267 2.757 1.864 4.151l-.201-.478c.481 1.142.862 2.317 1.378 3.447.445.977.922 1.938 1.37 2.914.457.994.906 1.992 1.388 2.975.495 1.01 1.093 1.975 1.53 3.012l-.203-.482c.152.37.263.753.419 1.122.245.582.661 1.104 1.24 1.389 1.097.54 2.162.323 3.226-.15a9.31 9.31 0 0 0 1.393-.753c.608-.408 1.128-.856 1.811-1.146l-.484.205c.704-.288 1.422-.528 2.114-.846.539-.248 1.054-.545 1.598-.782l-.485.205c.324-.135.656-.25.955-.435.173-.107.34-.219.524-.307l-.485.205c.06-.025.116-.045.18-.06l-.541.072a.333.333 0 0 1 .104-.005l-1.96-1.491c.018.05.031.102.04.155l-.073-.54c.048.429-.061.875-.084 1.305a34.924 34.924 0 0 0-.042 1.552c-.005.513 0 1.013.065 1.522.087.67.212 1.333.306 2.001l-.077-.573c.098.753.077 1.508.055 2.265-.01.349-.005.7-.028 1.048-.02.314-.064.628-.052.943.03.767.224 1.514.768 2.083.504.527 1.156.758 1.867.794.492.026.984-.09 1.476-.042l-.581-.078c.066.01.126.023.19.043l-.522-.22c.036.014.07.033.1.057l-.442-.342a.38.38 0 0 1 .08.085l-.343-.442c.023.033.04.07.054.107l-.22-.522c.02.064.033.123.043.19l-.078-.581c.033.354-.028.713-.023 1.07.008.517.03 1.034-.035 1.55l.078-.585a3.353 3.353 0 0 1-.207.764l.222-.526a1.629 1.629 0 0 1-.126.233l.345-.446a.898.898 0 0 1-.113.123l.446-.345a.732.732 0 0 1-.138.08l.527-.222a.996.996 0 0 1-.172.042l.587-.08a1.874 1.874 0 0 1-.4-.013l.587.078c-.32-.062-.615-.202-.933-.267-.494-.101-.998-.128-1.497-.184l.589.079c-1.002-.137-1.987-.457-2.949-.758-.982-.307-1.962-.613-2.961-.863-2.044-.51-4.124-.883-6.21-1.172-1.36-.19-2.733-.208-4.093-.387l.611.082c-.677-.095-1.345-.239-2.02-.352-.865-.145-1.729-.154-2.596-.256l.622.083c-.634-.087-1.263-.2-1.899-.28-.452-.057-.909-.06-1.36-.119l.63.085c-.666-.102-1.328-.246-2.003-.263-.532-.014-1.064.02-1.596.002-1.162-.04-2.337-.085-3.454.312-1.21.43-2.253 1.078-3.21 1.935-.835.746-1.472 1.687-2.056 2.632-.61.988-1.198 2.017-1.891 2.948l.383-.495c-.117.148-.242.28-.39.398l.497-.383c-.352.256-.743.438-1.13.634-.388.197-.76.416-1.162.588l.585-.247a9.496 9.496 0 0 1-2.376.618l.65-.088c-1.997.252-4.007.032-6.01.022-.498-.002-.997.005-1.493.045-.547.045-1.088.155-1.638.178-.586.024-1.178.011-1.765.009-.723-.003-1.426.142-2.14.243l.646-.087c-.373.045-.758.052-1.12.153-.459.13-.908.39-1.242.73-.609.619-.808 1.44-.807 2.283.001.623.27 1.275.711 1.716.42.42 1.111.737 1.716.71 1.313-.059 2.428-1.066 2.426-2.426 0-.113.001-.224.012-.336l-.087.645a.854.854 0 0 1 .033-.143l-.244.58a.324.324 0 0 1 .04-.073l-.38.49a.274.274 0 0 1 .057-.057l-.491.38a.362.362 0 0 1 .078-.045l-.58.245c.077-.028.153-.042.233-.053l-.645.086c.558-.052 1.108-.148 1.661-.231l-.645.086c.814-.108 1.656-.017 2.477-.04.768-.023 1.525-.181 2.295-.207 1.405-.046 2.809.065 4.213.093 1.594.032 3.24-.051 4.783-.486.842-.237 1.648-.6 2.415-1.017.762-.414 1.568-.74 2.163-1.407.671-.751 1.19-1.665 1.73-2.514.458-.723.876-1.483 1.394-2.166l-.384.497a8.572 8.572 0 0 1 1.512-1.51l-.495.383a6.694 6.694 0 0 1 1.325-.788l-.581.245a4.91 4.91 0 0 1 1.182-.34l-.643.087c.665-.083 1.334-.033 2.002-.03.7.002 1.397-.082 2.094.005l-.631-.085c.604.085 1.205.208 1.816.222.442.01.88.055 1.32.113l-.626-.084c.623.084 1.243.198 1.87.232.472.026.944.025 1.414.078l-.617-.083c1.13.154 2.246.385 3.385.471 1.011.076 2.026.076 3.032.208l-.603-.082c2.223.303 4.438.678 6.615 1.23 1.043.264 2.066.602 3.1.902.514.15 1.033.29 1.557.403.694.15 1.396.201 2.098.288l-.588-.079c.245.038.472.11.707.186.374.12.769.18 1.161.197a2.887 2.887 0 0 0 2.158-.855c.992-.985 1.072-2.579 1.034-3.887-.011-.377.019-.748.017-1.124-.003-.99-.405-1.949-1.274-2.48-.581-.356-1.28-.442-1.948-.39-.314.024-.636.068-.952.047l.58.078a.712.712 0 0 1-.167-.043l.52.22-.048-.028.44.34a.35.35 0 0 1-.084-.081l.34.44a.496.496 0 0 1-.064-.122l.22.52a1.686 1.686 0 0 1-.056-.245l.077.578c-.046-.433.026-.863.036-1.296.014-.537.02-1.075.024-1.613.007-1.233-.248-2.418-.42-3.633l.076.571c-.106-.814-.027-1.63-.072-2.446-.02-.364-.051-.727-.047-1.092.006-.473-.01-.972-.15-1.427a2.091 2.091 0 0 0-1.96-1.491c-.528-.016-1.055.186-1.504.447-.2.116-.386.261-.598.355l.485-.205c-.885.355-1.703.832-2.578 1.203l.484-.204c-1.062.435-2.156.758-3.078 1.466a9.38 9.38 0 0 1-2.006 1.19l.483-.204c-.19.077-.38.139-.583.172l.537-.072a1.437 1.437 0 0 1-.343.002l.537.072a1.187 1.187 0 0 1-.19-.052l.483.203a1.076 1.076 0 0 1-.173-.1l.408.316a.7.7 0 0 1-.11-.106l.315.409a1.319 1.319 0 0 1-.131-.217l.203.482c-.222-.537-.395-1.085-.634-1.62-.208-.462-.458-.9-.7-1.345-.47-.86-.898-1.742-1.314-2.63-.416-.887-.819-1.78-1.237-2.667-.421-.89-.866-1.77-1.253-2.675l.202.479c-.258-.613-.46-1.245-.706-1.862a43.122 43.122 0 0 0-1.007-2.283 117.352 117.352 0 0 1-1.697-3.813l.2.476c-.576-1.367-1.058-2.768-1.645-4.13l.2.474a5.626 5.626 0 0 1-.321-1.093c-.146-.715-.558-1.412-1.212-1.77-.44-.241-1.04-.36-1.531-.2-.524.169-.86.475-1.188.912-.179.24-.267.528-.44.77l.31-.401a26.935 26.935 0 0 0-2.59 4.036c-.701 1.343-1.319 2.73-2.024 4.071-.718 1.365-1.564 2.66-2.336 3.996-.783 1.351-1.554 2.716-2.248 4.115a22.64 22.64 0 0 0-1.136 2.67c-.134.387-.276.772-.412 1.16-.162.458-.229.914-.274 1.396l.07-.52a.613.613 0 0 1-.026.124l.197-.468-.023.051.306-.396-.032.038.397-.306a.3.3 0 0 1-.068.042l.469-.198a.594.594 0 0 1-.124.033l.521-.07a1.023 1.023 0 0 1-.198-.004l.52.07a2.413 2.413 0 0 1-.535-.16l.468.197c-.776-.33-1.449-.838-2.112-1.35l.395.306c-1.228-.952-2.41-1.963-3.691-2.846-1.215-.838-2.43-1.69-3.6-2.59.132.1.263.202.395.304-.658-.51-1.3-1.068-2.037-1.463-.634-.339-1.32-.57-1.948-.92-.509-.284-1.02-.506-1.612-.526a2.415 2.415 0 0 0-1.852.78c-.514.57-.838 1.35-1.041 2.082-.225.808-.282 1.705-.342 2.542-.053.735-.034 1.473-.087 2.208-.055.75-.156 1.496-.168 2.25-.013.768.02 1.537-.019 2.305-.041.838-.147 1.663-.145 2.505 0 .46.1.921.046 1.38l.069-.515a1.25 1.25 0 0 1-.065.254l.196-.464a.854.854 0 0 1-.07.125l.303-.393a.659.659 0 0 1-.097.098l.393-.304a.452.452 0 0 1-.082.049l.464-.196a.792.792 0 0 1-.152.043l.516-.07c-.093.01-.18.006-.272-.005l.517.07c-.704-.106-1.356-.453-2.015-.706-.784-.302-1.569-.609-2.379-.839a13.542 13.542 0 0 0-2.934-.47c-.647-.037-1.294-.02-1.94-.063-.87-.056-1.803.003-2.45.665-.805.823-.71 1.988-.408 3 .19.64.328 1.296.507 1.94.223.804.485 1.596.788 2.373.393 1.01.675 2.053 1.139 3.036.199.423.448.82.651 1.242a1.24 1.24 0 0 0 .091.195 2.9 2.9 0 0 0-.048-.11c.025.068.05.135.071.203.078.239.128.483.164.731l-.059-.439c.106.847.078 1.709.143 2.56.016.206.016.406.011.613 0 .038-.01.29-.011.29.005.001.05-.376-.003.01-.08.585-.15 1.176.07 1.745.238.617.652.918 1.3.99l.148.016c.657.073 1.23-.564 1.31-1.157a1.339 1.339 0 0 0-.955-1.464ZM17.949 75.946c-.49.022-.843.755-1.11 1.097-.65.832-1.214 1.906-1.725 2.826-.342.614-.718 1.203-1.072 1.808-.372.638-.564 1.34-.929 1.981-.26.456-.46.938-.719 1.392-.128.227-.448.43-.31.722.932.183 2.053.015 2.998.018 1.462.004 2.833-.174 4.284-.318.44-.043.85-.09 1.283-.177.182-.037.45-.117.627-.037.475.214.251 1.286.254 1.718.01 1.676-.263 3.271-.409 4.936-.18 2.066-.454 4.15-.496 6.223-.037 1.83.009 3.665.009 5.494 0 .325-.213 2.008.15 2.161.965-.342 1.845-1.192 2.705-1.739 1.51-.959 2.95-2.025 4.512-2.902.755-.423 1.448-.927 2.185-1.375.497-.303 1.053-.491 1.558-.778.728-.412 1.36-1.107 2.12-1.452.814-.37 1.216.784 1.572 1.349.764 1.211 1.676 2.313 2.464 3.509 2.237 3.397 4.395 6.862 6.368 10.424.657 1.184 1.225 2.313 2.043 3.393.454.6.856 1.157 1.52.45.93-.992 1.906-2.009 2.781-3.055.721-.862 1.317-1.866 1.986-2.772a26.42 26.42 0 0 0 2.226-3.589c.255-.496.663-.821.883-1.343.324-.769.826-.66 1.48-.26 2.432 1.486 4.876 2.973 7.397 4.312 1.302.692 2.647 1.268 3.963 1.929.325.163.628.356.948.524.325.169.757.584 1.08.66.76.18.705-.81.834-1.316.133-.521.37-.965.586-1.457.407-.928.633-1.918 1.075-2.833.981-2.03 1.775-4.155 2.57-6.265.317-.842.564-1.735.989-2.531.152-.286.28-.767.497-.995.637-.673 1.95.027 2.654.191 2.537.59 5.022 1.236 7.498 2.058 2.029.674 3.895 1.548 5.758 2.587.791.441 1.62 1.143 2.52 1.342.765.169.865-.32.777-.981-.063-.477-.2-.943-.263-1.422-.108-.834-.085-1.664-.082-2.503.005-1.789-.005-3.578.006-5.367a10.038 10.038 0 0 0-.186-1.964c-.042-.22-.292-.77-.225-1.001.23-.794 2.713-.107 3.264-.039.863.107 1.734.183 2.592.326 1.008.169 1.993.458 3.003.622.812.132 1.681.105 2.479.304.194.048.561.289.759.258.928-.142-.812-1.78-1.087-2.051-1.422-1.4-1.916-3.367-3.289-4.806-1.204-1.262-2.125-2.842-3.117-4.274-.373-.538-.573-1.125-.978-1.655-.421-.552-.786-1.139-1.253-1.652-.499-.549-.788-1.225-1.157-1.862-.203-.352-.47-.663-.709-.99-.29-.399-.365-.743-.567-1.166-.115-.24-.306-.412-.438-.641-.086-.151-.121-.429-.26-.537-.426-.332-1.733.543-2.247.676-1.095.283-2.121.67-3.218.856-.537.091-.972-.174-1.436.258-.452.421-.604 1.302-.841 1.885-.536 1.315-1.341 2.39-2.183 3.525-.425.573-.86 1.117-1.263 1.71-.304.446-.788 1.249-1.268 1.472-.305.141-.605.082-.924.085-.283.003-.452.08-.716.144-.507.123-1.068.063-1.567.15-.37.065-.491.49-.724.78a7.59 7.59 0 0 1-1.257 1.23c-.54.415-1 .876-1.6 1.206-.694.382-1.39.814-2.144 1.06-.765.251-1.548.431-2.329.626-.621.154-1.216.367-1.859.36-.389-.005-.98-.12-1.354-.028-.635.156-1.13 1.212-1.523 1.706-.554.694-1.354 1.173-2.07 1.675-.349.245-.664.54-1.02.774-.37.243-.8.32-1.22.436-.617.172-1.215.393-1.828.58a4.744 4.744 0 0 1-1.515.224c-.456-.002-1.019-.12-1.394.166-.212.162-.341.412-.572.56-.255.161-.572.217-.846.343-.74.341-1.46.544-2.275.54a19.961 19.961 0 0 1-3.443-.308c-1.06-.188-2.13-.663-3.142-1.032-1.163-.425-2.267-.994-3.441-1.388-1.54-.518-2.943-1.105-4.352-1.918-.966-.557-2.069-.966-2.967-1.615-.82-.592-1.565-1.31-2.405-1.865-1.92-1.27-3.87-2.574-5.63-4.067-1.827-1.55-3.71-3.135-5.837-4.276-.306-.164-.576-.39-.886-.542-.348-.17-.724-.236-1.06-.433-.279-.164-.96-.934-1.267-.453"/><path fill="#FF8131" d="M17.949 74.642c-1.163.073-1.815.977-2.495 1.807a19.654 19.654 0 0 0-1.127 1.531c-.17.254-.336.51-.502.765-.059.09-.117.18-.176.268.001-.001-.294.456-.13.22-.383.552-.77 1.104-1.096 1.695-.272.49-.455 1.022-.71 1.52-.27.53-.641 1.048-.857 1.603-.106.273.264-.317.02-.012-.134.168-.272.336-.378.522-.302.526-.34 1.126-.191 1.701.15.58.678 1.172 1.287 1.288 1.33.25 2.687.144 4.032.128 1.304-.015 2.606-.152 3.904-.269a25.351 25.351 0 0 0 1.643-.213c.326-.062-.104.016-.142.018-.56.026-1.606-.711-1.497-1.445-.015.1.007.22.002.322-.01.214-.044.426-.068.639-.137 1.204-.17 2.419-.316 3.626-.328 2.702-.673 5.435-.735 8.158-.031 1.39-.024 2.779-.017 4.169.004.796-.09 1.599-.059 2.393.023.602.106 1.214.415 1.744.217.37.527.686.9.9.894.513 1.74.263 2.597-.143 1.01-.478 1.882-1.274 2.817-1.882 1.1-.715 2.172-1.473 3.293-2.154.525-.319 1.065-.611 1.583-.942.555-.354 1.095-.747 1.68-1.051.501-.26 1.034-.451 1.509-.762.35-.23.679-.5 1.009-.757.167-.13.24-.333-.03.022.103-.137.351-.257.497-.347.069-.042.21-.096.26-.147-.234.244-.852.192-1.13.117l-.377-.154c-.31-.261-.402-.33-.273-.206.187.172.05.242-.125-.178.157.378.441.781.664 1.124.697 1.074 1.501 2.073 2.214 3.136.744 1.11 1.46 2.238 2.172 3.367a145.833 145.833 0 0 1 4.105 6.896c.587 1.057 1.132 2.143 1.81 3.147.958 1.421 2.206 2.969 4.158 2.333.908-.296 1.452-.991 2.054-1.674.438-.497.881-.988 1.322-1.482.937-1.051 1.748-2.177 2.546-3.334.73-1.059 1.489-2.083 2.132-3.2.079-.136.677-1.469.827-1.455-.078-.007-.429.591.263-.343.058-.078.117-.153.17-.233.084-.126.146-.256.216-.39.035-.087.079-.17.13-.249l-.569.562c-.332.221-.772.249-1.15.176.384.075-.439-.288-.084-.022.232.174.506.31.753.462.581.358 1.163.715 1.746 1.069 1.168.709 2.342 1.406 3.532 2.077a59.46 59.46 0 0 0 3.605 1.87c1.101.525 2.253 1.018 3.253 1.723.745.525 1.635.799 2.545.58.998-.239 1.657-.977 1.995-1.917.117-.326.127-.667.206-1.001.028-.115.072-.223.101-.338.14-.551-.201.414.035-.103.2-.439.395-.881.57-1.33.225-.575.396-1.169.61-1.747.02-.055.088-.297.12-.314l-.094.222a48.059 48.059 0 0 0 .615-1.312 82.933 82.933 0 0 0 1.69-4.093c.217-.565.438-1.13.647-1.698.099-.266.19-.534.285-.801.057-.161.114-.322.174-.482.04-.106.081-.212.124-.317-.11.253-.13.303-.06.151.195-.368.358-.75.517-1.135.145-.35-.058.162-.075.177l.055-.118c.121-.211.067-.156-.162.164l-.287.215c-.369.13-.466.173-.293.127.283-.078-.646.051-.212.04.447-.01-.565-.13-.118-.012.125.033.248.063.371.1 2.394.722 4.846 1.238 7.237 1.981a46.27 46.27 0 0 1 1.742.572c.305.108.607.221.908.339.136.053.27.109.406.163a36.343 36.343 0 0 1 .256.111 31.828 31.828 0 0 1 3.266 1.653c1.23.725 2.406 1.633 3.91 1.613 1.201-.016 2.252-.831 2.601-1.971.236-.768.118-1.537-.025-2.308-.02-.107-.25-.791-.176-.888l.035.255a9.55 9.55 0 0 1-.053-.803c-.023-.691-.005-1.385-.003-2.076.004-1.357.001-2.715.007-4.072.006-1.293-.048-2.57-.414-3.817-.16-.548.167-.157-.071.728l-.511.873c-.406.282-.513.367-.322.254.045-.022-.65.263-.354.164.34-.115-.67.027-.285.038.163.005.323-.002.487.01.104.007.208.023.312.03-.766-.052-.387-.053-.197-.022.944.154 1.871.322 2.824.431.185.022.371.045.556.065.112.013.46.044-.063-.01.304.03.608.09.907.148.709.137 1.407.322 2.115.463a19.6 19.6 0 0 0 2.218.295c.151.013.398-.009.538.048l-.266-.039c.088.012.175.027.262.045.23.045.54.205-.099-.101.277.132.564.277.855.365 2.026.61 3.971-1.179 3.373-3.253-.27-.934-.978-1.709-1.647-2.384-.234-.236-.463-.47-.684-.72-.239-.267.123.092.09.12a27.53 27.53 0 0 1-.254-.369 14.317 14.317 0 0 1-.464-.764c-.626-1.09-1.214-2.166-2.042-3.124-.346-.4-.782-.771-1.059-1.225.317.52.043.052-.034-.053l-.195-.27a45.59 45.59 0 0 1-.617-.892c-.324-.48-.645-.962-.973-1.44-.333-.487-.573-1.022-.892-1.516-.411-.638-.902-1.254-1.37-1.85-.126-.161-.508-.473-.546-.65l.169.218a5.32 5.32 0 0 1-.174-.26 8.753 8.753 0 0 1-.239-.404c-.286-.507-.551-1.002-.907-1.466a7.825 7.825 0 0 1-.498-.73c-.193-.32.045.12.065.168-.134-.314-.243-.645-.405-.946-.097-.18-.22-.332-.346-.493-.552-.716.16.362-.095-.146.514 1.023-.28-.595-.135-.344a3.557 3.557 0 0 0-.411-.57c-.701-.794-1.835-.95-2.815-.703-.513.129-1 .376-1.475.603-.161.076-.326.148-.485.229.667-.34.422-.153.242-.116-.201.042-.401.11-.599.166-.588.171-1.17.36-1.764.511-.14.036-.282.07-.424.1-.497.108.008-.037.029.02-.016-.043-.686-.009-.79-.002-1.127.073-2.099.683-2.68 1.648-.333.552-.513 1.183-.715 1.791a8.91 8.91 0 0 1-.127.354c-.02-.009.24-.498.024-.076-.138.272-.272.543-.426.807-.319.547-.68 1.068-1.052 1.58-.707.973-1.427 1.932-2.116 2.918-.055.077-.118.153-.168.232.316-.5.093-.155-.01-.03-.238.29.192-.129.316-.18.13-.054.691-.062.287-.103-.4-.039-.825.02-1.211.107a5.97 5.97 0 0 0-.418.11c-.46.142.423 0-.028.002-.982.004-1.998.112-2.745.82-.254.24-.463.534-.653.828l-.066.108c-.122.183-.089.145.099-.114-.02-.003-.335.37-.356.393-.444.457-.96.82-1.44 1.236-.091.08-.27.293.066-.042-.111.11-.28.2-.414.282-.29.178-.595.34-.893.503-.08.044-.665.44-.763.392l.223-.09a5.258 5.258 0 0 1-.32.116c-.146.05-.295.093-.443.137-.679.2-1.37.35-2.055.528-.278.072-.562.135-.837.215-.518.15.46.032-.082.014-.099-.003-.197.003-.296-.001-.873-.038-1.642-.103-2.465.311-.644.326-1.071.838-1.492 1.402-.128.172-.249.347-.367.525-.066.1-.13.201-.199.3-.277.405.05-.092.069-.082-.011-.006-.605.601-.688.643.045-.022.417-.298.078-.07-.13.09-.259.182-.39.271-.215.148-.433.292-.645.446-.242.177-.481.36-.712.551-.35.29.373-.218-.048.037l-.132.09c-.221.12-.187.116.104-.016-.018-.009-.26.083-.309.096-.325.093-.652.173-.975.273-.612.19-1.216.39-1.834.556-.52.14.492.018-.052.002-.116-.003-.235.01-.351.008-.243-.003-.485-.032-.727-.027-.587.012-1.185.14-1.702.428-.032.018-.99.615-.95.814-.018-.093.443-.272.126-.11.557-.284.11-.07-.027-.02-.237.088-1.051.53-.457.195-.09.05-.222.086-.316.119a5.39 5.39 0 0 1-.477.141c-.037.01-.573.123-.184.05.382-.072-.153.003-.2.005-.21.006-.42 0-.63-.007-.618-.017-1.295-.014-1.902-.143.594.127-.002-.004-.11-.02-.12-.02-.241-.04-.362-.063a8.844 8.844 0 0 1-1.004-.254c-.615-.193-1.212-.437-1.814-.666-.273-.103-.546-.203-.816-.311-.097-.039-.659-.242-.1-.04-.166-.06-.326-.14-.487-.21-1.305-.565-2.637-1.033-3.96-1.548-.52-.202.335.153.011.007-.128-.058-.257-.113-.384-.17-.256-.118-.51-.24-.76-.366-.598-.301-1.168-.65-1.765-.952-.481-.244-.972-.471-1.444-.733a8.436 8.436 0 0 1-.682-.417c-.095-.066-.561-.37-.06-.032-.162-.11-.31-.249-.46-.373-1.075-.882-2.19-1.67-3.34-2.448a76.84 76.84 0 0 1-1.613-1.119 51.526 51.526 0 0 1-.723-.525c-.143-.106-.285-.215-.428-.321-.394-.295.33.268-.087-.068-2.091-1.686-4.075-3.521-6.374-4.932-.463-.284-.94-.541-1.398-.835-.347-.223-.719-.382-1.102-.533-.06-.024-.438-.116-.46-.166l.265.117a1.22 1.22 0 0 1-.2-.112c.004-.006.537.423.283.215-.209-.17-.425-.34-.64-.498a2.911 2.911 0 0 0-.425-.258c-1.051-.53-2.517-.5-3.316.496-.41.51-.697 1.003-.697 1.683 0 .584.26 1.282.697 1.684.865.794 2.535 1.037 3.367 0l-1.414.541c-.943-.331-1.247-.409-.913-.233.022.016.222.118.214.136-.003.008-.498-.4-.24-.184.123.103.253.2.38.298.225.174.397.293.651.409a10.336 10.336 0 0 0 1.03.405l-.266-.114c.034-.048 2.53 1.525 2.729 1.66.445.303.927.605 1.331.962-.052-.045-.403-.316-.069-.052l.272.214c.248.198.494.398.739.6.989.814 1.96 1.642 2.98 2.42a57.99 57.99 0 0 0 2.76 1.968c.443.299.887.593 1.333.887.215.142.432.283.641.435.12.087.457.271-.003-.01.14.087.268.216.396.32.929.756 1.841 1.495 2.913 2.039.934.473 1.852.978 2.788 1.445a29.191 29.191 0 0 0 3.361 1.407c.498.175.995.34 1.484.539.019.007.555.233.213.087-.342-.146.192.083.211.091.4.171.801.343 1.204.509 1.02.42 2.069.84 3.129 1.147 1.247.362 2.596.491 3.89.556 1.333.067 2.607-.057 3.844-.579l.273-.115c.241-.102.21-.09-.09.034.03-.038.264-.092.29-.102.366-.133.748-.272 1.069-.498.264-.187.538-.39.735-.652.342-.454-.907.376-.505.258.173-.043.088-.032-.253.034.074-.002.147 0 .221.003 1.281.037 2.413-.217 3.62-.614.484-.159.98-.274 1.462-.43.834-.272 1.431-.692 2.104-1.236.183-.148.188-.025-.082.057.066-.02.19-.137.256-.183.215-.15.433-.295.647-.447.537-.38 1.096-.776 1.546-1.262.355-.384.652-.815.939-1.252.046-.07.092-.142.14-.212l.073-.106c.138-.192.097-.142-.124.15.043-.026.138-.15.162-.181.235-.31-.415.255-.109.08-.024.014-.596.289-.705.202.042.034.285.001.352.005.211.011.421.039.633.048.697.03 1.405-.125 2.075-.305 1.105-.297 2.246-.513 3.309-.944a13.69 13.69 0 0 0 3.481-2.025c.942-.761 1.86-1.501 2.531-2.528.132-.2.333-.32-.07.05-.162.15-.735.544-.985.457.168.058.543-.025.714-.037a7.77 7.77 0 0 0 1.145-.156c.116-.025.24-.055.352-.093.165-.04.087-.029-.234.03.079 0 .157.002.236.006 1.66.034 2.698-.92 3.585-2.205 1.191-1.726 2.66-3.334 3.563-5.241a13.5 13.5 0 0 0 .642-1.614c.028-.087.056-.175.086-.262.02-.06.145-.496.033-.112-.133.454.054-.112.062-.08l-.21.263c.256-.249.076-.156-.54.279-.065.018-.565 0-.223.045.107.014.221.014.33.017.374.008.759-.062 1.126-.13a16.721 16.721 0 0 0 1.689-.432c.968-.285 1.874-.578 2.791-1.006.535-.249-.428.118.039-.016.082-.024.167-.048.247-.076.308-.105-.341.045-.341.045l-.458-.064c-1.078-1.387-1.505-1.772-1.281-1.157.047.243.169.493.297.708.053.09.115.172.176.257.03.041.222.37.257.386-.135-.063-.184-.447-.034-.079.1.245.199.5.31.736.083.18.174.349.286.512.322.472.659.902.93 1.409.223.416.443.827.72 1.21-.04-.056.798.883.785.974.012-.08-.239-.331-.047-.057.1.142.201.281.3.422.62.873 1.104 1.808 1.696 2.697.582.876 1.141 1.77 1.772 2.612.401.534.809 1.061 1.262 1.553.139.152.277.305.414.46.338.379-.226-.335-.047-.058.081.125.171.245.252.37.527.815.943 1.695 1.479 2.504.477.723 1.035 1.356 1.639 1.969.191.194.364.402.549.601.227.243-.221-.25-.195-.255.018-.003.108.156.122.178.019.03.071.16.098.17-.187-.07-.23-.807-.23-.886-.004-.997.68-1.697 1.514-2.006l.972-.015c.339.15.426.187.261.112-.329-.136-.64-.303-.989-.379-.728-.158-1.48-.198-2.221-.263-.092-.008-.261-.003-.356-.034.51.168.173.02.002-.01a21.994 21.994 0 0 1-.796-.162c-.587-.13-1.172-.273-1.764-.38a34.185 34.185 0 0 0-2.09-.288c-.309-.036-.618-.073-.927-.104-.534-.054.52.101.035.004-.766-.154-1.537-.297-2.315-.365-1.037-.09-2.154.125-2.91.889-.701.706-.884 1.685-.68 2.632.038.174.09.339.144.507.02.065.044.13.062.195.017.064.13.656.065.3-.07-.378.018.195.021.226.01.119.019.238.025.357.014.273.013.545.012.818-.003.617-.002 1.233-.001 1.85.001 1.2.007 2.399.002 3.598-.005 1.291.077 2.56.375 3.822.062.265-.085.212-.009-.134-.009.041.007.175.013.229.039.353.084-.395.135-.514.268-.623.933-1.129 1.62-1.124.61.005.381.082.206.012-.076-.031-.448-.241-.165-.048.308.211-.11-.072-.156-.097a9.65 9.65 0 0 1-.42-.25c-3.985-2.48-8.376-3.932-12.907-5.057-.955-.237-1.907-.45-2.844-.746-1.34-.422-2.84-.421-3.923.592a3.109 3.109 0 0 0-.628.834c-.11.211-.192.442-.283.661-.027.063-.18.482-.037.092.147-.401-.039.053-.061.098a18.36 18.36 0 0 0-.652 1.56c-.382 1.056-.753 2.115-1.151 3.164a89.193 89.193 0 0 1-.63 1.622c-.091.227-.185.453-.277.679-.224.549.125-.281-.023.056-.086.195-.17.392-.257.587-.503 1.131-.993 2.248-1.406 3.416-.073.204-.124.446-.236.631.293-.487-.001-.014-.052.097-.048.105-.098.209-.145.315-.248.553-.494 1.102-.593 1.702-.024.145-.057.288-.08.431-.037.224-.216.27.118-.243a1.84 1.84 0 0 1 1.054-.793c-.209.058 1.103-.144 1.248.137-.03-.058-.217-.135-.277-.176-.198-.138-.387-.286-.595-.408-2.002-1.181-4.19-2.028-6.23-3.148-2.068-1.137-4.063-2.391-6.103-3.576-1.522-.884-3.307-.807-4.347.764-.24.363-.413.742-.68 1.092-.331.435-.557.925-.823 1.401a28.591 28.591 0 0 1-1.813 2.808c-.318.438-.617.889-.922 1.335-.13.189-.259.377-.392.563-.052.073-.384.546-.062.099-.1.139-.217.269-.327.4-.736.874-1.525 1.69-2.333 2.496-.084.084-.174.165-.253.252-.273.302.004.021.09-.028.559-.318 1.63-.309 1.99.279-.028-.047-.138-.139-.17-.169-.295-.277.136.156.107.152-.064-.008-.2-.265-.242-.323-.186-.257-.363-.52-.532-.788-1.2-1.904-2.21-3.933-3.363-5.867a171.716 171.716 0 0 0-3.68-5.873c-1.153-1.768-2.462-3.427-3.544-5.239-.76-1.27-2.057-2.169-3.593-1.77-.58.152-1.106.486-1.581.841-.275.206-.53.454-.82.637.46-.29.148-.114.029-.029a5.2 5.2 0 0 1-.439.286c-.453.261-.95.437-1.406.692-.501.28-.97.617-1.452.927-.94.608-1.923 1.146-2.858 1.764-.886.587-1.773 1.173-2.655 1.764-.386.259-.75.548-1.126.822-.21.153-.424.304-.647.441-.153.094-.89.409-.274.174l1.722.226c.426.256.77.749.874 1.089-.076-.246.121-.14.035.314.022-.117-.015-.266-.015-.388 0-.32.024-.64.045-.959.061-.943.005-1.902-.01-2.845-.04-2.377.029-4.722.245-7.089.107-1.179.2-2.359.322-3.536.112-1.08.278-2.197.23-3.285-.04-.947.046-1.898-.448-2.76-.44-.767-1.294-1.173-2.158-1.164-.333.003-.663.101-.987.171-.131.029-.265.049-.397.076-.42.087.354-.034-.117.018-1.21.134-2.417.308-3.634.373-.602.033-1.203.038-1.804.077-.285.018-.57.038-.857.044-.14.004-.281.004-.422 0-.095-.002-.674-.071-.239-.002l1.287 1.287-.311 1.257.075-.096c.15-.162.283-.353.391-.545.114-.202.209-.415.309-.624.209-.44.447-.865.64-1.313.138-.323.271-.647.401-.973.104-.26-.117.21.019-.036.054-.099.098-.204.151-.303.268-.5.614-.972.834-1.495.09-.228.114-.282.073-.16-.027.076-.02.067.022-.03.059-.095.1-.21.146-.311.104-.223.206-.447.309-.67.202-.436.414-.866.636-1.291.196-.376.419-.731.63-1.098.081-.14.167-.28.24-.422.081-.117.093-.139.036-.066-.046.055-.044.054.007-.002.056-.056.053-.057-.007-.005a.599.599 0 0 1-.167.105c1.412-.33 1.135-2.654-.346-2.562Z"/><path fill="#0A0A0A" d="M17.5 78.32a.706.706 0 0 1 .026-.078l-.123.291a1.06 1.06 0 0 1 .101-.182l-.2.26c.18-.151.276-.39.419-.576l-.209.27c.246-.306.549-.555.823-.834.403-.409.739-.898 1.065-1.37a20.287 20.287 0 0 0 1.52-2.572c.962-1.95 1.636-4.028 2.453-6.04.79-1.946 1.592-3.888 2.328-5.854.371-.992.723-1.99 1.04-3 .308-.98.534-1.987.798-2.98.59-2.213 1.233-4.422 2.12-6.538l-.284.673c.213-.496.486-.961.696-1.46.124-.293.255-.577.312-.891.075-.423.121-.852.178-1.277l-.101.754c.039-.286.095-.56.204-.827l-.285.677c.331-.77.68-1.515.9-2.326.16-.588.3-1.18.536-1.744l-.286.678.055-.126a2.11 2.11 0 0 0 .337-1.054 2.148 2.148 0 0 0-.05-1.13 2.136 2.136 0 0 0-.508-.965 2.143 2.143 0 0 0-.796-.73c-.658-.348-1.455-.523-2.185-.286l-.678.285a2.85 2.85 0 0 0-1.017 1.018 13.793 13.793 0 0 0-.767 2.132c-.137.517-.272 1.033-.478 1.528l.286-.677c-.21.49-.474.963-.628 1.477-.134.452-.163.958-.224 1.414l.102-.753c-.046.338-.102.66-.233.977l.286-.678c-.27.63-.582 1.232-.827 1.874-.163.429-.314.862-.458 1.297a46.682 46.682 0 0 0-.809 2.763c-.486 1.851-.89 3.724-1.31 5.592-.86 3.821-2.204 7.509-3.207 11.292-.268 1.009-.523 2.021-.783 3.032a21.252 21.252 0 0 1-.983 2.93l.162-.383c-.24.565-.487 1.148-.843 1.651-.148.21-.304.415-.44.634-.066.109-.126.22-.179.337a4.92 4.92 0 0 0-.183.447c-.094.277-.056.492-.011.773l-.046-.34c-.008.205.02.417.074.615.136.488.633.903 1.155.88.536-.025 1.001-.357 1.156-.88Zm83.94.964a4.34 4.34 0 0 0 .071-.19c.044-.124.026-.083-.053.124l.128-.305c.063-.194.05-.462.044-.673a7.276 7.276 0 0 0-.585-2.577c-.469-1.151-1.083-2.232-1.568-3.378l.194.46c-.28-.666-.573-1.327-.854-1.994l.204.483c-.806-1.92-1.472-3.893-2.09-5.88-.312-.999-.626-1.998-.928-3-.302-1-.468-2.008-.613-3.04-.15-1.068-.3-2.136-.534-3.189-.22-.993-.653-1.913-.923-2.891-.29-1.049-.396-2.141-.68-3.193-.284-1.05-.575-2.097-.834-3.153a99.71 99.71 0 0 1-.798-3.571c-.125-.603-.24-1.207-.367-1.81-.12-.565-.283-1.121-.365-1.695l.096.71c-.087-.671.021-1.342-.024-2.014-.054-.792-.19-1.48-.494-2.2-.224-.532-.426-.848-.828-1.31a3.401 3.401 0 0 0-.956-.758c-.555-.293-1.158-.474-1.791-.457a2.718 2.718 0 0 0-1.865.787c-.19.186-.349.419-.501.629l-.22.521c-.091.29-.104.58-.04.871.059.433.244.969.601 1.254.069.055.129.115.185.183l-.385-.498c.342.444.441.64.934.932.222.131.473.207.712.304l-.606-.255c.115.051.21.123.316.19l-.525-.406c.106.09.205.179.292.288l-.412-.532c.144.191.25.412.345.632l-.27-.638c.116.282.189.577.232.878l-.096-.71c.077.588.001 1.175.01 1.764.012.861.206 1.71.403 2.545.307 1.3.529 2.62.814 3.924.292 1.331.597 2.664.986 3.97.197.664.413 1.32.574 1.994.158.66.274 1.334.453 1.99.163.599.41 1.17.636 1.747.243.62.424 1.25.572 1.9.148.653.268 1.312.383 1.971.11.637.19 1.288.338 1.918.3 1.27.89 2.474 1.373 3.681a120.76 120.76 0 0 0 1.692 4.04 49.39 49.39 0 0 0 1.918 3.898c.706 1.277 1.626 2.432 2.52 3.58l-.256-.331c.389.504.748 1.03 1.003 1.616l-.14-.33c.083.194.155.392.21.595.051.181.083.366.18.533l.2.257-.134-.154a2.437 2.437 0 0 0-.02-.037c.17.443.553.835 1.068.812.526-.023.88-.337 1.068-.813Z"/><path fill="#0A0A0A" d="M84.708 39.22c-2.822-.998-5.57-2.193-8.39-3.192-.706-.25-1.42-.47-2.123-.73-.702-.259-1.398-.534-2.103-.787A18.855 18.855 0 0 0 70 33.872c-.743-.173-1.492-.321-2.235-.496-1.677-.394-3.394-.507-5.11-.519-.736-.005-1.476-.062-2.21-.006-.906.07-1.857.193-2.723.489a28.24 28.24 0 0 0-2.533 1.015c-.828.376-1.537.86-2.25 1.424a8.835 8.835 0 0 0-1.402 1.423 29.414 29.414 0 0 0-1.559 2.132c-.837 1.26-1.607 2.562-2.414 3.841-.373.593-.752 1.173-1.065 1.801-.3.602-.57 1.218-.904 1.802a7.75 7.75 0 0 1-.553.84l.432-.56c-.622.798-1.335 1.526-1.876 2.387a4.473 4.473 0 0 0-.277.507c-.172.374-.369.767-.46 1.174-.192.85-.175 1.56-.02 2.41.031.177.079.346.143.513.145.375.292.78.53 1.114.464.654.953 1.16 1.648 1.579.33.199.701.332 1.055.479.174.072.35.135.529.19.33.099.667.172 1.003.251.848.199 1.681.455 2.531.645.647.145 1.303.237 1.961.313.421.05.847.076 1.27.03.628-.068 1.233-.152 1.825-.373a13.858 13.858 0 0 0 1.704-.763c.357-.192.704-.4 1.052-.607.34-.203.691-.392 1.018-.619.903-.626 1.678-1.354 2.432-2.146.588-.618 1.19-1.261 1.866-1.786l-.554.428c.157-.119.321-.221.502-.3l-.653.276c.135-.054.272-.092.416-.113l-.727.097c.467-.053.953.062 1.418.107.5.047.998-.007 1.498.06l-.706-.095c.622.09 1.228.264 1.844.383.296.057.592.107.89.149.48.067.996.167 1.487.181l-.649-.087c1.456.221 2.956.17 4.417.009a28.423 28.423 0 0 0 2.355-.351c.735-.145 1.517-.307 2.182-.666l-.424.179.067-.014c.42-.085.85-.456 1.06-.815.223-.38.317-.941.18-1.367-.14-.43-.406-.844-.816-1.06-.438-.232-.88-.28-1.367-.18l-.067.014.472-.063c-.417-.042-.92.029-1.318.093l.504-.067c-.367-.003-.738.04-1.105.05a21.8 21.8 0 0 1-3.459-.189l.606.082a23.458 23.458 0 0 1-2.932-.596 18.682 18.682 0 0 1-1.44-.457c-.49-.176-.982-.355-1.497-.442-.724-.123-1.458-.17-2.187-.258-.695-.083-1.372-.131-2.058.102-.827.282-1.412.675-2.069 1.25-.332.292-.656.596-.97.905-.727.713-1.392 1.49-2.197 2.12l.557-.431c-.478.367-1.007.652-1.525.957-.53.311-1.066.617-1.632.86l.66-.279a5.38 5.38 0 0 1-1.3.378l.735-.1c-.502.066-1.007.023-1.506-.043l.736.099c-.952-.134-1.876-.403-2.804-.646-.779-.205-1.596-.328-2.341-.64l.662.28a3.155 3.155 0 0 1-.621-.352l.56.433a2.36 2.36 0 0 1-.394-.386l.433.56a2.275 2.275 0 0 1-.285-.496l.279.661a2.7 2.7 0 0 1-.163-.63l.1.737a2.702 2.702 0 0 1 .004-.65l-.1.736c.031-.197.086-.382.161-.567l-.279.661c.187-.437.448-.83.738-1.205l-.433.56c.63-.805 1.345-1.545 1.879-2.422.42-.688.731-1.433 1.094-2.152.39-.774.884-1.49 1.34-2.227.48-.777.953-1.56 1.442-2.334.508-.805 1.027-1.608 1.607-2.364l-.43.557c.47-.606.986-1.177 1.593-1.649l-.557.43c.616-.47 1.306-.82 2.017-1.123l-.656.277c1.129-.475 2.294-.915 3.513-1.086l-.715.096c.512-.067 1.025-.07 1.54-.094.536-.025 1.071-.06 1.607-.083 1.082-.045 2.144.027 3.218.158l-.662-.09c1.325.201 2.669.177 3.995.354l-.594-.08c.947.131 1.88.337 2.815.54.948.205 1.902.364 2.855.545 1.902.362 3.75.924 5.609 1.462a91.97 91.97 0 0 0 3.136.86c.676.17 1.48-.218 1.642-.931.17-.748-.227-1.393-.932-1.642Z"/><path fill="#0A0A0A" d="M29.225 47.235c.273.017.545-.015.818-.016.132 0 .264.016.396.017.148 0 .296-.002.444 0 .296 0 .59-.004.885-.033.281-.029.564-.046.846-.056.58-.021 1.16-.013 1.739-.026a25.65 25.65 0 0 0 1.686-.089c.538-.046 1.079-.095 1.62-.075.288.01.574.049.862.07l.875.059c.594.038 1.19.095 1.786.107.584.012 1.174-.03 1.757-.054.648-.026 1.296-.053 1.944-.056.313-.001.636.03.948-.003a8.225 8.225 0 0 0 1.043-.157c.14-.033.28-.073.424-.093l-.708.095c.371-.045.75.01 1.123-.008.239-.011.48-.02.718.01l-.702-.095c.054.007.107.017.16.032.265.077.116.11.753.112.613 0 .812-.134 1.356-.368l-.622.262a.202.202 0 0 1 .036-.01l-.68.09a.128.128 0 0 1 .028 0l-.672-.09a.104.104 0 0 1 .02.005l-.596-.252a.098.098 0 0 1 .019.01l-.5-.386a.13.13 0 0 1 .016.016l-.382-.494a.189.189 0 0 1 .021.036l-.24-.571a.28.28 0 0 1 .018.063l-.083-.613a.983.983 0 0 1 .006.128c-.011.299.051.577.187.836.087.269.237.501.448.698l.44.339c.337.196.702.295 1.094.296.265.035.587-.023.818-.077a2.526 2.526 0 0 0 1.16-.665 2.625 2.625 0 0 0 .758-1.844c0-.245-.033-.494-.097-.729a2.622 2.622 0 0 0-.68-1.176c-.42-.423-.64-.473-1.182-.692l.63.266c-.228-.097-.458-.218-.696-.289a1.042 1.042 0 0 0-.089-.022 8.929 8.929 0 0 0-.89-.12 4.479 4.479 0 0 0-.43-.019c-.106 0-.213.003-.32.002-.29-.004-.576-.049-.866-.016-.385.043-.756.087-1.126.19a3.368 3.368 0 0 1-.42.094l.705-.094c-.226.029-.456.019-.684.025-.238.006-.477.015-.715.028-.467.023-.933.056-1.4.09-.466.033-.932.067-1.399.092-.48.026-.958.064-1.438.096-.47.031-.938.064-1.408.092-.654.04-1.31.09-1.947.251-.87.22-1.7.573-2.56.826-.5.147-1.004.28-1.5.439-.628.2-1.236.437-1.844.693l.36-.151c-.405.167-.83.268-1.241.413a4.3 4.3 0 0 0-.803.39c-.175.106-.347.218-.532.306l-.203.157a.75.75 0 0 0-.207.322.96.96 0 0 0-.05.651c.053.165.14.314.257.442.18.195.454.277.708.293Zm36.01 6.155a.444.444 0 0 1 .026-.086l-.136.322a.274.274 0 0 1 .021-.037l-.212.275a.185.185 0 0 1 .026-.026l-.275.212a.112.112 0 0 1 .02-.011l-.327.137a.16.16 0 0 1 .032-.01l-.364.05a.205.205 0 0 1 .048 0l-.366-.049a.34.34 0 0 1 .066.02l-.331-.14a.763.763 0 0 1 .147.092l-.286-.22c.256.2.46.47.66.726l-.245-.317c.211.277.4.571.576.872.18.305.367.602.565.896.196.292.403.576.6.868.285.423.582.85.933 1.221.385.408.87.711 1.314 1.05l-.425-.327c.366.283.688.624 1.019.946.342.333.695.655 1.027.999.314.323.553.713.878 1.026.448.431.961.74 1.5 1.035.433.236.843.512 1.234.814l-.5-.386c.295.229.592.454.887.681l-.501-.387c.635.492 1.219 1.043 1.844 1.546.476.383.963.752 1.467 1.097.338.231.682.455 1.02.686.378.257.747.525 1.109.804l-.52-.402c1.599 1.238 3.069 2.634 4.596 3.957.37.321.718.668 1.019 1.056l-.402-.52c.257.336.474.699.639 1.088l-.259-.612c.1.24.169.492.263.734a22.013 22.013 0 0 0 .767 1.745c.104.208.26.383.4.566.326.42.632.78 1.088 1.076l-.777-.778.022.032c.136.252.322.455.557.608.135.134.294.226.478.278l.283.12-.511-.217c.05.021.098.043.146.066.154.072.342.162.504.214.265.083.53.095.795.036.09-.004.18-.016.27-.037l-1.904-.503c.268.29.53.396.89.528l.067.025-.438-.185a.855.855 0 0 1 .1.053l.406.171c.226.07.452.08.678.03a.836.836 0 0 0 .428-.116c.21-.068.393-.185.547-.35.4-.416.673-.947.661-1.54l-.968 1.69c.47-.309.805-.724.942-1.277.101-.412.175-.89.01-1.297l.078.577c0-.11-.013-.218-.04-.325a1.518 1.518 0 0 0-.048-.327l-.028-.109-.047-.195c-.034-.145-.053-.291-.073-.438l.086.637c-.045-.335-.073-.656-.17-.975a12.204 12.204 0 0 1-.295-1.135 6.7 6.7 0 0 0-.706-1.834 5.034 5.034 0 0 0-.35-.546c-.245-.336-.5-.672-.778-.983-.311-.347-.661-.649-1.009-.958-.755-.67-1.497-1.357-2.255-2.026a33.174 33.174 0 0 0-2.882-2.274c-.962-.675-2-1.235-2.932-1.954l.508.393c-.747-.58-1.46-1.195-2.224-1.754a9.077 9.077 0 0 0-1.77-1.02c-.352-.151-.707-.295-1.017-.526l.475.367c-.327-.254-.58-.584-.883-.863-.454-.416-.957-.784-1.443-1.159l.452.35a20.256 20.256 0 0 0-1.023-.755c-.205-.144-.405-.296-.618-.428-.397-.247-.837-.417-1.212-.7l.407.314c-.42-.325-.756-.737-1.126-1.113-.364-.369-.697-.768-1.081-1.115-.693-.627-1.444-1.227-2.323-1.565a1.68 1.68 0 0 0-1.043-.048 1.502 1.502 0 0 0-.882.688c-.134.238-.227.553-.197.827a.999.999 0 0 0 .115.514c.054.165.146.309.276.43l.27.208c.153.098.319.15.496.158.285.039.603.002.851-.158.28-.18.547-.459.613-.797Zm2.898 20.03a.6.6 0 0 1 .136.038l-.272-.115c.05.022.094.05.138.082l-.242-.186c.07.055.131.12.186.19l-.2-.26c.106.138.197.285.315.414.05.054.095.11.14.168l-.215-.278c.227.294.44.604.643.915.118.18.233.364.352.545.196.297.41.577.63.856.16.202.343.382.5.584-.096-.125-.192-.25-.29-.375.266.343.525.694.81 1.023.286.333.656.584 1.001.85l-.407-.314c.231.179.435.372.635.586a13.768 13.768 0 0 0 1.331 1.267c.209.173.425.335.628.514.204.18.396.374.563.59l-.35-.452c.259.337.425.723.613 1.101.183.37.378.734.613 1.074.23.333.456.67.655 1.023.067.12.132.241.19.366.025.055.059.103.09.154.028.046.05.097.08.141l-.234-.554c.029.1.069.195.12.287.093.288.253.536.48.747l.014.016c.01.011.02.022.028.034l-.357-.462c.021.027.04.056.054.087l-.225-.533a.22.22 0 0 1 .015.051l-.08-.586c.023.206.013.418.083.617l.22-1.682-.004.004c-.16.251-.246.522-.259.812-.065.29-.052.58.04.871.067.284.197.532.39.743.154.237.358.425.613.562l.521.22a2.2 2.2 0 0 0 1.161 0l.522-.22c.328-.194.59-.455.783-.783l.004-.005-1.886 1.082c.1-.008.2-.022.298-.04.292-.013.564-.1.816-.26l.006-.005c.152-.11.3-.226.447-.345l.02-.019a6.62 6.62 0 0 0 .354-.457l.012-.016a3.191 3.191 0 0 0 .282-.685l.005-.025.083-.617a2.108 2.108 0 0 0-.086-.627l.083.617c0-.08-.07-.546-.083-.627l-.003-.022-.008-.043a3.235 3.235 0 0 0-.333-.848 5.663 5.663 0 0 0-.25-.405c-.274-.409-.581-.795-.883-1.183l-.196-.25.36.467a8.078 8.078 0 0 1-.528-.794c-.158-.265-.3-.54-.463-.802-.168-.27-.375-.52-.571-.766a3.397 3.397 0 0 0-.25-.28c-.309-.311-.672-.574-1.023-.833-.272-.201-.554-.388-.822-.594l.439.339a20.968 20.968 0 0 1-.63-.51c-.334-.28-.688-.537-1.037-.796a4.642 4.642 0 0 0-.63-.394c-.218-.114-.437-.225-.633-.376l.394.305a9.15 9.15 0 0 1-.393-.332 7.581 7.581 0 0 0-.758-.59c-.138-.093-.286-.17-.427-.26a5.69 5.69 0 0 1-.413-.292l.342.264c-.223-.173-.437-.356-.653-.537-.292-.245-.596-.473-.898-.706l.292.226c-.195-.151-.389-.307-.588-.454a2.225 2.225 0 0 0-.831-.392 2.888 2.888 0 0 0-.496-.065 3.019 3.019 0 0 0-.47.056 2.386 2.386 0 0 0-.414.168l-.22.17-.172.222-.11.26a.827.827 0 0 0-.02.436c.001.099.026.19.075.275a.545.545 0 0 0 .14.241.548.548 0 0 0 .197.196.818.818 0 0 0 .371.196ZM58.05 79.008a.645.645 0 0 1 .057.02l-.318-.135c.045.02.087.047.127.076l-.276-.213c.114.089.208.2.297.314l-.228-.294c.152.196.293.4.462.583.08.085.163.165.247.245.252.237.487.49.721.744.465.503.948.988 1.394 1.51.44.515.859 1.048 1.291 1.57.429.516.927.973 1.403 1.444a17.214 17.214 0 0 1 1.537 1.708l-.337-.436c.167.216.322.44.476.665.264.39.546.764.839 1.132.166.21.332.421.516.616.16.169.328.331.472.515l-.347-.448c.094.123.164.253.238.387.139.258.329.465.57.62.213.196.464.328.752.397l.588.079c.305.011.589-.052.852-.19.188-.053.35-.148.488-.285.241-.156.431-.363.57-.62l.223-.53a2.227 2.227 0 0 0 0-1.175 3.986 3.986 0 0 0-.336-.744c-.14-.225-.322-.44-.482-.64a5.186 5.186 0 0 0-.327-.362c-.26-.27-.496-.559-.728-.854-.129-.164-.266-.32-.398-.482-.122-.15-.242-.3-.368-.446a13.07 13.07 0 0 0-.812-.852 18.917 18.917 0 0 0-.86-.776c-.298-.253-.606-.494-.904-.747-.295-.251-.573-.521-.866-.775-.293-.254-.583-.512-.874-.768-.33-.29-.662-.577-1.003-.852-.45-.361-.918-.697-1.375-1.05l.335.259c-.345-.267-.686-.539-1.038-.797-.205-.15-.421-.284-.622-.44l.306.237c-.17-.132-.332-.277-.52-.383a3.199 3.199 0 0 0-.268-.138c-.179-.08-.37-.178-.566-.222-.371-.082-.543-.069-.909-.01l-.315.132a.997.997 0 0 0-.37.34.66.66 0 0 0-.17.29.994.994 0 0 0-.113.51l.047.35.133.315a.998.998 0 0 0 .34.37.994.994 0 0 0 .448.236Zm-9.2 2.84c-.11.386-.055.762.019 1.149l-.053-.397c.003.337.072.498.214.796l-.151-.36c.055.144.122.284.169.431.07.219.124.443.18.665.055.223.11.447.177.667.107.354.253.696.409 1.031l-.19-.448c.096.236.168.428.296.629.043.066.087.132.132.196.181.261.38.51.575.762.2.258.41.51.61.767l-.313-.403c.385.498.758 1.005 1.15 1.497.294.368.638.692.968 1.027a50.75 50.75 0 0 1 1.932 2.058c.341.388.673.785.99 1.192l-.341-.441c.164.213.318.435.423.684l-.22-.524c.021.054.041.11.059.166l-.079-.584c.024.256.056.514.104.767.014.073.032.145.055.216.077.239.186.469.287.698.014.032.03.064.045.095.052.1.1.14.192.26.098.165.23.297.396.395l.242.188-.447-.346a.83.83 0 0 1 .132.133l-.346-.447a.783.783 0 0 1 .073.116c.1.202.246.381.414.531l.442-3.424a.827.827 0 0 1-.118.063l.503-.212c-.183.074-.382.092-.568.156a1.773 1.773 0 0 0-1.239 2.183c.084.3.236.561.456.783.097.078.179.172.267.26.102.101.216.182.332.272.116.089.232.195.367.26.34.197.706.296 1.1.298.3.011.58-.052.84-.188.27-.088.504-.238.701-.45.27-.273.457-.594.561-.963a.533.533 0 0 0 .006-.038l.079-.585a1.34 1.34 0 0 0-.077-.61c-.075-.177-.15-.353-.223-.53a.882.882 0 0 0-.076-.127c-.118-.166-.261-.378-.421-.534-.166-.162-.36-.294-.548-.429l.792.792a2.053 2.053 0 0 1-.106-.212l.223.526a1.9 1.9 0 0 1-.123-.455l.079.585-.004-.027-.078-.584a10.965 10.965 0 0 0-.276-.666 2.222 2.222 0 0 0-.102-.2c-.164-.285-.384-.54-.584-.797a15.77 15.77 0 0 0-.609-.718c-.45-.508-.919-.998-1.398-1.477a81.75 81.75 0 0 0-1.453-1.408c-.483-.46-.952-.934-1.417-1.413-.498-.512-1.048-.983-1.489-1.548l.295.38a8.53 8.53 0 0 0-.405-.506 3.939 3.939 0 0 1-.12-.147l.286.37c-.245-.322-.446-.675-.656-1.02-.097-.158-.193-.32-.304-.469-.161-.215-.333-.419-.498-.63l.235.304a1.627 1.627 0 0 0-.565-.567l.302.234a1.705 1.705 0 0 1-.154-.166l.222.288a.62.62 0 0 1-.076-.122l.138.328a.275.275 0 0 1-.01-.026l-.137-.326a1.03 1.03 0 0 0-.352-.383.682.682 0 0 0-.3-.175 1.028 1.028 0 0 0-.526-.118l-.363.049-.326.137a1.03 1.03 0 0 0-.383.352c-.12.132-.202.286-.245.464Zm2.39 10.993a3.458 3.458 0 0 1-.132-.014l.318.043a2.55 2.55 0 0 1-.58-.154l.298.125a3.213 3.213 0 0 1-.465-.304l.274.212a6.128 6.128 0 0 1-.606-.552l.237.307a6.051 6.051 0 0 0-.263-.344 8.575 8.575 0 0 0-.346-.266l.31.24c-.328-.278-.642-.573-.975-.845a9.911 9.911 0 0 0-1.48-1.005c-.49-.274-.99-.536-1.474-.82a13.325 13.325 0 0 1-1.391-.96l.4.307c-1.725-1.336-3.378-2.762-5.102-4.099a78.925 78.925 0 0 0-3.153-2.295 92.22 92.22 0 0 0-2.857-1.933c-.953-.615-1.968-1.143-2.868-1.838l.537.415c-.29-.227-.55-.478-.814-.732-.403-.386-.859-.721-1.311-1.046-.576-.413-1.189-.773-1.75-1.206l.561.434a10.48 10.48 0 0 1-.616-.54c-.35-.322-.726-.61-1.107-.896a5.213 5.213 0 0 0-.7-.45c-.253-.132-.521-.23-.777-.358-.24-.12-.437-.29-.656-.443-.407-.284-.966-.466-1.404-.65a7.828 7.828 0 0 0-.857-.305c-.252-.071-.515-.104-.76-.197l.684.288a.88.88 0 0 1-.191-.11c.193.15.386.3.58.448-.109-.093-.19-.21-.289-.311a5.057 5.057 0 0 0-.724-.562l-.685-.289-.762-.102a41.62 41.62 0 0 0-.79.106c-.482.135-.9.38-1.256.733a2.135 2.135 0 0 0-.59.916c-.177.34-.26.705-.244 1.098.001.514.13.993.388 1.437l.017.022c.18.334.426.602.738.804.166.128.222.174.351.261l-.58-.448c.14.112.24.266.375.386.51.454 1.082.783 1.756.93.482.106.945.25 1.4.442l-.682-.288c.189.08.384.16.56.267.149.093.282.208.426.31.153.108.32.19.491.266.392.175.792.346 1.189.506l-.68-.287c.41.178.79.412 1.146.684l-.569-.44c.447.346.871.715 1.33 1.045.268.194.55.367.835.535.578.34 1.17.66 1.703 1.07l-.545-.42c.128.099.248.205.37.312.281.25.586.474.885.702.264.201.54.387.823.559.58.351 1.188.652 1.787.97.652.347 1.284.728 1.93 1.088.675.378 1.349.76 2.02 1.146 1.3.746 2.58 1.51 3.823 2.348 1.214.819 2.432 1.631 3.652 2.442.682.454 1.374.896 2.12 1.24.5.23 1.008.435 1.53.611.375.127.757.243 1.122.397l-.407-.172c.307.133.6.297.887.468.383.228.785.537 1.217.651l-.362-.153c.33.142.66.29 1.004.394.328.1.662.142 1.002.186l-.33-.044c.345.069.702.12 1.054.093.318-.025.606-.115.837-.347.205-.205.36-.541.346-.836-.014-.306-.114-.623-.346-.837-.242-.222-.509-.318-.837-.346Z"/><path fill="#0A0A0A" d="M86.882 75.663c.19.048.395.077.592.067.211-.01.426-.05.634-.079l-.38.051c.055-.007.11-.014.164-.018.19-.012.378-.04.568-.065l-.41.055c.23-.03.462-.034.693-.056a5.365 5.365 0 0 0 1.12-.203c.253-.08.496-.199.74-.306.106-.047.212-.097.317-.148.214-.103.424-.211.636-.317.236-.119.473-.234.716-.336l-.516.217c.328-.137.664-.25 1.002-.357l.5-.158c.324-.104.63-.247.941-.384.4-.177.818-.332 1.184-.577.22-.147.427-.316.631-.482a1.03 1.03 0 0 0 .117-.108l.017-.02a8.16 8.16 0 0 0 .404-.522c.014-.02.029-.039.04-.06.124-.217.24-.45.29-.694.103-.33.118-.66.044-.99a1.848 1.848 0 0 0-.295-.924l-.388-.503a2.482 2.482 0 0 0-1.097-.639l-.086-.018a1.885 1.885 0 0 0-.992-.044c-.331.015-.64.113-.925.295a1.88 1.88 0 0 0-.698.64c-.22.24-.368.523-.445.846l-.088.661c0 .45.114.868.34 1.256l.388.503c.31.308.676.521 1.097.64l.088.012-1.735-3.056a.34.34 0 0 1-.023.082l.25-.592a.572.572 0 0 1-.07.114l.388-.502a1.288 1.288 0 0 1-.217.208l.5-.386c-.456.351-1.012.526-1.482.85-.37.255-.745.502-1.103.775-.31.237-.622.471-.914.732-.157.14-.31.285-.462.431-.349.332-.703.66-1.08.959l.36-.278c-.265.204-.57.337-.86.5a2.44 2.44 0 0 0-.635.504c-.094.107-.184.218-.297.307l.258-.2a.837.837 0 0 1-.114.072l-.249.192-.192.249-.124.293a.93.93 0 0 0-.022.49c0 .11.029.214.084.31.03.104.082.194.158.27a.617.617 0 0 0 .22.221.925.925 0 0 0 .418.22ZM39.48 34.827a.466.466 0 0 1-.022-.087l.04.302a.409.409 0 0 1 0-.105l-.04.292a.415.415 0 0 1 .028-.102l-.108.254a.523.523 0 0 1 .045-.081l.104-.247.036-.274-.036-.274a.777.777 0 0 0-.185-.35.519.519 0 0 0-.185-.186.516.516 0 0 0-.227-.132.513.513 0 0 0-.26-.07.78.78 0 0 0-.439.027 6.874 6.874 0 0 0-.316.138.456.456 0 0 0-.041.027c-.067.05-.18.127-.255.2a7.31 7.31 0 0 0-.233.299.42.42 0 0 0-.029.058 12.09 12.09 0 0 0-.13.31 1.167 1.167 0 0 0 .3 1.136l.237.183c.182.106.378.159.59.16a.88.88 0 0 0 .45-.1.875.875 0 0 0 .375-.242 1.167 1.167 0 0 0 .3-1.136Zm2.381-4.2a.736.736 0 0 0 .146-.043c.09-.037.181-.072.269-.114a.562.562 0 0 0 .092-.056 5.094 5.094 0 0 0 .243-.19.561.561 0 0 0 .05-.053 5.326 5.326 0 0 0 .184-.24.686.686 0 0 0 .04-.07l.09-.214a.678.678 0 0 0 .016-.356.436.436 0 0 0-.061-.226.67.67 0 0 0-.185-.288l-.181-.14-.214-.09a.678.678 0 0 0-.357-.016.666.666 0 0 0-.333.106.827.827 0 0 1-.052.024l.218-.092a.61.61 0 0 1-.153.042l.256-.035a.574.574 0 0 1-.14 0l.268.036a.655.655 0 0 1-.156-.044l.254.107a.788.788 0 0 1-.037-.016 1.072 1.072 0 0 0-1.086 0c-.162.095-.29.224-.387.386a.8.8 0 0 0-.127.4.815.815 0 0 0 .019.43 1.074 1.074 0 0 0 1.324.752Zm3.135 4.352.18-.18a.592.592 0 0 0 .163-.253.594.594 0 0 0 .067-.304.593.593 0 0 0-.067-.304.59.59 0 0 0-.163-.253l-.16-.124a.785.785 0 0 0-.398-.107l-.21.028a.787.787 0 0 0-.348.203l-.179.179a.59.59 0 0 0-.163.253.594.594 0 0 0-.068.304.594.594 0 0 0 .068.304.59.59 0 0 0 .163.254l.16.123a.784.784 0 0 0 .398.108l.21-.029a.787.787 0 0 0 .347-.202ZM67.777 27.9l.06-.084.03-.04.015-.022a.265.265 0 0 0 .047-.108.663.663 0 0 0 .076-.34.884.884 0 0 0-.258-.621.478.478 0 0 0-.178-.138.876.876 0 0 0-.444-.12l-.234.032a.52.52 0 0 0-.235.107l-.04.028-.084.06a.914.914 0 0 0-.45.787l.032.241a.908.908 0 0 0 .234.402c.082.089.18.151.293.188a.685.685 0 0 0 .35.078.906.906 0 0 0 .786-.45Zm.109-3.681c.15-.001.3.01.45.026l.216.021c.076.007.153 0 .23-.005l.2-.027a.571.571 0 0 0 .259-.136.381.381 0 0 0 .136-.136.572.572 0 0 0 .135-.258.906.906 0 0 0 0-.403.572.572 0 0 0-.135-.257.572.572 0 0 0-.213-.196c-.338-.147-.681-.296-1.04-.387a.9.9 0 0 0-.476 0l-.213.09a.899.899 0 0 0-.321.321.666.666 0 0 0-.107.333.678.678 0 0 0 .016.357.674.674 0 0 0 .16.304.676.676 0 0 0 .252.23.89.89 0 0 0 .451.123Zm4.474 4.489a.939.939 0 0 0 .644-.266.925.925 0 0 0 .267-.643c-.01-.236-.088-.48-.267-.644a.946.946 0 0 0-.643-.266.939.939 0 0 0-.644.266.925.925 0 0 0-.266.643c.01.236.088.48.267.644a.946.946 0 0 0 .643.266ZM26.977 95.139c.05-.008.1-.02.147-.039a6.033 6.033 0 0 0 .278-.12.566.566 0 0 0 .06-.036c.069-.049.134-.102.2-.154a.615.615 0 0 0 .075-.071c.031-.036.06-.075.088-.112.028-.036.058-.072.084-.11a.713.713 0 0 0 .041-.067l.081-.192a.61.61 0 0 0 .015-.32.4.4 0 0 0-.055-.204.603.603 0 0 0-.167-.258l-.162-.126-.192-.081a.609.609 0 0 0-.32-.014.597.597 0 0 0-.3.095.83.83 0 0 1-.066.032l.197-.083a.614.614 0 0 1-.146.041l.231-.031a.57.57 0 0 1-.149 0l.243.032a.675.675 0 0 1-.167-.047l.23.097a.966.966 0 0 0-.995-.007.975.975 0 0 0-.347.35.721.721 0 0 0-.115.36.736.736 0 0 0 .017.387.969.969 0 0 0 1.194.678Zm3.735-4.135a.822.822 0 0 1 .108.04l-.262-.111c.072.03.14.067.203.114l-.207-.16c.04.032.076.066.107.106l-.152-.197a.483.483 0 0 1 .06.101l-.094-.222.006.015.093.221a.7.7 0 0 0 .238.26.463.463 0 0 0 .204.119c.11.058.23.084.357.08l.246-.034.22-.093a.7.7 0 0 0 .26-.238.696.696 0 0 0 .175-.353c.018-.093.029-.191.04-.286a.494.494 0 0 0-.002-.12c-.012-.098-.023-.198-.04-.296a.692.692 0 0 0-.021-.081c-.021-.067-.052-.132-.079-.195-.028-.068-.055-.137-.089-.201a1.19 1.19 0 0 0-.086-.14 1.143 1.143 0 0 0-.982-.563c-.206 0-.397.052-.574.155a.86.86 0 0 0-.32.293.857.857 0 0 0-.203.387 1.138 1.138 0 0 0 .794 1.4Zm1.735 5.768c.291 0 .598-.127.804-.333a.853.853 0 0 0 .235-.366.857.857 0 0 0 .098-.438c-.013-.294-.11-.6-.333-.804a1.182 1.182 0 0 0-.804-.333c-.292 0-.598.126-.805.333a.853.853 0 0 0-.235.366.857.857 0 0 0-.098.438c.014.294.11.6.333.804.223.204.497.333.805.333Zm16.375 6.39c.29.449.596.888.904 1.326.28.399.58.791.808 1.223l.148.28a6.162 6.162 0 0 0 .12.217c.017.027.058.135.029.031-.026-.091-.012-.028-.002-.005.03.068.056.139.087.207a2.053 2.053 0 0 0 .33.507.76.76 0 0 0 .087.083c.055.046.118.097.177.136.033.023.09.067-.031-.03-.19-.152.09.071.106.081.133.085.278.1.429.116a.877.877 0 0 0 .103.005c.299-.009.571-.127.83-.267.885-.479 1.65-1.156 2.358-1.861.687-.683 1.414-1.325 2.052-2.055.413-.473.8-.968 1.174-1.471.144-.192.319-.387.427-.603.117-.232.198-.482.299-.721l-.106.249c.018-.04.033-.079.058-.115l-.165.212a2.8 2.8 0 0 1 .044-.036l-.217.168a.558.558 0 0 1 .112-.07l-.27.114a.179.179 0 0 1 .032-.009l-.306.041a.142.142 0 0 1 .05 0l-.31-.042a.264.264 0 0 1 .054.013l-.285-.12c.172.083.296.132.477.156.078.011.155.019.233.029l-.324-.044c.366.059.732.097 1.1.146l-.345-.046c.262.036.522.084.785.116l-.356-.048c.955.133 1.842.475 2.745.793.942.331 1.893.64 2.814 1.027l-.35-.147c.487.211.927.509 1.399.748.599.305 1.24.511 1.858.77l-.35-.148c.29.124.564.275.863.384.486.176 1.06.109 1.509-.139.498-.276.822-.759 1.007-1.285.119-.34.115-.712.156-1.066l-.052.389c.082-.606.2-1.205.2-1.819.002-.54-.009-1.08-.01-1.62-.002-.541-.003-1.082-.009-1.623-.005-.501-.007-1 .057-1.498l-.052.382a3.93 3.93 0 0 1 .246-.995l-.145.342c.05-.113.11-.219.184-.318l-.224.29c.063-.079.132-.15.21-.213l-.29.224c.091-.07.19-.127.296-.172l-.342.144c.136-.055.277-.088.422-.108l-.38.051c.429-.051.871.016 1.296.072l-.37-.05c.618.084 1.237.172 1.856.255l-.343-.046c.76.103 1.519.224 2.284.289.769.064 1.531-.148 2.056-.74.323-.366.382-.879.076-1.275-.271-.351-.86-.535-1.252-.25a1.602 1.602 0 0 1-.3.174l.24-.102c-.1.04-.2.067-.306.082l.277-.037a1.48 1.48 0 0 1-.358-.006l.288.04c-.24-.039-.473-.124-.704-.198a26.211 26.211 0 0 0-.805-.24c-.493-.14-.987-.273-1.48-.409-.73-.2-1.443-.444-2.212-.432a3.257 3.257 0 0 0-1.516.376c-.114.06-.212.142-.314.221-.103.08-.208.156-.296.253a2.69 2.69 0 0 0-.478.694c-.14.312-.257.62-.328.955-.074.35-.119.71-.15 1.068-.047.52-.032 1.041-.033 1.562 0 .614-.005 1.229-.007 1.843-.002.602.021 1.204-.056 1.802l.052-.389c-.026.191-.062.381-.093.571-.048.291-.068.582-.107.873l.053-.389a1.31 1.31 0 0 1-.084.306l.148-.351a1.149 1.149 0 0 1-.125.203l.23-.297a.904.904 0 0 1-.11.11l.297-.23a.657.657 0 0 1-.083.05l.35-.148a.442.442 0 0 1-.112.032l.391-.053a.554.554 0 0 1-.115-.003l.39.053a1.102 1.102 0 0 1-.21-.066l.351.148c-.34-.151-.676-.311-1.024-.447-.306-.12-.615-.23-.918-.356l.35.148c-.613-.26-1.16-.647-1.772-.912a32.164 32.164 0 0 0-2.303-.873c-.66-.229-1.326-.42-2.005-.588a10.48 10.48 0 0 0-.992-.197c-.421-.06-.847-.124-1.273-.11-.325.011-.649.042-.973.058-.256.013-.519.058-.736.203a1.6 1.6 0 0 0-.475.47c-.147.227-.185.517-.197.78l.038-.28-.01.03.106-.25c-.11.254-.2.513-.307.768l.105-.249c-.093.216-.257.406-.393.596-.17.24-.346.477-.526.711l.161-.208c-.33.427-.676.842-1.045 1.237-.34.365-.71.702-1.06 1.058-.35.356-.71.706-1.045 1.073a9.11 9.11 0 0 1-1.1 1.034l.181-.14c-.176.136-.359.284-.564.374l.205-.087a.604.604 0 0 1-.132.036l.227-.031c-.108.008-.22-.001-.325.036l.223-.03-.026-.001.221.029c-.028-.004-.053-.011-.081-.017-.05-.018-.037-.012.039.018.076.034.089.038.036.011-.03-.021-.064-.04-.096-.06-.104-.066.091.08.03.023-.026-.023-.052-.044-.077-.068a1.914 1.914 0 0 1-.06-.058l.052.074c-.009-.071-.095-.17-.128-.235-.157-.306-.303-.609-.492-.897-.445-.677-.905-1.344-1.328-2.035-.199-.325-.66-.477-.996-.261-.32.206-.482.653-.261.996ZM86.143 88.97c.265.01.513-.046.742-.166.239-.078.445-.21.62-.398.188-.175.32-.382.398-.62.12-.23.176-.477.166-.742L88 86.532a1.924 1.924 0 0 0-.495-.85l-.39-.301a1.917 1.917 0 0 0-.972-.263 1.45 1.45 0 0 0-.742.166c-.239.077-.445.21-.62.398-.188.174-.32.381-.398.62a1.45 1.45 0 0 0-.166.742l.069.512c.091.326.257.61.495.85l.39.3c.3.175.624.263.972.264Zm5.37-4.578c.283 0 .582-.124.782-.325a.829.829 0 0 0 .23-.356.834.834 0 0 0 .095-.426c-.013-.287-.107-.584-.325-.783a1.15 1.15 0 0 0-.782-.324 1.14 1.14 0 0 0-.783.324.829.829 0 0 0-.23.356.833.833 0 0 0-.094.427c.012.286.106.583.324.782.216.2.483.325.783.325Zm1.074 5.907c.283 0 .581-.124.782-.325a.83.83 0 0 0 .23-.356.834.834 0 0 0 .094-.426c-.012-.287-.106-.584-.324-.783a1.15 1.15 0 0 0-.782-.325 1.14 1.14 0 0 0-.783.325.83.83 0 0 0-.23.356.833.833 0 0 0-.094.427c.012.286.106.583.324.782.216.2.483.325.782.325Z"/></svg>