<svg xmlns="http://www.w3.org/2000/svg" width="120" height="120" fill="none"><path fill="#0A0A0A" d="M25.67 61.938c.153.02.307.037.461.054l.178.02c.012 0 .293.04.105.01-.186-.029.08.013.093.016.054.009.108.019.16.03.135.027.263.07.395.104.22.058-.163-.1-.038-.02.047.03.098.053.146.083.229.143.016-.044-.027-.037.036-.005.151.132.175.154.23.214.452.439.669.667.429.452.85.893 1.308 1.315a27.253 27.253 0 0 0 1.822 1.522l-.42-.324c1.188.923 2.28 1.943 3.203 3.135l-.395-.51a45.3 45.3 0 0 0 1.437 1.806c.377.445.805.847 1.218 1.26.809.806 1.604 1.616 2.305 2.521l-.452-.584c.38.497.739 1.01 1.083 1.532.48.726.974 1.415 1.511 2.104l-.472-.611c.372.481.638.996.903 1.54.124.256.248.512.394.757.274.463.63.872.962 1.294l-.48-.622c.775 1.018 1.301 2.206 1.992 3.28A22.825 22.825 0 0 1 45.71 85.8l-.304-.722c.457 1.093.835 2.214 1.335 3.29.419.902.878 1.786 1.285 2.694l-.27-.642c.244.586.354 1.211.455 1.835.101.627.216 1.249.38 1.863.348 1.302.847 2.565 1.028 3.907l-.084-.622c.07.565.096 1.128.194 1.692.063.366.2.715.253 1.081l-.08-.6c.07.672.102 1.329.28 1.986.135.502.242 1.012.321 1.526l-.076-.571c.187 1.548.16 3.108.172 4.665.007.789.012 1.578.006 2.368-.006.9.19 1.758.329 2.641l-.076-.562c.095.733-.009 1.47.04 2.205.032.506.112 1.01.187 1.511.093.624.432 1.18.834 1.656l-.479-.822c.048.228.133.449.189.676.172.7.918 1.288 1.648 1.255.73-.033 1.476-.503 1.648-1.255.086-.376.17-.789.173-1.171l-.254.94c.166-.318.27-.636.34-.981.117-.562.008-1.059-.068-1.616l.075.56c-.093-.702-.077-1.383-.064-2.088.016-.853-.183-1.67-.304-2.507l.076.563c-.11-.839-.039-1.703-.038-2.547.002-.862 0-1.724 0-2.587a29.787 29.787 0 0 0-.508-5.44l.08.59c-.043-.348.006-.696-.02-1.045-.036-.503-.157-.985-.23-1.481l.083.61c-.062-.485-.026-.972-.064-1.458a17.402 17.402 0 0 0-.306-2.113c-.208-1.017-.48-2.018-.623-3.047l.09.67c-.132-1.248-.054-2.55-.438-3.759-.36-1.132-.83-2.228-1.149-3.374-.372-1.337-.637-2.666-1.226-3.935-.454-.978-1.048-1.866-1.621-2.775-.327-.52-.61-1.065-.916-1.597-.423-.74-.925-1.402-1.46-2.066l.48.621c-.42-.55-.657-1.194-1.01-1.783-.482-.805-1.149-1.447-1.725-2.176l.467.605c-.914-1.207-1.811-2.433-2.878-3.512-.465-.47-.963-.907-1.463-1.34-.68-.594-1.354-1.194-2.07-1.744l.547.423c-.905-.712-1.756-1.484-2.672-2.183a16.95 16.95 0 0 0-2.209-1.417c-.845-.458-1.701-.878-2.523-1.38-.42-.255-.83-.498-1.275-.708a19.519 19.519 0 0 0-1.554-.671c-1.08-.402-2.173-.17-3.273-.02-.505.069-.798.682-.738 1.13.074.547.494.826 1.012.893Z"/><path fill="#0A0A0A" d="M58.084 33.111a6.386 6.386 0 0 1-.306.45 1.461 1.461 0 0 0-.203.362 5.917 5.917 0 0 1-.05.117c.049-.115.053-.127.012-.038-.174.325-.333.653-.525.968-.37.608-.794 1.173-1.084 1.827-.692 1.563-1.035 3.201-1.175 4.904l.096-.71c-.192 1.347-.1 2.66.212 3.989.267 1.132.736 2.199 1.242 3.242.205.422.42.84.634 1.257.204.396.382.822.631 1.192.429.638.935 1.23 1.244 1.94l-.363-.861c.093.23.159.461.197.706l-.13-.961c.028.233.028.459.002.692l.13-.964c-.092.63-.3 1.264-.54 1.852l.36-.851a8.05 8.05 0 0 1-.978 1.709l.54-.699c-.381.487-.845.87-1.332 1.245l.69-.533c-1.786 1.37-3.82 2.623-4.91 4.677-.319.598-.62 1.273-.739 1.95-.143.814-.162 1.57-.189 2.384-.02.613-.058 1.226-.02 1.839.032.53.092 1.066.204 1.585.106.497.343.978.554 1.434.465 1.004 1.318 1.77 1.756 2.79l-.337-.797c.32.81.36 1.733.55 2.58.207.927.623 1.79.756 2.734l-.118-.88c.082.676.072 1.355.062 2.035-.01.674-.003 1.342-.087 2.012l.117-.874c-.19 1.375-.672 2.665-1.128 3.968-.493 1.408-.7 2.86-.916 4.331-.244 1.656-.654 3.31-.658 4.99-.002.723-.052 1.44-.114 2.16-.03.352-.085.713-.086 1.066-.002.402.051.813.099 1.212.099.829.206 1.657.31 2.485.074.59.108 1.199.262 1.774.108.406.233.807.307 1.221l-.078-.577c0 .837-.085 1.644-.003 2.481.044.456.07 1.37.462 1.715-.091-.247-.117-.307-.076-.182.023.082.023.063 0-.058-.032-.269-.015.065-.015.101 0 .257.034.511.08.765.087.487.602.849 1.056.91a1.272 1.272 0 0 0 1.267-.607c.137-.237-.162.162.061-.099l.1-.115c.243-.335.305-.41.183-.224-.071.103-.067.105.012.008a8.77 8.77 0 0 0 .316-.414c.054-.085.103-.174.148-.264.356-.716.284-1.541.38-2.317l-.071.537c.042-.283.118-.551.186-.828.067-.274.097-.561.171-.832.142-.521.398-1.006.493-1.54.24-1.344.342-2.722.52-4.076l-.11.81c.166-1.163.34-2.316.45-3.486.087-.934.061-1.876.179-2.807l-.115.854c.117-.852.312-1.691.454-2.54.147-.874.275-1.752.45-2.622.339-1.69 1.108-3.24 1.534-4.906a14.49 14.49 0 0 0 .439-3.051c.029-.834.065-1.682.02-2.515a11.503 11.503 0 0 0-.27-2.001c-.1-.424-.275-.823-.398-1.24-.24-.808-.367-1.642-.507-2.472a7.037 7.037 0 0 0-1.118-2.77c-.416-.616-.894-1.193-1.202-1.875l.338.801a3.24 3.24 0 0 1-.215-.732l.12.893c-.086-.647-.064-1.296-.034-1.946.028-.58.004-1.174.077-1.75l-.121.897c.048-.322.132-.63.253-.932l-.34.808c.157-.37.363-.708.607-1.027l-.53.686c.463-.585 1.025-1.073 1.612-1.528l-.688.531c.951-.731 1.941-1.407 2.874-2.165a10.716 10.716 0 0 0 2.693-3.253c.911-1.718 1.445-3.715.785-5.625-.255-.735-.58-1.403-1.037-2.025-.47-.64-.938-1.326-1.457-1.922l.556.72c-.44-.572-.88-1.143-1.322-1.714l.538.696c-.688-.891-1.287-1.877-2.016-2.73l.5.647a10.906 10.906 0 0 1-1.07-1.868l.291.692a8.147 8.147 0 0 1-.43-1.319l.096.718c-.049-.396-.12-.786-.176-1.18l.095.703c-.136-1.082-.197-2.181-.06-3.266l-.08.596c.113-.79.396-1.502.637-2.256a9.88 9.88 0 0 0 .31-1.198c.088-.469.11-.842.03-1.314a5.564 5.564 0 0 0-.13-.561c-.349-1.235-2.022-1.42-2.683-.35Z"/><path fill="#FF8131" d="M12.665 77.61c.1-1.19.232-2.378.325-3.57l-.064.475c.248-1.81.059-3.686-.199-5.485a37.59 37.59 0 0 0-.944-4.49c-.816-3.012-1.682-6.012-2.489-9.028-.456-1.703-.933-3.397-1.168-5.148l.093.691c-.197-1.491-.273-2.994-.33-4.496-.029-.75-.053-1.5-.086-2.25-.026-.59-.103-1.194-.062-1.782l-.102.758c.072-.321.158-.639.284-.943l-.311.737.02-.047-.484.628c.374-.296.513-.635.682-1.036.1-.237.137-.293.181-.475l-3.854 2.188c1.27.366 2.487.876 3.71 1.369 1.243.501 2.5.93 3.788 1.304 2.619.762 5.274 1.394 7.919 2.057a129.89 129.89 0 0 1 7.875 2.228c2.59.825 5.189 1.632 7.82 2.316 1.324.344 2.657.633 3.994.916 1.277.27 2.505.713 3.747 1.107.317.101.635.198.955.29l.866-6.394c-1.537-.087-3.045.33-4.376 1.084-.46.26-.881.577-1.326.861-.47.3-.967.553-1.48.772l.775-.327c-2.08.873-4.337 1.155-6.522 1.656-.596.137-1.186.302-1.782.442-.642.151-1.288.28-1.935.41-1.295.26-2.595.498-3.883.795-.528.122-1.059.248-1.578.407-.305.094-.594.217-.89.342-.285.12-.574.23-.838.395-.368.23-.715.505-1.037.795-.152.136-.29.287-.418.446-.5.62-.93 1.263-1.374 1.921-.692 1.026-1.413 2.033-2.068 3.084-.663 1.063-1.195 2.176-1.7 3.321-.508 1.156-1.023 2.311-1.637 3.416-.304.546-.67 1.036-1.032 1.543-.478.668-.786 1.423-1.013 2.21a7.748 7.748 0 0 1-.305.868l.285-.675c-.244.572-.488 1.19-.843 1.704-.142.205-.3.4-.425.616a4.07 4.07 0 0 0-.556 1.994c-.018.685.316 1.442.795 1.922.472.47 1.245.826 1.922.795.702-.031 1.431-.262 1.92-.795.496-.54.777-1.18.797-1.922 0-.035.002-.071.006-.107l-.097.722c.023-.087.046-.171.081-.255l-.275.652c.073-.155.168-.293.273-.428l-.43.555c.31-.39.65-.76.921-1.18.192-.297.36-.611.53-.921.17-.313.334-.63.475-.956.227-.524.41-1.06.63-1.584-.096.23-.193.458-.29.687.124-.281.287-.528.474-.77l-.454.588c.43-.548.885-1.072 1.306-1.627.299-.393.562-.814.813-1.238.496-.838.896-1.736 1.307-2.618.41-.88.82-1.758 1.318-2.592.494-.826 1.045-1.616 1.605-2.398.308-.43.619-.859.925-1.29.298-.417.576-.85.888-1.258l-.49.634c.206-.264.43-.51.694-.718L23.88 62c.21-.16.437-.289.68-.393l-.753.318c.472-.195.976-.307 1.472-.42a48.648 48.648 0 0 1 2.258-.451c1.538-.276 3.08-.522 4.6-.887.663-.16 1.321-.333 1.99-.474.653-.138 1.31-.262 1.965-.393 1.292-.26 2.587-.546 3.816-1.03.907-.356 1.816-.737 2.632-1.276.585-.387 1.153-.791 1.801-1.068l-.776.328c.362-.15.736-.253 1.125-.306l-.864.117c.334-.04.668-.045 1.004-.025.448.017.866-.076 1.254-.28a2.44 2.44 0 0 0 1.047-.673l.51-.659c.237-.373.366-.777.385-1.21a1.64 1.64 0 0 0 0-.865 2.422 2.422 0 0 0-.386-1.21c-.463-.719-1.11-1.255-1.945-1.496-1.262-.364-2.492-.834-3.759-1.184-.644-.177-1.299-.302-1.951-.444a65.556 65.556 0 0 1-2.016-.472c-2.625-.658-5.202-1.478-7.79-2.269-1.309-.4-2.616-.81-3.935-1.178a117.693 117.693 0 0 0-3.945-1.017c-2.664-.645-5.342-1.238-7.992-1.943-1.303-.347-2.602-.709-3.867-1.179-1.221-.453-2.42-.967-3.659-1.375a20.15 20.15 0 0 0-.959-.29 2.374 2.374 0 0 0-1.25-.056 2.332 2.332 0 0 0-1.164.371c-.675.435-1.247 1.072-1.44 1.873-.073.3-.147.673-.135.934.025.576.16 1.106.447 1.615l-.423-1.564c.032.61.128 1.225.277 1.817l-.102-.758c.195 1.792.333 3.593.53 5.386.234 2.148.525 4.312 1.185 6.377 1.23 3.846 2.583 7.65 3.86 11.48.694 2.086 1.372 4.174 1.671 6.36l-.068-.503c.128.959.128 1.933.272 2.888l-.064-.475c.104 1.19.17 2.381.267 3.57.032.401.144.762.436 1.054.258.258.682.453 1.053.436.386-.017.785-.143 1.054-.436.28-.305.402-.64.437-1.054ZM40.164 33.3c-.017-2.201 2.332-4.455 3.314-6.404 1.802-3.58 3.79-7.078 6.221-10.264 1.812-2.374 2.894-5.189 4.545-7.66a49.804 49.804 0 0 1 2.061-2.901c.64-.823 1.764-1.472 2.089-2.47.518 1.205 1.097 2.521 1.96 3.528.992 1.157 1.643 2.57 2.67 3.695a161.424 161.424 0 0 1 3.234 3.622c1.148 1.337 2.065 2.902 3.137 4.309 1.617 2.123 4.111 4.015 4.727 6.678.358 1.55.843 2.646 2.07 3.747 1.07.96 1.672 1.21 1.715 2.73-1.198-.908-3.597-.926-5.017-1.074-2.02-.21-3.897-1.77-5.819-2.414-.981-.329-1.81-.512-2.692-1.076-.716-.458-1.463-.91-2.267-1.21-.779-.29-1.503-.288-2.313-.36-1.248-.109-1.842.553-2.768 1.416-1.248 1.163-2.313 2.395-3.822 3.224-1.24.681-2.765.919-4.09 1.434-1.511.587-3.07.959-4.572 1.48-.545.19-.566.46-1.047.811-.371.272-.776.294-1.164.493-.804.414-1.596 1.574-2.525 1.525l-.061-.374"/><path fill="#FF8131" d="M41.559 33.684c.047-.217.117-.427.203-.633l-.16.38a4.64 4.64 0 0 1 .131-.276l-.26.336c.273-.254.374-.551.504-.88l-.17.405c.214-.44.488-.846.786-1.233l-.299.385c.12-.152.242-.302.367-.45l-.404.312c.148-.108.317-.223.452-.347.225-.207.233-.291.347-.459a27.49 27.49 0 0 1 .466-.64c.208-.275.42-.548.63-.822.393-.51.787-1.025 1.12-1.578.398-.66.765-1.34 1.157-2.004.399-.676.807-1.347 1.225-2.011a67.92 67.92 0 0 1 1.49-2.264l-.396.513c.531-.677.992-1.406 1.49-2.108a50.51 50.51 0 0 1 1.195-1.612l-.413.534c.601-.777 1.231-1.533 1.79-2.343a31.15 31.15 0 0 0 1.22-1.944c.767-1.31 1.482-2.654 2.319-3.922a44.632 44.632 0 0 1 1.599-2.237l-.462.598c.185-.235.373-.472.55-.714l-.463.598c.292-.373.585-.749.896-1.107.245-.282.53-.526.814-.77.28-.241.564-.483.813-.759.284-.315.549-.653.782-1.007.24-.363.39-.788.542-1.19h-6.053c.353.904.712 1.81 1.137 2.683.154.316.32.626.504.925.328.533.727 1.015 1.112 1.507l-.513-.664c.22.321.476.619.715.927l-.514-.665c.368.482.696.992 1.026 1.502.465.72.962 1.403 1.495 2.076.41.517.874.992 1.316 1.481.45.5.899 1.001 1.343 1.506.495.562.992 1.123 1.45 1.714l-.517-.67c.825 1.072 1.542 2.222 2.338 3.314.837 1.149 1.758 2.199 2.708 3.251.43.477.855.96 1.25 1.468-.175-.224-.348-.45-.522-.674.474.616.9 1.27 1.208 1.986l-.337-.797c.2.472.31.958.44 1.451.195.742.484 1.452.807 2.148.314.678.772 1.25 1.237 1.834.32.402.693.75 1.086 1.081.336.284.691.556.963.905l-.522-.675c.102.135.186.279.254.434l-.336-.796c.087.211.139.43.172.657l-.12-.884c.02.15.032.3.038.45 1.666-.955 3.332-1.91 4.998-2.867a3.077 3.077 0 0 0-.542-.314c-.447-.203-.907-.41-1.38-.552-.718-.215-1.468-.292-2.207-.39-.911-.12-1.833-.129-2.744-.245l.87.117c-.591-.083-1.158-.268-1.708-.497l.778.329c-.983-.416-1.902-.96-2.869-1.41a17.561 17.561 0 0 0-2.177-.862c-.504-.156-1.015-.297-1.502-.501l.764.322c-.859-.364-1.605-.943-2.446-1.346-.64-.308-1.31-.623-2.007-.777-.695-.154-1.413-.219-2.123-.266-.224-.015-.449-.04-.673-.045-.454-.009-.92.07-1.36.154-.157.03-.306.08-.453.139-.398.16-.822.312-1.183.554-.857.576-1.599 1.303-2.332 2.024-.707.695-1.401 1.407-2.186 2.017l.63-.487c-.623.479-1.283.896-2.01 1.202l.73-.307c-.543.224-1.101.406-1.659.59a30.03 30.03 0 0 0-2.29.884l.7-.295c-1.035.433-2.1.789-3.167 1.131-.706.227-1.469.441-2.12.797-.34.185-.655.441-.922.724a4.069 4.069 0 0 1-.462.442l.563-.435a1.93 1.93 0 0 1-.339.193l.663-.28c-.642.266-1.323.438-1.884.866-.53.404-1.017.855-1.543 1.263l.554-.428c-.176.133-.36.254-.563.344l.653-.275a1.558 1.558 0 0 1-.363.102l.724-.097a1.48 1.48 0 0 1-.187.009l2.625 1.998c-.022-.124-.046-.248-.066-.373a2.047 2.047 0 0 0-.486-.924 2.054 2.054 0 0 0-.763-.7 2.023 2.023 0 0 0-1.01-.322 2.058 2.058 0 0 0-1.083.049c-.658.212-1.292.62-1.624 1.248l-.274.65c-.13.48-.13.962 0 1.444.02.125.037.25.056.376l.275.65c.17.317.404.572.7.764.17.168.37.285.601.35.325.17.674.248 1.05.234.83.037 1.733-.27 2.414-.736.55-.377 1.043-.826 1.569-1.233l-.558.43c.192-.146.39-.278.612-.374l-.66.278c.563-.224 1.173-.339 1.687-.684.323-.217.642-.459.92-.733.102-.101.197-.207.308-.298l-.566.437c.096-.073.195-.128.304-.176l-.668.282c1.026-.4 2.126-.63 3.186-.924 1.025-.283 2.023-.644 3.055-.904 1.219-.307 2.415-.658 3.53-1.255.639-.341 1.203-.802 1.77-1.248.387-.307.755-.638 1.115-.976.778-.733 1.518-1.53 2.36-2.189l-.637.492a3.17 3.17 0 0 1 .68-.408l-.753.318c.172-.07.348-.117.532-.145l-.84.113c.295-.039.58-.013.875.011.33.027.66.05.987.093l-.842-.114c.464.065.902.184 1.334.365l-.759-.32c.534.23 1.04.515 1.533.822.235.146.463.303.701.441.463.269.966.46 1.458.666l-.764-.323c.615.267 1.223.51 1.858.716.396.128.79.256 1.175.416l-.77-.324c1.055.45 2.027 1.065 3.06 1.559.735.35 1.498.697 2.289.903.724.189 1.48.248 2.224.314.55.05 1.1.096 1.647.17l-.876-.119c.69.095 1.383.225 2.027.495l-.791-.334c.245.105.48.232.692.394.518.3 1.077.451 1.677.453a3.307 3.307 0 0 0 1.676-.453c.991-.58 1.673-1.706 1.645-2.868a10.318 10.318 0 0 0-.173-1.509 2.606 2.606 0 0 0-.143-.505c-.15-.384-.306-.83-.551-1.185a7.843 7.843 0 0 0-.799-1.002c-.602-.617-1.307-1.11-1.843-1.796l.524.678a5.97 5.97 0 0 1-.748-1.284l.337.8c-.25-.598-.38-1.219-.559-1.838-.162-.564-.408-1.11-.649-1.641a7.726 7.726 0 0 0-.45-.846c-.478-.78-1.058-1.505-1.646-2.203-.422-.5-.866-.98-1.308-1.462a26.765 26.765 0 0 1-1.442-1.668l.52.672c-.851-1.105-1.59-2.29-2.428-3.405-1.043-1.386-2.191-2.674-3.357-3.956-.546-.602-1.126-1.183-1.625-1.825l.515.667c-.457-.595-.851-1.233-1.267-1.857-.202-.303-.41-.601-.631-.89-.272-.355-.535-.713-.834-1.044a8.051 8.051 0 0 1-.372-.442l.509.659c-.706-.92-1.213-1.968-1.705-3.013l-.49-.635-.636-.49-.75-.317a2.377 2.377 0 0 0-1.25-.056c-.284 0-.548.072-.793.214-.265.075-.496.21-.692.404-.236.14-.423.327-.563.563a2.364 2.364 0 0 0-.562 1.067c-.015.05-.031.1-.05.149l.317-.749c-.128.296-.27.588-.376.893l.316-.747a3.17 3.17 0 0 1-.365.584l.484-.628c-.265.336-.573.634-.873.938a12.374 12.374 0 0 0-1.283 1.58 63.34 63.34 0 0 0-1.797 2.722c-1.093 1.738-1.913 3.625-2.89 5.426-.987 1.822-2.27 3.45-3.36 5.21-1.125 1.813-2.089 3.724-2.999 5.653-.464.984-.866 2.008-1.414 2.949-.248.424-.513.838-.775 1.253-.14.223-.28.445-.417.67-.206.338-.485.723-.556 1.11l.2-.477c-.22.508-.444 1.02-.609 1.549-.18.578-.383 1.33-.219 1.907l-.06-.44c-.02.456.032.921.129 1.366.129.594.789 1.09 1.394 1.062.614-.028 1.255-.425 1.395-1.062Z"/><path fill="#0A0A0A" d="M38.396 40.61a80.346 80.346 0 0 1 2.394-.729c.795-.23 1.622-.34 2.436-.492 1.627-.303 3.253-.64 4.837-1.126 1.064-.326 2.028-.896 3.046-1.334l-.629.265a8.702 8.702 0 0 1 1.44-.448c.492-.113.976-.263 1.447-.444.677-.261 1.342-.56 1.997-.871.466-.222.923-.469 1.398-.671l-.68.286c.486-.199.992-.326 1.497-.463.53-.145 1.053-.282 1.597-.36l-.762.103a4.663 4.663 0 0 1 1.192.005l-.756-.101c.685.097 1.349.298 2.031.405.906.14 1.818.228 2.727.35l-.71-.096c.477.065.953.135 1.43.211.471.076.956.137 1.42.255.457.117.911.242 1.374.337.455.093.912.177 1.357.313.435.134.861.297 1.293.443.448.152.905.269 1.36.4.9.259 1.785.561 2.681.831a7.69 7.69 0 0 0 2.01.326c.506.014 1.028-.05 1.53.012-.215-.03-.43-.058-.646-.087.525.089.993.275 1.545.266a2.4 2.4 0 0 0 1.91-.959c.215-.235.36-.51.435-.827a2.45 2.45 0 0 0 0-1.293l-.016-.048c-.128-.387-.329-.773-.62-1.064l-.488-.377a1.793 1.793 0 0 0-.896-.286 1.214 1.214 0 0 0-.64 0 1.2 1.2 0 0 0-.61.164c-.462.196-.91.53-1.152.987l-.023.043 2.1-1.205a1.368 1.368 0 0 1-.186-.01c.215.03.43.059.646.087-.219-.037-.428-.114-.646-.157a6.257 6.257 0 0 0-1.327-.113c-.482.007-.967.024-1.447-.036.215.03.43.058.646.087-.756-.107-1.498-.406-2.221-.644-.745-.245-1.5-.451-2.246-.69-.734-.236-1.442-.55-2.192-.734-.765-.188-1.534-.34-2.291-.559-.757-.22-1.502-.488-2.26-.71-.768-.224-1.54-.442-2.324-.598-.763-.152-1.496-.424-2.266-.539-.614-.091-1.214-.184-1.832-.114-.611.07-1.194.168-1.782.337-.99.284-1.964.57-2.89 1.036-.774.388-1.537.799-2.334 1.14l.673-.284c-.388.162-.788.284-1.184.424a13.26 13.26 0 0 0-1.727.764c-.731.384-1.364.92-2.037 1.392a45.69 45.69 0 0 1-4.262 2.639c-.82.45-1.648.883-2.475 1.32l.31-.13c-.149.061-.297.123-.445.188l.308-.13c-.986.397-1.97.8-2.943 1.23-.234.104-.468.44-.523.681-.058.255-.045.5.057.742.211.5.8.836 1.344.66Zm17.472-23.655c.767-.226 1.539-.453 2.333-.561l-.222.03a5.99 5.99 0 0 1 .613-.055.937.937 0 0 0 .62-.257.875.875 0 0 0 .225-.386.663.663 0 0 0 .016-.35.653.653 0 0 0-.104-.326.662.662 0 0 0-.226-.246.66.66 0 0 0-.298-.156.884.884 0 0 0-.466 0c-.5.077-.982.244-1.451.429-.524.206-1.036.44-1.546.676-.136.063-.27.25-.302.393a.68.68 0 0 0 .033.428.656.656 0 0 0 .775.38Zm-.592 5.903c1.684-.503 3.349-1.084 5.07-1.455.12-.026.237-.05.354-.088a18.6 18.6 0 0 1 .7-.216c.198-.057.38-.152.567-.238l.19-.147a.707.707 0 0 0 .195-.303.47.47 0 0 0 .065-.238.715.715 0 0 0-.017-.376 1.123 1.123 0 0 0-.242-.415c-.169-.183-.428-.263-.667-.276a18.628 18.628 0 0 0-.166-.01c-.14-.006-.268.019-.408.038-.112.016-.225.032-.337.05-.216.034-.443.059-.651.127-.424.138-.843.29-1.259.451-.885.343-1.756.724-2.625 1.105-.453.198-.905.396-1.36.59-.157.066-.316.297-.352.458a.793.793 0 0 0 .038.499c.145.342.536.554.905.444Zm5.18 3.34a.791.791 0 0 0 .542-.224.78.78 0 0 0 .225-.543c-.009-.198-.074-.404-.225-.542a.797.797 0 0 0-.542-.224.791.791 0 0 0-.542.224.78.78 0 0 0-.225.542c.009.199.074.404.225.543.15.137.334.224.542.224Z"/><path fill="#FF8131" d="M55.333 116.4c.07-1.463.087-2.93.281-4.384-.02.158-.042.315-.063.473.184-1.321.65-2.604 1.06-3.867.43-1.322.88-2.635 1.418-3.916l-.234.553.54-1.274-.238.563c.653-1.54 1.443-3.023 2.46-4.356l-.4.517c.675-.873 1.394-1.73 2.27-2.409l-.544.42a7.308 7.308 0 0 1 1.496-.865l-.655.276c1.327-.554 2.75-.838 4.087-1.368 1.52-.603 2.9-1.361 4.087-2.508 1.07-1.034 1.845-2.395 2.297-3.805.44-1.37.481-2.84.335-4.258-.195-1.891-.593-3.755-.849-5.638l.094.696c-.104-.776-.211-1.565-.223-2.349-.01-.75.086-1.521.185-2.264l-.103.765c.066-.466.167-.92.343-1.357l-.303.718c.14-.328.283-.654.417-.985l-.305.723c.14-.32.316-.612.528-.888l-.477.617c.237-.295.506-.556.802-.79l-.622.48c.419-.32.874-.576 1.357-.786l-.743.313a8.554 8.554 0 0 1 2.118-.572l-.84.113c1.133-.15 2.3-.177 3.44-.1 1.544.105 3.109.12 4.503-.67.458-.26.84-.632 1.298-.892.626-.357 1.258-.771 1.743-1.31.923-1.023 1.655-2.282 2.3-3.495.608-1.14 1.16-2.286 1.952-3.317l-.5.646a8.482 8.482 0 0 1 1.463-1.477l-.647.5c.416-.319.85-.61 1.272-.921.602-.445 1.202-.844 1.58-1.509.224-.394.394-.887.534-1.33.644-2.026-1.469-4.163-3.503-3.504a6.451 6.451 0 0 1-.534.147c-.724.168-1.204.595-1.764 1.03l.648-.501c-.922.703-1.925 1.317-2.758 2.13-.806.786-1.489 1.729-2.077 2.687-.471.767-.842 1.585-1.269 2.376-.459.85-.96 1.688-1.53 2.469l.498-.645c-.178.23-.378.43-.608.608l.645-.498c-.345.255-.733.436-1.08.688-.355.259-.693.548-1.097.731l.76-.32a2.78 2.78 0 0 1-.644.157l.845-.114c-1.004.12-2.016-.062-3.023-.058-1.37.005-2.764.102-4.088.472-.712.199-1.41.492-2.072.816-.647.315-1.211.745-1.77 1.197-.545.44-.97.985-1.378 1.554a4.172 4.172 0 0 0-.374.639c-.221.465-.444.947-.532 1.459a9.57 9.57 0 0 0-.137 2.386c.064.851.162 1.697.29 2.541-.03-.237-.063-.474-.095-.711.115 1.09.264 2.174.465 3.251.164.88.36 1.753.481 2.64l-.092-.685c.183 1.367.35 2.783.18 4.16l.095-.712a7.008 7.008 0 0 1-.454 1.714l.274-.65a6.743 6.743 0 0 1-.862 1.479l.432-.559a8.428 8.428 0 0 1-1.45 1.44l.562-.434a9.428 9.428 0 0 1-2.057 1.18l.66-.278c-.964.399-1.97.675-2.96 1.003a18.13 18.13 0 0 0-1.984.778c-.589.275-1.105.695-1.605 1.102-.84.682-1.51 1.572-2.136 2.445a18.352 18.352 0 0 0-1.509 2.472c-.983 1.962-1.668 4.024-2.138 6.163-.218.992-.4 1.992-.582 2.991-.204 1.122-.415 2.266-.46 3.408-.032.788.038 1.58.081 2.367.042.759.088 1.517.124 2.276.038.8.678 1.572 1.534 1.534.864-.039 1.492-.674 1.534-1.534Z"/><path fill="#0A0A0A" d="M71.223 50.279c7.783-1.839 15.387-4.538 23.201-6.415 4.351-1.045 8.58-2.927 12.837-4.351 2.31-.773 5.315-2.258 7.847-1.594.093.562-.932 1.444-1.232 1.883-.594.872-1.107 1.807-1.665 2.702-1.022 1.642-1.289 3.833-1.75 5.694-.679 2.74-1.888 5.129-2.815 7.784-.667 1.91-.794 4.04-1.617 5.893-.534 1.203-1.209 2.267-1.594 3.542-.223.738-.359 1.507-.589 2.242-.613 1.97-1.39 4-2.381 5.799-.888 1.61-1.612 3.248-2.413 4.887-.633 1.296-.082 2.606-.56 3.817-.788-.214-1.26-1.72-1.624-2.412-.435-.822-.478-1.708-.778-2.6-.654-1.947-2.151-3.579-3.145-5.373-.595-1.073-.59-2.215-.9-3.379-.242-.9-.407-1.791-.622-2.691a12.172 12.172 0 0 0-.827-2.278c-.174-.367-.554-.772-.667-1.151-.119-.4.079-.835-.076-1.2-.322-.763-1.319-.784-2.062-1.114-.907-.402-1.84-.724-2.71-1.195-1.365-.74-2.802-1.557-4.312-1.967-1.982-.538-3.543-1.401-5.344-2.404-.724-.403-1.27-1.019-1.96-1.408-.806-.454-1.812.072-2.55-.61-.193-.724.962-1.239 1.55-1.273"/><path fill="#0A0A0A" d="M71.223 52.075a137.25 137.25 0 0 0 3.13-.402l-.56.076c.62-.028 1.26-.196 1.87-.312l1.389-.27c.925-.185 1.85-.375 2.773-.57l-.672.09a10.5 10.5 0 0 0 1.421-.272 488.694 488.694 0 0 0 2.656-.684c1.135-.294 2.269-.59 3.404-.88 2.3-.588 4.591-1.21 6.902-1.757 1.14-.27 2.287-.51 3.418-.815a61.437 61.437 0 0 0 3.34-1.016c2.216-.735 4.403-1.554 6.619-2.292 1.074-.358 2.149-.714 3.219-1.083 1.091-.377 2.198-.726 3.345-.883l-.872.118a7.112 7.112 0 0 1 1.827-.02l-.88-.118c.227.032.451.078.673.139l-2.44-3.205a.656.656 0 0 1-.002.154l.118-.885a1.142 1.142 0 0 1-.064.207l.335-.796c-.07.16-.168.303-.272.442l.522-.675c-.187.241-.394.463-.6.688-.378.414-.718.864-1.032 1.33-.499.74-.946 1.511-1.423 2.264-.986 1.555-1.493 3.337-1.901 5.115-.18.787-.34 1.576-.564 2.352-.24.83-.527 1.645-.834 2.453-.609 1.597-1.321 3.164-1.836 4.796-.567 1.797-.718 3.708-1.443 5.458l.345-.818c-.622 1.464-1.458 2.824-1.933 4.353-.208.672-.331 1.367-.508 2.047a27.556 27.556 0 0 1-.607 1.944 33.767 33.767 0 0 1-.83 2.185l.336-.794c-.58 1.369-1.315 2.661-1.951 4.004-.322.678-.633 1.361-.947 2.043-.214.463-.434.922-.632 1.392-.114.269-.237.533-.313.815-.115.43-.153.886-.205 1.325-.091.774.018 1.556-.075 2.33l.113-.843c-.026.179-.064.35-.118.523l3.863-2.194a1.075 1.075 0 0 1-.16-.053l.747.316a1.321 1.321 0 0 1-.23-.14l.632.486a2.274 2.274 0 0 1-.35-.36l.482.624a5.257 5.257 0 0 1-.598-1.028c-.162-.353-.341-.7-.497-1.055l.306.726c-.306-.742-.392-1.547-.65-2.305a13.414 13.414 0 0 0-1.256-2.674c-.39-.64-.824-1.252-1.246-1.872-.427-.627-.881-1.268-1.182-1.968l.302.717c-.294-.722-.396-1.49-.546-2.249-.163-.824-.396-1.637-.579-2.458-.178-.798-.373-1.58-.675-2.342-.223-.562-.435-1.154-.736-1.681-.177-.312-.413-.585-.56-.915l.298.708a1.273 1.273 0 0 1-.071-.263l.106.788c-.018-.195.006-.385.016-.579a3.642 3.642 0 0 0-.16-1.27c-.304-.972-.935-1.708-1.771-2.268-.705-.473-1.544-.597-2.31-.916l.714.301c-.657-.289-1.32-.565-1.981-.843l.717.302c-1.313-.554-2.514-1.312-3.798-1.927-.838-.401-1.702-.78-2.596-1.044a18.727 18.727 0 0 1-1.953-.677l.732.309a24.471 24.471 0 0 1-2.141-1.05c-.71-.385-1.447-.74-2.091-1.233l.622.48c-.438-.339-.867-.689-1.312-1.02-.45-.334-.91-.55-1.45-.745-.774-.28-1.582-.17-2.377-.264l.81.11a1.943 1.943 0 0 1-.422-.107l.728.307a1.613 1.613 0 0 1-.284-.16l.616.477a1.37 1.37 0 0 1-.108-.09l.782 1.343a.627.627 0 0 1-.018-.091l.108.808a.874.874 0 0 1-.001-.133l-.109.809a.827.827 0 0 1 .041-.168l-.306.725c.03-.07.066-.132.11-.194l-.474.615c.07-.09.15-.167.24-.239l-.614.474a2.42 2.42 0 0 1 .496-.285l-.723.306a2.79 2.79 0 0 1 .553-.164l-.804.108c.04-.005.08-.01.12-.012.416.015.804-.072 1.164-.26.375-.123.7-.331.974-.626.524-.524.919-1.385.885-2.138-.035-.782-.292-1.593-.886-2.138-.565-.52-1.343-.945-2.138-.886-.906.068-1.688.264-2.487.716-.188.106-.352.245-.523.378-.158.122-.35.248-.49.4a4.47 4.47 0 0 0-.611.8c-.077.133-.143.326-.192.442-.067.16-.141.302-.185.466a4.46 4.46 0 0 0-.12 1.004c.003.092.063.624.125.9l.306.726c.13.247.298.46.502.64.578.503 1.137.86 1.881 1.074.73.209 1.455.141 2.19.231l-.812-.109c.147.022.287.055.426.108l-.73-.309c.258.11.488.28.71.449l-.62-.48c.497.385.975.79 1.479 1.167.31.232.64.42.977.61.67.38 1.352.74 2.05 1.07.903.425 1.829.822 2.779 1.132.788.258 1.584.451 2.352.773l-.726-.306c.917.39 1.795.864 2.674 1.333 1.1.586 2.278 1.002 3.424 1.486l-.715-.302c.48.205.945.42 1.444.564.251.073.503.14.746.239l-.712-.3a1.9 1.9 0 0 1 .421.238l-.602-.465a1.4 1.4 0 0 1 .186.185l-.466-.601c.056.075.102.151.14.236l-.299-.71c.025.067.041.128.054.199l-.106-.79c.026.251-.023.5-.01.75.04.748.21 1.396.584 2.049.121.21.27.404.398.61.143.23.246.482.352.73l-.3-.708c.37.882.604 1.783.804 2.716.2.937.454 1.865.618 2.809.077.442.148.887.267 1.32.178.647.449 1.284.778 1.867.427.758.926 1.472 1.41 2.195.536.803 1.055 1.622 1.433 2.514l-.305-.723c.349.842.445 1.742.738 2.599.192.564.465 1.09.707 1.631.133.295.258.594.403.883l-.307-.727c.165.516.425 1.1.756 1.548.224.302.444.637.733.887.582.504.941.702 1.664.964l.835.112c.432.016.835-.074 1.21-.27a1.57 1.57 0 0 0 .692-.404 2.37 2.37 0 0 0 .809-.881c.2-.455.425-.913.524-1.404.098-.487.167-.988.185-1.485.017-.502.001-1.003.067-1.502l-.116.856c.045-.295.118-.578.233-.853l-.326.772c.417-.928.897-1.834 1.35-2.745.447-.896.93-1.77 1.406-2.65 1.04-1.926 1.855-3.989 2.536-6.066.345-1.054.529-2.151.961-3.177l-.344.815c.689-1.6 1.603-3.087 2.106-4.768.421-1.408.613-2.873 1.053-4.275.453-1.44 1.075-2.827 1.633-4.227.555-1.393 1.064-2.803 1.407-4.265.353-1.501.561-3.047 1.16-4.479l-.344.815c.28-.652.666-1.249 1.02-1.863.357-.618.696-1.27 1.125-1.843l-.525.679c.422-.546.884-1.047 1.296-1.605.122-.164.229-.331.313-.517.151-.334.321-.65.391-1.004.056-.281.112-.658.123-.944.012-.328-.08-.652-.125-.977a3.32 3.32 0 0 0-.855-1.467 3.321 3.321 0 0 0-1.466-.854c-1.606-.38-3.193-.287-4.793.07-1.093.244-2.144.643-3.184 1.049-1.054.41-2.119.788-3.178 1.186-1.188.447-2.368.915-3.549 1.377-2.355.92-4.723 1.826-7.164 2.492-1.237.338-2.478.657-3.711 1.01-1.238.352-2.47.727-3.702 1.097-1.397.42-2.776.91-4.16 1.371-.678.227-1.357.453-2.035.678-.879.291-1.804.533-2.639.933l.604-.255a254.175 254.175 0 0 1-3.955 1.432c-.597.21-1.23.383-1.797.666l.504-.212c-.826.32-1.655.634-2.487.937-.428.156-.852.406-1.074.826a1.852 1.852 0 0 0-.213 1.145c.05.377.205.767.494 1.032.327.3.807.58 1.27.526Z"/><path fill="#FF8131" d="m84.263 49.256-.111.157c-.177.254-.186.543-.222.836-.008.069-.02.138-.025.207-.005.07.009.138.018.207l.11.858a.958.958 0 0 0 .109.49.954.954 0 0 0 .263.408.952.952 0 0 0 .409.263c.151.08.314.116.49.11.328-.015.669-.123.898-.373l.198-.257c.115-.198.173-.412.174-.641l.11-.858c.009-.069.022-.138.017-.207-.005-.07-.017-.138-.025-.207-.035-.289-.044-.572-.214-.825-.038-.057-.079-.112-.118-.168a1.213 1.213 0 0 0-1.04-.597 1.2 1.2 0 0 0-1.041.597Zm7.906-2.879c-.065.05-.133.098-.194.153-.113.101-.205.272-.29.405-.094.145-.186.291-.275.44-.18.301-.347.61-.492.93-.107.238-.216.48-.3.727-.056.16-.079.34-.103.508-.063.434-.114.864-.073 1.302.027.29.048.593.16.863.112.271.225.535.381.783.143.227.385.442.655.503l.291.04a.825.825 0 0 0 .422-.095.547.547 0 0 0 .242-.14.83.83 0 0 0 .282-.308c.139-.262.188-.553.11-.844a3.748 3.748 0 0 1-.091-.459l.041.31c-.01-.087-.017-.174-.025-.26-.017-.188-.057-.37-.083-.556l.043.32a4.157 4.157 0 0 1 .007-1.1l-.043.32a5.273 5.273 0 0 1 .08-.443c.034-.149.048-.3.068-.45l-.043.318a8.1 8.1 0 0 1 .283-1.256c.061-.203.129-.404.2-.604.036-.101.078-.2.11-.303.053-.163.05-.345.058-.515l-.03-.222-.084-.199a.826.826 0 0 0-.398-.34.795.795 0 0 0-.431-.057.414.414 0 0 0-.21.057.624.624 0 0 0-.268.172Zm5.71-.053c.042.17.078.341.102.515l-.03-.216c.033.24.035.482.011.724-.013.132-.026.265-.043.398-.032.245.069.483.142.713l.095.226c.059.11.14.197.242.264a.897.897 0 0 0 .571.202c.168-.007.328-.05.476-.128a.962.962 0 0 0 .433-.564c.028-.103.057-.206.084-.31a1.55 1.55 0 0 0 .049-.323 1.622 1.622 0 0 0-.048-.335 3.19 3.19 0 0 0-.181-.616 4.378 4.378 0 0 0-.297-.626c-.129-.213-.282-.41-.434-.606l-.142-.11a.521.521 0 0 0-.26-.083.67.67 0 0 0-.448.083.725.725 0 0 0-.322.792Zm9.373.409a1.07 1.07 0 0 0 .548-.122c.177-.058.33-.156.459-.295.139-.129.237-.281.294-.458.089-.17.13-.353.123-.549l-.051-.378a1.43 1.43 0 0 0-.366-.629c-.279-.255-.621-.417-1.007-.417a1.074 1.074 0 0 0-.549.123 1.063 1.063 0 0 0-.458.294 1.073 1.073 0 0 0-.295.459c-.089.17-.13.352-.122.548l.05.379c.068.241.19.45.367.628.278.256.621.417 1.007.417Z"/></svg>