<svg xmlns="http://www.w3.org/2000/svg" width="160" height="180" fill="none"><path fill="#008BFF" d="M95.406 79.654c-.139-.36-.367-.603-.598-.904a8.845 8.845 0 0 1-.691-1.044c-.147-.26-.26-1.005-.66-.945-.128.02-.226.121-.35.149-.124.028-.245.008-.37.032-.315.06-.63.143-.947.21-.728.153-1.45.31-2.177.454-.689.137-1.384.2-2.07.373-.265.067-.521.158-.784.23-.126.034-.255.035-.375.087-.094.04-.17.105-.266.142-.435.166-.93.252-1.382.366-.428.108-.846.243-1.266.37.137.154.339.162.528.207.487.117.933.31 1.391.507.639.274 1.242.72 1.911.884.196.048.354.131.538.207.225.094.472.08.703.164.208.075.382.143.545.297.12.115.322.244.422.38-.205.198-.414.386-.618.587-.17.168-.324.376-.514.517-.513.382-1.045.745-1.516 1.18-.387.359-.746.742-1.14 1.096-.162.146-.264.316-.405.476-.143.162-.354.236-.477.42.177.077.375-.06.553-.073.252-.017.487-.05.737-.088.223-.035.4-.07.627-.074.282-.005.543-.088.827-.085.238.003.488.023.722-.016.286-.047.545-.188.827-.25.33-.07.63-.188.96-.25.31-.057.595-.062.915-.062.524 0 1.05-.01 1.574 0 .277.005.377-.072.509-.327.149-.29.305-.557.434-.854.233-.538.502-1.062.706-1.614.104-.28.242-.528.35-.804.052-.134.094-.285.164-.41.06-.108.159-.174.221-.28l-.055-.014"/><path fill="#008BFF" d="M96.054 79.476a1.936 1.936 0 0 0-.2-.545l.074.175c-.108-.286-.247-.556-.376-.833l.09.212c-.046-.2-.188-.402-.278-.59a9.59 9.59 0 0 1-.19-.423l.103.246a2.854 2.854 0 0 1-.184-.577c-.017-.085-.033-.171-.053-.256-.044-.186-.122-.35-.197-.528l.121.288a1.349 1.349 0 0 0-.138-.324l.122.29c-.092-.279-.197-.49-.398-.703-.2-.214-.43-.332-.705-.423l.79.607-.005-.007a1.343 1.343 0 0 0-1.154-.661c-.308.038-.393.042-.647.15-.108.045-.213.096-.32.142l.321-.136a.548.548 0 0 1-.12.03l.36-.048c-.111.008-.222-.002-.333.009-.23.022-.462.062-.69.102-.23.04-.458.097-.687.143-.474.097-.947.195-1.421.29-.47.094-.939.184-1.413.254-.468.07-.94.134-1.399.25-.24.061-.474.142-.714.206-.113.03-.232.038-.344.07-.233.07-.432.193-.647.296l.344-.145c-.412.17-.863.24-1.296.34-.468.109-.927.254-1.388.39a1.48 1.48 0 0 0-1.02 1.019c-.143.518.018 1.034.375 1.42.063.068.142.12.213.175.076.059.14.115.221.16.15.08.316.15.482.195.133.036.269.058.401.094.309.087.608.204.903.328l-.35-.148c.284.12.564.246.836.392.262.14.52.289.787.416.234.11.473.214.717.3.143.052.292.082.434.135.145.054.288.12.437.16.263.07.541.08.812.113l-.382-.051c.165.023.326.071.48.134l-.337-.142c.086.037.166.08.24.135l-.282-.218c.199.153.395.31.599.456l-.278-.215c.062.05.122.1.174.16v-1.928c-.191.202-.403.382-.602.575-.172.166-.319.357-.507.506l.277-.213c-.67.504-1.369.966-1.982 1.542-.27.254-.53.517-.801.768-.134.124-.272.24-.387.382-.104.127-.197.263-.325.366l.284-.219c-.117.09-.237.172-.353.262-.075.058-.161.117-.23.185-.112.11-.204.248-.296.374-.127.22-.191.457-.192.71a1.06 1.06 0 0 0 .121.543c.057.175.154.326.291.453.176.175.383.295.621.362.307.117.67.078.981.011.1-.021.194-.06.294-.076l-.375.05c.487-.041.968-.121 1.452-.19l-.375.051c.147-.02.294-.02.442-.032.263-.023.524-.07.785-.107l-.375.05c.262-.033.523-.005.786-.015a3.511 3.511 0 0 0 1.067-.21c.236-.085.479-.136.719-.205.248-.071.494-.144.75-.18l-.376.05c.424-.056.854-.038 1.28-.041.525-.003 1.058.034 1.578-.055a.71.71 0 0 0 .082-.019 2.14 2.14 0 0 0 .391-.164c.072-.04.133-.096.199-.146.072-.056.14-.1.2-.166.202-.223.324-.447.462-.705.198-.371.365-.755.539-1.138.096-.21.192-.421.283-.634.138-.324.26-.653.396-.977l-.141.334c.072-.167.15-.33.223-.498.113-.262.205-.528.314-.79l-.14.333a.863.863 0 0 1 .08-.145l-.219.282c.134-.17.284-.322.402-.508.475-.75.02-1.836-.833-2.047a1.453 1.453 0 0 0-1.129.126c-.288.17-.564.501-.64.833-.08.357-.063.757.141 1.074.195.303.476.548.833.64l.054.015-.833-2.047a.513.513 0 0 1-.037.053l.218-.282c-.158.192-.343.368-.448.597-.109.237-.19.481-.29.721l.141-.334c-.075.179-.163.352-.241.53-.125.282-.232.57-.351.853l.141-.335c-.175.414-.375.817-.558 1.227a9.266 9.266 0 0 1-.284.578c-.091.171-.17.361-.288.516l.22-.286a.526.526 0 0 1-.07.072l.286-.221a.417.417 0 0 1-.081.048l.337-.143a.542.542 0 0 1-.122.03l.376-.05c-.185.018-.376.001-.562 0l-.59.002c-.385.003-.773-.012-1.156.023a5.85 5.85 0 0 0-.902.141c-.177.045-.351.101-.527.149-.177.047-.354.085-.527.146-.182.065-.362.133-.554.162l.376-.05c-.222.028-.444.013-.666.01-.325-.003-.648.069-.969.114l.376-.05c-.252.032-.504.037-.756.071-.253.034-.505.077-.758.112l.376-.05c-.164.022-.328.037-.493.052a2.58 2.58 0 0 0-.534.089c-.069.021-.136.043-.207.055l.375-.05a.557.557 0 0 1-.088.003l.374.05a.397.397 0 0 1-.085-.021l.84 2.067.018-.024-.22.285a.92.92 0 0 1 .166-.161l-.285.22c.18-.136.374-.258.535-.416.173-.168.305-.38.452-.57l-.219.283c.139-.179.308-.324.47-.481.17-.166.337-.336.506-.504.33-.33.672-.64 1.04-.926l-.278.215c.176-.136.355-.268.533-.4.257-.192.531-.37.755-.601.144-.148.276-.307.424-.452.17-.167.343-.332.523-.49l.213-.275c.1-.157.153-.326.162-.507a.688.688 0 0 0 0-.362 1.016 1.016 0 0 0-.162-.507 3.227 3.227 0 0 0-.511-.578c-.198-.179-.388-.364-.62-.502a1.937 1.937 0 0 0-.205-.103c-.18-.08-.36-.168-.55-.224-.179-.053-.365-.073-.539-.143l.35.147c-.285-.129-.56-.284-.863-.37a4.61 4.61 0 0 1-.538-.177l.353.15c-.536-.23-1.03-.544-1.569-.771-.388-.165-.776-.337-1.177-.469a4.863 4.863 0 0 0-.429-.121c-.122-.029-.247-.044-.364-.09l.349.147a.644.644 0 0 1-.1-.056l.296.228a.695.695 0 0 1-.066-.06l-.644 2.441c.51-.158 1.018-.323 1.539-.447.24-.057.48-.11.717-.18.12-.034.238-.071.354-.116.156-.06.32-.119.467-.202.058-.034.114-.07.175-.1l-.344.146c.088-.036.179-.05.271-.067.108-.021.212-.055.317-.087.19-.059.377-.122.569-.172.415-.108.839-.176 1.262-.245.863-.14 1.715-.336 2.568-.523.237-.053.475-.104.711-.16.236-.056.471-.14.71-.178l-.363.05c.062-.008.123-.01.185-.017.167-.018.352-.024.512-.083a2.42 2.42 0 0 0 .426-.192c.046-.028.091-.056.142-.078l-.32.135a.27.27 0 0 1 .057-.016l-.355.047c.246-.03.473-.042.692-.184.192-.124.375-.286.484-.488l-.789.607a.373.373 0 0 1 .048-.013l-.347.047a.315.315 0 0 1 .079 0l-.34-.046a.393.393 0 0 1 .078.022l-.3-.126a.566.566 0 0 1 .107.062l-.435-.435c.078.113.17.213.254.32l-.187-.242c.147.194.233.423.374.619a8.822 8.822 0 0 0 .76.894c.121.126.247.27.401.354l-.18-.139c.184.155.377.3.55.468l-.114-.148c.057.089.13.163.194.245l-.111-.144c.054.072.104.146.149.224a.674.674 0 0 0 .84.275.676.676 0 0 0 .39-.793Z"/><path fill="#0A0A0A" d="M132.709 24.467c.446.206.824.466 1.308.531.534.072 1.056.17 1.594.216.953.083 1.852.153 2.773.425.958.283 1.871.392 2.869.4.463.005.934.07 1.396.048a3.59 3.59 0 0 0 .799-.12c.088-.024.235-.055.31-.107.095-.024.084-.031-.032-.022l-.493-.219-.058-.084c.035.054.069.108.101.163l.139.23c.124.197.256.387.392.576.273.379.565.745.833 1.127.544.771.895 1.651 1.368 2.464.495.852 1.032 1.67 1.487 2.547.205.393.404.79.603 1.187.049.098.098.195.145.293.215.45-.039-.117.062.15.091.24.172.484.255.727a8.826 8.826 0 0 0 1.305 2.472c.246.33.004-.086.059.109.025.087.043.175.061.264.043.21.083.414.155.617.187.526.444 1.03.68 1.536.196.42.27.634.456 1.12l.587 1.525c.158.41.269.82.345 1.254.09.505-.013-.132.024.165.014.106.025.212.038.317.041.341.083.683.138 1.022.148.909.547 1.743.761 2.635.058.24-.007-.19.015.056.01.104.011.207.014.31.005.247.006.493.014.739.019.554.072 1.103.158 1.65.038.248.092.49.144.734.005.025.069.358.045.206-.029-.177.03.318.027.271.038.467.041.935.097 1.4.033.283.074.56.152.834.027.094.055.194.088.287.139.392.017-.093.035.143.036.487-.008.99-.012 1.478-.008.947-.055 1.896.009 2.842.068 1.003.327 1.933.523 2.91.092.454-.009-.144.02.13a12.067 12.067 0 0 1 .061.985c.01.465-.003.932-.021 1.397-.036.931-.08 1.86-.078 2.791.003 2.058-.017 4.117.002 6.175.002.25.006.5.005.751 0 .111.002.223-.002.334.002-.048.064-.247-.007.054-.119.508-.241.976-.288 1.502-.086.95.031 1.905.04 2.856.004.463.021.925.029 1.388.004.246.005.492-.003.738-.004.108-.013.216-.017.324l-.012.161-.018.096c-.095.417-.248.817-.345 1.233a6.271 6.271 0 0 0-.133 1.755c.091 1.797-.442 3.657-.891 5.536-.46 1.923-1.186 3.75-1.826 5.616-.639 1.862-1.062 3.79-1.754 5.636-.343.915-.759 1.77-1.151 2.747-.173.43-.335.865-.469 1.309-.068.222-.128.446-.203.666-.031.093-.066.184-.1.277-.1.274.062-.097-.079.183-.172.341-.348.676-.55 1-.118.19-.262.373-.37.568-.117.211.199-.169-.058.075-.027.025-.266.258-.121.129.158-.139-.142.091-.147.094a3.914 3.914 0 0 1-.218.123c-.158.085-.322.159-.478.249-.163.096-.32.204-.481.303a6.24 6.24 0 0 1-.306.178c-.092.046-.082.045.029-.005l-.129.039c.248-.026-.08.012-.141.016-.1.007-.2.01-.3.013-.217.006-.434.002-.651.007-.524.012-1.064.068-1.564.228-.42.135-.841.191-1.265.304-.279.074-.553.2-.812.326-.085.042-.168.088-.252.133-.006.003-.405.2-.166.099-.384.163-.819.257-1.226.334-.228.044-.457.082-.684.128-.107.023-.216.043-.323.068-.259.061.028.026-.246.039-1.091.053-2.155-.104-3.193.334-.387.163-.711.402-1.076.603.173-.096.018-.005-.039.012-.268.081-.052.006.015.004-.224.008-.448.002-.673.002-.774-.001-1.515.681-1.479 1.48.035.786.65 1.499 1.479 1.48.48-.012.972-.005 1.438-.137.51-.144.903-.449 1.344-.717.06-.037.301-.14.066-.052.099-.037.207-.064.309-.087-.155.034.099-.014.113-.016.139-.011.28-.012.419-.012.532-.001 1.059.039 1.588-.025.973-.117 2.018-.301 2.938-.645.297-.111.578-.245.857-.392.084-.045.167-.091.252-.133-.191.095.002-.006.049-.018.499-.129.994-.234 1.491-.372.099-.028.2-.05.301-.069-.221.04.011.002.053 0 .215-.008.429-.014.644-.016.535-.005 1.118-.012 1.63-.177.485-.157.897-.431 1.326-.695.35-.215.729-.371 1.063-.614 1.645-1.199 2.238-3.26 2.879-5.083.352-1 .745-1.791 1.168-2.82.388-.946.71-1.917 1.001-2.897.286-.96.53-1.934.84-2.887.318-.978.683-1.94 1.027-2.908.681-1.921 1.131-3.88 1.559-5.87.23-1.07.474-2.181.435-3.281-.014-.403-.073-.974-.023-1.277.057-.348.283-.913.376-1.358.223-1.065.138-2.15.124-3.228-.013-.982-.074-1.96-.056-2.943.001-.025.026-.284-.002-.078.013-.097.034-.195.056-.29.052-.223.129-.438.173-.663.108-.556.083-1.12.078-1.682-.011-1.068-.004-2.136-.004-3.205-.001-2.003.015-3.998.092-6 .04-1.047.018-2.086-.16-3.122-.074-.423-.211-.829-.299-1.249-.085-.409-.115-.758-.134-1.3-.035-.994.004-1.994.024-2.989.01-.521.027-1.027-.06-1.544-.038-.225-.114-.437-.174-.657-.013-.047-.074-.357-.044-.152-.023-.155-.024-.317-.033-.473-.028-.477-.055-.947-.118-1.42a12.582 12.582 0 0 0-.153-.843 9.12 9.12 0 0 1-.062-.325c-.055-.308-.01.034-.03-.248-.074-1.044-.002-2.093-.3-3.11-.121-.413-.28-.815-.411-1.226a6.906 6.906 0 0 1-.191-.737 8.315 8.315 0 0 1-.053-.314c.034.222-.029-.25-.028-.243-.065-.553-.118-1.113-.245-1.656-.115-.49-.318-.954-.497-1.423-.396-1.038-.789-2.071-1.259-3.08a4.053 4.053 0 0 1-.359-1.08c-.11-.546-.36-.999-.671-1.45-.239-.348-.493-.704-.653-1.097.028.07.075.197-.017-.08-.033-.098-.069-.196-.104-.293-.085-.242-.17-.485-.265-.723-.407-1.028-.951-2.013-1.493-2.975-.477-.846-1.045-1.633-1.497-2.492-.492-.935-.997-1.795-1.678-2.61-.279-.332-.508-.598-.698-.87-.376-.538-.745-1.04-1.407-1.238-.635-.19-1.155.038-1.731.264-.172.067.279.007-.145.03.065-.003-.035.003-.161.007-.274.008-.548.01-.822.029-.477.032-.955.087-1.435.08-.437-.008-.86-.12-1.299-.207-.466-.092-.948-.183-1.424-.178-.572.005-1.151.096-1.72.145-.538.047-1.06.141-1.594.21-.485.06-.861.318-1.308.523-.125.058-.125.274 0 .332ZM21.537 98.319a.571.571 0 0 1 .006-.059l-.036.265a1.04 1.04 0 0 1 .068-.218l-.107.255c.06-.133.136-.256.218-.376l-.718.552c.28-.081.492-.223.668-.451.12-.156.185-.326.253-.509l-.125.296a7.454 7.454 0 0 1 .837-1.461l-.21.272c.294-.376.687-.653.994-1.017.403-.48.704-1.007.98-1.567.481-.977.985-1.932 1.576-2.849.608-.943 1.256-1.845 1.748-2.857.238-.487.457-.983.692-1.472.231-.483.457-.97.758-1.416.329-.487.672-.947.93-1.477.257-.527.492-1.063.852-1.53l-.283.367c.641-.805 1.436-1.505 2.185-2.207.759-.711 1.502-1.438 2.248-2.161a348.617 348.617 0 0 1 5.995-5.677c.422-.391.834-.796 1.288-1.15l-.374.29c.517-.399 1.07-.746 1.62-1.096.669-.426 1.304-.88 1.924-1.375l-.372.287c.41-.315.881-.529 1.314-.81a8.43 8.43 0 0 0 1.468-1.23c.355-.37.687-.758 1.034-1.134.271-.293.548-.576.805-.883.268-.321.534-.654.864-.915l-.368.284c.095-.073.195-.138.305-.187l-.435.183a.854.854 0 0 1 .212-.058l-.483.065c.05-.005.1-.004.15.003l-.483-.065c.04.008.08.018.118.033l-.434-.184c.053.023.1.05.146.083l-.367-.284c.076.06.14.127.2.202l-.284-.367c.144.195.25.414.347.636l-.183-.433c.26.618.417 1.272.609 1.913.256.858.636 1.673.984 2.496l-.181-.43c.307.73.57 1.477.804 2.233.229.736.454 1.498.558 2.263l-.063-.475c.02.175.023.349.004.525l.064-.476c-.023.169-.067.33-.132.487l.18-.427c-.072.162-.164.31-.27.451l.278-.362c-.26.33-.584.599-.905.866-.377.314-.726.647-1.077.99-.862.84-1.789 1.613-2.712 2.385-.925.773-1.85 1.547-2.71 2.393-.402.395-.806.803-1.157 1.245-.329.415-.533.72-.72 1.216a2.36 2.36 0 0 0-.133 1.01c.067.808.398 1.553.606 2.33.183.683.352 1.368.448 2.069l-.063-.47c.12.913.138 1.835.134 2.756-.003.894-.04 1.79-.156 2.677l.063-.469a13.909 13.909 0 0 1-.58 2.525c-.221.666-.454 1.34-.725 1.987l.178-.42a6.157 6.157 0 0 1-.744 1.33l.27-.35a3.35 3.35 0 0 1-.559.57l.337-.26c-.11.084-.23.15-.344.227l.386-.163-.044.017c-.404.152-.74.359-.965.742-.203.346-.289.856-.163 1.244.126.39.368.767.742.965.364.192.843.314 1.244.162.283-.107.567-.194.845-.329.269-.131.52-.315.738-.516l-.346.268a4.509 4.509 0 0 0 1.346-1.514c.273-.5.484-1.035.681-1.567.352-.949.7-1.902.915-2.893.264-1.218.381-2.47.408-3.716.028-1.299-.019-2.58-.202-3.867-.094-.659-.256-1.305-.427-1.947a19.34 19.34 0 0 0-.27-.927c-.096-.3-.224-.595-.267-.91l.064.472a1.4 1.4 0 0 1-.001-.297l-.064.472a1.22 1.22 0 0 1 .084-.301l-.178.424a1.95 1.95 0 0 1 .22-.36l-.277.36c.375-.482.818-.92 1.255-1.345.469-.456.957-.891 1.453-1.317.994-.854 2.02-1.67 3-2.542.473-.42.915-.867 1.374-1.299.35-.329.737-.614 1.091-.938a5.79 5.79 0 0 0 .713-.82c.214-.285.347-.6.475-.934.294-.77.181-1.603.022-2.386-.344-1.688-.944-3.297-1.612-4.88l.182.431a16.627 16.627 0 0 1-.524-1.356c-.12-.37-.216-.748-.322-1.121a12.164 12.164 0 0 0-.568-1.565c-.187-.426-.443-.861-.805-1.16-.331-.272-.635-.486-1.066-.584a2.452 2.452 0 0 0-1.237.021c-.535.156-.98.469-1.384.843-.463.428-.834.948-1.273 1.4-.678.694-1.278 1.47-2.046 2.072l.371-.286c-.296.227-.62.405-.945.587-.452.252-.846.559-1.255.877l.373-.288c-.606.465-1.26.857-1.902 1.268a15.43 15.43 0 0 0-2.163 1.638c-1.246 1.15-2.492 2.298-3.727 3.46a138.949 138.949 0 0 0-3.712 3.61c-.572.58-1.163 1.137-1.746 1.704-.585.57-1.186 1.144-1.702 1.778a6.852 6.852 0 0 0-.893 1.367c-.182.376-.338.765-.545 1.127-.214.374-.479.714-.71 1.077-.31.484-.543 1.02-.76 1.55l.18-.423c-.305.716-.585 1.442-.886 2.16l.174-.412c-.343.81-.773 1.555-1.219 2.31-.502.852-1.033 1.726-1.377 2.656l.159-.377c-.32.753-.575 1.529-.891 2.283l.148-.352c-.142.332-.299.652-.52.939l.221-.287c-.153.194-.316.377-.463.578l.218-.282c-.24.283-.486.568-.681.885-.113.183-.2.384-.29.58-.134.297-.262.597-.377.903-.177.47-.371 1.042-.03 1.495l-.165-.607c-.002.423.053.86.264 1.234.205.363.702.582 1.107.45.436-.14.683-.496.72-.945Z"/><path fill="#0A0A0A" d="M46.125 80.379c.534.16 1.061.017 1.541-.231l-.48.13c.191-.024.348-.037.522-.137.095-.054.175-.134.26-.201l-.196.152c.254-.171.512-.35.781-.495l-.262.11c.193-.03.37-.169.549-.25a11.206 11.206 0 0 0 1.385-.761c.582-.368 1.139-.772 1.698-1.173a34.505 34.505 0 0 1 3.507-2.192c.693-.38 1.404-.726 2.132-1.034l-.369.155a20.094 20.094 0 0 1 3.314-1.081c.614-.14 1.233-.262 1.843-.416.6-.15 1.223-.287 1.797-.52a7.593 7.593 0 0 0 1.143-.572 6.78 6.78 0 0 1 .857-.468l-.404.17c.44-.184.896-.323 1.338-.5.456-.183.93-.307 1.408-.42.48-.114.958-.23 1.431-.37.484-.144.968-.29 1.468-.362l-.465.062c.221-.029.443-.03.665-.048.315-.026.63-.076.942-.127.39-.064.779-.141 1.171-.195l-.47.063c.385-.05.776-.082 1.164-.035l-.473-.063c.16.022.317.059.468.12l-.425-.18c.1.043.195.095.283.16l-.36-.278c.078.061.148.13.21.209l-.28-.362c.358.468.639.987.869 1.528l-.181-.43c.365.87.604 1.789.733 2.722l-.065-.483c.053.395.1.776.196 1.162.06.243.122.485.158.732l-.065-.485c.025.197.03.39.008.587l.065-.485a1.336 1.336 0 0 1-.092.332l.184-.435a1.603 1.603 0 0 1-.176.293l.285-.369c-.123.159-.27.293-.427.417l.369-.285a6.15 6.15 0 0 1-.722.46c-.243.138-.486.29-.743.4l.435-.184c-.58.233-1.212.27-1.82.392-.326.066-.644.168-.972.233-.355.07-.713.12-1.07.176-1.421.228-2.815.698-4.15 1.227-.498.197-.991.405-1.48.621-.375.165-.742.349-1.12.51l.433-.183c-.829.345-1.706.557-2.544.877-.687.262-1.402.498-2.035.876-.607.36-1.12.865-1.322 1.559-.176.609.01 1.311.464 1.754.474.462 1.034.754 1.658.96.36.12.734.181 1.105.25.896.167 1.741.509 2.622.734.512.13 1.014.29 1.503.492l-.43-.181c.522.22 1.02.49 1.534.725.494.227.987.463 1.42.796l-.362-.28c.342.27.663.569 1.04.792.201.12.414.222.603.364l-.362-.28c.074.058.142.122.202.196l-.28-.362c.054.071.097.146.132.228l-.18-.427c.037.099.06.199.076.303l-.064-.475c.05.412.013.842-.042 1.251l.064-.474a7.84 7.84 0 0 1-.488 1.887l.18-.426c-.19.447-.426.87-.638 1.306-.26.537-.46 1.1-.69 1.65l.179-.425a4.943 4.943 0 0 1-.606 1.086l.278-.36c-.188.24-.4.456-.64.645l.36-.279a3.56 3.56 0 0 1-.78.455l.424-.18a4.54 4.54 0 0 1-1.135.298l.472-.064c-.588.075-1.183.051-1.775.052l-2.103.002c-1.373.003-2.748.02-4.121.002-.49-.007-.961-.013-1.447.084-.28.057-.543.187-.827.23l.47-.062a.669.669 0 0 1-.162.001l.469.063a.568.568 0 0 1-.114-.034l.421.178a.79.79 0 0 1-.132-.08l.357.276a1.377 1.377 0 0 1-.23-.236l.276.357c-.277-.364-.458-.794-.635-1.213l.178.422c-.14-.333-.27-.671-.427-.996a23.64 23.64 0 0 1-.497-1.083l.178.421c-.13-.308-.252-.62-.367-.934-.096-.262-.198-.523-.238-.8l.062.468a1.659 1.659 0 0 1-.003-.406l-.062.468a1.4 1.4 0 0 1 .086-.325l-.177.42c.055-.128.12-.247.205-.358l-.273.353a1.91 1.91 0 0 1 .33-.32l-.35.27a3.07 3.07 0 0 1 .634-.358l-.407.171a5.2 5.2 0 0 1 .724-.24c.244-.063.494-.093.739-.151l-.437.059c.254-.028.505-.069.758-.105l-.433.059c.378-.05.757-.072 1.134-.131l-.42.056c.74.002 1.48-.005 2.218-.004.464.001.925-.02 1.381-.119.33-.072.648-.188.98-.253l-.393.053.055-.007c.203.008.394-.034.57-.127a1.11 1.11 0 0 0 .476-.306c.257-.257.45-.678.434-1.046-.017-.383-.143-.78-.434-1.047-.268-.246-.667-.48-1.046-.433-.321.04-.635.079-.95.155-.198.048-.395.097-.598.126l.4-.054c-.502.061-1.026 0-1.53-.02-.52-.02-1.041-.069-1.562-.07l.419.057c-.871-.133-1.698-.08-2.563.064a5.451 5.451 0 0 0-1.758.604c-.737.412-1.335 1.09-1.567 1.91-.152.536-.122 1.038-.027 1.577.06.339.196.663.316.984.2.532.42 1.057.653 1.575.139.308.294.607.425.918l-.177-.42c.172.408.335.822.525 1.223.192.405.431.755.72 1.103a2.342 2.342 0 0 0 1.74.822c.298.003.613-.06.9-.15.187-.059.371-.126.566-.159l-.47.063c.232-.03.475-.014.708-.01.266.003.532.007.798.007l1.583.002c1.092.001 2.184 0 3.276.002 1.085 0 2.16.042 3.234-.142.997-.17 1.914-.653 2.667-1.32.165-.146.313-.307.449-.478.227-.288.457-.575.633-.898.32-.583.534-1.221.79-1.834l-.179.425c.214-.505.493-.98.72-1.479a9.4 9.4 0 0 0 .662-1.951c.146-.678.244-1.384.225-2.078-.01-.343-.04-.705-.168-1.026-.084-.208-.157-.427-.289-.611-.125-.175-.255-.366-.418-.511a4.557 4.557 0 0 0-.8-.57 4.919 4.919 0 0 1-.55-.343l.363.28c-.34-.265-.656-.559-1.02-.795a7.143 7.143 0 0 0-.817-.446c-.284-.136-.571-.262-.854-.399-.294-.143-.582-.299-.883-.43-.43-.187-.86-.368-1.306-.512-.315-.102-.635-.18-.954-.269-.65-.181-1.282-.43-1.94-.585-.588-.14-1.199-.194-1.764-.423l.43.181a2.293 2.293 0 0 1-.49-.278l.364.282a2.057 2.057 0 0 1-.163-.144l.463 1.753a.334.334 0 0 1 .013-.038l-.182.43a.552.552 0 0 1 .067-.112l-.282.364a1.11 1.11 0 0 1 .173-.167l-.365.282c.276-.212.599-.358.917-.493l-.431.182c.7-.295 1.422-.551 2.148-.775a17.516 17.516 0 0 0 1.812-.66c.49-.211.97-.445 1.461-.653l-.432.182a27.467 27.467 0 0 1 2.522-.924c.431-.133.865-.255 1.303-.365.458-.115.923-.185 1.39-.257.442-.068.878-.15 1.31-.266.382-.103.776-.15 1.165-.215a5.73 5.73 0 0 0 1.46-.45c.297-.135.584-.309.865-.472.92-.534 1.74-1.258 2.055-2.308.042-.14.054-.288.073-.432.023-.172.05-.341.05-.515a5.368 5.368 0 0 0-.133-1.055c-.084-.403-.202-.791-.265-1.198a10.97 10.97 0 0 0-.593-2.244c-.19-.495-.397-.99-.65-1.458a8.19 8.19 0 0 0-.873-1.27 1.282 1.282 0 0 0-.162-.165 4.106 4.106 0 0 0-.493-.374 3.094 3.094 0 0 0-.79-.335 4.294 4.294 0 0 0-1.427-.13c-.836.059-1.644.266-2.47.384l.468-.063c-.2.026-.399.05-.597.08l.467-.063c-.53.061-1.064.089-1.586.215-.463.11-.912.27-1.367.409-.443.134-.894.24-1.34.36-.594.16-1.147.382-1.713.622l.406-.172c-.623.258-1.277.453-1.87.777-.455.248-.862.573-1.34.78l.4-.17c-.658.272-1.369.436-2.054.624-.675.185-1.357.349-2.027.553-1.383.422-2.73.994-4.008 1.668-.325.17-.646.35-.962.535-.423.25-.852.499-1.23.813l.298-.23a29.573 29.573 0 0 0-2.434 1.884c-.7.603-1.38 1.23-2.11 1.796l.242-.187c-.267.205-.54.402-.824.585-.36.234-.836.432-1.048.824l.171-.222c-.23.224-.407.522-.659.72l.197-.153c-.157.12-.313.218-.396.407l.15-.192c-.047.045-.098.085-.144.13.186-.181.136-.102.063-.054-.025.017-.052.031-.079.047-.068.042-.135.025.093-.034-.03.008-.057.021-.087.03a.91.91 0 0 0-.089.02c0-.017.26-.02.07-.02a.817.817 0 0 0-.217 1.605Zm23.002 16.297c-.028.022-.058.043-.086.067-.143.125-.2.277-.266.449l-.098.259.105-.248c-.102.183-.14.35-.16.562l-.007.076a18.927 18.927 0 0 1-.07.605l.04-.294c-.127.94-.345 1.861-.713 2.737l.136-.322a1.765 1.765 0 0 1-.216.388l.218-.282c-.123.156-.274.29-.43.412.099-.075.196-.151.294-.227-.18.139-.38.247-.59.336l.352-.149c-.79.328-1.66.388-2.488.579-.311.072-.615.162-.933.206l.422-.057c-.46.06-.922.047-1.38-.013l.432.058c-.656-.09-1.293-.269-1.932-.435-.33-.085-.664-.156-.996-.233a7.596 7.596 0 0 0-1.34-.206c-.353-.019-.705.064-1.057.02l.46.061c-.383-.057-.746-.231-1.107-.36a4.24 4.24 0 0 0-.562-.166 6.376 6.376 0 0 0-.714-.102 1.836 1.836 0 0 0-.297-.005l-.467.063a1.315 1.315 0 0 0-.598.315.883.883 0 0 0-.315.315c-.155.17-.26.369-.315.598-.024.167-.046.334-.067.501.008.169.03.335.07.499l.176.417.273.353.353.273c.2.128.417.197.65.207a.87.87 0 0 0 .463 0c.158 0 .305-.04.441-.119a.868.868 0 0 0 .385-.224c.19-.123.34-.287.45-.49.077-.143.141-.293.192-.448.025-.167.048-.335.067-.502l-1.758 1.758c.144-.013.287-.008.43.01l-.466-.062c.562.08 1.074.342 1.624.469.425.099.813.114 1.237.07.286-.029.565-.03.851.008l-.454-.061c.39.055.778.144 1.163.223.403.083.806.164 1.21.239.52.095 1.044.176 1.57.211.53.036 1.044-.018 1.57-.095.36-.053.7-.163 1.048-.265.251-.074.506-.133.76-.193a8.907 8.907 0 0 0 1.886-.621 4.128 4.128 0 0 0 1.008-.662c.394-.338.634-.795.804-1.277l-.139.329c.1-.231.18-.425.233-.663.038-.171.071-.343.1-.516a13.617 13.617 0 0 0 .185-2.342 16.894 16.894 0 0 0-.021-.793l-.006-.114a1.344 1.344 0 0 0-.16-.6l.105.248-.09-.26a1.089 1.089 0 0 0-.35-.515c-.164-.129-.337-.24-.558-.231l-.21.028a.787.787 0 0 0-.347.203Zm-3.693 8.594c-.266.056-.51.217-.699.408l.392-.229-.02.006a.926.926 0 0 0-.644.644c-.124.496-.113.981-.15 1.484-.045.585-.035 1.174-.111 1.756l.042-.313a3.203 3.203 0 0 1-.189.748l.125-.297c-.113.264-.259.518-.335.796-.09.328-.079.659-.092.993l.048-.356c-.008.058-.02.11-.037.166l.137-.325a.726.726 0 0 1-.095.165l.216-.279a1.577 1.577 0 0 1-.231.217l.286-.221c-.393.297-.834.534-1.254.791-.584.356-1.163.718-1.742 1.083-.567.356-1.125.723-1.686 1.089-.549.358-1.113.708-1.713.975l.395-.167c-.389.159-.814.188-1.206.338-.19.073-.388.141-.563.246-.177.107-.337.248-.497.378-.127.103-.245.216-.374.316l.338-.261a1.203 1.203 0 0 1-.242.146l.4-.169a.608.608 0 0 1-.103.027l.445-.059a.483.483 0 0 1-.1-.002l1.615 1.23a6.007 6.007 0 0 0-.696-1.346c-.22-.315-.457-.62-.642-.959-.194-.352-.325-.736-.54-1.078-.27-.434-.633-.794-.949-1.194l.268.347a2.342 2.342 0 0 1-.274-.435l.172.409a2.152 2.152 0 0 1-.145-.543l.061.457a1.682 1.682 0 0 1-.001-.391l-.062.457a1.47 1.47 0 0 1 .09-.339l-.174.412c.057-.135.132-.258.22-.374l-.27.349c.274-.35.64-.61.981-.891.446-.369.88-.817 1.124-1.347l.177-.418c.073-.233.083-.465.03-.698-.048-.367-.2-.747-.48-1.005a2.08 2.08 0 0 0-.773-.45c-.445-.144-.947-.028-1.349.176-.435.222-.83.543-1.188.871a8.27 8.27 0 0 0-.82.885c-.333.41-.654.832-.951 1.269-.208.305-.393.627-.62.92l.278-.358a4.144 4.144 0 0 1-.7.702l.36-.277a3.95 3.95 0 0 1-.813.484l.424-.179c-.425.176-.877.27-1.305.44a6.632 6.632 0 0 0-.983.472c-.187.11-.374.22-.562.327-.815.466-1.65.899-2.514 1.267l.43-.181c-.946.399-1.925.728-2.944.872l.477-.064c-.44.059-.885.046-1.325.1-.589.072-1.146.171-1.7.385-.98.378-1.872.882-2.757 1.442-.368.233-.735.469-1.11.691-.185.109-.373.211-.562.313a4.97 4.97 0 0 0-.68.465c-.77.596-1.367 1.337-2.028 2.044-.445.475-.867.955-1.226 1.502a5.3 5.3 0 0 0-.34.589c-.09.187-.18.375-.302.543l.268-.347a1.013 1.013 0 0 1-.16.165l.347-.268a.595.595 0 0 1-.121.071l.409-.172a1.755 1.755 0 0 0-1.089.806c-.215.367-.306.907-.173 1.318.134.414.39.813.787 1.022.411.218.859.289 1.317.173.736-.187 1.27-.769 1.612-1.419.196-.373.407-.722.663-1.058l-.27.35c.373-.481.832-.894 1.245-1.342.411-.447.825-.896 1.305-1.271l-.358.277c.319-.244.673-.415 1.02-.614.368-.21.727-.437 1.086-.662.734-.462 1.473-.924 2.274-1.264l-.427.18a5.7 5.7 0 0 1 1.395-.398l-.475.064c.26-.034.52-.033.78-.046.414-.021.826-.08 1.234-.143a10.196 10.196 0 0 0 1.643-.406c1.227-.406 2.407-.969 3.536-1.595.275-.153.548-.31.819-.471.265-.157.523-.328.806-.45l-.425.179c.243-.1.494-.175.744-.252a8.989 8.989 0 0 0 1.06-.409c.21-.096.409-.215.596-.347a6.59 6.59 0 0 0 .837-.675c.728-.715 1.188-1.657 1.806-2.461l-.276.357c.39-.502.814-.985 1.317-1.375l-.355.274a3.47 3.47 0 0 1 .451-.292l-2.395-2.395a2.112 2.112 0 0 1-.258.432l.273-.354c-.4.507-.967.838-1.398 1.314-.383.422-.702.9-.848 1.459a3.35 3.35 0 0 0 .066 1.883c.183.545.438.92.797 1.362.18.221.383.422.56.647l-.267-.345c.364.488.547 1.081.892 1.583.325.474.703.909.938 1.439l-.169-.401c.015.035.03.07.043.105l.169.4c.105.195.249.352.431.47a.836.836 0 0 0 .37.215c.2.105.415.153.645.145.429.045.93-.145 1.271-.394.28-.204.52-.435.789-.649l-.338.26a1.16 1.16 0 0 1 .258-.147l-.397.167c.31-.123.64-.168.959-.267.458-.141.894-.371 1.308-.61a17.56 17.56 0 0 0 2.123-1.437l-.33.254c.637-.479 1.272-.959 1.911-1.434.603-.447 1.225-.872 1.808-1.345l-.294.227c.363-.279.715-.607.936-1.017a2.05 2.05 0 0 0 .258-.943c.006-.271-.064-.542-.108-.809l.047.348a1.408 1.408 0 0 1-.004-.329l-.045.341c.03-.205.106-.397.143-.6.057-.318.093-.641.086-.964-.012-.57-.1-1.15-.184-1.713l.037.282a81.106 81.106 0 0 0-.157-1.206l.035.259a3.072 3.072 0 0 1-.032-.417l.003-.085c.002-.155-.012.068-.015.103.014-.173.04-.317 0-.491a.963.963 0 0 0-.251-.421l.228.391c0 .006.016.24.017.124 0-.027.003-.059 0-.086-.01-.079-.027.183-.013.102.009-.049.054-.14-.03.049.113-.256.129-.513-.052-.747-.17-.221-.437-.298-.707-.241Z"/><path fill="#0A0A0A" d="M36.57 123.833c-1.382-2.329-2.283-4.897-3.777-7.182a20.522 20.522 0 0 0-2.608-3.268c-1.064-1.08-1.657-2.45-2.585-3.629-1.022-1.3-2.726-1.945-4.068-2.885-.354-.248-.625-.518-.932-.817-.383-.372-.804-.479-1.243-.743-.284-.17-.497-.412-.8-.557-.313-.15-.665-.16-.948-.342-.372-.238-.491-.518-.942-.642-.414-.114-.802-.13-1.211-.292-.742-.292-1.357-.668-2.118-.297-1.079.526-2.028 1.229-2.733 2.197-.617.847-1.361 1.585-1.956 2.433-1.119 1.598-2.005 3.402-2.653 5.235-.31.873-.626 1.735-1.01 2.578-.396.871-.507 1.751-.812 2.647-.251.739-.511 1.45-.82 2.164-.294.678-.289 1.391-.473 2.097-.209.795-.32 1.612-.542 2.402-.206.728-.343 1.236-.339 2.009.005.954.01 1.909 0 2.862-.008.872.227 1.501.51 2.318.444 1.285 1.695 1.792 3.024 1.503 1.493-.325 2.113-2.597 2.583-3.807.242-.623.697-1.094 1.053-1.653.258-.407.432-.901.824-1.199.564-.43 1.954-1.117 2.657-.924.894.246 1.428 1.405 1.835 2.142.452.818 1.213 1.713 2.035 2.179.681.387 1.336.304 2.035-.002.696-.305 1.48-.762 1.975-1.303.938-1.025 2.42-3.253 4.03-3.055.592.072.893.502 1.39.758.551.284.837.278 1.168.881.32.581.318 1.281.652 1.844.249.421.642.843.928 1.245.516.726 1.358 1.257 2.24.827.883-.431 1.01-1.433 1.219-2.288.21-.858.47-1.768.78-2.586.183-.48.464-2.07 1.09-2.036"/><path fill="#0A0A0A" d="M37.35 123.377a25.192 25.192 0 0 1-.3-.579l-.065-.133-.04-.08.048.118c-.065-.169-.15-.329-.22-.496l.097.231a62.13 62.13 0 0 1-.835-2.12 36.202 36.202 0 0 0-.97-2.311 22.635 22.635 0 0 0-3.255-5.167c-.272-.327-.566-.636-.828-.971l.252.326c-.77-1.001-1.32-2.146-2.062-3.166-.42-.581-.867-1.09-1.433-1.53a18.21 18.21 0 0 0-1.734-1.191c-.56-.341-1.131-.672-1.653-1.07l.366.283c-.5-.393-.918-.866-1.438-1.238-.386-.276-.847-.415-1.226-.704l.37.286c-.321-.251-.625-.538-.995-.713a4.612 4.612 0 0 0-.742-.287c-.136-.038-.272-.073-.404-.124l.437.184a1.448 1.448 0 0 1-.31-.183l.37.287c-.138-.109-.262-.234-.398-.346-.392-.321-.758-.555-1.257-.692-.227-.062-.461-.096-.691-.145a3.92 3.92 0 0 1-.708-.233l.44.186c-.726-.307-1.465-.67-2.28-.615-.605.041-1.033.179-1.576.449-.23.114-.457.238-.677.372a9.838 9.838 0 0 0-1.512 1.136c-.486.444-.867.969-1.266 1.491l.291-.376c-.441.571-.932 1.1-1.382 1.663a18.87 18.87 0 0 0-1.465 2.095c-.801 1.337-1.448 2.769-1.986 4.231-.291.791-.564 1.586-.89 2.364l.187-.444c-.235.556-.502 1.099-.683 1.676-.135.426-.234.863-.35 1.295-.241.896-.577 1.776-.936 2.631l.187-.443c-.134.316-.286.628-.385.958a5.324 5.324 0 0 0-.143.638c-.071.416-.133.828-.236 1.237-.208.835-.344 1.682-.573 2.512-.14.508-.23 1.011-.295 1.535-.052.419-.044.837-.041 1.258.002.455.004.911.004 1.366 0 .441-.025.887.005 1.328.073 1.056.375 2.063.812 3.023.18.397.46.783.775 1.08.44.416.883.658 1.435.881.4.162.84.222 1.27.251.443.03.904-.036 1.335-.131a3.489 3.489 0 0 0 1.94-1.207c.266-.332.51-.668.705-1.047.2-.389.367-.798.52-1.207.21-.563.376-1.143.609-1.697l-.147.348c.208-.468.53-.863.822-1.279.27-.384.45-.825.733-1.199l-.227.293c.081-.102.17-.194.272-.276l-.293.227a5.54 5.54 0 0 1 1.19-.665l-.345.145a4.08 4.08 0 0 1 .91-.276l-.383.052a1.72 1.72 0 0 1 .43-.009l-.384-.051c.096.015.187.043.277.08l-.347-.146c.127.055.242.125.352.208a754.83 754.83 0 0 1-.294-.228c.182.143.338.311.48.493l-.23-.296c.463.611.736 1.334 1.165 1.965.704 1.033 1.61 1.983 2.792 2.447.643.252 1.397.237 2.058.064.56-.147 1.108-.422 1.609-.712.484-.28.953-.615 1.358-1.001.246-.235.453-.509.663-.776.522-.663 1.036-1.325 1.705-1.849l-.283.219c.254-.196.523-.369.818-.495l-.336.141c.179-.074.362-.128.555-.155l-.376.051c.151-.019.301-.019.453-.001a48.682 48.682 0 0 0-.378-.05c.116.017.223.046.332.089l-.34-.143c.358.155.63.441.964.638.278.164.599.257.858.453l-.294-.227c.078.062.146.133.208.21l-.227-.294c.111.147.199.308.271.478l-.147-.349c.182.457.24.951.42 1.409.132.334.276.633.483.924.222.31.463.605.696.906l-.232-.301c.3.39.562.821.936 1.145.425.369.905.684 1.46.818.65.157 1.289.097 1.9-.161a3.16 3.16 0 0 0 .847-.528c.212-.175.372-.391.534-.614.437-.6.589-1.358.756-2.066.194-.818.422-1.631.706-2.422.19-.532.31-1.09.528-1.611l-.153.363c.065-.152.138-.299.236-.432l-.237.307a.895.895 0 0 1 .15-.154l-.307.237a.534.534 0 0 1 .104-.06l-.363.153a.541.541 0 0 1 .088-.025l-.403.055a.407.407 0 0 1 .07-.003c.383.008.804-.176 1.073-.445.264-.263.462-.695.445-1.074-.038-.837-.667-1.499-1.518-1.518-.8-.018-1.482.516-1.85 1.191-.238.435-.397.918-.535 1.392-.11.381-.245.748-.372 1.124a24.069 24.069 0 0 0-.534 1.827c-.13.516-.22 1.049-.426 1.543l.154-.365c-.074.169-.16.33-.269.479l.238-.309a1.78 1.78 0 0 1-.298.305l.307-.238a1.817 1.817 0 0 1-.369.215l.362-.153a1.667 1.667 0 0 1-.392.106l.402-.054a1.693 1.693 0 0 1-.334 0l.4.053a1.71 1.71 0 0 1-.409-.109l.36.152a2.207 2.207 0 0 1-.46-.269l.304.235a2.965 2.965 0 0 1-.494-.497l.234.302c-.31-.404-.63-.798-.942-1.2l.232.3a3.279 3.279 0 0 1-.437-.708l.148.352c-.169-.424-.24-.877-.406-1.301-.11-.279-.224-.557-.397-.803a3.01 3.01 0 0 0-.812-.814c-.257-.179-.57-.26-.843-.413-.324-.181-.594-.441-.934-.596a3.097 3.097 0 0 0-1.17-.3c-.263-.016-.535.03-.79.075-.41.073-.816.259-1.172.474-.693.42-1.277 1.009-1.83 1.594-.532.563-1.005 1.212-1.616 1.694l.296-.229a7.1 7.1 0 0 1-1.569.891l.356-.15a3.33 3.33 0 0 1-.782.226l.399-.054a2.118 2.118 0 0 1-.546 0l.402.054a2.112 2.112 0 0 1-.435-.119l.362.153a3.688 3.688 0 0 1-.796-.479l.305.236a6.175 6.175 0 0 1-1.04-1.062l.234.302c-.475-.62-.776-1.345-1.235-1.975-.355-.488-.722-.91-1.238-1.235-.451-.284-1.026-.45-1.56-.401-.944.087-1.85.44-2.656.934a3.72 3.72 0 0 0-1.23 1.183c-.23.357-.412.737-.663 1.082-.154.213-.315.422-.461.64-.205.306-.35.627-.489.968-.132.323-.245.654-.367.982l.147-.349c-.162.307-.281.639-.442.948a6.025 6.025 0 0 1-.558.892l.244-.314c-.106.135-.212.27-.314.408l.243-.315c-.157.146-.29.308-.461.441l.323-.25a2.135 2.135 0 0 1-.43.256l.389-.164a1.994 1.994 0 0 1-.504.134l.44-.059a3.365 3.365 0 0 1-.857.002l.453.061a2.801 2.801 0 0 1-.655-.174l.416.175a2.398 2.398 0 0 1-.532-.307l.36.278a2.88 2.88 0 0 1-.435-.441l.282.365c-.102-.161-.203-.315-.28-.491l.184.437c-.13-.311-.225-.642-.327-.963a6.023 6.023 0 0 1-.232-.988l.066.49c-.088-.698-.03-1.421-.032-2.124 0-.698-.048-1.411.041-2.104l-.066.491c.063-.453.19-.89.311-1.33.137-.495.231-1 .335-1.502.103-.497.241-.987.323-1.488.08-.493.149-.986.344-1.449l-.186.442c.393-.91.766-1.834 1.065-2.781.248-.783.386-1.597.707-2.357l-.187.443a45.33 45.33 0 0 0 1.003-2.452c.246-.673.481-1.347.76-2.008l-.188.445c.64-1.508 1.425-2.991 2.428-4.292l-.292.377c.301-.387.622-.757.937-1.132.4-.477.77-.976 1.149-1.468l-.29.376a6.67 6.67 0 0 1 1.156-1.146l-.375.289c.475-.365 1.001-.704 1.555-.939l-.441.186c.107-.041.214-.071.328-.091l-.49.066c.14-.019.278-.018.419-.002l-.49-.066c.444.066.843.275 1.258.433.44.168.924.168 1.361.338l-.438-.185c.098.043.186.096.271.16l-.37-.287c.318.253.6.563.963.756.251.133.53.243.806.319.156.042.311.081.461.141l-.436-.184c.15.068.284.158.415.258l-.37-.286c.357.277.693.561 1.097.762.268.133.54.254.782.433l-.368-.284c.193.152.36.334.54.5.273.25.564.479.867.691.354.248.732.462 1.11.673.756.423 1.53.822 2.22 1.35l-.35-.271a5.88 5.88 0 0 1 1.041 1.045l-.265-.343c.329.428.625.879.922 1.33a24.53 24.53 0 0 0 .893 1.275c.29.381.594.739.943 1.066.278.26.551.525.815.8.51.532.989 1.093 1.44 1.677l-.225-.291a24.61 24.61 0 0 1 1.918 2.928c.28.498.555.997.844 1.49.293.501.586 1.002.889 1.497.344.563.687 1.129 1.048 1.682.257.395.812.597 1.235.324a.923.923 0 0 0 .324-1.236Z"/><path fill="#008BFF" d="M19.276 108.87a1.064 1.064 0 0 0-.24-.306 1.405 1.405 0 0 0-.538-.307c-.276-.092-.566-.061-.844-.009-.2.037-.404.14-.568.263-.116.087-.249.18-.354.286-.105.107-.189.234-.28.352l.185-.239c-.034.044-.07.087-.105.13-.076.095-.154.191-.224.291a.378.378 0 0 0-.03.049l-.005.01a4.747 4.747 0 0 0-.126.299l-.006.021a3.065 3.065 0 0 0-.046.341v.024a1.334 1.334 0 0 0 .192.679l.008.011c.05.073.143.195.202.261.228.255.581.395.89.514.166.064.376.077.541.095.183.021.376-.019.553-.047a.696.696 0 0 0 .119-.027c.07-.022.139-.055.204-.083.064-.027.138-.054.202-.088a.439.439 0 0 0 .056-.034c.1-.07.206-.15.298-.23.11-.097.197-.235.28-.346a.966.966 0 0 0 .155-.482.982.982 0 0 0-.023-.517.984.984 0 0 0-.232-.442.986.986 0 0 0-.364-.334l-.31-.13a1.302 1.302 0 0 0-.69 0l-.31.13a1.31 1.31 0 0 0-.465.466 1.11 1.11 0 0 1-.024.033l.203-.262a.571.571 0 0 1-.094.093l.261-.202a.666.666 0 0 1-.126.072l.307-.13a.772.772 0 0 1-.183.048l.34-.045a.89.89 0 0 1-.218 0l.339.045a1.205 1.205 0 0 1-.305-.092l.302.127a1.05 1.05 0 0 1-.206-.105l.253.195a.17.17 0 0 1-.032-.031l.194.252a.134.134 0 0 1-.013-.024l.125.296a.153.153 0 0 1-.007-.025l.044.327a.17.17 0 0 1 0-.039l-.044.326c.007-.05.027-.097.046-.143.027-.067.05-.134.078-.2l-.118.279a1.16 1.16 0 0 1 .146-.244l-.176.228c.044-.056.095-.103.143-.155.045-.048.086-.097.139-.138l-.21.161a.595.595 0 0 1 .124-.073l-.236.099a.47.47 0 0 1 .11-.031l-.252.034a.403.403 0 0 1 .092 0l-.244-.033a.397.397 0 0 1 .107.03l-.211-.089a.245.245 0 0 1 .024.011l.21.088a.657.657 0 0 0 .348.016c.079 0 .152-.02.22-.06a.647.647 0 0 0 .282-.181l.137-.177.088-.208a.664.664 0 0 0 .015-.349.65.65 0 0 0-.103-.325Zm-2.828 6.95-.006-.004.343.343c-.06-.09-.13-.174-.198-.259l-.013-.017a15.66 15.66 0 0 0-.224-.173 4.903 4.903 0 0 0-.419-.169 3.512 3.512 0 0 0-.327-.045c-.125.009-.25.03-.374.049l-.062.012c-.139.032-.28.104-.402.161a.5.5 0 0 0-.075.041 4.53 4.53 0 0 0-.32.253l-.018.02a4.55 4.55 0 0 0-.218.282c-.089.124-.14.288-.191.422-.05.127-.052.308-.064.416a.786.786 0 0 0-.002.166c.014.148.035.298.06.444.01.056.023.11.044.163.023.059.099.269.164.38a.63.63 0 0 0 .015.024l.009.012c.056.078.157.213.22.285.05.057.119.099.175.143.052.04.113.098.178.131.053.028.28.122.338.143l.011.004.02.006.009.002c.063.013.311.044.377.05l.024.002a1.36 1.36 0 0 0 .487-.075c.117-.046.24-.095.353-.149a.487.487 0 0 0 .105-.065c.114-.084.23-.169.336-.262.038-.032.073-.068.107-.105.113-.125.212-.263.312-.397.03-.04.057-.081.082-.123.106-.167.164-.347.172-.54a1.1 1.1 0 0 0-.025-.579l-.147-.346a1.46 1.46 0 0 0-.52-.521l-.347-.146a1.106 1.106 0 0 0-.579-.026 1.083 1.083 0 0 0-.539.172l-.294.227c-.18.181-.304.395-.373.64l-.003.008.146-.347c-.047.11-.107.214-.18.308l.223-.288a.94.94 0 0 1-.15.155l.286-.221a.47.47 0 0 1-.092.056l.336-.142c-.118.049-.236.098-.354.149l.335-.141a.254.254 0 0 1-.054.013l.371-.05a.192.192 0 0 1-.048 0l.37.05a.157.157 0 0 1-.046-.013l.331.141a.342.342 0 0 1-.045-.027l.28.216a.335.335 0 0 1-.055-.054l.216.278a.595.595 0 0 1-.074-.131l.137.326a.997.997 0 0 1-.07-.246l.049.357a.865.865 0 0 1-.007-.215l-.046.347a.427.427 0 0 1 .027-.1l-.13.306a.43.43 0 0 1 .059-.099l-.197.254a.591.591 0 0 1 .102-.099l-.248.192c.114-.087.224-.13.333-.248.024-.025.047-.051.072-.075a.97.97 0 0 0 .26-.347l-.15.194.004-.005a.948.948 0 0 0 .245-.42.719.719 0 0 0 .017-.379.71.71 0 0 0-.113-.354.958.958 0 0 0-.341-.341Z"/><path fill="#0A0A0A" d="M42.534 61.455a27.649 27.649 0 0 0-.208-.758c-.073-.25-.093-.52-.136-.776a8.379 8.379 0 0 0-.154-.75c-.065-.245-.133-.49-.203-.735-.143-.5-.29-1-.457-1.492-.13-.386-.294-.758-.448-1.136a8.42 8.42 0 0 1-.255-.694 4.223 4.223 0 0 1-.088-.328c-.025-.113-.077-.219-.111-.33-.102-.335-.34-.688-.658-.856l-.343-.144c-.19-.06-.38-.069-.571-.026-.13 0-.25.033-.362.098a1.074 1.074 0 0 0-.46.296c-.253.275-.434.63-.42 1.013.003.085.01.168.021.252.02.157.02.326.078.476.062.16.13.317.199.475.075.174.163.343.256.508.19.338.4.662.597.995.214.362.402.742.597 1.115.213.409.42.82.62 1.236.223.463.492.904.708 1.37l-.086-.205c.095.279.185.559.271.84a.88.88 0 0 0 .385.5.852.852 0 0 0 .644.084c.436-.141.701-.575.584-1.028Zm6.966-2.899c.058-.136.126-.27.167-.413l.06-.22c.02-.074.042-.147.063-.22.049-.167.064-.331.087-.506l-.043.32c.069-.503.143-1.005.202-1.51.048-.408.1-.816.153-1.224.106-.815.215-1.63.297-2.448a31.756 31.756 0 0 0 .085-1.035c.017-.256-.022-.469-.06-.734l-.153-.36a1.139 1.139 0 0 0-.388-.424.753.753 0 0 0-.333-.194 1.136 1.136 0 0 0-.581-.13 1.79 1.79 0 0 0-.762.206 1.14 1.14 0 0 0-.423.389 1.135 1.135 0 0 0-.27.513c-.036.238-.075.473-.068.714a25.878 25.878 0 0 1 .011 1.055 50.21 50.21 0 0 1-.03 1.4c-.015.46-.033.92-.05 1.379-.015.464-.049.935-.032 1.4.01.307.017.615.058.92.04.293.097.613.21.887.066.158.13.31.253.434a.97.97 0 0 0 .566.27.94.94 0 0 0 .51-.066c.177-.075.39-.219.47-.403Zm6.519.719c.126-.125.247-.256.363-.39.116-.136.27-.243.4-.364.129-.118.251-.238.36-.373.157-.194.308-.391.456-.59l-.149.192c.228-.28.448-.566.664-.855.168-.225.304-.48.45-.72.296-.489.598-.974.905-1.455.176-.274.36-.541.558-.8l-.227.295a8.13 8.13 0 0 1 .325-.396c.191-.219.403-.421.533-.686l.15-.354c.062-.198.07-.395.026-.592a.739.739 0 0 0-.101-.375 1.113 1.113 0 0 0-.307-.478 1.765 1.765 0 0 0-.655-.381 1.124 1.124 0 0 0-.592-.027 1.104 1.104 0 0 0-.552.176c-.136.094-.295.198-.405.306-.113.112-.202.251-.293.383a8.458 8.458 0 0 0-.465.759 12.39 12.39 0 0 0-.5 1.05c-.196.458-.362.923-.523 1.393-.124.362-.267.723-.367 1.092a9.443 9.443 0 0 1-.405 1.222l.088-.21c-.13.309-.239.625-.368.934l.07-.168c-.07.167-.169.304-.279.448l.101-.13a7.54 7.54 0 0 1-.158.198c-.11.132-.186.27-.186.448 0 .156.069.341.186.448.253.233.646.25.897 0Zm6.948 5.32c.345-.31.663-.645.982-.981.154-.163.308-.325.466-.484.082-.081.167-.16.248-.242.14-.14.241-.32.353-.484l.105-.248a.786.786 0 0 0 .018-.414.987.987 0 0 0-.285-.596 1.235 1.235 0 0 0-.458-.267 1.044 1.044 0 0 0-.8.105c-.196.13-.4.26-.55.442-.102.122-.2.246-.297.371-.24.31-.476.623-.715.933l.159-.205c-.188.243-.38.482-.584.711-.17.19-.282.419-.282.68 0 .235.105.517.282.68.183.167.423.292.679.28.263-.011.483-.104.68-.28Zm-25.069 59.761-.045-.183a1.113 1.113 0 0 0-.776-.776c-.402-.111-.777.02-1.081.286-.666.583-.896 1.489-1.177 2.292l.128-.305c-.09.152-.132.315-.193.476l.13-.308c-.223.506-.486.988-.684 1.504a47.85 47.85 0 0 1-.535 1.339l.151-.357c-.245.579-.5 1.139-.597 1.764-.099.631-.115 1.251-.161 1.886l.057-.428c-.057.398-.084.798-.136 1.196l.057-.43c-.07.522-.156 1.042-.218 1.566-.047.389-.056.777-.066 1.169-.02.78-.056 1.559-.043 2.339.015.888.095 1.788.289 2.656.196.877.561 1.716.924 2.535.162.368.317.761.542 1.096.288.431.65.786.976 1.185l-.26-.336c.2.26.334.554.482.844.195.381.457.718.739 1.04.471.538 1.025.993 1.606 1.408 1.04.744 2.248 1.227 3.472 1.574.774.219 1.572.438 2.374.515l-.404-.054c1.231.236 2.513.148 3.755.068 1.085-.069 2.15-.19 3.132-.692l-.303.128c1.177-.488 2.194-1.239 2.944-2.276.327-.453.558-.984.69-1.525.175-.71.334-1.419.43-2.144.104-.792.14-1.623-.028-2.41l.035.26c-.084-.716-.39-1.374-.74-1.997a8.127 8.127 0 0 0-.292-.483 2.156 2.156 0 0 0-.086-.117c-.074-.094-.076-.098-.006-.011l-.024-.046c-.118-.278-.331-.542-.518-.776a3.252 3.252 0 0 0-.648-.602c-.273-.196-.595-.315-.904-.441l-.105-.043c-.017-.007-.107-.036-.016-.006.096.031-.089-.042-.118-.056a2.696 2.696 0 0 1-.39-.238c-.122-.088.033.018.033.026a59.457 59.457 0 0 0-.19-.151c-.12-.095-.243-.199-.379-.272-.59-.32-1.323-.291-1.966-.182a3.694 3.694 0 0 0-.827.26c-.275.116-.56.236-.808.404-.95.643-1.395 1.755-1.607 2.843-.045.227-.08.455-.11.684l-.05.372c-.006.052-.033.127.01-.07-.006.031-.009.063-.014.094-.024.162-.053.323-.083.484-.068.367-.131.734-.17 1.106-.035.321-.029.644-.035.967-.007.339-.015.678-.015 1.017 0 .383.058.767.134 1.142.028.139.059.278.088.417a9.332 9.332 0 0 1 .079.425l-.016-.122c-.001.133.033.277.05.409.027.205.053.411.085.616.091.578.259 1.143.546 1.656.167.3.387.568.608.829.106.125-.036-.036-.037-.051.001.016.064.087.069.093a7.61 7.61 0 0 1 .36.559c.3.512.554 1.048.876 1.547a6.528 6.528 0 0 0 1.273 1.458c.486.41 1.008.775 1.53 1.138.479.335.944.679 1.458.961.59.322 1.21.591 1.837.829.262.099.527.204.798.275.286.075.586.109.88.131.514.04 1.034.016 1.545-.05.314-.041.615-.085.916-.186.13-.043.26-.088.394-.117.028-.006.059-.008.085-.016-.196.061-.15.018-.068.014.093-.005.188-.015.281-.022.369-.03.741-.069 1.102-.154a5.944 5.944 0 0 0 1.018-.364c.579-.256 1.094-.614 1.582-1.013.493-.403.947-.859 1.276-1.408.301-.501.502-1.055.805-1.555.147-.243.308-.479.437-.733.168-.33.284-.675.373-1.033.167-.67.265-1.366.283-2.057a8.206 8.206 0 0 0-.206-2.056c-.15-.65-.393-1.256-.821-1.773-.74-.893-1.96-1.156-3.069-1.134-.363.006-.763.081-1.07.288-.334.226-.57.535-.786.872-.289.451-.543.934-.773 1.417-.49 1.032-.892 2.155-1.055 3.29-.094.66-.117 1.285-.02 1.946.09.604.337 1.188.631 1.719.314.566.711 1.079 1.108 1.587l.124.16c.045.057.186.279.021.026.076.116.164.226.242.34.18.262.36.529.581.758.278.289.616.505.99.644.255.095.527.122.778.228l-.242-.102c.438.196.832.462 1.286.627.315.114.664.151.993.193a6.42 6.42 0 0 0 1.621-.009c1.292-.164 2.598-.6 3.536-1.544a3.08 3.08 0 0 0 .633-.874c.175-.387.358-.857.342-1.291l-.034.253.013-.079c.041-.261.042-.496-.096-.733-.116-.198-.342-.386-.569-.437-.456-.104-1.087.138-1.17.664-.014.067-.004.054.03-.037.073-.152.053-.101-.059.153l-.022.076c-.02.069-.047.135-.07.203-.04.107.11-.244.046-.113l-.04.085c-.03.062-.064.122-.1.181-.064.107-.14.206-.211.307-.018.025-.037.05-.054.076-.066.095.178-.221.082-.107-.044.052-.088.104-.135.154a3.15 3.15 0 0 1-.271.259l-.073.06c-.128.107.225-.165.088-.069-.052.037-.104.075-.157.11-.23.152-.474.279-.726.388l.246-.104a6.112 6.112 0 0 1-1.521.409l.272-.036a6.297 6.297 0 0 1-1.674.008l.271.037a3.225 3.225 0 0 1-.757-.184l.242.103c-.323-.14-.618-.335-.94-.476a3.434 3.434 0 0 0-.627-.22 8.41 8.41 0 0 1-.216-.05c-.044-.011-.086-.026-.13-.037-.162-.043.183.098.077.032-.01-.007-.21-.112-.205-.129.004-.009.204.174.085.061-.025-.023-.05-.044-.074-.068a2.23 2.23 0 0 1-.135-.145c-.022-.026-.127-.16-.014-.014.108.141.013.016-.011-.017-.227-.314-.45-.627-.69-.931l-.304-.384a40.23 40.23 0 0 0-.16-.201l-.07-.09a8.496 8.496 0 0 1-.524-.783 6.142 6.142 0 0 1-.238-.459c-.026-.056-.053-.162.027.068-.013-.037-.03-.073-.043-.11a3.467 3.467 0 0 1-.178-.639c-.007-.038-.02-.081-.02-.12 0 .004.028.258.015.104-.007-.083-.016-.166-.02-.249a5.782 5.782 0 0 1 .024-.907c.008-.074.071-.342.003-.049.016-.069.022-.143.034-.214a7.826 7.826 0 0 1 .376-1.422c.049-.135.102-.268.154-.401.07-.173-.07.161-.02.046l.042-.095a13.016 13.016 0 0 1 1.007-1.859c.04-.062.084-.122.126-.183.085-.126-.04.052-.05.062.028-.027.052-.065.078-.095l.074-.076c.074-.088-.167.103-.07.051.103-.053.095-.008-.073.018.038-.006.076-.026.113-.035.101-.025.128.02-.085.005.03.002.068-.005.097-.007.067-.003.133-.002.2 0a14.222 14.222 0 0 1 .579.038c.161.015-.048-.001-.09-.015.07.022.15.025.223.041.145.032.279.084.42.127-.299-.091-.08-.034.006.012.063.033.124.069.182.108l.07.048c.138.092-.18-.158-.059-.044.052.049.106.095.155.147.073.076.17.261.02.008.038.064.086.123.124.187.04.068.074.137.11.207.033.068.02.128-.039-.093.013.047.036.094.052.141.133.386.22.787.276 1.191l-.035-.254a7.97 7.97 0 0 1-.013 2.093l.034-.255c-.058.407-.139.81-.25 1.206-.017.065-.092.213-.087.279-.008-.099.081-.176.03-.073-.025.051-.049.102-.075.152-.089.169-.19.329-.29.491-.398.639-.637 1.371-1.071 1.987-.019.026-.052.061-.067.091l.08-.104a4.782 4.782 0 0 1-.075.087 8.403 8.403 0 0 1-.804.75c-.05.041-.17.123.039-.028l-.09.067a5.613 5.613 0 0 1-.95.576c-.044.022-.11.039-.15.07.012-.009.221-.088.073-.031-.104.04-.208.08-.315.114a4.168 4.168 0 0 1-.539.137c-.032.006-.219.013-.055.012.167-.001-.025.002-.053.006-.111.012-.222.021-.333.03-.257.021-.516.036-.767.095-.188.043-.366.117-.55.171-.144.042-.29.062-.438.089.344-.061.063-.009-.022 0a7.256 7.256 0 0 1-1.265.03c-.081-.005-.162-.013-.243-.021-.152-.016.112.015.112.015-.036.006-.098-.015-.133-.022a3.378 3.378 0 0 1-.442-.124 15.36 15.36 0 0 1-.798-.295l-.14-.057c-.198-.08.2.088.004.001-.367-.163-.73-.335-1.08-.532-.66-.37-1.272-.834-1.888-1.272a24.15 24.15 0 0 1-.412-.302c-.164-.122.17.137.011.009l-.088-.071a6.5 6.5 0 0 1-.622-.563 5.32 5.32 0 0 1-.258-.289l-.07-.086a.99.99 0 0 0 .06.073c-.442-.636-.772-1.33-1.173-1.989a6.294 6.294 0 0 0-.321-.482 9.53 9.53 0 0 0-.29-.373l-.076-.091c-.026-.029-.05-.06-.076-.09l.075.098c-.02-.072-.115-.162-.158-.229a3.1 3.1 0 0 1-.179-.324c-.012-.026-.082-.186-.016-.029.066.156 0-.004-.01-.031a3.768 3.768 0 0 1-.049-.143 6.019 6.019 0 0 1-.206-.94l-.017-.135-.034-.275a9.999 9.999 0 0 0-.13-.798c-.04-.189-.083-.376-.118-.566l-.026-.15c-.03-.177.014.063.009.065.004-.002-.023-.347-.024-.38-.012-.437 0-.874-.003-1.311 0-.195-.004-.388.009-.582a6.84 6.84 0 0 1 .029-.305c.023-.206-.026.167-.004.033.01-.07.02-.139.032-.208.071-.441.141-.88.192-1.323l.023-.201c.021-.177-.034.235-.008.057l.014-.092c.024-.164.052-.327.085-.489a5.69 5.69 0 0 1 .252-.89c.025-.066.105-.194-.018.038.014-.027.025-.057.038-.085a3.454 3.454 0 0 1 .22-.399 2.343 2.343 0 0 1 .103-.147l-.082.108c.108-.088.212-.217.31-.318.09-.093-.058.044-.071.051.032-.018.062-.045.092-.065a5.626 5.626 0 0 1 .503-.295c.05-.026.212-.073.235-.115-.005.01-.192.075-.057.024l.118-.043c.087-.031.175-.057.264-.079.03-.007.238-.029.25-.049-.022.035-.17.016-.052.008.056-.003.11-.008.167-.01.088-.004.176-.004.264 0 .022.001.122.02.134.009-.032.029-.192-.038-.025.005.026.007.052.017.079.024.142.038-.167-.092-.044-.017.049.03.099.057.146.09.131.089.253.19.383.28.352.244.765.376 1.162.528.022.008.094.027.105.041l-.073-.031.077.035c.076.036.15.075.223.119.017.01.124.065.129.086-.001-.003-.138-.117-.032-.023.076.066.15.132.22.205.052.055.1.114.15.171.072.08-.102-.142-.002-.005l.06.084a4.382 4.382 0 0 1 .247.398c-.039-.082-.049-.098-.029-.049.083.322.209.634.291.958.022.084.042.167.06.252l.034.184c.027.143-.026-.053-.007-.059-.01.003.04.55.043.604.02.41-.002.82-.054 1.227l.037-.278a13.167 13.167 0 0 1-.35 1.638c-.132.492-.259 1.003-.456 1.474l.117-.277a3.61 3.61 0 0 1-.456.764l.185-.24c-.24.305-.519.572-.824.81l.247-.191a6.07 6.07 0 0 1-1.315.759l.302-.127a5.917 5.917 0 0 1-1.454.403l.348-.047c-.513.067-1.038.052-1.554.049a14.008 14.008 0 0 1-1.819-.124l.386.052c-1.362-.187-2.701-.62-3.966-1.152l.388.164c-.862-.366-1.7-.779-2.444-1.354l.334.258a7.282 7.282 0 0 1-1.236-1.219l.259.335c-.258-.346-.398-.755-.622-1.12-.284-.462-.68-.827-1.01-1.251l.26.336c-.33-.438-.532-.981-.745-1.483l.169.398c-.373-.889-.682-1.794-.814-2.752l.06.441c-.117-.888-.123-1.786-.11-2.68.011-.904.006-1.801.126-2.698l-.058.431c.092-.681.219-1.37.194-2.06-.017-.494-.04-.987.02-1.479l-.055.41c.065-.482.224-.93.374-1.391.083-.253.162-.508.24-.763.109-.357.23-.704.248-1.082l-.05.376.14-.689c.053-.259.141-.551.137-.812l-.045.339c.087-.494.136-1.003.325-1.472l-.116.275c.06-.141.132-.272.226-.393l-.175.225.029-.034-1.745-.225.074.171c.097.224.424.451.655.503.245.056.48.043.713-.055a1.1 1.1 0 0 0 .634-1.292Z"/><path fill="#008BFF" d="M116.257 37.788c-1.16 3.623-2.425 7.396-2.912 11.181-.553 4.29-.693 8.588-1.15 12.883-.335 3.15-.242 6.305-.24 9.47.001 3.241.1 6.356.579 9.557.185 1.236.372 2.603.431 3.85.047.99-.119 1.977.056 2.964.161.907.149 1.838.324 2.733.248 1.27.721 2.47.935 3.763.548 3.302 1.563 6.225 2.802 9.299 1.022 2.539 2.469 5.233 4.468 7.128.574.544 1.191.666 1.791 1.136.563.441.708.75 1.432.854 1.356.194 2.796.475 4.198.326.56-.059.826-.319 1.338-.518.727-.281 1.437-.212 2.15-.639 1.183-.708 2.301-1.629 3.326-2.553.686-.62.991-1.383 1.533-2.106.552-.737.908-1.225 1.246-2.101.552-1.428.979-2.903 1.524-4.332.989-2.591 1.618-5.29 2.317-7.952.342-1.306.382-2.607.622-3.94.142-.794.356-1.533.549-2.317.222-.904.04-1.783.226-2.69a11.66 11.66 0 0 0 .249-2.48c.003-.744.274-1.334.357-2.054.187-1.635-.017-3.421-.017-5.07V69.9c0-1.593.243-3.407.017-4.978-.088-.606-.327-1.11-.356-1.73-.028-.596.003-1.208.006-1.805.006-.782-.095-1.359-.256-2.094-.138-.635.065-1.29-.056-1.912-.121-.62-.345-1.04-.356-1.704a77.864 77.864 0 0 1 .007-2.267c.015-1.274-.343-2.56-.589-3.796-.216-1.086-.28-2.11-.469-3.203-.225-1.302-.721-2.5-.928-3.793-.206-1.287-.789-2.558-1.322-3.754-.55-1.234-.758-2.743-1.487-3.848-.42-.638-.522-1.29-.881-1.943-.472-.858-1.437-1.193-2.076-1.904-.935-1.04-1.985-2.2-3.294-2.798-.571-.26-1.311-.404-1.926-.604-.389-.127-.831-.11-1.204-.23-.37-.12-.561-.317-.911-.476-1.115-.507-3.094.02-3.972.823-.668.612-1.477 1.016-2.139 1.622-.588.539-.925 1.268-1.473 1.841-.948.99-1.617 2.127-2.357 3.285-.593.925-.932 2.125-1.284 3.144-.39 1.127-.984 2.444-1.159 3.653"/><path fill="#008BFF" d="M115.738 37.645c-.276.864-.538 1.73-.882 2.57a97.54 97.54 0 0 0-1.012 2.563c-.624 1.667-1.057 3.439-1.384 5.189-.687 3.688-.931 7.444-1.313 11.172-.191 1.861-.454 3.714-.564 5.583-.107 1.83-.123 3.665-.149 5.499-.054 3.723-.001 7.4.51 11.096l.042.3c.008.058.042.324.003.017.026.206.053.413.078.62.051.415.096.832.134 1.25.078.88.085 1.743.051 2.626-.017.44-.021.877.026 1.316a12.733 12.733 0 0 0 .112.795c-.03-.207.013.13.017.176.014.134.026.27.037.404.084.976.191 1.94.435 2.89.212.827.477 1.64.651 2.474.174.83.297 1.668.487 2.495.382 1.668.893 3.304 1.476 4.912 1.163 3.209 2.489 6.352 4.659 9.021.56.688 1.172 1.354 1.915 1.848.306.204.643.353.96.535.082.047.159.107.243.15.223.114-.19-.175-.019-.02.125.113.255.223.385.33.408.339.789.592 1.298.755.396.127.835.149 1.246.207.986.141 1.98.292 2.979.283.49-.004 1.004-.036 1.482-.146.452-.104.863-.343 1.275-.549.28-.14.047-.01-.007.005.096-.027.19-.061.287-.087.189-.051.381-.086.572-.128a5.211 5.211 0 0 0 1.465-.537c.815-.462 1.567-1.077 2.286-1.672.623-.515 1.285-1.047 1.796-1.676.556-.684.955-1.469 1.474-2.18a9.41 9.41 0 0 0 1.153-2.043c.663-1.627 1.139-3.335 1.73-4.989.602-1.684 1.077-3.412 1.526-5.142.224-.863.457-1.725.666-2.592.218-.9.316-1.827.428-2.745l.038-.316c.039-.308.021-.153.011-.085.03-.214.063-.427.101-.639.079-.442.183-.879.293-1.315.236-.94.418-1.84.432-2.814.003-.21.012-.42.017-.63.001-.022.024-.285-.001-.088.01-.08.029-.159.044-.237.093-.488.168-.98.219-1.475.04-.386.055-.773.063-1.161l.005-.314c.001-.039.036-.288.001-.062.033-.216.091-.429.141-.642.417-1.75.263-3.543.204-5.322-.062-1.835-.049-3.685-.022-5.52.027-1.78.286-3.595-.106-5.354-.037-.166-.085-.33-.129-.494a9.138 9.138 0 0 1-.074-.28c-.007-.03-.074-.32-.046-.17.029.154-.012-.163-.013-.193-.006-.108-.008-.217-.01-.326-.004-.247-.001-.494.002-.74.013-.93-.042-1.829-.229-2.742-.08-.39-.093-.503-.072-.969.023-.54-.005-1.066-.14-1.594-.08-.313-.192-.618-.25-.938-.04-.219.006.195.001-.049-.003-.105-.007-.21-.009-.316a88.498 88.498 0 0 1-.006-.73c-.003-.962.007-1.897-.131-2.852-.126-.876-.347-1.73-.523-2.596-.186-.92-.245-1.617-.383-2.551a20.197 20.197 0 0 0-.568-2.549c-.234-.832-.374-1.674-.577-2.51-.217-.894-.577-1.745-.94-2.588a63.24 63.24 0 0 0-.256-.585c-.043-.096-.088-.192-.128-.29.076.184-.009-.03-.019-.056a24.596 24.596 0 0 1-.372-1.125c-.243-.792-.491-1.595-.884-2.328-.089-.166-.194-.32-.288-.48-.053-.09-.1-.183-.147-.276-.004-.008-.099-.237-.04-.091-.186-.459-.338-.933-.569-1.372-.401-.761-1.07-1.253-1.748-1.75a6.787 6.787 0 0 1-.198-.148c.046.037.18.156-.013-.017a4.73 4.73 0 0 1-.313-.3c-.266-.285-.517-.585-.783-.87a12.582 12.582 0 0 0-1.908-1.695c-.705-.5-1.5-.814-2.326-1.052-.364-.105-.729-.24-1.099-.318-.158-.033-.319-.05-.478-.074a3.761 3.761 0 0 1-.266-.048c-.105-.024-.271-.102-.092-.01-.373-.192-.701-.413-1.097-.566-.365-.142-.768-.187-1.157-.21-.725-.042-1.5.095-2.185.335a5.928 5.928 0 0 0-1.965 1.117c-.076.066-.15.133-.227.197.151-.126-.038.03-.059.046-.161.117-.325.23-.488.344a15.4 15.4 0 0 0-1.193.891c-.35.297-.627.648-.902 1.014-.11.149-.216.3-.323.451l-.16.227c-.049.068-.198.243-.067.092-.583.678-1.16 1.343-1.665 2.084-.456.668-.924 1.354-1.308 2.066-.401.742-.668 1.546-.913 2.35-.451 1.48-1.083 2.937-1.324 4.472-.104.667.171 1.428.907 1.596.621.141 1.483-.19 1.595-.906.238-1.513.978-2.924 1.501-4.35.281-.765.392-1.147.829-1.887.39-.661.818-1.31 1.255-1.941.113-.163.228-.325.348-.483-.039.05-.137.167.047-.06.063-.078.126-.155.191-.231.251-.295.525-.568.764-.873.261-.336.501-.685.754-1.027.139-.188-.127.144.028-.032.061-.07.121-.14.185-.207.049-.05.099-.1.15-.147-.002.002.343-.288.166-.15.65-.507 1.445-.893 2.013-1.5.127-.135-.234.137-.062.047.061-.032.117-.078.176-.114.11-.068.225-.125.338-.185.233-.124.017-.012-.033.008a5.296 5.296 0 0 1 1.152-.313c-.367.06.11.003.194.001.124-.002.328-.028.446.02-.003 0-.278-.075-.129-.01.072.032.168.047.247.067.225.056.001.005-.042-.02.074.042.148.082.222.125.144.084.285.166.438.234.51.228.985.271 1.531.36-.267-.043.147.05.223.072.185.053.37.105.556.155.375.098.756.19 1.118.331.217.085-.168-.086.039.024.082.043.166.084.247.13.143.08.282.165.418.255.035.023.448.33.283.198.166.133.327.274.484.418.532.486.994 1.035 1.504 1.543.286.285.621.524.948.76l.351.251c.173.125-.146-.125.016.011.078.066.156.13.229.201.059.057.114.116.17.176-.041-.044-.124-.206.01.02.061.104.181.331.196.365.146.331.327.875.521 1.272.158.322.371.611.53.933.03.061.058.122.086.184-.082-.181.011.027.022.055.073.196.143.392.209.59.244.741.455 1.488.759 2.208.33.78.642 1.404.913 2.183.28.802.393 1.628.598 2.449.196.782.453 1.547.633 2.332.189.824.238 1.494.35 2.348.118.894.292 1.77.472 2.653.175.856.271 1.457.258 2.349-.013.834-.086 1.7.018 2.53.052.407.142.787.249 1.18.118.433.11.5.083.97-.028.485-.015.931.074 1.413.038.2.084.4.119.6.017.096.034.192.046.288-.02-.156-.005-.02.001.058.062.86-.04 1.72.012 2.58.027.447.108.887.22 1.32.049.19.096.377.138.568.053.242-.016-.182.015.066.015.124.025.251.033.377.115 1.653-.09 3.322-.092 4.978-.002 1.752-.033 3.506.035 5.257.033.852.073 1.706.04 2.56a14.319 14.319 0 0 1-.045.739c.016-.135-.017.108-.017.108-.078.409-.198.808-.267 1.218-.078.466-.092.912-.107 1.38-.007.193-.017.385-.032.578-.008.093-.063.562-.028.316-.07.485-.182.96-.236 1.447-.046.42-.041.84-.053 1.263-.003.105-.012.21-.013.315 0 .022-.02.286.004.085-.022.187-.076.37-.122.552-.11.434-.227.867-.329 1.303-.207.882-.321 1.78-.432 2.678l-.039.315-.025.197c.018-.134-.018.124-.017.118-.016.105-.031.21-.048.314-.075.45-.175.89-.291 1.331-.212.81-.419 1.623-.633 2.434-.442 1.678-.913 3.348-1.53 4.972a84.107 84.107 0 0 0-.869 2.388c-.134.388-.267.776-.406 1.162-.074.206-.149.411-.226.616l-.118.307c-.039.102-.088.214-.014.048-.276.625-.66 1.171-1.069 1.714-.22.292-.418.593-.616.9-.103.16-.207.319-.316.474-.041.058-.081.118-.125.174.199-.252-.11.105-.126.121-.267.274-.574.516-.868.76a28.968 28.968 0 0 1-.67.54c.209-.161-.067.048-.106.077a17.607 17.607 0 0 1-1.483.992c-.091.053-.181.108-.277.154.209-.101.014-.016-.101.015-.355.097-.722.132-1.08.215-.467.108-.906.313-1.333.525-.056.027-.154.092-.22.107l.09-.041c.132-.055.121-.056-.033-.005-.055-.003-.323-.003.015.002-.106-.002-.219.014-.325.017a10.33 10.33 0 0 1-1.304-.047c-.108-.01-.217-.023-.325-.034-.061-.007-.344-.043-.025 0a34.555 34.555 0 0 1-.562-.084 37.291 37.291 0 0 1-1.29-.215c-.05-.009-.254-.084.001.011.244.092.05.011-.015-.03-.183-.114.263.26.121.092-.033-.038-.081-.071-.119-.105-.362-.322-.736-.64-1.155-.886-.295-.174-.604-.326-.902-.494-.264-.148-.055-.03.004.021-.075-.064-.146-.132-.217-.2-.135-.13-.267-.265-.396-.401a16.44 16.44 0 0 1-.747-.858c-.047-.057-.201-.265.009.016l-.129-.173a16.926 16.926 0 0 1-.378-.531c-.858-1.255-1.563-2.611-2.167-4.005-.022-.051-.139-.33-.05-.116.088.213-.025-.063-.046-.115-.07-.169-.138-.339-.206-.509-.166-.416-.33-.834-.489-1.253a53.732 53.732 0 0 1-.811-2.274 36.49 36.49 0 0 1-1.259-4.846c-.147-.8-.319-1.582-.543-2.365-.106-.372-.215-.743-.311-1.117-.051-.2-.1-.4-.142-.603-.022-.103-.041-.206-.061-.31-.027-.143-.029-.201-.008-.022-.051-.43-.079-.862-.122-1.292a24.235 24.235 0 0 0-.088-.711c-.021-.154-.033-.317-.068-.468-.018-.122-.019-.107-.003.045l-.016-.164c-.064-.873.028-1.747-.026-2.62-.056-.901-.175-1.796-.298-2.69-.053-.384-.11-.767-.17-1.15l-.098-.63-.048-.329-.023-.164.003.025a59.534 59.534 0 0 1-.415-5.167c-.138-3.521-.29-7.074-.163-10.597.065-1.78.252-3.554.359-5.332.107-1.78.213-3.56.302-5.34.088-1.746.182-3.505.419-5.238.234-1.712.651-3.387.992-5.078.169-.842.353-1.682.543-2.52.188-.828.475-1.63.734-2.438.212-.661-.827-.944-1.038-.286Z"/><path fill="#0A0A0A" d="M127.345 26.209c.43.036.821.178 1.218.342.347.144.714.341 1.045.56.037.025.073.05.111.074.2.127-.23-.185.056.036.146.112.324.167.497.226.177.06.356.12.535.177-.304-.096-.01-.021.049.056-.039-.05-.189-.155-.058-.038.037.034.073.069.108.104.144.146.273.307.399.47l-.187-.243c.163.214.325.429.491.64l-.199-.258c.243.363.58.654.904.943.255.228.506.459.761.685a6.93 6.93 0 0 0 1.027.772c.282.169.571.323.833.522l-.285-.22c.234.185.426.405.609.641l-.223-.288c.238.31.457.642.737.917.274.27.602.473.905.707l-.279-.215c.207.164.393.346.556.554l-.209-.27c.127.166.24.341.347.52.182.303.381.58.604.857.3.373.653.7.971 1.058.151.171.307.337.464.504.063.067.123.136.185.205.138.155-.147-.221-.035-.044l.115.188c.107.174-.072-.245-.016-.044.016.06.036.118.052.178.035.123.06.248.089.372.074.317.17.645.348.92.133.205.3.453.486.618-.171-.152-.066-.087-.016-.006.024.039.098.134.098.18l-.041-.098a2.553 2.553 0 0 1 .108.371c.052.228.087.46.142.687.079.326.216.635.39.921.067.109.13.217.192.329.1.183-.063-.162.006.036.065.186.001-.173.007.019.008.296.03.596.102.885.07.277.178.568.311.82.121.226.28.442.418.659l-.01-.048c.015.038.027.077.038.116.009.028.01.118.005.012.006.125-.001.248-.008.372-.019.3-.003.598.095.885.048.14.11.277.169.413.073.172-.037-.111.026.066.02.054.041.108.058.164.074.244.098.504.142.755.044.255.088.514.175.759.08.228.18.443.242.678.068.259.131.508.178.772.049.273.04.527.04.804-.001.566.172 1.135.314 1.678.07.269.142.538.195.811.047.245.031.502.024.75a4.97 4.97 0 0 0 .032.862c.036.252.107.5.135.753.061.57.012 1.168.004 1.74-.019 1.287-.021 2.573-.028 3.86-.003.532-.02 1.066-.018 1.598.002.49.033.993.39 1.362.361.375.931-.196.57-.57.055.056-.018-.064.006.014-.008-.026-.018-.05-.025-.078.002.008-.022-.127-.015-.07.007.059-.003-.09-.003-.078-.002-.08.002-.16.008-.24.002-.033.006-.065.009-.098.001-.014.018-.15.007-.066.052-.389.06-.758.058-1.15l-.015-2.838c-.006-.954.009-1.908-.006-2.863a5.984 5.984 0 0 0-.047-.745c-.031-.217-.083-.43-.114-.648-.062-.425.016-.858-.005-1.285-.023-.479-.162-.948-.277-1.41-.105-.419-.235-.855-.231-1.29.002-.221.024-.44-.001-.663-.025-.221-.095-.443-.095-.666 0-.112.025-.224.025-.336 0-.13-.026-.263-.062-.388-.054-.193-.14-.375-.195-.568-.061-.208-.09-.426-.122-.64a.661.661 0 0 1-.005-.04l-.022-.163c-.02-.15-.037-.302-.061-.451a2.831 2.831 0 0 0-.169-.554 3.892 3.892 0 0 1-.088-.243c-.015-.046-.026-.093-.04-.14-.045-.154-.008.094-.014-.071-.007-.209.032-.413.04-.62a1.925 1.925 0 0 0-.022-.33c-.009-.069-.015-.142-.038-.207-.014-.068-.02-.077-.018-.03.001.088-.007.04-.024-.146-.071-.4-.212-.772-.324-1.16a2.46 2.46 0 0 1-.032-.118c-.006-.021-.06-.26-.034-.136.028.128-.004-.067-.004-.081a2.761 2.761 0 0 1-.001-.182c.002-.276-.013-.557-.108-.819-.1-.274-.245-.535-.385-.791-.059-.109.058.195 0-.01-.018-.065-.039-.128-.054-.194-.003-.013-.06-.218-.02-.077.036.13-.01-.107-.013-.139-.051-.597-.112-1.167-.426-1.693-.101-.17-.216-.332-.322-.498-.103-.163.054.222.011.027-.013-.06-.033-.12-.046-.18a5.433 5.433 0 0 1-.063-.381l.037.269c-.021-.154-.039-.308-.064-.46l.037.27c-.038-.485-.144-.926-.388-1.352-.161-.283-.373-.534-.552-.806-.38-.578-.839-1.103-1.121-1.74l.13.307c-.122-.289-.234-.585-.385-.86a4.986 4.986 0 0 0-.517-.739c-.282-.348-.651-.603-.928-.956l.223.289c-.42-.55-.827-1.107-1.378-1.533-.489-.378-1.065-.607-1.555-.981l.281.217c-.331-.26-.648-.535-.994-.775a21.316 21.316 0 0 1-.823-.595l.264.204c-.464-.361-.937-.745-1.458-1.026a2.913 2.913 0 0 0-1.087-.352 4.466 4.466 0 0 0-.697-.02c-.078-.005-.078-.003.002.007.138.02.08.012-.175-.023-.255.04-.313.046-.173.02.084-.012.083-.018-.002-.017-.126-.018-.258-.015-.384-.02-.256-.01-.51-.038-.765-.056-.547-.037-1.095-.011-1.642-.033-.181-.007-.336.16-.336.337 0 .194.154.32.336.336Zm17.353 42.849.127.067a.448.448 0 0 0 .456 0 .455.455 0 0 0 .223-.39.455.455 0 0 0-.451-.452.447.447 0 0 0-.228.062l-.127.066a.376.376 0 0 0 0 .647Zm.024 4.241.311.006.156.003a.85.85 0 0 0 .303-.046c.093-.036.189-.069.277-.116.274-.147.441-.465.441-.77s-.167-.624-.441-.77c-.086-.046-.18-.079-.272-.114a.843.843 0 0 0-.308-.048l-.156.003-.311.007a.697.697 0 0 0-.356.079.697.697 0 0 0-.297.19.688.688 0 0 0-.19.298.69.69 0 0 0-.08.355l.033.245a.926.926 0 0 0 .237.407l.187.144a.919.919 0 0 0 .466.127Zm-.084 6.098.071-.019.035-.009a.895.895 0 0 0 .247-1.642 1.14 1.14 0 0 0-.247-.099l-.035-.01-.071-.018a.936.936 0 0 0-.906.24l-.146.188a.925.925 0 0 0-.127.47.694.694 0 0 0 .08.36.693.693 0 0 0 .193.3.928.928 0 0 0 .906.24Zm-.819 9.958c-.127.733-.241 1.467-.364 2.2-.12.715-.276 1.425-.421 2.134-.14.68-.239 1.37-.417 2.041-.186.703-.432 1.393-.679 2.076a49.62 49.62 0 0 1-.883 2.265l.09-.213c-.155.365-.321.726-.47 1.094-.12.296-.205.604-.328.899l.102-.242c-.165.386-.392.741-.574 1.119-.187.386-.337.809-.598 1.153l.174-.225c-.232.294-.533.517-.805.771a4.35 4.35 0 0 0-.865 1.18c-.195.377-.375.753-.599 1.114a4.566 4.566 0 0 0-.401.826c-.072.196-.121.4-.199.594l.124-.293a1.695 1.695 0 0 1-.208.359l.193-.249c-.173.221-.378.411-.561.622-.148.17-.291.348-.411.539-.079.125-.152.253-.239.374-.165.232-.349.452-.492.699-.142.248-.275.489-.45.717l.194-.252c-.283.364-.61.689-.907 1.041a7.704 7.704 0 0 0-.575.758c-.105.163-.198.336-.315.492l.194-.252a1.45 1.45 0 0 1-.248.247l.25-.194a1.513 1.513 0 0 1-.306.179l.294-.125c-.114.045-.23.074-.351.092l.326-.044a2.382 2.382 0 0 1-.266.021 3.89 3.89 0 0 0-.547.067 1.291 1.291 0 0 0-.67.325c-.049.045-.094.094-.139.142a.974.974 0 0 0 0 1.346c.205.224.419.399.731.475.238.058.482.096.728.088.482-.016.959-.12 1.374-.376.376-.233.641-.518.887-.881.151-.221.279-.453.442-.666l-.195.252c.457-.588 1.001-1.1 1.415-1.724.187-.282.326-.588.526-.862.098-.135.2-.267.292-.405.101-.151.184-.312.293-.457l-.193.249c.113-.145.24-.278.366-.413.187-.2.361-.412.52-.636.276-.387.348-.861.523-1.292l-.124.292c.122-.283.305-.532.453-.801.183-.333.31-.694.457-1.044l-.121.287a3.61 3.61 0 0 1 .445-.813l-.182.236c.139-.176.298-.335.455-.495.219-.223.422-.459.601-.716.189-.272.302-.593.421-.9.102-.265.196-.533.306-.796l-.106.252c.19-.447.432-.884.556-1.356.054-.209.082-.424.132-.634.055-.226.121-.45.187-.673.264-.889.487-1.793.69-2.698.209-.934.41-1.881.492-2.836.039-.455.056-.912.085-1.367.03-.47.068-.94.099-1.41a84.17 84.17 0 0 1 .283-3.21c.029-.279-.443-.345-.491-.067Z"/><path fill="#0A0A0A" d="M136.282 29.2c.579.04 1.155.117 1.734.153a5.02 5.02 0 0 0 1.618-.175c.246-.066.487-.143.729-.219.244-.076.491-.164.744-.204l.085-.013c-.098.015.013-.001.028-.003.055-.007.111-.012.166-.017a3.073 3.073 0 0 1 .582.007c.03.003.146.004.009 0 .022 0 .048.007.069.01.14.021.278.047.417.07.323.057.657.115.986.096.163-.009.329-.029.489-.058.098-.018.193-.046.292-.06l-.196.026a1.07 1.07 0 0 1 .244.001l-.209-.028c.29.04.581.184.877.158.438-.038.868-.179 1.159-.53.157-.188.265-.384.265-.638a.92.92 0 0 0-.265-.639c-.172-.158-.398-.275-.639-.264-.23.01-.48.085-.638.264a.86.86 0 0 1-.114.11l.183-.142a.752.752 0 0 1-.146.084l.217-.091a.86.86 0 0 1-.183.047l.243-.033c-.199.025-.396.05-.593.082-.133.02-.268.038-.396.08a1.711 1.711 0 0 0-.473.229c-.092.065-.179.133-.28.185l.154-.065a2.02 2.02 0 0 1-.425.1l.159-.021c-.447.058-.899.023-1.346.08-.463.057-.892.218-1.332.365-.415.14-.824.3-1.247.416a5.15 5.15 0 0 1-.473.108l-.069.011c-.112.018.063-.006-.05.007-.238.027-.479.046-.718.063-.551.04-1.105.045-1.657.083-.235.016-.235.348 0 .365Zm5.234 6.66c.207.042.407.005.607-.054l-.2-.026c.004.002.032.02.035.019.025.015.023.011-.006-.011-.035-.03-.03-.027.016.01a.364.364 0 0 0 .182.076 3.771 3.771 0 0 1 .009.002.876.876 0 0 0 .461.017c.208-.053.418-.097.631-.127l-.156.02c.537-.07 1.08-.09 1.619-.14a9.52 9.52 0 0 0 .921-.125c.262-.05.516-.133.78-.169l-.191.026c.229-.027.46-.011.69-.008.281.004.57-.017.84-.1.333-.101.638-.282.958-.418l-.182.076c.191-.08.393-.152.598-.183l-.198.027a.696.696 0 0 1 .117-.007.892.892 0 0 0 .431-.107l-.17.071a.334.334 0 0 1 .07-.02l-.172.022a.304.304 0 0 1 .061-.001l-.158-.021c.003 0 .064.014.063.015-.005.008-.132-.07-.087-.035.011.008.026.015.038.023.196.133.525.047.631-.166a.875.875 0 0 0-.029-.867c-.247-.412-.792-.455-1.215-.348-.414.103-.784.325-1.172.491l.181-.076c-.175.073-.36.113-.547.14l.2-.028c-.379.048-.762.031-1.139.106-.352.07-.685.214-1.036.29-.355.079-.716.13-1.076.182-.37.054-.736.104-1.088.236-.213.08-.43.165-.632.271a.818.818 0 0 0-.296.31c-.021.036.023-.032.024-.028l-.06.077a.284.284 0 0 0-.045.143c-.02.143 0-.014-.002-.013-.002 0-.017.051-.018.054l.119-.155a.709.709 0 0 1-.346.076c-.257-.021-.316.401-.061.453Zm9.66 7.473c-.584-.014-1.172.051-1.752.116-.283.031-.567.067-.851.098-.348.039-.691.114-1.038.162l.204-.028c-.77.101-1.555.09-2.33.104-.395.008-.791.001-1.186.012-.297.008-.55.07-.818.195-.133.063-.253.151-.388.21l.181-.076a.753.753 0 0 1-.159.046l.202-.027a.735.735 0 0 1-.118.004l.202 1.492a.83.83 0 0 0 .403-.24c.253-.26.287-.736 0-.992-.115-.103-.247-.206-.403-.233-.212-.035-.394-.024-.585.077a.73.73 0 0 0-.362.555c-.062.462.287.84.745.86.255.01.484-.067.709-.177.117-.057.223-.132.34-.188l-.182.076a.97.97 0 0 1 .243-.065l-.203.027c.233-.024.47.005.703.01l.775.016.756.013c.234.004.471.017.704-.013a9.994 9.994 0 0 0 1.525-.32c.436-.126.852-.325 1.276-.488a7.25 7.25 0 0 1 1.517-.414c.202-.032.32-.271.296-.454a.415.415 0 0 0-.406-.358Zm-5.792 9.218c1.083.012 2.165.097 3.248.105a15.18 15.18 0 0 0 1.609-.062c.283-.028.565-.066.844-.115.265-.046.53-.083.792-.144.61-.14 1.209-.32 1.831-.404l-.155.02c.082-.01.164-.023.246-.02l-.159-.021c.16.023.312.07.461.133l-.168-.07c.125.053.246.116.368.177.122.061.233.134.351.202l-.425-1.046-.008.03c-.13.489.161 1.026.657 1.159.154.04.349.052.5.004.166-.054.278-.137.417-.247l.147-.19a.703.703 0 0 0 .112-.35c.025-.189.009-.443-.112-.6l-.02-.027-.145-.188a.694.694 0 0 0-.298-.191.917.917 0 0 0-.603-.047c-.075.02-.15.037-.226.05l.221-.03c-.275.004-.545-.032-.819.002a5.674 5.674 0 0 0-1.036.241c-.613.197-1.198.474-1.815.657a4.333 4.333 0 0 1-.458.11 9.41 9.41 0 0 1-.33.054l-.052.007c-.063.01.069-.008.006 0-.313.04-.626.068-.941.085a25.94 25.94 0 0 1-1.912.019c-.709-.014-1.419-.04-2.128-.033-.191.002-.374.167-.366.365.009.2.161.363.366.365Zm0 8.449c.374.012.747.033 1.122.041.363.008.725.037 1.089.02.183-.009.364-.036.547-.047.174-.012.348-.006.522-.006.345 0 .688-.047 1.032-.002l-.195-.026c.385.055.76.153 1.15.179l1.069.069c.732.047 1.484.157 2.208-.012.202-.047.397-.134.581-.229.194-.1.354-.253.526-.388l-.188.146c.109-.084.222-.161.348-.215l-.206.087c.074-.029.153-.056.231-.068l-.214.03a.526.526 0 0 1 .117 0l-.206-.028c.217.038.434.058.632-.069.056-.036.112-.085.162-.128l-.131.101c.094-.07.186-.136.24-.244.111-.221.166-.547 0-.762a1.3 1.3 0 0 0-.366-.353 1.292 1.292 0 0 0-.324-.137c-.239-.068-.49-.036-.728.012-.304.062-.598.21-.878.331l.233-.098c-.124.05-.249.087-.381.105l.263-.035c-.232.029-.459-.002-.691.001-.283.004-.569.036-.851.055-.627.043-1.26.064-1.882.152l.224-.03c-.256.033-.514.052-.77.087a3.462 3.462 0 0 0-.405.07c-.157.04-.302.104-.451.168l.157-.066c-.285.115-.583.146-.88.212-.304.066-.597.168-.905.224a7.002 7.002 0 0 1-.223.037c-.037.006-.074.012-.112.016l-.037.005a5.066 5.066 0 0 1-.461.026c-.323.009-.646.01-.968.02-.196.006-.384.169-.375.375a.382.382 0 0 0 .375.375Zm7.166 5.001c-.014.004-.25.062-.253.053 0 0 .088-.01.035-.005l-.048.006a2.815 2.815 0 0 1-.127.01c-.145.006-.29.002-.435 0a5.461 5.461 0 0 0-1.042.103c-.038.007-.079.01-.117.02-.003 0 .12-.013.059-.009l-.068.007a2.09 2.09 0 0 1-.217.003c-.078-.002-.156 0-.234 0-.209.005-.423-.003-.632.01-.243.016-.484.039-.727.008l.151.02c-.036-.005-.071-.012-.107-.019-.146-.027-.206-.013-.352.002 0 0 .166-.011.087-.012l-.037.001a.988.988 0 0 0-.183.015c-.174.029-.347.252-.328.43a.782.782 0 0 0 .359.573c.128.077.29.11.438.132.309.047.616.074.928.037.215-.025.429-.06.644-.078a3.15 3.15 0 0 0 .652-.121c.087-.026.173-.053.261-.077.089-.023.203-.064.295-.06-.102-.005-.065.009-.028.005l.101-.012.145-.014c.098-.009.196-.018.294-.03.246-.032.483-.077.716-.164.212-.078.378-.296.302-.532a.441.441 0 0 0-.532-.302Zm-4.85 10.613c.6-.041 1.203-.072 1.8-.14.325-.036.65-.083.968-.16.174-.042.336-.1.497-.18.125-.061.244-.133.372-.189l-.143.06a.82.82 0 0 1 .198-.055l-.161.022a.67.67 0 0 1 .116.001l-.163-.022c.071.01.137.031.203.059l-.149-.063c.24.108.433.291.66.422.295.17.627.263.94.394l-.168-.071c.356.153.641.417 1.015.54.451.148.868-.03 1.31-.096l-.213.029c.164-.02.332-.003.497.008.275.017.63.031.858-.132.237-.169.398-.39.398-.694a.801.801 0 0 0-.398-.694c-.208-.153-.543-.15-.799-.144a5.291 5.291 0 0 0-.566.044 2.209 2.209 0 0 0-.474.12 1.971 1.971 0 0 1-.388.114l.203-.028a.773.773 0 0 1-.183 0l.201.026a1.112 1.112 0 0 1-.238-.071l.177.075c-.278-.121-.532-.281-.823-.376-.261-.084-.532-.132-.788-.234l.159.067c-.322-.137-.6-.361-.944-.452a1.186 1.186 0 0 0-.673.004 2.03 2.03 0 0 0-.509.273c-.056.04-.113.08-.172.115-.005.003-.084.055-.091.05 0 0 .14-.058.044-.02l-.064.026c-.152.06-.307.111-.464.158a9.676 9.676 0 0 1-.99.23c-.022.004-.083-.003-.028.006.051.01-.008.002-.029.004a23.233 23.233 0 0 1-.426.05l-.572.06c-.224.022-.443.181-.432.432.01.22.191.449.432.432Zm-1.654 7.466c.086.005.173.012.26.02.037.005.073.01.11.013.102.012-.089-.014.02.003.149.024.297.055.444.088.299.069.596.149.895.217.336.076.677.13 1.022.146.336.015.684-.011 1.018.03l-.17-.023c.647.099 1.295.196 1.942.293.234.035.472.084.708.101.172.013.345.014.517.02l1.015.036.558.02c.099.004.199.01.298.01.047 0 .093-.005.14-.01l.183-.024a.538.538 0 0 0 .272-.073c.054-.022.108-.045.161-.069a1.064 1.064 0 0 0 0-1.836l-.161-.068-.128-.055-.287-.038c-.04-.005-.08-.01-.12-.013-.092-.007-.186.002-.279.006l-.497.017-1.015.037-.498.017c-.247.01-.49.052-.733.088l-.975.146-1.1.163.169-.023c-.168.02-.343.013-.513.017-.162.005-.324.013-.487.015a8.87 8.87 0 0 1-.925-.047c-.614-.056-1.227-.151-1.844-.127-.236.01-.463.201-.452.452a.461.461 0 0 0 .452.452Zm-2.081 8.994c-.064-.026.058.026.069.032l.106.05c.109.054.214.12.33.159.159.053.327.087.489.13.393.104.792.15 1.196.184.353.03.71.085 1.064.045.401-.046.784-.162 1.182-.217l-.232.03c.39-.05.786-.038 1.176.013l-.248-.034c.456.063.885.223 1.33.334.266.066.549.116.824.107.18-.005.36-.029.54-.009a184.61 184.61 0 0 0-.269-.036c.062.009.12.022.179.044l-.243-.102a.617.617 0 0 1 .114.064 42.44 42.44 0 0 0-.206-.16c.155.122.273.22.471.279l.071.02c.326.111.718-.015.954-.252a.988.988 0 0 0 .252-.953 1.147 1.147 0 0 0-.514-.692 1.61 1.61 0 0 0-.359-.162 1.725 1.725 0 0 0-.6-.075c-.258.01-.499.052-.758.017l.264.036c-.346-.05-.685-.137-1.029-.2a5.1 5.1 0 0 0-1.222-.095 4.93 4.93 0 0 0-1.199.208c-.321.104-.633.245-.969.295l.211-.029c-.247.032-.497.04-.745.056-.246.017-.49.032-.737.026-.229-.006-.46-.003-.69 0-.283.003-.542.096-.802.202-.142.057-.268.174-.261.343.008.17.109.28.261.342Zm5.537 7.616a6.016 6.016 0 0 0-.159.12l-.049.039-.026.02c-.02.017-.017.012.009-.015l.193-.052c-.089-.009.093.028.024.004-.035-.012-.072-.016-.109-.021-.217-.029.092.013.005-.004-.067-.013-.136-.017-.204-.026l.158.022c-.04-.008-.078-.021-.119-.031-.094-.022-.193-.021-.289-.033l.177.024c-.166-.024-.327-.072-.491-.108a2.735 2.735 0 0 0-.681-.062c-.385.013-.768.07-1.153.021l.247.034c-.142-.021-.285-.039-.428-.057l.251.034c-.246-.035-.473-.137-.717-.18-.384-.067-.766-.065-1.153-.07-.641-.009-1.281-.049-1.921-.031a1.062 1.062 0 0 0-.72.299c-.177.176-.31.466-.299.72.025.565.448 1.002 1.019 1.018.482.014.964-.006 1.446-.019.237-.006.474-.013.711-.023.229-.01.463-.027.692.003l-.256-.035c.174.027.341.085.514.116.174.03.363.068.542.061a3.33 3.33 0 0 0 .525-.072c.406-.083.787-.275 1.197-.336l-.2.027c.271-.033.544-.007.816-.043a.8.8 0 0 0 .361-.111c.077-.05.154-.108.219-.173a.607.607 0 0 0 .14-.212c.04-.095.037-.089-.01.018a.383.383 0 0 0 .062-.193c.029-.218-.018.122.003-.013.009-.056.016-.111.022-.166l-.052.192c-.054.071.043-.024.055-.034.029-.027.06-.053.091-.078.14-.115.129-.348.028-.479-.103-.134-.322-.2-.471-.095ZM119.32 49.621c.076-.788.257-1.528.502-2.282.236-.727.388-1.479.636-2.205.234-.686.529-1.494.803-2.07.165-.347.343-.688.513-1.033a14.724 14.724 0 0 0 .406-.918c-.002.006.128-.334.074-.2.265-.653.586-1.31.901-1.941.13-.26.028.03-.055.012.051.011.248-.346.282-.397.016-.025.106-.184.117-.18.013.004-.186.214-.024.046.115-.119.222-.246.333-.368.073-.079.289-.215.323-.313-.01.028-.321.214-.104.083.051-.032.101-.067.153-.098.068-.04.142-.073.21-.113.188-.108-.378.129-.036.015.322-.106.632-.24.96-.327.116-.03.388-.133.506-.104-.022-.006-.38.035-.072.015l.241-.017c.159-.01.318-.016.477-.015.057 0 .159.024.21.007-.082.028-.391-.055-.097-.005.151.026.021.121-.14-.065.022.026.11.058.146.08.068.04.131.088.198.133.159.106-.17-.166-.029-.017.113.12.237.227.348.349.19.21-.022-.044-.036-.05.062.028.128.19.167.253.398.646.656 1.339 1.205 1.885.116.115.237.225.352.34.051.05.099.107.152.156.238.22-.064-.136.035.032.206.347.39.682.55 1.054.148.345.291.695.473 1.024.161.29.457.705.535.909-.053-.137.056.203.05.18.018.07.034.14.049.21.032.144.059.288.092.432.093.4.199.8.31 1.196.214.76.493 1.497.696 2.26.423 1.584.613 3.128.838 4.651.124.84.27 1.675.414 2.51.064.373.128.747.19 1.12.018.11.045.221.054.331-.005-.063-.007-.15-.009.058a8.78 8.78 0 0 1-.022.607c-.027.363-.07.728-.044 1.093.031.435.149.83.254 1.25.011.041.058.279.033.1.011.08.011.167.014.246.005.187 0 .374-.007.56a25.39 25.39 0 0 0-.017 1.234c.025 1.691.12 3.394.215 5.083.093 1.652.349 3.287.375 4.943.027 1.707-.031 3.415-.071 5.121-.02.828-.023 1.656-.044 2.483-.02.815-.157 1.55-.356 2.34-.11.433-.208.864-.232 1.311-.023.426.022.85.032 1.276.008.38-.036.638-.15.996-.133.414-.159.82-.161 1.25-.001.265-.086.585-.137.906-.068.426-.123.853-.183 1.28a19.455 19.455 0 0 1-.436 2.259c-.208.792-.384 1.59-.464 2.406-.062.636-.25 1.31-.46 1.971-.237.748-.424 1.507-.645 2.258-.224.76-.5 1.498-.713 2.261-.364 1.303-1.141 2.589-1.985 3.565-.425.491-.91.974-1.409 1.292-.057.036-.115.067-.173.1-.037.02-.212.086-.064.031a3.41 3.41 0 0 1-.384.119c.021-.006-.299.054-.165.037.13-.017-.169.007-.153.005-.119.013-.074-.058.01.011-.023-.019-.272-.143-.008.013-.086-.051-.173-.1-.258-.153-.219-.134.075.07-.047-.033a3.773 3.773 0 0 1-.164-.145 2.008 2.008 0 0 1-.231-.248c.1.134.031.023.01-.003-.096-.123.019.09.023.164-.027-.477-.386-.884-.884-.884-.457 0-.912.405-.884.884.04.681.464 1.262.966 1.7.251.219.52.426.839.535.398.135.807.107 1.217.039 1.546-.254 2.749-1.537 3.66-2.725.445-.58.839-1.196 1.187-1.839.423-.78.69-1.58.932-2.429.23-.804.54-1.58.76-2.388.214-.782.467-1.55.692-2.328.233-.806.272-1.635.414-2.37.149-.772.385-1.524.533-2.297.164-.857.246-1.715.378-2.561.067-.437.185-.877.201-1.32.007-.169-.015-.34 0-.51.007-.087.096-.348.145-.501.282-.893.052-1.783.124-2.69.07-.885.372-1.741.426-2.635.052-.886-.031-1.784-.054-2.67-.023-.902-.043-1.804-.064-2.706-.022-.924-.019-1.848-.03-2.772-.009-.85-.068-1.697-.087-2.545-.04-1.787.005-3.557.081-5.342.038-.893.102-1.789.105-2.682.004-.883.113-1.788-.11-2.653-.043-.165-.096-.327-.135-.493-.01-.044-.038-.28-.023-.107a2.736 2.736 0 0 1-.008-.24c-.001-.407.064-.812.076-1.219.027-.908-.226-1.849-.378-2.742-.296-1.747-.437-3.334-.764-5.094-.303-1.636-.868-3.185-1.264-4.796-.09-.367-.129-.744-.22-1.11-.111-.448-.334-.861-.553-1.264-.039-.072-.079-.144-.116-.217.001.002-.166-.353-.08-.155-.067-.154-.122-.314-.18-.472-.073-.197-.143-.396-.219-.592-.022-.058-.223-.596-.153-.386.04.07.032.042-.025-.083l-.113-.272c-.301-.712-.863-1.23-1.203-1.914-.355-.715-.687-1.405-1.256-1.985-.643-.655-1.385-1.058-2.299-1.152a7.135 7.135 0 0 0-2.344.153c-.875.206-1.684.575-2.366 1.162-.584.502-1.181 1.294-1.363 2.05-.099.414-.131.843-.18 1.265.036-.306-.025.135-.048.24-.057.256-.149.497-.234.744-.126.365-.226.739-.363 1.1-.157.42-.344.827-.494 1.248-.562 1.584-1.054 3.338-1.125 5.022-.034.801-.048 1.588-.125 2.386-.034.357.329.663.663.663.387 0 .629-.305.663-.663Zm-29.082 32.61c.174.089.359.157.558.145a8.785 8.785 0 0 0 .882-.126c.301-.062.598-.14.896-.215a9.48 9.48 0 0 1 1.004-.182c.338-.047.672-.102 1.005-.182.442-.107.853-.297 1.271-.473l-.296.125c.301-.127.608-.251.934-.297l-.336.045c.19-.023.378-.02.569-.017.3.004.591-.03.889-.076.436-.068.822-.314 1.222-.486l-.303.128c.12-.05.242-.09.37-.11l-.337.046.032-.004a.957.957 0 0 0 .49-.11.95.95 0 0 0 .407-.261c.22-.22.386-.581.372-.897-.015-.328-.123-.669-.372-.897-.232-.213-.57-.408-.897-.372-.183.02-.377.037-.557.09-.126.036-.245.09-.365.142-.205.086-.403.183-.606.271l.304-.128a1.86 1.86 0 0 1-.457.13l.339-.045c-.233.03-.468.021-.702.03-.334.014-.676.05-.995.15-.509.161-.974.427-1.462.636.098-.04.195-.082.293-.123a6.497 6.497 0 0 1-.955.292c-.34.084-.678.194-1.008.308a6.72 6.72 0 0 0-1.108.477c-.273.154-.546.311-.835.433l.216-.09-.17.064a1.26 1.26 0 0 0-.46.281c-.366.352-.305 1.06.168 1.298Z"/><path fill="#0A0A0A" d="M97.153 75.318v1.862c0 .784-.164 1.741.02 2.491.12.48.259 1.134.532 1.543.497.744.845.685 1.627.861 1.917.431 3.617-.083 5.507-.518.96-.221 1.802-.696 2.733-1.025.986-.348 2.007-.585 3.004-.938.761-.269 1.459-.2 2.206-.42.816-.239 1.566-.673 2.365-.874.399-.1.685-.251 1.065-.444.487-.247.738-.19 1.245-.292.975-.198.547-1.936.547-2.76 0-.715.1-1.518-.01-2.218-.184-1.181-1.242-1.132-2.233-1.364-.796-.185-1.437-.467-2.282-.39-1.257.115-2.419 1.124-3.666 1.451-.935.246-1.78.502-2.729.544-1.249.055-2.273.952-3.442 1.214-1.048.236-2.048.45-3.075.842-.415.159-.819.303-1.235.429-.454.137-.916.518-1.392.55l-.043.201"/><path fill="#0A0A0A" d="m96.402 75.111-.077.538-.037.259c-.023.16-.067.324-.067.486l.033-.248c-.056.337-.104.677-.182 1.01-.055.234-.06.496-.09.737-.021.164-.042.327-.06.49a5.902 5.902 0 0 0-.046.943c.02.39.096.78.168 1.163.056.292.12.585.232.861.093.23.183.458.315.668.125.197.27.387.425.56.142.16.324.288.495.412.073.052.152.094.233.13.308.138.596.231.915.322.31.088.617.187.934.251.468.096.942.159 1.421.15.811-.015 1.625-.143 2.42-.302.346-.07.69-.148 1.035-.227.347-.08.697-.15 1.041-.243.644-.174 1.251-.456 1.866-.708.657-.269 1.336-.472 2.018-.667.343-.098.687-.193 1.027-.3.344-.11.682-.247 1.035-.324a6.11 6.11 0 0 1 .503-.086l-.441.06c.569-.075 1.152-.112 1.704-.274.55-.162 1.075-.407 1.601-.629l-.395.167c.411-.174.821-.32 1.249-.443.323-.092.634-.231.937-.373.201-.094.394-.206.599-.293l-.394.167c.175-.071.355-.112.542-.138l-.438.059c.255-.033.51-.063.764-.102.116-.017.23-.036.34-.076.389-.142.57-.246.883-.515.16-.137.284-.316.401-.49.115-.171.189-.388.259-.574a1.58 1.58 0 0 0 .07-.253c.06-.321.101-.65.098-.978-.003-.392-.055-.78-.087-1.17-.042-.512.004-1.025.012-1.537a8.343 8.343 0 0 0-.098-1.33 2.712 2.712 0 0 0-.365-1.023c-.415-.675-1.074-1.105-1.829-1.315-.413-.115-.843-.156-1.26-.254-.291-.068-.577-.153-.866-.227A7.12 7.12 0 0 0 114 69.24a4.547 4.547 0 0 0-1.363.13c-.427.1-.836.283-1.235.46-.595.266-1.156.6-1.756.853l.381-.161c-.425.177-.872.284-1.317.4a12.6 12.6 0 0 1-1.424.301l.426-.057c-.169.023-.338.04-.508.05a9.38 9.38 0 0 0-.846.093 3.94 3.94 0 0 0-.811.22c-.656.248-1.272.578-1.915.853l.385-.163c-.743.314-1.553.423-2.331.622-.426.11-.849.232-1.265.378-.413.145-.82.307-1.238.442a8.124 8.124 0 0 0-.98.374c-.202.095-.396.205-.6.294l.387-.163c-.222.093-.444.185-.665.282l.383-.162a1.352 1.352 0 0 1-.186.062l-.375.158c-.183.099-.33.234-.44.405a.785.785 0 0 0-.203.346 1.182 1.182 0 0 0-.135.605c-.002.054-.007.107 0 .16l.054-.408-.008.04c-.086.406-.059.82.155 1.185.096.18.228.323.396.431.148.136.323.228.523.276.393.09.835.07 1.184-.155.325-.21.624-.528.707-.92l.008-.04-.155.368c.096-.161.153-.344.221-.52l-1.514 1.154c.233.018.507-.021.72-.069.057-.013.108-.032.162-.054.172-.07.346-.14.515-.22.21-.1.413-.217.627-.31l-.387.164c.218-.09.45-.15.673-.227.232-.079.462-.164.691-.251.458-.175.923-.326 1.396-.455.472-.128.948-.237 1.425-.345.208-.048.417-.091.621-.156.319-.103.629-.24.935-.375.426-.187.838-.407 1.267-.59l-.384.162a4.266 4.266 0 0 1 1.076-.313l-.427.057c.196-.024.394-.027.59-.047.33-.034.659-.078.985-.136a14.66 14.66 0 0 0 1.193-.277c.369-.099.743-.186 1.1-.326.458-.18.902-.385 1.339-.61.366-.189.73-.382 1.109-.544l-.38.16a4.037 4.037 0 0 1 1.018-.295l-.422.056c.276-.034.554-.03.83.005l-.422-.056c.59.08 1.149.293 1.729.416.424.09.865.14 1.267.309l-.382-.162c.11.048.214.106.311.178l-.325-.251c.077.06.145.127.206.203l-.251-.325c.063.083.114.173.155.27l-.162-.385c.054.135.086.273.107.416l-.058-.428c.093.7.001 1.407-.011 2.11-.007.419.054.837.074 1.255.012.25.012.5-.021.749l.058-.437a1.584 1.584 0 0 1-.096.377l.166-.393a.918.918 0 0 1-.118.207l.257-.333a.79.79 0 0 1-.112.113l.333-.257a.73.73 0 0 1-.14.083l.393-.166c-.133.056-.28.072-.422.092l.438-.06c-.388.052-.794.064-1.165.197-.427.154-.815.38-1.231.557l.394-.167c-.281.117-.578.178-.866.274-.297.1-.585.221-.874.342a12.93 12.93 0 0 1-.884.345 5.057 5.057 0 0 1-.929.21l.441-.06c-.525.07-1.058.106-1.574.227-.411.097-.809.257-1.212.381-.796.247-1.605.46-2.383.761-.534.208-1.055.446-1.583.67l.392-.165a9.67 9.67 0 0 1-.979.363c-.359.107-.727.184-1.09.272-.71.173-1.422.342-2.146.44l.428-.058a8.583 8.583 0 0 1-1.257.08c-.435-.007-.862.004-1.296-.052l.4.054c-.265-.036-.53-.073-.797-.102l.39.052c-.17-.025-.341-.045-.512-.068l.389.053a2.157 2.157 0 0 1-.544-.127l.34.143a1.292 1.292 0 0 1-.26-.152l.284.22a2.235 2.235 0 0 1-.39-.405l.215.276a2.588 2.588 0 0 1-.303-.547l.134.317a8.87 8.87 0 0 1-.26-.739 4.465 4.465 0 0 1-.181-.743l.044.326c-.057-.448-.052-.9-.055-1.351-.001-.106-.002-.212-.005-.317-.004-.18-.05-.388-.081-.572l-.129-.75.034.247c0-.162-.045-.325-.068-.486l-.037-.259-.077-.537-.078-.186a.588.588 0 0 0-.2-.219.742.742 0 0 0-.472-.167.922.922 0 0 0-.393.106c-.148.079-.333.294-.358.465Z"/><path fill="#0A0A0A" d="M124.724 71.223c-.452.083-.89.241-1.346.307l.18-.024a2.897 2.897 0 0 1-.368.005c-.125-.008-.247-.028-.373-.023-.301.01-.591.091-.887.133l.244-.033c-.158.02-.314.023-.472.01l.268.037c-.132-.026-.263-.058-.396-.078-.162-.025-.331-.062-.497-.057a2.754 2.754 0 0 0-.506.076c-.292.066-.578.16-.875.2l.348-.046a2.332 2.332 0 0 1-.266.02c-.159 0-.255-.007-.446.046-.184.05-.267.104-.401.185a1.293 1.293 0 0 0-.633 1.104c0 .462.249.86.633 1.103.236.149.513.236.792.227a2.89 2.89 0 0 0 .513-.077 2.69 2.69 0 0 0 .392-.121c.213-.083.428-.17.633-.271.131-.065.253-.144.387-.204l-.287.121c.287-.12.566-.256.85-.383l-.241.102a3.76 3.76 0 0 0 .732-.324c.151-.09.301-.18.463-.251l-.195.082c.132-.055.267-.081.402-.12.181-.054.354-.13.526-.207l-.161.068c.26-.098.517-.204.772-.317.102-.046.204-.092.307-.136.037-.016.123-.042-.033.014l.075-.031a5.37 5.37 0 0 1 .162-.062.595.595 0 0 0 .333-.256.57.57 0 0 0 .057-.43c-.1-.308-.378-.445-.686-.389ZM87.131 82.742c.412 0 .807-.363.788-.788-.019-.427-.346-.788-.788-.788-.412 0-.807.362-.788.788.02.427.346.788.788.788Z"/><path fill="#008BFF" d="M99.136 74.924a4.914 4.914 0 0 0 .044.178c.006.04.01.047.01.024.021.085.024.177.037.264.013.087.024.166.057.247l.085.2c.124.298.22.604.334.905.114.296.224.585.294.895.072.313.166.623.21.942l-.025-.191c.034.271.008.537.007.81 0 .273.035.546.059.82.023.27.04.542.041.814.001.13-.004.26-.004.39 0 .2.049.396.077.594l-.028-.21c.013.097.014.186.001.283l.027-.203c-.056.37-.153.74-.133 1.115.01.191.073.372.211.51.125.125.33.22.51.211a.735.735 0 0 0 .72-.72c.002-.062.007-.122.015-.183l-.026.194c.036-.258.127-.502.18-.756a7.08 7.08 0 0 0 .07-.381c.019-.126.048-.255.046-.382-.001-.066-.008-.132-.01-.198-.024-.61-.124-1.208-.206-1.812l.028.208-.062-.463.028.206c-.047-.365-.053-.734-.154-1.09-.083-.292-.209-.573-.313-.858a6.893 6.893 0 0 0-.954-1.728c-.119-.16-.232-.35-.384-.479a1.81 1.81 0 0 1-.335-.348c-.16-.23-.521-.093-.457.192Zm5.581-1.764.116.127.064.07c.012.014.039.058.019.022.005.01.042.099.016.028a.586.586 0 0 1 .023.07c.011.039.011.056.007.005l.004.097c.001.152.005.302.047.45.045.152.131.296.201.438l.074.155c.014.03.025.065.042.094-.078-.13-.026-.061-.007-.014.046.119.083.24.112.365.065.287.18.543.296.813l-.068-.161c.057.138.112.284.134.433l-.025-.186c.01.107-.003.213-.004.32a1.31 1.31 0 0 0 .065.448c.073.208.19.385.277.584l-.077-.182a.712.712 0 0 1 .045.156l-.028-.205c.017.143-.007.287.008.43.014.133.028.263.07.39.027.079.048.156.06.24l-.029-.217c.02.189-.015.376.004.565.026.253.083.498.117.749l-.032-.235c.031.255-.002.516-.022.771-.02.265-.007.534-.039.797l.034-.253c-.022.16-.058.319-.091.478a6 6 0 0 0-.043.231c-.031.196-.05.343.007.539.052.183.147.309.271.448l.179.139c.101.064.211.1.328.104.183.025.407.005.564-.105.22-.153.423-.346.486-.62.015-.064.023-.13.036-.195.026-.13.056-.258.079-.388.061-.356.081-.7.061-1.06-.019-.34-.028-.689-.095-1.024-.051-.249-.164-.48-.203-.733l.03.223c-.024-.191-.028-.38-.059-.571-.03-.183-.109-.35-.186-.517l.081.191a.93.93 0 0 1-.065-.224l.028.21c-.013-.102-.016-.204-.027-.305a1.564 1.564 0 0 0-.169-.585c-.081-.156-.21-.28-.279-.443l.073.175a.82.82 0 0 1-.042-.162l.026.192c-.021-.17-.022-.34-.056-.507-.032-.155-.106-.302-.174-.444-.094-.198-.226-.374-.312-.575l.065.153c-.1-.24-.189-.482-.326-.704-.117-.192-.255-.369-.388-.549-.05-.067-.098-.142-.163-.196-.067-.055.031.057.003.011-.013-.023-.029-.045-.042-.067-.065-.11-.128-.217-.216-.311-.044-.048-.097-.087-.149-.127-.02-.015-.039-.03-.059-.043-.014-.009-.056-.038-.023-.013a5.328 5.328 0 0 1-.246-.199c-.119-.1-.291-.116-.408 0-.116.117-.102.29 0 .408Zm5.689-1.135c.125.23.262.455.389.684a8.8 8.8 0 0 1 .18.343c.061.122.135.236.19.363l-.079-.188c.098.236.14.48.184.73.044.254.112.506.178.755.14.526.291 1.052.366 1.592l-.035-.256c.04.305.057.633.021.94l.035-.26c-.04.279-.122.547-.128.831-.005.22.03.437.002.655l.036-.263c-.042.26-.099.515-.148.772a1.807 1.807 0 0 1-.098.33c-.074.186-.088.377-.112.575l.035-.257c-.016.106-.039.21-.054.316a.708.708 0 0 0-.017.376.694.694 0 0 0 .112.351c.114.196.338.382.563.433.508.116 1.008-.152 1.16-.658.046-.153.089-.316.146-.465l-.098.234c.097-.219.231-.413.277-.654.033-.174.063-.349.093-.523.043-.26.098-.525.089-.79-.006-.2-.036-.397-.014-.597l-.035.26c.037-.27.113-.533.113-.808a5.756 5.756 0 0 0-.168-1.47 9.708 9.708 0 0 0-.196-.624c-.134-.388-.27-.773-.39-1.166a3.298 3.298 0 0 0-.764-1.31c-.185-.191-.418-.343-.64-.49-.191-.127-.386-.249-.575-.38-.157-.108-.42-.067-.547.072a.468.468 0 0 0-.071.547Z"/><path fill="#0A0A0A" d="M74.05 142.402c.774-1.635 1.596-3.25 2.228-4.947.307-.825.632-1.64.951-2.46.325-.836.503-1.701.717-2.569.432-1.75.938-3.502 1.188-5.29.065-.467.144-.932.22-1.397.027-.166.044-.334.065-.501-.022.179.01-.076.019-.131.034-.246.07-.492.108-.738.14-.929.298-1.856.446-2.784.082-.51.153-1.022.203-1.536.022-.221.042-.442.065-.663.01-.102.022-.204.033-.305.008-.066.01-.139.025-.204-.023.104-.022.15-.002.018.137-.889.43-1.705.77-2.534.33-.807.578-1.622.807-2.463.057-.21.115-.419.179-.627a8.605 8.605 0 0 1 .146-.433c-.008.001-.115.246-.023.065.176-.347.377-.678.58-1.01.408-.668.787-1.354 1.226-2.003.114-.168.231-.334.351-.498.056-.075.11-.152.17-.225-.153.191.051-.061.108-.129.253-.306.52-.6.809-.874.138-.131.282-.254.427-.376.094-.078-.037.032-.046.038.038-.023.073-.051.11-.075.082-.053.166-.103.252-.148.083-.043.168-.08.252-.121.112-.054-.082.035-.087.036.036-.006.08-.032.114-.046.253-.103.508-.205.757-.319.365-.166.688-.4 1.028-.61.09-.057.183-.112.277-.163.07-.037.25-.116.074-.046a9.732 9.732 0 0 1 1.751-.483c.092-.016.185-.03.278-.045-.24.04.073-.008.132-.014a8.454 8.454 0 0 1 1.52-.023c.044.003.089.007.133.012.026.003.218.029.076.007-.135-.02.095.018.132.025a4.583 4.583 0 0 1 .73.21c.252.096-.109-.057.064.027.07.033.14.066.208.101a5.606 5.606 0 0 1 .664.406l.095.07c.122.084-.14-.118-.027-.021.13.112.262.221.386.339a6.225 6.225 0 0 1 .513.553c.02.023.067.064.076.092a2.187 2.187 0 0 0-.043-.054l.047.064c.201.278.38.571.533.878.017.035.13.219.117.248 0 0-.072-.183-.029-.068l.043.109a5.374 5.374 0 0 1 .264.961c.036.188-.017-.204.008.063.008.088.014.175.017.263a14.4 14.4 0 0 1-.002 1.157c-.008.179-.027.356-.04.534-.01.125.011-.07.01-.072.008.028-.013.091-.018.12a5.664 5.664 0 0 1-.209.84 7.288 7.288 0 0 1-.09.247c-.004.011-.06.149-.017.046.043-.102-.034.075-.042.092a6.659 6.659 0 0 1-.567 1.001c.099-.142-.003 0-.055.056a3.242 3.242 0 0 1-.18.176c-.047.045-.14.073.01-.005a.706.706 0 0 0-.111.068c-.073.066.006.01.04-.005-.053.023-.111.04-.167.055-.085.022-.25.028-.073.022-.103.003-.205.012-.308.012-.207 0-.414-.013-.621-.016-.169-.003-.336.006-.504.014-.095.004-.19.002-.284.004-.028.001-.157-.019-.021.004.144.024-.027-.017-.054-.022-.108-.02.054.02.066.026.009.004.136.114.042.033-.002-.003-.075-.069-.072-.076.002-.005.127.19.042.051-.086-.139-.172-.276-.246-.423a7.256 7.256 0 0 1-.123-.258c-.084-.182.047.128-.024-.058a10.903 10.903 0 0 1-.248-.714c-.01-.035-.017-.077-.03-.11-.06-.144-.005.142-.01-.009-.004-.093.003-.187 0-.28-.005-.116-.005.024-.01.046.012-.061.023-.122.037-.182.097-.424.271-.827.342-1.257a8.89 8.89 0 0 0 .09-.764c.009-.113.015-.226.023-.339l.011-.146c.002-.019.022-.218.008-.104-.014.116.008-.046.01-.057a8.731 8.731 0 0 1 .099-.445c.049-.199.103-.396.163-.592.111-.361.245-.713.383-1.064-.068.173-.004.009.029-.066.04-.093.083-.185.125-.276a18.267 18.267 0 0 1 .817-1.527 29.69 29.69 0 0 1 1.27-1.927c.877-1.239 1.812-2.438 2.655-3.701.057-.086.115-.171.174-.256.12-.17-.083.092.053-.065.14-.163.283-.322.433-.476.278-.287.57-.56.85-.847a24.074 24.074 0 0 1 1.887-1.768c.342-.283.689-.56 1.034-.838a98.553 98.553 0 0 0 .575-.464c.024-.02.188-.15.08-.065-.099.078.031-.024.043-.033l.158-.119a25.275 25.275 0 0 1 2.179-1.428c.749-.442 1.511-.86 2.27-1.284.775-.433 1.537-.892 2.32-1.312a17.314 17.314 0 0 1 .86-.433c.046-.021.093-.04.138-.062.156-.077-.169.055-.004 0 .405-.13.812-.232 1.225-.338.206-.053.41-.113.609-.19.159-.06.312-.132.469-.197-.233.096.116-.037.181-.058.404-.129.822-.203 1.237-.288.21-.042.418-.09.627-.14.162-.038.459-.18.621-.146.001 0-.244.022-.1.014.045-.002.089-.008.134-.01.089-.007.179-.01.268-.01.222-.003.442.016.664.016.663.001 1.299-.584 1.268-1.269-.031-.688-.557-1.267-1.268-1.268a7.3 7.3 0 0 0-1.525.154c-.448.096-.872.27-1.322.365-.446.095-.896.177-1.327.328-.094.033-.186.07-.278.108-.125.052-.25.107-.374.16.015-.006.177-.063.05-.021-.218.071-.433.143-.656.2-.517.133-1.01.268-1.502.48-.433.187-.853.404-1.267.632-.82.453-1.62.94-2.435 1.402-1.644.932-3.277 1.865-4.759 3.046a60.69 60.69 0 0 0-2.12 1.767c-.668.585-1.258 1.234-1.882 1.863-.304.305-.61.609-.885.941-.304.37-.561.765-.827 1.162-.44.66-.906 1.302-1.37 1.944-.952 1.316-1.91 2.637-2.673 4.074-.4.756-.751 1.545-1.023 2.356-.13.388-.24.783-.327 1.183-.11.507-.134 1.017-.174 1.531-.004.06-.05.354-.013.161a4.507 4.507 0 0 1-.065.297c-.06.23-.139.456-.202.685-.15.549-.203 1.101-.09 1.661.067.34.206.675.337.994.163.396.332.798.577 1.152.312.45.713.816 1.265.935.45.097.887.03 1.34.036.477.007.944.026 1.415-.076.507-.109.974-.404 1.337-.77.631-.638 1.053-1.523 1.344-2.361.276-.794.355-1.648.36-2.483.006-.803-.049-1.605-.305-2.372a7.452 7.452 0 0 0-1.234-2.251c-.956-1.222-2.382-2.188-3.935-2.416-.997-.146-1.966-.112-2.962.036-.893.134-1.827.369-2.618.814-.361.203-.706.428-1.072.621.207-.109-.06.023-.118.045l-.277.103c-.241.09-.48.186-.714.294-.802.369-1.493 1.051-2.075 1.703a17.432 17.432 0 0 0-1.685 2.25c-.43.675-.91 1.341-1.256 2.064-.423.885-.595 1.851-.875 2.784-.263.877-.673 1.7-.95 2.573-.307.972-.382 2.004-.473 3.015-.088.972-.197 1.94-.31 2.909-.113.967-.245 1.94-.272 2.913-.028.971-.02 1.938-.109 2.906-.085.917-.26 1.831-.422 2.76-.162.919-.261 1.861-.507 2.762-.242.886-.557 1.753-.817 2.634-.27.91-.598 1.802-.949 2.683-.34.853-.699 1.698-1.045 2.548-.16.391.504.672.685.289Zm43.554-86.604c-.221.735-.293 1.522-.589 2.232l.081-.194c-.09.213-.19.425-.259.646-.05.16-.072.326-.128.485-.12.335-.17.672-.219 1.023-.026.18-.054.36-.096.538-.039.16-.103.315-.138.477-.098.45-.066.914-.066 1.37 0 .19.006.378.012.567.01.284.075.567.113.848l-.037-.278c.026.205.062.396.106.595.025.112.045.225.061.338l-.031-.233c.012.097.031.199.018.297l.029-.216c-.056.389-.09.759-.064 1.15.026.387.077.773.13 1.157.031.223.26.393.457.456l.087.028-.25-.25.041.124a.32.32 0 0 0 .611 0l.039-.124-.25.25.069-.028a.73.73 0 0 0 .339-.234.676.676 0 0 0 .141-.396c.025-.405.029-.81.083-1.212l-.027.2c.036-.254.09-.51.183-.752l-.083.197c.131-.28.241-.569.323-.867.055-.197.074-.402.094-.605.013-.129.033-.262.03-.392-.007-.251-.019-.502-.022-.753-.003-.28-.028-.569.002-.848l-.039.291c.02-.149.074-.29.099-.439.04-.24.066-.483.073-.726.009-.327-.02-.659.02-.984l-.035.262c.029-.22.075-.439.078-.661.001-.14-.021-.28-.02-.42.003-.296.053-.594.078-.889.053-.624.026-1.253.089-1.877a.574.574 0 0 0-.169-.407.59.59 0 0 0-.331-.159.579.579 0 0 0-.633.413Z"/><path fill="#0A0A0A" d="M116.801 82.512c-.004.417.036.833.073 1.248.018.202.005.41-.004.612a6.686 6.686 0 0 1-.053.632l.03-.226c-.019.141-.042.282-.058.425l.031-.234c-.06.37-.124.738-.183 1.107-.068.424-.139.853-.101 1.283.073.829.319 1.63.518 2.435l.548 2.218c.091.367.195.732.291 1.099.091.345.192.69.258 1.04.069.371.103.748.179 1.118.038.187.087.372.156.55.11.28.247.544.365.82l-.133-.315c.089.213.154.433.241.647.12.298.253.578.413.856.112.196.215.399.336.589.163.256.332.503.522.74l-.161-.208c.152.271.341.517.516.772.182.265.348.539.516.813.096.156.216.298.335.438.196.231.485.348.784.363.482.024.838-.463.832-.913a1.135 1.135 0 0 0-.122-.485l-.035-.075c-.025-.052-.051-.104-.075-.157l.096.226c-.092-.217-.181-.428-.29-.636a14.35 14.35 0 0 0-.264-.481c-.174-.301-.363-.591-.518-.903l.104.246c-.071-.242-.141-.485-.214-.726-.077-.252-.172-.498-.254-.749a4.766 4.766 0 0 1-.168-.756 4.252 4.252 0 0 0-.076-.388c-.06-.233-.179-.447-.273-.668l.134.32c-.146-.356-.208-.735-.26-1.114l.048.357c-.064-.476-.117-.95-.233-1.416-.098-.398-.199-.795-.3-1.192-.204-.794-.438-1.58-.663-2.37-.153-.537-.281-1.087-.507-1.6l.131.31c-.098-.242-.202-.48-.304-.72l.127.3c-.18-.428-.288-.879-.383-1.333-.1-.476-.16-.962-.238-1.442l.032.234a8.798 8.798 0 0 0-.275-1.364 8.991 8.991 0 0 1-.229-1.186l.023.168a6.404 6.404 0 0 1-.035-.31c-.016-.165-.058-.312-.18-.434a.626.626 0 0 0-.435-.18.626.626 0 0 0-.615.615Z"/></svg>