<svg xmlns="http://www.w3.org/2000/svg" width="160" height="180" fill="none"><path fill="#39D2FA" d="M107.534 94.643c-.443-.087-.829.246-1.19.45-1.044.587-2.152 1.095-3.241 1.6-1.113.515-2.354.865-3.534 1.205-1.701.49-3.332 1.143-5.036 1.64-1.18.344-2.334.493-3.536.741-1.498.309-2.976.882-4.448 1.299a79.933 79.933 0 0 0-3.94 1.222c-1.022.346-2.07.525-3.073.926-1.511.604-3.15.766-4.653 1.397-.668.281-1.377.385-2.037.693-.854.399-1.698.769-2.553 1.167-1.803.838-3.494 2.023-5.38 2.622-.787.25-1.583.542-2.334.881-.308.14-.601.181-.926.278-.504.149-.918.466-1.432.591-.776.188-1.344.333-2.072.697-.392.196-.803.4-1.221.541-.816.275-1.663.483-2.487.733-1.775.538-3.417 1.382-5.137 2.045-1.75.674-3.542 1.163-5.29 1.863-.905.361-1.77.797-2.666 1.169-.874.362-1.788.415-2.642.782-2.186.939-4.432 1.703-6.664 2.532-1.155.429-2.84.604-3.696 1.561-.44.493-.686.924-.7 1.583-.011.622-.087 1.105-.205 1.702-.104.528-.176 1.086-.267 1.616-.072.419-.045 1.014-.006 1.443.056.606.413 1.092.652 1.636.255.583.563 1.156.99 1.643.287.327.977.686 1.135 1.102.187.491-.115.765.303 1.227.942 1.04 2.394 1.445 3.49 2.258.893.661 2 1.204 2.981 1.737.712.386 1.354.821 2.042 1.241 1.784 1.087 3.718 1.819 5.42 3.033 1.413 1.007 3.257 1.399 4.722 2.375a66.843 66.843 0 0 0 4.029 2.471c1.051.598 2.195 1.051 3.167 1.721 1.204.831 2.612.992 3.918 1.572.492.218.946.499 1.444.698.679.271 1.187.422 1.882.523.644.093 1.185.382 1.862.2.289-.078.54-.296.829-.38.386-.113.79-.157 1.178-.276.638-.194 1.273-.423 1.917-.593.538-.142 1.096.001 1.612-.155 1.302-.392 2.607-1.189 3.791-1.828 1.234-.666 2.544-1.04 3.831-1.567.496-.203 1.01-.379 1.508-.576.613-.241 1.373-.435 1.915-.779.244-.155.38-.367.642-.514.323-.18.76-.212 1.111-.33.707-.238 1.36-.581 2-.945.443-.252 1.267-.712 1.534-1.094.442-.636-.222-1.106-.616-1.638-.617-.833-1.803-2.016-2.66-.894-.533.696-1.2 1.254-1.863 1.828-.537.464-1.219.837-1.904.962-.725.132-1.128.267-1.84.032-.674-.222-1.18-.41-1.864-.523-.281-.046-.518-.144-.783-.238-.452-.161-.812-.138-1.268-.227-.498-.097-1.138-.203-1.552-.481-1.007-.676-2.297-1.742-2.47-3.025-.062-.469-.09-1.354.001-1.803.109-.537.522-.615.813-.986-.782-.121-1.328-.704-1.844-1.267-.446-.488-.448-1.132-.81-1.708-.267-.426-.885-1.027-.91-1.554-.028-.63.86-1.284 1.164-1.763.362-.572-.317-.795-.788-1.155-.549-.42-.411-.328-.692-.937-.146-.318-.358-.542-.512-.846-.246-.484-.316-1.136-.537-1.664-.32-.767-.238-.744.29-1.449.463-.62.935-.959 1.573-1.392.314-.213.61-.421.879-.695.262-.268.452-.676.744-.906.455-.359 1.155-.593 1.686-.85a16.615 16.615 0 0 0 1.76-1.001c.939-.599 2.053-.839 3.011-1.375.645-.36 1.193-.92 1.881-1.192.596-.236 1.164-.274 1.792-.274h-2.945c-.828 0-1.658.02-2.485.005-.535-.009-.956-.206-1.48-.25-1.82-.154-3.78.334-5.548-.16-.616-.172-.63-.276-.82-.931-.148-.511-.166-.936-.163-1.465.002-.429-.115-.986.023-1.397.198-.59.834-.844 1.315-1.157.4-.262.78-.561 1.217-.764.427-.198.937-.235 1.351-.448.45-.23.69-.586 1.217-.67.336-.053.707.063 1.048.026.893-.098 1.783-.408 2.626-.713.921-.334 1.859-.105 2.783-.513.841-.372 1.735-.814 2.619-1.066.74-.21 1.744-.043 2.51-.046 1.918-.007 3.68.766 5.363 1.63.75.386 1.574 1.015 2.387 1.176.66.131 1.623.426 2.304.203-.02-.837-.464-1.719-.632-2.543-.238-1.165.26-1.819 1.098-2.56.606-.537 1.425-.731 2.126-1.114.569-.311 1.213-.455 1.852-.518.681-.067 1.319-.334 1.985-.446.424-.071 1.342-.177 1.741.011.408.191.671.805.952 1.134.33.387.716.713 1.067 1.078.619.644.832 1.359 1.235 2.123.298.566.616 1.128.938 1.678.407.695.501 1.481.716 2.244.232.821.768 1.486 1.147 2.239.387.768.629 1.603 1.019 2.37.341.668.576 1.377.952 2.03.438.76 1.083 1.282 1.535 2.022.864 1.419 1.696 2.723 2.782 4.004a26.667 26.667 0 0 1 1.619 2.15c.329.481.667 1.028 1.06 1.458.307.338.714.527 1.06.824.685.591 1.126 1.343 1.734 1.989.347.368 1.216 1.532 1.729 1.498.086-.422-.486-1.254-.727-1.624-.342-.526-.921-.932-1.241-1.459.507-.287 1.38-.762 1.969-.881.474-.096.93.052 1.413-.114.646-.223 1.253-.616 1.865-.922 1.153-.578 2.248-1.09 3.504-1.398 1.137-.279 2.202-.979 3.244-1.513 1.173-.601 2.462-.884 3.681-1.399.51-.215.986-.516 1.505-.709.566-.21 1.181-.268 1.741-.501.859-.357 1.534-.925 2.17-1.584.316-.327.507-.453.14-.797-.359-.335-1.068-.364-1.527-.375-.899-.023-1.691.064-2.564-.223-.838-.275-1.791-.513-2.59-.871-.846-.378-1.481-.991-2.381-1.291-1.014-.338-1.775-.941-2.703-1.459-.822-.458-1.737-.773-2.59-1.175-.412-.195-.827-.497-1.17-.795-.399-.345-.732-.482-1.171-.75-.647-.395-1.164-.969-1.846-1.342-.445-.243-.771-.519-1.123-.884-.369-.382-.795-.629-1.171-.979-.909-.848-.372-2.154-.04-3.151.278-.834.54-1.712 1.04-2.443.259-.38.581-.778.949-1.059.503-.384 1.117-.335 1.717-.457.512-.104 1.005-.18 1.531-.094.54.088 1.114.383 1.656.176-.779-.415-1.417-.986-2.22-1.361a22.615 22.615 0 0 0-3.054-1.175c-1.464-.438-2.895-.687-4.407-.688-1.556 0-3.122.063-4.675.008-.728-.025-1.467-.198-2.038-.69-.674-.581-.506-1.303-.514-2.113"/><path fill="#39D2FA" d="M107.534 93.688c-.772-.087-1.412.413-2.066.743-.741.374-1.498.726-2.273 1.021-1.568.596-3.2.89-4.801 1.374-1.622.49-3.212 1.113-4.866 1.49-1.656.379-3.332.561-4.964 1.052-1.639.492-3.283.971-4.916 1.482-1.635.511-3.288.961-4.904 1.523-.766.266-1.56.437-2.345.635-.79.198-1.532.479-2.3.739-.833.282-1.64.522-2.443.888-.78.355-1.571.69-2.344 1.061-1.37.657-2.716 1.546-4.076 2.111-.756.314-1.553.523-2.314.827-.38.151-.757.338-1.13.454-.432.134-.847.241-1.263.428-.629.282-1.04.356-1.783.594-.703.226-1.464.656-2.06.893-.793.314-1.643.494-2.46.736-.79.235-1.56.524-2.323.839-1.545.64-3.058 1.314-4.644 1.851-1.687.572-3.37 1.123-4.998 1.852-.688.308-1.358.653-2.088.851-.85.23-1.645.438-2.46.777-1.537.639-3.104 1.2-4.667 1.77-.71.258-1.412.541-2.137.748-.623.178-1.249.335-1.85.58-1.587.644-2.833 1.903-2.973 3.679a21.694 21.694 0 0 1-.265 2.063c-.136.839-.291 1.671-.247 2.525.048.92.326 1.643.723 2.463.37.763.704 1.493 1.252 2.152.201.241.43.423.673.621.06.049.281.301.35.309-.194-.024-.142-.839-.186-.383-.09.924.404 1.73 1.077 2.316 1.12.975 2.52 1.557 3.732 2.403 1.275.89 2.716 1.526 4.029 2.359 1.358.863 2.793 1.559 4.204 2.327 1.374.747 2.594 1.668 4.038 2.29.698.301 1.406.587 2.068.964.722.412 1.4.909 2.104 1.35 1.422.892 2.886 1.667 4.372 2.443.699.365 1.332.846 2.046 1.178.78.363 1.592.605 2.407.869.724.235 1.147.493 1.924.843.81.365 1.616.618 2.488.776.94.171 1.837.467 2.797.198.258-.072.52-.185.753-.32.38-.222-.193-.015.27-.112.395-.083.788-.166 1.175-.285.384-.118.763-.251 1.147-.369.444-.136.519-.165.926-.177 1.022-.03 1.872-.33 2.795-.746 1.421-.64 2.8-1.557 4.153-2.071a578.31 578.31 0 0 1 4.426-1.663c.407-.15.83-.303 1.206-.521a4.53 4.53 0 0 0 .627-.454c.045-.039.416-.266.154-.144-.323.151.176-.024.213-.033.163-.04.324-.074.484-.124.461-.145.911-.35 1.347-.557 1.273-.605 3.143-1.489 3.514-2.98.262-1.05-.242-1.895-.893-2.664-.028-.034-.369-.43-.116-.124-.156-.188-.294-.388-.454-.573a5.053 5.053 0 0 0-.666-.639c-.759-.612-1.673-1.024-2.668-.804-.93.205-1.381.86-1.995 1.505-.504.53-1.09 1.102-1.624 1.426-.319.194-.46.245-.863.334a9.71 9.71 0 0 1-.534.104c.336-.057-.095 0-.175.001.336-.003-.178-.047-.24-.065-.191-.056-.38-.126-.57-.187a10.374 10.374 0 0 0-1.094-.293c-.404-.084-.776-.226-1.174-.329-.26-.067-.534-.095-.798-.128.007.001-.52-.075-.282-.035a9.76 9.76 0 0 1-.97-.218c-.372-.101.091.127-.187-.095-.117-.093-.25-.173-.373-.259-.409-.288.214.204-.174-.137-.125-.11-.252-.217-.373-.332-.12-.115-.232-.239-.349-.359-.235-.243.014.08-.144-.184-.081-.137-.172-.27-.236-.417.133.307-.025-.165-.033-.194.103.375 0-.041-.006-.129a8.603 8.603 0 0 1-.018-.492c-.002-.164.01-.326.01-.489 0-.36-.05.045-.066.132l-.084.124a3.14 3.14 0 0 1 .21-.175c.114-.098.216-.19.315-.303.758-.863.574-2.507-.73-2.766-.111-.022-.24-.04-.346-.085.204.085-.05-.044-.07-.061-.44-.342.095.104-.148-.118a7.05 7.05 0 0 1-.254-.247c-.082-.084-.17-.166-.244-.257-.172-.213.07.15-.049-.086-.124-.249.066.19-.03-.073-.048-.135-.092-.271-.143-.405-.224-.589-.595-1.126-.88-1.512.102.138-.097-.136-.116-.164-.06-.087-.105-.188-.168-.272l-.036-.069a.66.66 0 0 1 .08.595l-.055.135c.092-.136.106-.164.042-.085l.12-.141c.068-.079.14-.155.21-.233.156-.175.304-.353.447-.541.48-.632.665-1.424.334-2.171-.264-.594-.738-.928-1.264-1.279-.084-.055-.168-.109-.248-.169.145.109.002.046.005-.001.022-.284-.52.577.104.152a9.705 9.705 0 0 1-.11-.24c-.177-.396-.445-.726-.636-1.112.09.183-.105-.375-.12-.433a8.922 8.922 0 0 0-.264-.847c-.038-.098-.075-.211-.121-.303-.077-.154.037-.207-.014.104-.014.082-.312.66-.102.458.051-.049.111-.158.149-.209a2.67 2.67 0 0 1 .313-.381c.079-.081.158-.162.242-.239-.006.006.353-.29.208-.179.45-.343.935-.633 1.365-1.004.242-.208.436-.44.629-.695.068-.091.133-.184.2-.275.2-.266.078-.103.003-.046.37-.275.834-.431 1.252-.617a13.85 13.85 0 0 0 1.543-.815c.512-.31 1.037-.633 1.555-.843.605-.245 1.226-.463 1.806-.765.557-.29 1.023-.71 1.558-1.033.488-.294.912-.307 1.499-.312.842-.007 1.559-.712 1.559-1.559a1.58 1.58 0 0 0-1.56-1.558c-1.602 0-3.205.015-4.808.009-.709-.002-1.315-.189-2.1-.26-.79-.071-1.586-.016-2.376.023-.717.036-1.46.09-2.173-.008.136.019-.464-.097-.384-.078l-.197-.051c-.195-.066-.19-.055.015.032l-.083-.047a.814.814 0 0 1 .432.482c.052.137.053.132.002-.014-.029-.095-.056-.19-.083-.285-.127-.471-.123-1.102-.143-1.751l-.004-.182c.001-.208.005-.237.012-.088.026-.024-.085.205-.085.206l-.09.059c.082-.059.166-.114.252-.166.17-.106.344-.2.512-.308.54-.345.918-.656 1.432-.795.39-.105.78-.219 1.14-.411.271-.147.5-.356.766-.509-.116.067-.341.014-.009.051.174.019.356.044.53.043.405-.002.82-.082 1.215-.164.825-.17 1.586-.553 2.404-.728.625-.135 1.485-.093 2.188-.326.707-.233 1.373-.625 2.058-.889.187-.072.376-.142.569-.2-.04.012.557-.134.274-.09.298-.047.627-.019.926-.006.68.03 1.46.014 2.067.118 1.581.271 3.031 1.006 4.405 1.809 1.434.838 3.41 1.506 5.077 1.06.634-.17 1.196-.838 1.155-1.517-.055-.92-.364-1.729-.603-2.605-.017-.059-.106-.479-.082-.273-.012-.103-.008-.205-.008-.308 0 .018-.031.251-.01.066.008-.067.034-.134.053-.197-.008.027-.114.218-.023.067.049-.081.284-.384.116-.196.495-.553.855-.743 1.585-1.058.681-.293 1.3-.596 1.945-.683.481-.065.94-.15 1.41-.277.196-.053.392-.108.59-.153.099-.022.2-.036.298-.06.329-.08-.225.003.016-.003.15-.005.299-.029.449-.034.076-.002.152.001.228-.003.112-.006.156-.054.074-.007-.078.046-.071-.032.044.017l-.179-.101c-.188-.129-.23-.145-.127-.048l.052.054c-.066-.09-.069-.09-.007-.001.06.086.115.176.174.262.46.677 1.179 1.221 1.638 1.805.405.516.69 1.338 1.029 1.966.402.744.878 1.408 1.089 2.215.228.872.445 1.697.894 2.488.852 1.501 1.503 3.069 2.2 4.653.373.846.852 1.545 1.448 2.25.475.562.842 1.221 1.28 1.909.957 1.503 2.125 2.825 3.159 4.268.597.833 1.106 1.791 1.836 2.518.212.212.462.39.705.565.06.044.401.29.293.201.339.28.621.633.894.976.924 1.163 2.055 2.904 3.682 2.984.913.045 1.511-.767 1.587-1.586.072-.776-.381-1.559-.775-2.195a7.561 7.561 0 0 0-.72-.979c-.116-.135-.242-.26-.362-.39a7.333 7.333 0 0 1-.237-.261c.074.105.058.077-.049-.084l-.587 2.237c.365-.198.734-.394 1.112-.565-.212.096.203-.073.27-.091.218-.06.272-.016.566-.023 1.206-.03 2.179-.656 3.218-1.192.932-.482 1.718-.855 2.706-1.148 1.079-.32 2.078-.706 3.069-1.247.926-.505 1.78-.902 2.778-1.24.493-.167.985-.333 1.466-.531.544-.222 1.065-.537 1.603-.751.429-.172.911-.233 1.358-.37a6.304 6.304 0 0 0 1.642-.771c.81-.54 2.044-1.44 2.334-2.418.413-1.396-.808-2.53-2.09-2.754-.901-.157-2.032-.024-2.793-.149-.482-.079-.959-.271-1.425-.414-.4-.121-1.007-.304-1.278-.42-.967-.414-1.758-1.096-2.765-1.453-.808-.286-1.666-.954-2.497-1.392-.938-.494-1.963-.762-2.852-1.324-.407-.257-.751-.605-1.161-.867-.32-.204-.814-.459-1.032-.622-.467-.347-.893-.745-1.388-1.054-.184-.114-.379-.209-.554-.337-.043-.031-.248-.236-.413-.394a14.97 14.97 0 0 0-1.286-1.096c.052.039.114.116.111.184.005-.132-.042-.176-.025-.005-.01-.1-.003-.198-.001-.298-.004.28.003-.03.02-.108.187-.871.543-1.946.882-2.652.251-.523.439-.81.808-1.164.355-.34.124-.098.097-.083-.155.084.145-.033.2-.046.281-.068-.184.024.106-.024.231-.038.464-.056.695-.094.124-.021.247-.048.371-.071.006-.001.287-.041.146-.026.304-.031.509-.016.713.044.701.208 1.422.294 2.134.091 1.277-.365 1.59-2.226.378-2.892-.653-.358-1.237-.825-1.889-1.183-.762-.417-1.599-.736-2.411-1.043a18.75 18.75 0 0 0-5.007-1.163c-1.718-.152-3.459-.007-5.182-.04-.222-.003-.445-.006-.666-.018-.048-.002-.498-.065-.3-.025-.174-.035-.366-.073-.525-.15.164.08-.221-.136-.08-.051-.171-.103-.118-.134-.017.08-.122-.258-.019.103-.03-.061-.022-.332.007-.667.008-1 .003-.868-.741-1.607-1.608-1.607-.874 0-1.604.736-1.607 1.608-.003.832-.043 1.665.358 2.428.462.88 1.369 1.46 2.298 1.746.905.279 1.9.245 2.837.244.928-.001 1.856-.026 2.785-.035a15.468 15.468 0 0 1 5.127.799c.771.255 1.544.542 2.266.917.716.373 1.342.893 2.046 1.286l.378-2.892c.009-.002.433.099-.08-.002-.124-.024-.247-.067-.37-.098a5.552 5.552 0 0 0-1.175-.176c-.395-.012-.795.05-1.184.113-.127.021-.254.046-.381.07-.312.057-.009.009-.296.043-.869.103-1.596.341-2.264.931-.499.442-.934 1.017-1.264 1.594-.615 1.076-1.047 2.394-1.346 3.599-.346 1.394-.146 2.839 1.012 3.798.46.381.859.741 1.347 1.168.481.422 1.161.779 1.592 1.112.531.411 1.036.836 1.62 1.171.596.343.947.712 1.589 1.119 1.144.723 2.454 1.056 3.618 1.77.513.315 1.019.641 1.567.895.746.346 1.162.459 1.832.88 1.267.797 2.644 1.234 4.068 1.662.775.232 1.58.274 2.384.276.343.001.684.001 1.026.023.366.024.071-.004.031.005.184.058.197.051.039-.021a1.548 1.548 0 0 1-.163-.171l-.219-.812c.38-.72.428-.918.142-.592-.084.087-.17.173-.257.258a6.76 6.76 0 0 1-.535.48c.092-.069.058-.046-.102.069a5.311 5.311 0 0 1-.301.194c-.153.09-.315.189-.482.253-.309.118-.92.212-1.336.345-.528.169-1.024.421-1.519.667-.859.428-1.811.67-2.718 1.007-1.064.394-2.025.938-3.028 1.457-.815.421-1.694.589-2.6.92-.995.364-1.969.812-2.906 1.306-.317.167-.87.482-1.049.56-.38.164-.996.077-1.487.162-.872.151-1.702.628-2.459 1.068-.723.422-1.086 1.507-.586 2.237.242.355.514.683.815.989.104.105.21.208.312.315.112.117.17.189.167.184.142.195.274.404.395.613l.074.13c.084.172.091.174.021.008l.038.123c-.011-.232-.021-.266-.029-.103l1.586-1.587c.128.006.237.041.358.072.184.047.016-.094.068.026.05.116.028.029-.036-.039-.047-.049-.099-.094-.148-.142-.221-.218-.422-.456-.626-.691-.506-.581-.973-1.201-1.491-1.771a6.527 6.527 0 0 0-1.062-.921c-.135-.095-.288-.178-.413-.285.158.136-.173-.203-.194-.228-.58-.707-1.041-1.524-1.597-2.254-.563-.737-1.183-1.428-1.73-2.177a36.921 36.921 0 0 1-1.56-2.356c-.457-.737-1.094-1.415-1.568-2.069-.471-.651-.773-1.567-1.141-2.332-.396-.822-.665-1.717-1.1-2.531-.389-.728-.798-1.274-.98-1.998-.243-.963-.51-1.827-1.009-2.696-.454-.792-.842-1.607-1.258-2.418-.419-.817-1.048-1.418-1.683-2.063a12.79 12.79 0 0 1-.197-.205c-.005-.005-.196-.244-.088-.098.112.152-.068-.117-.09-.15-.044-.066-.086-.134-.132-.199-.297-.424-.623-.818-1.082-1.075-1.545-.867-3.661.079-5.215.309-1.014.15-1.87.637-2.8 1.034-.863.37-1.63.892-2.235 1.62-.63.759-1.03 1.669-.957 2.675.04.571.185 1.11.358 1.652.133.419.304.945.32 1.226l1.155-1.517c-.14.037-.287.037-.498 0-.324-.057-.65-.129-.97-.206-.666-.162-1.326-.659-2.008-1.02-1.617-.855-3.321-1.563-5.147-1.784-1.636-.198-3.344-.255-4.894.362-.69.275-1.365.653-2.068.872-.28.087-.621.084-.97.118-.56.054-1.082.14-1.612.323-.685.236-1.487.575-2.18.59-.452.01-.842-.076-1.3.027-.448.101-.828.312-1.198.574-.334.237-.335.23-.688.329-.421.118-.83.254-1.22.461-.62.329-1.245.756-1.818 1.161-.821.582-1.34 1.356-1.395 2.383-.04.772.02 1.639.145 2.402.111.679.321 1.458.832 1.949.676.65 1.739.782 2.627.867.967.093 1.936.005 2.903-.039.48-.022.963-.037 1.443-.008.345.021.846.174 1.299.225.944.107 1.918.031 2.868.029.982-.002 1.963 0 2.945 0v-3.117c-.707.005-1.436.058-2.107.294-.681.239-1.225.618-1.807 1.03-1.041.739-2.27.98-3.389 1.627-.522.303-1.02.638-1.556.918-.535.278-1.11.477-1.639.767-.621.341-.973.804-1.412 1.336.08-.097-.353.333-.326.313-.243.187-.511.343-.76.523-.511.369-.991.753-1.389 1.245-.427.528-.868 1.029-.968 1.723-.09.622.144 1.097.322 1.668.199.637.318 1.277.655 1.865.122.213.267.411.388.625.147.257-.107-.251.034.061.069.151.118.315.196.461.27.499.739.839 1.193 1.159.094.066.205.161.311.206l.06.041c-.42-.27-.515-.731-.287-1.383-.014-.014.28-.301.011-.021-.07.072-.136.148-.204.222-.455.498-.922 1.027-1.108 1.693-.228.814.021 1.643.488 2.322.386.56.582.788.774 1.319.524 1.448 1.842 2.844 3.394 3.168l-.73-2.766c-.537.599-1.093.977-1.26 1.837-.136.694-.121 1.423-.04 2.122.181 1.564 1.12 2.791 2.327 3.746.613.484 1.186.897 1.94 1.138.314.101.645.163.97.222.239.044.48.074.721.104.09.013.178.024.267.033-.152-.016-.123-.004.089.035.683.249 1.392.362 2.084.581.868.276 1.642.507 2.564.38.852-.117 1.653-.306 2.417-.721.762-.413 1.429-1.033 2.063-1.619a9.62 9.62 0 0 0 .703-.713c.025-.029.36-.451.37-.444.024.016-.44.176-.468.177l-.198-.019c-.196-.095-.206-.097-.03-.004l.124.079c-.124-.102-.14-.113-.047-.033.097.086.19.175.28.269.049.052.462.543.203.221.157.195.304.397.463.589l.103.12c.13.155.134.159.014.012l.073.122-.13-.487c-.064-.588.54-.932.093-.528.278-.251-.118.068-.16.095a23.096 23.096 0 0 1-1.295.74c-.639.336-1.064.451-1.79.659-.494.141-.9.359-1.292.686-.017.015-.43.344-.147.148-.058.04-.602.289-.35.19-1.39.548-2.805 1.054-4.208 1.571-1.566.578-2.986 1.346-4.462 2.111-.181.094-.364.186-.548.275.057-.028-.549.248-.321.152a7.58 7.58 0 0 1-.465.173c-.046.016-.429.146-.208.097-.47.104-.998.014-1.481.105-.396.075-.78.205-1.164.327-.382.122-.762.26-1.152.359-.385.098-.78.141-1.152.284-.198.077-.398.16-.584.26-.392.213-.034.073 0 .05l-.188-.003c.163.021.138.011-.077-.03a7.763 7.763 0 0 0-.739-.164c-.319-.057-.634-.11-.946-.198a5.954 5.954 0 0 1-.88-.312c-.798-.374-1.561-.775-2.4-1.058-.333-.113-.67-.213-1.004-.321a14.559 14.559 0 0 1-.453-.152c.027.01-.55-.221-.287-.105-.718-.318-1.349-.817-2.045-1.182-1.42-.746-2.819-1.492-4.19-2.328-.718-.439-1.41-.924-2.134-1.35-.732-.43-1.527-.743-2.308-1.07-.459-.192-1.053-.439-1.636-.784-.68-.401-1.312-.868-2.005-1.251-1.347-.743-2.756-1.363-4.07-2.165-1.311-.8-2.678-1.49-3.993-2.279-.595-.356-1.144-.778-1.754-1.109-.616-.334-1.245-.635-1.837-1.013-.129-.082-.208-.27-.462-.412.264.147.256.967.236.363a3.304 3.304 0 0 0-.084-.709 2.634 2.634 0 0 0-.697-1.198c-.072-.073-.152-.138-.23-.204a39.793 39.793 0 0 0-.491-.381c-.41-.373-.683-.936-.948-1.488a19.26 19.26 0 0 0-.24-.476c.017.034-.235-.483-.144-.26.002.003-.118-.52-.084-.266-.024-.181-.024-.376-.026-.558-.005-.533.139-1.289.275-2.014.079-.415.146-.832.192-1.252.02-.189.035-.377.046-.567.002-.126.008-.251.016-.377-.014.148 0 .131.039-.05-.025.029-.16.271.035-.039.222-.353-.166.118.156-.209.02-.02.375-.318.131-.144.126-.09.263-.157.396-.233.393-.224-.23.059.208-.091.103-.035.204-.072.308-.105.36-.117.727-.212 1.092-.313 1.466-.408 2.893-1.002 4.32-1.53 1.5-.557 2.969-1.288 4.527-1.661 1.617-.387 3.052-1.213 4.6-1.791 1.55-.578 3.142-1.033 4.685-1.627 1.466-.565 2.876-1.261 4.356-1.785 1.604-.568 3.245-.893 4.783-1.648.495-.242 1.154-.401 1.78-.578a6.843 6.843 0 0 0 1.02-.408c.335-.157.51-.189.972-.33.716-.218 1.399-.571 2.109-.815.83-.286 1.645-.568 2.443-.941 1.397-.653 2.707-1.473 4.105-2.126.716-.334 1.436-.66 2.153-.993.663-.308 1.504-.512 2.233-.785 1.46-.544 3.006-.802 4.47-1.343.737-.272 1.502-.447 2.254-.667.831-.244 1.647-.545 2.473-.805 1.562-.493 3.133-.954 4.694-1.452 1.62-.516 3.294-.734 4.93-1.182 1.57-.429 3.079-1.06 4.622-1.573 1.559-.518 3.1-1.006 4.553-1.793.685-.37 1.375-.729 2.061-1.097.374-.2.749-.402 1.109-.625.21-.13.443-.364.69-.35.516.03.955-.46.955-.954 0-.564-.44-.898-.955-.955Zm-65.703-2.942-.069-.181c-.477.437-.738 2.318-.775 2.909-.044.704.014 1.435.014 2.142 0 1.608.008 3.217 0 4.825-.005.938.174 1.813.716 2.617.593.879 2.248.833 3.175.98 1.014.16 1.919.276 2.954.277.928 0 1.857-.004 2.785 0 .927.004 1.72-.262 2.623-.283 1.086-.027 2.159.094 3.222-.133.893-.191 1.746-.357 2.639-.556 1.014-.226 2.12-.205 3.16-.352.748-.106 1.936-.147 2.434-.885.574-.849-.626-1.196-1.257-1.39-.843-.258-1.63-.281-2.5-.278-.755.003-1.93.209-2.647-.011-1.15-.354-.966-1.566-.967-2.502-.001-1.149.007-2.299 0-3.448-.005-1.023.25-1.904.266-2.91.012-.7.242-1.354.296-2.045.04-.53.008-.968.284-1.457l-.015.19"/><path fill="#39D2FA" d="m42.776 90.746-.022-.181a.987.987 0 0 0-.491-.856 1.004 1.004 0 0 0-1.001 0c-.162.091-.314.22-.44.358l.471-.275c-.219.092-.32.113-.49.284-.144.144-.131.155-.19.259-.02.033-.038.068-.056.102-.081.16-.148.329-.216.494-.08.195-.148.393-.21.594-.118.393-.213.793-.289 1.196a12.225 12.225 0 0 0-.19 1.708c-.03.663-.07 1.327-.086 1.99-.033 1.381-.092 2.763-.075 4.144a8.4 8.4 0 0 0 .122 1.235c.046.284.117.565.219.834.145.386.31.771.533 1.119.261.406.525.667.914.944.284.203.626.336.954.447.236.08.481.132.727.173.602.099 1.208.14 1.811.22l-.403-.054c1.105.152 2.2.335 3.317.35.541.007 1.083.001 1.624 0 .542 0 1.09.025 1.631-.005.67-.037 1.331-.175 1.995-.266l-.404.054c.936-.124 1.878-.023 2.818-.06 1.087-.044 2.152-.314 3.213-.535.533-.111 1.063-.244 1.603-.318l-.406.055c.44-.058.884-.089 1.326-.122a27.556 27.556 0 0 0 1.646-.177l-.406.054c.427-.056.856-.099 1.281-.171a4.898 4.898 0 0 0 1.249-.407c.249-.116.466-.291.677-.465.052-.044.103-.09.149-.141a3.39 3.39 0 0 0 .366-.477 2.149 2.149 0 0 0 .074-2.151c-.08-.15-.198-.285-.306-.413a1.084 1.084 0 0 0-.127-.126 3.025 3.025 0 0 0-.61-.427 6.742 6.742 0 0 0-1.088-.418c-.934-.275-1.892-.336-2.86-.339-.826-.003-1.663.161-2.488.055l.39.052a2.022 2.022 0 0 1-.49-.127l.35.148a1.417 1.417 0 0 1-.303-.177l.297.23a1.256 1.256 0 0 1-.187-.188l.23.297a1.354 1.354 0 0 1-.17-.287l.149.35a2.039 2.039 0 0 1-.132-.513l.053.39a5.622 5.622 0 0 1-.027-.814c.007-.337.009-.673.01-1.01.002-.906.008-1.81.006-2.716a10.81 10.81 0 0 1 .1-1.46l-.053.394c.064-.472.138-.943.185-1.417.037-.367.03-.736.079-1.101l-.053.395c.057-.406.156-.805.217-1.21.048-.316.09-.631.109-.95.01-.18.019-.36.041-.54l-.053.397a2.54 2.54 0 0 1 .16-.601l-.15.353c.017-.04.035-.08.054-.118l-2.74-.743c-.003.063-.001.126-.006.189-.03.355.183.789.428 1.033.253.254.669.444 1.033.428.378-.017.77-.14 1.033-.428l.229-.296c.132-.228.198-.473.2-.737l.003-.047-.052.388c.032-.175.05-.353.073-.53l-.052-.39a1.108 1.108 0 0 0-.264-.501c-.188-.243-.456-.457-.764-.527a1.753 1.753 0 0 0-.782 0c-.36.082-.69.37-.879.676-.142.228-.26.486-.333.742-.073.254-.098.529-.126.788-.033.31-.032.622-.072.931l.053-.395c-.087.633-.242 1.251-.3 1.89-.024.257-.02.516-.04.774-.022.258-.055.515-.089.771l.053-.394c-.08.59-.176 1.18-.196 1.775-.018.5 0 1 0 1.5.002.91.008 1.82-.006 2.73a6.66 6.66 0 0 0 .1 1.27c.092.519.352.975.69 1.371.043.05.09.096.141.139.15.127.31.26.484.356.169.093.354.164.533.232.083.032.169.057.256.076.492.105.995.128 1.496.104.434-.021.868-.071 1.303-.082a9.962 9.962 0 0 1 1.563.08l-.393-.053a6.67 6.67 0 0 1 1.657.455l-.36-.152c.166.071.326.153.47.262l-.306-.237c.066.052.126.109.177.175l-.237-.307c.03.04.054.082.074.127l-.153-.363a.597.597 0 0 1 .034.12l-.054-.405a.581.581 0 0 1 0 .152l.054-.405a.782.782 0 0 1-.049.167l.154-.365a1.285 1.285 0 0 1-.156.254l.24-.31c-.069.085-.145.16-.23.228l.31-.239a1.98 1.98 0 0 1-.414.238l.365-.154c-.356.149-.739.218-1.12.27l.406-.055c-.37.05-.741.095-1.111.146l.406-.055c-.793.104-1.593.121-2.385.223-.936.121-1.851.339-2.774.531-.467.096-.934.214-1.408.278l.405-.055c-.783.1-1.573.055-2.36.054-.507-.001-.995.047-1.497.116-.36.049-.718.115-1.078.164l.404-.054c-.477.063-.95.062-1.43.062l-1.51.002c-.492.001-.984.007-1.476-.02a17.487 17.487 0 0 1-1.389-.136l.403.054c-.515-.069-1.026-.159-1.542-.215-.32-.035-.639-.062-.957-.104l.402.054c-.39-.053-.783-.127-1.15-.278l.362.153a2.063 2.063 0 0 1-.434-.246l.306.237a1.475 1.475 0 0 1-.246-.243l.236.307a3.538 3.538 0 0 1-.416-.745l.153.361a4.486 4.486 0 0 1-.302-1.136l.054.401c-.081-.642-.032-1.29-.045-1.934-.013-.694-.037-1.388-.056-2.082-.02-.689-.031-1.376-.093-2.063-.054-.598-.13-1.199-.118-1.8.008-.424.045-.848.101-1.268l-.041.31c.056-.416.126-.843.283-1.235l-.109.259c.046-.099.103-.189.129-.299a1.299 1.299 0 0 0-.004-.59v.567a1.35 1.35 0 0 1 .053-.165l-.103.244a.781.781 0 0 1 .062-.119h-1.712l.11.158c.119.173.254.303.451.387a.908.908 0 0 0 .616.047c.155-.05.296-.132.416-.243.154-.14.304-.454.277-.668Z"/><path fill="#0A0A0A" d="m84.931 27.222-52.903-.33c-6.118-.038-12.428-.066-18.256 2.054-2.262.823-4.48 2.021-5.926 3.945-1.935 2.574-2.195 5.996-2.381 9.21L4.396 60.453c-.347 5.965-.693 11.967.017 17.9.312 2.608.893 5.329 2.636 7.296 2.2 2.483 5.732 3.216 9.02 3.66 19.243 2.593 38.749.066 58.118-1.3 3.532-.249 7.113-.468 10.472-1.587 3.36-1.119 6.532-3.27 8.08-6.454 1.293-2.66 1.334-5.734 1.35-8.692l.116-22.082c.034-6.55.613-13.46-2.756-19.396-.6-1.056-1.481-1.997-2.615-2.433-1.981-.762-4.6-.227-6.7-.242-1.333-.009-2.668.02-4 .032-3.266.027-6.532.058-9.798.091a9956.8 9956.8 0 0 0-21.793.243c-3.962.048-7.925.098-11.888.158-1.593.025-3.431-.195-5.006.103"/><path fill="#0A0A0A" d="M84.931 26.481c-11.835-.245-23.671-.532-35.508-.728-5.908-.098-11.815-.197-17.723-.294-5.502-.09-11.113-.127-16.464 1.335-2.584.706-5.117 1.735-7.193 3.46-1.997 1.66-3.171 4.037-3.697 6.546-.56 2.67-.606 5.437-.764 8.152l-.51 8.73c-.342 5.855-.83 11.727-.793 17.596.019 2.953.18 5.924.655 8.843.411 2.532 1.28 5.057 3.078 6.95 1.707 1.796 4.093 2.797 6.467 3.355 2.607.613 5.32.864 7.982 1.12 5.8.56 11.634.7 17.458.59 11.707-.222 23.362-1.442 35.032-2.291 5.42-.395 11.159-.571 15.954-3.445 2.1-1.26 3.99-3.013 5.16-5.186 1.326-2.465 1.672-5.267 1.75-8.026.081-2.909.046-5.824.062-8.734l.048-8.797c.015-2.869.016-5.738.06-8.607.038-2.518.085-5.041-.107-7.555-.203-2.638-.633-5.294-1.598-7.769-1.013-2.597-2.408-5.236-5.24-6.147-1.264-.407-2.653-.417-3.967-.354-1.272.062-2.533.135-3.808.14-2.884.01-5.769.054-8.653.08-11.765.111-23.53.235-35.294.4-1.351.02-2.702.068-4.053.032-1.373-.036-2.717-.042-4.076.2-.895.16-1.481 1.3-1.211 2.133.311.962 1.174 1.382 2.133 1.212.492-.088-.364.018.14-.025.156-.013.31-.028.465-.038.316-.02.633-.025.95-.024.69.001 1.381.038 2.072.057 1.37.038 2.743-.009 4.112-.028a9906.524 9906.524 0 0 1 25.843-.31c5.683-.06 11.367-.125 17.05-.171a69.178 69.178 0 0 0 3.723-.109c.606-.038 1.213-.07 1.82-.062.297.004.592.025.889.045.34.023.028-.006-.034-.01.185.012.38.064.56.107.136.033.272.07.405.113.08.025.477.214.1.024.25.126.486.264.717.425-.344-.24.02.028.076.08.104.094.203.193.3.295.096.103.186.21.277.318-.257-.305.01.021.061.098.34.5.618 1.048.88 1.593.067.14.132.281.196.424.019.042.214.517.067.15.133.332.262.667.379 1.006.399 1.154.691 2.344.9 3.546.053.3.099.602.143.905-.01-.067-.044-.356-.002-.013l.054.456c.073.661.127 1.324.166 1.988.143 2.465.082 4.936.048 7.403-.079 5.715-.067 11.432-.096 17.148-.015 2.79.019 5.586-.059 8.375a31.487 31.487 0 0 1-.105 1.913c-.023.264-.051.527-.084.79.051-.408-.02.112-.027.161-.034.208-.072.415-.113.62a12.776 12.776 0 0 1-.503 1.815 8.25 8.25 0 0 1-.17.44c.125-.292.013-.038-.014.015-.147.29-.288.58-.453.86a10.347 10.347 0 0 1-.678 1.006c.264-.349-.016.01-.063.066a11.9 11.9 0 0 1-1.746 1.691c-.354.29.297-.204-.079.058-.112.078-.22.16-.333.238a15.244 15.244 0 0 1-2.136 1.232c-.124.06-.249.117-.374.174-.066.03-.495.205-.087.04-.589.238-1.186.45-1.795.632-1.292.385-2.613.636-3.944.838-.55.083.348-.04-.204.028-.168.02-.335.041-.503.06-.28.033-.56.063-.84.09a88.95 88.95 0 0 1-2.19.187c-1.385.103-2.772.197-4.157.3-2.831.213-5.66.445-8.49.675-5.719.467-11.44.93-17.17 1.234-5.649.3-11.31.441-16.965.266a135.16 135.16 0 0 1-8.629-.536 114.021 114.021 0 0 1-4.216-.48c.388.051-.067-.01-.121-.018a46.683 46.683 0 0 1-1.092-.169c-.593-.1-1.183-.216-1.768-.357a17.71 17.71 0 0 1-1.458-.415 19.051 19.051 0 0 1-.768-.28c-.426-.164.324.16-.085-.039-.162-.078-.325-.151-.485-.233a9.995 9.995 0 0 1-1.36-.844c.347.255-.198-.178-.268-.242a7.76 7.76 0 0 1-.664-.687c-.038-.044-.318-.428-.09-.105-.083-.118-.167-.235-.246-.356a8.858 8.858 0 0 1-.627-1.133c-.026-.054-.205-.498-.057-.119a14.187 14.187 0 0 1-.296-.822c-.18-.56-.323-1.131-.44-1.707-.06-.29-.112-.58-.16-.872l-.067-.437c-.076-.487.043.364-.018-.124-.712-5.684-.445-11.424-.119-17.126.328-5.73.664-11.459.996-17.188.077-1.331.139-2.665.247-3.995a38.171 38.171 0 0 1 .116-1.182c.007-.06.073-.551.014-.132.09-.631.201-1.259.355-1.877a16.89 16.89 0 0 1 .474-1.521c.157-.448-.154.307.048-.122.061-.13.12-.262.182-.392a9.03 9.03 0 0 1 .493-.88c.078-.123.163-.24.243-.362.258-.396-.218.238.086-.117.155-.182.31-.364.476-.536a9.581 9.581 0 0 1 .955-.865c-.291.234.185-.131.239-.169.475-.331.974-.627 1.488-.896a17.1 17.1 0 0 1 .651-.322c.132-.061.265-.12.397-.18a21.635 21.635 0 0 1 .281-.116 27.918 27.918 0 0 1 3.72-1.17c2.68-.652 4.961-.892 7.748-1.036 2.67-.138 5.345-.132 8.018-.143l8.608-.035c11.538-.048 23.074-.152 34.612-.248l8.428-.07c.954-.008.954-1.461 0-1.48Z"/><path fill="#39D2FA" d="M25.522 43.965c-.692.273-1.404.493-2.077.815a5.367 5.367 0 0 0-.968.604c-.362.28-.67.603-.859 1.027a7.817 7.817 0 0 0-.416 1.172c-.087.323-.183.647-.243.976-.049.267-.09.54-.097.812a4.43 4.43 0 0 0 .08.812c.045.28.18.557.29.812.07.16.147.314.236.463a6.157 6.157 0 0 0 1.854 1.934c.055.036.113.068.173.096.163.076.33.15.502.207.145.048.294.078.444.1.266.037.529.076.797.075.262 0 .52-.04.779-.076.795-.11 1.518-.502 2.146-.986a8.457 8.457 0 0 0 1.504-1.485c.267-.343.526-.686.717-1.078.189-.389.357-.799.438-1.225.05-.269.11-.554.088-.829a3.256 3.256 0 0 0-.154-.814c-.18-.512-.416-.997-.773-1.41-.104-.12-.228-.22-.327-.345l.206.267a1.97 1.97 0 0 1-.229-.414l.133.314c-.083-.197-.163-.395-.251-.59a.994.994 0 0 0-.339-.369.991.991 0 0 0-.447-.235.997.997 0 0 0-.525-.024.979.979 0 0 0-.489.157c-.28.18-.528.45-.604.785l-.047.35c0 .237.06.459.18.664l.028.066-.132-.315c.123.294.22.608.395.875.112.171.242.338.386.485.076.077.154.152.221.236l-.207-.267c.133.175.229.388.315.59l-.134-.318c.077.184.139.374.169.572l-.048-.354c.015.114.016.226.002.34l.047-.353c-.042.31-.125.61-.245.898l.134-.32c-.15.352-.35.677-.582.98l.21-.273a7.923 7.923 0 0 1-1.375 1.376l.275-.212a4.334 4.334 0 0 1-.944.556l.325-.138a3.27 3.27 0 0 1-.816.228l.36-.048c-.294.038-.592.04-.887 0l.36.049a2.252 2.252 0 0 1-.53-.138l.321.136a2.2 2.2 0 0 1-.47-.297l.271.21a5.055 5.055 0 0 1-.877-.877l.21.27a4.092 4.092 0 0 1-.516-.865l.134.317a3.206 3.206 0 0 1-.222-.786l.046.347a3.508 3.508 0 0 1 .02-.895l-.046.333c.043-.318.093-.637.149-.953.054-.308.125-.613.245-.903l-.116.276c.071-.166.137-.333.205-.5l-.114.268c.093-.217.224-.412.367-.599l-.158.204c.357-.458.794-.836 1.247-1.194l-.147.113c.068-.049.134-.1.198-.153l-.145.112c.3-.232.604-.459.899-.697.185-.15.213-.491.088-.685a.676.676 0 0 0-.203-.202c-.108-.07-.313-.106-.435-.057Zm8.889 2.725a.597.597 0 0 0 .103.03l-.227-.096c.157.091.325.133.504.14.197.01.333-.059.505-.14a2.721 2.721 0 0 0 .273-.147c.138-.082.273-.17.41-.256.273-.173.536-.38.837-.507l-.275.116a.99.99 0 0 1 .233-.067l-.308.041a.56.56 0 0 1 .125-.002l-.31-.041a.405.405 0 0 1 .1.027l-.28-.118a.389.389 0 0 1 .069.04l-.238-.184c.026.02.049.044.07.07l-.185-.24a.734.734 0 0 1 .086.157l-.12-.285c.039.097.063.197.079.3l-.043-.321c.05.376-.012.755-.059 1.128l.046-.336c-.035.25-.066.493-.069.745-.002.201 0 .403.002.604.004.392.015.79-.035 1.178l.046-.343c-.034.24-.087.475-.128.714-.058.341-.088.683-.12 1.027a40.88 40.88 0 0 1-.168 1.48c-.126.977-.25 1.955-.304 2.939-.015.278-.024.556-.026.835-.002.28.003.554-.033.832l.047-.354c-.062.46-.167.919-.182 1.384-.013.371.042.744-.002 1.114l.047-.353c-.036.256-.122.5-.161.756-.036.234-.073.461-.056.697.009.13.02.262.01.391l.046-.346-.005.037a.982.982 0 0 0-.024.516c.008.173.06.333.154.482l.203.262a.972.972 0 0 0 .417.268c.1.059.21.088.327.088a.979.979 0 0 0 .517-.023c.311-.1.62-.295.774-.595.161-.313.258-.635.237-.99-.008-.14-.017-.276.001-.417l-.047.352c.026-.178.077-.35.118-.525.068-.288.108-.587.112-.883.004-.394-.033-.781.02-1.174l-.048.354c.031-.23.074-.458.107-.688.049-.349.083-.678.082-1.029-.001-.492.023-.984.062-1.474.076-.974.208-1.944.304-2.916.026-.27.05-.538.071-.808.022-.28.029-.56.066-.838l-.047.346c.062-.44.161-.878.182-1.323.017-.356 0-.714-.011-1.07-.01-.312-.007-.62-.003-.93.005-.284.02-.567-.012-.85-.025-.228-.047-.473-.121-.695a2.151 2.151 0 0 0-.264-.57c-.16-.224-.301-.393-.547-.534a1.55 1.55 0 0 0-.74-.202c-.08-.002-.158.014-.237.024-.083.011-.167.018-.247.041-.163.049-.322.12-.472.202-.236.13-.45.31-.656.482-.317.266-.557.612-.878.874l.197-.152c-.14.094-.281.204-.362.358a1.05 1.05 0 0 0-.133.506l.034-.252a.723.723 0 0 1-.014.035l.092-.218a.594.594 0 0 1-.03.061.842.842 0 0 0-.043.763.642.642 0 0 0 .177.276c.107.106.233.18.378.22Z"/><path fill="#39D2FA" d="M32.814 61.157c.11-.039.22-.092.333-.119l-.208.028c.359-.014.728-.037 1.085.008l-.31-.041c.333.047.655.149.979.234.196.051.408.062.611.086.09.01.182.018.273.026l.573.049c.385.033.77.034 1.156.05.284.011.567.049.85.07.168.014.337.023.505.02.076 0 .152-.004.228-.011a8.26 8.26 0 0 0 .524-.07l.039-.006a.539.539 0 0 0 .219-.086.564.564 0 0 0 .213-.096l.325-.25.251-.326.162-.384c.067-.213.077-.427.029-.64a.799.799 0 0 0-.11-.406.801.801 0 0 0-.206-.355.808.808 0 0 0-.288-.288 1.21 1.21 0 0 0-.547-.288l-.023-.003a1.225 1.225 0 0 0-.644-.03c-.108.015-.175.022-.266.041a1.5 1.5 0 0 1-.134.023l.429-.057c-.35.046-.706.028-1.058.014a16.339 16.339 0 0 0-1.12.002c-.45.012-.896.074-1.345.101a7.314 7.314 0 0 0-1.245.189c-.192.047-.368.127-.55.208-.447.199-.807.546-1.16.877l.159-.123c-.081.052-.177.085-.266.122l.185-.078-.058.024c-.193.08-.35.166-.46.354a.786.786 0 0 0-.077.593c.06.186.175.366.354.46.176.093.397.145.593.078Zm14.044-15.096c-.618.103-1.24.195-1.838.387a4.88 4.88 0 0 0-1.024.439c-.19.114-.37.25-.536.397-.169.149-.306.34-.437.52-.236.324-.375.727-.473 1.115a4.98 4.98 0 0 0-.151 1.21 4.496 4.496 0 0 0 .751 2.5c.296.429.62.81 1.084 1.063.271.147.564.253.842.386.382.184.794.36 1.215.432.253.044.526.094.786.064a3.92 3.92 0 0 0 .745-.142 5.77 5.77 0 0 0 2.18-1.299c.26-.243.525-.478.778-.727.32-.315.61-.659.869-1.026.556-.788.778-1.748.802-2.7.015-.56-.033-1.169-.34-1.657a2.447 2.447 0 0 0-.365-.463c-.068-.065-.15-.122-.223-.178-.083-.064-.158-.129-.25-.177a2.452 2.452 0 0 0-1.119-.279c-.282-.005-.556.05-.835.089l-.34.143c-.165.09-.298.212-.398.366a.71.71 0 0 0-.183.314c-.09.17-.13.352-.123.548.012.253.076.495.194.718.09.166.212.299.367.4.137.125.298.21.483.254.228.037.457.082.688.07.106-.004.212-.006.318.008l-.385-.052c.067.01.13.027.192.052l-.346-.146a.826.826 0 0 1 .158.094l-.292-.226c.06.049.11.102.158.162l-.226-.292c.06.084.112.173.154.267l-.144-.342c.074.178.105.363.131.553l-.05-.37c.05.374.075.75.026 1.125l.047-.348a1.97 1.97 0 0 1-.139.47l.132-.31c-.12.28-.285.54-.47.783l.203-.262c-.24.311-.518.59-.802.863-.271.259-.534.536-.83.767l.258-.2a4.684 4.684 0 0 1-1.001.586l.304-.128a2.76 2.76 0 0 1-.69.204l.337-.045a1.583 1.583 0 0 1-.376-.01l.336.046a3.49 3.49 0 0 1-.848-.248l.301.127c-.307-.132-.614-.266-.922-.396l.3.127a2.688 2.688 0 0 1-.589-.313l.254.195a2.064 2.064 0 0 1-.33-.358l.195.253a3.421 3.421 0 0 1-.42-.727l.124.296a4.463 4.463 0 0 1-.287-1.082l.043.323a3.773 3.773 0 0 1-.003-1.002l-.042.31c.03-.21.073-.417.134-.62.057-.188.088-.38.164-.564l-.104.247c.067-.156.159-.3.262-.435l-.148.192c.178-.227.387-.424.614-.601l-.16.124c.07-.05.138-.105.206-.158l-.159.122c.514-.367 1.084-.638 1.646-.92.221-.11.294-.407.203-.62-.102-.243-.337-.33-.586-.288Zm2.556 14.349c.576-.308 1.146-.627 1.748-.882l-.215.09c.23-.096.492-.162.74-.199l-.267.036a.755.755 0 0 1 .186-.009l-.521-.14.015.007-.374-.374a.21.21 0 0 1 .014.027l-.11-.26.004.016.112-.857a.978.978 0 0 0-.148.444.575.575 0 0 0 0 .303c.006.063.015.125.026.187l-.04-.304c.008.07.008.138.002.209l.04-.309c-.025.194-.1.374-.163.558-.1.292-.132.604-.166.909-.024.208-.02.42-.033.63-.013.22-.043.44-.072.659l.047-.35c-.11.817-.291 1.62-.44 2.429-.163.89-.346 1.775-.46 2.674a6.93 6.93 0 0 0-.058.654c-.007.219.019.437-.006.656l.05-.38a.985.985 0 0 1-.046.2l.145-.34c-.08.183-.192.334-.24.539a2.572 2.572 0 0 0-.058.405.65.65 0 0 0 .003.065c.011.123.024.284.057.403.036.132.11.267.163.392l2.19-1.69a1.532 1.532 0 0 0-.683-.405l-.364-.049-.364.049-.328.138c-.16.086-.287.204-.384.353a.684.684 0 0 0-.176.302.682.682 0 0 0-.094.346.69.69 0 0 0 0 .364c.009.182.063.352.163.51a.408.408 0 0 1 .032.058l-.14-.331.007.022c.1.327.33.67.64.834l.334.14c.185.058.37.067.556.025a.695.695 0 0 0 .352-.095c.173-.056.322-.152.449-.288l.218-.283c.126-.217.19-.452.19-.703l.002-.033-.05.373a.424.424 0 0 1 .02-.081l-.143.34c.064-.144.122-.29.183-.435l-.145.342c.079-.168.161-.328.223-.506.064-.183.076-.397.094-.581.017-.175.002-.35-.004-.524-.011-.36.033-.725.081-1.081l-.05.376c.125-.92.322-1.83.444-2.75.11-.828.205-1.66.233-2.495.015-.459-.066-.925-.01-1.38l-.044.322c.048-.34.153-.686.121-1.03-.013-.146-.026-.302-.068-.444-.12-.401-.402-.729-.813-.846a1.14 1.14 0 0 0-.883.11c-.19.112-.291.233-.412.414l.374-.373-.015.009.246-.104a3 3 0 0 0-.693.313c-.22.131-.437.267-.654.402-.466.29-.909.615-1.356.931-.17.12-.302.26-.358.466a.796.796 0 0 0 .078.6.796.796 0 0 0 1.066.28Z"/><path fill="#39D2FA" d="M47.837 68.973c.117 0 .236-.001.352.009l-.251-.034c.344.086.683.211 1.033.267.454.073.91.143 1.366.195.367.041.738.069 1.107.084.358.014.72.013 1.076.05.162.016.323.04.486.048.081.004.161.002.242-.006.147-.016.303-.028.45-.064l.04-.012a1.04 1.04 0 0 0 .47-.247.436.436 0 0 0 .155-.127l.214-.277c.1-.157.154-.327.162-.509a.689.689 0 0 0 0-.364 1.02 1.02 0 0 0-.162-.509l-.017-.021a1.014 1.014 0 0 0-.345-.377 1.01 1.01 0 0 0-.457-.24c-.346-.079-.725-.058-1.034.135l-.02.013c.352-.046.703-.093 1.055-.138-.256-.046-.498-.083-.757-.004-.022.006-.043.015-.065.021a1.096 1.096 0 0 1-.156.032l.364-.049c-.268.032-.537.002-.806.015-.345.017-.69.035-1.034.06-.672.05-1.338.062-2.01.047a3.741 3.741 0 0 0-.561.039c-.266.033-.532.068-.796.112l.252-.034c-.118.002-.236-.005-.353-.005a.974.974 0 0 0-.669.277c-.163.163-.287.433-.276.668.023.513.415.944.945.945Zm12.287-8.115c.258-.26.49-.546.726-.826.25-.295.497-.6.802-.838l-.192.148c.177-.136.364-.26.565-.359l-1.403-.368c.044.068.082.14.115.213l-.106-.251c.056.135.093.275.114.42l-.039-.293c.017.133.02.266.007.4l.04-.305c-.023.151-.037.303-.056.454l.041-.307c-.093.678-.175 1.358-.266 2.036l.043-.322c-.067.498-.151.994-.215 1.493-.051.4-.056.809-.056 1.212 0 .399.012.797.016 1.196.005.4.018.804-.035 1.201l.046-.343c-.022.153-.067.296-.108.444-.096.347-.12.715-.002 1.06.105.309.287.58.575.748.269.157.664.223.965.126.303-.098.596-.286.749-.576.162-.307.2-.622.126-.965l-.028-.125c-.064-.25-.174-.383-.334-.575a.892.892 0 0 0-.383-.246.897.897 0 0 0-.459-.103c-.302.014-.636.112-.841.349-.168.193-.264.325-.336.575l-.035.125 2.416.666c.036-.216.106-.426.153-.64.073-.33.1-.676.1-1.013.001-.5-.023-.999-.04-1.498a15.323 15.323 0 0 1 .011-1.503c.034-.508.082-1.014.113-1.522.018-.288.034-.576.05-.865.01-.137.017-.275.026-.412l.015-.216c.009-.154-.02-.299-.042-.454l.04.305c-.022-.186-.04-.377-.09-.558a3.574 3.574 0 0 0-.202-.511 2.294 2.294 0 0 0-.477-.663c-.181-.177-.467-.312-.725-.3l-.273.037a1.025 1.025 0 0 0-.453.263c-.295.237-.525.536-.754.835l.145-.188c-.381.462-.738.94-1.104 1.414l.138-.178c-.1.128-.202.255-.309.377-.153.174-.254.376-.254.613 0 .213.095.467.254.613.165.152.382.265.613.254a.899.899 0 0 0 .613-.254Z"/><path fill="#39D2FA" d="M59.19 68.535c.069-.009.136-.023.203-.042l-.189.026.033.004-.366-.1c.154.08.325.17.49.208.062.015.124.031.186.05.16.05.331.053.497.06.158.007.317.03.475.026l.476-.012c.33-.012.665-.005.994-.039.335-.034.67-.07 1.004-.113a21.475 21.475 0 0 0 1.506-.234 1.61 1.61 0 0 0 1.126-1.126c.05-.335.11-.614 0-.95-.129-.4-.386-.8-.774-.996a1.175 1.175 0 0 0-.588-.188 1.196 1.196 0 0 0-.63.029l-.377.159a1.58 1.58 0 0 0-.567.567c-.139.307-.24.497-.232.845.001.035.003.07.001.105l1.184-1.554c-.63.2-1.274.35-1.92.488-.32.069-.633.164-.947.258-.154.047-.309.093-.464.137a5.21 5.21 0 0 0-.701.27c-.233.105-.445.224-.62.416a1.65 1.65 0 0 0-.32.463c-.037.085-.072.17-.107.255l.08-.191-.032.075.113-.147-.022.022.313-.183c-.065.024-.13.044-.198.06-.358.081-.603.513-.49.863a.71.71 0 0 0 .323.419l.167.07a.706.706 0 0 0 .373 0Zm13.506-11.317c-.853.277-1.748.571-2.475 1.114-.229.17-.454.346-.646.557-.203.222-.38.47-.546.72-.147.22-.281.45-.388.694-.082.186-.166.375-.224.57a3.71 3.71 0 0 0-.109 1.32c.029.333.075.666.132.995.082.47.197.936.345 1.39.157.484.344.967.628 1.392.28.419.608.818.994 1.144.39.33.808.635 1.278.842.277.122.557.244.85.322.304.081.621.123.934.148.191.016.383.012.574-.011.312-.037.623-.074.92-.18.331-.116.654-.262.948-.454.205-.135.397-.287.597-.43.496-.355 1.023-.653 1.486-1.058.175-.154.334-.325.479-.508.207-.263.41-.525.571-.819a5.994 5.994 0 0 0 .607-1.595 5.808 5.808 0 0 0 .144-1.58c-.033-.533-.11-1.081-.292-1.586a5.708 5.708 0 0 0-.4-.902 4.731 4.731 0 0 0-.556-.759c-.132-.15-.285-.28-.42-.429-.142-.157-.281-.316-.447-.449-.16-.128-.338-.284-.53-.376-.215-.102-.436-.203-.672-.243-.23-.04-.483-.094-.721-.082-.18.008-.364.045-.543.073-.065.01-.13.022-.195.035-.218.042-.424.125-.638.183l-.32.136c-.157.084-.283.2-.378.346a.672.672 0 0 0-.173.297c-.084.16-.123.333-.116.518.011.238.072.467.184.678.152.288.493.536.803.618.29.077.605.15.903.161l-.394-.052c.23.045.466.06.698.09l-.406-.055c.207.029.416.078.624.086.082.003.162.008.243.017l-.413-.055c.11.015.217.037.32.079l-.37-.156c.097.042.185.097.27.162l-.313-.242c.193.153.354.34.53.512.166.161.338.305.481.489l-.237-.308c.166.217.3.455.408.706l-.151-.36c.146.35.242.716.293 1.09l-.053-.395c.048.37.05.747.001 1.117l.053-.39c-.06.42-.169.83-.333 1.221l.146-.347a4.17 4.17 0 0 1-.524.899l.225-.291a3.84 3.84 0 0 1-.677.67l.288-.222c-.206.157-.422.3-.635.448-.3.208-.584.437-.871.66l.284-.219-.338.261.284-.22a3.638 3.638 0 0 1-.745.463l.332-.14a2.719 2.719 0 0 1-.681.187l.366-.049a3.014 3.014 0 0 1-.767 0l.363.048a3.624 3.624 0 0 1-.91-.25l.322.136a4.293 4.293 0 0 1-.93-.545l.27.209a4.363 4.363 0 0 1-.777-.776l.206.266a4.673 4.673 0 0 1-.572-1.022l.13.308a9.195 9.195 0 0 1-.652-2.31l.043.321c-.041-.313-.08-.628-.04-.943l-.042.302a4.01 4.01 0 0 1 .296-1l-.105.248c.128-.3.27-.586.47-.847l-.15.192c.22-.281.48-.526.762-.744l-.172.132c.465-.357.975-.645 1.488-.926.298-.164.407-.55.279-.852-.126-.299-.48-.5-.805-.395Zm-13.185-9.317a1.34 1.34 0 0 0 .36-.044c.118-.028.232-.085.34-.136.087-.04.166-.09.243-.146.247-.18.476-.38.716-.568l-.217.168a1.78 1.78 0 0 1 .367-.227l-.26.11a.542.542 0 0 1 .11-.033l-.29.04a.349.349 0 0 1 .09-.002l-.29-.039c.021.004.041.01.061.018l-.261-.11c.02.01.04.02.058.034l-.222-.172c.024.02.045.042.065.066l-.172-.222a.393.393 0 0 1 .044.07l-.11-.263a.49.49 0 0 1 .026.106l-.04-.291c.022.177.001.359-.016.536-.02.214-.02.427-.02.641.003.568.029 1.14-.046 1.704l.04-.3c-.093.68-.3 1.335-.432 2.007a6.95 6.95 0 0 0-.15 1.294c0 .176.024.354.042.53l.011.114c.02.198.036.33.11.504.048.116.102.228.16.34.16.308.526.496.865.496.326 0 .724-.185.866-.497.06-.133.115-.27.172-.405.061-.147.072-.318.075-.476.003-.146.006-.291.012-.436.012-.292.01-.58.048-.87l-.04.307c.085-.631.26-1.245.372-1.871.071-.402.129-.81.137-1.219.007-.335-.005-.67-.015-1.005-.008-.274-.023-.55-.002-.824.023-.303.026-.59-.037-.892-.051-.247-.198-.465-.366-.647a1.363 1.363 0 0 0-.61-.366 1.515 1.515 0 0 0-1.151.17c-.41.238-.69.626-1.057.915l.21-.162a.932.932 0 0 1-.189.118l.246-.104a.406.406 0 0 1-.1.029l.271-.037a1.076 1.076 0 0 0-.748.301c-.177.178-.31.469-.299.724.026.574.45.997 1.023 1.022Zm8.887.081c.132-.112.266-.22.403-.325l-.13.101c.27-.21.564-.391.838-.598.161-.12.329-.24.472-.382.087-.087.168-.18.264-.257l-.175.135c.08-.059.158-.121.235-.183l-.176.136a.815.815 0 0 1 .163-.094l-.21.088a.918.918 0 0 1 .2-.052l-.235.031a.68.68 0 0 1 .146-.001l-.236-.032c.036.005.07.014.104.026l-.214-.09a.48.48 0 0 1 .089.049l-.182-.14a.526.526 0 0 1 .087.085l-.141-.183a.741.741 0 0 1 .087.154l-.092-.218c.042.104.065.213.081.324l-.033-.246c.075.58-.025 1.168-.037 1.748-.013.618.005 1.236-.077 1.85l.036-.263c-.06.422-.131.84-.152 1.266-.016.345 0 .69-.043 1.032l.036-.27c-.04.287-.103.57-.153.855a.776.776 0 0 0-.018.408.761.761 0 0 0 .122.38c.124.212.367.415.61.47.263.06.557.047.789-.103.209-.134.431-.354.47-.611.077-.508.195-1.017.194-1.533 0-.456-.004-.906.056-1.36l-.035.264c.045-.319.09-.637.107-.959.013-.25.014-.5.011-.751-.002-.243-.01-.486-.009-.728.002-.233.018-.466.019-.7 0-.233-.005-.468-.032-.7-.03-.264-.057-.542-.156-.791-.052-.129-.1-.265-.18-.38a1.467 1.467 0 0 0-.442-.44c-.306-.2-.673-.221-1.022-.154a1.517 1.517 0 0 0-.948.634c-.115.154-.193.332-.31.485l.123-.16c-.36.465-.775.882-1.158 1.329a.643.643 0 0 0-.177.427c0 .148.066.325.177.427.257.236.596.219.854 0Z"/><path fill="#39D2FA" d="M69.494 54.663c.242-.031.484-.065.727-.097l-.235.031c.26-.035.52-.068.781-.091.128-.011.255-.02.383-.026.21-.008.415-.03.624-.059l-.258.035c.106-.014.245-.02.334-.044.173-.05.326-.13.459-.256.04-.038.078-.077.118-.114.316-.291.299-.836 0-1.13-.156-.154-.327-.295-.541-.358a1.553 1.553 0 0 0-.39-.045 1.589 1.589 0 0 0-.265.02 7.25 7.25 0 0 0-.732.135c-.414.098-.821.221-1.23.334a.848.848 0 0 0-.608.93.805.805 0 0 0 .233.487c.154.14.383.276.6.248ZM36.18 66.506c-.628-.15-1.26-.281-1.905-.334l.227.03a4.99 4.99 0 0 0-1.172-.05 5.124 5.124 0 0 0-.726.113c-.2.049-.389.124-.579.204a3.806 3.806 0 0 0-.573.289 3.347 3.347 0 0 0-.214.148c-.146.11-.302.22-.432.35-.127.128-.232.284-.338.427-.054.073-.104.15-.151.227a6.66 6.66 0 0 0-.252.466c-.08.161-.16.322-.247.48-.046.08-.096.159-.143.24-.11.19-.192.395-.269.6-.108.29-.146.595-.18.903-.023.19-.021.381 0 .572.037.307.076.61.172.904.097.295.218.588.361.864.132.253.322.477.497.699.116.147.241.288.366.43.116.13.223.272.35.393.194.185.416.35.645.491.291.18.608.316.918.46.394.183.79.35 1.22.418.436.07.866.118 1.306.077.444-.041.89-.109 1.315-.245a6.776 6.776 0 0 0 1.206-.517 6.523 6.523 0 0 0 1.049-.745c.333-.282.605-.618.857-.974.268-.379.456-.8.623-1.232a4.73 4.73 0 0 0 .285-1.347c.024-.308.047-.63.03-.938a2.52 2.52 0 0 0-.262-1.047c-.073-.15-.192-.282-.297-.41a1.498 1.498 0 0 0-.136-.142c-.094-.087-.193-.168-.273-.267l.214.278a.746.746 0 0 1-.061-.092 1.381 1.381 0 0 0-1.186-.68c-.242.02-.483.05-.694.185l-.274.212-.218.283a1.367 1.367 0 0 0 0 1.386c.126.2.275.382.456.532.098.082.2.16.28.262l-.212-.275a.712.712 0 0 1 .072.117l-.137-.324c.026.061.04.125.05.19l-.049-.36c.027.203.015.409.001.613-.013.194-.017.389-.04.582l.048-.362a3.724 3.724 0 0 1-.261.936l.138-.327c-.143.335-.325.65-.547.939l.215-.279c-.2.256-.433.479-.688.678l.28-.217a4.93 4.93 0 0 1-1.066.621l.333-.14a4.772 4.772 0 0 1-1.202.333l.371-.05a3.97 3.97 0 0 1-1.022.005l.373.05a3.322 3.322 0 0 1-.81-.216l.336.142c-.233-.099-.463-.21-.693-.316a3.639 3.639 0 0 1-.683-.392l.284.22c-.17-.134-.303-.3-.448-.459-.161-.175-.323-.35-.47-.539l.217.281a2.905 2.905 0 0 1-.357-.624l.14.33a3.142 3.142 0 0 1-.224-.795l.049.365a2.467 2.467 0 0 1 .003-.624l-.049.364a3.13 3.13 0 0 1 .221-.738l-.136.323c.13-.302.262-.603.372-.914.072-.202.14-.405.224-.602l-.128.303a3.32 3.32 0 0 1 .402-.698l-.188.243c.163-.208.347-.397.557-.559l-.222.172c.204-.155.425-.283.66-.384l-.237.1a4.23 4.23 0 0 1 .99-.269l-.228.03c.096-.004.193-.02.288-.036l-.227.03c.572-.053 1.146-.028 1.718.007a.702.702 0 0 0 .496-.206.722.722 0 0 0 .193-.403c.044-.332-.161-.688-.503-.77Z"/><path fill="#0A0A0A" d="M41.625 100.797c1.134.021 2.269.072 3.403.043.565-.015 1.126-.06 1.689-.118.544-.057 1.09-.076 1.635-.12.648-.053 1.282-.191 1.925-.279l-.162.022a8.53 8.53 0 0 1 .93-.081c.303-.008.605.018.907-.008a6.18 6.18 0 0 0 .946-.16c.3-.075.598-.152.905-.193l-.185.024a9.41 9.41 0 0 1 .92-.062 6.94 6.94 0 0 0 1.113-.112c.316-.06.627-.145.939-.225.31-.08.616-.162.92-.265.17-.058.341-.12.515-.169.083-.023.166-.045.25-.066.134-.032.256-.086.382-.14l-.141.059.033-.014c.14-.06.274-.126.35-.269a.602.602 0 0 0 .069-.372c-.04-.298-.28-.488-.575-.507-.299-.02-.576.075-.86.153-.246.068-.49.141-.737.201-.24.059-.483.1-.724.149a13.19 13.19 0 0 1-.786.141l.182-.025c-.32.044-.644.05-.967.062-.365.015-.725.045-1.086.096-.595.085-1.16.305-1.757.386l.179-.024c-.312.04-.627.035-.94.072-.366.045-.73.107-1.091.187-.315.07-.627.152-.941.226a7.84 7.84 0 0 1-.714.135l-.114.017-.057.007c-.075.011.103-.013.027-.003-.333.043-.668.07-1.002.111a21.672 21.672 0 0 0-.713.098c-.017.002-.1.015-.031.004l-.013.002-.255.03c-.681.078-1.366.113-2.051.132-.772.022-1.545.022-2.317.037-.214.003-.42.185-.41.409.011.225.18.404.41.409Zm-.352 4.134c.055.069.115.137.146.219.031.085.045.157.104.256.05.087.097.176.172.244.083.075.178.143.272.202.405.252.881.299 1.338.389.462.092.9.272 1.36.37.255.054.513.07.771.096.238.024.475.049.713.067.984.074 1.964.203 2.944.312.244.027.483.051.728.057l.753.019 1.482.037c.537.014 1.075.037 1.612.034.257-.001.514-.013.77-.045.353-.043.697-.122 1.049-.171l-.304.04c.465-.06.934-.038 1.4-.069a5.82 5.82 0 0 0 .957-.138c.228-.054.453-.119.685-.156l-.318.042c.238-.03.477.008.716-.021a9.84 9.84 0 0 0 .92-.147c.447-.095.886-.235 1.34-.299l-.331.044c.554-.074 1.119-.096 1.665-.223.46-.108.907-.265 1.353-.415.438-.146.88-.245 1.326-.36.11-.028.22-.059.328-.096.177-.061.364-.128.524-.228a2.24 2.24 0 0 0 .752-.766c.14-.234.237-.499.304-.763.046-.186.088-.372.155-.551a.999.999 0 0 0 .023-.525.98.98 0 0 0-.156-.489 1.36 1.36 0 0 0-.628-.538c-.262-.11-.58-.156-.857-.066-.307.099-.645.298-.786.604-.18.39-.289.796-.451 1.19l.135-.321a1.146 1.146 0 0 1-.13.23l.209-.27a.906.906 0 0 1-.146.147l.27-.208c-.053.038-.108.07-.167.098l.317-.134c-.397.167-.825.243-1.234.376-.419.136-.825.311-1.241.456a6.686 6.686 0 0 1-1.261.317 8.995 8.995 0 0 0-1.261.246c-.452.132-.907.263-1.374.332l.32-.043c-.157.019-.315.007-.473.016a3.644 3.644 0 0 0-.733.121c-.3.081-.593.179-.903.221l.312-.042c-.422.054-.849.054-1.272.1a6.05 6.05 0 0 0-.887.144 5.635 5.635 0 0 1-.643.133l.298-.04c-.418.055-.84.065-1.261.076l-1.36.035-1.36.034c-.235.006-.47.004-.705.017-.226.013-.454.05-.68.075-.934.103-1.872.189-2.802.327l-.29.042-.09.012c.004 0 .112-.014.042-.006-.061.008-.122.016-.184.022a3.253 3.253 0 0 1-.604-.006c-.028 0-.063-.009-.091-.014a8.379 8.379 0 0 1-.475-.103c-.21-.051-.42-.104-.632-.141a9.977 9.977 0 0 0-.826-.104c-.117-.01-.236-.014-.353-.021-.095-.007-.036-.002-.014.001l-.077-.013a1.757 1.757 0 0 1-.143-.037c-.024-.008-.136-.051-.073-.023-.043-.019-.083-.041-.125-.061-.098-.049-.198-.07-.301-.104-.077-.025-.146-.027-.237-.041-.092-.015-.181-.066-.269-.1-.06-.023-.088.058-.057.098Zm60.352 8.783a20.286 20.286 0 0 1-1.608-.874 54.102 54.102 0 0 1-1.559-1.005 53.542 53.542 0 0 1-1.502-1.037c-.494-.354-.977-.729-1.488-1.056-.582-.372-1.206-.655-1.845-.914l.29.122c-.53-.237-1.093-.399-1.651-.558a34.836 34.836 0 0 0-1.586-.422c-1.11-.264-2.24-.444-3.368-.619-1.121-.175-2.244-.338-3.36-.545-.553-.102-1.102-.225-1.657-.32-.554-.095-1.113-.175-1.66-.312-.72-.179-1.436-.318-2.182-.247-.755.073-1.485.256-2.234.358l.424-.057c-.367.035-.733-.047-1.1-.012-.484.045-.9.187-1.362.313-.362.099-.74.134-1.108.211-.367.078-.73.173-1.09.28-.736.218-1.45.496-2.17.76-.315.115-.63.256-.955.339-.265.066-.536.108-.801.174a3.005 3.005 0 0 0-1.132.547 4.07 4.07 0 0 0-.925 1.016c-.225.342-.383.734-.522 1.117-.099.27-.17.55-.219.834-.127.742-.145 1.48-.163 2.23-.023.926.068 1.856.489 2.694.11.22.275.425.44.604.157.168.357.321.56.431.427.23.921.354 1.407.329.43-.022.846-.111 1.26-.224.431-.118.871-.202 1.315-.263l-.438.059c.995-.131 1.999-.141 3.001-.135.506.003 1.012.01 1.518.006.478-.004.954-.009 1.429.052l-.429-.058c.49.068.967.19 1.463.22.364.023.729.01 1.091.057l-.425-.057a7.846 7.846 0 0 1 1.873.514l-.38-.16a2.1 2.1 0 0 1 .447.243l-.321-.248a.67.67 0 0 1 .1.095l-.249-.321c.016.02.029.041.04.064l-.16-.379.006.016v-.842l-.012.037.16-.378a.617.617 0 0 1-.053.095l.248-.32a.666.666 0 0 1-.07.074l.32-.248a.647.647 0 0 1-.115.07l.377-.159a1.04 1.04 0 0 1-.247.062l.42-.056c-.143.016-.287.015-.431.018a4.268 4.268 0 0 0-.879.115c-.476.112-.93.299-1.396.441-.948.289-1.936.436-2.89.705-.955.269-1.9.623-2.804 1.031-.916.413-1.699 1.01-2.476 1.64a23.854 23.854 0 0 0-1.86 1.661c-.168.165-.302.359-.443.547-.086.113-.187.226-.25.353l.221-.285c-.159.154-.284.351-.417.529-.074.099-.158.197-.215.307l.204-.264-.045.045c-.484.484-.52 1.369 0 1.846.52.478 1.33.516 1.846 0l.045-.045-.264.204c.11-.057.208-.14.309-.213.181-.131.374-.256.535-.412l-.286.221c.148-.068.282-.181.418-.272a5.69 5.69 0 0 0 .604-.48c.247-.22.496-.437.749-.651.498-.421.995-.843 1.51-1.242l-.315.244a8.613 8.613 0 0 1 1.9-1.113l-.373.158a19.88 19.88 0 0 1 3.248-1.033c.588-.136 1.185-.246 1.766-.409.578-.161 1.135-.417 1.73-.513l-.42.056c.18-.023.362-.01.543-.018.434-.019.864-.093 1.244-.316.687-.402 1.144-1.255.914-2.048-.144-.498-.485-.844-.897-1.132-.383-.268-.853-.427-1.294-.574a10.292 10.292 0 0 0-1.093-.295 7.467 7.467 0 0 0-.952-.138c-.351-.03-.704-.02-1.055-.062l.428.058c-.294-.041-.58-.12-.875-.162a10.243 10.243 0 0 0-1.184-.114c-.612-.016-1.223-.01-1.835-.022-1.332-.026-2.64-.007-3.962.182a9.941 9.941 0 0 0-.997.193c-.243.06-.482.13-.73.164l.44-.059a1.827 1.827 0 0 1-.424.007l.442.059a1.066 1.066 0 0 1-.272-.073l.398.168a.972.972 0 0 1-.159-.093l.337.261a1.076 1.076 0 0 1-.184-.184l.26.337a1.508 1.508 0 0 1-.168-.299l.167.397a3.013 3.013 0 0 1-.18-.7l.06.441c-.065-.489-.051-.982-.038-1.473.011-.401.004-.8.055-1.198l-.06.438c.057-.412.156-.816.313-1.201l-.166.392c.105-.247.232-.481.392-.696l-.256.332a2.3 2.3 0 0 1 .414-.418l-.33.255a1.12 1.12 0 0 1 .22-.13l-.39.165c.358-.144.746-.186 1.116-.284.493-.129.974-.353 1.448-.537 1.01-.391 2.034-.746 3.1-.951.292-.056.585-.095.87-.183.274-.085.542-.186.826-.232l-.425.057c.224-.026.446-.005.67.008.361.02.716-.034 1.071-.099.477-.088.95-.197 1.43-.262l-.422.056a4.637 4.637 0 0 1 1.16-.016l-.42-.057c.238.035.467.105.703.152.223.045.447.082.672.114.58.082 1.162.145 1.742.221l-.406-.054c1.238.166 2.47.356 3.712.491 1.132.123 2.265.234 3.393.384l-.363-.049c.472.064.943.144 1.416.202l-.357-.047c.87.13 1.734.297 2.59.493.757.173 1.514.371 2.23.673l-.266-.112c.578.248 1.124.563 1.678.859.555.297 1.107.598 1.661.894a90.548 90.548 0 0 0 3.434 1.744c.353.17.827.109 1.027-.269.179-.34.105-.839-.269-1.026Zm-23.832 10.924c-.289.103-.582.197-.877.279-.297.083-.615.115-.918.17-.597.107-1.198.226-1.775.414-.698.228-1.377.515-2.047.815-.553.249-1.108.479-1.63.792-.274.166-.532.355-.792.541a2.77 2.77 0 0 1-.546.289l.306-.129c-.376.158-.784.291-1.123.524-.319.219-.519.41-.741.724-.215.302-.289.666-.31 1.028-.007.18.03.347.112.503a.976.976 0 0 0 .27.42l.264.204c.15.096.312.147.485.155a.659.659 0 0 0 .347 0 .967.967 0 0 0 .486-.155c.27-.174.543-.451.6-.78a.888.888 0 0 1 .049-.18l-.133.314c.053-.123.105-.246.156-.37l-.133.314a.89.89 0 0 1 .11-.186l-.204.265c.06-.075.128-.14.202-.199l-.263.204c.257-.199.56-.324.85-.465.433-.21.787-.529 1.164-.821l-.253.196.628-.488-.249.192c.52-.399 1.09-.711 1.648-1.05.599-.364 1.144-.812 1.755-1.157.32-.181.656-.33.994-.473l-.18.076c.343-.145.69-.281 1.034-.422.34-.138.698-.23 1.04-.361.154-.058.282-.136.367-.282a.626.626 0 0 0 .062-.473c-.096-.297-.431-.545-.755-.428Zm1.406 6.372c-.396-.043-.803.008-1.19.092-.426.092-.828.251-1.227.422-.683.292-1.32.681-1.953 1.066-1.278.779-2.587 1.566-3.694 2.582a8.897 8.897 0 0 0-.818.858c-.192.232-.376.47-.553.714a4.79 4.79 0 0 0-.345.582 1.323 1.323 0 0 0-.127.969c.08.291.306.607.578.751.291.154.645.231.968.126.317-.102.572-.291.751-.577.145-.231.298-.457.445-.686a8.99 8.99 0 0 1 .44-.624l-.194.251c.602-.777 1.333-1.431 2.109-2.031l-.229.177c.401-.31.813-.604 1.22-.905.44-.326.86-.677 1.294-1.012l-.201.155c.626-.483 1.285-.958 2.016-1.269l-.198.083c.279-.117.567-.207.867-.25l-.202.028c.08-.011.161-.018.243-.022a.78.78 0 0 0 .523-.216.755.755 0 0 0 .217-.524c-.008-.191-.071-.39-.217-.524l-.15-.115a.732.732 0 0 0-.373-.101Zm-5.943 12.498a.5.5 0 0 1 .057-.055l-.167.129a.441.441 0 0 1 .1-.058l-.199.084a.573.573 0 0 1 .09-.028l-.224.031c.09 0 .18-.017.267-.038l-.225.031a1342.556 1342.556 0 0 0-.199-.028.996.996 0 0 1 .238.071l-.56-.431.004.009c.139.319.512.442.824.473l.018.002-.254-.034c.037.006.073.023.107.038l-.233-.099c.156.067.304.151.448.24l-.223-.172c.163.166.313.234.529.309l-.265-.112c.384.166.753.366 1.118.57.393.219.79.429 1.194.63.439.217.888.43 1.353.584a2.794 2.794 0 0 0 1.57.066c.422-.101.83-.304 1.204-.522.404-.237.774-.531 1.138-.824l-.285.22c.399-.3.758-.64 1.123-.98.16-.149.32-.297.461-.465.19-.226.389-.466.521-.733.119-.239.239-.501.285-.769a2.94 2.94 0 0 0 .03-.988c-.069-.508-.251-.97-.5-1.42-.216-.395-.474-.765-.713-1.146l-2.17 2.169c.19.09.367.211.544.324a11 11 0 0 1 .566.396c.356.26.724.489 1.094.727.344.221.674.462 1.049.629.328.145.642.267.986.358l.724.193c.977.261 1.953.525 2.935.764.937.229 1.877.431 2.803.701a28.52 28.52 0 0 1 3.07 1.088l-.4-.169c.634.268 1.248.586 1.908.786.539.163 1.098.272 1.619.49l-.4-.169c.394.17.757.403 1.135.606.796.427 1.804.863 2.658.309.225-.146.438-.341.575-.575l.161-.382c.067-.213.077-.426.029-.639a.809.809 0 0 0-.109-.405.815.815 0 0 0-.206-.353c-.208-.269-.495-.49-.833-.574l-.168-.042a1.442 1.442 0 0 0-1.265.259 1.105 1.105 0 0 0-.374.408c-.131.226-.198.47-.198.732l-.023.188 2.735-1.133c-.24-.286-.596-.44-.948-.538a2.846 2.846 0 0 1-.335-.119l.4.169c-.294-.127-.572-.289-.85-.447a8.648 8.648 0 0 0-1.21-.574c-.679-.257-1.405-.367-2.077-.646l.4.169c-.807-.347-1.605-.711-2.43-1.017a29.114 29.114 0 0 0-2.115-.694c-1.468-.422-2.972-.71-4.453-1.081-.42-.105-.838-.212-1.258-.318-.408-.104-.832-.182-1.222-.343l.391.165a5.056 5.056 0 0 1-.718-.398c-.25-.161-.506-.312-.76-.466-.261-.159-.508-.34-.757-.516a11.734 11.734 0 0 0-.38-.261 4.052 4.052 0 0 0-.753-.377l.385.162c-.232-.1-.464-.201-.703-.285l-.421-.056-.422.056a1.573 1.573 0 0 0-.824.569.787.787 0 0 0-.204.349.79.79 0 0 0-.108.401c-.043.324-.01.735.188 1.011.367.507.798 1 1.05 1.579l-.154-.365c.06.143.105.289.127.442l-.053-.401c.015.121.015.24 0 .361l.053-.399c-.02.131-.056.255-.107.377l.15-.355a2.456 2.456 0 0 1-.309.507l.23-.297c-.272.343-.591.657-.896.97-.313.321-.628.641-.98.918l.273-.211a3.203 3.203 0 0 1-.713.425l.315-.133a2.07 2.07 0 0 1-.47.134l.347-.046a1.15 1.15 0 0 1-.287-.005l.344.046c-.458-.063-.9-.253-1.324-.431l.3.127c-.539-.228-1.069-.475-1.615-.687-.22-.086-.441-.17-.665-.247a10.626 10.626 0 0 0-.45-.143l-.082-.023c-.26-.069-.362-.037-.622-.002l.292-.039a3.846 3.846 0 0 0-.34-.018c-.099 0-.203.02-.301.011-.337-.034-.653.208-.825.473l-.004.006.561-.431a2.39 2.39 0 0 0-.467.187l.202-.085a.787.787 0 0 0-.242.1l.202-.085c-.303.124-.542.276-.718.563-.214.348-.103.813.21 1.055.305.235.805.243 1.075-.064Z"/><path fill="#0A0A0A" d="M114.094 122.318c-.337-.334-.684-.656-.975-1.032l.1.128a8.646 8.646 0 0 1-1.142-1.917l.084.201c-.085-.204-.167-.408-.253-.611l.088.209c-.181-.428-.346-.862-.527-1.29-.175-.416-.373-.816-.571-1.22-.36-.734-.699-1.477-1.069-2.205-.362-.708-.758-1.405-1.239-2.04a6.726 6.726 0 0 1-.6-.953c-.178-.341-.34-.689-.521-1.028a6.393 6.393 0 0 0-.891-1.274c-.247-.271-.516-.524-.742-.814l.232.299c-.116-.15-.227-.303-.345-.454l.233.302a3.693 3.693 0 0 1-.442-.772l.152.358c-.226-.549-.321-1.139-.523-1.696a5.752 5.752 0 0 0-.53-1.132c-.213-.336-.469-.646-.712-.96l.24.31c-.199-.258-.401-.512-.529-.815l.156.37c-.138-.335-.245-.676-.402-1.003-.1-.208-.254-.394-.401-.568a2.238 2.238 0 0 0-.564-.457c-.476-.284-.997-.373-1.537-.428-.432-.045-.864.023-1.29.087-.617.092-1.212.296-1.798.503-.455.161-.91.315-1.374.447-.427.121-.854.239-1.273.387-.338.12-.672.259-.998.409a4.35 4.35 0 0 0-.578.319 6.727 6.727 0 0 0-.563.429c-.08.066-.155.136-.224.212-.155.17-.297.354-.424.545-.053.08-.097.164-.136.252-.09.205-.198.426-.247.651-.04.183-.06.372-.08.558a1.36 1.36 0 0 0-.006.208c.02.431.11.857.237 1.269.08.263.168.523.233.79.053.218.108.436.185.647.082.226.173.451.282.665.108.214.263.4.412.585.146.181.344.322.533.453.038.026.078.05.12.071l.38.161.426.057h.04a1.9 1.9 0 0 0 .228-.031c.061-.008.167-.017.244-.034a.91.91 0 0 0 .126-.037c.127-.047.278-.092.397-.168.2-.129.407-.307.519-.519.013-.025.14-.327.147-.351l-1.372 1.044.025.001c.36.008.754-.165 1.006-.417.139-.129.237-.281.294-.458.09-.169.13-.352.123-.548-.017-.367-.138-.749-.417-1.005a1.505 1.505 0 0 0-1.006-.417h-.025l1.372 1.044c-.054-.312-.28-.574-.52-.759a9.461 9.461 0 0 0-.2-.151l.3.232c-.053-.041-.094-.089-.137-.139a2.124 2.124 0 0 0-.338-.264l-.047-.025a.95.95 0 0 1-.098-.066l.323.25a1.092 1.092 0 0 1-.183-.185l.25.324a1.854 1.854 0 0 1-.226-.401l.162.382c-.13-.311-.196-.638-.282-.962-.116-.435-.29-.854-.353-1.302l.057.426a1.543 1.543 0 0 1-.004-.397l-.057.426c.02-.125.053-.247.102-.364l-.162.383c.054-.127.124-.244.207-.354l-.25.325c.117-.152.256-.284.408-.401l-.325.251c.277-.21.587-.37.906-.506l-.383.162c.555-.234 1.136-.393 1.715-.555.663-.186 1.296-.451 1.946-.677a7.21 7.21 0 0 1 1.377-.358l-.418.056a3.31 3.31 0 0 1 .832-.012l-.417-.056c.178.024.355.064.521.132l-.372-.157c.08.036.156.079.226.132l-.315-.244c.062.05.117.105.166.166l-.243-.314c.085.11.147.234.201.362l-.156-.371c.155.373.271.77.485 1.114.158.254.358.485.543.719.118.148.239.294.355.444l-.239-.31c.228.297.428.611.576.956l-.153-.363c.135.323.229.661.327.996.131.449.289.889.496 1.31.186.38.447.755.741 1.055.183.185.388.346.589.51.27.222.515.461.73.736l-.215-.279c.375.486.667 1.028 1.01 1.537.219.326.456.644.724.932.219.236.426.482.623.737l-.189-.244c.825 1.072 1.488 2.255 2.208 3.397.183.29.37.577.537.876.175.314.338.634.507.95a8.602 8.602 0 0 0 1.32 1.853c.263.281.546.544.836.796.142.124.269.265.401.398l.433.428c.225.222.633.241.854 0 .22-.24.24-.617 0-.854Zm26.622-4.198a47.245 47.245 0 0 0-1.524-.643 115.411 115.411 0 0 0-.926-.368c-.02-.008-.109-.047-.006-.002.159.069-.156-.066-.148-.063-.041-.016-.146-.05.04.022l-.076-.032-.201-.086c-.948-.404-1.894-.817-2.809-1.292a18.453 18.453 0 0 1-1.506-.871l.242.187c-.277-.224-.585-.397-.881-.595-.211-.141-.418-.289-.628-.433a39.45 39.45 0 0 0-1.361-.898 20.898 20.898 0 0 0-3.141-1.635l.334.141c-.182-.081-.367-.155-.551-.232l.336.141c-1.005-.428-1.956-.964-2.909-1.495-.936-.522-1.893-.995-2.849-1.48-.507-.258-1.05-.511-1.506-.856l.316.245c-.311-.244-.559-.554-.858-.812-.232-.2-.475-.403-.753-.535a3.09 3.09 0 0 0-1.311-.328l1.588 1.587a.707.707 0 0 1-.002-.138l-.057.422a.673.673 0 0 1 .041-.154l-.16.379a.826.826 0 0 1 .08-.138l-.248.321a1.31 1.31 0 0 1 .219-.215l-.321.248c.175-.135.368-.242.55-.367.414-.283.701-.557.977-.979.386-.587.55-1.298.817-1.942l-.16.379c.132-.308.306-.599.458-.898.163-.32.33-.64.547-.927l-.248.321c.086-.11.177-.211.285-.298l-.321.248a.913.913 0 0 1 .198-.115l-.378.159c.091-.034.184-.055.281-.069l-.421.056c.255-.031.512-.016.767.018l-.421-.057c.394.055.77.156 1.136.309l-.378-.159c.657.28 1.274.64 1.916.951.426.206.864.398 1.314.549.347.117.703.203 1.05.325.709.25 1.402.554 2.134.732.189.046.388.085.582.093.419.019.84-.187 1.132-.476.116-.115.217-.249.298-.392.238-.42.288-.918.171-1.383-.195-.773-.826-1.386-1.406-1.894-.718-.63-1.49-1.201-2.261-1.763-.63-.46-1.277-.899-1.895-1.375l.319.247a4.79 4.79 0 0 1-.41-.369 7.274 7.274 0 0 0-1.442-1.095c-.551-.315-1.148-.55-1.737-.781-.536-.21-1.08-.403-1.634-.56-1.271-.36-2.601-.415-3.909-.55-1.4-.143-2.78-.188-4.17.088-.346.069-.687.164-1.034.23a21.71 21.71 0 0 1-1.046.173c-.345.05-.693.092-1.037.15-.202.036-.397.108-.6.14l.418-.056a.58.58 0 0 1-.143.002l.418.056a.526.526 0 0 1-.094-.026l.375.159a.744.744 0 0 1-.151-.091l.318.245a1.824 1.824 0 0 1-.287-.293l.246.318c-.258-.353-.422-.786-.597-1.183l.158.375a2.33 2.33 0 0 1-.152-.592l.056.417c-.059-.485-.018-.976.046-1.458l-.056.417c.076-.563.192-1.12.285-1.68.059-.356.115-.715.142-1.075.015-.199-.017-.4.004-.597l-.056.417a.476.476 0 0 1 .018-.075l-.158.375a.407.407 0 0 1 .054-.091l-.245.317c.055-.066.12-.12.187-.173l-.317.245a.985.985 0 0 1 .221-.135l-.374.158c.597-.236 1.272-.225 1.896-.353.487-.099.97-.198 1.462-.273.499-.076 1.009-.138 1.492-.29.538-.17 1.049-.413 1.612-.498l-.416.055c.494-.065.994-.031 1.488-.084.547-.059 1.088-.164 1.632-.237l-.414.055c1.296-.172 2.623-.273 3.924-.1l-.413-.055c.996.138 1.961.473 2.888.857l-.371-.156c.563.242 1.088.553 1.673.75.453.151.953.205 1.421.09.628-.154 1.256-.712 1.348-1.38a1.17 1.17 0 0 0 .028-.617 1.151 1.151 0 0 0-.184-.576c-.188-.32-.556-.627-.925-.712-.397-.09-.842-.07-1.194.157-.313.201-.659.538-.712.925a.47.47 0 0 1-.029.117l.157-.37a.395.395 0 0 1-.042.071l.242-.313a.392.392 0 0 1-.04.041l.313-.242a.37.37 0 0 1-.066.04l.37-.156a.499.499 0 0 1-.123.032l.412-.056a.911.911 0 0 1-.198-.005l.412.056a2.752 2.752 0 0 1-.666-.208l.37.156c-.332-.142-.647-.32-.976-.47a15.132 15.132 0 0 0-2.264-.82c-1.421-.384-2.91-.415-4.368-.284-.857.077-1.705.222-2.557.337l.415-.056c-.453.054-.91.026-1.364.068-.536.05-1.03.149-1.533.33-.377.137-.749.28-1.144.359-.42.083-.846.141-1.269.206-.652.1-1.292.252-1.945.342a9.447 9.447 0 0 0-.833.14 2.531 2.531 0 0 0-.33.097 2.44 2.44 0 0 0-.769.42c-.256.199-.451.365-.623.66-.18.308-.253.63-.259.985-.005.286.003.561-.035.847l.056-.418c-.112.814-.287 1.617-.394 2.433a7.123 7.123 0 0 0-.074 1.062c.008.433.049.893.195 1.303.141.395.332.787.514 1.165.192.398.44.776.771 1.073.266.238.579.461.934.546a2.26 2.26 0 0 0 1.075 0c.321-.068.632-.145.958-.192.519-.074 1.039-.143 1.555-.238.551-.102 1.089-.258 1.646-.333l-.418.056c.922-.119 1.85-.08 2.773.004.458.042.914.094 1.371.141.445.046.894.068 1.338.126l-.418-.056c1.159.162 2.286.571 3.361 1.023l-.376-.159c.533.226 1.046.489 1.508.84l-.318-.247c.279.216.512.478.781.702.252.21.517.405.781.599.514.376 1.035.742 1.549 1.117.335.245.668.492.997.746l-.319-.247c.611.473 1.268.963 1.747 1.577l-.247-.319c.074.097.143.198.191.31l-.159-.377c.017.043.03.086.036.131l-.056-.42a.366.366 0 0 1 .001.074l.056-.42a.248.248 0 0 1-.018.066l.159-.377a.286.286 0 0 1-.024.042l.247-.319a.298.298 0 0 1-.043.044l1.535-.406c-.668-.146-1.302-.404-1.941-.642-.625-.233-1.278-.384-1.893-.643l.378.159c-.654-.28-1.268-.641-1.908-.95-.393-.19-.795-.38-1.213-.511a5.859 5.859 0 0 0-.964-.194c-.202-.027-.403-.057-.607-.063a4.395 4.395 0 0 0-.792.073c-.475.074-.892.331-1.245.648-.495.445-.807 1.084-1.106 1.668-.19.373-.375.728-.535 1.118-.141.342-.251.696-.393 1.039l.16-.379a2.872 2.872 0 0 1-.335.61l.248-.321a1.29 1.29 0 0 1-.218.219l.321-.248c-.337.256-.701.451-1.026.729-.474.406-.826 1.097-.762 1.734.041.412.144.828.465 1.123.316.29.688.451 1.122.464.059.002.117.007.176.015l-.422-.057c.109.018.213.048.315.09l-.379-.16c.146.065.282.151.41.248l-.321-.248c.207.162.39.349.583.527.294.272.612.524.963.718.641.357 1.312.66 1.982.96 1.372.616 2.689 1.342 4.057 1.966.468.213.942.416 1.422.598.378.142.758.27 1.13.427l-.327-.138c.849.36 1.669.787 2.471 1.241.392.222.78.451 1.166.685.436.265.885.564 1.37.729l-.286-.121c1.02.464 2.072.838 3.146 1.152.999.292 2.009.539 3.007.833.565.167 1.129.339 1.688.527.322.108.679-.099.804-.395.12-.284.032-.713-.279-.851Zm-14.005-31.463c.225.08.448.167.668.26l-.179-.076c.339.144.668.306.994.476.159.082.327.14.484.228.16.088.311.193.456.305l-.24-.185c.603.47 1.208.936 1.831 1.38.275.195.559.376.866.518.298.138.597.275.86.473l-.279-.216.026.02.611-2.311-.034.011c-.342.115-.641.319-.827.636-.101.159-.156.33-.164.514-.041.184-.033.368.025.552.108.335.315.658.635.827.316.167.717.263 1.066.14l.034-.013a1.6 1.6 0 0 0 .61-.355l.217-.28c.101-.16.155-.33.164-.515a.695.695 0 0 0 0-.367.69.69 0 0 0-.095-.35.69.69 0 0 0-.178-.304 1.035 1.035 0 0 0-.388-.357c-.448-.337-1.012-.53-1.523-.746l.326.138c-.694-.298-1.323-.732-1.981-1.098a5.155 5.155 0 0 0-.743-.315 4.46 4.46 0 0 0-1.294-.239 12.842 12.842 0 0 0-1.948.14c-.117.017-.23.119-.298.207a.551.551 0 0 0-.124.348.602.602 0 0 0 .422.554Zm7.026-1.851.022.047-.092-.217c.037.09.064.185.114.268.085.145.121.165.21.247.044.04.081.087.12.132.137.156.374.274.544.402.265.198.544.376.807.577l-.255-.197c.2.155.404.304.605.458l-.26-.2c.287.222.554.466.83.701.365.31.739.607 1.118.9l-.276-.214c.433.336.858.683 1.245 1.072.248.25.62.403.971.403.337 0 .74-.15.972-.403.24-.261.418-.605.402-.97-.016-.364-.138-.712-.402-.972-.541-.533-1.151-1.005-1.765-1.448-.265-.191-.538-.37-.802-.562-.253-.183-.504-.37-.768-.538-.379-.242-.789-.413-1.203-.587l.286.121c-.354-.15-.697-.381-1.081-.433a1.659 1.659 0 0 0-.709.062 1.085 1.085 0 0 0-.611.48c-.173.276-.165.585-.022.871Zm7.877-.31.035.004-.234-.031c.148.023.291.066.43.123l-.22-.093c.149.073.283.17.414.27l-.205-.159c.15.116.297.239.437.367.204.19.459.34.696.489.374.233.742.478 1.096.742l-.267-.207c.251.2.519.374.774.569l-.273-.211c.386.3.703.664 1.001 1.05l-.22-.286c.253.329.501.66.765.981.201.246.407.49.601.74l-.233-.3c.349.453.606.945.868 1.45.294.567.748 1.031 1.136 1.532l-.241-.312c.379.495.663 1.068.904 1.64l-.157-.373c.147.354.273.717.36 1.09.089.38.168.761.269 1.14.102.385.211.77.309 1.157.097.386.173.776.263 1.164.185.791.411 1.572.605 2.36.047.187.086.376.139.56.087.3.214.585.337.872.137.323.304.631.483.933.204.343.424.678.629 1.021.1.167.187.343.301.501.197.274.419.523.626.787l-.259-.335c.143.19.246.403.369.605.128.209.284.404.44.592.064.076.133.148.205.217.295.285.635.524.891.848l-.261-.337c.123.161.248.32.373.48l-.259-.335.036.049.985-2.421-.099.038a1.23 1.23 0 0 0-.556.293 1.235 1.235 0 0 0-.422.459 1.227 1.227 0 0 0-.194.609c-.049.217-.039.435.029.652.128.396.374.778.752.978l.391.165c.29.078.58.078.87 0l.105-.016c.279-.078.522-.219.727-.424.161-.149.275-.326.341-.53.103-.196.151-.408.142-.635a1.644 1.644 0 0 0-.225-.832c-.113-.261-.308-.482-.501-.69a4.525 4.525 0 0 0-.35-.328c-.241-.208-.492-.408-.688-.662l.26.337c-.149-.199-.255-.424-.389-.632-.203-.316-.463-.588-.694-.882l.259.335c-.148-.193-.258-.411-.385-.618-.126-.207-.257-.411-.386-.616-.258-.409-.508-.825-.7-1.27l.166.394c-.136-.323-.219-.657-.31-.994-.099-.37-.206-.736-.312-1.103a52.69 52.69 0 0 1-.309-1.103c-.098-.365-.177-.735-.273-1.101-.189-.721-.429-1.428-.605-2.152a8.82 8.82 0 0 0-.301-1.033c-.17-.45-.363-.894-.587-1.32a6.897 6.897 0 0 0-.604-.99c-.301-.393-.633-.757-.936-1.147l.239.31c-.315-.412-.513-.892-.791-1.327-.355-.553-.821-1.016-1.278-1.482-.351-.359-.673-.746-1.034-1.094a6.517 6.517 0 0 0-1.448-1.054c-.602-.32-1.259-.53-1.887-.794l.277.117c-.149-.064-.317-.164-.465-.202a3.518 3.518 0 0 1-.2-.058 6.788 6.788 0 0 0-.457-.132c-.149-.036-.301-.06-.451-.089a2.87 2.87 0 0 0-.669-.064.924.924 0 0 0-.62.257.895.895 0 0 0-.257.62c.011.227.085.462.257.62l.178.137a.87.87 0 0 0 .442.12ZM31.36 130.026c.544.397 1.094.786 1.65 1.165.554.377 1.095.771 1.648 1.149.562.384 1.132.757 1.708 1.12.565.355 1.15.681 1.696 1.063l.18.129c.032.023.066.047.096.072a.583.583 0 0 0-.015-.011c.094.075.187.15.282.224-.019-.014-.125-.099-.02-.014l.11.086c.27.214.54.431.827.625.566.383 1.217.591 1.847.844l.227.093-.068-.028c.034.018.075.032.111.048a8.816 8.816 0 0 1 1.325.704c.577.369 1.137.763 1.707 1.143.555.369 1.067.811 1.666 1.112.366.184.725.295 1.12.386.307.071.609.16.9.282l-.254-.107c.648.281 1.198.711 1.763 1.125.283.207.573.406.884.568.395.205.817.319 1.225.488l-.261-.11c.254.113.49.269.73.41.229.136.457.274.67.434l-.222-.171c.716.554 1.289 1.271 2.115 1.677.848.417 1.734.754 2.568 1.2.398.214.803.409 1.206.612.19.095.379.195.56.307.092.058.178.126.27.185-.265-.17-.003.005.065.064.378.327.743.607 1.228.757.205.063.42.093.63.145a4.242 4.242 0 0 1 .533.171 1.245 1.245 0 0 0-.063-.025c.222.11.414.252.62.386.192.126.397.232.605.327.284.129.563.267.873.309.067.009.133.018.2.025l.089.007c-.201-.031-.172-.029.088.008l-.128-.018a.57.57 0 0 1 .082.02.434.434 0 0 1-.206-.116c.056.048.115.093.176.134l-.336-.437c.012.026.016.06.029.084.023.045.002-.134-.014-.08a.285.285 0 0 0-.004.102c-.008-.024.032-.167.007-.065a13.17 13.17 0 0 1-.1.391c-.096.363-.127.755-.174 1.127-.04.321-.082.647-.057.971.014.183.028.379.087.554a.932.932 0 0 0 .198.36c.156.155.358.174.565.191.299.025.556-.249.593-.524a.604.604 0 0 0-.433-.663l-.125-.034.43.43-.015-.053c-.014-.065.011.066.008.066a.973.973 0 0 1 .002-.159c.002-.023.01-.049.008-.072 0 .003-.021.13-.006.058a4.08 4.08 0 0 0 .032-.174c.024-.143.035-.286.05-.429a9.07 9.07 0 0 1 .026-.214c-.018.138.007-.044.014-.09.042-.273.086-.548.144-.819.036-.166.1-.324.14-.489.034-.138.058-.283.065-.425a.896.896 0 0 0-.004-.136c-.007-.068-.014-.145-.03-.212-.008-.038-.01-.109-.007.014.004.197-.017-.118-.02-.133a1.042 1.042 0 0 0-.256-.432 1.488 1.488 0 0 0-.219-.179c-.094-.068-.21-.09-.305-.153-.01-.007.175.076.094.037-.02-.01-.04-.017-.06-.026-.04-.018-.078-.035-.116-.056a4.303 4.303 0 0 0-.338-.17 5.547 5.547 0 0 1-.631-.336c-.213-.135-.403-.302-.625-.423a4.702 4.702 0 0 0-.838-.35c-.241-.077-.491-.126-.732-.204-.01-.004-.07-.017-.075-.026-.006-.012.192.09.107.045-.048-.025-.097-.048-.144-.076-.038-.023-.074-.049-.112-.073-.117-.076.178.153.039.028-.388-.35-.766-.695-1.215-.966-.442-.267-.908-.492-1.35-.76a21.36 21.36 0 0 0-1.598-.851c-.526-.26-1.09-.492-1.558-.852l.218.168c-.592-.467-1.073-1.047-1.687-1.492-.319-.231-.674-.418-1.018-.61-.397-.223-.837-.325-1.256-.493l.26.11c-.818-.348-1.467-.976-2.226-1.423a6.08 6.08 0 0 0-1.314-.58c-.398-.121-.816-.162-1.203-.318l.251.106c-.496-.212-.925-.538-1.38-.824-.497-.313-1.018-.593-1.528-.885a15.74 15.74 0 0 0-1.75-.891c-.544-.227-1.107-.401-1.669-.574-.135-.041-.27-.08-.404-.126-.058-.019-.126-.059-.185-.069.003.001.145.067.065.026-.042-.021-.085-.039-.127-.06a6.496 6.496 0 0 1-.696-.41c-.466-.307-.922-.613-1.422-.862-.544-.271-1.102-.511-1.65-.775a52.381 52.381 0 0 1-1.628-.82 27.002 27.002 0 0 1-1.748-.977 60.27 60.27 0 0 1-1.742-1.131c-.153-.102-.378-.029-.466.123-.101.172-.027.357.122.466Z"/><path fill="#0A0A0A" d="M65.867 149.158c.377-.059.737-.214 1.072-.392.302-.159.586-.346.901-.479l-.172.072c.335-.138.682-.237 1.024-.356.353-.123.7-.269 1.047-.408.71-.283 1.436-.512 2.162-.748.4-.131.797-.264 1.183-.431l-.196.082c.146-.06.294-.107.439-.174l-.432.117.02.001-.44-.119c.39.267.916.123 1.222-.192.27-.277.444-.663.324-1.055a.922.922 0 0 0-.538-.602c-.282-.119-.558-.093-.828.047a.966.966 0 0 0-.37.378.79.79 0 0 1-.055.086l.147-.19c-.099.118-.197.225-.258.37a.94.94 0 0 0-.043.638v-.463l-.006.018.22-.377c-.03.028-.062.054-.094.08l.169-.131a.996.996 0 0 1-.223.125l.195-.082c-.592.247-1.205.445-1.808.665-.7.255-1.376.56-2.062.851l.18-.076c-.524.221-1.07.402-1.58.657-.443.222-.823.546-1.281.742l.161-.068c-.14.058-.284.104-.432.136-.34.072-.569.489-.463.815.052.16.151.315.304.396.168.088.325.095.511.067ZM35.1 124.915l.02-.016-.133.103c.07-.052.146-.093.227-.128l-.164.069c.267-.111.555-.154.835-.216.37-.082.71-.245 1.057-.395l-.206.087a3.57 3.57 0 0 1 .738-.209c.173-.032.342-.088.498-.169.224-.116.403-.329.537-.537a.898.898 0 0 0 .09-.684.923.923 0 0 0-.318-.46.84.84 0 0 0-.538-.19.976.976 0 0 0-.626.259.623.623 0 0 1-.05.042l.18-.14a.79.79 0 0 1-.155.089l.22-.093c-.13.051-.248.114-.375.169l.22-.093c-.12.048-.244.08-.365.119a3.84 3.84 0 0 0-.564.237c-.256.13-.48.308-.732.445-.448.246-.98.377-1.32.788-.113.137-.19.278-.19.461 0 .161.07.352.19.462a.656.656 0 0 0 .462.191c.185-.008.318-.078.462-.191Zm2.15 2.616c.04-.021.08-.041.122-.059l-.215.091c.177-.073.353-.148.528-.224l-.225.095c.534-.225 1.12-.264 1.677-.403a7.63 7.63 0 0 0 1.125-.407 4.18 4.18 0 0 0 .426-.207c.204-.118.375-.294.53-.47a.939.939 0 0 0 .248-.516.858.858 0 0 0-.107-.573 1.077 1.077 0 0 0-.323-.323c-.17-.11-.498-.168-.692-.09-.2.08-.407.132-.601.225-.129.061-.254.126-.385.182l.238-.101c-.286.12-.582.213-.88.295-.259.071-.514.153-.773.223-.261.07-.52.145-.771.248-.19.078-.387.155-.562.265-.232.147-.389.341-.547.563l-.087.207a.657.657 0 0 0-.015.346c.024.182.099.37.238.498a.901.901 0 0 0 1.05.135Zm2.887 1.913a3.13 3.13 0 0 1 .472-.094l-.243.032c.152-.02.3-.036.447-.078a4.74 4.74 0 0 0 .233-.072 2.38 2.38 0 0 0 .593-.271 5.381 5.381 0 0 0 .633-.525 2.55 2.55 0 0 0 .268-.306l-.146.189.052-.064a.978.978 0 0 0 .25-.52.868.868 0 0 0-.108-.578 1.09 1.09 0 0 0-.325-.325.671.671 0 0 0-.337-.107.684.684 0 0 0-.361.016c-.459.064-.74.459-1.077.729l.193-.148c-.1.077-.209.133-.324.184l.224-.095c-.219.092-.45.153-.66.263-.146.077-.29.158-.422.257-.17.128-.33.274-.38.494a.859.859 0 0 0 .041.54c.156.369.58.599.977.479Zm3.915-8.252a.739.739 0 0 0-.104-.42.848.848 0 0 0-.276-.291.91.91 0 0 0-.486-.174l.18.024c-.467-.064-.949-.046-1.397.118-.278.101-.554.227-.768.437a1.393 1.393 0 0 0-.389.77c-.025.163-.05.328-.049.493.001.189.03.377.058.563.038.262.124.501.239.741.143.3.426.55.71.711.258.146.554.253.848.294.335.047.663.076 1.001.06.303-.014.605-.054.907-.016l-.265-.036c.268.04.527.159.776.264l-.238-.101c.28.119.58.234.825.417l-.201-.156c.068.053.13.111.183.178l-.155-.202a.75.75 0 0 1 .093.16l-.1-.238a.681.681 0 0 1 .036.13l-.035-.264a.649.649 0 0 1 0 .163l.035-.264a.876.876 0 0 1-.058.2l.1-.238c-.043.097-.1.184-.163.269l.156-.202a1.386 1.386 0 0 1-.224.232l.202-.157a.867.867 0 0 1-.169.101l.24-.101a.794.794 0 0 1-.197.057l.267-.036a1.967 1.967 0 0 1-.352 0c-.16-.011-.277-.022-.45.023a2.921 2.921 0 0 0-.203.064 1.008 1.008 0 0 0-.5.345.92.92 0 0 0-.208.585c.02.439.289.794.708.93.175.056.342.109.53.103.095-.003.19-.005.285-.013.339-.03.606-.086.91-.235.313-.153.538-.428.738-.702.215-.294.342-.667.346-1.033.008-.732-.515-1.308-1.14-1.614a14.42 14.42 0 0 0-1.232-.522 2.557 2.557 0 0 0-.572-.11c-.28-.03-.561.001-.842.015a4.366 4.366 0 0 1-.767-.026l.267.035a2.186 2.186 0 0 1-.54-.133l.236.1a1.25 1.25 0 0 1-.247-.141l.2.154a.787.787 0 0 1-.133-.123l.154.199a.995.995 0 0 1-.12-.212l.099.233a2.144 2.144 0 0 1-.138-.529l.034.256a1.877 1.877 0 0 1-.008-.461l-.034.253a.866.866 0 0 1 .047-.193l-.095.226c.036-.086.089-.171.145-.245l-.142.185c.077-.097.167-.181.264-.257l-.171.132c.159-.123.332-.225.517-.304l-.176.075c.088-.037.178-.069.27-.092.094-.024.179-.059.265-.104.052-.028.183-.077-.03.006a1.24 1.24 0 0 0 .202-.095l.033-.02c.062-.042-.061.029-.06.024.007-.014.059-.014.071-.021-.066.035-.085.006-.035.007l.039.002c.147.016.239-.13.253-.253Zm4.506-2.103a.531.531 0 0 0-.047-.095c-.044-.066.027.073.026.072-.023-.052-.04-.107-.066-.158a.892.892 0 0 0-.165-.223c-.227-.232-.627-.253-.922-.156-.438.143-.76.457-.98.858-.42.766-.41 1.749-.022 2.524.141.281.371.512.633.682.227.148.498.215.746.319l-.231-.098c.186.083.35.201.512.325l-.2-.154c.194.149.382.307.588.44.144.093.295.155.455.218.156.062.316.112.476.159.212.063.427.117.645.158.269.049.557.106.833.082.265-.022.459-.059.694-.19a1.06 1.06 0 0 0 .527-.893.98.98 0 0 0-.6-.922c-.184-.078-.42-.116-.615-.048a.092.092 0 0 1-.023.006l.259-.035a2.14 2.14 0 0 0-.157.017.961.961 0 0 0-.474.198c-.039.03-.078.059-.116.09l.203-.157a.284.284 0 0 1-.054.031l.24-.101a.566.566 0 0 1-.122.03l.266-.036a1.629 1.629 0 0 1-.412-.014l.267.036a5.543 5.543 0 0 1-1.361-.37l.24.101c-.263-.112-.484-.301-.723-.453a3.176 3.176 0 0 0-.602-.288c-.143-.053-.292-.087-.432-.146l.228.096a.893.893 0 0 1-.184-.107l.193.149a.925.925 0 0 1-.145-.151l.148.192a1.292 1.292 0 0 1-.14-.244l.095.224a1.925 1.925 0 0 1-.127-.473l.033.246a3.026 3.026 0 0 1-.01-.77l-.03.232c.016-.122.047-.239.094-.353l-.085.201c.038-.089.082-.176.135-.257.05-.077.09-.16.146-.233l-.118.152a.702.702 0 0 1 .102-.104l-.144.112a.544.544 0 0 1 .083-.052l-.164.07c.135-.057.25-.094.361-.202l-.133.103a.35.35 0 0 1 .053-.031l-.145.061a.368.368 0 0 1 .08-.022h-.283c.023.003.087.028.007-.005-.087-.037-.003.002.011.01.18.099.434.082.579-.075a.568.568 0 0 0 .122-.211c.042-.129.002-.249-.048-.367Zm4.414 11.728c.04-.021.08-.04.12-.059.018-.008.035-.015.051-.024l.024-.013a.067.067 0 0 0 .012-.007c.239-.145.304-.24.464-.465a.362.362 0 0 0 .025-.04c.058-.11.106-.226.146-.344a.325.325 0 0 0 .013-.053c.02-.127.045-.259.05-.39l-.045-.327a.93.93 0 0 0-.22-.417.614.614 0 0 0-.22-.22.92.92 0 0 0-.417-.22 35.978 35.978 0 0 1-.326-.044l-.327.044a.92.92 0 0 0-.417.22.922.922 0 0 0-.316.344.535.535 0 0 1-.028.04l.194-.251a.33.33 0 0 1-.058.059l.256-.198a.318.318 0 0 1-.057.035c-.121.057-.213.156-.313.243-.044.038-.09.074-.133.114a.94.94 0 0 0-.26.404.945.945 0 0 0-.108.484l.044.334a.948.948 0 0 0 .225.428.635.635 0 0 0 .226.225.949.949 0 0 0 .427.225l.334.045a1.25 1.25 0 0 0 .634-.172Zm4.645-2.721c.257 0 .528-.112.71-.294.174-.174.305-.46.294-.71-.012-.259-.097-.528-.294-.709a1.044 1.044 0 0 0-.71-.294c-.257 0-.527.112-.71.294-.173.174-.304.459-.293.709.011.26.097.529.294.71.196.18.437.294.71.294Zm.621 4.182c.255 0 .523-.111.703-.291.172-.172.302-.455.29-.702-.01-.257-.095-.524-.29-.703a1.034 1.034 0 0 0-.703-.291c-.255 0-.522.111-.702.291-.173.172-.303.455-.291.703.011.257.096.523.29.702.195.179.434.291.703.291Zm4.958-1.516.291-.937a.704.704 0 0 0 .017-.372.694.694 0 0 0-.11-.348.71.71 0 0 0-.242-.263.71.71 0 0 0-.318-.167l-.248-.033a.931.931 0 0 0-.472.127l-.19.147a.93.93 0 0 0-.24.412l-.33.927a.72.72 0 0 0-.017.38.71.71 0 0 0 .114.355.72.72 0 0 0 .245.268.734.734 0 0 0 .325.171l.254.034a.948.948 0 0 0 .482-.13l.193-.15a.951.951 0 0 0 .246-.421Zm52.023-15.621c.408 0 .799-.359.78-.78-.019-.422-.343-.779-.78-.779-.407 0-.798.358-.779.779.019.423.343.78.779.78Zm4.037-.078c.26 0 .533-.113.717-.296.175-.176.308-.464.296-.717-.011-.262-.097-.534-.296-.716a1.055 1.055 0 0 0-.717-.297c-.26 0-.532.113-.716.297-.176.176-.308.464-.297.716.012.262.098.534.297.717.198.182.442.296.716.296Zm-3.105 8.335c.207 0 .425-.09.572-.236a.826.826 0 0 0 .237-.572c-.02-.438-.356-.809-.809-.809a.835.835 0 0 0-.572.237.821.821 0 0 0-.236.572c.019.438.355.808.808.808Zm1.988 2.466a3.318 3.318 0 0 1 .457-.247c.085-.04-.036.014-.044.017.034-.015.07-.028.105-.042.202-.077.409-.142.614-.212.261-.088.521-.185.767-.31.205-.104.399-.228.598-.342a4.791 4.791 0 0 1 .437-.224c.032-.014.065-.03.098-.043l-.075.032.066-.027c.22-.089.444-.168.669-.244.49-.164.978-.325 1.452-.532.256-.112.495-.251.743-.378.249-.128.502-.244.759-.353l-.149.063c.777-.328 1.583-.586 2.386-.844a48.435 48.435 0 0 1 2.584-.766c.836-.22 1.662-.47 2.475-.766.811-.295 1.609-.627 2.41-.949.232-.093.466-.184.699-.275l.348-.136c.12-.047.231-.079.357-.102a1.69 1.69 0 0 0 .614-.262c.125-.082.247-.172.386-.231l-.274.115a.696.696 0 0 1 .098-.031l-.311.042c.255.01.429-.077.651-.176l-.281.119a.412.412 0 0 1 .076-.022l-.31.042a.436.436 0 0 1 .081-.003l-.309-.041.021.003a.89.89 0 0 0 .463.021.861.861 0 0 0 .431-.138c.24-.141.47-.416.533-.693.067-.297.053-.63-.117-.893a1.277 1.277 0 0 0-.693-.533c-.071-.024-.139-.027-.215-.037-.059-.008-.139-.024-.205-.025-.141 0-.286.02-.42.061-.383.118-.612.371-.832.68-.113.158-.188.339-.305.493l.155-.2a.623.623 0 0 1-.091.094l.193-.15c-.083.063-.164.133-.257.181-.093.049-.19.09-.284.135l-.536.253c-.355.169-.707.343-1.06.515-.694.338-1.392.669-2.103.969l.177-.075a16.4 16.4 0 0 1-1.708.63c-.589.174-1.178.349-1.762.541-1.173.386-2.351.783-3.482 1.28-.3.132-.595.274-.882.432-.285.156-.564.315-.865.443l.145-.061c-.705.296-1.444.501-2.137.828-.315.149-.601.346-.902.519a3.868 3.868 0 0 1-.229.123c-.031.015-.087.027-.111.051.007-.007.131-.053.038-.016l-.083.033c-.156.06-.314.116-.473.172-.396.141-.79.297-1.141.533-.241.161-.369.497-.2.759.158.244.499.368.76.2ZM110.8 69.688c-.13-.89-.275-1.779-.395-2.67l.034.259a20.409 20.409 0 0 1-.175-2.395c-.005-.364.006-.728.015-1.091.007-.341.017-.683.061-1.022l-.047.348c.017-.116.028-.245.072-.354l-.135.32c.029-.065.061-.13.097-.191l-1.906.5c.08.058.109.064.228.114.089.038.152.07.239.089.149.03.408.073.511.071.122-.002.278-.015.397-.045s.251-.1.362-.15c.043-.018.086-.038.128-.06a.899.899 0 0 0 .336-.308.902.902 0 0 0 .215-.408c.068-.3.062-.661-.121-.923a2.167 2.167 0 0 1-.066-.099 1.62 1.62 0 0 0-.543-.554c-.192-.117-.388-.235-.613-.273a1.4 1.4 0 0 0-.74 0 1.048 1.048 0 0 0-.474.249 1.053 1.053 0 0 0-.359.39 1.388 1.388 0 0 0-.19.704c-.006.102.004.203-.003.305a3.476 3.476 0 0 0-.003.338c.007.227.031.453.059.679.07.571.139 1.144.237 1.712.091.527.205 1.05.332 1.57.129.53.245 1.065.376 1.596.144.584.293 1.166.437 1.75.105.43.615.73 1.042.592.205-.066.403-.194.507-.39l.085-.202c.04-.15.04-.3 0-.45Zm9.405-.075c.048-1.03.123-2.058.259-3.08l-.035.264a21.44 21.44 0 0 1 .596-2.927c.123-.437.258-.871.377-1.31.12-.442.234-.885.361-1.325.143-.494.302-.984.501-1.459l-.127.3a9.57 9.57 0 0 1 .224-.485c.205-.418.319-.866.175-1.327l-1.874 1.09c.194.222.49.347.783.349.339.001.559-.145.802-.348l.176-.227a.836.836 0 0 0 .133-.417c.032-.239.001-.506-.133-.715-.27-.418-.773-.653-1.267-.515-.029.008-.058.015-.087.025a1.571 1.571 0 0 0-.313.14 1.75 1.75 0 0 0-.26.204 1.91 1.91 0 0 0-.078.1c-.089.113-.197.222-.258.354a8.818 8.818 0 0 0-.302.757c-.115.333-.211.672-.295 1.014-.17.695-.293 1.401-.432 2.104-.147.743-.32 1.478-.428 2.228a25.661 25.661 0 0 0-.244 2.551c-.038.885-.033 1.77-.007 2.655a.91.91 0 0 0 .257.62.89.89 0 0 0 .62.257.895.895 0 0 0 .876-.877Zm8.425-.045c.512-.501.898-1.113 1.249-1.733.349-.615.719-1.216 1.113-1.804.404-.604.833-1.19 1.254-1.782a40.01 40.01 0 0 0 1.149-1.734c.421-.663.847-1.325 1.327-1.947l-.198.257c.201-.26.416-.506.63-.755a4.66 4.66 0 0 1 .598-.602l-.265.204a.526.526 0 0 1 .105-.065l-1.775-.465c.061.128.175.238.264.35l.084.108a1.189 1.189 0 0 0 1.157.305c.372-.102.757-.433.83-.83l.025-.136c.027-.146.065-.304.058-.452a1.298 1.298 0 0 0-.177-.655.986.986 0 0 0-.334-.364.983.983 0 0 0-.442-.232 1.303 1.303 0 0 0-.689 0 2.105 2.105 0 0 0-.408.17 2.526 2.526 0 0 0-.587.492c-.215.247-.408.512-.607.77l.201-.26a18.408 18.408 0 0 0-1.243 1.789c-.341.566-.658 1.145-.983 1.72-.665 1.17-1.405 2.3-2.037 3.488-.381.715-.63 1.482-.944 2.225l.089-.21a5.22 5.22 0 0 1-.662 1.164l.124-.16-.022.028c-.135.172-.232.33-.232.558a.8.8 0 0 0 .232.558c.318.292.8.308 1.116 0Zm12.745.896.611-.9a.827.827 0 0 0 .131-.409.84.84 0 0 0-.02-.439.831.831 0 0 0-.197-.374.838.838 0 0 0-.309-.284l-.263-.11a1.108 1.108 0 0 0-.585 0l-.263.11c-.166.098-.297.23-.395.395l-.595.91a.813.813 0 0 0-.129.406.826.826 0 0 0 .019.434.82.82 0 0 0 .196.372.826.826 0 0 0 .306.28l.26.11c.194.053.387.053.581 0l.26-.11c.164-.096.295-.227.392-.39ZM12.25 97.948c-1.898 1.164-3.78 2.379-5.17 4.154-.72.92-1.377 1.904-1.975 2.909a12.93 12.93 0 0 0-1.347 3.086c-1.112 3.973-.458 8.472 2.396 11.569a9.964 9.964 0 0 0 4.802 2.876c1.045.267 2.1.379 3.163.159.924-.191 1.816-.635 2.565-1.203 1.694-1.286 2.89-3.13 3.153-5.26.122-.992-.035-2.024-.535-2.898-.59-1.034-1.617-1.728-2.814-1.787-1.07-.053-2.017.383-2.816 1.062-.596.508-1.069 1.142-1.664 1.651-.737.63-1.476 1.225-2.132 1.944a15.948 15.948 0 0 0-1.89 2.519c-1.086 1.805-1.76 3.84-1.912 5.943-.076 1.051-.011 2.12.112 3.165.14 1.186.352 2.362.696 3.507.277.92.64 1.822 1.006 2.709.373.903.784 1.743 1.411 2.498.663.799 1.575 1.356 2.546 1.697a7.012 7.012 0 0 0 3.131.344c1.176-.15 2.172-.678 3.04-1.479.734-.676 1.35-1.511 1.869-2.36 1.158-1.893 1.674-4.666-.14-6.343-.474-.437-1.057-.733-1.712-.744-.61-.01-1.133.277-1.608.626-.459.337-.91.679-1.315 1.079-.403.398-.762.838-1.096 1.294-1.358 1.857-1.939 4.189-1.34 6.437.282 1.062.765 2.114 1.302 3.071.569 1.012 1.313 1.937 2.116 2.771.728.757 1.468 1.534 2.278 2.203.863.712 1.854 1.297 2.831 1.838 1.016.561 2.326 1.233 3.41.447.461-.335.733-.964.392-1.493-.294-.457-.999-.75-1.493-.392-.044.032-.166.081-.194.124.06-.095.201-.065.07-.039-.005.001.247-.009.13-.016-.043-.002-.268-.011-.082.006.166.016.047.007.01-.006-.056-.021-.117-.033-.174-.052-.075-.026-.148-.056-.221-.083-.123-.046.085.036.089.038-.03-.019-.07-.031-.102-.046a8.873 8.873 0 0 1-.485-.239c-.632-.332-1.235-.716-1.842-1.091-.138-.086-.278-.169-.414-.259a5.31 5.31 0 0 1-.288-.203c-.143-.105.022.03.032.025-.03.017-.366-.307-.405-.341a15.95 15.95 0 0 1-.424-.393 79.152 79.152 0 0 1-1.522-1.506 15.744 15.744 0 0 1-1.086-1.215c-.026-.032-.056-.064-.078-.099.005.008.112.151.04.052-.065-.091-.133-.18-.198-.271-.427-.601-.772-1.246-1.089-1.911-.069-.145-.136-.29-.201-.437-.02-.048-.044-.096-.063-.145.002.005.075.185.032.073l-.1-.252a7.913 7.913 0 0 1-.302-.974 6.34 6.34 0 0 1-.088-.44c-.044-.27.01.141-.008-.055-.007-.089-.016-.177-.021-.265a5.664 5.664 0 0 1 .016-.861c.012-.129-.007-.14-.004-.007-.004-.161.057-.348.092-.504.04-.18.088-.359.144-.534.05-.159.11-.313.17-.469.042-.113-.03.068-.03.068-.004-.018.04-.09.048-.107a8.532 8.532 0 0 1 .662-1.181c.092-.137.183-.315.303-.426-.006.005-.11.138-.036.048l.075-.094a8.618 8.618 0 0 1 .92-.971c.122-.109.248-.213.375-.317.091-.074-.058.047-.058.045a1.68 1.68 0 0 1 .09-.066l.24-.18c.112-.084.226-.166.347-.237.028-.017.058-.032.087-.049.153-.089-.036.027-.06.022.022.004.298-.075.122-.041-.201.039.198.019.018.003-.174-.015.146.056.161.052-.011.003-.179-.093-.092-.037.027.018.058.031.087.047.028.017.056.039.085.054.107.056-.173-.156-.009-.009.108.097.207.198.303.307.117.132-.097-.145.04.059.047.069.086.142.13.212.1.157-.05-.161.013.006a2.8 2.8 0 0 1 .122.434c.004.022.005.094.019.111-.032-.039-.018-.194-.011-.045.007.166.012.33.001.496l-.009.115c-.01.15-.04-.004.009-.043-.032.026-.039.223-.049.269a6.38 6.38 0 0 1-.303.978c-.054.141.08-.172.015-.038l-.049.106a7.127 7.127 0 0 1-.356.666 14.884 14.884 0 0 1-.759 1.127c-.02.027-.046.055-.064.085a16.304 16.304 0 0 1-.12.147 8.115 8.115 0 0 1-.643.692c-.113.108-.232.21-.351.312-.155.131.162-.113-.004.003-.077.055-.154.111-.234.162-.118.077-.24.149-.366.214-.033.017-.29.131-.122.064.162-.065-.085.031-.13.046a3.295 3.295 0 0 1-.435.117c-.043.008-.278.044-.097.02.166-.022.037-.005.003-.002l-.184.015a6.081 6.081 0 0 1-1-.023c-.04-.003-.079-.008-.118-.012-.09-.01-.146-.062.063.009-.07-.024-.157-.025-.23-.038a6.534 6.534 0 0 1-.927-.242c-.047-.017-.277-.11-.127-.045.144.062.024.01-.003-.003l-.132-.061a4.712 4.712 0 0 1-.568-.325c-.042-.028-.274-.201-.127-.085.144.112-.029-.027-.061-.054a4.469 4.469 0 0 1-.445-.438l-.12-.14c-.167-.199.113.161.006.007-.081-.118-.163-.234-.239-.356a7.664 7.664 0 0 1-.385-.709 10.55 10.55 0 0 1-.172-.375c-.018-.04-.106-.247-.033-.074.077.18-.039-.098-.054-.137-.108-.267-.21-.536-.314-.805-.521-1.36-.941-2.719-1.17-4.161a24.22 24.22 0 0 1-.038-.254c-.001-.011-.011-.126-.018-.127.021.005.028.222.007.043a20.304 20.304 0 0 1-.141-1.681 13.507 13.507 0 0 1 .05-2.062c.004-.043.036-.291.012-.11-.025.188.017-.109.023-.146a11.405 11.405 0 0 1 .33-1.443c.092-.308.196-.611.31-.91l.096-.241c.045-.117-.043.099-.042.097.016-.033.03-.068.044-.102a13.573 13.573 0 0 1 1.613-2.746c.022-.03.047-.059.068-.09-.034.051-.13.165-.039.052a15.126 15.126 0 0 1 2.065-2.141c.449-.382.913-.729 1.324-1.153.366-.378.71-.779 1.111-1.12.044-.037.092-.07.134-.109.01-.01-.213.15-.114.09.024-.014.047-.033.07-.049a3.05 3.05 0 0 1 .343-.206c.025-.013.053-.023.077-.038.096-.058-.146.058-.137.056.065-.016.129-.049.194-.069.126-.04.26-.052.386-.089-.305.089-.124.018-.009.014a2.86 2.86 0 0 1 .207-.001c.109.003.325.068.01-.015.074.019.15.028.223.049.045.013.253.093.077.018-.177-.075.046.029.093.056.04.024.114.096.16.103 0 0-.186-.156-.103-.079.032.029.066.055.096.084.055.053.103.111.153.166.134.148-.128-.192-.02-.024.084.129.16.26.23.397.095.183-.08-.227-.012-.033.025.073.051.145.073.219.04.138.059.278.092.417-.003-.014-.027-.312-.02-.12l.007.093a4.327 4.327 0 0 1-.008.626c-.005.052-.033.282-.003.06.032-.234-.009.042-.018.089a5.199 5.199 0 0 1-.218.806c-.021.062-.045.123-.068.184-.029.076-.099.203.05-.116l-.053.12a6.574 6.574 0 0 1-.655 1.12c-.03.042-.178.236-.041.058.138-.18-.048.055-.09.105a7.413 7.413 0 0 1-.934.924l-.078.063c-.097.082.143-.104.137-.105-.044-.003-.18.132-.216.157a6.077 6.077 0 0 1-.913.527c-.027.013-.085.048-.118.054-.03.005.31-.125.175-.075-.13.05-.26.1-.393.142a5.04 5.04 0 0 1-.806.179l.369-.05a5.19 5.19 0 0 1-1.341-.014l.37.05a8.909 8.909 0 0 1-1.845-.464c-.091-.034-.182-.072-.273-.108.45.177.086.035-.025-.017a8.48 8.48 0 0 1-1.325-.776c-.057-.04-.328-.246-.116-.082.215.167-.06-.049-.11-.091a8.603 8.603 0 0 1-1.086-1.072 12.54 12.54 0 0 1-.203-.246c-.058-.071-.142-.203.097.127l-.097-.128a9.906 9.906 0 0 1-1.107-1.857l-.053-.12c-.102-.223.11.269.044.108a10.609 10.609 0 0 1-.69-2.504c-.029-.184.04.344.01.068-.005-.053-.012-.105-.018-.158a12.058 12.058 0 0 1 .02-2.679c.013-.118.085-.22-.009.048.016-.044.017-.117.023-.16a15.804 15.804 0 0 1 .905-3.328c.1-.255-.103.227.01-.024l.065-.145c.049-.108.099-.216.15-.322.115-.234.238-.462.36-.692.255-.481.51-.962.783-1.432a16.024 16.024 0 0 1 .738-1.156l.128-.175c.025-.035.051-.069.078-.104a13.102 13.102 0 0 1 1.832-1.849c.114-.095.23-.19.346-.283l.127-.101.102-.079c.482-.372.978-.727 1.473-1.083.307-.221.455-.611.251-.96-.188-.323-.635-.45-.96-.252Z"/></svg>